G04 #@! TF.GenerationSoftware,KiCad,Pcbnew,5.1.5+dfsg1-2build2*
G04 #@! TF.CreationDate,2021-11-10T17:59:43-05:00*
G04 #@! TF.ProjectId,SINSONTE_MODEL_A,53494e53-4f4e-4544-955f-4d4f44454c5f,rev?*
G04 #@! TF.SameCoordinates,Original*
G04 #@! TF.FileFunction,Copper,L1,Top*
G04 #@! TF.FilePolarity,Positive*
%FSLAX46Y46*%
G04 Gerber Fmt 4.6, Leading zero omitted, Abs format (unit mm)*
G04 Created by KiCad (PCBNEW 5.1.5+dfsg1-2build2) date 2021-11-10 17:59:43*
%MOMM*%
%LPD*%
G04 APERTURE LIST*
%ADD10O,1.700000X1.700000*%
%ADD11C,1.700000*%
%ADD12R,3.500000X1.700000*%
%ADD13R,1.700000X1.700000*%
%ADD14R,1.700000X3.500000*%
%ADD15C,2.400000*%
%ADD16R,2.400000X2.400000*%
%ADD17R,1.100000X1.800000*%
%ADD18C,0.100000*%
%ADD19O,1.400000X1.400000*%
%ADD20C,1.400000*%
%ADD21C,1.600000*%
%ADD22R,1.600000X1.600000*%
%ADD23C,2.000000*%
%ADD24R,2.000000X2.000000*%
%ADD25C,0.750000*%
%ADD26C,0.254000*%
G04 APERTURE END LIST*
D10*
X119126000Y-82423000D03*
D11*
X119126000Y-84963000D03*
D10*
X121666000Y-82423000D03*
D11*
X121666000Y-84963000D03*
D10*
X124206000Y-82423000D03*
D11*
X124206000Y-84963000D03*
D10*
X126746000Y-82423000D03*
D11*
X126746000Y-84963000D03*
D10*
X129286000Y-82423000D03*
D11*
X129286000Y-84963000D03*
D10*
X119126000Y-95123000D03*
D11*
X119126000Y-92583000D03*
D10*
X121666000Y-95123000D03*
D11*
X121666000Y-92583000D03*
D10*
X124206000Y-95123000D03*
D11*
X124206000Y-92583000D03*
D10*
X126746000Y-95123000D03*
D11*
X126746000Y-92583000D03*
D10*
X129286000Y-95123000D03*
D11*
X129286000Y-92583000D03*
D10*
X129286000Y-90043000D03*
X126746000Y-90043000D03*
X124206000Y-90043000D03*
X121666000Y-90043000D03*
D11*
X119126000Y-90043000D03*
D10*
X129286000Y-87503000D03*
X126746000Y-87503000D03*
X124206000Y-87503000D03*
X121666000Y-87503000D03*
D11*
X119126000Y-87503000D03*
D10*
X102130000Y-57570000D03*
X99590000Y-57570000D03*
X97050000Y-57570000D03*
X94510000Y-57570000D03*
X91970000Y-57570000D03*
X89430000Y-57570000D03*
X86890000Y-57570000D03*
X84350000Y-57570000D03*
X81810000Y-57570000D03*
X79270000Y-57570000D03*
X76730000Y-57570000D03*
X74190000Y-57570000D03*
X71650000Y-57570000D03*
X69110000Y-57570000D03*
X66570000Y-57570000D03*
X64030000Y-57570000D03*
X61490000Y-57570000D03*
X58950000Y-57570000D03*
X56410000Y-57570000D03*
D11*
X53870000Y-57570000D03*
D10*
X102130000Y-80430000D03*
X99590000Y-80430000D03*
X97050000Y-80430000D03*
X94510000Y-80430000D03*
X91970000Y-80430000D03*
X89430000Y-80430000D03*
X86890000Y-80430000D03*
X84350000Y-80430000D03*
X81810000Y-80430000D03*
X79270000Y-80430000D03*
X76730000Y-80430000D03*
X74190000Y-80430000D03*
X71650000Y-80430000D03*
X69110000Y-80430000D03*
X66570000Y-80430000D03*
X64030000Y-80430000D03*
X61490000Y-80430000D03*
X58950000Y-80430000D03*
X56410000Y-80430000D03*
D11*
X53870000Y-80430000D03*
D10*
X101900000Y-66460000D03*
D12*
X102800000Y-66460000D03*
D13*
X101900000Y-69000000D03*
D12*
X102800000Y-69000000D03*
D10*
X101900000Y-71540000D03*
D12*
X102800000Y-71540000D03*
D14*
X102130000Y-59210000D03*
X99590000Y-59210000D03*
X97050000Y-59210000D03*
X94510000Y-59210000D03*
X91970000Y-59210000D03*
X89430000Y-59210000D03*
X86890000Y-59210000D03*
X84350000Y-59210000D03*
X81810000Y-59210000D03*
X79270000Y-59210000D03*
X76730000Y-59210000D03*
X74190000Y-59210000D03*
X71650000Y-59210000D03*
X69110000Y-59210000D03*
X66570000Y-59210000D03*
X64030000Y-59210000D03*
X61490000Y-59210000D03*
X58950000Y-59210000D03*
X56410000Y-59210000D03*
X53870000Y-59210000D03*
X102130000Y-78790000D03*
X99590000Y-78790000D03*
X97050000Y-78790000D03*
X94510000Y-78790000D03*
X91970000Y-78790000D03*
X89430000Y-78790000D03*
X86890000Y-78790000D03*
X84350000Y-78790000D03*
X81810000Y-78790000D03*
X79270000Y-78790000D03*
X76730000Y-78790000D03*
X74190000Y-78790000D03*
X71650000Y-78790000D03*
X69110000Y-78790000D03*
X66570000Y-78790000D03*
X64030000Y-78790000D03*
X61490000Y-78790000D03*
X58950000Y-78790000D03*
X56410000Y-78790000D03*
X53870000Y-78790000D03*
D10*
X53870000Y-60110000D03*
X56410000Y-60110000D03*
D13*
X58950000Y-60110000D03*
D10*
X61490000Y-60110000D03*
X64030000Y-60110000D03*
X66570000Y-60110000D03*
X69110000Y-60110000D03*
D13*
X71650000Y-60110000D03*
D10*
X74190000Y-60110000D03*
X76730000Y-60110000D03*
X79270000Y-60110000D03*
X81810000Y-60110000D03*
D13*
X84350000Y-60110000D03*
D10*
X86890000Y-60110000D03*
X89430000Y-60110000D03*
X91970000Y-60110000D03*
X94510000Y-60110000D03*
D13*
X97050000Y-60110000D03*
D10*
X99590000Y-60110000D03*
X102130000Y-60110000D03*
X102130000Y-77890000D03*
X99590000Y-77890000D03*
D13*
X97050000Y-77890000D03*
D10*
X94510000Y-77890000D03*
X91970000Y-77890000D03*
X89430000Y-77890000D03*
X86890000Y-77890000D03*
D13*
X84350000Y-77890000D03*
D10*
X81810000Y-77890000D03*
X79270000Y-77890000D03*
X76730000Y-77890000D03*
X74190000Y-77890000D03*
D13*
X71650000Y-77890000D03*
D10*
X69110000Y-77890000D03*
X66570000Y-77890000D03*
X64030000Y-77890000D03*
X61490000Y-77890000D03*
D13*
X58950000Y-77890000D03*
D10*
X56410000Y-77890000D03*
X53870000Y-77890000D03*
D15*
X53086000Y-102941000D03*
D16*
X53086000Y-99441000D03*
D17*
X106045000Y-56915000D03*
G04 #@! TA.AperFunction,ComponentPad*
D18*
G36*
X108886955Y-56016324D02*
G01*
X108913650Y-56020284D01*
X108939828Y-56026841D01*
X108965238Y-56035933D01*
X108989634Y-56047472D01*
X109012782Y-56061346D01*
X109034458Y-56077422D01*
X109054454Y-56095546D01*
X109072578Y-56115542D01*
X109088654Y-56137218D01*
X109102528Y-56160366D01*
X109114067Y-56184762D01*
X109123159Y-56210172D01*
X109129716Y-56236350D01*
X109133676Y-56263045D01*
X109135000Y-56290000D01*
X109135000Y-57540000D01*
X109133676Y-57566955D01*
X109129716Y-57593650D01*
X109123159Y-57619828D01*
X109114067Y-57645238D01*
X109102528Y-57669634D01*
X109088654Y-57692782D01*
X109072578Y-57714458D01*
X109054454Y-57734454D01*
X109034458Y-57752578D01*
X109012782Y-57768654D01*
X108989634Y-57782528D01*
X108965238Y-57794067D01*
X108939828Y-57803159D01*
X108913650Y-57809716D01*
X108886955Y-57813676D01*
X108860000Y-57815000D01*
X108310000Y-57815000D01*
X108283045Y-57813676D01*
X108256350Y-57809716D01*
X108230172Y-57803159D01*
X108204762Y-57794067D01*
X108180366Y-57782528D01*
X108157218Y-57768654D01*
X108135542Y-57752578D01*
X108115546Y-57734454D01*
X108097422Y-57714458D01*
X108081346Y-57692782D01*
X108067472Y-57669634D01*
X108055933Y-57645238D01*
X108046841Y-57619828D01*
X108040284Y-57593650D01*
X108036324Y-57566955D01*
X108035000Y-57540000D01*
X108035000Y-56290000D01*
X108036324Y-56263045D01*
X108040284Y-56236350D01*
X108046841Y-56210172D01*
X108055933Y-56184762D01*
X108067472Y-56160366D01*
X108081346Y-56137218D01*
X108097422Y-56115542D01*
X108115546Y-56095546D01*
X108135542Y-56077422D01*
X108157218Y-56061346D01*
X108180366Y-56047472D01*
X108204762Y-56035933D01*
X108230172Y-56026841D01*
X108256350Y-56020284D01*
X108283045Y-56016324D01*
X108310000Y-56015000D01*
X108860000Y-56015000D01*
X108886955Y-56016324D01*
G37*
G04 #@! TD.AperFunction*
G04 #@! TA.AperFunction,ComponentPad*
G36*
X107616955Y-53946324D02*
G01*
X107643650Y-53950284D01*
X107669828Y-53956841D01*
X107695238Y-53965933D01*
X107719634Y-53977472D01*
X107742782Y-53991346D01*
X107764458Y-54007422D01*
X107784454Y-54025546D01*
X107802578Y-54045542D01*
X107818654Y-54067218D01*
X107832528Y-54090366D01*
X107844067Y-54114762D01*
X107853159Y-54140172D01*
X107859716Y-54166350D01*
X107863676Y-54193045D01*
X107865000Y-54220000D01*
X107865000Y-55470000D01*
X107863676Y-55496955D01*
X107859716Y-55523650D01*
X107853159Y-55549828D01*
X107844067Y-55575238D01*
X107832528Y-55599634D01*
X107818654Y-55622782D01*
X107802578Y-55644458D01*
X107784454Y-55664454D01*
X107764458Y-55682578D01*
X107742782Y-55698654D01*
X107719634Y-55712528D01*
X107695238Y-55724067D01*
X107669828Y-55733159D01*
X107643650Y-55739716D01*
X107616955Y-55743676D01*
X107590000Y-55745000D01*
X107040000Y-55745000D01*
X107013045Y-55743676D01*
X106986350Y-55739716D01*
X106960172Y-55733159D01*
X106934762Y-55724067D01*
X106910366Y-55712528D01*
X106887218Y-55698654D01*
X106865542Y-55682578D01*
X106845546Y-55664454D01*
X106827422Y-55644458D01*
X106811346Y-55622782D01*
X106797472Y-55599634D01*
X106785933Y-55575238D01*
X106776841Y-55549828D01*
X106770284Y-55523650D01*
X106766324Y-55496955D01*
X106765000Y-55470000D01*
X106765000Y-54220000D01*
X106766324Y-54193045D01*
X106770284Y-54166350D01*
X106776841Y-54140172D01*
X106785933Y-54114762D01*
X106797472Y-54090366D01*
X106811346Y-54067218D01*
X106827422Y-54045542D01*
X106845546Y-54025546D01*
X106865542Y-54007422D01*
X106887218Y-53991346D01*
X106910366Y-53977472D01*
X106934762Y-53965933D01*
X106960172Y-53956841D01*
X106986350Y-53950284D01*
X107013045Y-53946324D01*
X107040000Y-53945000D01*
X107590000Y-53945000D01*
X107616955Y-53946324D01*
G37*
G04 #@! TD.AperFunction*
D17*
X130429000Y-103740000D03*
G04 #@! TA.AperFunction,ComponentPad*
D18*
G36*
X128190955Y-102841324D02*
G01*
X128217650Y-102845284D01*
X128243828Y-102851841D01*
X128269238Y-102860933D01*
X128293634Y-102872472D01*
X128316782Y-102886346D01*
X128338458Y-102902422D01*
X128358454Y-102920546D01*
X128376578Y-102940542D01*
X128392654Y-102962218D01*
X128406528Y-102985366D01*
X128418067Y-103009762D01*
X128427159Y-103035172D01*
X128433716Y-103061350D01*
X128437676Y-103088045D01*
X128439000Y-103115000D01*
X128439000Y-104365000D01*
X128437676Y-104391955D01*
X128433716Y-104418650D01*
X128427159Y-104444828D01*
X128418067Y-104470238D01*
X128406528Y-104494634D01*
X128392654Y-104517782D01*
X128376578Y-104539458D01*
X128358454Y-104559454D01*
X128338458Y-104577578D01*
X128316782Y-104593654D01*
X128293634Y-104607528D01*
X128269238Y-104619067D01*
X128243828Y-104628159D01*
X128217650Y-104634716D01*
X128190955Y-104638676D01*
X128164000Y-104640000D01*
X127614000Y-104640000D01*
X127587045Y-104638676D01*
X127560350Y-104634716D01*
X127534172Y-104628159D01*
X127508762Y-104619067D01*
X127484366Y-104607528D01*
X127461218Y-104593654D01*
X127439542Y-104577578D01*
X127419546Y-104559454D01*
X127401422Y-104539458D01*
X127385346Y-104517782D01*
X127371472Y-104494634D01*
X127359933Y-104470238D01*
X127350841Y-104444828D01*
X127344284Y-104418650D01*
X127340324Y-104391955D01*
X127339000Y-104365000D01*
X127339000Y-103115000D01*
X127340324Y-103088045D01*
X127344284Y-103061350D01*
X127350841Y-103035172D01*
X127359933Y-103009762D01*
X127371472Y-102985366D01*
X127385346Y-102962218D01*
X127401422Y-102940542D01*
X127419546Y-102920546D01*
X127439542Y-102902422D01*
X127461218Y-102886346D01*
X127484366Y-102872472D01*
X127508762Y-102860933D01*
X127534172Y-102851841D01*
X127560350Y-102845284D01*
X127587045Y-102841324D01*
X127614000Y-102840000D01*
X128164000Y-102840000D01*
X128190955Y-102841324D01*
G37*
G04 #@! TD.AperFunction*
G04 #@! TA.AperFunction,ComponentPad*
G36*
X129460955Y-104911324D02*
G01*
X129487650Y-104915284D01*
X129513828Y-104921841D01*
X129539238Y-104930933D01*
X129563634Y-104942472D01*
X129586782Y-104956346D01*
X129608458Y-104972422D01*
X129628454Y-104990546D01*
X129646578Y-105010542D01*
X129662654Y-105032218D01*
X129676528Y-105055366D01*
X129688067Y-105079762D01*
X129697159Y-105105172D01*
X129703716Y-105131350D01*
X129707676Y-105158045D01*
X129709000Y-105185000D01*
X129709000Y-106435000D01*
X129707676Y-106461955D01*
X129703716Y-106488650D01*
X129697159Y-106514828D01*
X129688067Y-106540238D01*
X129676528Y-106564634D01*
X129662654Y-106587782D01*
X129646578Y-106609458D01*
X129628454Y-106629454D01*
X129608458Y-106647578D01*
X129586782Y-106663654D01*
X129563634Y-106677528D01*
X129539238Y-106689067D01*
X129513828Y-106698159D01*
X129487650Y-106704716D01*
X129460955Y-106708676D01*
X129434000Y-106710000D01*
X128884000Y-106710000D01*
X128857045Y-106708676D01*
X128830350Y-106704716D01*
X128804172Y-106698159D01*
X128778762Y-106689067D01*
X128754366Y-106677528D01*
X128731218Y-106663654D01*
X128709542Y-106647578D01*
X128689546Y-106629454D01*
X128671422Y-106609458D01*
X128655346Y-106587782D01*
X128641472Y-106564634D01*
X128629933Y-106540238D01*
X128620841Y-106514828D01*
X128614284Y-106488650D01*
X128610324Y-106461955D01*
X128609000Y-106435000D01*
X128609000Y-105185000D01*
X128610324Y-105158045D01*
X128614284Y-105131350D01*
X128620841Y-105105172D01*
X128629933Y-105079762D01*
X128641472Y-105055366D01*
X128655346Y-105032218D01*
X128671422Y-105010542D01*
X128689546Y-104990546D01*
X128709542Y-104972422D01*
X128731218Y-104956346D01*
X128754366Y-104942472D01*
X128778762Y-104930933D01*
X128804172Y-104921841D01*
X128830350Y-104915284D01*
X128857045Y-104911324D01*
X128884000Y-104910000D01*
X129434000Y-104910000D01*
X129460955Y-104911324D01*
G37*
G04 #@! TD.AperFunction*
D10*
X136588500Y-98806000D03*
X134048500Y-98806000D03*
D13*
X131508500Y-98806000D03*
D19*
X133985000Y-105664000D03*
D20*
X133985000Y-103124000D03*
D19*
X68580000Y-52700000D03*
D20*
X66040000Y-52700000D03*
D21*
X76120000Y-52700000D03*
X71120000Y-52700000D03*
D19*
X109220000Y-78105000D03*
D20*
X106680000Y-78105000D03*
D19*
X107950000Y-67310000D03*
D20*
X107950000Y-64770000D03*
D10*
X106680000Y-72263000D03*
D13*
X109220000Y-72263000D03*
D19*
X105960000Y-52400000D03*
D20*
X108500000Y-52400000D03*
D10*
X111460000Y-52705000D03*
D13*
X114000000Y-52705000D03*
D21*
X101814000Y-53594000D03*
D22*
X99314000Y-53594000D03*
D23*
X132334000Y-82781000D03*
X136834000Y-82781000D03*
X132334000Y-89281000D03*
X136834000Y-89281000D03*
D10*
X136525000Y-93726000D03*
D13*
X133985000Y-93726000D03*
D19*
X124714000Y-103378000D03*
D20*
X122174000Y-103378000D03*
D19*
X124000000Y-109460000D03*
D20*
X124000000Y-112000000D03*
D21*
X130135000Y-114300000D03*
D22*
X127635000Y-114300000D03*
D23*
X60000000Y-107700000D03*
D24*
X60000000Y-92710000D03*
D25*
X119126000Y-90043000D02*
X121666000Y-90043000D01*
X121666000Y-90043000D02*
X124206000Y-90043000D01*
X124206000Y-90043000D02*
X126746000Y-90043000D01*
X126746000Y-90043000D02*
X129286000Y-90043000D01*
X119126000Y-87503000D02*
X121666000Y-87503000D01*
X121666000Y-87503000D02*
X124206000Y-87503000D01*
X124206000Y-87503000D02*
X126746000Y-87503000D01*
X126746000Y-87503000D02*
X129286000Y-87503000D01*
X129286000Y-95123000D02*
X129286000Y-92583000D01*
X126746000Y-92583000D02*
X126746000Y-95123000D01*
X124206000Y-92583000D02*
X124206000Y-95123000D01*
X121666000Y-92583000D02*
X121666000Y-95123000D01*
X119126000Y-92583000D02*
X119126000Y-95123000D01*
X129286000Y-82423000D02*
X129286000Y-84963000D01*
X126746000Y-82423000D02*
X126746000Y-84963000D01*
X124206000Y-82423000D02*
X124206000Y-84963000D01*
X121666000Y-82423000D02*
X121666000Y-84963000D01*
X119126000Y-82423000D02*
X119126000Y-84963000D01*
D26*
G36*
X139340001Y-119340000D02*
G01*
X50660000Y-119340000D01*
X50660000Y-115779872D01*
X51765000Y-115779872D01*
X51765000Y-116220128D01*
X51850890Y-116651925D01*
X52019369Y-117058669D01*
X52263962Y-117424729D01*
X52575271Y-117736038D01*
X52941331Y-117980631D01*
X53348075Y-118149110D01*
X53779872Y-118235000D01*
X54220128Y-118235000D01*
X54651925Y-118149110D01*
X55058669Y-117980631D01*
X55424729Y-117736038D01*
X55736038Y-117424729D01*
X55980631Y-117058669D01*
X56149110Y-116651925D01*
X56235000Y-116220128D01*
X56235000Y-115779872D01*
X133765000Y-115779872D01*
X133765000Y-116220128D01*
X133850890Y-116651925D01*
X134019369Y-117058669D01*
X134263962Y-117424729D01*
X134575271Y-117736038D01*
X134941331Y-117980631D01*
X135348075Y-118149110D01*
X135779872Y-118235000D01*
X136220128Y-118235000D01*
X136651925Y-118149110D01*
X137058669Y-117980631D01*
X137424729Y-117736038D01*
X137736038Y-117424729D01*
X137980631Y-117058669D01*
X138149110Y-116651925D01*
X138235000Y-116220128D01*
X138235000Y-115779872D01*
X138149110Y-115348075D01*
X137980631Y-114941331D01*
X137736038Y-114575271D01*
X137424729Y-114263962D01*
X137058669Y-114019369D01*
X136651925Y-113850890D01*
X136220128Y-113765000D01*
X135779872Y-113765000D01*
X135348075Y-113850890D01*
X134941331Y-114019369D01*
X134575271Y-114263962D01*
X134263962Y-114575271D01*
X134019369Y-114941331D01*
X133850890Y-115348075D01*
X133765000Y-115779872D01*
X56235000Y-115779872D01*
X56149110Y-115348075D01*
X55980631Y-114941331D01*
X55736038Y-114575271D01*
X55424729Y-114263962D01*
X55058669Y-114019369D01*
X54651925Y-113850890D01*
X54220128Y-113765000D01*
X53779872Y-113765000D01*
X53348075Y-113850890D01*
X52941331Y-114019369D01*
X52575271Y-114263962D01*
X52263962Y-114575271D01*
X52019369Y-114941331D01*
X51850890Y-115348075D01*
X51765000Y-115779872D01*
X50660000Y-115779872D01*
X50660000Y-113500000D01*
X126196928Y-113500000D01*
X126196928Y-115100000D01*
X126209188Y-115224482D01*
X126245498Y-115344180D01*
X126304463Y-115454494D01*
X126383815Y-115551185D01*
X126480506Y-115630537D01*
X126590820Y-115689502D01*
X126710518Y-115725812D01*
X126835000Y-115738072D01*
X128435000Y-115738072D01*
X128559482Y-115725812D01*
X128679180Y-115689502D01*
X128789494Y-115630537D01*
X128886185Y-115551185D01*
X128965537Y-115454494D01*
X129024502Y-115344180D01*
X129040117Y-115292702D01*
X129321903Y-115292702D01*
X129393486Y-115536671D01*
X129648996Y-115657571D01*
X129923184Y-115726300D01*
X130205512Y-115740217D01*
X130485130Y-115698787D01*
X130751292Y-115603603D01*
X130876514Y-115536671D01*
X130948097Y-115292702D01*
X130135000Y-114479605D01*
X129321903Y-115292702D01*
X129040117Y-115292702D01*
X129060812Y-115224482D01*
X129073072Y-115100000D01*
X129073072Y-115092785D01*
X129142298Y-115113097D01*
X129955395Y-114300000D01*
X130314605Y-114300000D01*
X131127702Y-115113097D01*
X131371671Y-115041514D01*
X131492571Y-114786004D01*
X131561300Y-114511816D01*
X131575217Y-114229488D01*
X131533787Y-113949870D01*
X131438603Y-113683708D01*
X131371671Y-113558486D01*
X131127702Y-113486903D01*
X130314605Y-114300000D01*
X129955395Y-114300000D01*
X129142298Y-113486903D01*
X129073072Y-113507215D01*
X129073072Y-113500000D01*
X129060812Y-113375518D01*
X129040118Y-113307298D01*
X129321903Y-113307298D01*
X130135000Y-114120395D01*
X130948097Y-113307298D01*
X130876514Y-113063329D01*
X130621004Y-112942429D01*
X130346816Y-112873700D01*
X130064488Y-112859783D01*
X129784870Y-112901213D01*
X129518708Y-112996397D01*
X129393486Y-113063329D01*
X129321903Y-113307298D01*
X129040118Y-113307298D01*
X129024502Y-113255820D01*
X128965537Y-113145506D01*
X128886185Y-113048815D01*
X128789494Y-112969463D01*
X128679180Y-112910498D01*
X128559482Y-112874188D01*
X128435000Y-112861928D01*
X126835000Y-112861928D01*
X126710518Y-112874188D01*
X126590820Y-112910498D01*
X126480506Y-112969463D01*
X126383815Y-113048815D01*
X126304463Y-113145506D01*
X126245498Y-113255820D01*
X126209188Y-113375518D01*
X126196928Y-113500000D01*
X50660000Y-113500000D01*
X50660000Y-108835413D01*
X59044192Y-108835413D01*
X59139956Y-109099814D01*
X59429571Y-109240704D01*
X59741108Y-109322384D01*
X60062595Y-109341718D01*
X60381675Y-109297961D01*
X60686088Y-109192795D01*
X60860044Y-109099814D01*
X60955808Y-108835413D01*
X60000000Y-107879605D01*
X59044192Y-108835413D01*
X50660000Y-108835413D01*
X50660000Y-107762595D01*
X58358282Y-107762595D01*
X58402039Y-108081675D01*
X58507205Y-108386088D01*
X58600186Y-108560044D01*
X58864587Y-108655808D01*
X59820395Y-107700000D01*
X60179605Y-107700000D01*
X61135413Y-108655808D01*
X61399814Y-108560044D01*
X61540704Y-108270429D01*
X61622384Y-107958892D01*
X61641718Y-107637405D01*
X61619440Y-107474947D01*
X84880000Y-107474947D01*
X84880000Y-107925053D01*
X84967811Y-108366510D01*
X85140059Y-108782353D01*
X85390125Y-109156603D01*
X85708397Y-109474875D01*
X86082647Y-109724941D01*
X86498490Y-109897189D01*
X86939947Y-109985000D01*
X87390053Y-109985000D01*
X87831510Y-109897189D01*
X88247353Y-109724941D01*
X88621603Y-109474875D01*
X88767964Y-109328514D01*
X122665000Y-109328514D01*
X122665000Y-109591486D01*
X122716304Y-109849405D01*
X122816939Y-110092359D01*
X122963038Y-110311013D01*
X123148987Y-110496962D01*
X123367641Y-110643061D01*
X123577530Y-110730000D01*
X123367641Y-110816939D01*
X123148987Y-110963038D01*
X122963038Y-111148987D01*
X122816939Y-111367641D01*
X122716304Y-111610595D01*
X122665000Y-111868514D01*
X122665000Y-112131486D01*
X122716304Y-112389405D01*
X122816939Y-112632359D01*
X122963038Y-112851013D01*
X123148987Y-113036962D01*
X123367641Y-113183061D01*
X123610595Y-113283696D01*
X123868514Y-113335000D01*
X124131486Y-113335000D01*
X124389405Y-113283696D01*
X124632359Y-113183061D01*
X124851013Y-113036962D01*
X125036962Y-112851013D01*
X125183061Y-112632359D01*
X125283696Y-112389405D01*
X125335000Y-112131486D01*
X125335000Y-111868514D01*
X125283696Y-111610595D01*
X125183061Y-111367641D01*
X125036962Y-111148987D01*
X124851013Y-110963038D01*
X124632359Y-110816939D01*
X124422470Y-110730000D01*
X124632359Y-110643061D01*
X124851013Y-110496962D01*
X125036962Y-110311013D01*
X125183061Y-110092359D01*
X125283696Y-109849405D01*
X125335000Y-109591486D01*
X125335000Y-109328514D01*
X125283696Y-109070595D01*
X125183061Y-108827641D01*
X125036962Y-108608987D01*
X124851013Y-108423038D01*
X124632359Y-108276939D01*
X124389405Y-108176304D01*
X124131486Y-108125000D01*
X123868514Y-108125000D01*
X123610595Y-108176304D01*
X123367641Y-108276939D01*
X123148987Y-108423038D01*
X122963038Y-108608987D01*
X122816939Y-108827641D01*
X122716304Y-109070595D01*
X122665000Y-109328514D01*
X88767964Y-109328514D01*
X88939875Y-109156603D01*
X89189941Y-108782353D01*
X89362189Y-108366510D01*
X89450000Y-107925053D01*
X89450000Y-107474947D01*
X89362189Y-107033490D01*
X89189941Y-106617647D01*
X88939875Y-106243397D01*
X88621603Y-105925125D01*
X88247353Y-105675059D01*
X87831510Y-105502811D01*
X87390053Y-105415000D01*
X86939947Y-105415000D01*
X86498490Y-105502811D01*
X86082647Y-105675059D01*
X85708397Y-105925125D01*
X85390125Y-106243397D01*
X85140059Y-106617647D01*
X84967811Y-107033490D01*
X84880000Y-107474947D01*
X61619440Y-107474947D01*
X61597961Y-107318325D01*
X61492795Y-107013912D01*
X61399814Y-106839956D01*
X61135413Y-106744192D01*
X60179605Y-107700000D01*
X59820395Y-107700000D01*
X58864587Y-106744192D01*
X58600186Y-106839956D01*
X58459296Y-107129571D01*
X58377616Y-107441108D01*
X58358282Y-107762595D01*
X50660000Y-107762595D01*
X50660000Y-106564587D01*
X59044192Y-106564587D01*
X60000000Y-107520395D01*
X60955808Y-106564587D01*
X60860044Y-106300186D01*
X60570429Y-106159296D01*
X60258892Y-106077616D01*
X59937405Y-106058282D01*
X59618325Y-106102039D01*
X59313912Y-106207205D01*
X59139956Y-106300186D01*
X59044192Y-106564587D01*
X50660000Y-106564587D01*
X50660000Y-104218980D01*
X51987626Y-104218980D01*
X52107514Y-104503836D01*
X52431210Y-104664699D01*
X52780069Y-104759322D01*
X53140684Y-104784067D01*
X53499198Y-104737985D01*
X53841833Y-104622846D01*
X54064486Y-104503836D01*
X54184374Y-104218980D01*
X53086000Y-103120605D01*
X51987626Y-104218980D01*
X50660000Y-104218980D01*
X50660000Y-102995684D01*
X51242933Y-102995684D01*
X51289015Y-103354198D01*
X51404154Y-103696833D01*
X51523164Y-103919486D01*
X51808020Y-104039374D01*
X52906395Y-102941000D01*
X53265605Y-102941000D01*
X54363980Y-104039374D01*
X54648836Y-103919486D01*
X54809699Y-103595790D01*
X54904322Y-103246931D01*
X54904350Y-103246514D01*
X120839000Y-103246514D01*
X120839000Y-103509486D01*
X120890304Y-103767405D01*
X120990939Y-104010359D01*
X121137038Y-104229013D01*
X121322987Y-104414962D01*
X121541641Y-104561061D01*
X121784595Y-104661696D01*
X122042514Y-104713000D01*
X122305486Y-104713000D01*
X122563405Y-104661696D01*
X122806359Y-104561061D01*
X123025013Y-104414962D01*
X123210962Y-104229013D01*
X123357061Y-104010359D01*
X123444000Y-103800470D01*
X123530939Y-104010359D01*
X123677038Y-104229013D01*
X123862987Y-104414962D01*
X124081641Y-104561061D01*
X124324595Y-104661696D01*
X124582514Y-104713000D01*
X124845486Y-104713000D01*
X125103405Y-104661696D01*
X125346359Y-104561061D01*
X125565013Y-104414962D01*
X125750962Y-104229013D01*
X125897061Y-104010359D01*
X125997696Y-103767405D01*
X126049000Y-103509486D01*
X126049000Y-103246514D01*
X126022840Y-103115000D01*
X126700928Y-103115000D01*
X126700928Y-104365000D01*
X126718472Y-104543132D01*
X126770431Y-104714418D01*
X126854808Y-104872276D01*
X126968361Y-105010639D01*
X127106724Y-105124192D01*
X127264582Y-105208569D01*
X127435868Y-105260528D01*
X127614000Y-105278072D01*
X127970928Y-105278072D01*
X127970928Y-106435000D01*
X127988472Y-106613132D01*
X128040431Y-106784418D01*
X128124808Y-106942276D01*
X128238361Y-107080639D01*
X128376724Y-107194192D01*
X128534582Y-107278569D01*
X128705868Y-107330528D01*
X128884000Y-107348072D01*
X129434000Y-107348072D01*
X129612132Y-107330528D01*
X129783418Y-107278569D01*
X129941276Y-107194192D01*
X130079639Y-107080639D01*
X130193192Y-106942276D01*
X130277569Y-106784418D01*
X130329528Y-106613132D01*
X130347072Y-106435000D01*
X130347072Y-105997330D01*
X132692278Y-105997330D01*
X132782147Y-106243123D01*
X132918241Y-106466660D01*
X133095330Y-106659351D01*
X133306608Y-106813792D01*
X133543956Y-106924047D01*
X133651671Y-106956716D01*
X133858000Y-106833374D01*
X133858000Y-105791000D01*
X134112000Y-105791000D01*
X134112000Y-106833374D01*
X134318329Y-106956716D01*
X134426044Y-106924047D01*
X134663392Y-106813792D01*
X134874670Y-106659351D01*
X135051759Y-106466660D01*
X135187853Y-106243123D01*
X135277722Y-105997330D01*
X135155201Y-105791000D01*
X134112000Y-105791000D01*
X133858000Y-105791000D01*
X132814799Y-105791000D01*
X132692278Y-105997330D01*
X130347072Y-105997330D01*
X130347072Y-105185000D01*
X130329528Y-105006868D01*
X130302000Y-104916120D01*
X130302000Y-103867000D01*
X130556000Y-103867000D01*
X130556000Y-105116250D01*
X130714750Y-105275000D01*
X130979000Y-105278072D01*
X131103482Y-105265812D01*
X131223180Y-105229502D01*
X131333494Y-105170537D01*
X131430185Y-105091185D01*
X131509537Y-104994494D01*
X131568502Y-104884180D01*
X131604812Y-104764482D01*
X131617072Y-104640000D01*
X131614000Y-104025750D01*
X131455250Y-103867000D01*
X130556000Y-103867000D01*
X130302000Y-103867000D01*
X129402750Y-103867000D01*
X129244000Y-104025750D01*
X129242769Y-104271928D01*
X129077072Y-104271928D01*
X129077072Y-103115000D01*
X129059528Y-102936868D01*
X129030144Y-102840000D01*
X129240928Y-102840000D01*
X129244000Y-103454250D01*
X129402750Y-103613000D01*
X130302000Y-103613000D01*
X130302000Y-102363750D01*
X130556000Y-102363750D01*
X130556000Y-103613000D01*
X131455250Y-103613000D01*
X131614000Y-103454250D01*
X131616309Y-102992514D01*
X132650000Y-102992514D01*
X132650000Y-103255486D01*
X132701304Y-103513405D01*
X132801939Y-103756359D01*
X132948038Y-103975013D01*
X133133987Y-104160962D01*
X133352641Y-104307061D01*
X133568550Y-104396494D01*
X133543956Y-104403953D01*
X133306608Y-104514208D01*
X133095330Y-104668649D01*
X132918241Y-104861340D01*
X132782147Y-105084877D01*
X132692278Y-105330670D01*
X132814799Y-105537000D01*
X133858000Y-105537000D01*
X133858000Y-105517000D01*
X134112000Y-105517000D01*
X134112000Y-105537000D01*
X135155201Y-105537000D01*
X135277722Y-105330670D01*
X135187853Y-105084877D01*
X135051759Y-104861340D01*
X134874670Y-104668649D01*
X134663392Y-104514208D01*
X134426044Y-104403953D01*
X134401450Y-104396494D01*
X134617359Y-104307061D01*
X134836013Y-104160962D01*
X135021962Y-103975013D01*
X135168061Y-103756359D01*
X135268696Y-103513405D01*
X135320000Y-103255486D01*
X135320000Y-102992514D01*
X135268696Y-102734595D01*
X135168061Y-102491641D01*
X135021962Y-102272987D01*
X134836013Y-102087038D01*
X134617359Y-101940939D01*
X134374405Y-101840304D01*
X134116486Y-101789000D01*
X133853514Y-101789000D01*
X133595595Y-101840304D01*
X133352641Y-101940939D01*
X133133987Y-102087038D01*
X132948038Y-102272987D01*
X132801939Y-102491641D01*
X132701304Y-102734595D01*
X132650000Y-102992514D01*
X131616309Y-102992514D01*
X131617072Y-102840000D01*
X131604812Y-102715518D01*
X131568502Y-102595820D01*
X131509537Y-102485506D01*
X131430185Y-102388815D01*
X131333494Y-102309463D01*
X131223180Y-102250498D01*
X131103482Y-102214188D01*
X130979000Y-102201928D01*
X130714750Y-102205000D01*
X130556000Y-102363750D01*
X130302000Y-102363750D01*
X130143250Y-102205000D01*
X129879000Y-102201928D01*
X129754518Y-102214188D01*
X129634820Y-102250498D01*
X129524506Y-102309463D01*
X129427815Y-102388815D01*
X129348463Y-102485506D01*
X129289498Y-102595820D01*
X129253188Y-102715518D01*
X129240928Y-102840000D01*
X129030144Y-102840000D01*
X129007569Y-102765582D01*
X128923192Y-102607724D01*
X128809639Y-102469361D01*
X128671276Y-102355808D01*
X128513418Y-102271431D01*
X128342132Y-102219472D01*
X128164000Y-102201928D01*
X127614000Y-102201928D01*
X127435868Y-102219472D01*
X127264582Y-102271431D01*
X127106724Y-102355808D01*
X126968361Y-102469361D01*
X126854808Y-102607724D01*
X126770431Y-102765582D01*
X126718472Y-102936868D01*
X126700928Y-103115000D01*
X126022840Y-103115000D01*
X125997696Y-102988595D01*
X125897061Y-102745641D01*
X125750962Y-102526987D01*
X125565013Y-102341038D01*
X125346359Y-102194939D01*
X125103405Y-102094304D01*
X124845486Y-102043000D01*
X124582514Y-102043000D01*
X124324595Y-102094304D01*
X124081641Y-102194939D01*
X123862987Y-102341038D01*
X123677038Y-102526987D01*
X123530939Y-102745641D01*
X123444000Y-102955530D01*
X123357061Y-102745641D01*
X123210962Y-102526987D01*
X123025013Y-102341038D01*
X122806359Y-102194939D01*
X122563405Y-102094304D01*
X122305486Y-102043000D01*
X122042514Y-102043000D01*
X121784595Y-102094304D01*
X121541641Y-102194939D01*
X121322987Y-102341038D01*
X121137038Y-102526987D01*
X120990939Y-102745641D01*
X120890304Y-102988595D01*
X120839000Y-103246514D01*
X54904350Y-103246514D01*
X54929067Y-102886316D01*
X54882985Y-102527802D01*
X54767846Y-102185167D01*
X54648836Y-101962514D01*
X54363980Y-101842626D01*
X53265605Y-102941000D01*
X52906395Y-102941000D01*
X51808020Y-101842626D01*
X51523164Y-101962514D01*
X51362301Y-102286210D01*
X51267678Y-102635069D01*
X51242933Y-102995684D01*
X50660000Y-102995684D01*
X50660000Y-98241000D01*
X51247928Y-98241000D01*
X51247928Y-100641000D01*
X51260188Y-100765482D01*
X51296498Y-100885180D01*
X51355463Y-100995494D01*
X51434815Y-101092185D01*
X51531506Y-101171537D01*
X51641820Y-101230502D01*
X51761518Y-101266812D01*
X51886000Y-101279072D01*
X52292903Y-101279072D01*
X52107514Y-101378164D01*
X51987626Y-101663020D01*
X53086000Y-102761395D01*
X54184374Y-101663020D01*
X54064486Y-101378164D01*
X53865088Y-101279072D01*
X54286000Y-101279072D01*
X54410482Y-101266812D01*
X54530180Y-101230502D01*
X54640494Y-101171537D01*
X54737185Y-101092185D01*
X54816537Y-100995494D01*
X54875502Y-100885180D01*
X54911812Y-100765482D01*
X54924072Y-100641000D01*
X54924072Y-98241000D01*
X54911812Y-98116518D01*
X54875502Y-97996820D01*
X54853683Y-97956000D01*
X130020428Y-97956000D01*
X130020428Y-99656000D01*
X130032688Y-99780482D01*
X130068998Y-99900180D01*
X130127963Y-100010494D01*
X130207315Y-100107185D01*
X130304006Y-100186537D01*
X130414320Y-100245502D01*
X130534018Y-100281812D01*
X130658500Y-100294072D01*
X132358500Y-100294072D01*
X132482982Y-100281812D01*
X132602680Y-100245502D01*
X132712994Y-100186537D01*
X132809685Y-100107185D01*
X132889037Y-100010494D01*
X132948002Y-99900180D01*
X132970013Y-99827620D01*
X133101868Y-99959475D01*
X133345089Y-100121990D01*
X133615342Y-100233932D01*
X133902240Y-100291000D01*
X134194760Y-100291000D01*
X134481658Y-100233932D01*
X134751911Y-100121990D01*
X134995132Y-99959475D01*
X135201975Y-99752632D01*
X135318500Y-99578240D01*
X135435025Y-99752632D01*
X135641868Y-99959475D01*
X135885089Y-100121990D01*
X136155342Y-100233932D01*
X136442240Y-100291000D01*
X136734760Y-100291000D01*
X137021658Y-100233932D01*
X137291911Y-100121990D01*
X137535132Y-99959475D01*
X137741975Y-99752632D01*
X137904490Y-99509411D01*
X138016432Y-99239158D01*
X138073500Y-98952260D01*
X138073500Y-98659740D01*
X138016432Y-98372842D01*
X137904490Y-98102589D01*
X137741975Y-97859368D01*
X137535132Y-97652525D01*
X137291911Y-97490010D01*
X137021658Y-97378068D01*
X136734760Y-97321000D01*
X136442240Y-97321000D01*
X136155342Y-97378068D01*
X135885089Y-97490010D01*
X135641868Y-97652525D01*
X135435025Y-97859368D01*
X135318500Y-98033760D01*
X135201975Y-97859368D01*
X134995132Y-97652525D01*
X134751911Y-97490010D01*
X134481658Y-97378068D01*
X134194760Y-97321000D01*
X133902240Y-97321000D01*
X133615342Y-97378068D01*
X133345089Y-97490010D01*
X133101868Y-97652525D01*
X132970013Y-97784380D01*
X132948002Y-97711820D01*
X132889037Y-97601506D01*
X132809685Y-97504815D01*
X132712994Y-97425463D01*
X132602680Y-97366498D01*
X132482982Y-97330188D01*
X132358500Y-97317928D01*
X130658500Y-97317928D01*
X130534018Y-97330188D01*
X130414320Y-97366498D01*
X130304006Y-97425463D01*
X130207315Y-97504815D01*
X130127963Y-97601506D01*
X130068998Y-97711820D01*
X130032688Y-97831518D01*
X130020428Y-97956000D01*
X54853683Y-97956000D01*
X54816537Y-97886506D01*
X54737185Y-97789815D01*
X54640494Y-97710463D01*
X54530180Y-97651498D01*
X54410482Y-97615188D01*
X54286000Y-97602928D01*
X51886000Y-97602928D01*
X51761518Y-97615188D01*
X51641820Y-97651498D01*
X51531506Y-97710463D01*
X51434815Y-97789815D01*
X51355463Y-97886506D01*
X51296498Y-97996820D01*
X51260188Y-98116518D01*
X51247928Y-98241000D01*
X50660000Y-98241000D01*
X50660000Y-91710000D01*
X58361928Y-91710000D01*
X58361928Y-93710000D01*
X58374188Y-93834482D01*
X58410498Y-93954180D01*
X58469463Y-94064494D01*
X58548815Y-94161185D01*
X58645506Y-94240537D01*
X58755820Y-94299502D01*
X58875518Y-94335812D01*
X59000000Y-94348072D01*
X61000000Y-94348072D01*
X61124482Y-94335812D01*
X61244180Y-94299502D01*
X61354494Y-94240537D01*
X61451185Y-94161185D01*
X61530537Y-94064494D01*
X61589502Y-93954180D01*
X61625812Y-93834482D01*
X61638072Y-93710000D01*
X61638072Y-92484947D01*
X84880000Y-92484947D01*
X84880000Y-92935053D01*
X84967811Y-93376510D01*
X85140059Y-93792353D01*
X85390125Y-94166603D01*
X85708397Y-94484875D01*
X86082647Y-94734941D01*
X86498490Y-94907189D01*
X86939947Y-94995000D01*
X87390053Y-94995000D01*
X87831510Y-94907189D01*
X88247353Y-94734941D01*
X88621603Y-94484875D01*
X88939875Y-94166603D01*
X89189941Y-93792353D01*
X89362189Y-93376510D01*
X89450000Y-92935053D01*
X89450000Y-92484947D01*
X89362189Y-92043490D01*
X89189941Y-91627647D01*
X88939875Y-91253397D01*
X88621603Y-90935125D01*
X88247353Y-90685059D01*
X87831510Y-90512811D01*
X87390053Y-90425000D01*
X86939947Y-90425000D01*
X86498490Y-90512811D01*
X86082647Y-90685059D01*
X85708397Y-90935125D01*
X85390125Y-91253397D01*
X85140059Y-91627647D01*
X84967811Y-92043490D01*
X84880000Y-92484947D01*
X61638072Y-92484947D01*
X61638072Y-91710000D01*
X61625812Y-91585518D01*
X61589502Y-91465820D01*
X61530537Y-91355506D01*
X61451185Y-91258815D01*
X61354494Y-91179463D01*
X61244180Y-91120498D01*
X61124482Y-91084188D01*
X61000000Y-91071928D01*
X59000000Y-91071928D01*
X58875518Y-91084188D01*
X58755820Y-91120498D01*
X58645506Y-91179463D01*
X58548815Y-91258815D01*
X58469463Y-91355506D01*
X58410498Y-91465820D01*
X58374188Y-91585518D01*
X58361928Y-91710000D01*
X50660000Y-91710000D01*
X50660000Y-82276740D01*
X117641000Y-82276740D01*
X117641000Y-82569260D01*
X117698068Y-82856158D01*
X117810010Y-83126411D01*
X117972525Y-83369632D01*
X118116000Y-83513107D01*
X118116001Y-83872892D01*
X117972525Y-84016368D01*
X117810010Y-84259589D01*
X117698068Y-84529842D01*
X117641000Y-84816740D01*
X117641000Y-85109260D01*
X117698068Y-85396158D01*
X117810010Y-85666411D01*
X117972525Y-85909632D01*
X118179368Y-86116475D01*
X118353760Y-86233000D01*
X118179368Y-86349525D01*
X117972525Y-86556368D01*
X117810010Y-86799589D01*
X117698068Y-87069842D01*
X117641000Y-87356740D01*
X117641000Y-87649260D01*
X117698068Y-87936158D01*
X117810010Y-88206411D01*
X117972525Y-88449632D01*
X118179368Y-88656475D01*
X118353760Y-88773000D01*
X118179368Y-88889525D01*
X117972525Y-89096368D01*
X117810010Y-89339589D01*
X117698068Y-89609842D01*
X117641000Y-89896740D01*
X117641000Y-90189260D01*
X117698068Y-90476158D01*
X117810010Y-90746411D01*
X117972525Y-90989632D01*
X118179368Y-91196475D01*
X118353760Y-91313000D01*
X118179368Y-91429525D01*
X117972525Y-91636368D01*
X117810010Y-91879589D01*
X117698068Y-92149842D01*
X117641000Y-92436740D01*
X117641000Y-92729260D01*
X117698068Y-93016158D01*
X117810010Y-93286411D01*
X117972525Y-93529632D01*
X118116000Y-93673107D01*
X118116001Y-94032892D01*
X117972525Y-94176368D01*
X117810010Y-94419589D01*
X117698068Y-94689842D01*
X117641000Y-94976740D01*
X117641000Y-95269260D01*
X117698068Y-95556158D01*
X117810010Y-95826411D01*
X117972525Y-96069632D01*
X118179368Y-96276475D01*
X118422589Y-96438990D01*
X118692842Y-96550932D01*
X118979740Y-96608000D01*
X119272260Y-96608000D01*
X119559158Y-96550932D01*
X119829411Y-96438990D01*
X120072632Y-96276475D01*
X120279475Y-96069632D01*
X120396000Y-95895240D01*
X120512525Y-96069632D01*
X120719368Y-96276475D01*
X120962589Y-96438990D01*
X121232842Y-96550932D01*
X121519740Y-96608000D01*
X121812260Y-96608000D01*
X122099158Y-96550932D01*
X122369411Y-96438990D01*
X122612632Y-96276475D01*
X122819475Y-96069632D01*
X122936000Y-95895240D01*
X123052525Y-96069632D01*
X123259368Y-96276475D01*
X123502589Y-96438990D01*
X123772842Y-96550932D01*
X124059740Y-96608000D01*
X124352260Y-96608000D01*
X124639158Y-96550932D01*
X124909411Y-96438990D01*
X125152632Y-96276475D01*
X125359475Y-96069632D01*
X125476000Y-95895240D01*
X125592525Y-96069632D01*
X125799368Y-96276475D01*
X126042589Y-96438990D01*
X126312842Y-96550932D01*
X126599740Y-96608000D01*
X126892260Y-96608000D01*
X127179158Y-96550932D01*
X127449411Y-96438990D01*
X127692632Y-96276475D01*
X127899475Y-96069632D01*
X128016000Y-95895240D01*
X128132525Y-96069632D01*
X128339368Y-96276475D01*
X128582589Y-96438990D01*
X128852842Y-96550932D01*
X129139740Y-96608000D01*
X129432260Y-96608000D01*
X129719158Y-96550932D01*
X129989411Y-96438990D01*
X130232632Y-96276475D01*
X130439475Y-96069632D01*
X130601990Y-95826411D01*
X130713932Y-95556158D01*
X130771000Y-95269260D01*
X130771000Y-94976740D01*
X130713932Y-94689842D01*
X130601990Y-94419589D01*
X130439475Y-94176368D01*
X130296000Y-94032893D01*
X130296000Y-93673107D01*
X130439475Y-93529632D01*
X130601990Y-93286411D01*
X130713932Y-93016158D01*
X130741811Y-92876000D01*
X132496928Y-92876000D01*
X132496928Y-94576000D01*
X132509188Y-94700482D01*
X132545498Y-94820180D01*
X132604463Y-94930494D01*
X132683815Y-95027185D01*
X132780506Y-95106537D01*
X132890820Y-95165502D01*
X133010518Y-95201812D01*
X133135000Y-95214072D01*
X134835000Y-95214072D01*
X134959482Y-95201812D01*
X135079180Y-95165502D01*
X135189494Y-95106537D01*
X135286185Y-95027185D01*
X135365537Y-94930494D01*
X135424502Y-94820180D01*
X135446513Y-94747620D01*
X135578368Y-94879475D01*
X135821589Y-95041990D01*
X136091842Y-95153932D01*
X136378740Y-95211000D01*
X136671260Y-95211000D01*
X136958158Y-95153932D01*
X137228411Y-95041990D01*
X137471632Y-94879475D01*
X137678475Y-94672632D01*
X137840990Y-94429411D01*
X137952932Y-94159158D01*
X138010000Y-93872260D01*
X138010000Y-93579740D01*
X137952932Y-93292842D01*
X137840990Y-93022589D01*
X137678475Y-92779368D01*
X137471632Y-92572525D01*
X137228411Y-92410010D01*
X136958158Y-92298068D01*
X136671260Y-92241000D01*
X136378740Y-92241000D01*
X136091842Y-92298068D01*
X135821589Y-92410010D01*
X135578368Y-92572525D01*
X135446513Y-92704380D01*
X135424502Y-92631820D01*
X135365537Y-92521506D01*
X135286185Y-92424815D01*
X135189494Y-92345463D01*
X135079180Y-92286498D01*
X134959482Y-92250188D01*
X134835000Y-92237928D01*
X133135000Y-92237928D01*
X133010518Y-92250188D01*
X132890820Y-92286498D01*
X132780506Y-92345463D01*
X132683815Y-92424815D01*
X132604463Y-92521506D01*
X132545498Y-92631820D01*
X132509188Y-92751518D01*
X132496928Y-92876000D01*
X130741811Y-92876000D01*
X130771000Y-92729260D01*
X130771000Y-92436740D01*
X130713932Y-92149842D01*
X130601990Y-91879589D01*
X130439475Y-91636368D01*
X130232632Y-91429525D01*
X130058240Y-91313000D01*
X130232632Y-91196475D01*
X130439475Y-90989632D01*
X130601990Y-90746411D01*
X130713932Y-90476158D01*
X130771000Y-90189260D01*
X130771000Y-89896740D01*
X130713932Y-89609842D01*
X130601990Y-89339589D01*
X130455244Y-89119967D01*
X130699000Y-89119967D01*
X130699000Y-89442033D01*
X130761832Y-89757912D01*
X130885082Y-90055463D01*
X131064013Y-90323252D01*
X131291748Y-90550987D01*
X131559537Y-90729918D01*
X131857088Y-90853168D01*
X132172967Y-90916000D01*
X132495033Y-90916000D01*
X132810912Y-90853168D01*
X133108463Y-90729918D01*
X133376252Y-90550987D01*
X133603987Y-90323252D01*
X133782918Y-90055463D01*
X133906168Y-89757912D01*
X133969000Y-89442033D01*
X133969000Y-89119967D01*
X135199000Y-89119967D01*
X135199000Y-89442033D01*
X135261832Y-89757912D01*
X135385082Y-90055463D01*
X135564013Y-90323252D01*
X135791748Y-90550987D01*
X136059537Y-90729918D01*
X136357088Y-90853168D01*
X136672967Y-90916000D01*
X136995033Y-90916000D01*
X137310912Y-90853168D01*
X137608463Y-90729918D01*
X137876252Y-90550987D01*
X138103987Y-90323252D01*
X138282918Y-90055463D01*
X138406168Y-89757912D01*
X138469000Y-89442033D01*
X138469000Y-89119967D01*
X138406168Y-88804088D01*
X138282918Y-88506537D01*
X138103987Y-88238748D01*
X137876252Y-88011013D01*
X137608463Y-87832082D01*
X137310912Y-87708832D01*
X136995033Y-87646000D01*
X136672967Y-87646000D01*
X136357088Y-87708832D01*
X136059537Y-87832082D01*
X135791748Y-88011013D01*
X135564013Y-88238748D01*
X135385082Y-88506537D01*
X135261832Y-88804088D01*
X135199000Y-89119967D01*
X133969000Y-89119967D01*
X133906168Y-88804088D01*
X133782918Y-88506537D01*
X133603987Y-88238748D01*
X133376252Y-88011013D01*
X133108463Y-87832082D01*
X132810912Y-87708832D01*
X132495033Y-87646000D01*
X132172967Y-87646000D01*
X131857088Y-87708832D01*
X131559537Y-87832082D01*
X131291748Y-88011013D01*
X131064013Y-88238748D01*
X130885082Y-88506537D01*
X130761832Y-88804088D01*
X130699000Y-89119967D01*
X130455244Y-89119967D01*
X130439475Y-89096368D01*
X130232632Y-88889525D01*
X130058240Y-88773000D01*
X130232632Y-88656475D01*
X130439475Y-88449632D01*
X130601990Y-88206411D01*
X130713932Y-87936158D01*
X130771000Y-87649260D01*
X130771000Y-87356740D01*
X130713932Y-87069842D01*
X130601990Y-86799589D01*
X130439475Y-86556368D01*
X130232632Y-86349525D01*
X130058240Y-86233000D01*
X130232632Y-86116475D01*
X130439475Y-85909632D01*
X130601990Y-85666411D01*
X130713932Y-85396158D01*
X130771000Y-85109260D01*
X130771000Y-84816740D01*
X130713932Y-84529842D01*
X130601990Y-84259589D01*
X130439475Y-84016368D01*
X130296000Y-83872893D01*
X130296000Y-83513107D01*
X130439475Y-83369632D01*
X130601990Y-83126411D01*
X130699000Y-82892207D01*
X130699000Y-82942033D01*
X130761832Y-83257912D01*
X130885082Y-83555463D01*
X131064013Y-83823252D01*
X131291748Y-84050987D01*
X131559537Y-84229918D01*
X131857088Y-84353168D01*
X132172967Y-84416000D01*
X132495033Y-84416000D01*
X132810912Y-84353168D01*
X133108463Y-84229918D01*
X133376252Y-84050987D01*
X133603987Y-83823252D01*
X133782918Y-83555463D01*
X133906168Y-83257912D01*
X133969000Y-82942033D01*
X133969000Y-82619967D01*
X135199000Y-82619967D01*
X135199000Y-82942033D01*
X135261832Y-83257912D01*
X135385082Y-83555463D01*
X135564013Y-83823252D01*
X135791748Y-84050987D01*
X136059537Y-84229918D01*
X136357088Y-84353168D01*
X136672967Y-84416000D01*
X136995033Y-84416000D01*
X137310912Y-84353168D01*
X137608463Y-84229918D01*
X137876252Y-84050987D01*
X138103987Y-83823252D01*
X138282918Y-83555463D01*
X138406168Y-83257912D01*
X138469000Y-82942033D01*
X138469000Y-82619967D01*
X138406168Y-82304088D01*
X138282918Y-82006537D01*
X138103987Y-81738748D01*
X137876252Y-81511013D01*
X137608463Y-81332082D01*
X137310912Y-81208832D01*
X136995033Y-81146000D01*
X136672967Y-81146000D01*
X136357088Y-81208832D01*
X136059537Y-81332082D01*
X135791748Y-81511013D01*
X135564013Y-81738748D01*
X135385082Y-82006537D01*
X135261832Y-82304088D01*
X135199000Y-82619967D01*
X133969000Y-82619967D01*
X133906168Y-82304088D01*
X133782918Y-82006537D01*
X133603987Y-81738748D01*
X133376252Y-81511013D01*
X133108463Y-81332082D01*
X132810912Y-81208832D01*
X132495033Y-81146000D01*
X132172967Y-81146000D01*
X131857088Y-81208832D01*
X131559537Y-81332082D01*
X131291748Y-81511013D01*
X131064013Y-81738748D01*
X130885082Y-82006537D01*
X130771000Y-82281955D01*
X130771000Y-82276740D01*
X130713932Y-81989842D01*
X130601990Y-81719589D01*
X130439475Y-81476368D01*
X130232632Y-81269525D01*
X129989411Y-81107010D01*
X129719158Y-80995068D01*
X129432260Y-80938000D01*
X129139740Y-80938000D01*
X128852842Y-80995068D01*
X128582589Y-81107010D01*
X128339368Y-81269525D01*
X128132525Y-81476368D01*
X128016000Y-81650760D01*
X127899475Y-81476368D01*
X127692632Y-81269525D01*
X127449411Y-81107010D01*
X127179158Y-80995068D01*
X126892260Y-80938000D01*
X126599740Y-80938000D01*
X126312842Y-80995068D01*
X126042589Y-81107010D01*
X125799368Y-81269525D01*
X125592525Y-81476368D01*
X125476000Y-81650760D01*
X125359475Y-81476368D01*
X125152632Y-81269525D01*
X124909411Y-81107010D01*
X124639158Y-80995068D01*
X124352260Y-80938000D01*
X124059740Y-80938000D01*
X123772842Y-80995068D01*
X123502589Y-81107010D01*
X123259368Y-81269525D01*
X123052525Y-81476368D01*
X122936000Y-81650760D01*
X122819475Y-81476368D01*
X122612632Y-81269525D01*
X122369411Y-81107010D01*
X122099158Y-80995068D01*
X121812260Y-80938000D01*
X121519740Y-80938000D01*
X121232842Y-80995068D01*
X120962589Y-81107010D01*
X120719368Y-81269525D01*
X120512525Y-81476368D01*
X120396000Y-81650760D01*
X120279475Y-81476368D01*
X120072632Y-81269525D01*
X119829411Y-81107010D01*
X119559158Y-80995068D01*
X119272260Y-80938000D01*
X118979740Y-80938000D01*
X118692842Y-80995068D01*
X118422589Y-81107010D01*
X118179368Y-81269525D01*
X117972525Y-81476368D01*
X117810010Y-81719589D01*
X117698068Y-81989842D01*
X117641000Y-82276740D01*
X50660000Y-82276740D01*
X50660000Y-77040000D01*
X52381928Y-77040000D01*
X52381928Y-80540000D01*
X52385000Y-80571192D01*
X52385000Y-80576260D01*
X52385989Y-80581231D01*
X52394188Y-80664482D01*
X52418473Y-80744539D01*
X52442068Y-80863158D01*
X52554010Y-81133411D01*
X52716525Y-81376632D01*
X52923368Y-81583475D01*
X53166589Y-81745990D01*
X53436842Y-81857932D01*
X53723740Y-81915000D01*
X54016260Y-81915000D01*
X54303158Y-81857932D01*
X54573411Y-81745990D01*
X54816632Y-81583475D01*
X55023475Y-81376632D01*
X55140000Y-81202240D01*
X55256525Y-81376632D01*
X55463368Y-81583475D01*
X55706589Y-81745990D01*
X55976842Y-81857932D01*
X56263740Y-81915000D01*
X56556260Y-81915000D01*
X56843158Y-81857932D01*
X57113411Y-81745990D01*
X57356632Y-81583475D01*
X57563475Y-81376632D01*
X57685195Y-81194466D01*
X57754822Y-81311355D01*
X57949731Y-81527588D01*
X58183080Y-81701641D01*
X58445901Y-81826825D01*
X58593110Y-81871476D01*
X58823000Y-81750155D01*
X58823000Y-76563750D01*
X59077000Y-76563750D01*
X59077000Y-81750155D01*
X59306890Y-81871476D01*
X59454099Y-81826825D01*
X59716920Y-81701641D01*
X59950269Y-81527588D01*
X60145178Y-81311355D01*
X60214805Y-81194466D01*
X60336525Y-81376632D01*
X60543368Y-81583475D01*
X60786589Y-81745990D01*
X61056842Y-81857932D01*
X61343740Y-81915000D01*
X61636260Y-81915000D01*
X61923158Y-81857932D01*
X62193411Y-81745990D01*
X62436632Y-81583475D01*
X62643475Y-81376632D01*
X62760000Y-81202240D01*
X62876525Y-81376632D01*
X63083368Y-81583475D01*
X63326589Y-81745990D01*
X63596842Y-81857932D01*
X63883740Y-81915000D01*
X64176260Y-81915000D01*
X64463158Y-81857932D01*
X64733411Y-81745990D01*
X64976632Y-81583475D01*
X65183475Y-81376632D01*
X65300000Y-81202240D01*
X65416525Y-81376632D01*
X65623368Y-81583475D01*
X65866589Y-81745990D01*
X66136842Y-81857932D01*
X66423740Y-81915000D01*
X66716260Y-81915000D01*
X67003158Y-81857932D01*
X67273411Y-81745990D01*
X67516632Y-81583475D01*
X67723475Y-81376632D01*
X67840000Y-81202240D01*
X67956525Y-81376632D01*
X68163368Y-81583475D01*
X68406589Y-81745990D01*
X68676842Y-81857932D01*
X68963740Y-81915000D01*
X69256260Y-81915000D01*
X69543158Y-81857932D01*
X69813411Y-81745990D01*
X70056632Y-81583475D01*
X70263475Y-81376632D01*
X70385195Y-81194466D01*
X70454822Y-81311355D01*
X70649731Y-81527588D01*
X70883080Y-81701641D01*
X71145901Y-81826825D01*
X71293110Y-81871476D01*
X71523000Y-81750155D01*
X71523000Y-76563750D01*
X71777000Y-76563750D01*
X71777000Y-81750155D01*
X72006890Y-81871476D01*
X72154099Y-81826825D01*
X72416920Y-81701641D01*
X72650269Y-81527588D01*
X72845178Y-81311355D01*
X72914805Y-81194466D01*
X73036525Y-81376632D01*
X73243368Y-81583475D01*
X73486589Y-81745990D01*
X73756842Y-81857932D01*
X74043740Y-81915000D01*
X74336260Y-81915000D01*
X74623158Y-81857932D01*
X74893411Y-81745990D01*
X75136632Y-81583475D01*
X75343475Y-81376632D01*
X75460000Y-81202240D01*
X75576525Y-81376632D01*
X75783368Y-81583475D01*
X76026589Y-81745990D01*
X76296842Y-81857932D01*
X76583740Y-81915000D01*
X76876260Y-81915000D01*
X77163158Y-81857932D01*
X77433411Y-81745990D01*
X77676632Y-81583475D01*
X77883475Y-81376632D01*
X78000000Y-81202240D01*
X78116525Y-81376632D01*
X78323368Y-81583475D01*
X78566589Y-81745990D01*
X78836842Y-81857932D01*
X79123740Y-81915000D01*
X79416260Y-81915000D01*
X79703158Y-81857932D01*
X79973411Y-81745990D01*
X80216632Y-81583475D01*
X80423475Y-81376632D01*
X80540000Y-81202240D01*
X80656525Y-81376632D01*
X80863368Y-81583475D01*
X81106589Y-81745990D01*
X81376842Y-81857932D01*
X81663740Y-81915000D01*
X81956260Y-81915000D01*
X82243158Y-81857932D01*
X82513411Y-81745990D01*
X82756632Y-81583475D01*
X82963475Y-81376632D01*
X83085195Y-81194466D01*
X83154822Y-81311355D01*
X83349731Y-81527588D01*
X83583080Y-81701641D01*
X83845901Y-81826825D01*
X83993110Y-81871476D01*
X84223000Y-81750155D01*
X84223000Y-76563750D01*
X84477000Y-76563750D01*
X84477000Y-81750155D01*
X84706890Y-81871476D01*
X84854099Y-81826825D01*
X85116920Y-81701641D01*
X85350269Y-81527588D01*
X85545178Y-81311355D01*
X85614805Y-81194466D01*
X85736525Y-81376632D01*
X85943368Y-81583475D01*
X86186589Y-81745990D01*
X86456842Y-81857932D01*
X86743740Y-81915000D01*
X87036260Y-81915000D01*
X87323158Y-81857932D01*
X87593411Y-81745990D01*
X87836632Y-81583475D01*
X88043475Y-81376632D01*
X88160000Y-81202240D01*
X88276525Y-81376632D01*
X88483368Y-81583475D01*
X88726589Y-81745990D01*
X88996842Y-81857932D01*
X89283740Y-81915000D01*
X89576260Y-81915000D01*
X89863158Y-81857932D01*
X90133411Y-81745990D01*
X90376632Y-81583475D01*
X90583475Y-81376632D01*
X90700000Y-81202240D01*
X90816525Y-81376632D01*
X91023368Y-81583475D01*
X91266589Y-81745990D01*
X91536842Y-81857932D01*
X91823740Y-81915000D01*
X92116260Y-81915000D01*
X92403158Y-81857932D01*
X92673411Y-81745990D01*
X92916632Y-81583475D01*
X93123475Y-81376632D01*
X93240000Y-81202240D01*
X93356525Y-81376632D01*
X93563368Y-81583475D01*
X93806589Y-81745990D01*
X94076842Y-81857932D01*
X94363740Y-81915000D01*
X94656260Y-81915000D01*
X94943158Y-81857932D01*
X95213411Y-81745990D01*
X95456632Y-81583475D01*
X95663475Y-81376632D01*
X95785195Y-81194466D01*
X95854822Y-81311355D01*
X96049731Y-81527588D01*
X96283080Y-81701641D01*
X96545901Y-81826825D01*
X96693110Y-81871476D01*
X96923000Y-81750155D01*
X96923000Y-76563750D01*
X97177000Y-76563750D01*
X97177000Y-81750155D01*
X97406890Y-81871476D01*
X97554099Y-81826825D01*
X97816920Y-81701641D01*
X98050269Y-81527588D01*
X98245178Y-81311355D01*
X98314805Y-81194466D01*
X98436525Y-81376632D01*
X98643368Y-81583475D01*
X98886589Y-81745990D01*
X99156842Y-81857932D01*
X99443740Y-81915000D01*
X99736260Y-81915000D01*
X100023158Y-81857932D01*
X100293411Y-81745990D01*
X100536632Y-81583475D01*
X100743475Y-81376632D01*
X100860000Y-81202240D01*
X100976525Y-81376632D01*
X101183368Y-81583475D01*
X101426589Y-81745990D01*
X101696842Y-81857932D01*
X101983740Y-81915000D01*
X102276260Y-81915000D01*
X102563158Y-81857932D01*
X102833411Y-81745990D01*
X103076632Y-81583475D01*
X103283475Y-81376632D01*
X103445990Y-81133411D01*
X103557932Y-80863158D01*
X103581527Y-80744539D01*
X103605812Y-80664482D01*
X103614011Y-80581231D01*
X103615000Y-80576260D01*
X103615000Y-80571192D01*
X103618072Y-80540000D01*
X103618072Y-77973514D01*
X105345000Y-77973514D01*
X105345000Y-78236486D01*
X105396304Y-78494405D01*
X105496939Y-78737359D01*
X105643038Y-78956013D01*
X105828987Y-79141962D01*
X106047641Y-79288061D01*
X106290595Y-79388696D01*
X106548514Y-79440000D01*
X106811486Y-79440000D01*
X107069405Y-79388696D01*
X107312359Y-79288061D01*
X107531013Y-79141962D01*
X107716962Y-78956013D01*
X107863061Y-78737359D01*
X107950000Y-78527470D01*
X108036939Y-78737359D01*
X108183038Y-78956013D01*
X108368987Y-79141962D01*
X108587641Y-79288061D01*
X108830595Y-79388696D01*
X109088514Y-79440000D01*
X109351486Y-79440000D01*
X109609405Y-79388696D01*
X109852359Y-79288061D01*
X110071013Y-79141962D01*
X110256962Y-78956013D01*
X110403061Y-78737359D01*
X110503696Y-78494405D01*
X110555000Y-78236486D01*
X110555000Y-77973514D01*
X110503696Y-77715595D01*
X110403061Y-77472641D01*
X110256962Y-77253987D01*
X110071013Y-77068038D01*
X109852359Y-76921939D01*
X109609405Y-76821304D01*
X109351486Y-76770000D01*
X109088514Y-76770000D01*
X108830595Y-76821304D01*
X108587641Y-76921939D01*
X108368987Y-77068038D01*
X108183038Y-77253987D01*
X108036939Y-77472641D01*
X107950000Y-77682530D01*
X107863061Y-77472641D01*
X107716962Y-77253987D01*
X107531013Y-77068038D01*
X107312359Y-76921939D01*
X107069405Y-76821304D01*
X106811486Y-76770000D01*
X106548514Y-76770000D01*
X106290595Y-76821304D01*
X106047641Y-76921939D01*
X105828987Y-77068038D01*
X105643038Y-77253987D01*
X105496939Y-77472641D01*
X105396304Y-77715595D01*
X105345000Y-77973514D01*
X103618072Y-77973514D01*
X103618072Y-77040000D01*
X103605812Y-76915518D01*
X103569502Y-76795820D01*
X103510537Y-76685506D01*
X103431185Y-76588815D01*
X103334494Y-76509463D01*
X103224180Y-76450498D01*
X103104482Y-76414188D01*
X102980000Y-76401928D01*
X101280000Y-76401928D01*
X101155518Y-76414188D01*
X101035820Y-76450498D01*
X100925506Y-76509463D01*
X100860000Y-76563222D01*
X100794494Y-76509463D01*
X100684180Y-76450498D01*
X100564482Y-76414188D01*
X100440000Y-76401928D01*
X98740000Y-76401928D01*
X98615518Y-76414188D01*
X98495820Y-76450498D01*
X98385506Y-76509463D01*
X98320000Y-76563222D01*
X98254494Y-76509463D01*
X98144180Y-76450498D01*
X98024482Y-76414188D01*
X97900000Y-76401928D01*
X97335750Y-76405000D01*
X97177000Y-76563750D01*
X96923000Y-76563750D01*
X96764250Y-76405000D01*
X96200000Y-76401928D01*
X96075518Y-76414188D01*
X95955820Y-76450498D01*
X95845506Y-76509463D01*
X95780000Y-76563222D01*
X95714494Y-76509463D01*
X95604180Y-76450498D01*
X95484482Y-76414188D01*
X95360000Y-76401928D01*
X93660000Y-76401928D01*
X93535518Y-76414188D01*
X93415820Y-76450498D01*
X93305506Y-76509463D01*
X93240000Y-76563222D01*
X93174494Y-76509463D01*
X93064180Y-76450498D01*
X92944482Y-76414188D01*
X92820000Y-76401928D01*
X91120000Y-76401928D01*
X90995518Y-76414188D01*
X90875820Y-76450498D01*
X90765506Y-76509463D01*
X90700000Y-76563222D01*
X90634494Y-76509463D01*
X90524180Y-76450498D01*
X90404482Y-76414188D01*
X90280000Y-76401928D01*
X88580000Y-76401928D01*
X88455518Y-76414188D01*
X88335820Y-76450498D01*
X88225506Y-76509463D01*
X88160000Y-76563222D01*
X88094494Y-76509463D01*
X87984180Y-76450498D01*
X87864482Y-76414188D01*
X87740000Y-76401928D01*
X86040000Y-76401928D01*
X85915518Y-76414188D01*
X85795820Y-76450498D01*
X85685506Y-76509463D01*
X85620000Y-76563222D01*
X85554494Y-76509463D01*
X85444180Y-76450498D01*
X85324482Y-76414188D01*
X85200000Y-76401928D01*
X84635750Y-76405000D01*
X84477000Y-76563750D01*
X84223000Y-76563750D01*
X84064250Y-76405000D01*
X83500000Y-76401928D01*
X83375518Y-76414188D01*
X83255820Y-76450498D01*
X83145506Y-76509463D01*
X83080000Y-76563222D01*
X83014494Y-76509463D01*
X82904180Y-76450498D01*
X82784482Y-76414188D01*
X82660000Y-76401928D01*
X80960000Y-76401928D01*
X80835518Y-76414188D01*
X80715820Y-76450498D01*
X80605506Y-76509463D01*
X80540000Y-76563222D01*
X80474494Y-76509463D01*
X80364180Y-76450498D01*
X80244482Y-76414188D01*
X80120000Y-76401928D01*
X78420000Y-76401928D01*
X78295518Y-76414188D01*
X78175820Y-76450498D01*
X78065506Y-76509463D01*
X78000000Y-76563222D01*
X77934494Y-76509463D01*
X77824180Y-76450498D01*
X77704482Y-76414188D01*
X77580000Y-76401928D01*
X75880000Y-76401928D01*
X75755518Y-76414188D01*
X75635820Y-76450498D01*
X75525506Y-76509463D01*
X75460000Y-76563222D01*
X75394494Y-76509463D01*
X75284180Y-76450498D01*
X75164482Y-76414188D01*
X75040000Y-76401928D01*
X73340000Y-76401928D01*
X73215518Y-76414188D01*
X73095820Y-76450498D01*
X72985506Y-76509463D01*
X72920000Y-76563222D01*
X72854494Y-76509463D01*
X72744180Y-76450498D01*
X72624482Y-76414188D01*
X72500000Y-76401928D01*
X71935750Y-76405000D01*
X71777000Y-76563750D01*
X71523000Y-76563750D01*
X71364250Y-76405000D01*
X70800000Y-76401928D01*
X70675518Y-76414188D01*
X70555820Y-76450498D01*
X70445506Y-76509463D01*
X70380000Y-76563222D01*
X70314494Y-76509463D01*
X70204180Y-76450498D01*
X70084482Y-76414188D01*
X69960000Y-76401928D01*
X68260000Y-76401928D01*
X68135518Y-76414188D01*
X68015820Y-76450498D01*
X67905506Y-76509463D01*
X67840000Y-76563222D01*
X67774494Y-76509463D01*
X67664180Y-76450498D01*
X67544482Y-76414188D01*
X67420000Y-76401928D01*
X65720000Y-76401928D01*
X65595518Y-76414188D01*
X65475820Y-76450498D01*
X65365506Y-76509463D01*
X65300000Y-76563222D01*
X65234494Y-76509463D01*
X65124180Y-76450498D01*
X65004482Y-76414188D01*
X64880000Y-76401928D01*
X63180000Y-76401928D01*
X63055518Y-76414188D01*
X62935820Y-76450498D01*
X62825506Y-76509463D01*
X62760000Y-76563222D01*
X62694494Y-76509463D01*
X62584180Y-76450498D01*
X62464482Y-76414188D01*
X62340000Y-76401928D01*
X60640000Y-76401928D01*
X60515518Y-76414188D01*
X60395820Y-76450498D01*
X60285506Y-76509463D01*
X60220000Y-76563222D01*
X60154494Y-76509463D01*
X60044180Y-76450498D01*
X59924482Y-76414188D01*
X59800000Y-76401928D01*
X59235750Y-76405000D01*
X59077000Y-76563750D01*
X58823000Y-76563750D01*
X58664250Y-76405000D01*
X58100000Y-76401928D01*
X57975518Y-76414188D01*
X57855820Y-76450498D01*
X57745506Y-76509463D01*
X57680000Y-76563222D01*
X57614494Y-76509463D01*
X57504180Y-76450498D01*
X57384482Y-76414188D01*
X57260000Y-76401928D01*
X55560000Y-76401928D01*
X55435518Y-76414188D01*
X55315820Y-76450498D01*
X55205506Y-76509463D01*
X55140000Y-76563222D01*
X55074494Y-76509463D01*
X54964180Y-76450498D01*
X54844482Y-76414188D01*
X54720000Y-76401928D01*
X53020000Y-76401928D01*
X52895518Y-76414188D01*
X52775820Y-76450498D01*
X52665506Y-76509463D01*
X52568815Y-76588815D01*
X52489463Y-76685506D01*
X52430498Y-76795820D01*
X52394188Y-76915518D01*
X52381928Y-77040000D01*
X50660000Y-77040000D01*
X50660000Y-71573816D01*
X52465000Y-71573816D01*
X52465000Y-71876184D01*
X52523989Y-72172743D01*
X52639701Y-72452095D01*
X52807688Y-72703505D01*
X53021495Y-72917312D01*
X53272905Y-73085299D01*
X53552257Y-73201011D01*
X53848816Y-73260000D01*
X54151184Y-73260000D01*
X54447743Y-73201011D01*
X54727095Y-73085299D01*
X54978505Y-72917312D01*
X55192312Y-72703505D01*
X55360299Y-72452095D01*
X55476011Y-72172743D01*
X55535000Y-71876184D01*
X55535000Y-71573816D01*
X55478266Y-71288589D01*
X55645000Y-71288589D01*
X55645000Y-71561411D01*
X55698225Y-71828989D01*
X55802629Y-72081043D01*
X55954201Y-72307886D01*
X56147114Y-72500799D01*
X56373957Y-72652371D01*
X56626011Y-72756775D01*
X56893589Y-72810000D01*
X57166411Y-72810000D01*
X57433989Y-72756775D01*
X57686043Y-72652371D01*
X57912886Y-72500799D01*
X58105799Y-72307886D01*
X58257371Y-72081043D01*
X58361775Y-71828989D01*
X58415000Y-71561411D01*
X58415000Y-71288589D01*
X58361775Y-71021011D01*
X58257371Y-70768957D01*
X58105799Y-70542114D01*
X57912886Y-70349201D01*
X57686043Y-70197629D01*
X57433989Y-70093225D01*
X57166411Y-70040000D01*
X56893589Y-70040000D01*
X56626011Y-70093225D01*
X56373957Y-70197629D01*
X56147114Y-70349201D01*
X55954201Y-70542114D01*
X55802629Y-70768957D01*
X55698225Y-71021011D01*
X55645000Y-71288589D01*
X55478266Y-71288589D01*
X55476011Y-71277257D01*
X55360299Y-70997905D01*
X55192312Y-70746495D01*
X54978505Y-70532688D01*
X54727095Y-70364701D01*
X54447743Y-70248989D01*
X54151184Y-70190000D01*
X53848816Y-70190000D01*
X53552257Y-70248989D01*
X53272905Y-70364701D01*
X53021495Y-70532688D01*
X52807688Y-70746495D01*
X52639701Y-70997905D01*
X52523989Y-71277257D01*
X52465000Y-71573816D01*
X50660000Y-71573816D01*
X50660000Y-66123816D01*
X52465000Y-66123816D01*
X52465000Y-66426184D01*
X52523989Y-66722743D01*
X52639701Y-67002095D01*
X52807688Y-67253505D01*
X53021495Y-67467312D01*
X53272905Y-67635299D01*
X53552257Y-67751011D01*
X53848816Y-67810000D01*
X54151184Y-67810000D01*
X54447743Y-67751011D01*
X54727095Y-67635299D01*
X54978505Y-67467312D01*
X55192312Y-67253505D01*
X55360299Y-67002095D01*
X55476011Y-66722743D01*
X55532532Y-66438589D01*
X55645000Y-66438589D01*
X55645000Y-66711411D01*
X55698225Y-66978989D01*
X55802629Y-67231043D01*
X55954201Y-67457886D01*
X56147114Y-67650799D01*
X56373957Y-67802371D01*
X56626011Y-67906775D01*
X56893589Y-67960000D01*
X57166411Y-67960000D01*
X57433989Y-67906775D01*
X57686043Y-67802371D01*
X57912886Y-67650799D01*
X58105799Y-67457886D01*
X58257371Y-67231043D01*
X58361775Y-66978989D01*
X58415000Y-66711411D01*
X58415000Y-66438589D01*
X58361775Y-66171011D01*
X58257371Y-65918957D01*
X58105799Y-65692114D01*
X58023685Y-65610000D01*
X100411928Y-65610000D01*
X100411928Y-67310000D01*
X100424188Y-67434482D01*
X100460498Y-67554180D01*
X100519463Y-67664494D01*
X100573222Y-67730000D01*
X100519463Y-67795506D01*
X100460498Y-67905820D01*
X100424188Y-68025518D01*
X100411928Y-68150000D01*
X100411928Y-69850000D01*
X100424188Y-69974482D01*
X100460498Y-70094180D01*
X100519463Y-70204494D01*
X100573222Y-70270000D01*
X100519463Y-70335506D01*
X100460498Y-70445820D01*
X100424188Y-70565518D01*
X100411928Y-70690000D01*
X100411928Y-72390000D01*
X100424188Y-72514482D01*
X100460498Y-72634180D01*
X100519463Y-72744494D01*
X100598815Y-72841185D01*
X100695506Y-72920537D01*
X100805820Y-72979502D01*
X100925518Y-73015812D01*
X101050000Y-73028072D01*
X104550000Y-73028072D01*
X104674482Y-73015812D01*
X104794180Y-72979502D01*
X104904494Y-72920537D01*
X105001185Y-72841185D01*
X105080537Y-72744494D01*
X105139502Y-72634180D01*
X105175812Y-72514482D01*
X105188072Y-72390000D01*
X105188072Y-72116740D01*
X105195000Y-72116740D01*
X105195000Y-72409260D01*
X105252068Y-72696158D01*
X105364010Y-72966411D01*
X105526525Y-73209632D01*
X105733368Y-73416475D01*
X105976589Y-73578990D01*
X106246842Y-73690932D01*
X106533740Y-73748000D01*
X106826260Y-73748000D01*
X107113158Y-73690932D01*
X107383411Y-73578990D01*
X107626632Y-73416475D01*
X107758487Y-73284620D01*
X107780498Y-73357180D01*
X107839463Y-73467494D01*
X107918815Y-73564185D01*
X108015506Y-73643537D01*
X108125820Y-73702502D01*
X108245518Y-73738812D01*
X108370000Y-73751072D01*
X110070000Y-73751072D01*
X110194482Y-73738812D01*
X110314180Y-73702502D01*
X110424494Y-73643537D01*
X110521185Y-73564185D01*
X110600537Y-73467494D01*
X110659502Y-73357180D01*
X110695812Y-73237482D01*
X110708072Y-73113000D01*
X110708072Y-71413000D01*
X110695812Y-71288518D01*
X110659502Y-71168820D01*
X110600537Y-71058506D01*
X110521185Y-70961815D01*
X110424494Y-70882463D01*
X110314180Y-70823498D01*
X110194482Y-70787188D01*
X110070000Y-70774928D01*
X108370000Y-70774928D01*
X108245518Y-70787188D01*
X108125820Y-70823498D01*
X108015506Y-70882463D01*
X107918815Y-70961815D01*
X107839463Y-71058506D01*
X107780498Y-71168820D01*
X107758487Y-71241380D01*
X107626632Y-71109525D01*
X107383411Y-70947010D01*
X107113158Y-70835068D01*
X106826260Y-70778000D01*
X106533740Y-70778000D01*
X106246842Y-70835068D01*
X105976589Y-70947010D01*
X105733368Y-71109525D01*
X105526525Y-71316368D01*
X105364010Y-71559589D01*
X105252068Y-71829842D01*
X105195000Y-72116740D01*
X105188072Y-72116740D01*
X105188072Y-70690000D01*
X105175812Y-70565518D01*
X105139502Y-70445820D01*
X105080537Y-70335506D01*
X105026778Y-70270000D01*
X105080537Y-70204494D01*
X105139502Y-70094180D01*
X105175812Y-69974482D01*
X105188072Y-69850000D01*
X105188072Y-68150000D01*
X105175812Y-68025518D01*
X105139502Y-67905820D01*
X105080537Y-67795506D01*
X105026778Y-67730000D01*
X105080537Y-67664494D01*
X105139502Y-67554180D01*
X105175812Y-67434482D01*
X105188072Y-67310000D01*
X105188072Y-67178514D01*
X106615000Y-67178514D01*
X106615000Y-67441486D01*
X106666304Y-67699405D01*
X106766939Y-67942359D01*
X106913038Y-68161013D01*
X107098987Y-68346962D01*
X107317641Y-68493061D01*
X107560595Y-68593696D01*
X107818514Y-68645000D01*
X108081486Y-68645000D01*
X108339405Y-68593696D01*
X108582359Y-68493061D01*
X108801013Y-68346962D01*
X108986962Y-68161013D01*
X109133061Y-67942359D01*
X109233696Y-67699405D01*
X109285000Y-67441486D01*
X109285000Y-67178514D01*
X109233696Y-66920595D01*
X109133061Y-66677641D01*
X108986962Y-66458987D01*
X108801013Y-66273038D01*
X108582359Y-66126939D01*
X108368556Y-66038379D01*
X108531366Y-65978935D01*
X108632203Y-65925037D01*
X108691664Y-65691269D01*
X107950000Y-64949605D01*
X107208336Y-65691269D01*
X107267797Y-65925037D01*
X107506242Y-66035934D01*
X107525827Y-66040706D01*
X107317641Y-66126939D01*
X107098987Y-66273038D01*
X106913038Y-66458987D01*
X106766939Y-66677641D01*
X106666304Y-66920595D01*
X106615000Y-67178514D01*
X105188072Y-67178514D01*
X105188072Y-65610000D01*
X105175812Y-65485518D01*
X105139502Y-65365820D01*
X105080537Y-65255506D01*
X105001185Y-65158815D01*
X104904494Y-65079463D01*
X104794180Y-65020498D01*
X104674482Y-64984188D01*
X104550000Y-64971928D01*
X101050000Y-64971928D01*
X100925518Y-64984188D01*
X100805820Y-65020498D01*
X100695506Y-65079463D01*
X100598815Y-65158815D01*
X100519463Y-65255506D01*
X100460498Y-65365820D01*
X100424188Y-65485518D01*
X100411928Y-65610000D01*
X58023685Y-65610000D01*
X57912886Y-65499201D01*
X57686043Y-65347629D01*
X57433989Y-65243225D01*
X57166411Y-65190000D01*
X56893589Y-65190000D01*
X56626011Y-65243225D01*
X56373957Y-65347629D01*
X56147114Y-65499201D01*
X55954201Y-65692114D01*
X55802629Y-65918957D01*
X55698225Y-66171011D01*
X55645000Y-66438589D01*
X55532532Y-66438589D01*
X55535000Y-66426184D01*
X55535000Y-66123816D01*
X55476011Y-65827257D01*
X55360299Y-65547905D01*
X55192312Y-65296495D01*
X54978505Y-65082688D01*
X54727095Y-64914701D01*
X54557551Y-64844473D01*
X106610610Y-64844473D01*
X106650875Y-65104344D01*
X106741065Y-65351366D01*
X106794963Y-65452203D01*
X107028731Y-65511664D01*
X107770395Y-64770000D01*
X108129605Y-64770000D01*
X108871269Y-65511664D01*
X109105037Y-65452203D01*
X109138256Y-65380776D01*
X116342116Y-65380776D01*
X116342116Y-66619224D01*
X116518365Y-67845067D01*
X116867276Y-69033349D01*
X117381746Y-70159881D01*
X118051302Y-71201730D01*
X118862313Y-72137687D01*
X119798270Y-72948698D01*
X120840119Y-73618254D01*
X121966651Y-74132724D01*
X123154933Y-74481635D01*
X124380776Y-74657884D01*
X125619224Y-74657884D01*
X126845067Y-74481635D01*
X128033349Y-74132724D01*
X129159881Y-73618254D01*
X130201730Y-72948698D01*
X131137687Y-72137687D01*
X131948698Y-71201730D01*
X132618254Y-70159881D01*
X133132724Y-69033349D01*
X133481635Y-67845067D01*
X133657884Y-66619224D01*
X133657884Y-65380776D01*
X133481635Y-64154933D01*
X133132724Y-62966651D01*
X132618254Y-61840119D01*
X131948698Y-60798270D01*
X131137687Y-59862313D01*
X130201730Y-59051302D01*
X129159881Y-58381746D01*
X128033349Y-57867276D01*
X126845067Y-57518365D01*
X125619224Y-57342116D01*
X124380776Y-57342116D01*
X123154933Y-57518365D01*
X121966651Y-57867276D01*
X120840119Y-58381746D01*
X119798270Y-59051302D01*
X118862313Y-59862313D01*
X118051302Y-60798270D01*
X117381746Y-61840119D01*
X116867276Y-62966651D01*
X116518365Y-64154933D01*
X116342116Y-65380776D01*
X109138256Y-65380776D01*
X109215934Y-65213758D01*
X109278183Y-64958260D01*
X109289390Y-64695527D01*
X109249125Y-64435656D01*
X109158935Y-64188634D01*
X109105037Y-64087797D01*
X108871269Y-64028336D01*
X108129605Y-64770000D01*
X107770395Y-64770000D01*
X107028731Y-64028336D01*
X106794963Y-64087797D01*
X106684066Y-64326242D01*
X106621817Y-64581740D01*
X106610610Y-64844473D01*
X54557551Y-64844473D01*
X54447743Y-64798989D01*
X54151184Y-64740000D01*
X53848816Y-64740000D01*
X53552257Y-64798989D01*
X53272905Y-64914701D01*
X53021495Y-65082688D01*
X52807688Y-65296495D01*
X52639701Y-65547905D01*
X52523989Y-65827257D01*
X52465000Y-66123816D01*
X50660000Y-66123816D01*
X50660000Y-63848731D01*
X107208336Y-63848731D01*
X107950000Y-64590395D01*
X108691664Y-63848731D01*
X108632203Y-63614963D01*
X108393758Y-63504066D01*
X108138260Y-63441817D01*
X107875527Y-63430610D01*
X107615656Y-63470875D01*
X107368634Y-63561065D01*
X107267797Y-63614963D01*
X107208336Y-63848731D01*
X50660000Y-63848731D01*
X50660000Y-53779872D01*
X51765000Y-53779872D01*
X51765000Y-54220128D01*
X51850890Y-54651925D01*
X52019369Y-55058669D01*
X52263962Y-55424729D01*
X52575271Y-55736038D01*
X52941331Y-55980631D01*
X53348075Y-56149110D01*
X53396558Y-56158754D01*
X53166589Y-56254010D01*
X52923368Y-56416525D01*
X52716525Y-56623368D01*
X52554010Y-56866589D01*
X52442068Y-57136842D01*
X52418473Y-57255461D01*
X52394188Y-57335518D01*
X52385989Y-57418769D01*
X52385000Y-57423740D01*
X52385000Y-57428808D01*
X52381928Y-57460000D01*
X52381928Y-60960000D01*
X52394188Y-61084482D01*
X52430498Y-61204180D01*
X52489463Y-61314494D01*
X52568815Y-61411185D01*
X52665506Y-61490537D01*
X52775820Y-61549502D01*
X52895518Y-61585812D01*
X53020000Y-61598072D01*
X54720000Y-61598072D01*
X54844482Y-61585812D01*
X54964180Y-61549502D01*
X55074494Y-61490537D01*
X55140000Y-61436778D01*
X55205506Y-61490537D01*
X55315820Y-61549502D01*
X55435518Y-61585812D01*
X55560000Y-61598072D01*
X57260000Y-61598072D01*
X57384482Y-61585812D01*
X57504180Y-61549502D01*
X57614494Y-61490537D01*
X57680000Y-61436778D01*
X57745506Y-61490537D01*
X57855820Y-61549502D01*
X57975518Y-61585812D01*
X58100000Y-61598072D01*
X58664250Y-61595000D01*
X58823000Y-61436250D01*
X58823000Y-56249845D01*
X59077000Y-56249845D01*
X59077000Y-61436250D01*
X59235750Y-61595000D01*
X59800000Y-61598072D01*
X59924482Y-61585812D01*
X60044180Y-61549502D01*
X60154494Y-61490537D01*
X60220000Y-61436778D01*
X60285506Y-61490537D01*
X60395820Y-61549502D01*
X60515518Y-61585812D01*
X60640000Y-61598072D01*
X62340000Y-61598072D01*
X62464482Y-61585812D01*
X62584180Y-61549502D01*
X62694494Y-61490537D01*
X62760000Y-61436778D01*
X62825506Y-61490537D01*
X62935820Y-61549502D01*
X63055518Y-61585812D01*
X63180000Y-61598072D01*
X64880000Y-61598072D01*
X65004482Y-61585812D01*
X65124180Y-61549502D01*
X65234494Y-61490537D01*
X65300000Y-61436778D01*
X65365506Y-61490537D01*
X65475820Y-61549502D01*
X65595518Y-61585812D01*
X65720000Y-61598072D01*
X67420000Y-61598072D01*
X67544482Y-61585812D01*
X67664180Y-61549502D01*
X67774494Y-61490537D01*
X67840000Y-61436778D01*
X67905506Y-61490537D01*
X68015820Y-61549502D01*
X68135518Y-61585812D01*
X68260000Y-61598072D01*
X69960000Y-61598072D01*
X70084482Y-61585812D01*
X70204180Y-61549502D01*
X70314494Y-61490537D01*
X70380000Y-61436778D01*
X70445506Y-61490537D01*
X70555820Y-61549502D01*
X70675518Y-61585812D01*
X70800000Y-61598072D01*
X71364250Y-61595000D01*
X71523000Y-61436250D01*
X71523000Y-56249845D01*
X71777000Y-56249845D01*
X71777000Y-61436250D01*
X71935750Y-61595000D01*
X72500000Y-61598072D01*
X72624482Y-61585812D01*
X72744180Y-61549502D01*
X72854494Y-61490537D01*
X72920000Y-61436778D01*
X72985506Y-61490537D01*
X73095820Y-61549502D01*
X73215518Y-61585812D01*
X73340000Y-61598072D01*
X75040000Y-61598072D01*
X75164482Y-61585812D01*
X75284180Y-61549502D01*
X75394494Y-61490537D01*
X75460000Y-61436778D01*
X75525506Y-61490537D01*
X75635820Y-61549502D01*
X75755518Y-61585812D01*
X75880000Y-61598072D01*
X77580000Y-61598072D01*
X77704482Y-61585812D01*
X77824180Y-61549502D01*
X77934494Y-61490537D01*
X78000000Y-61436778D01*
X78065506Y-61490537D01*
X78175820Y-61549502D01*
X78295518Y-61585812D01*
X78420000Y-61598072D01*
X80120000Y-61598072D01*
X80244482Y-61585812D01*
X80364180Y-61549502D01*
X80474494Y-61490537D01*
X80540000Y-61436778D01*
X80605506Y-61490537D01*
X80715820Y-61549502D01*
X80835518Y-61585812D01*
X80960000Y-61598072D01*
X82660000Y-61598072D01*
X82784482Y-61585812D01*
X82904180Y-61549502D01*
X83014494Y-61490537D01*
X83080000Y-61436778D01*
X83145506Y-61490537D01*
X83255820Y-61549502D01*
X83375518Y-61585812D01*
X83500000Y-61598072D01*
X84064250Y-61595000D01*
X84223000Y-61436250D01*
X84223000Y-56249845D01*
X84477000Y-56249845D01*
X84477000Y-61436250D01*
X84635750Y-61595000D01*
X85200000Y-61598072D01*
X85324482Y-61585812D01*
X85444180Y-61549502D01*
X85554494Y-61490537D01*
X85620000Y-61436778D01*
X85685506Y-61490537D01*
X85795820Y-61549502D01*
X85915518Y-61585812D01*
X86040000Y-61598072D01*
X87740000Y-61598072D01*
X87864482Y-61585812D01*
X87984180Y-61549502D01*
X88094494Y-61490537D01*
X88160000Y-61436778D01*
X88225506Y-61490537D01*
X88335820Y-61549502D01*
X88455518Y-61585812D01*
X88580000Y-61598072D01*
X90280000Y-61598072D01*
X90404482Y-61585812D01*
X90524180Y-61549502D01*
X90634494Y-61490537D01*
X90700000Y-61436778D01*
X90765506Y-61490537D01*
X90875820Y-61549502D01*
X90995518Y-61585812D01*
X91120000Y-61598072D01*
X92820000Y-61598072D01*
X92944482Y-61585812D01*
X93064180Y-61549502D01*
X93174494Y-61490537D01*
X93240000Y-61436778D01*
X93305506Y-61490537D01*
X93415820Y-61549502D01*
X93535518Y-61585812D01*
X93660000Y-61598072D01*
X95360000Y-61598072D01*
X95484482Y-61585812D01*
X95604180Y-61549502D01*
X95714494Y-61490537D01*
X95780000Y-61436778D01*
X95845506Y-61490537D01*
X95955820Y-61549502D01*
X96075518Y-61585812D01*
X96200000Y-61598072D01*
X96764250Y-61595000D01*
X96923000Y-61436250D01*
X96923000Y-56249845D01*
X97177000Y-56249845D01*
X97177000Y-61436250D01*
X97335750Y-61595000D01*
X97900000Y-61598072D01*
X98024482Y-61585812D01*
X98144180Y-61549502D01*
X98254494Y-61490537D01*
X98320000Y-61436778D01*
X98385506Y-61490537D01*
X98495820Y-61549502D01*
X98615518Y-61585812D01*
X98740000Y-61598072D01*
X100440000Y-61598072D01*
X100564482Y-61585812D01*
X100684180Y-61549502D01*
X100794494Y-61490537D01*
X100860000Y-61436778D01*
X100925506Y-61490537D01*
X101035820Y-61549502D01*
X101155518Y-61585812D01*
X101280000Y-61598072D01*
X102980000Y-61598072D01*
X103104482Y-61585812D01*
X103224180Y-61549502D01*
X103334494Y-61490537D01*
X103431185Y-61411185D01*
X103510537Y-61314494D01*
X103569502Y-61204180D01*
X103605812Y-61084482D01*
X103618072Y-60960000D01*
X103618072Y-57815000D01*
X104856928Y-57815000D01*
X104869188Y-57939482D01*
X104905498Y-58059180D01*
X104964463Y-58169494D01*
X105043815Y-58266185D01*
X105140506Y-58345537D01*
X105250820Y-58404502D01*
X105370518Y-58440812D01*
X105495000Y-58453072D01*
X105759250Y-58450000D01*
X105918000Y-58291250D01*
X105918000Y-57042000D01*
X106172000Y-57042000D01*
X106172000Y-58291250D01*
X106330750Y-58450000D01*
X106595000Y-58453072D01*
X106719482Y-58440812D01*
X106839180Y-58404502D01*
X106949494Y-58345537D01*
X107046185Y-58266185D01*
X107125537Y-58169494D01*
X107184502Y-58059180D01*
X107220812Y-57939482D01*
X107233072Y-57815000D01*
X107230000Y-57200750D01*
X107071250Y-57042000D01*
X106172000Y-57042000D01*
X105918000Y-57042000D01*
X105018750Y-57042000D01*
X104860000Y-57200750D01*
X104856928Y-57815000D01*
X103618072Y-57815000D01*
X103618072Y-57460000D01*
X103615000Y-57428808D01*
X103615000Y-57423740D01*
X103614011Y-57418769D01*
X103605812Y-57335518D01*
X103581527Y-57255461D01*
X103557932Y-57136842D01*
X103445990Y-56866589D01*
X103283475Y-56623368D01*
X103076632Y-56416525D01*
X102833411Y-56254010D01*
X102563158Y-56142068D01*
X102276260Y-56085000D01*
X101983740Y-56085000D01*
X101696842Y-56142068D01*
X101426589Y-56254010D01*
X101183368Y-56416525D01*
X100976525Y-56623368D01*
X100860000Y-56797760D01*
X100743475Y-56623368D01*
X100536632Y-56416525D01*
X100293411Y-56254010D01*
X100023158Y-56142068D01*
X99736260Y-56085000D01*
X99443740Y-56085000D01*
X99156842Y-56142068D01*
X98886589Y-56254010D01*
X98643368Y-56416525D01*
X98436525Y-56623368D01*
X98314805Y-56805534D01*
X98245178Y-56688645D01*
X98050269Y-56472412D01*
X97816920Y-56298359D01*
X97554099Y-56173175D01*
X97406890Y-56128524D01*
X97177000Y-56249845D01*
X96923000Y-56249845D01*
X96693110Y-56128524D01*
X96545901Y-56173175D01*
X96283080Y-56298359D01*
X96049731Y-56472412D01*
X95854822Y-56688645D01*
X95785195Y-56805534D01*
X95663475Y-56623368D01*
X95456632Y-56416525D01*
X95213411Y-56254010D01*
X94943158Y-56142068D01*
X94656260Y-56085000D01*
X94363740Y-56085000D01*
X94076842Y-56142068D01*
X93806589Y-56254010D01*
X93563368Y-56416525D01*
X93356525Y-56623368D01*
X93240000Y-56797760D01*
X93123475Y-56623368D01*
X92916632Y-56416525D01*
X92673411Y-56254010D01*
X92403158Y-56142068D01*
X92116260Y-56085000D01*
X91823740Y-56085000D01*
X91536842Y-56142068D01*
X91266589Y-56254010D01*
X91023368Y-56416525D01*
X90816525Y-56623368D01*
X90700000Y-56797760D01*
X90583475Y-56623368D01*
X90376632Y-56416525D01*
X90133411Y-56254010D01*
X89863158Y-56142068D01*
X89576260Y-56085000D01*
X89283740Y-56085000D01*
X88996842Y-56142068D01*
X88726589Y-56254010D01*
X88483368Y-56416525D01*
X88276525Y-56623368D01*
X88160000Y-56797760D01*
X88043475Y-56623368D01*
X87836632Y-56416525D01*
X87593411Y-56254010D01*
X87323158Y-56142068D01*
X87036260Y-56085000D01*
X86743740Y-56085000D01*
X86456842Y-56142068D01*
X86186589Y-56254010D01*
X85943368Y-56416525D01*
X85736525Y-56623368D01*
X85614805Y-56805534D01*
X85545178Y-56688645D01*
X85350269Y-56472412D01*
X85116920Y-56298359D01*
X84854099Y-56173175D01*
X84706890Y-56128524D01*
X84477000Y-56249845D01*
X84223000Y-56249845D01*
X83993110Y-56128524D01*
X83845901Y-56173175D01*
X83583080Y-56298359D01*
X83349731Y-56472412D01*
X83154822Y-56688645D01*
X83085195Y-56805534D01*
X82963475Y-56623368D01*
X82756632Y-56416525D01*
X82513411Y-56254010D01*
X82243158Y-56142068D01*
X81956260Y-56085000D01*
X81663740Y-56085000D01*
X81376842Y-56142068D01*
X81106589Y-56254010D01*
X80863368Y-56416525D01*
X80656525Y-56623368D01*
X80540000Y-56797760D01*
X80423475Y-56623368D01*
X80216632Y-56416525D01*
X79973411Y-56254010D01*
X79703158Y-56142068D01*
X79416260Y-56085000D01*
X79123740Y-56085000D01*
X78836842Y-56142068D01*
X78566589Y-56254010D01*
X78323368Y-56416525D01*
X78116525Y-56623368D01*
X78000000Y-56797760D01*
X77883475Y-56623368D01*
X77676632Y-56416525D01*
X77433411Y-56254010D01*
X77163158Y-56142068D01*
X76876260Y-56085000D01*
X76583740Y-56085000D01*
X76296842Y-56142068D01*
X76026589Y-56254010D01*
X75783368Y-56416525D01*
X75576525Y-56623368D01*
X75460000Y-56797760D01*
X75343475Y-56623368D01*
X75136632Y-56416525D01*
X74893411Y-56254010D01*
X74623158Y-56142068D01*
X74336260Y-56085000D01*
X74043740Y-56085000D01*
X73756842Y-56142068D01*
X73486589Y-56254010D01*
X73243368Y-56416525D01*
X73036525Y-56623368D01*
X72914805Y-56805534D01*
X72845178Y-56688645D01*
X72650269Y-56472412D01*
X72416920Y-56298359D01*
X72154099Y-56173175D01*
X72006890Y-56128524D01*
X71777000Y-56249845D01*
X71523000Y-56249845D01*
X71293110Y-56128524D01*
X71145901Y-56173175D01*
X70883080Y-56298359D01*
X70649731Y-56472412D01*
X70454822Y-56688645D01*
X70385195Y-56805534D01*
X70263475Y-56623368D01*
X70056632Y-56416525D01*
X69813411Y-56254010D01*
X69543158Y-56142068D01*
X69256260Y-56085000D01*
X68963740Y-56085000D01*
X68676842Y-56142068D01*
X68406589Y-56254010D01*
X68163368Y-56416525D01*
X67956525Y-56623368D01*
X67840000Y-56797760D01*
X67723475Y-56623368D01*
X67516632Y-56416525D01*
X67273411Y-56254010D01*
X67003158Y-56142068D01*
X66716260Y-56085000D01*
X66423740Y-56085000D01*
X66136842Y-56142068D01*
X65866589Y-56254010D01*
X65623368Y-56416525D01*
X65416525Y-56623368D01*
X65300000Y-56797760D01*
X65183475Y-56623368D01*
X64976632Y-56416525D01*
X64733411Y-56254010D01*
X64463158Y-56142068D01*
X64176260Y-56085000D01*
X63883740Y-56085000D01*
X63596842Y-56142068D01*
X63326589Y-56254010D01*
X63083368Y-56416525D01*
X62876525Y-56623368D01*
X62760000Y-56797760D01*
X62643475Y-56623368D01*
X62436632Y-56416525D01*
X62193411Y-56254010D01*
X61923158Y-56142068D01*
X61636260Y-56085000D01*
X61343740Y-56085000D01*
X61056842Y-56142068D01*
X60786589Y-56254010D01*
X60543368Y-56416525D01*
X60336525Y-56623368D01*
X60214805Y-56805534D01*
X60145178Y-56688645D01*
X59950269Y-56472412D01*
X59716920Y-56298359D01*
X59454099Y-56173175D01*
X59306890Y-56128524D01*
X59077000Y-56249845D01*
X58823000Y-56249845D01*
X58593110Y-56128524D01*
X58445901Y-56173175D01*
X58183080Y-56298359D01*
X57949731Y-56472412D01*
X57754822Y-56688645D01*
X57685195Y-56805534D01*
X57563475Y-56623368D01*
X57356632Y-56416525D01*
X57113411Y-56254010D01*
X56843158Y-56142068D01*
X56556260Y-56085000D01*
X56263740Y-56085000D01*
X55976842Y-56142068D01*
X55706589Y-56254010D01*
X55463368Y-56416525D01*
X55256525Y-56623368D01*
X55140000Y-56797760D01*
X55023475Y-56623368D01*
X54816632Y-56416525D01*
X54573411Y-56254010D01*
X54427792Y-56193693D01*
X54651925Y-56149110D01*
X54975694Y-56015000D01*
X104856928Y-56015000D01*
X104860000Y-56629250D01*
X105018750Y-56788000D01*
X105918000Y-56788000D01*
X105918000Y-55538750D01*
X105759250Y-55380000D01*
X105495000Y-55376928D01*
X105370518Y-55389188D01*
X105250820Y-55425498D01*
X105140506Y-55484463D01*
X105043815Y-55563815D01*
X104964463Y-55660506D01*
X104905498Y-55770820D01*
X104869188Y-55890518D01*
X104856928Y-56015000D01*
X54975694Y-56015000D01*
X55058669Y-55980631D01*
X55424729Y-55736038D01*
X55736038Y-55424729D01*
X55980631Y-55058669D01*
X56149110Y-54651925D01*
X56235000Y-54220128D01*
X56235000Y-53779872D01*
X56149110Y-53348075D01*
X55980631Y-52941331D01*
X55736038Y-52575271D01*
X55729281Y-52568514D01*
X64705000Y-52568514D01*
X64705000Y-52831486D01*
X64756304Y-53089405D01*
X64856939Y-53332359D01*
X65003038Y-53551013D01*
X65188987Y-53736962D01*
X65407641Y-53883061D01*
X65650595Y-53983696D01*
X65908514Y-54035000D01*
X66171486Y-54035000D01*
X66429405Y-53983696D01*
X66672359Y-53883061D01*
X66891013Y-53736962D01*
X67076962Y-53551013D01*
X67223061Y-53332359D01*
X67310000Y-53122470D01*
X67396939Y-53332359D01*
X67543038Y-53551013D01*
X67728987Y-53736962D01*
X67947641Y-53883061D01*
X68190595Y-53983696D01*
X68448514Y-54035000D01*
X68711486Y-54035000D01*
X68969405Y-53983696D01*
X69212359Y-53883061D01*
X69431013Y-53736962D01*
X69616962Y-53551013D01*
X69763061Y-53332359D01*
X69795880Y-53253126D01*
X69848320Y-53379727D01*
X70005363Y-53614759D01*
X70205241Y-53814637D01*
X70440273Y-53971680D01*
X70701426Y-54079853D01*
X70978665Y-54135000D01*
X71261335Y-54135000D01*
X71538574Y-54079853D01*
X71799727Y-53971680D01*
X72034759Y-53814637D01*
X72156694Y-53692702D01*
X75306903Y-53692702D01*
X75378486Y-53936671D01*
X75633996Y-54057571D01*
X75908184Y-54126300D01*
X76190512Y-54140217D01*
X76470130Y-54098787D01*
X76736292Y-54003603D01*
X76861514Y-53936671D01*
X76933097Y-53692702D01*
X76120000Y-52879605D01*
X75306903Y-53692702D01*
X72156694Y-53692702D01*
X72234637Y-53614759D01*
X72391680Y-53379727D01*
X72499853Y-53118574D01*
X72555000Y-52841335D01*
X72555000Y-52770512D01*
X74679783Y-52770512D01*
X74721213Y-53050130D01*
X74816397Y-53316292D01*
X74883329Y-53441514D01*
X75127298Y-53513097D01*
X75940395Y-52700000D01*
X76299605Y-52700000D01*
X77112702Y-53513097D01*
X77356671Y-53441514D01*
X77477571Y-53186004D01*
X77546300Y-52911816D01*
X77552107Y-52794000D01*
X97875928Y-52794000D01*
X97875928Y-54394000D01*
X97888188Y-54518482D01*
X97924498Y-54638180D01*
X97983463Y-54748494D01*
X98062815Y-54845185D01*
X98159506Y-54924537D01*
X98269820Y-54983502D01*
X98389518Y-55019812D01*
X98514000Y-55032072D01*
X100114000Y-55032072D01*
X100238482Y-55019812D01*
X100358180Y-54983502D01*
X100468494Y-54924537D01*
X100565185Y-54845185D01*
X100644537Y-54748494D01*
X100703502Y-54638180D01*
X100732661Y-54542057D01*
X100899241Y-54708637D01*
X101134273Y-54865680D01*
X101395426Y-54973853D01*
X101672665Y-55029000D01*
X101955335Y-55029000D01*
X102232574Y-54973853D01*
X102493727Y-54865680D01*
X102728759Y-54708637D01*
X102928637Y-54508759D01*
X103085680Y-54273727D01*
X103193853Y-54012574D01*
X103249000Y-53735335D01*
X103249000Y-53452665D01*
X103193853Y-53175426D01*
X103085680Y-52914273D01*
X102928637Y-52679241D01*
X102728759Y-52479363D01*
X102493727Y-52322320D01*
X102363828Y-52268514D01*
X104625000Y-52268514D01*
X104625000Y-52531486D01*
X104676304Y-52789405D01*
X104776939Y-53032359D01*
X104923038Y-53251013D01*
X105108987Y-53436962D01*
X105327641Y-53583061D01*
X105570595Y-53683696D01*
X105828514Y-53735000D01*
X106091486Y-53735000D01*
X106295896Y-53694340D01*
X106280808Y-53712724D01*
X106196431Y-53870582D01*
X106144472Y-54041868D01*
X106126928Y-54220000D01*
X106126928Y-55470000D01*
X106144472Y-55648132D01*
X106172000Y-55738880D01*
X106172000Y-56788000D01*
X107071250Y-56788000D01*
X107230000Y-56629250D01*
X107231231Y-56383072D01*
X107396928Y-56383072D01*
X107396928Y-57540000D01*
X107414472Y-57718132D01*
X107466431Y-57889418D01*
X107550808Y-58047276D01*
X107664361Y-58185639D01*
X107802724Y-58299192D01*
X107960582Y-58383569D01*
X108131868Y-58435528D01*
X108310000Y-58453072D01*
X108860000Y-58453072D01*
X109038132Y-58435528D01*
X109209418Y-58383569D01*
X109367276Y-58299192D01*
X109505639Y-58185639D01*
X109619192Y-58047276D01*
X109703569Y-57889418D01*
X109755528Y-57718132D01*
X109773072Y-57540000D01*
X109773072Y-56290000D01*
X109755528Y-56111868D01*
X109703569Y-55940582D01*
X109619192Y-55782724D01*
X109505639Y-55644361D01*
X109367276Y-55530808D01*
X109209418Y-55446431D01*
X109038132Y-55394472D01*
X108860000Y-55376928D01*
X108503072Y-55376928D01*
X108503072Y-54220000D01*
X108485528Y-54041868D01*
X108433569Y-53870582D01*
X108360217Y-53733350D01*
X108368514Y-53735000D01*
X108631486Y-53735000D01*
X108889405Y-53683696D01*
X109132359Y-53583061D01*
X109351013Y-53436962D01*
X109536962Y-53251013D01*
X109683061Y-53032359D01*
X109783696Y-52789405D01*
X109829578Y-52558740D01*
X109975000Y-52558740D01*
X109975000Y-52851260D01*
X110032068Y-53138158D01*
X110144010Y-53408411D01*
X110306525Y-53651632D01*
X110513368Y-53858475D01*
X110756589Y-54020990D01*
X111026842Y-54132932D01*
X111313740Y-54190000D01*
X111606260Y-54190000D01*
X111893158Y-54132932D01*
X112163411Y-54020990D01*
X112406632Y-53858475D01*
X112538487Y-53726620D01*
X112560498Y-53799180D01*
X112619463Y-53909494D01*
X112698815Y-54006185D01*
X112795506Y-54085537D01*
X112905820Y-54144502D01*
X113025518Y-54180812D01*
X113150000Y-54193072D01*
X114850000Y-54193072D01*
X114974482Y-54180812D01*
X115094180Y-54144502D01*
X115204494Y-54085537D01*
X115301185Y-54006185D01*
X115380537Y-53909494D01*
X115439502Y-53799180D01*
X115445359Y-53779872D01*
X133765000Y-53779872D01*
X133765000Y-54220128D01*
X133850890Y-54651925D01*
X134019369Y-55058669D01*
X134263962Y-55424729D01*
X134575271Y-55736038D01*
X134941331Y-55980631D01*
X135348075Y-56149110D01*
X135779872Y-56235000D01*
X136220128Y-56235000D01*
X136651925Y-56149110D01*
X137058669Y-55980631D01*
X137424729Y-55736038D01*
X137736038Y-55424729D01*
X137980631Y-55058669D01*
X138149110Y-54651925D01*
X138235000Y-54220128D01*
X138235000Y-53779872D01*
X138149110Y-53348075D01*
X137980631Y-52941331D01*
X137736038Y-52575271D01*
X137424729Y-52263962D01*
X137058669Y-52019369D01*
X136651925Y-51850890D01*
X136220128Y-51765000D01*
X135779872Y-51765000D01*
X135348075Y-51850890D01*
X134941331Y-52019369D01*
X134575271Y-52263962D01*
X134263962Y-52575271D01*
X134019369Y-52941331D01*
X133850890Y-53348075D01*
X133765000Y-53779872D01*
X115445359Y-53779872D01*
X115475812Y-53679482D01*
X115488072Y-53555000D01*
X115488072Y-51855000D01*
X115475812Y-51730518D01*
X115439502Y-51610820D01*
X115380537Y-51500506D01*
X115301185Y-51403815D01*
X115204494Y-51324463D01*
X115094180Y-51265498D01*
X114974482Y-51229188D01*
X114850000Y-51216928D01*
X113150000Y-51216928D01*
X113025518Y-51229188D01*
X112905820Y-51265498D01*
X112795506Y-51324463D01*
X112698815Y-51403815D01*
X112619463Y-51500506D01*
X112560498Y-51610820D01*
X112538487Y-51683380D01*
X112406632Y-51551525D01*
X112163411Y-51389010D01*
X111893158Y-51277068D01*
X111606260Y-51220000D01*
X111313740Y-51220000D01*
X111026842Y-51277068D01*
X110756589Y-51389010D01*
X110513368Y-51551525D01*
X110306525Y-51758368D01*
X110144010Y-52001589D01*
X110032068Y-52271842D01*
X109975000Y-52558740D01*
X109829578Y-52558740D01*
X109835000Y-52531486D01*
X109835000Y-52268514D01*
X109783696Y-52010595D01*
X109683061Y-51767641D01*
X109536962Y-51548987D01*
X109351013Y-51363038D01*
X109132359Y-51216939D01*
X108889405Y-51116304D01*
X108631486Y-51065000D01*
X108368514Y-51065000D01*
X108110595Y-51116304D01*
X107867641Y-51216939D01*
X107648987Y-51363038D01*
X107463038Y-51548987D01*
X107316939Y-51767641D01*
X107230000Y-51977530D01*
X107143061Y-51767641D01*
X106996962Y-51548987D01*
X106811013Y-51363038D01*
X106592359Y-51216939D01*
X106349405Y-51116304D01*
X106091486Y-51065000D01*
X105828514Y-51065000D01*
X105570595Y-51116304D01*
X105327641Y-51216939D01*
X105108987Y-51363038D01*
X104923038Y-51548987D01*
X104776939Y-51767641D01*
X104676304Y-52010595D01*
X104625000Y-52268514D01*
X102363828Y-52268514D01*
X102232574Y-52214147D01*
X101955335Y-52159000D01*
X101672665Y-52159000D01*
X101395426Y-52214147D01*
X101134273Y-52322320D01*
X100899241Y-52479363D01*
X100732661Y-52645943D01*
X100703502Y-52549820D01*
X100644537Y-52439506D01*
X100565185Y-52342815D01*
X100468494Y-52263463D01*
X100358180Y-52204498D01*
X100238482Y-52168188D01*
X100114000Y-52155928D01*
X98514000Y-52155928D01*
X98389518Y-52168188D01*
X98269820Y-52204498D01*
X98159506Y-52263463D01*
X98062815Y-52342815D01*
X97983463Y-52439506D01*
X97924498Y-52549820D01*
X97888188Y-52669518D01*
X97875928Y-52794000D01*
X77552107Y-52794000D01*
X77560217Y-52629488D01*
X77518787Y-52349870D01*
X77423603Y-52083708D01*
X77356671Y-51958486D01*
X77112702Y-51886903D01*
X76299605Y-52700000D01*
X75940395Y-52700000D01*
X75127298Y-51886903D01*
X74883329Y-51958486D01*
X74762429Y-52213996D01*
X74693700Y-52488184D01*
X74679783Y-52770512D01*
X72555000Y-52770512D01*
X72555000Y-52558665D01*
X72499853Y-52281426D01*
X72391680Y-52020273D01*
X72234637Y-51785241D01*
X72156694Y-51707298D01*
X75306903Y-51707298D01*
X76120000Y-52520395D01*
X76933097Y-51707298D01*
X76861514Y-51463329D01*
X76606004Y-51342429D01*
X76331816Y-51273700D01*
X76049488Y-51259783D01*
X75769870Y-51301213D01*
X75503708Y-51396397D01*
X75378486Y-51463329D01*
X75306903Y-51707298D01*
X72156694Y-51707298D01*
X72034759Y-51585363D01*
X71799727Y-51428320D01*
X71538574Y-51320147D01*
X71261335Y-51265000D01*
X70978665Y-51265000D01*
X70701426Y-51320147D01*
X70440273Y-51428320D01*
X70205241Y-51585363D01*
X70005363Y-51785241D01*
X69848320Y-52020273D01*
X69795880Y-52146874D01*
X69763061Y-52067641D01*
X69616962Y-51848987D01*
X69431013Y-51663038D01*
X69212359Y-51516939D01*
X68969405Y-51416304D01*
X68711486Y-51365000D01*
X68448514Y-51365000D01*
X68190595Y-51416304D01*
X67947641Y-51516939D01*
X67728987Y-51663038D01*
X67543038Y-51848987D01*
X67396939Y-52067641D01*
X67310000Y-52277530D01*
X67223061Y-52067641D01*
X67076962Y-51848987D01*
X66891013Y-51663038D01*
X66672359Y-51516939D01*
X66429405Y-51416304D01*
X66171486Y-51365000D01*
X65908514Y-51365000D01*
X65650595Y-51416304D01*
X65407641Y-51516939D01*
X65188987Y-51663038D01*
X65003038Y-51848987D01*
X64856939Y-52067641D01*
X64756304Y-52310595D01*
X64705000Y-52568514D01*
X55729281Y-52568514D01*
X55424729Y-52263962D01*
X55058669Y-52019369D01*
X54651925Y-51850890D01*
X54220128Y-51765000D01*
X53779872Y-51765000D01*
X53348075Y-51850890D01*
X52941331Y-52019369D01*
X52575271Y-52263962D01*
X52263962Y-52575271D01*
X52019369Y-52941331D01*
X51850890Y-53348075D01*
X51765000Y-53779872D01*
X50660000Y-53779872D01*
X50660000Y-50660000D01*
X139340000Y-50660000D01*
X139340001Y-119340000D01*
G37*
X139340001Y-119340000D02*
X50660000Y-119340000D01*
X50660000Y-115779872D01*
X51765000Y-115779872D01*
X51765000Y-116220128D01*
X51850890Y-116651925D01*
X52019369Y-117058669D01*
X52263962Y-117424729D01*
X52575271Y-117736038D01*
X52941331Y-117980631D01*
X53348075Y-118149110D01*
X53779872Y-118235000D01*
X54220128Y-118235000D01*
X54651925Y-118149110D01*
X55058669Y-117980631D01*
X55424729Y-117736038D01*
X55736038Y-117424729D01*
X55980631Y-117058669D01*
X56149110Y-116651925D01*
X56235000Y-116220128D01*
X56235000Y-115779872D01*
X133765000Y-115779872D01*
X133765000Y-116220128D01*
X133850890Y-116651925D01*
X134019369Y-117058669D01*
X134263962Y-117424729D01*
X134575271Y-117736038D01*
X134941331Y-117980631D01*
X135348075Y-118149110D01*
X135779872Y-118235000D01*
X136220128Y-118235000D01*
X136651925Y-118149110D01*
X137058669Y-117980631D01*
X137424729Y-117736038D01*
X137736038Y-117424729D01*
X137980631Y-117058669D01*
X138149110Y-116651925D01*
X138235000Y-116220128D01*
X138235000Y-115779872D01*
X138149110Y-115348075D01*
X137980631Y-114941331D01*
X137736038Y-114575271D01*
X137424729Y-114263962D01*
X137058669Y-114019369D01*
X136651925Y-113850890D01*
X136220128Y-113765000D01*
X135779872Y-113765000D01*
X135348075Y-113850890D01*
X134941331Y-114019369D01*
X134575271Y-114263962D01*
X134263962Y-114575271D01*
X134019369Y-114941331D01*
X133850890Y-115348075D01*
X133765000Y-115779872D01*
X56235000Y-115779872D01*
X56149110Y-115348075D01*
X55980631Y-114941331D01*
X55736038Y-114575271D01*
X55424729Y-114263962D01*
X55058669Y-114019369D01*
X54651925Y-113850890D01*
X54220128Y-113765000D01*
X53779872Y-113765000D01*
X53348075Y-113850890D01*
X52941331Y-114019369D01*
X52575271Y-114263962D01*
X52263962Y-114575271D01*
X52019369Y-114941331D01*
X51850890Y-115348075D01*
X51765000Y-115779872D01*
X50660000Y-115779872D01*
X50660000Y-113500000D01*
X126196928Y-113500000D01*
X126196928Y-115100000D01*
X126209188Y-115224482D01*
X126245498Y-115344180D01*
X126304463Y-115454494D01*
X126383815Y-115551185D01*
X126480506Y-115630537D01*
X126590820Y-115689502D01*
X126710518Y-115725812D01*
X126835000Y-115738072D01*
X128435000Y-115738072D01*
X128559482Y-115725812D01*
X128679180Y-115689502D01*
X128789494Y-115630537D01*
X128886185Y-115551185D01*
X128965537Y-115454494D01*
X129024502Y-115344180D01*
X129040117Y-115292702D01*
X129321903Y-115292702D01*
X129393486Y-115536671D01*
X129648996Y-115657571D01*
X129923184Y-115726300D01*
X130205512Y-115740217D01*
X130485130Y-115698787D01*
X130751292Y-115603603D01*
X130876514Y-115536671D01*
X130948097Y-115292702D01*
X130135000Y-114479605D01*
X129321903Y-115292702D01*
X129040117Y-115292702D01*
X129060812Y-115224482D01*
X129073072Y-115100000D01*
X129073072Y-115092785D01*
X129142298Y-115113097D01*
X129955395Y-114300000D01*
X130314605Y-114300000D01*
X131127702Y-115113097D01*
X131371671Y-115041514D01*
X131492571Y-114786004D01*
X131561300Y-114511816D01*
X131575217Y-114229488D01*
X131533787Y-113949870D01*
X131438603Y-113683708D01*
X131371671Y-113558486D01*
X131127702Y-113486903D01*
X130314605Y-114300000D01*
X129955395Y-114300000D01*
X129142298Y-113486903D01*
X129073072Y-113507215D01*
X129073072Y-113500000D01*
X129060812Y-113375518D01*
X129040118Y-113307298D01*
X129321903Y-113307298D01*
X130135000Y-114120395D01*
X130948097Y-113307298D01*
X130876514Y-113063329D01*
X130621004Y-112942429D01*
X130346816Y-112873700D01*
X130064488Y-112859783D01*
X129784870Y-112901213D01*
X129518708Y-112996397D01*
X129393486Y-113063329D01*
X129321903Y-113307298D01*
X129040118Y-113307298D01*
X129024502Y-113255820D01*
X128965537Y-113145506D01*
X128886185Y-113048815D01*
X128789494Y-112969463D01*
X128679180Y-112910498D01*
X128559482Y-112874188D01*
X128435000Y-112861928D01*
X126835000Y-112861928D01*
X126710518Y-112874188D01*
X126590820Y-112910498D01*
X126480506Y-112969463D01*
X126383815Y-113048815D01*
X126304463Y-113145506D01*
X126245498Y-113255820D01*
X126209188Y-113375518D01*
X126196928Y-113500000D01*
X50660000Y-113500000D01*
X50660000Y-108835413D01*
X59044192Y-108835413D01*
X59139956Y-109099814D01*
X59429571Y-109240704D01*
X59741108Y-109322384D01*
X60062595Y-109341718D01*
X60381675Y-109297961D01*
X60686088Y-109192795D01*
X60860044Y-109099814D01*
X60955808Y-108835413D01*
X60000000Y-107879605D01*
X59044192Y-108835413D01*
X50660000Y-108835413D01*
X50660000Y-107762595D01*
X58358282Y-107762595D01*
X58402039Y-108081675D01*
X58507205Y-108386088D01*
X58600186Y-108560044D01*
X58864587Y-108655808D01*
X59820395Y-107700000D01*
X60179605Y-107700000D01*
X61135413Y-108655808D01*
X61399814Y-108560044D01*
X61540704Y-108270429D01*
X61622384Y-107958892D01*
X61641718Y-107637405D01*
X61619440Y-107474947D01*
X84880000Y-107474947D01*
X84880000Y-107925053D01*
X84967811Y-108366510D01*
X85140059Y-108782353D01*
X85390125Y-109156603D01*
X85708397Y-109474875D01*
X86082647Y-109724941D01*
X86498490Y-109897189D01*
X86939947Y-109985000D01*
X87390053Y-109985000D01*
X87831510Y-109897189D01*
X88247353Y-109724941D01*
X88621603Y-109474875D01*
X88767964Y-109328514D01*
X122665000Y-109328514D01*
X122665000Y-109591486D01*
X122716304Y-109849405D01*
X122816939Y-110092359D01*
X122963038Y-110311013D01*
X123148987Y-110496962D01*
X123367641Y-110643061D01*
X123577530Y-110730000D01*
X123367641Y-110816939D01*
X123148987Y-110963038D01*
X122963038Y-111148987D01*
X122816939Y-111367641D01*
X122716304Y-111610595D01*
X122665000Y-111868514D01*
X122665000Y-112131486D01*
X122716304Y-112389405D01*
X122816939Y-112632359D01*
X122963038Y-112851013D01*
X123148987Y-113036962D01*
X123367641Y-113183061D01*
X123610595Y-113283696D01*
X123868514Y-113335000D01*
X124131486Y-113335000D01*
X124389405Y-113283696D01*
X124632359Y-113183061D01*
X124851013Y-113036962D01*
X125036962Y-112851013D01*
X125183061Y-112632359D01*
X125283696Y-112389405D01*
X125335000Y-112131486D01*
X125335000Y-111868514D01*
X125283696Y-111610595D01*
X125183061Y-111367641D01*
X125036962Y-111148987D01*
X124851013Y-110963038D01*
X124632359Y-110816939D01*
X124422470Y-110730000D01*
X124632359Y-110643061D01*
X124851013Y-110496962D01*
X125036962Y-110311013D01*
X125183061Y-110092359D01*
X125283696Y-109849405D01*
X125335000Y-109591486D01*
X125335000Y-109328514D01*
X125283696Y-109070595D01*
X125183061Y-108827641D01*
X125036962Y-108608987D01*
X124851013Y-108423038D01*
X124632359Y-108276939D01*
X124389405Y-108176304D01*
X124131486Y-108125000D01*
X123868514Y-108125000D01*
X123610595Y-108176304D01*
X123367641Y-108276939D01*
X123148987Y-108423038D01*
X122963038Y-108608987D01*
X122816939Y-108827641D01*
X122716304Y-109070595D01*
X122665000Y-109328514D01*
X88767964Y-109328514D01*
X88939875Y-109156603D01*
X89189941Y-108782353D01*
X89362189Y-108366510D01*
X89450000Y-107925053D01*
X89450000Y-107474947D01*
X89362189Y-107033490D01*
X89189941Y-106617647D01*
X88939875Y-106243397D01*
X88621603Y-105925125D01*
X88247353Y-105675059D01*
X87831510Y-105502811D01*
X87390053Y-105415000D01*
X86939947Y-105415000D01*
X86498490Y-105502811D01*
X86082647Y-105675059D01*
X85708397Y-105925125D01*
X85390125Y-106243397D01*
X85140059Y-106617647D01*
X84967811Y-107033490D01*
X84880000Y-107474947D01*
X61619440Y-107474947D01*
X61597961Y-107318325D01*
X61492795Y-107013912D01*
X61399814Y-106839956D01*
X61135413Y-106744192D01*
X60179605Y-107700000D01*
X59820395Y-107700000D01*
X58864587Y-106744192D01*
X58600186Y-106839956D01*
X58459296Y-107129571D01*
X58377616Y-107441108D01*
X58358282Y-107762595D01*
X50660000Y-107762595D01*
X50660000Y-106564587D01*
X59044192Y-106564587D01*
X60000000Y-107520395D01*
X60955808Y-106564587D01*
X60860044Y-106300186D01*
X60570429Y-106159296D01*
X60258892Y-106077616D01*
X59937405Y-106058282D01*
X59618325Y-106102039D01*
X59313912Y-106207205D01*
X59139956Y-106300186D01*
X59044192Y-106564587D01*
X50660000Y-106564587D01*
X50660000Y-104218980D01*
X51987626Y-104218980D01*
X52107514Y-104503836D01*
X52431210Y-104664699D01*
X52780069Y-104759322D01*
X53140684Y-104784067D01*
X53499198Y-104737985D01*
X53841833Y-104622846D01*
X54064486Y-104503836D01*
X54184374Y-104218980D01*
X53086000Y-103120605D01*
X51987626Y-104218980D01*
X50660000Y-104218980D01*
X50660000Y-102995684D01*
X51242933Y-102995684D01*
X51289015Y-103354198D01*
X51404154Y-103696833D01*
X51523164Y-103919486D01*
X51808020Y-104039374D01*
X52906395Y-102941000D01*
X53265605Y-102941000D01*
X54363980Y-104039374D01*
X54648836Y-103919486D01*
X54809699Y-103595790D01*
X54904322Y-103246931D01*
X54904350Y-103246514D01*
X120839000Y-103246514D01*
X120839000Y-103509486D01*
X120890304Y-103767405D01*
X120990939Y-104010359D01*
X121137038Y-104229013D01*
X121322987Y-104414962D01*
X121541641Y-104561061D01*
X121784595Y-104661696D01*
X122042514Y-104713000D01*
X122305486Y-104713000D01*
X122563405Y-104661696D01*
X122806359Y-104561061D01*
X123025013Y-104414962D01*
X123210962Y-104229013D01*
X123357061Y-104010359D01*
X123444000Y-103800470D01*
X123530939Y-104010359D01*
X123677038Y-104229013D01*
X123862987Y-104414962D01*
X124081641Y-104561061D01*
X124324595Y-104661696D01*
X124582514Y-104713000D01*
X124845486Y-104713000D01*
X125103405Y-104661696D01*
X125346359Y-104561061D01*
X125565013Y-104414962D01*
X125750962Y-104229013D01*
X125897061Y-104010359D01*
X125997696Y-103767405D01*
X126049000Y-103509486D01*
X126049000Y-103246514D01*
X126022840Y-103115000D01*
X126700928Y-103115000D01*
X126700928Y-104365000D01*
X126718472Y-104543132D01*
X126770431Y-104714418D01*
X126854808Y-104872276D01*
X126968361Y-105010639D01*
X127106724Y-105124192D01*
X127264582Y-105208569D01*
X127435868Y-105260528D01*
X127614000Y-105278072D01*
X127970928Y-105278072D01*
X127970928Y-106435000D01*
X127988472Y-106613132D01*
X128040431Y-106784418D01*
X128124808Y-106942276D01*
X128238361Y-107080639D01*
X128376724Y-107194192D01*
X128534582Y-107278569D01*
X128705868Y-107330528D01*
X128884000Y-107348072D01*
X129434000Y-107348072D01*
X129612132Y-107330528D01*
X129783418Y-107278569D01*
X129941276Y-107194192D01*
X130079639Y-107080639D01*
X130193192Y-106942276D01*
X130277569Y-106784418D01*
X130329528Y-106613132D01*
X130347072Y-106435000D01*
X130347072Y-105997330D01*
X132692278Y-105997330D01*
X132782147Y-106243123D01*
X132918241Y-106466660D01*
X133095330Y-106659351D01*
X133306608Y-106813792D01*
X133543956Y-106924047D01*
X133651671Y-106956716D01*
X133858000Y-106833374D01*
X133858000Y-105791000D01*
X134112000Y-105791000D01*
X134112000Y-106833374D01*
X134318329Y-106956716D01*
X134426044Y-106924047D01*
X134663392Y-106813792D01*
X134874670Y-106659351D01*
X135051759Y-106466660D01*
X135187853Y-106243123D01*
X135277722Y-105997330D01*
X135155201Y-105791000D01*
X134112000Y-105791000D01*
X133858000Y-105791000D01*
X132814799Y-105791000D01*
X132692278Y-105997330D01*
X130347072Y-105997330D01*
X130347072Y-105185000D01*
X130329528Y-105006868D01*
X130302000Y-104916120D01*
X130302000Y-103867000D01*
X130556000Y-103867000D01*
X130556000Y-105116250D01*
X130714750Y-105275000D01*
X130979000Y-105278072D01*
X131103482Y-105265812D01*
X131223180Y-105229502D01*
X131333494Y-105170537D01*
X131430185Y-105091185D01*
X131509537Y-104994494D01*
X131568502Y-104884180D01*
X131604812Y-104764482D01*
X131617072Y-104640000D01*
X131614000Y-104025750D01*
X131455250Y-103867000D01*
X130556000Y-103867000D01*
X130302000Y-103867000D01*
X129402750Y-103867000D01*
X129244000Y-104025750D01*
X129242769Y-104271928D01*
X129077072Y-104271928D01*
X129077072Y-103115000D01*
X129059528Y-102936868D01*
X129030144Y-102840000D01*
X129240928Y-102840000D01*
X129244000Y-103454250D01*
X129402750Y-103613000D01*
X130302000Y-103613000D01*
X130302000Y-102363750D01*
X130556000Y-102363750D01*
X130556000Y-103613000D01*
X131455250Y-103613000D01*
X131614000Y-103454250D01*
X131616309Y-102992514D01*
X132650000Y-102992514D01*
X132650000Y-103255486D01*
X132701304Y-103513405D01*
X132801939Y-103756359D01*
X132948038Y-103975013D01*
X133133987Y-104160962D01*
X133352641Y-104307061D01*
X133568550Y-104396494D01*
X133543956Y-104403953D01*
X133306608Y-104514208D01*
X133095330Y-104668649D01*
X132918241Y-104861340D01*
X132782147Y-105084877D01*
X132692278Y-105330670D01*
X132814799Y-105537000D01*
X133858000Y-105537000D01*
X133858000Y-105517000D01*
X134112000Y-105517000D01*
X134112000Y-105537000D01*
X135155201Y-105537000D01*
X135277722Y-105330670D01*
X135187853Y-105084877D01*
X135051759Y-104861340D01*
X134874670Y-104668649D01*
X134663392Y-104514208D01*
X134426044Y-104403953D01*
X134401450Y-104396494D01*
X134617359Y-104307061D01*
X134836013Y-104160962D01*
X135021962Y-103975013D01*
X135168061Y-103756359D01*
X135268696Y-103513405D01*
X135320000Y-103255486D01*
X135320000Y-102992514D01*
X135268696Y-102734595D01*
X135168061Y-102491641D01*
X135021962Y-102272987D01*
X134836013Y-102087038D01*
X134617359Y-101940939D01*
X134374405Y-101840304D01*
X134116486Y-101789000D01*
X133853514Y-101789000D01*
X133595595Y-101840304D01*
X133352641Y-101940939D01*
X133133987Y-102087038D01*
X132948038Y-102272987D01*
X132801939Y-102491641D01*
X132701304Y-102734595D01*
X132650000Y-102992514D01*
X131616309Y-102992514D01*
X131617072Y-102840000D01*
X131604812Y-102715518D01*
X131568502Y-102595820D01*
X131509537Y-102485506D01*
X131430185Y-102388815D01*
X131333494Y-102309463D01*
X131223180Y-102250498D01*
X131103482Y-102214188D01*
X130979000Y-102201928D01*
X130714750Y-102205000D01*
X130556000Y-102363750D01*
X130302000Y-102363750D01*
X130143250Y-102205000D01*
X129879000Y-102201928D01*
X129754518Y-102214188D01*
X129634820Y-102250498D01*
X129524506Y-102309463D01*
X129427815Y-102388815D01*
X129348463Y-102485506D01*
X129289498Y-102595820D01*
X129253188Y-102715518D01*
X129240928Y-102840000D01*
X129030144Y-102840000D01*
X129007569Y-102765582D01*
X128923192Y-102607724D01*
X128809639Y-102469361D01*
X128671276Y-102355808D01*
X128513418Y-102271431D01*
X128342132Y-102219472D01*
X128164000Y-102201928D01*
X127614000Y-102201928D01*
X127435868Y-102219472D01*
X127264582Y-102271431D01*
X127106724Y-102355808D01*
X126968361Y-102469361D01*
X126854808Y-102607724D01*
X126770431Y-102765582D01*
X126718472Y-102936868D01*
X126700928Y-103115000D01*
X126022840Y-103115000D01*
X125997696Y-102988595D01*
X125897061Y-102745641D01*
X125750962Y-102526987D01*
X125565013Y-102341038D01*
X125346359Y-102194939D01*
X125103405Y-102094304D01*
X124845486Y-102043000D01*
X124582514Y-102043000D01*
X124324595Y-102094304D01*
X124081641Y-102194939D01*
X123862987Y-102341038D01*
X123677038Y-102526987D01*
X123530939Y-102745641D01*
X123444000Y-102955530D01*
X123357061Y-102745641D01*
X123210962Y-102526987D01*
X123025013Y-102341038D01*
X122806359Y-102194939D01*
X122563405Y-102094304D01*
X122305486Y-102043000D01*
X122042514Y-102043000D01*
X121784595Y-102094304D01*
X121541641Y-102194939D01*
X121322987Y-102341038D01*
X121137038Y-102526987D01*
X120990939Y-102745641D01*
X120890304Y-102988595D01*
X120839000Y-103246514D01*
X54904350Y-103246514D01*
X54929067Y-102886316D01*
X54882985Y-102527802D01*
X54767846Y-102185167D01*
X54648836Y-101962514D01*
X54363980Y-101842626D01*
X53265605Y-102941000D01*
X52906395Y-102941000D01*
X51808020Y-101842626D01*
X51523164Y-101962514D01*
X51362301Y-102286210D01*
X51267678Y-102635069D01*
X51242933Y-102995684D01*
X50660000Y-102995684D01*
X50660000Y-98241000D01*
X51247928Y-98241000D01*
X51247928Y-100641000D01*
X51260188Y-100765482D01*
X51296498Y-100885180D01*
X51355463Y-100995494D01*
X51434815Y-101092185D01*
X51531506Y-101171537D01*
X51641820Y-101230502D01*
X51761518Y-101266812D01*
X51886000Y-101279072D01*
X52292903Y-101279072D01*
X52107514Y-101378164D01*
X51987626Y-101663020D01*
X53086000Y-102761395D01*
X54184374Y-101663020D01*
X54064486Y-101378164D01*
X53865088Y-101279072D01*
X54286000Y-101279072D01*
X54410482Y-101266812D01*
X54530180Y-101230502D01*
X54640494Y-101171537D01*
X54737185Y-101092185D01*
X54816537Y-100995494D01*
X54875502Y-100885180D01*
X54911812Y-100765482D01*
X54924072Y-100641000D01*
X54924072Y-98241000D01*
X54911812Y-98116518D01*
X54875502Y-97996820D01*
X54853683Y-97956000D01*
X130020428Y-97956000D01*
X130020428Y-99656000D01*
X130032688Y-99780482D01*
X130068998Y-99900180D01*
X130127963Y-100010494D01*
X130207315Y-100107185D01*
X130304006Y-100186537D01*
X130414320Y-100245502D01*
X130534018Y-100281812D01*
X130658500Y-100294072D01*
X132358500Y-100294072D01*
X132482982Y-100281812D01*
X132602680Y-100245502D01*
X132712994Y-100186537D01*
X132809685Y-100107185D01*
X132889037Y-100010494D01*
X132948002Y-99900180D01*
X132970013Y-99827620D01*
X133101868Y-99959475D01*
X133345089Y-100121990D01*
X133615342Y-100233932D01*
X133902240Y-100291000D01*
X134194760Y-100291000D01*
X134481658Y-100233932D01*
X134751911Y-100121990D01*
X134995132Y-99959475D01*
X135201975Y-99752632D01*
X135318500Y-99578240D01*
X135435025Y-99752632D01*
X135641868Y-99959475D01*
X135885089Y-100121990D01*
X136155342Y-100233932D01*
X136442240Y-100291000D01*
X136734760Y-100291000D01*
X137021658Y-100233932D01*
X137291911Y-100121990D01*
X137535132Y-99959475D01*
X137741975Y-99752632D01*
X137904490Y-99509411D01*
X138016432Y-99239158D01*
X138073500Y-98952260D01*
X138073500Y-98659740D01*
X138016432Y-98372842D01*
X137904490Y-98102589D01*
X137741975Y-97859368D01*
X137535132Y-97652525D01*
X137291911Y-97490010D01*
X137021658Y-97378068D01*
X136734760Y-97321000D01*
X136442240Y-97321000D01*
X136155342Y-97378068D01*
X135885089Y-97490010D01*
X135641868Y-97652525D01*
X135435025Y-97859368D01*
X135318500Y-98033760D01*
X135201975Y-97859368D01*
X134995132Y-97652525D01*
X134751911Y-97490010D01*
X134481658Y-97378068D01*
X134194760Y-97321000D01*
X133902240Y-97321000D01*
X133615342Y-97378068D01*
X133345089Y-97490010D01*
X133101868Y-97652525D01*
X132970013Y-97784380D01*
X132948002Y-97711820D01*
X132889037Y-97601506D01*
X132809685Y-97504815D01*
X132712994Y-97425463D01*
X132602680Y-97366498D01*
X132482982Y-97330188D01*
X132358500Y-97317928D01*
X130658500Y-97317928D01*
X130534018Y-97330188D01*
X130414320Y-97366498D01*
X130304006Y-97425463D01*
X130207315Y-97504815D01*
X130127963Y-97601506D01*
X130068998Y-97711820D01*
X130032688Y-97831518D01*
X130020428Y-97956000D01*
X54853683Y-97956000D01*
X54816537Y-97886506D01*
X54737185Y-97789815D01*
X54640494Y-97710463D01*
X54530180Y-97651498D01*
X54410482Y-97615188D01*
X54286000Y-97602928D01*
X51886000Y-97602928D01*
X51761518Y-97615188D01*
X51641820Y-97651498D01*
X51531506Y-97710463D01*
X51434815Y-97789815D01*
X51355463Y-97886506D01*
X51296498Y-97996820D01*
X51260188Y-98116518D01*
X51247928Y-98241000D01*
X50660000Y-98241000D01*
X50660000Y-91710000D01*
X58361928Y-91710000D01*
X58361928Y-93710000D01*
X58374188Y-93834482D01*
X58410498Y-93954180D01*
X58469463Y-94064494D01*
X58548815Y-94161185D01*
X58645506Y-94240537D01*
X58755820Y-94299502D01*
X58875518Y-94335812D01*
X59000000Y-94348072D01*
X61000000Y-94348072D01*
X61124482Y-94335812D01*
X61244180Y-94299502D01*
X61354494Y-94240537D01*
X61451185Y-94161185D01*
X61530537Y-94064494D01*
X61589502Y-93954180D01*
X61625812Y-93834482D01*
X61638072Y-93710000D01*
X61638072Y-92484947D01*
X84880000Y-92484947D01*
X84880000Y-92935053D01*
X84967811Y-93376510D01*
X85140059Y-93792353D01*
X85390125Y-94166603D01*
X85708397Y-94484875D01*
X86082647Y-94734941D01*
X86498490Y-94907189D01*
X86939947Y-94995000D01*
X87390053Y-94995000D01*
X87831510Y-94907189D01*
X88247353Y-94734941D01*
X88621603Y-94484875D01*
X88939875Y-94166603D01*
X89189941Y-93792353D01*
X89362189Y-93376510D01*
X89450000Y-92935053D01*
X89450000Y-92484947D01*
X89362189Y-92043490D01*
X89189941Y-91627647D01*
X88939875Y-91253397D01*
X88621603Y-90935125D01*
X88247353Y-90685059D01*
X87831510Y-90512811D01*
X87390053Y-90425000D01*
X86939947Y-90425000D01*
X86498490Y-90512811D01*
X86082647Y-90685059D01*
X85708397Y-90935125D01*
X85390125Y-91253397D01*
X85140059Y-91627647D01*
X84967811Y-92043490D01*
X84880000Y-92484947D01*
X61638072Y-92484947D01*
X61638072Y-91710000D01*
X61625812Y-91585518D01*
X61589502Y-91465820D01*
X61530537Y-91355506D01*
X61451185Y-91258815D01*
X61354494Y-91179463D01*
X61244180Y-91120498D01*
X61124482Y-91084188D01*
X61000000Y-91071928D01*
X59000000Y-91071928D01*
X58875518Y-91084188D01*
X58755820Y-91120498D01*
X58645506Y-91179463D01*
X58548815Y-91258815D01*
X58469463Y-91355506D01*
X58410498Y-91465820D01*
X58374188Y-91585518D01*
X58361928Y-91710000D01*
X50660000Y-91710000D01*
X50660000Y-82276740D01*
X117641000Y-82276740D01*
X117641000Y-82569260D01*
X117698068Y-82856158D01*
X117810010Y-83126411D01*
X117972525Y-83369632D01*
X118116000Y-83513107D01*
X118116001Y-83872892D01*
X117972525Y-84016368D01*
X117810010Y-84259589D01*
X117698068Y-84529842D01*
X117641000Y-84816740D01*
X117641000Y-85109260D01*
X117698068Y-85396158D01*
X117810010Y-85666411D01*
X117972525Y-85909632D01*
X118179368Y-86116475D01*
X118353760Y-86233000D01*
X118179368Y-86349525D01*
X117972525Y-86556368D01*
X117810010Y-86799589D01*
X117698068Y-87069842D01*
X117641000Y-87356740D01*
X117641000Y-87649260D01*
X117698068Y-87936158D01*
X117810010Y-88206411D01*
X117972525Y-88449632D01*
X118179368Y-88656475D01*
X118353760Y-88773000D01*
X118179368Y-88889525D01*
X117972525Y-89096368D01*
X117810010Y-89339589D01*
X117698068Y-89609842D01*
X117641000Y-89896740D01*
X117641000Y-90189260D01*
X117698068Y-90476158D01*
X117810010Y-90746411D01*
X117972525Y-90989632D01*
X118179368Y-91196475D01*
X118353760Y-91313000D01*
X118179368Y-91429525D01*
X117972525Y-91636368D01*
X117810010Y-91879589D01*
X117698068Y-92149842D01*
X117641000Y-92436740D01*
X117641000Y-92729260D01*
X117698068Y-93016158D01*
X117810010Y-93286411D01*
X117972525Y-93529632D01*
X118116000Y-93673107D01*
X118116001Y-94032892D01*
X117972525Y-94176368D01*
X117810010Y-94419589D01*
X117698068Y-94689842D01*
X117641000Y-94976740D01*
X117641000Y-95269260D01*
X117698068Y-95556158D01*
X117810010Y-95826411D01*
X117972525Y-96069632D01*
X118179368Y-96276475D01*
X118422589Y-96438990D01*
X118692842Y-96550932D01*
X118979740Y-96608000D01*
X119272260Y-96608000D01*
X119559158Y-96550932D01*
X119829411Y-96438990D01*
X120072632Y-96276475D01*
X120279475Y-96069632D01*
X120396000Y-95895240D01*
X120512525Y-96069632D01*
X120719368Y-96276475D01*
X120962589Y-96438990D01*
X121232842Y-96550932D01*
X121519740Y-96608000D01*
X121812260Y-96608000D01*
X122099158Y-96550932D01*
X122369411Y-96438990D01*
X122612632Y-96276475D01*
X122819475Y-96069632D01*
X122936000Y-95895240D01*
X123052525Y-96069632D01*
X123259368Y-96276475D01*
X123502589Y-96438990D01*
X123772842Y-96550932D01*
X124059740Y-96608000D01*
X124352260Y-96608000D01*
X124639158Y-96550932D01*
X124909411Y-96438990D01*
X125152632Y-96276475D01*
X125359475Y-96069632D01*
X125476000Y-95895240D01*
X125592525Y-96069632D01*
X125799368Y-96276475D01*
X126042589Y-96438990D01*
X126312842Y-96550932D01*
X126599740Y-96608000D01*
X126892260Y-96608000D01*
X127179158Y-96550932D01*
X127449411Y-96438990D01*
X127692632Y-96276475D01*
X127899475Y-96069632D01*
X128016000Y-95895240D01*
X128132525Y-96069632D01*
X128339368Y-96276475D01*
X128582589Y-96438990D01*
X128852842Y-96550932D01*
X129139740Y-96608000D01*
X129432260Y-96608000D01*
X129719158Y-96550932D01*
X129989411Y-96438990D01*
X130232632Y-96276475D01*
X130439475Y-96069632D01*
X130601990Y-95826411D01*
X130713932Y-95556158D01*
X130771000Y-95269260D01*
X130771000Y-94976740D01*
X130713932Y-94689842D01*
X130601990Y-94419589D01*
X130439475Y-94176368D01*
X130296000Y-94032893D01*
X130296000Y-93673107D01*
X130439475Y-93529632D01*
X130601990Y-93286411D01*
X130713932Y-93016158D01*
X130741811Y-92876000D01*
X132496928Y-92876000D01*
X132496928Y-94576000D01*
X132509188Y-94700482D01*
X132545498Y-94820180D01*
X132604463Y-94930494D01*
X132683815Y-95027185D01*
X132780506Y-95106537D01*
X132890820Y-95165502D01*
X133010518Y-95201812D01*
X133135000Y-95214072D01*
X134835000Y-95214072D01*
X134959482Y-95201812D01*
X135079180Y-95165502D01*
X135189494Y-95106537D01*
X135286185Y-95027185D01*
X135365537Y-94930494D01*
X135424502Y-94820180D01*
X135446513Y-94747620D01*
X135578368Y-94879475D01*
X135821589Y-95041990D01*
X136091842Y-95153932D01*
X136378740Y-95211000D01*
X136671260Y-95211000D01*
X136958158Y-95153932D01*
X137228411Y-95041990D01*
X137471632Y-94879475D01*
X137678475Y-94672632D01*
X137840990Y-94429411D01*
X137952932Y-94159158D01*
X138010000Y-93872260D01*
X138010000Y-93579740D01*
X137952932Y-93292842D01*
X137840990Y-93022589D01*
X137678475Y-92779368D01*
X137471632Y-92572525D01*
X137228411Y-92410010D01*
X136958158Y-92298068D01*
X136671260Y-92241000D01*
X136378740Y-92241000D01*
X136091842Y-92298068D01*
X135821589Y-92410010D01*
X135578368Y-92572525D01*
X135446513Y-92704380D01*
X135424502Y-92631820D01*
X135365537Y-92521506D01*
X135286185Y-92424815D01*
X135189494Y-92345463D01*
X135079180Y-92286498D01*
X134959482Y-92250188D01*
X134835000Y-92237928D01*
X133135000Y-92237928D01*
X133010518Y-92250188D01*
X132890820Y-92286498D01*
X132780506Y-92345463D01*
X132683815Y-92424815D01*
X132604463Y-92521506D01*
X132545498Y-92631820D01*
X132509188Y-92751518D01*
X132496928Y-92876000D01*
X130741811Y-92876000D01*
X130771000Y-92729260D01*
X130771000Y-92436740D01*
X130713932Y-92149842D01*
X130601990Y-91879589D01*
X130439475Y-91636368D01*
X130232632Y-91429525D01*
X130058240Y-91313000D01*
X130232632Y-91196475D01*
X130439475Y-90989632D01*
X130601990Y-90746411D01*
X130713932Y-90476158D01*
X130771000Y-90189260D01*
X130771000Y-89896740D01*
X130713932Y-89609842D01*
X130601990Y-89339589D01*
X130455244Y-89119967D01*
X130699000Y-89119967D01*
X130699000Y-89442033D01*
X130761832Y-89757912D01*
X130885082Y-90055463D01*
X131064013Y-90323252D01*
X131291748Y-90550987D01*
X131559537Y-90729918D01*
X131857088Y-90853168D01*
X132172967Y-90916000D01*
X132495033Y-90916000D01*
X132810912Y-90853168D01*
X133108463Y-90729918D01*
X133376252Y-90550987D01*
X133603987Y-90323252D01*
X133782918Y-90055463D01*
X133906168Y-89757912D01*
X133969000Y-89442033D01*
X133969000Y-89119967D01*
X135199000Y-89119967D01*
X135199000Y-89442033D01*
X135261832Y-89757912D01*
X135385082Y-90055463D01*
X135564013Y-90323252D01*
X135791748Y-90550987D01*
X136059537Y-90729918D01*
X136357088Y-90853168D01*
X136672967Y-90916000D01*
X136995033Y-90916000D01*
X137310912Y-90853168D01*
X137608463Y-90729918D01*
X137876252Y-90550987D01*
X138103987Y-90323252D01*
X138282918Y-90055463D01*
X138406168Y-89757912D01*
X138469000Y-89442033D01*
X138469000Y-89119967D01*
X138406168Y-88804088D01*
X138282918Y-88506537D01*
X138103987Y-88238748D01*
X137876252Y-88011013D01*
X137608463Y-87832082D01*
X137310912Y-87708832D01*
X136995033Y-87646000D01*
X136672967Y-87646000D01*
X136357088Y-87708832D01*
X136059537Y-87832082D01*
X135791748Y-88011013D01*
X135564013Y-88238748D01*
X135385082Y-88506537D01*
X135261832Y-88804088D01*
X135199000Y-89119967D01*
X133969000Y-89119967D01*
X133906168Y-88804088D01*
X133782918Y-88506537D01*
X133603987Y-88238748D01*
X133376252Y-88011013D01*
X133108463Y-87832082D01*
X132810912Y-87708832D01*
X132495033Y-87646000D01*
X132172967Y-87646000D01*
X131857088Y-87708832D01*
X131559537Y-87832082D01*
X131291748Y-88011013D01*
X131064013Y-88238748D01*
X130885082Y-88506537D01*
X130761832Y-88804088D01*
X130699000Y-89119967D01*
X130455244Y-89119967D01*
X130439475Y-89096368D01*
X130232632Y-88889525D01*
X130058240Y-88773000D01*
X130232632Y-88656475D01*
X130439475Y-88449632D01*
X130601990Y-88206411D01*
X130713932Y-87936158D01*
X130771000Y-87649260D01*
X130771000Y-87356740D01*
X130713932Y-87069842D01*
X130601990Y-86799589D01*
X130439475Y-86556368D01*
X130232632Y-86349525D01*
X130058240Y-86233000D01*
X130232632Y-86116475D01*
X130439475Y-85909632D01*
X130601990Y-85666411D01*
X130713932Y-85396158D01*
X130771000Y-85109260D01*
X130771000Y-84816740D01*
X130713932Y-84529842D01*
X130601990Y-84259589D01*
X130439475Y-84016368D01*
X130296000Y-83872893D01*
X130296000Y-83513107D01*
X130439475Y-83369632D01*
X130601990Y-83126411D01*
X130699000Y-82892207D01*
X130699000Y-82942033D01*
X130761832Y-83257912D01*
X130885082Y-83555463D01*
X131064013Y-83823252D01*
X131291748Y-84050987D01*
X131559537Y-84229918D01*
X131857088Y-84353168D01*
X132172967Y-84416000D01*
X132495033Y-84416000D01*
X132810912Y-84353168D01*
X133108463Y-84229918D01*
X133376252Y-84050987D01*
X133603987Y-83823252D01*
X133782918Y-83555463D01*
X133906168Y-83257912D01*
X133969000Y-82942033D01*
X133969000Y-82619967D01*
X135199000Y-82619967D01*
X135199000Y-82942033D01*
X135261832Y-83257912D01*
X135385082Y-83555463D01*
X135564013Y-83823252D01*
X135791748Y-84050987D01*
X136059537Y-84229918D01*
X136357088Y-84353168D01*
X136672967Y-84416000D01*
X136995033Y-84416000D01*
X137310912Y-84353168D01*
X137608463Y-84229918D01*
X137876252Y-84050987D01*
X138103987Y-83823252D01*
X138282918Y-83555463D01*
X138406168Y-83257912D01*
X138469000Y-82942033D01*
X138469000Y-82619967D01*
X138406168Y-82304088D01*
X138282918Y-82006537D01*
X138103987Y-81738748D01*
X137876252Y-81511013D01*
X137608463Y-81332082D01*
X137310912Y-81208832D01*
X136995033Y-81146000D01*
X136672967Y-81146000D01*
X136357088Y-81208832D01*
X136059537Y-81332082D01*
X135791748Y-81511013D01*
X135564013Y-81738748D01*
X135385082Y-82006537D01*
X135261832Y-82304088D01*
X135199000Y-82619967D01*
X133969000Y-82619967D01*
X133906168Y-82304088D01*
X133782918Y-82006537D01*
X133603987Y-81738748D01*
X133376252Y-81511013D01*
X133108463Y-81332082D01*
X132810912Y-81208832D01*
X132495033Y-81146000D01*
X132172967Y-81146000D01*
X131857088Y-81208832D01*
X131559537Y-81332082D01*
X131291748Y-81511013D01*
X131064013Y-81738748D01*
X130885082Y-82006537D01*
X130771000Y-82281955D01*
X130771000Y-82276740D01*
X130713932Y-81989842D01*
X130601990Y-81719589D01*
X130439475Y-81476368D01*
X130232632Y-81269525D01*
X129989411Y-81107010D01*
X129719158Y-80995068D01*
X129432260Y-80938000D01*
X129139740Y-80938000D01*
X128852842Y-80995068D01*
X128582589Y-81107010D01*
X128339368Y-81269525D01*
X128132525Y-81476368D01*
X128016000Y-81650760D01*
X127899475Y-81476368D01*
X127692632Y-81269525D01*
X127449411Y-81107010D01*
X127179158Y-80995068D01*
X126892260Y-80938000D01*
X126599740Y-80938000D01*
X126312842Y-80995068D01*
X126042589Y-81107010D01*
X125799368Y-81269525D01*
X125592525Y-81476368D01*
X125476000Y-81650760D01*
X125359475Y-81476368D01*
X125152632Y-81269525D01*
X124909411Y-81107010D01*
X124639158Y-80995068D01*
X124352260Y-80938000D01*
X124059740Y-80938000D01*
X123772842Y-80995068D01*
X123502589Y-81107010D01*
X123259368Y-81269525D01*
X123052525Y-81476368D01*
X122936000Y-81650760D01*
X122819475Y-81476368D01*
X122612632Y-81269525D01*
X122369411Y-81107010D01*
X122099158Y-80995068D01*
X121812260Y-80938000D01*
X121519740Y-80938000D01*
X121232842Y-80995068D01*
X120962589Y-81107010D01*
X120719368Y-81269525D01*
X120512525Y-81476368D01*
X120396000Y-81650760D01*
X120279475Y-81476368D01*
X120072632Y-81269525D01*
X119829411Y-81107010D01*
X119559158Y-80995068D01*
X119272260Y-80938000D01*
X118979740Y-80938000D01*
X118692842Y-80995068D01*
X118422589Y-81107010D01*
X118179368Y-81269525D01*
X117972525Y-81476368D01*
X117810010Y-81719589D01*
X117698068Y-81989842D01*
X117641000Y-82276740D01*
X50660000Y-82276740D01*
X50660000Y-77040000D01*
X52381928Y-77040000D01*
X52381928Y-80540000D01*
X52385000Y-80571192D01*
X52385000Y-80576260D01*
X52385989Y-80581231D01*
X52394188Y-80664482D01*
X52418473Y-80744539D01*
X52442068Y-80863158D01*
X52554010Y-81133411D01*
X52716525Y-81376632D01*
X52923368Y-81583475D01*
X53166589Y-81745990D01*
X53436842Y-81857932D01*
X53723740Y-81915000D01*
X54016260Y-81915000D01*
X54303158Y-81857932D01*
X54573411Y-81745990D01*
X54816632Y-81583475D01*
X55023475Y-81376632D01*
X55140000Y-81202240D01*
X55256525Y-81376632D01*
X55463368Y-81583475D01*
X55706589Y-81745990D01*
X55976842Y-81857932D01*
X56263740Y-81915000D01*
X56556260Y-81915000D01*
X56843158Y-81857932D01*
X57113411Y-81745990D01*
X57356632Y-81583475D01*
X57563475Y-81376632D01*
X57685195Y-81194466D01*
X57754822Y-81311355D01*
X57949731Y-81527588D01*
X58183080Y-81701641D01*
X58445901Y-81826825D01*
X58593110Y-81871476D01*
X58823000Y-81750155D01*
X58823000Y-76563750D01*
X59077000Y-76563750D01*
X59077000Y-81750155D01*
X59306890Y-81871476D01*
X59454099Y-81826825D01*
X59716920Y-81701641D01*
X59950269Y-81527588D01*
X60145178Y-81311355D01*
X60214805Y-81194466D01*
X60336525Y-81376632D01*
X60543368Y-81583475D01*
X60786589Y-81745990D01*
X61056842Y-81857932D01*
X61343740Y-81915000D01*
X61636260Y-81915000D01*
X61923158Y-81857932D01*
X62193411Y-81745990D01*
X62436632Y-81583475D01*
X62643475Y-81376632D01*
X62760000Y-81202240D01*
X62876525Y-81376632D01*
X63083368Y-81583475D01*
X63326589Y-81745990D01*
X63596842Y-81857932D01*
X63883740Y-81915000D01*
X64176260Y-81915000D01*
X64463158Y-81857932D01*
X64733411Y-81745990D01*
X64976632Y-81583475D01*
X65183475Y-81376632D01*
X65300000Y-81202240D01*
X65416525Y-81376632D01*
X65623368Y-81583475D01*
X65866589Y-81745990D01*
X66136842Y-81857932D01*
X66423740Y-81915000D01*
X66716260Y-81915000D01*
X67003158Y-81857932D01*
X67273411Y-81745990D01*
X67516632Y-81583475D01*
X67723475Y-81376632D01*
X67840000Y-81202240D01*
X67956525Y-81376632D01*
X68163368Y-81583475D01*
X68406589Y-81745990D01*
X68676842Y-81857932D01*
X68963740Y-81915000D01*
X69256260Y-81915000D01*
X69543158Y-81857932D01*
X69813411Y-81745990D01*
X70056632Y-81583475D01*
X70263475Y-81376632D01*
X70385195Y-81194466D01*
X70454822Y-81311355D01*
X70649731Y-81527588D01*
X70883080Y-81701641D01*
X71145901Y-81826825D01*
X71293110Y-81871476D01*
X71523000Y-81750155D01*
X71523000Y-76563750D01*
X71777000Y-76563750D01*
X71777000Y-81750155D01*
X72006890Y-81871476D01*
X72154099Y-81826825D01*
X72416920Y-81701641D01*
X72650269Y-81527588D01*
X72845178Y-81311355D01*
X72914805Y-81194466D01*
X73036525Y-81376632D01*
X73243368Y-81583475D01*
X73486589Y-81745990D01*
X73756842Y-81857932D01*
X74043740Y-81915000D01*
X74336260Y-81915000D01*
X74623158Y-81857932D01*
X74893411Y-81745990D01*
X75136632Y-81583475D01*
X75343475Y-81376632D01*
X75460000Y-81202240D01*
X75576525Y-81376632D01*
X75783368Y-81583475D01*
X76026589Y-81745990D01*
X76296842Y-81857932D01*
X76583740Y-81915000D01*
X76876260Y-81915000D01*
X77163158Y-81857932D01*
X77433411Y-81745990D01*
X77676632Y-81583475D01*
X77883475Y-81376632D01*
X78000000Y-81202240D01*
X78116525Y-81376632D01*
X78323368Y-81583475D01*
X78566589Y-81745990D01*
X78836842Y-81857932D01*
X79123740Y-81915000D01*
X79416260Y-81915000D01*
X79703158Y-81857932D01*
X79973411Y-81745990D01*
X80216632Y-81583475D01*
X80423475Y-81376632D01*
X80540000Y-81202240D01*
X80656525Y-81376632D01*
X80863368Y-81583475D01*
X81106589Y-81745990D01*
X81376842Y-81857932D01*
X81663740Y-81915000D01*
X81956260Y-81915000D01*
X82243158Y-81857932D01*
X82513411Y-81745990D01*
X82756632Y-81583475D01*
X82963475Y-81376632D01*
X83085195Y-81194466D01*
X83154822Y-81311355D01*
X83349731Y-81527588D01*
X83583080Y-81701641D01*
X83845901Y-81826825D01*
X83993110Y-81871476D01*
X84223000Y-81750155D01*
X84223000Y-76563750D01*
X84477000Y-76563750D01*
X84477000Y-81750155D01*
X84706890Y-81871476D01*
X84854099Y-81826825D01*
X85116920Y-81701641D01*
X85350269Y-81527588D01*
X85545178Y-81311355D01*
X85614805Y-81194466D01*
X85736525Y-81376632D01*
X85943368Y-81583475D01*
X86186589Y-81745990D01*
X86456842Y-81857932D01*
X86743740Y-81915000D01*
X87036260Y-81915000D01*
X87323158Y-81857932D01*
X87593411Y-81745990D01*
X87836632Y-81583475D01*
X88043475Y-81376632D01*
X88160000Y-81202240D01*
X88276525Y-81376632D01*
X88483368Y-81583475D01*
X88726589Y-81745990D01*
X88996842Y-81857932D01*
X89283740Y-81915000D01*
X89576260Y-81915000D01*
X89863158Y-81857932D01*
X90133411Y-81745990D01*
X90376632Y-81583475D01*
X90583475Y-81376632D01*
X90700000Y-81202240D01*
X90816525Y-81376632D01*
X91023368Y-81583475D01*
X91266589Y-81745990D01*
X91536842Y-81857932D01*
X91823740Y-81915000D01*
X92116260Y-81915000D01*
X92403158Y-81857932D01*
X92673411Y-81745990D01*
X92916632Y-81583475D01*
X93123475Y-81376632D01*
X93240000Y-81202240D01*
X93356525Y-81376632D01*
X93563368Y-81583475D01*
X93806589Y-81745990D01*
X94076842Y-81857932D01*
X94363740Y-81915000D01*
X94656260Y-81915000D01*
X94943158Y-81857932D01*
X95213411Y-81745990D01*
X95456632Y-81583475D01*
X95663475Y-81376632D01*
X95785195Y-81194466D01*
X95854822Y-81311355D01*
X96049731Y-81527588D01*
X96283080Y-81701641D01*
X96545901Y-81826825D01*
X96693110Y-81871476D01*
X96923000Y-81750155D01*
X96923000Y-76563750D01*
X97177000Y-76563750D01*
X97177000Y-81750155D01*
X97406890Y-81871476D01*
X97554099Y-81826825D01*
X97816920Y-81701641D01*
X98050269Y-81527588D01*
X98245178Y-81311355D01*
X98314805Y-81194466D01*
X98436525Y-81376632D01*
X98643368Y-81583475D01*
X98886589Y-81745990D01*
X99156842Y-81857932D01*
X99443740Y-81915000D01*
X99736260Y-81915000D01*
X100023158Y-81857932D01*
X100293411Y-81745990D01*
X100536632Y-81583475D01*
X100743475Y-81376632D01*
X100860000Y-81202240D01*
X100976525Y-81376632D01*
X101183368Y-81583475D01*
X101426589Y-81745990D01*
X101696842Y-81857932D01*
X101983740Y-81915000D01*
X102276260Y-81915000D01*
X102563158Y-81857932D01*
X102833411Y-81745990D01*
X103076632Y-81583475D01*
X103283475Y-81376632D01*
X103445990Y-81133411D01*
X103557932Y-80863158D01*
X103581527Y-80744539D01*
X103605812Y-80664482D01*
X103614011Y-80581231D01*
X103615000Y-80576260D01*
X103615000Y-80571192D01*
X103618072Y-80540000D01*
X103618072Y-77973514D01*
X105345000Y-77973514D01*
X105345000Y-78236486D01*
X105396304Y-78494405D01*
X105496939Y-78737359D01*
X105643038Y-78956013D01*
X105828987Y-79141962D01*
X106047641Y-79288061D01*
X106290595Y-79388696D01*
X106548514Y-79440000D01*
X106811486Y-79440000D01*
X107069405Y-79388696D01*
X107312359Y-79288061D01*
X107531013Y-79141962D01*
X107716962Y-78956013D01*
X107863061Y-78737359D01*
X107950000Y-78527470D01*
X108036939Y-78737359D01*
X108183038Y-78956013D01*
X108368987Y-79141962D01*
X108587641Y-79288061D01*
X108830595Y-79388696D01*
X109088514Y-79440000D01*
X109351486Y-79440000D01*
X109609405Y-79388696D01*
X109852359Y-79288061D01*
X110071013Y-79141962D01*
X110256962Y-78956013D01*
X110403061Y-78737359D01*
X110503696Y-78494405D01*
X110555000Y-78236486D01*
X110555000Y-77973514D01*
X110503696Y-77715595D01*
X110403061Y-77472641D01*
X110256962Y-77253987D01*
X110071013Y-77068038D01*
X109852359Y-76921939D01*
X109609405Y-76821304D01*
X109351486Y-76770000D01*
X109088514Y-76770000D01*
X108830595Y-76821304D01*
X108587641Y-76921939D01*
X108368987Y-77068038D01*
X108183038Y-77253987D01*
X108036939Y-77472641D01*
X107950000Y-77682530D01*
X107863061Y-77472641D01*
X107716962Y-77253987D01*
X107531013Y-77068038D01*
X107312359Y-76921939D01*
X107069405Y-76821304D01*
X106811486Y-76770000D01*
X106548514Y-76770000D01*
X106290595Y-76821304D01*
X106047641Y-76921939D01*
X105828987Y-77068038D01*
X105643038Y-77253987D01*
X105496939Y-77472641D01*
X105396304Y-77715595D01*
X105345000Y-77973514D01*
X103618072Y-77973514D01*
X103618072Y-77040000D01*
X103605812Y-76915518D01*
X103569502Y-76795820D01*
X103510537Y-76685506D01*
X103431185Y-76588815D01*
X103334494Y-76509463D01*
X103224180Y-76450498D01*
X103104482Y-76414188D01*
X102980000Y-76401928D01*
X101280000Y-76401928D01*
X101155518Y-76414188D01*
X101035820Y-76450498D01*
X100925506Y-76509463D01*
X100860000Y-76563222D01*
X100794494Y-76509463D01*
X100684180Y-76450498D01*
X100564482Y-76414188D01*
X100440000Y-76401928D01*
X98740000Y-76401928D01*
X98615518Y-76414188D01*
X98495820Y-76450498D01*
X98385506Y-76509463D01*
X98320000Y-76563222D01*
X98254494Y-76509463D01*
X98144180Y-76450498D01*
X98024482Y-76414188D01*
X97900000Y-76401928D01*
X97335750Y-76405000D01*
X97177000Y-76563750D01*
X96923000Y-76563750D01*
X96764250Y-76405000D01*
X96200000Y-76401928D01*
X96075518Y-76414188D01*
X95955820Y-76450498D01*
X95845506Y-76509463D01*
X95780000Y-76563222D01*
X95714494Y-76509463D01*
X95604180Y-76450498D01*
X95484482Y-76414188D01*
X95360000Y-76401928D01*
X93660000Y-76401928D01*
X93535518Y-76414188D01*
X93415820Y-76450498D01*
X93305506Y-76509463D01*
X93240000Y-76563222D01*
X93174494Y-76509463D01*
X93064180Y-76450498D01*
X92944482Y-76414188D01*
X92820000Y-76401928D01*
X91120000Y-76401928D01*
X90995518Y-76414188D01*
X90875820Y-76450498D01*
X90765506Y-76509463D01*
X90700000Y-76563222D01*
X90634494Y-76509463D01*
X90524180Y-76450498D01*
X90404482Y-76414188D01*
X90280000Y-76401928D01*
X88580000Y-76401928D01*
X88455518Y-76414188D01*
X88335820Y-76450498D01*
X88225506Y-76509463D01*
X88160000Y-76563222D01*
X88094494Y-76509463D01*
X87984180Y-76450498D01*
X87864482Y-76414188D01*
X87740000Y-76401928D01*
X86040000Y-76401928D01*
X85915518Y-76414188D01*
X85795820Y-76450498D01*
X85685506Y-76509463D01*
X85620000Y-76563222D01*
X85554494Y-76509463D01*
X85444180Y-76450498D01*
X85324482Y-76414188D01*
X85200000Y-76401928D01*
X84635750Y-76405000D01*
X84477000Y-76563750D01*
X84223000Y-76563750D01*
X84064250Y-76405000D01*
X83500000Y-76401928D01*
X83375518Y-76414188D01*
X83255820Y-76450498D01*
X83145506Y-76509463D01*
X83080000Y-76563222D01*
X83014494Y-76509463D01*
X82904180Y-76450498D01*
X82784482Y-76414188D01*
X82660000Y-76401928D01*
X80960000Y-76401928D01*
X80835518Y-76414188D01*
X80715820Y-76450498D01*
X80605506Y-76509463D01*
X80540000Y-76563222D01*
X80474494Y-76509463D01*
X80364180Y-76450498D01*
X80244482Y-76414188D01*
X80120000Y-76401928D01*
X78420000Y-76401928D01*
X78295518Y-76414188D01*
X78175820Y-76450498D01*
X78065506Y-76509463D01*
X78000000Y-76563222D01*
X77934494Y-76509463D01*
X77824180Y-76450498D01*
X77704482Y-76414188D01*
X77580000Y-76401928D01*
X75880000Y-76401928D01*
X75755518Y-76414188D01*
X75635820Y-76450498D01*
X75525506Y-76509463D01*
X75460000Y-76563222D01*
X75394494Y-76509463D01*
X75284180Y-76450498D01*
X75164482Y-76414188D01*
X75040000Y-76401928D01*
X73340000Y-76401928D01*
X73215518Y-76414188D01*
X73095820Y-76450498D01*
X72985506Y-76509463D01*
X72920000Y-76563222D01*
X72854494Y-76509463D01*
X72744180Y-76450498D01*
X72624482Y-76414188D01*
X72500000Y-76401928D01*
X71935750Y-76405000D01*
X71777000Y-76563750D01*
X71523000Y-76563750D01*
X71364250Y-76405000D01*
X70800000Y-76401928D01*
X70675518Y-76414188D01*
X70555820Y-76450498D01*
X70445506Y-76509463D01*
X70380000Y-76563222D01*
X70314494Y-76509463D01*
X70204180Y-76450498D01*
X70084482Y-76414188D01*
X69960000Y-76401928D01*
X68260000Y-76401928D01*
X68135518Y-76414188D01*
X68015820Y-76450498D01*
X67905506Y-76509463D01*
X67840000Y-76563222D01*
X67774494Y-76509463D01*
X67664180Y-76450498D01*
X67544482Y-76414188D01*
X67420000Y-76401928D01*
X65720000Y-76401928D01*
X65595518Y-76414188D01*
X65475820Y-76450498D01*
X65365506Y-76509463D01*
X65300000Y-76563222D01*
X65234494Y-76509463D01*
X65124180Y-76450498D01*
X65004482Y-76414188D01*
X64880000Y-76401928D01*
X63180000Y-76401928D01*
X63055518Y-76414188D01*
X62935820Y-76450498D01*
X62825506Y-76509463D01*
X62760000Y-76563222D01*
X62694494Y-76509463D01*
X62584180Y-76450498D01*
X62464482Y-76414188D01*
X62340000Y-76401928D01*
X60640000Y-76401928D01*
X60515518Y-76414188D01*
X60395820Y-76450498D01*
X60285506Y-76509463D01*
X60220000Y-76563222D01*
X60154494Y-76509463D01*
X60044180Y-76450498D01*
X59924482Y-76414188D01*
X59800000Y-76401928D01*
X59235750Y-76405000D01*
X59077000Y-76563750D01*
X58823000Y-76563750D01*
X58664250Y-76405000D01*
X58100000Y-76401928D01*
X57975518Y-76414188D01*
X57855820Y-76450498D01*
X57745506Y-76509463D01*
X57680000Y-76563222D01*
X57614494Y-76509463D01*
X57504180Y-76450498D01*
X57384482Y-76414188D01*
X57260000Y-76401928D01*
X55560000Y-76401928D01*
X55435518Y-76414188D01*
X55315820Y-76450498D01*
X55205506Y-76509463D01*
X55140000Y-76563222D01*
X55074494Y-76509463D01*
X54964180Y-76450498D01*
X54844482Y-76414188D01*
X54720000Y-76401928D01*
X53020000Y-76401928D01*
X52895518Y-76414188D01*
X52775820Y-76450498D01*
X52665506Y-76509463D01*
X52568815Y-76588815D01*
X52489463Y-76685506D01*
X52430498Y-76795820D01*
X52394188Y-76915518D01*
X52381928Y-77040000D01*
X50660000Y-77040000D01*
X50660000Y-71573816D01*
X52465000Y-71573816D01*
X52465000Y-71876184D01*
X52523989Y-72172743D01*
X52639701Y-72452095D01*
X52807688Y-72703505D01*
X53021495Y-72917312D01*
X53272905Y-73085299D01*
X53552257Y-73201011D01*
X53848816Y-73260000D01*
X54151184Y-73260000D01*
X54447743Y-73201011D01*
X54727095Y-73085299D01*
X54978505Y-72917312D01*
X55192312Y-72703505D01*
X55360299Y-72452095D01*
X55476011Y-72172743D01*
X55535000Y-71876184D01*
X55535000Y-71573816D01*
X55478266Y-71288589D01*
X55645000Y-71288589D01*
X55645000Y-71561411D01*
X55698225Y-71828989D01*
X55802629Y-72081043D01*
X55954201Y-72307886D01*
X56147114Y-72500799D01*
X56373957Y-72652371D01*
X56626011Y-72756775D01*
X56893589Y-72810000D01*
X57166411Y-72810000D01*
X57433989Y-72756775D01*
X57686043Y-72652371D01*
X57912886Y-72500799D01*
X58105799Y-72307886D01*
X58257371Y-72081043D01*
X58361775Y-71828989D01*
X58415000Y-71561411D01*
X58415000Y-71288589D01*
X58361775Y-71021011D01*
X58257371Y-70768957D01*
X58105799Y-70542114D01*
X57912886Y-70349201D01*
X57686043Y-70197629D01*
X57433989Y-70093225D01*
X57166411Y-70040000D01*
X56893589Y-70040000D01*
X56626011Y-70093225D01*
X56373957Y-70197629D01*
X56147114Y-70349201D01*
X55954201Y-70542114D01*
X55802629Y-70768957D01*
X55698225Y-71021011D01*
X55645000Y-71288589D01*
X55478266Y-71288589D01*
X55476011Y-71277257D01*
X55360299Y-70997905D01*
X55192312Y-70746495D01*
X54978505Y-70532688D01*
X54727095Y-70364701D01*
X54447743Y-70248989D01*
X54151184Y-70190000D01*
X53848816Y-70190000D01*
X53552257Y-70248989D01*
X53272905Y-70364701D01*
X53021495Y-70532688D01*
X52807688Y-70746495D01*
X52639701Y-70997905D01*
X52523989Y-71277257D01*
X52465000Y-71573816D01*
X50660000Y-71573816D01*
X50660000Y-66123816D01*
X52465000Y-66123816D01*
X52465000Y-66426184D01*
X52523989Y-66722743D01*
X52639701Y-67002095D01*
X52807688Y-67253505D01*
X53021495Y-67467312D01*
X53272905Y-67635299D01*
X53552257Y-67751011D01*
X53848816Y-67810000D01*
X54151184Y-67810000D01*
X54447743Y-67751011D01*
X54727095Y-67635299D01*
X54978505Y-67467312D01*
X55192312Y-67253505D01*
X55360299Y-67002095D01*
X55476011Y-66722743D01*
X55532532Y-66438589D01*
X55645000Y-66438589D01*
X55645000Y-66711411D01*
X55698225Y-66978989D01*
X55802629Y-67231043D01*
X55954201Y-67457886D01*
X56147114Y-67650799D01*
X56373957Y-67802371D01*
X56626011Y-67906775D01*
X56893589Y-67960000D01*
X57166411Y-67960000D01*
X57433989Y-67906775D01*
X57686043Y-67802371D01*
X57912886Y-67650799D01*
X58105799Y-67457886D01*
X58257371Y-67231043D01*
X58361775Y-66978989D01*
X58415000Y-66711411D01*
X58415000Y-66438589D01*
X58361775Y-66171011D01*
X58257371Y-65918957D01*
X58105799Y-65692114D01*
X58023685Y-65610000D01*
X100411928Y-65610000D01*
X100411928Y-67310000D01*
X100424188Y-67434482D01*
X100460498Y-67554180D01*
X100519463Y-67664494D01*
X100573222Y-67730000D01*
X100519463Y-67795506D01*
X100460498Y-67905820D01*
X100424188Y-68025518D01*
X100411928Y-68150000D01*
X100411928Y-69850000D01*
X100424188Y-69974482D01*
X100460498Y-70094180D01*
X100519463Y-70204494D01*
X100573222Y-70270000D01*
X100519463Y-70335506D01*
X100460498Y-70445820D01*
X100424188Y-70565518D01*
X100411928Y-70690000D01*
X100411928Y-72390000D01*
X100424188Y-72514482D01*
X100460498Y-72634180D01*
X100519463Y-72744494D01*
X100598815Y-72841185D01*
X100695506Y-72920537D01*
X100805820Y-72979502D01*
X100925518Y-73015812D01*
X101050000Y-73028072D01*
X104550000Y-73028072D01*
X104674482Y-73015812D01*
X104794180Y-72979502D01*
X104904494Y-72920537D01*
X105001185Y-72841185D01*
X105080537Y-72744494D01*
X105139502Y-72634180D01*
X105175812Y-72514482D01*
X105188072Y-72390000D01*
X105188072Y-72116740D01*
X105195000Y-72116740D01*
X105195000Y-72409260D01*
X105252068Y-72696158D01*
X105364010Y-72966411D01*
X105526525Y-73209632D01*
X105733368Y-73416475D01*
X105976589Y-73578990D01*
X106246842Y-73690932D01*
X106533740Y-73748000D01*
X106826260Y-73748000D01*
X107113158Y-73690932D01*
X107383411Y-73578990D01*
X107626632Y-73416475D01*
X107758487Y-73284620D01*
X107780498Y-73357180D01*
X107839463Y-73467494D01*
X107918815Y-73564185D01*
X108015506Y-73643537D01*
X108125820Y-73702502D01*
X108245518Y-73738812D01*
X108370000Y-73751072D01*
X110070000Y-73751072D01*
X110194482Y-73738812D01*
X110314180Y-73702502D01*
X110424494Y-73643537D01*
X110521185Y-73564185D01*
X110600537Y-73467494D01*
X110659502Y-73357180D01*
X110695812Y-73237482D01*
X110708072Y-73113000D01*
X110708072Y-71413000D01*
X110695812Y-71288518D01*
X110659502Y-71168820D01*
X110600537Y-71058506D01*
X110521185Y-70961815D01*
X110424494Y-70882463D01*
X110314180Y-70823498D01*
X110194482Y-70787188D01*
X110070000Y-70774928D01*
X108370000Y-70774928D01*
X108245518Y-70787188D01*
X108125820Y-70823498D01*
X108015506Y-70882463D01*
X107918815Y-70961815D01*
X107839463Y-71058506D01*
X107780498Y-71168820D01*
X107758487Y-71241380D01*
X107626632Y-71109525D01*
X107383411Y-70947010D01*
X107113158Y-70835068D01*
X106826260Y-70778000D01*
X106533740Y-70778000D01*
X106246842Y-70835068D01*
X105976589Y-70947010D01*
X105733368Y-71109525D01*
X105526525Y-71316368D01*
X105364010Y-71559589D01*
X105252068Y-71829842D01*
X105195000Y-72116740D01*
X105188072Y-72116740D01*
X105188072Y-70690000D01*
X105175812Y-70565518D01*
X105139502Y-70445820D01*
X105080537Y-70335506D01*
X105026778Y-70270000D01*
X105080537Y-70204494D01*
X105139502Y-70094180D01*
X105175812Y-69974482D01*
X105188072Y-69850000D01*
X105188072Y-68150000D01*
X105175812Y-68025518D01*
X105139502Y-67905820D01*
X105080537Y-67795506D01*
X105026778Y-67730000D01*
X105080537Y-67664494D01*
X105139502Y-67554180D01*
X105175812Y-67434482D01*
X105188072Y-67310000D01*
X105188072Y-67178514D01*
X106615000Y-67178514D01*
X106615000Y-67441486D01*
X106666304Y-67699405D01*
X106766939Y-67942359D01*
X106913038Y-68161013D01*
X107098987Y-68346962D01*
X107317641Y-68493061D01*
X107560595Y-68593696D01*
X107818514Y-68645000D01*
X108081486Y-68645000D01*
X108339405Y-68593696D01*
X108582359Y-68493061D01*
X108801013Y-68346962D01*
X108986962Y-68161013D01*
X109133061Y-67942359D01*
X109233696Y-67699405D01*
X109285000Y-67441486D01*
X109285000Y-67178514D01*
X109233696Y-66920595D01*
X109133061Y-66677641D01*
X108986962Y-66458987D01*
X108801013Y-66273038D01*
X108582359Y-66126939D01*
X108368556Y-66038379D01*
X108531366Y-65978935D01*
X108632203Y-65925037D01*
X108691664Y-65691269D01*
X107950000Y-64949605D01*
X107208336Y-65691269D01*
X107267797Y-65925037D01*
X107506242Y-66035934D01*
X107525827Y-66040706D01*
X107317641Y-66126939D01*
X107098987Y-66273038D01*
X106913038Y-66458987D01*
X106766939Y-66677641D01*
X106666304Y-66920595D01*
X106615000Y-67178514D01*
X105188072Y-67178514D01*
X105188072Y-65610000D01*
X105175812Y-65485518D01*
X105139502Y-65365820D01*
X105080537Y-65255506D01*
X105001185Y-65158815D01*
X104904494Y-65079463D01*
X104794180Y-65020498D01*
X104674482Y-64984188D01*
X104550000Y-64971928D01*
X101050000Y-64971928D01*
X100925518Y-64984188D01*
X100805820Y-65020498D01*
X100695506Y-65079463D01*
X100598815Y-65158815D01*
X100519463Y-65255506D01*
X100460498Y-65365820D01*
X100424188Y-65485518D01*
X100411928Y-65610000D01*
X58023685Y-65610000D01*
X57912886Y-65499201D01*
X57686043Y-65347629D01*
X57433989Y-65243225D01*
X57166411Y-65190000D01*
X56893589Y-65190000D01*
X56626011Y-65243225D01*
X56373957Y-65347629D01*
X56147114Y-65499201D01*
X55954201Y-65692114D01*
X55802629Y-65918957D01*
X55698225Y-66171011D01*
X55645000Y-66438589D01*
X55532532Y-66438589D01*
X55535000Y-66426184D01*
X55535000Y-66123816D01*
X55476011Y-65827257D01*
X55360299Y-65547905D01*
X55192312Y-65296495D01*
X54978505Y-65082688D01*
X54727095Y-64914701D01*
X54557551Y-64844473D01*
X106610610Y-64844473D01*
X106650875Y-65104344D01*
X106741065Y-65351366D01*
X106794963Y-65452203D01*
X107028731Y-65511664D01*
X107770395Y-64770000D01*
X108129605Y-64770000D01*
X108871269Y-65511664D01*
X109105037Y-65452203D01*
X109138256Y-65380776D01*
X116342116Y-65380776D01*
X116342116Y-66619224D01*
X116518365Y-67845067D01*
X116867276Y-69033349D01*
X117381746Y-70159881D01*
X118051302Y-71201730D01*
X118862313Y-72137687D01*
X119798270Y-72948698D01*
X120840119Y-73618254D01*
X121966651Y-74132724D01*
X123154933Y-74481635D01*
X124380776Y-74657884D01*
X125619224Y-74657884D01*
X126845067Y-74481635D01*
X128033349Y-74132724D01*
X129159881Y-73618254D01*
X130201730Y-72948698D01*
X131137687Y-72137687D01*
X131948698Y-71201730D01*
X132618254Y-70159881D01*
X133132724Y-69033349D01*
X133481635Y-67845067D01*
X133657884Y-66619224D01*
X133657884Y-65380776D01*
X133481635Y-64154933D01*
X133132724Y-62966651D01*
X132618254Y-61840119D01*
X131948698Y-60798270D01*
X131137687Y-59862313D01*
X130201730Y-59051302D01*
X129159881Y-58381746D01*
X128033349Y-57867276D01*
X126845067Y-57518365D01*
X125619224Y-57342116D01*
X124380776Y-57342116D01*
X123154933Y-57518365D01*
X121966651Y-57867276D01*
X120840119Y-58381746D01*
X119798270Y-59051302D01*
X118862313Y-59862313D01*
X118051302Y-60798270D01*
X117381746Y-61840119D01*
X116867276Y-62966651D01*
X116518365Y-64154933D01*
X116342116Y-65380776D01*
X109138256Y-65380776D01*
X109215934Y-65213758D01*
X109278183Y-64958260D01*
X109289390Y-64695527D01*
X109249125Y-64435656D01*
X109158935Y-64188634D01*
X109105037Y-64087797D01*
X108871269Y-64028336D01*
X108129605Y-64770000D01*
X107770395Y-64770000D01*
X107028731Y-64028336D01*
X106794963Y-64087797D01*
X106684066Y-64326242D01*
X106621817Y-64581740D01*
X106610610Y-64844473D01*
X54557551Y-64844473D01*
X54447743Y-64798989D01*
X54151184Y-64740000D01*
X53848816Y-64740000D01*
X53552257Y-64798989D01*
X53272905Y-64914701D01*
X53021495Y-65082688D01*
X52807688Y-65296495D01*
X52639701Y-65547905D01*
X52523989Y-65827257D01*
X52465000Y-66123816D01*
X50660000Y-66123816D01*
X50660000Y-63848731D01*
X107208336Y-63848731D01*
X107950000Y-64590395D01*
X108691664Y-63848731D01*
X108632203Y-63614963D01*
X108393758Y-63504066D01*
X108138260Y-63441817D01*
X107875527Y-63430610D01*
X107615656Y-63470875D01*
X107368634Y-63561065D01*
X107267797Y-63614963D01*
X107208336Y-63848731D01*
X50660000Y-63848731D01*
X50660000Y-53779872D01*
X51765000Y-53779872D01*
X51765000Y-54220128D01*
X51850890Y-54651925D01*
X52019369Y-55058669D01*
X52263962Y-55424729D01*
X52575271Y-55736038D01*
X52941331Y-55980631D01*
X53348075Y-56149110D01*
X53396558Y-56158754D01*
X53166589Y-56254010D01*
X52923368Y-56416525D01*
X52716525Y-56623368D01*
X52554010Y-56866589D01*
X52442068Y-57136842D01*
X52418473Y-57255461D01*
X52394188Y-57335518D01*
X52385989Y-57418769D01*
X52385000Y-57423740D01*
X52385000Y-57428808D01*
X52381928Y-57460000D01*
X52381928Y-60960000D01*
X52394188Y-61084482D01*
X52430498Y-61204180D01*
X52489463Y-61314494D01*
X52568815Y-61411185D01*
X52665506Y-61490537D01*
X52775820Y-61549502D01*
X52895518Y-61585812D01*
X53020000Y-61598072D01*
X54720000Y-61598072D01*
X54844482Y-61585812D01*
X54964180Y-61549502D01*
X55074494Y-61490537D01*
X55140000Y-61436778D01*
X55205506Y-61490537D01*
X55315820Y-61549502D01*
X55435518Y-61585812D01*
X55560000Y-61598072D01*
X57260000Y-61598072D01*
X57384482Y-61585812D01*
X57504180Y-61549502D01*
X57614494Y-61490537D01*
X57680000Y-61436778D01*
X57745506Y-61490537D01*
X57855820Y-61549502D01*
X57975518Y-61585812D01*
X58100000Y-61598072D01*
X58664250Y-61595000D01*
X58823000Y-61436250D01*
X58823000Y-56249845D01*
X59077000Y-56249845D01*
X59077000Y-61436250D01*
X59235750Y-61595000D01*
X59800000Y-61598072D01*
X59924482Y-61585812D01*
X60044180Y-61549502D01*
X60154494Y-61490537D01*
X60220000Y-61436778D01*
X60285506Y-61490537D01*
X60395820Y-61549502D01*
X60515518Y-61585812D01*
X60640000Y-61598072D01*
X62340000Y-61598072D01*
X62464482Y-61585812D01*
X62584180Y-61549502D01*
X62694494Y-61490537D01*
X62760000Y-61436778D01*
X62825506Y-61490537D01*
X62935820Y-61549502D01*
X63055518Y-61585812D01*
X63180000Y-61598072D01*
X64880000Y-61598072D01*
X65004482Y-61585812D01*
X65124180Y-61549502D01*
X65234494Y-61490537D01*
X65300000Y-61436778D01*
X65365506Y-61490537D01*
X65475820Y-61549502D01*
X65595518Y-61585812D01*
X65720000Y-61598072D01*
X67420000Y-61598072D01*
X67544482Y-61585812D01*
X67664180Y-61549502D01*
X67774494Y-61490537D01*
X67840000Y-61436778D01*
X67905506Y-61490537D01*
X68015820Y-61549502D01*
X68135518Y-61585812D01*
X68260000Y-61598072D01*
X69960000Y-61598072D01*
X70084482Y-61585812D01*
X70204180Y-61549502D01*
X70314494Y-61490537D01*
X70380000Y-61436778D01*
X70445506Y-61490537D01*
X70555820Y-61549502D01*
X70675518Y-61585812D01*
X70800000Y-61598072D01*
X71364250Y-61595000D01*
X71523000Y-61436250D01*
X71523000Y-56249845D01*
X71777000Y-56249845D01*
X71777000Y-61436250D01*
X71935750Y-61595000D01*
X72500000Y-61598072D01*
X72624482Y-61585812D01*
X72744180Y-61549502D01*
X72854494Y-61490537D01*
X72920000Y-61436778D01*
X72985506Y-61490537D01*
X73095820Y-61549502D01*
X73215518Y-61585812D01*
X73340000Y-61598072D01*
X75040000Y-61598072D01*
X75164482Y-61585812D01*
X75284180Y-61549502D01*
X75394494Y-61490537D01*
X75460000Y-61436778D01*
X75525506Y-61490537D01*
X75635820Y-61549502D01*
X75755518Y-61585812D01*
X75880000Y-61598072D01*
X77580000Y-61598072D01*
X77704482Y-61585812D01*
X77824180Y-61549502D01*
X77934494Y-61490537D01*
X78000000Y-61436778D01*
X78065506Y-61490537D01*
X78175820Y-61549502D01*
X78295518Y-61585812D01*
X78420000Y-61598072D01*
X80120000Y-61598072D01*
X80244482Y-61585812D01*
X80364180Y-61549502D01*
X80474494Y-61490537D01*
X80540000Y-61436778D01*
X80605506Y-61490537D01*
X80715820Y-61549502D01*
X80835518Y-61585812D01*
X80960000Y-61598072D01*
X82660000Y-61598072D01*
X82784482Y-61585812D01*
X82904180Y-61549502D01*
X83014494Y-61490537D01*
X83080000Y-61436778D01*
X83145506Y-61490537D01*
X83255820Y-61549502D01*
X83375518Y-61585812D01*
X83500000Y-61598072D01*
X84064250Y-61595000D01*
X84223000Y-61436250D01*
X84223000Y-56249845D01*
X84477000Y-56249845D01*
X84477000Y-61436250D01*
X84635750Y-61595000D01*
X85200000Y-61598072D01*
X85324482Y-61585812D01*
X85444180Y-61549502D01*
X85554494Y-61490537D01*
X85620000Y-61436778D01*
X85685506Y-61490537D01*
X85795820Y-61549502D01*
X85915518Y-61585812D01*
X86040000Y-61598072D01*
X87740000Y-61598072D01*
X87864482Y-61585812D01*
X87984180Y-61549502D01*
X88094494Y-61490537D01*
X88160000Y-61436778D01*
X88225506Y-61490537D01*
X88335820Y-61549502D01*
X88455518Y-61585812D01*
X88580000Y-61598072D01*
X90280000Y-61598072D01*
X90404482Y-61585812D01*
X90524180Y-61549502D01*
X90634494Y-61490537D01*
X90700000Y-61436778D01*
X90765506Y-61490537D01*
X90875820Y-61549502D01*
X90995518Y-61585812D01*
X91120000Y-61598072D01*
X92820000Y-61598072D01*
X92944482Y-61585812D01*
X93064180Y-61549502D01*
X93174494Y-61490537D01*
X93240000Y-61436778D01*
X93305506Y-61490537D01*
X93415820Y-61549502D01*
X93535518Y-61585812D01*
X93660000Y-61598072D01*
X95360000Y-61598072D01*
X95484482Y-61585812D01*
X95604180Y-61549502D01*
X95714494Y-61490537D01*
X95780000Y-61436778D01*
X95845506Y-61490537D01*
X95955820Y-61549502D01*
X96075518Y-61585812D01*
X96200000Y-61598072D01*
X96764250Y-61595000D01*
X96923000Y-61436250D01*
X96923000Y-56249845D01*
X97177000Y-56249845D01*
X97177000Y-61436250D01*
X97335750Y-61595000D01*
X97900000Y-61598072D01*
X98024482Y-61585812D01*
X98144180Y-61549502D01*
X98254494Y-61490537D01*
X98320000Y-61436778D01*
X98385506Y-61490537D01*
X98495820Y-61549502D01*
X98615518Y-61585812D01*
X98740000Y-61598072D01*
X100440000Y-61598072D01*
X100564482Y-61585812D01*
X100684180Y-61549502D01*
X100794494Y-61490537D01*
X100860000Y-61436778D01*
X100925506Y-61490537D01*
X101035820Y-61549502D01*
X101155518Y-61585812D01*
X101280000Y-61598072D01*
X102980000Y-61598072D01*
X103104482Y-61585812D01*
X103224180Y-61549502D01*
X103334494Y-61490537D01*
X103431185Y-61411185D01*
X103510537Y-61314494D01*
X103569502Y-61204180D01*
X103605812Y-61084482D01*
X103618072Y-60960000D01*
X103618072Y-57815000D01*
X104856928Y-57815000D01*
X104869188Y-57939482D01*
X104905498Y-58059180D01*
X104964463Y-58169494D01*
X105043815Y-58266185D01*
X105140506Y-58345537D01*
X105250820Y-58404502D01*
X105370518Y-58440812D01*
X105495000Y-58453072D01*
X105759250Y-58450000D01*
X105918000Y-58291250D01*
X105918000Y-57042000D01*
X106172000Y-57042000D01*
X106172000Y-58291250D01*
X106330750Y-58450000D01*
X106595000Y-58453072D01*
X106719482Y-58440812D01*
X106839180Y-58404502D01*
X106949494Y-58345537D01*
X107046185Y-58266185D01*
X107125537Y-58169494D01*
X107184502Y-58059180D01*
X107220812Y-57939482D01*
X107233072Y-57815000D01*
X107230000Y-57200750D01*
X107071250Y-57042000D01*
X106172000Y-57042000D01*
X105918000Y-57042000D01*
X105018750Y-57042000D01*
X104860000Y-57200750D01*
X104856928Y-57815000D01*
X103618072Y-57815000D01*
X103618072Y-57460000D01*
X103615000Y-57428808D01*
X103615000Y-57423740D01*
X103614011Y-57418769D01*
X103605812Y-57335518D01*
X103581527Y-57255461D01*
X103557932Y-57136842D01*
X103445990Y-56866589D01*
X103283475Y-56623368D01*
X103076632Y-56416525D01*
X102833411Y-56254010D01*
X102563158Y-56142068D01*
X102276260Y-56085000D01*
X101983740Y-56085000D01*
X101696842Y-56142068D01*
X101426589Y-56254010D01*
X101183368Y-56416525D01*
X100976525Y-56623368D01*
X100860000Y-56797760D01*
X100743475Y-56623368D01*
X100536632Y-56416525D01*
X100293411Y-56254010D01*
X100023158Y-56142068D01*
X99736260Y-56085000D01*
X99443740Y-56085000D01*
X99156842Y-56142068D01*
X98886589Y-56254010D01*
X98643368Y-56416525D01*
X98436525Y-56623368D01*
X98314805Y-56805534D01*
X98245178Y-56688645D01*
X98050269Y-56472412D01*
X97816920Y-56298359D01*
X97554099Y-56173175D01*
X97406890Y-56128524D01*
X97177000Y-56249845D01*
X96923000Y-56249845D01*
X96693110Y-56128524D01*
X96545901Y-56173175D01*
X96283080Y-56298359D01*
X96049731Y-56472412D01*
X95854822Y-56688645D01*
X95785195Y-56805534D01*
X95663475Y-56623368D01*
X95456632Y-56416525D01*
X95213411Y-56254010D01*
X94943158Y-56142068D01*
X94656260Y-56085000D01*
X94363740Y-56085000D01*
X94076842Y-56142068D01*
X93806589Y-56254010D01*
X93563368Y-56416525D01*
X93356525Y-56623368D01*
X93240000Y-56797760D01*
X93123475Y-56623368D01*
X92916632Y-56416525D01*
X92673411Y-56254010D01*
X92403158Y-56142068D01*
X92116260Y-56085000D01*
X91823740Y-56085000D01*
X91536842Y-56142068D01*
X91266589Y-56254010D01*
X91023368Y-56416525D01*
X90816525Y-56623368D01*
X90700000Y-56797760D01*
X90583475Y-56623368D01*
X90376632Y-56416525D01*
X90133411Y-56254010D01*
X89863158Y-56142068D01*
X89576260Y-56085000D01*
X89283740Y-56085000D01*
X88996842Y-56142068D01*
X88726589Y-56254010D01*
X88483368Y-56416525D01*
X88276525Y-56623368D01*
X88160000Y-56797760D01*
X88043475Y-56623368D01*
X87836632Y-56416525D01*
X87593411Y-56254010D01*
X87323158Y-56142068D01*
X87036260Y-56085000D01*
X86743740Y-56085000D01*
X86456842Y-56142068D01*
X86186589Y-56254010D01*
X85943368Y-56416525D01*
X85736525Y-56623368D01*
X85614805Y-56805534D01*
X85545178Y-56688645D01*
X85350269Y-56472412D01*
X85116920Y-56298359D01*
X84854099Y-56173175D01*
X84706890Y-56128524D01*
X84477000Y-56249845D01*
X84223000Y-56249845D01*
X83993110Y-56128524D01*
X83845901Y-56173175D01*
X83583080Y-56298359D01*
X83349731Y-56472412D01*
X83154822Y-56688645D01*
X83085195Y-56805534D01*
X82963475Y-56623368D01*
X82756632Y-56416525D01*
X82513411Y-56254010D01*
X82243158Y-56142068D01*
X81956260Y-56085000D01*
X81663740Y-56085000D01*
X81376842Y-56142068D01*
X81106589Y-56254010D01*
X80863368Y-56416525D01*
X80656525Y-56623368D01*
X80540000Y-56797760D01*
X80423475Y-56623368D01*
X80216632Y-56416525D01*
X79973411Y-56254010D01*
X79703158Y-56142068D01*
X79416260Y-56085000D01*
X79123740Y-56085000D01*
X78836842Y-56142068D01*
X78566589Y-56254010D01*
X78323368Y-56416525D01*
X78116525Y-56623368D01*
X78000000Y-56797760D01*
X77883475Y-56623368D01*
X77676632Y-56416525D01*
X77433411Y-56254010D01*
X77163158Y-56142068D01*
X76876260Y-56085000D01*
X76583740Y-56085000D01*
X76296842Y-56142068D01*
X76026589Y-56254010D01*
X75783368Y-56416525D01*
X75576525Y-56623368D01*
X75460000Y-56797760D01*
X75343475Y-56623368D01*
X75136632Y-56416525D01*
X74893411Y-56254010D01*
X74623158Y-56142068D01*
X74336260Y-56085000D01*
X74043740Y-56085000D01*
X73756842Y-56142068D01*
X73486589Y-56254010D01*
X73243368Y-56416525D01*
X73036525Y-56623368D01*
X72914805Y-56805534D01*
X72845178Y-56688645D01*
X72650269Y-56472412D01*
X72416920Y-56298359D01*
X72154099Y-56173175D01*
X72006890Y-56128524D01*
X71777000Y-56249845D01*
X71523000Y-56249845D01*
X71293110Y-56128524D01*
X71145901Y-56173175D01*
X70883080Y-56298359D01*
X70649731Y-56472412D01*
X70454822Y-56688645D01*
X70385195Y-56805534D01*
X70263475Y-56623368D01*
X70056632Y-56416525D01*
X69813411Y-56254010D01*
X69543158Y-56142068D01*
X69256260Y-56085000D01*
X68963740Y-56085000D01*
X68676842Y-56142068D01*
X68406589Y-56254010D01*
X68163368Y-56416525D01*
X67956525Y-56623368D01*
X67840000Y-56797760D01*
X67723475Y-56623368D01*
X67516632Y-56416525D01*
X67273411Y-56254010D01*
X67003158Y-56142068D01*
X66716260Y-56085000D01*
X66423740Y-56085000D01*
X66136842Y-56142068D01*
X65866589Y-56254010D01*
X65623368Y-56416525D01*
X65416525Y-56623368D01*
X65300000Y-56797760D01*
X65183475Y-56623368D01*
X64976632Y-56416525D01*
X64733411Y-56254010D01*
X64463158Y-56142068D01*
X64176260Y-56085000D01*
X63883740Y-56085000D01*
X63596842Y-56142068D01*
X63326589Y-56254010D01*
X63083368Y-56416525D01*
X62876525Y-56623368D01*
X62760000Y-56797760D01*
X62643475Y-56623368D01*
X62436632Y-56416525D01*
X62193411Y-56254010D01*
X61923158Y-56142068D01*
X61636260Y-56085000D01*
X61343740Y-56085000D01*
X61056842Y-56142068D01*
X60786589Y-56254010D01*
X60543368Y-56416525D01*
X60336525Y-56623368D01*
X60214805Y-56805534D01*
X60145178Y-56688645D01*
X59950269Y-56472412D01*
X59716920Y-56298359D01*
X59454099Y-56173175D01*
X59306890Y-56128524D01*
X59077000Y-56249845D01*
X58823000Y-56249845D01*
X58593110Y-56128524D01*
X58445901Y-56173175D01*
X58183080Y-56298359D01*
X57949731Y-56472412D01*
X57754822Y-56688645D01*
X57685195Y-56805534D01*
X57563475Y-56623368D01*
X57356632Y-56416525D01*
X57113411Y-56254010D01*
X56843158Y-56142068D01*
X56556260Y-56085000D01*
X56263740Y-56085000D01*
X55976842Y-56142068D01*
X55706589Y-56254010D01*
X55463368Y-56416525D01*
X55256525Y-56623368D01*
X55140000Y-56797760D01*
X55023475Y-56623368D01*
X54816632Y-56416525D01*
X54573411Y-56254010D01*
X54427792Y-56193693D01*
X54651925Y-56149110D01*
X54975694Y-56015000D01*
X104856928Y-56015000D01*
X104860000Y-56629250D01*
X105018750Y-56788000D01*
X105918000Y-56788000D01*
X105918000Y-55538750D01*
X105759250Y-55380000D01*
X105495000Y-55376928D01*
X105370518Y-55389188D01*
X105250820Y-55425498D01*
X105140506Y-55484463D01*
X105043815Y-55563815D01*
X104964463Y-55660506D01*
X104905498Y-55770820D01*
X104869188Y-55890518D01*
X104856928Y-56015000D01*
X54975694Y-56015000D01*
X55058669Y-55980631D01*
X55424729Y-55736038D01*
X55736038Y-55424729D01*
X55980631Y-55058669D01*
X56149110Y-54651925D01*
X56235000Y-54220128D01*
X56235000Y-53779872D01*
X56149110Y-53348075D01*
X55980631Y-52941331D01*
X55736038Y-52575271D01*
X55729281Y-52568514D01*
X64705000Y-52568514D01*
X64705000Y-52831486D01*
X64756304Y-53089405D01*
X64856939Y-53332359D01*
X65003038Y-53551013D01*
X65188987Y-53736962D01*
X65407641Y-53883061D01*
X65650595Y-53983696D01*
X65908514Y-54035000D01*
X66171486Y-54035000D01*
X66429405Y-53983696D01*
X66672359Y-53883061D01*
X66891013Y-53736962D01*
X67076962Y-53551013D01*
X67223061Y-53332359D01*
X67310000Y-53122470D01*
X67396939Y-53332359D01*
X67543038Y-53551013D01*
X67728987Y-53736962D01*
X67947641Y-53883061D01*
X68190595Y-53983696D01*
X68448514Y-54035000D01*
X68711486Y-54035000D01*
X68969405Y-53983696D01*
X69212359Y-53883061D01*
X69431013Y-53736962D01*
X69616962Y-53551013D01*
X69763061Y-53332359D01*
X69795880Y-53253126D01*
X69848320Y-53379727D01*
X70005363Y-53614759D01*
X70205241Y-53814637D01*
X70440273Y-53971680D01*
X70701426Y-54079853D01*
X70978665Y-54135000D01*
X71261335Y-54135000D01*
X71538574Y-54079853D01*
X71799727Y-53971680D01*
X72034759Y-53814637D01*
X72156694Y-53692702D01*
X75306903Y-53692702D01*
X75378486Y-53936671D01*
X75633996Y-54057571D01*
X75908184Y-54126300D01*
X76190512Y-54140217D01*
X76470130Y-54098787D01*
X76736292Y-54003603D01*
X76861514Y-53936671D01*
X76933097Y-53692702D01*
X76120000Y-52879605D01*
X75306903Y-53692702D01*
X72156694Y-53692702D01*
X72234637Y-53614759D01*
X72391680Y-53379727D01*
X72499853Y-53118574D01*
X72555000Y-52841335D01*
X72555000Y-52770512D01*
X74679783Y-52770512D01*
X74721213Y-53050130D01*
X74816397Y-53316292D01*
X74883329Y-53441514D01*
X75127298Y-53513097D01*
X75940395Y-52700000D01*
X76299605Y-52700000D01*
X77112702Y-53513097D01*
X77356671Y-53441514D01*
X77477571Y-53186004D01*
X77546300Y-52911816D01*
X77552107Y-52794000D01*
X97875928Y-52794000D01*
X97875928Y-54394000D01*
X97888188Y-54518482D01*
X97924498Y-54638180D01*
X97983463Y-54748494D01*
X98062815Y-54845185D01*
X98159506Y-54924537D01*
X98269820Y-54983502D01*
X98389518Y-55019812D01*
X98514000Y-55032072D01*
X100114000Y-55032072D01*
X100238482Y-55019812D01*
X100358180Y-54983502D01*
X100468494Y-54924537D01*
X100565185Y-54845185D01*
X100644537Y-54748494D01*
X100703502Y-54638180D01*
X100732661Y-54542057D01*
X100899241Y-54708637D01*
X101134273Y-54865680D01*
X101395426Y-54973853D01*
X101672665Y-55029000D01*
X101955335Y-55029000D01*
X102232574Y-54973853D01*
X102493727Y-54865680D01*
X102728759Y-54708637D01*
X102928637Y-54508759D01*
X103085680Y-54273727D01*
X103193853Y-54012574D01*
X103249000Y-53735335D01*
X103249000Y-53452665D01*
X103193853Y-53175426D01*
X103085680Y-52914273D01*
X102928637Y-52679241D01*
X102728759Y-52479363D01*
X102493727Y-52322320D01*
X102363828Y-52268514D01*
X104625000Y-52268514D01*
X104625000Y-52531486D01*
X104676304Y-52789405D01*
X104776939Y-53032359D01*
X104923038Y-53251013D01*
X105108987Y-53436962D01*
X105327641Y-53583061D01*
X105570595Y-53683696D01*
X105828514Y-53735000D01*
X106091486Y-53735000D01*
X106295896Y-53694340D01*
X106280808Y-53712724D01*
X106196431Y-53870582D01*
X106144472Y-54041868D01*
X106126928Y-54220000D01*
X106126928Y-55470000D01*
X106144472Y-55648132D01*
X106172000Y-55738880D01*
X106172000Y-56788000D01*
X107071250Y-56788000D01*
X107230000Y-56629250D01*
X107231231Y-56383072D01*
X107396928Y-56383072D01*
X107396928Y-57540000D01*
X107414472Y-57718132D01*
X107466431Y-57889418D01*
X107550808Y-58047276D01*
X107664361Y-58185639D01*
X107802724Y-58299192D01*
X107960582Y-58383569D01*
X108131868Y-58435528D01*
X108310000Y-58453072D01*
X108860000Y-58453072D01*
X109038132Y-58435528D01*
X109209418Y-58383569D01*
X109367276Y-58299192D01*
X109505639Y-58185639D01*
X109619192Y-58047276D01*
X109703569Y-57889418D01*
X109755528Y-57718132D01*
X109773072Y-57540000D01*
X109773072Y-56290000D01*
X109755528Y-56111868D01*
X109703569Y-55940582D01*
X109619192Y-55782724D01*
X109505639Y-55644361D01*
X109367276Y-55530808D01*
X109209418Y-55446431D01*
X109038132Y-55394472D01*
X108860000Y-55376928D01*
X108503072Y-55376928D01*
X108503072Y-54220000D01*
X108485528Y-54041868D01*
X108433569Y-53870582D01*
X108360217Y-53733350D01*
X108368514Y-53735000D01*
X108631486Y-53735000D01*
X108889405Y-53683696D01*
X109132359Y-53583061D01*
X109351013Y-53436962D01*
X109536962Y-53251013D01*
X109683061Y-53032359D01*
X109783696Y-52789405D01*
X109829578Y-52558740D01*
X109975000Y-52558740D01*
X109975000Y-52851260D01*
X110032068Y-53138158D01*
X110144010Y-53408411D01*
X110306525Y-53651632D01*
X110513368Y-53858475D01*
X110756589Y-54020990D01*
X111026842Y-54132932D01*
X111313740Y-54190000D01*
X111606260Y-54190000D01*
X111893158Y-54132932D01*
X112163411Y-54020990D01*
X112406632Y-53858475D01*
X112538487Y-53726620D01*
X112560498Y-53799180D01*
X112619463Y-53909494D01*
X112698815Y-54006185D01*
X112795506Y-54085537D01*
X112905820Y-54144502D01*
X113025518Y-54180812D01*
X113150000Y-54193072D01*
X114850000Y-54193072D01*
X114974482Y-54180812D01*
X115094180Y-54144502D01*
X115204494Y-54085537D01*
X115301185Y-54006185D01*
X115380537Y-53909494D01*
X115439502Y-53799180D01*
X115445359Y-53779872D01*
X133765000Y-53779872D01*
X133765000Y-54220128D01*
X133850890Y-54651925D01*
X134019369Y-55058669D01*
X134263962Y-55424729D01*
X134575271Y-55736038D01*
X134941331Y-55980631D01*
X135348075Y-56149110D01*
X135779872Y-56235000D01*
X136220128Y-56235000D01*
X136651925Y-56149110D01*
X137058669Y-55980631D01*
X137424729Y-55736038D01*
X137736038Y-55424729D01*
X137980631Y-55058669D01*
X138149110Y-54651925D01*
X138235000Y-54220128D01*
X138235000Y-53779872D01*
X138149110Y-53348075D01*
X137980631Y-52941331D01*
X137736038Y-52575271D01*
X137424729Y-52263962D01*
X137058669Y-52019369D01*
X136651925Y-51850890D01*
X136220128Y-51765000D01*
X135779872Y-51765000D01*
X135348075Y-51850890D01*
X134941331Y-52019369D01*
X134575271Y-52263962D01*
X134263962Y-52575271D01*
X134019369Y-52941331D01*
X133850890Y-53348075D01*
X133765000Y-53779872D01*
X115445359Y-53779872D01*
X115475812Y-53679482D01*
X115488072Y-53555000D01*
X115488072Y-51855000D01*
X115475812Y-51730518D01*
X115439502Y-51610820D01*
X115380537Y-51500506D01*
X115301185Y-51403815D01*
X115204494Y-51324463D01*
X115094180Y-51265498D01*
X114974482Y-51229188D01*
X114850000Y-51216928D01*
X113150000Y-51216928D01*
X113025518Y-51229188D01*
X112905820Y-51265498D01*
X112795506Y-51324463D01*
X112698815Y-51403815D01*
X112619463Y-51500506D01*
X112560498Y-51610820D01*
X112538487Y-51683380D01*
X112406632Y-51551525D01*
X112163411Y-51389010D01*
X111893158Y-51277068D01*
X111606260Y-51220000D01*
X111313740Y-51220000D01*
X111026842Y-51277068D01*
X110756589Y-51389010D01*
X110513368Y-51551525D01*
X110306525Y-51758368D01*
X110144010Y-52001589D01*
X110032068Y-52271842D01*
X109975000Y-52558740D01*
X109829578Y-52558740D01*
X109835000Y-52531486D01*
X109835000Y-52268514D01*
X109783696Y-52010595D01*
X109683061Y-51767641D01*
X109536962Y-51548987D01*
X109351013Y-51363038D01*
X109132359Y-51216939D01*
X108889405Y-51116304D01*
X108631486Y-51065000D01*
X108368514Y-51065000D01*
X108110595Y-51116304D01*
X107867641Y-51216939D01*
X107648987Y-51363038D01*
X107463038Y-51548987D01*
X107316939Y-51767641D01*
X107230000Y-51977530D01*
X107143061Y-51767641D01*
X106996962Y-51548987D01*
X106811013Y-51363038D01*
X106592359Y-51216939D01*
X106349405Y-51116304D01*
X106091486Y-51065000D01*
X105828514Y-51065000D01*
X105570595Y-51116304D01*
X105327641Y-51216939D01*
X105108987Y-51363038D01*
X104923038Y-51548987D01*
X104776939Y-51767641D01*
X104676304Y-52010595D01*
X104625000Y-52268514D01*
X102363828Y-52268514D01*
X102232574Y-52214147D01*
X101955335Y-52159000D01*
X101672665Y-52159000D01*
X101395426Y-52214147D01*
X101134273Y-52322320D01*
X100899241Y-52479363D01*
X100732661Y-52645943D01*
X100703502Y-52549820D01*
X100644537Y-52439506D01*
X100565185Y-52342815D01*
X100468494Y-52263463D01*
X100358180Y-52204498D01*
X100238482Y-52168188D01*
X100114000Y-52155928D01*
X98514000Y-52155928D01*
X98389518Y-52168188D01*
X98269820Y-52204498D01*
X98159506Y-52263463D01*
X98062815Y-52342815D01*
X97983463Y-52439506D01*
X97924498Y-52549820D01*
X97888188Y-52669518D01*
X97875928Y-52794000D01*
X77552107Y-52794000D01*
X77560217Y-52629488D01*
X77518787Y-52349870D01*
X77423603Y-52083708D01*
X77356671Y-51958486D01*
X77112702Y-51886903D01*
X76299605Y-52700000D01*
X75940395Y-52700000D01*
X75127298Y-51886903D01*
X74883329Y-51958486D01*
X74762429Y-52213996D01*
X74693700Y-52488184D01*
X74679783Y-52770512D01*
X72555000Y-52770512D01*
X72555000Y-52558665D01*
X72499853Y-52281426D01*
X72391680Y-52020273D01*
X72234637Y-51785241D01*
X72156694Y-51707298D01*
X75306903Y-51707298D01*
X76120000Y-52520395D01*
X76933097Y-51707298D01*
X76861514Y-51463329D01*
X76606004Y-51342429D01*
X76331816Y-51273700D01*
X76049488Y-51259783D01*
X75769870Y-51301213D01*
X75503708Y-51396397D01*
X75378486Y-51463329D01*
X75306903Y-51707298D01*
X72156694Y-51707298D01*
X72034759Y-51585363D01*
X71799727Y-51428320D01*
X71538574Y-51320147D01*
X71261335Y-51265000D01*
X70978665Y-51265000D01*
X70701426Y-51320147D01*
X70440273Y-51428320D01*
X70205241Y-51585363D01*
X70005363Y-51785241D01*
X69848320Y-52020273D01*
X69795880Y-52146874D01*
X69763061Y-52067641D01*
X69616962Y-51848987D01*
X69431013Y-51663038D01*
X69212359Y-51516939D01*
X68969405Y-51416304D01*
X68711486Y-51365000D01*
X68448514Y-51365000D01*
X68190595Y-51416304D01*
X67947641Y-51516939D01*
X67728987Y-51663038D01*
X67543038Y-51848987D01*
X67396939Y-52067641D01*
X67310000Y-52277530D01*
X67223061Y-52067641D01*
X67076962Y-51848987D01*
X66891013Y-51663038D01*
X66672359Y-51516939D01*
X66429405Y-51416304D01*
X66171486Y-51365000D01*
X65908514Y-51365000D01*
X65650595Y-51416304D01*
X65407641Y-51516939D01*
X65188987Y-51663038D01*
X65003038Y-51848987D01*
X64856939Y-52067641D01*
X64756304Y-52310595D01*
X64705000Y-52568514D01*
X55729281Y-52568514D01*
X55424729Y-52263962D01*
X55058669Y-52019369D01*
X54651925Y-51850890D01*
X54220128Y-51765000D01*
X53779872Y-51765000D01*
X53348075Y-51850890D01*
X52941331Y-52019369D01*
X52575271Y-52263962D01*
X52263962Y-52575271D01*
X52019369Y-52941331D01*
X51850890Y-53348075D01*
X51765000Y-53779872D01*
X50660000Y-53779872D01*
X50660000Y-50660000D01*
X139340000Y-50660000D01*
X139340001Y-119340000D01*
M02*
