G04 #@! TF.GenerationSoftware,KiCad,Pcbnew,5.1.5+dfsg1-2build2*
G04 #@! TF.CreationDate,2021-11-10T17:59:43-05:00*
G04 #@! TF.ProjectId,SINSONTE_MODEL_A,53494e53-4f4e-4544-955f-4d4f44454c5f,rev?*
G04 #@! TF.SameCoordinates,Original*
G04 #@! TF.FileFunction,Legend,Top*
G04 #@! TF.FilePolarity,Positive*
%FSLAX46Y46*%
G04 Gerber Fmt 4.6, Leading zero omitted, Abs format (unit mm)*
G04 Created by KiCad (PCBNEW 5.1.5+dfsg1-2build2) date 2021-11-10 17:59:43*
%MOMM*%
%LPD*%
G04 APERTURE LIST*
%ADD10C,0.150000*%
%ADD11C,0.750000*%
%ADD12C,1.000000*%
%ADD13C,1.250000*%
%ADD14C,1.500000*%
%ADD15C,0.350000*%
%ADD16C,0.500000*%
%ADD17C,0.120000*%
%ADD18C,0.010000*%
G04 APERTURE END LIST*
D10*
X131731023Y-101480880D02*
X131159595Y-101480880D01*
X131445309Y-101480880D02*
X131445309Y-100480880D01*
X131350071Y-100623738D01*
X131254833Y-100718976D01*
X131159595Y-100766595D01*
X133635785Y-100576119D02*
X133683404Y-100528500D01*
X133778642Y-100480880D01*
X134016738Y-100480880D01*
X134111976Y-100528500D01*
X134159595Y-100576119D01*
X134207214Y-100671357D01*
X134207214Y-100766595D01*
X134159595Y-100909452D01*
X133588166Y-101480880D01*
X134207214Y-101480880D01*
X136064357Y-100480880D02*
X136683404Y-100480880D01*
X136350071Y-100861833D01*
X136492928Y-100861833D01*
X136588166Y-100909452D01*
X136635785Y-100957071D01*
X136683404Y-101052309D01*
X136683404Y-101290404D01*
X136635785Y-101385642D01*
X136588166Y-101433261D01*
X136492928Y-101480880D01*
X136207214Y-101480880D01*
X136111976Y-101433261D01*
X136064357Y-101385642D01*
X110633095Y-55316428D02*
X111395000Y-55316428D01*
X113395000Y-55316428D02*
X114156904Y-55316428D01*
X113775952Y-55697380D02*
X113775952Y-54935476D01*
D11*
X50375000Y-97300000D02*
X50375000Y-97500000D01*
D12*
X50500000Y-102000000D02*
X50500000Y-103000000D01*
D13*
X50625000Y-107500000D02*
X50625000Y-110500000D01*
D14*
X50750000Y-115000000D02*
X50750000Y-119250000D01*
D15*
X120189523Y-116537523D02*
X120284761Y-116251809D01*
X120284761Y-115775619D01*
X120189523Y-115585142D01*
X120094285Y-115489904D01*
X119903809Y-115394666D01*
X119713333Y-115394666D01*
X119522857Y-115489904D01*
X119427619Y-115585142D01*
X119332380Y-115775619D01*
X119237142Y-116156571D01*
X119141904Y-116347047D01*
X119046666Y-116442285D01*
X118856190Y-116537523D01*
X118665714Y-116537523D01*
X118475238Y-116442285D01*
X118380000Y-116347047D01*
X118284761Y-116156571D01*
X118284761Y-115680380D01*
X118380000Y-115394666D01*
X120284761Y-114537523D02*
X118284761Y-114537523D01*
X120284761Y-113585142D02*
X118284761Y-113585142D01*
X120284761Y-112442285D01*
X118284761Y-112442285D01*
X120189523Y-111585142D02*
X120284761Y-111299428D01*
X120284761Y-110823238D01*
X120189523Y-110632761D01*
X120094285Y-110537523D01*
X119903809Y-110442285D01*
X119713333Y-110442285D01*
X119522857Y-110537523D01*
X119427619Y-110632761D01*
X119332380Y-110823238D01*
X119237142Y-111204190D01*
X119141904Y-111394666D01*
X119046666Y-111489904D01*
X118856190Y-111585142D01*
X118665714Y-111585142D01*
X118475238Y-111489904D01*
X118380000Y-111394666D01*
X118284761Y-111204190D01*
X118284761Y-110728000D01*
X118380000Y-110442285D01*
X118284761Y-109204190D02*
X118284761Y-108823238D01*
X118380000Y-108632761D01*
X118570476Y-108442285D01*
X118951428Y-108347047D01*
X119618095Y-108347047D01*
X119999047Y-108442285D01*
X120189523Y-108632761D01*
X120284761Y-108823238D01*
X120284761Y-109204190D01*
X120189523Y-109394666D01*
X119999047Y-109585142D01*
X119618095Y-109680380D01*
X118951428Y-109680380D01*
X118570476Y-109585142D01*
X118380000Y-109394666D01*
X118284761Y-109204190D01*
X120284761Y-107489904D02*
X118284761Y-107489904D01*
X120284761Y-106347047D01*
X118284761Y-106347047D01*
X118284761Y-105680380D02*
X118284761Y-104537523D01*
X120284761Y-105108952D02*
X118284761Y-105108952D01*
X119237142Y-103870857D02*
X119237142Y-103204190D01*
X120284761Y-102918476D02*
X120284761Y-103870857D01*
X118284761Y-103870857D01*
X118284761Y-102918476D01*
D14*
X135200000Y-76200000D02*
X139250000Y-81000000D01*
X139250000Y-119250000D02*
X139250000Y-81000000D01*
X50750000Y-119250000D02*
X139250000Y-119250000D01*
D16*
X139000000Y-66000000D02*
G75*
G03X139000000Y-66000000I-14000000J0D01*
G01*
D17*
X120456000Y-86293000D02*
X119126000Y-86293000D01*
X120456000Y-84963000D02*
X120456000Y-86293000D01*
X120456000Y-83693000D02*
X117796000Y-83693000D01*
X117796000Y-83693000D02*
X117796000Y-81093000D01*
X120456000Y-83693000D02*
X120456000Y-81093000D01*
X120456000Y-81093000D02*
X117796000Y-81093000D01*
X122996000Y-86293000D02*
X121666000Y-86293000D01*
X122996000Y-84963000D02*
X122996000Y-86293000D01*
X122996000Y-83693000D02*
X120336000Y-83693000D01*
X120336000Y-83693000D02*
X120336000Y-81093000D01*
X122996000Y-83693000D02*
X122996000Y-81093000D01*
X122996000Y-81093000D02*
X120336000Y-81093000D01*
X125536000Y-86293000D02*
X124206000Y-86293000D01*
X125536000Y-84963000D02*
X125536000Y-86293000D01*
X125536000Y-83693000D02*
X122876000Y-83693000D01*
X122876000Y-83693000D02*
X122876000Y-81093000D01*
X125536000Y-83693000D02*
X125536000Y-81093000D01*
X125536000Y-81093000D02*
X122876000Y-81093000D01*
X128076000Y-86293000D02*
X126746000Y-86293000D01*
X128076000Y-84963000D02*
X128076000Y-86293000D01*
X128076000Y-83693000D02*
X125416000Y-83693000D01*
X125416000Y-83693000D02*
X125416000Y-81093000D01*
X128076000Y-83693000D02*
X128076000Y-81093000D01*
X128076000Y-81093000D02*
X125416000Y-81093000D01*
X130616000Y-86293000D02*
X129286000Y-86293000D01*
X130616000Y-84963000D02*
X130616000Y-86293000D01*
X130616000Y-83693000D02*
X127956000Y-83693000D01*
X127956000Y-83693000D02*
X127956000Y-81093000D01*
X130616000Y-83693000D02*
X130616000Y-81093000D01*
X130616000Y-81093000D02*
X127956000Y-81093000D01*
X117796000Y-91253000D02*
X119126000Y-91253000D01*
X117796000Y-92583000D02*
X117796000Y-91253000D01*
X117796000Y-93853000D02*
X120456000Y-93853000D01*
X120456000Y-93853000D02*
X120456000Y-96453000D01*
X117796000Y-93853000D02*
X117796000Y-96453000D01*
X117796000Y-96453000D02*
X120456000Y-96453000D01*
X120336000Y-91253000D02*
X121666000Y-91253000D01*
X120336000Y-92583000D02*
X120336000Y-91253000D01*
X120336000Y-93853000D02*
X122996000Y-93853000D01*
X122996000Y-93853000D02*
X122996000Y-96453000D01*
X120336000Y-93853000D02*
X120336000Y-96453000D01*
X120336000Y-96453000D02*
X122996000Y-96453000D01*
X122876000Y-91253000D02*
X124206000Y-91253000D01*
X122876000Y-92583000D02*
X122876000Y-91253000D01*
X122876000Y-93853000D02*
X125536000Y-93853000D01*
X125536000Y-93853000D02*
X125536000Y-96453000D01*
X122876000Y-93853000D02*
X122876000Y-96453000D01*
X122876000Y-96453000D02*
X125536000Y-96453000D01*
X125416000Y-91253000D02*
X126746000Y-91253000D01*
X125416000Y-92583000D02*
X125416000Y-91253000D01*
X125416000Y-93853000D02*
X128076000Y-93853000D01*
X128076000Y-93853000D02*
X128076000Y-96453000D01*
X125416000Y-93853000D02*
X125416000Y-96453000D01*
X125416000Y-96453000D02*
X128076000Y-96453000D01*
X127956000Y-91253000D02*
X129286000Y-91253000D01*
X127956000Y-92583000D02*
X127956000Y-91253000D01*
X127956000Y-93853000D02*
X130616000Y-93853000D01*
X130616000Y-93853000D02*
X130616000Y-96453000D01*
X127956000Y-93853000D02*
X127956000Y-96453000D01*
X127956000Y-96453000D02*
X130616000Y-96453000D01*
X117796000Y-91373000D02*
X117796000Y-90043000D01*
X119126000Y-91373000D02*
X117796000Y-91373000D01*
X120396000Y-91373000D02*
X120396000Y-88713000D01*
X120396000Y-88713000D02*
X130616000Y-88713000D01*
X120396000Y-91373000D02*
X130616000Y-91373000D01*
X130616000Y-91373000D02*
X130616000Y-88713000D01*
X117796000Y-88833000D02*
X117796000Y-87503000D01*
X119126000Y-88833000D02*
X117796000Y-88833000D01*
X120396000Y-88833000D02*
X120396000Y-86173000D01*
X120396000Y-86173000D02*
X130616000Y-86173000D01*
X120396000Y-88833000D02*
X130616000Y-88833000D01*
X130616000Y-88833000D02*
X130616000Y-86173000D01*
X52540000Y-58900000D02*
X52540000Y-57570000D01*
X53870000Y-58900000D02*
X52540000Y-58900000D01*
X55140000Y-58900000D02*
X55140000Y-56240000D01*
X55140000Y-56240000D02*
X103460000Y-56240000D01*
X55140000Y-58900000D02*
X103460000Y-58900000D01*
X103460000Y-58900000D02*
X103460000Y-56240000D01*
X52540000Y-81760000D02*
X52540000Y-80430000D01*
X53870000Y-81760000D02*
X52540000Y-81760000D01*
X55140000Y-81760000D02*
X55140000Y-79100000D01*
X55140000Y-79100000D02*
X103460000Y-79100000D01*
X55140000Y-81760000D02*
X103460000Y-81760000D01*
X103460000Y-81760000D02*
X103460000Y-79100000D01*
X52500000Y-79500000D02*
X52500000Y-58500000D01*
X103500000Y-72700000D02*
X103500000Y-79500000D01*
X55167000Y-79500000D02*
X55167000Y-76493000D01*
X55167000Y-76493000D02*
X52500000Y-76493000D01*
X52500000Y-79500000D02*
X52800000Y-79500000D01*
X54900000Y-79500000D02*
X55300000Y-79500000D01*
X57500000Y-79500000D02*
X57900000Y-79500000D01*
X60000000Y-79500000D02*
X60400000Y-79500000D01*
X62600000Y-79500000D02*
X63000000Y-79500000D01*
X65100000Y-79500000D02*
X65500000Y-79500000D01*
X67600000Y-79500000D02*
X68000000Y-79500000D01*
X70200000Y-79500000D02*
X70600000Y-79500000D01*
X72700000Y-79500000D02*
X73100000Y-79500000D01*
X75300000Y-79500000D02*
X75700000Y-79500000D01*
X77800000Y-79500000D02*
X78200000Y-79500000D01*
X80300000Y-79500000D02*
X80700000Y-79500000D01*
X82900000Y-79500000D02*
X83300000Y-79500000D01*
X85400000Y-79500000D02*
X85800000Y-79500000D01*
X88000000Y-79500000D02*
X88400000Y-79500000D01*
X90500000Y-79500000D02*
X90900000Y-79500000D01*
X93100000Y-79500000D02*
X93500000Y-79500000D01*
X95600000Y-79500000D02*
X96000000Y-79500000D01*
X98100000Y-79500000D02*
X98500000Y-79500000D01*
X100700000Y-79500000D02*
X101100000Y-79500000D01*
X67600000Y-58500000D02*
X68000000Y-58500000D01*
X72700000Y-58500000D02*
X73100000Y-58500000D01*
X80300000Y-58500000D02*
X80700000Y-58500000D01*
X88000000Y-58500000D02*
X88400000Y-58500000D01*
X57500000Y-58500000D02*
X57900000Y-58500000D01*
X54900000Y-58500000D02*
X55300000Y-58500000D01*
X62600000Y-58500000D02*
X63000000Y-58500000D01*
X95600000Y-58500000D02*
X96000000Y-58500000D01*
X100700000Y-58500000D02*
X101100000Y-58500000D01*
X98100000Y-58500000D02*
X98500000Y-58500000D01*
X82900000Y-58500000D02*
X83300000Y-58500000D01*
X77800000Y-58500000D02*
X78200000Y-58500000D01*
X65100000Y-58500000D02*
X65500000Y-58500000D01*
X70200000Y-58500000D02*
X70600000Y-58500000D01*
X90500000Y-58500000D02*
X90900000Y-58500000D01*
X75300000Y-58500000D02*
X75700000Y-58500000D01*
X52500000Y-58500000D02*
X52800000Y-58500000D01*
X60000000Y-58500000D02*
X60400000Y-58500000D01*
X85400000Y-58500000D02*
X85800000Y-58500000D01*
X93100000Y-58500000D02*
X93500000Y-58500000D01*
X103500000Y-58500000D02*
X103500000Y-65300000D01*
X103500000Y-70500000D02*
X103500000Y-70100000D01*
X103500000Y-67900000D02*
X103500000Y-67500000D01*
X49186000Y-97041000D02*
X49186000Y-98541000D01*
X50926000Y-97041000D02*
X49186000Y-97041000D01*
X56546000Y-105101000D02*
X49426000Y-105101000D01*
X56546000Y-97281000D02*
X49426000Y-97281000D01*
X49426000Y-97281000D02*
X49426000Y-105101000D01*
X56546000Y-97281000D02*
X56546000Y-105101000D01*
X50986000Y-97281000D02*
X50986000Y-105101000D01*
X54641000Y-102941000D02*
G75*
G03X54641000Y-102941000I-1555000J0D01*
G01*
X51530508Y-99468011D02*
G75*
G02X51654000Y-98833000I1555492J27011D01*
G01*
X52478258Y-98008891D02*
G75*
G02X53694000Y-98009000I607742J-1432109D01*
G01*
X54518109Y-98833258D02*
G75*
G02X54518000Y-100049000I-1432109J-607742D01*
G01*
X53693742Y-100873109D02*
G75*
G02X52478000Y-100873000I-607742J1432109D01*
G01*
X51654615Y-100048587D02*
G75*
G02X51531000Y-99441000I1431385J607587D01*
G01*
D18*
G36*
X50471107Y-93151843D02*
G01*
X50508203Y-93042115D01*
X50545451Y-92986218D01*
X50569441Y-92943324D01*
X50588578Y-92883659D01*
X50589503Y-92879334D01*
X50612723Y-92804728D01*
X50650923Y-92719578D01*
X50696995Y-92636727D01*
X50743829Y-92569017D01*
X50782719Y-92530303D01*
X50908352Y-92435752D01*
X51044989Y-92311840D01*
X51184842Y-92167137D01*
X51320124Y-92010216D01*
X51443047Y-91849649D01*
X51545822Y-91694008D01*
X51552121Y-91683417D01*
X51611521Y-91578815D01*
X51680284Y-91451338D01*
X51754495Y-91308880D01*
X51830239Y-91159335D01*
X51903603Y-91010597D01*
X51970671Y-90870558D01*
X52027529Y-90747113D01*
X52070263Y-90648155D01*
X52087459Y-90603917D01*
X52135380Y-90477025D01*
X52181952Y-90369676D01*
X52232300Y-90274226D01*
X52291550Y-90183028D01*
X52364825Y-90088438D01*
X52457252Y-89982810D01*
X52573956Y-89858498D01*
X52617359Y-89813427D01*
X52724389Y-89698778D01*
X52845792Y-89562256D01*
X52970975Y-89416174D01*
X53089346Y-89272848D01*
X53170840Y-89169974D01*
X53254417Y-89063659D01*
X53331562Y-88968873D01*
X53397842Y-88890797D01*
X53448827Y-88834609D01*
X53480085Y-88805491D01*
X53484949Y-88802809D01*
X53518327Y-88782492D01*
X53571065Y-88739956D01*
X53633130Y-88683444D01*
X53648881Y-88668144D01*
X53700271Y-88615802D01*
X53739331Y-88569297D01*
X53771414Y-88519139D01*
X53801873Y-88455837D01*
X53836062Y-88369899D01*
X53871566Y-88273308D01*
X53925699Y-88127012D01*
X53971096Y-88012740D01*
X54011638Y-87922109D01*
X54051205Y-87846734D01*
X54093680Y-87778232D01*
X54115475Y-87746417D01*
X54155026Y-87677751D01*
X54202793Y-87574582D01*
X54256263Y-87443358D01*
X54312921Y-87290526D01*
X54370252Y-87122535D01*
X54418894Y-86968495D01*
X54457749Y-86843415D01*
X54506154Y-86692008D01*
X54561917Y-86520765D01*
X54622847Y-86336174D01*
X54686751Y-86144725D01*
X54751440Y-85952905D01*
X54814722Y-85767205D01*
X54874404Y-85594113D01*
X54928297Y-85440118D01*
X54974209Y-85311709D01*
X55009948Y-85215374D01*
X55017519Y-85195834D01*
X55056558Y-85102135D01*
X55108276Y-84986451D01*
X55169573Y-84854952D01*
X55237348Y-84713813D01*
X55308502Y-84569206D01*
X55379935Y-84427303D01*
X55448546Y-84294278D01*
X55511236Y-84176302D01*
X55564905Y-84079550D01*
X55606453Y-84010194D01*
X55628735Y-83978750D01*
X55683033Y-83915250D01*
X55672244Y-84053506D01*
X55659107Y-84146275D01*
X55636602Y-84239853D01*
X55617894Y-84293386D01*
X55592726Y-84359183D01*
X55576992Y-84413941D01*
X55574333Y-84433277D01*
X55565873Y-84474916D01*
X55544511Y-84535642D01*
X55532464Y-84563814D01*
X55503155Y-84657185D01*
X55491331Y-84757098D01*
X55491329Y-84761917D01*
X55492062Y-84867750D01*
X55573361Y-84698417D01*
X55614095Y-84621324D01*
X55663766Y-84538739D01*
X55717210Y-84457854D01*
X55769264Y-84385865D01*
X55814763Y-84329963D01*
X55848542Y-84297343D01*
X55864193Y-84293305D01*
X55867619Y-84321777D01*
X55858449Y-84377765D01*
X55839900Y-84449514D01*
X55815189Y-84525271D01*
X55787535Y-84593283D01*
X55775505Y-84617282D01*
X55746178Y-84682595D01*
X55744862Y-84720966D01*
X55749391Y-84727425D01*
X55756579Y-84759941D01*
X55742354Y-84822974D01*
X55706216Y-84917944D01*
X55647669Y-85046271D01*
X55612020Y-85119008D01*
X55566498Y-85219881D01*
X55523686Y-85330973D01*
X55492111Y-85429968D01*
X55489645Y-85439334D01*
X55467775Y-85510112D01*
X55431946Y-85609388D01*
X55385995Y-85727248D01*
X55333759Y-85853779D01*
X55291891Y-85950373D01*
X55238743Y-86070448D01*
X55193953Y-86172827D01*
X55155419Y-86263343D01*
X55121035Y-86347832D01*
X55088697Y-86432128D01*
X55056303Y-86522065D01*
X55021747Y-86623478D01*
X54982925Y-86742201D01*
X54937734Y-86884068D01*
X54884069Y-87054914D01*
X54822614Y-87251644D01*
X54600461Y-87963372D01*
X54621112Y-88299394D01*
X54633241Y-88468410D01*
X54647123Y-88599915D01*
X54663917Y-88698731D01*
X54684780Y-88769676D01*
X54710872Y-88817570D01*
X54743350Y-88847233D01*
X54754183Y-88853139D01*
X54783544Y-88871877D01*
X54804742Y-88899656D01*
X54818849Y-88942665D01*
X54826938Y-89007095D01*
X54830081Y-89099133D01*
X54829351Y-89224970D01*
X54828321Y-89281000D01*
X54833428Y-89482276D01*
X54855637Y-89681550D01*
X54893024Y-89872117D01*
X54943665Y-90047268D01*
X55005634Y-90200296D01*
X55077007Y-90324493D01*
X55152321Y-90410144D01*
X55208821Y-90468114D01*
X55256327Y-90532191D01*
X55266952Y-90551000D01*
X55306810Y-90621120D01*
X55352402Y-90689529D01*
X55354582Y-90692463D01*
X55386838Y-90747734D01*
X55401974Y-90812192D01*
X55405000Y-90881208D01*
X55405000Y-91002573D01*
X55961918Y-91565003D01*
X56053703Y-91401960D01*
X56173593Y-91226821D01*
X56316788Y-91084447D01*
X56459300Y-90988888D01*
X56517482Y-90958678D01*
X56557311Y-90940514D01*
X56569166Y-90937970D01*
X56557595Y-90957571D01*
X56526183Y-91004263D01*
X56479877Y-91070821D01*
X56429787Y-91141419D01*
X56356873Y-91251786D01*
X56286340Y-91373748D01*
X56222124Y-91498867D01*
X56168163Y-91618702D01*
X56128393Y-91724815D01*
X56106750Y-91808766D01*
X56103958Y-91839937D01*
X56114679Y-91953728D01*
X56143455Y-92092201D01*
X56186956Y-92243503D01*
X56241856Y-92395778D01*
X56292751Y-92512441D01*
X56337403Y-92606413D01*
X56365017Y-92667384D01*
X56376862Y-92700525D01*
X56374206Y-92711004D01*
X56358319Y-92703992D01*
X56335990Y-92688589D01*
X56221285Y-92597272D01*
X56120734Y-92498693D01*
X56039603Y-92399511D01*
X55983158Y-92306386D01*
X55956667Y-92225980D01*
X55955333Y-92207209D01*
X55945682Y-92165383D01*
X55921655Y-92107583D01*
X55913000Y-92090639D01*
X55885623Y-92025558D01*
X55871284Y-91964143D01*
X55870666Y-91953008D01*
X55864424Y-91923221D01*
X55843054Y-91885273D01*
X55802592Y-91834212D01*
X55739073Y-91765082D01*
X55648533Y-91672930D01*
X55638535Y-91662951D01*
X55558433Y-91584204D01*
X55489155Y-91518198D01*
X55435990Y-91469803D01*
X55404225Y-91443892D01*
X55397712Y-91441062D01*
X55390632Y-91464773D01*
X55378807Y-91520558D01*
X55364212Y-91598697D01*
X55355812Y-91647137D01*
X55335410Y-91743414D01*
X55305209Y-91842297D01*
X55262691Y-91949046D01*
X55205338Y-92068920D01*
X55130632Y-92207178D01*
X55036053Y-92369081D01*
X54919085Y-92559887D01*
X54917872Y-92561834D01*
X54744503Y-92810846D01*
X54542852Y-93050377D01*
X54322233Y-93270570D01*
X54091961Y-93461563D01*
X54016904Y-93515493D01*
X53909775Y-93594737D01*
X53790338Y-93691450D01*
X53674985Y-93791980D01*
X53599459Y-93863199D01*
X53400112Y-94060292D01*
X53070713Y-94168313D01*
X52934858Y-94212218D01*
X52831832Y-94243314D01*
X52754516Y-94262808D01*
X52695795Y-94271907D01*
X52648550Y-94271818D01*
X52605665Y-94263749D01*
X52571493Y-94252981D01*
X52535405Y-94243545D01*
X52499641Y-94244833D01*
X52453759Y-94259682D01*
X52387314Y-94290932D01*
X52337241Y-94316647D01*
X52248600Y-94358604D01*
X52161233Y-94393005D01*
X52090666Y-94413915D01*
X52075961Y-94416553D01*
X51981943Y-94429440D01*
X52022909Y-94538095D01*
X52052758Y-94610301D01*
X52094283Y-94702025D01*
X52139340Y-94795379D01*
X52146937Y-94810464D01*
X52198108Y-94918215D01*
X52224852Y-94991796D01*
X52227219Y-95031579D01*
X52205255Y-95037936D01*
X52174574Y-95022135D01*
X52146407Y-94992352D01*
X52103332Y-94933472D01*
X52050426Y-94853720D01*
X51992766Y-94761316D01*
X51935428Y-94664485D01*
X51883490Y-94571448D01*
X51842029Y-94490429D01*
X51829549Y-94463307D01*
X51793151Y-94383424D01*
X51763888Y-94332446D01*
X51732782Y-94300132D01*
X51690856Y-94276239D01*
X51650624Y-94259187D01*
X51572129Y-94232384D01*
X51494561Y-94213658D01*
X51462223Y-94209227D01*
X51406026Y-94210011D01*
X51370395Y-94230184D01*
X51339731Y-94273332D01*
X51314718Y-94321939D01*
X51280273Y-94398802D01*
X51241403Y-94492384D01*
X51211378Y-94569176D01*
X51173667Y-94671018D01*
X51149603Y-94745868D01*
X51136780Y-94805901D01*
X51132789Y-94863295D01*
X51135222Y-94930227D01*
X51136429Y-94948146D01*
X51139559Y-95043641D01*
X51132489Y-95098472D01*
X51114994Y-95113117D01*
X51086846Y-95088052D01*
X51076795Y-95073632D01*
X51040891Y-94991090D01*
X51018093Y-94879338D01*
X51009733Y-94749828D01*
X51017146Y-94614013D01*
X51020373Y-94588966D01*
X51044086Y-94421288D01*
X50867267Y-94253915D01*
X50729777Y-94108546D01*
X50626400Y-93961484D01*
X50550168Y-93800825D01*
X50494856Y-93617785D01*
X50463963Y-93445545D01*
X50456203Y-93288275D01*
X50471107Y-93151843D01*
G37*
X50471107Y-93151843D02*
X50508203Y-93042115D01*
X50545451Y-92986218D01*
X50569441Y-92943324D01*
X50588578Y-92883659D01*
X50589503Y-92879334D01*
X50612723Y-92804728D01*
X50650923Y-92719578D01*
X50696995Y-92636727D01*
X50743829Y-92569017D01*
X50782719Y-92530303D01*
X50908352Y-92435752D01*
X51044989Y-92311840D01*
X51184842Y-92167137D01*
X51320124Y-92010216D01*
X51443047Y-91849649D01*
X51545822Y-91694008D01*
X51552121Y-91683417D01*
X51611521Y-91578815D01*
X51680284Y-91451338D01*
X51754495Y-91308880D01*
X51830239Y-91159335D01*
X51903603Y-91010597D01*
X51970671Y-90870558D01*
X52027529Y-90747113D01*
X52070263Y-90648155D01*
X52087459Y-90603917D01*
X52135380Y-90477025D01*
X52181952Y-90369676D01*
X52232300Y-90274226D01*
X52291550Y-90183028D01*
X52364825Y-90088438D01*
X52457252Y-89982810D01*
X52573956Y-89858498D01*
X52617359Y-89813427D01*
X52724389Y-89698778D01*
X52845792Y-89562256D01*
X52970975Y-89416174D01*
X53089346Y-89272848D01*
X53170840Y-89169974D01*
X53254417Y-89063659D01*
X53331562Y-88968873D01*
X53397842Y-88890797D01*
X53448827Y-88834609D01*
X53480085Y-88805491D01*
X53484949Y-88802809D01*
X53518327Y-88782492D01*
X53571065Y-88739956D01*
X53633130Y-88683444D01*
X53648881Y-88668144D01*
X53700271Y-88615802D01*
X53739331Y-88569297D01*
X53771414Y-88519139D01*
X53801873Y-88455837D01*
X53836062Y-88369899D01*
X53871566Y-88273308D01*
X53925699Y-88127012D01*
X53971096Y-88012740D01*
X54011638Y-87922109D01*
X54051205Y-87846734D01*
X54093680Y-87778232D01*
X54115475Y-87746417D01*
X54155026Y-87677751D01*
X54202793Y-87574582D01*
X54256263Y-87443358D01*
X54312921Y-87290526D01*
X54370252Y-87122535D01*
X54418894Y-86968495D01*
X54457749Y-86843415D01*
X54506154Y-86692008D01*
X54561917Y-86520765D01*
X54622847Y-86336174D01*
X54686751Y-86144725D01*
X54751440Y-85952905D01*
X54814722Y-85767205D01*
X54874404Y-85594113D01*
X54928297Y-85440118D01*
X54974209Y-85311709D01*
X55009948Y-85215374D01*
X55017519Y-85195834D01*
X55056558Y-85102135D01*
X55108276Y-84986451D01*
X55169573Y-84854952D01*
X55237348Y-84713813D01*
X55308502Y-84569206D01*
X55379935Y-84427303D01*
X55448546Y-84294278D01*
X55511236Y-84176302D01*
X55564905Y-84079550D01*
X55606453Y-84010194D01*
X55628735Y-83978750D01*
X55683033Y-83915250D01*
X55672244Y-84053506D01*
X55659107Y-84146275D01*
X55636602Y-84239853D01*
X55617894Y-84293386D01*
X55592726Y-84359183D01*
X55576992Y-84413941D01*
X55574333Y-84433277D01*
X55565873Y-84474916D01*
X55544511Y-84535642D01*
X55532464Y-84563814D01*
X55503155Y-84657185D01*
X55491331Y-84757098D01*
X55491329Y-84761917D01*
X55492062Y-84867750D01*
X55573361Y-84698417D01*
X55614095Y-84621324D01*
X55663766Y-84538739D01*
X55717210Y-84457854D01*
X55769264Y-84385865D01*
X55814763Y-84329963D01*
X55848542Y-84297343D01*
X55864193Y-84293305D01*
X55867619Y-84321777D01*
X55858449Y-84377765D01*
X55839900Y-84449514D01*
X55815189Y-84525271D01*
X55787535Y-84593283D01*
X55775505Y-84617282D01*
X55746178Y-84682595D01*
X55744862Y-84720966D01*
X55749391Y-84727425D01*
X55756579Y-84759941D01*
X55742354Y-84822974D01*
X55706216Y-84917944D01*
X55647669Y-85046271D01*
X55612020Y-85119008D01*
X55566498Y-85219881D01*
X55523686Y-85330973D01*
X55492111Y-85429968D01*
X55489645Y-85439334D01*
X55467775Y-85510112D01*
X55431946Y-85609388D01*
X55385995Y-85727248D01*
X55333759Y-85853779D01*
X55291891Y-85950373D01*
X55238743Y-86070448D01*
X55193953Y-86172827D01*
X55155419Y-86263343D01*
X55121035Y-86347832D01*
X55088697Y-86432128D01*
X55056303Y-86522065D01*
X55021747Y-86623478D01*
X54982925Y-86742201D01*
X54937734Y-86884068D01*
X54884069Y-87054914D01*
X54822614Y-87251644D01*
X54600461Y-87963372D01*
X54621112Y-88299394D01*
X54633241Y-88468410D01*
X54647123Y-88599915D01*
X54663917Y-88698731D01*
X54684780Y-88769676D01*
X54710872Y-88817570D01*
X54743350Y-88847233D01*
X54754183Y-88853139D01*
X54783544Y-88871877D01*
X54804742Y-88899656D01*
X54818849Y-88942665D01*
X54826938Y-89007095D01*
X54830081Y-89099133D01*
X54829351Y-89224970D01*
X54828321Y-89281000D01*
X54833428Y-89482276D01*
X54855637Y-89681550D01*
X54893024Y-89872117D01*
X54943665Y-90047268D01*
X55005634Y-90200296D01*
X55077007Y-90324493D01*
X55152321Y-90410144D01*
X55208821Y-90468114D01*
X55256327Y-90532191D01*
X55266952Y-90551000D01*
X55306810Y-90621120D01*
X55352402Y-90689529D01*
X55354582Y-90692463D01*
X55386838Y-90747734D01*
X55401974Y-90812192D01*
X55405000Y-90881208D01*
X55405000Y-91002573D01*
X55961918Y-91565003D01*
X56053703Y-91401960D01*
X56173593Y-91226821D01*
X56316788Y-91084447D01*
X56459300Y-90988888D01*
X56517482Y-90958678D01*
X56557311Y-90940514D01*
X56569166Y-90937970D01*
X56557595Y-90957571D01*
X56526183Y-91004263D01*
X56479877Y-91070821D01*
X56429787Y-91141419D01*
X56356873Y-91251786D01*
X56286340Y-91373748D01*
X56222124Y-91498867D01*
X56168163Y-91618702D01*
X56128393Y-91724815D01*
X56106750Y-91808766D01*
X56103958Y-91839937D01*
X56114679Y-91953728D01*
X56143455Y-92092201D01*
X56186956Y-92243503D01*
X56241856Y-92395778D01*
X56292751Y-92512441D01*
X56337403Y-92606413D01*
X56365017Y-92667384D01*
X56376862Y-92700525D01*
X56374206Y-92711004D01*
X56358319Y-92703992D01*
X56335990Y-92688589D01*
X56221285Y-92597272D01*
X56120734Y-92498693D01*
X56039603Y-92399511D01*
X55983158Y-92306386D01*
X55956667Y-92225980D01*
X55955333Y-92207209D01*
X55945682Y-92165383D01*
X55921655Y-92107583D01*
X55913000Y-92090639D01*
X55885623Y-92025558D01*
X55871284Y-91964143D01*
X55870666Y-91953008D01*
X55864424Y-91923221D01*
X55843054Y-91885273D01*
X55802592Y-91834212D01*
X55739073Y-91765082D01*
X55648533Y-91672930D01*
X55638535Y-91662951D01*
X55558433Y-91584204D01*
X55489155Y-91518198D01*
X55435990Y-91469803D01*
X55404225Y-91443892D01*
X55397712Y-91441062D01*
X55390632Y-91464773D01*
X55378807Y-91520558D01*
X55364212Y-91598697D01*
X55355812Y-91647137D01*
X55335410Y-91743414D01*
X55305209Y-91842297D01*
X55262691Y-91949046D01*
X55205338Y-92068920D01*
X55130632Y-92207178D01*
X55036053Y-92369081D01*
X54919085Y-92559887D01*
X54917872Y-92561834D01*
X54744503Y-92810846D01*
X54542852Y-93050377D01*
X54322233Y-93270570D01*
X54091961Y-93461563D01*
X54016904Y-93515493D01*
X53909775Y-93594737D01*
X53790338Y-93691450D01*
X53674985Y-93791980D01*
X53599459Y-93863199D01*
X53400112Y-94060292D01*
X53070713Y-94168313D01*
X52934858Y-94212218D01*
X52831832Y-94243314D01*
X52754516Y-94262808D01*
X52695795Y-94271907D01*
X52648550Y-94271818D01*
X52605665Y-94263749D01*
X52571493Y-94252981D01*
X52535405Y-94243545D01*
X52499641Y-94244833D01*
X52453759Y-94259682D01*
X52387314Y-94290932D01*
X52337241Y-94316647D01*
X52248600Y-94358604D01*
X52161233Y-94393005D01*
X52090666Y-94413915D01*
X52075961Y-94416553D01*
X51981943Y-94429440D01*
X52022909Y-94538095D01*
X52052758Y-94610301D01*
X52094283Y-94702025D01*
X52139340Y-94795379D01*
X52146937Y-94810464D01*
X52198108Y-94918215D01*
X52224852Y-94991796D01*
X52227219Y-95031579D01*
X52205255Y-95037936D01*
X52174574Y-95022135D01*
X52146407Y-94992352D01*
X52103332Y-94933472D01*
X52050426Y-94853720D01*
X51992766Y-94761316D01*
X51935428Y-94664485D01*
X51883490Y-94571448D01*
X51842029Y-94490429D01*
X51829549Y-94463307D01*
X51793151Y-94383424D01*
X51763888Y-94332446D01*
X51732782Y-94300132D01*
X51690856Y-94276239D01*
X51650624Y-94259187D01*
X51572129Y-94232384D01*
X51494561Y-94213658D01*
X51462223Y-94209227D01*
X51406026Y-94210011D01*
X51370395Y-94230184D01*
X51339731Y-94273332D01*
X51314718Y-94321939D01*
X51280273Y-94398802D01*
X51241403Y-94492384D01*
X51211378Y-94569176D01*
X51173667Y-94671018D01*
X51149603Y-94745868D01*
X51136780Y-94805901D01*
X51132789Y-94863295D01*
X51135222Y-94930227D01*
X51136429Y-94948146D01*
X51139559Y-95043641D01*
X51132489Y-95098472D01*
X51114994Y-95113117D01*
X51086846Y-95088052D01*
X51076795Y-95073632D01*
X51040891Y-94991090D01*
X51018093Y-94879338D01*
X51009733Y-94749828D01*
X51017146Y-94614013D01*
X51020373Y-94588966D01*
X51044086Y-94421288D01*
X50867267Y-94253915D01*
X50729777Y-94108546D01*
X50626400Y-93961484D01*
X50550168Y-93800825D01*
X50494856Y-93617785D01*
X50463963Y-93445545D01*
X50456203Y-93288275D01*
X50471107Y-93151843D01*
D17*
X109123445Y-58342684D02*
G75*
G03X108095000Y-54065000I-1808445J1827684D01*
G01*
X105503125Y-58356741D02*
G75*
G02X106495000Y-54065000I1811875J1841741D01*
G01*
X105515000Y-58365000D02*
X109115000Y-58365000D01*
X127350555Y-102312316D02*
G75*
G03X128379000Y-106590000I1808445J-1827684D01*
G01*
X130970875Y-102298259D02*
G75*
G02X129979000Y-106590000I-1811875J-1841741D01*
G01*
X130959000Y-102290000D02*
X127359000Y-102290000D01*
X130178500Y-100136000D02*
X130178500Y-98806000D01*
X131508500Y-100136000D02*
X130178500Y-100136000D01*
X132778500Y-100136000D02*
X132778500Y-97476000D01*
X132778500Y-97476000D02*
X137918500Y-97476000D01*
X132778500Y-100136000D02*
X137918500Y-100136000D01*
X137918500Y-100136000D02*
X137918500Y-97476000D01*
X133985000Y-104044000D02*
X133985000Y-104664000D01*
X134905000Y-103124000D02*
G75*
G03X134905000Y-103124000I-920000J0D01*
G01*
X66960000Y-52700000D02*
X67580000Y-52700000D01*
X66960000Y-52700000D02*
G75*
G03X66960000Y-52700000I-920000J0D01*
G01*
X76240000Y-53755000D02*
X76240000Y-54070000D01*
X76240000Y-51330000D02*
X76240000Y-51645000D01*
X71000000Y-53755000D02*
X71000000Y-54070000D01*
X71000000Y-51330000D02*
X71000000Y-51645000D01*
X71000000Y-54070000D02*
X76240000Y-54070000D01*
X71000000Y-51330000D02*
X76240000Y-51330000D01*
X107600000Y-78105000D02*
X108220000Y-78105000D01*
X107600000Y-78105000D02*
G75*
G03X107600000Y-78105000I-920000J0D01*
G01*
X107950000Y-65690000D02*
X107950000Y-66310000D01*
X108870000Y-64770000D02*
G75*
G03X108870000Y-64770000I-920000J0D01*
G01*
X110550000Y-70933000D02*
X110550000Y-72263000D01*
X109220000Y-70933000D02*
X110550000Y-70933000D01*
X107950000Y-70933000D02*
X107950000Y-73593000D01*
X107950000Y-73593000D02*
X105350000Y-73593000D01*
X107950000Y-70933000D02*
X105350000Y-70933000D01*
X105350000Y-70933000D02*
X105350000Y-73593000D01*
X107580000Y-52400000D02*
X106960000Y-52400000D01*
X109420000Y-52400000D02*
G75*
G03X109420000Y-52400000I-920000J0D01*
G01*
X115330000Y-51375000D02*
X115330000Y-52705000D01*
X114000000Y-51375000D02*
X115330000Y-51375000D01*
X112730000Y-51375000D02*
X112730000Y-54035000D01*
X112730000Y-54035000D02*
X110130000Y-54035000D01*
X112730000Y-51375000D02*
X110130000Y-51375000D01*
X110130000Y-51375000D02*
X110130000Y-54035000D01*
X97378759Y-51440000D02*
X97378759Y-52070000D01*
X97063759Y-51755000D02*
X97693759Y-51755000D01*
X103805000Y-53192000D02*
X103805000Y-53996000D01*
X103765000Y-52961000D02*
X103765000Y-54227000D01*
X103725000Y-52792000D02*
X103725000Y-54396000D01*
X103685000Y-52654000D02*
X103685000Y-54534000D01*
X103645000Y-52535000D02*
X103645000Y-54653000D01*
X103605000Y-52429000D02*
X103605000Y-54759000D01*
X103565000Y-52332000D02*
X103565000Y-54856000D01*
X103525000Y-52244000D02*
X103525000Y-54944000D01*
X103485000Y-52162000D02*
X103485000Y-55026000D01*
X103445000Y-52085000D02*
X103445000Y-55103000D01*
X103405000Y-52013000D02*
X103405000Y-55175000D01*
X103365000Y-51944000D02*
X103365000Y-55244000D01*
X103325000Y-51880000D02*
X103325000Y-55308000D01*
X103285000Y-51818000D02*
X103285000Y-55370000D01*
X103245000Y-51760000D02*
X103245000Y-55428000D01*
X103205000Y-51704000D02*
X103205000Y-55484000D01*
X103165000Y-51650000D02*
X103165000Y-55538000D01*
X103125000Y-51599000D02*
X103125000Y-55589000D01*
X103085000Y-51550000D02*
X103085000Y-55638000D01*
X103045000Y-51502000D02*
X103045000Y-55686000D01*
X103005000Y-51457000D02*
X103005000Y-55731000D01*
X102965000Y-51412000D02*
X102965000Y-55776000D01*
X102925000Y-51370000D02*
X102925000Y-55818000D01*
X102885000Y-51329000D02*
X102885000Y-55859000D01*
X102845000Y-54634000D02*
X102845000Y-55899000D01*
X102845000Y-51289000D02*
X102845000Y-52554000D01*
X102805000Y-54634000D02*
X102805000Y-55937000D01*
X102805000Y-51251000D02*
X102805000Y-52554000D01*
X102765000Y-54634000D02*
X102765000Y-55974000D01*
X102765000Y-51214000D02*
X102765000Y-52554000D01*
X102725000Y-54634000D02*
X102725000Y-56010000D01*
X102725000Y-51178000D02*
X102725000Y-52554000D01*
X102685000Y-54634000D02*
X102685000Y-56044000D01*
X102685000Y-51144000D02*
X102685000Y-52554000D01*
X102645000Y-54634000D02*
X102645000Y-56078000D01*
X102645000Y-51110000D02*
X102645000Y-52554000D01*
X102605000Y-54634000D02*
X102605000Y-56110000D01*
X102605000Y-51078000D02*
X102605000Y-52554000D01*
X102565000Y-54634000D02*
X102565000Y-56142000D01*
X102565000Y-51046000D02*
X102565000Y-52554000D01*
X102525000Y-54634000D02*
X102525000Y-56172000D01*
X102525000Y-51016000D02*
X102525000Y-52554000D01*
X102485000Y-54634000D02*
X102485000Y-56201000D01*
X102485000Y-50987000D02*
X102485000Y-52554000D01*
X102445000Y-54634000D02*
X102445000Y-56230000D01*
X102445000Y-50958000D02*
X102445000Y-52554000D01*
X102405000Y-54634000D02*
X102405000Y-56258000D01*
X102405000Y-50930000D02*
X102405000Y-52554000D01*
X102365000Y-54634000D02*
X102365000Y-56284000D01*
X102365000Y-50904000D02*
X102365000Y-52554000D01*
X102325000Y-54634000D02*
X102325000Y-56310000D01*
X102325000Y-50878000D02*
X102325000Y-52554000D01*
X102285000Y-54634000D02*
X102285000Y-56336000D01*
X102285000Y-50852000D02*
X102285000Y-52554000D01*
X102245000Y-54634000D02*
X102245000Y-56360000D01*
X102245000Y-50828000D02*
X102245000Y-52554000D01*
X102205000Y-54634000D02*
X102205000Y-56384000D01*
X102205000Y-50804000D02*
X102205000Y-52554000D01*
X102165000Y-54634000D02*
X102165000Y-56406000D01*
X102165000Y-50782000D02*
X102165000Y-52554000D01*
X102125000Y-54634000D02*
X102125000Y-56428000D01*
X102125000Y-50760000D02*
X102125000Y-52554000D01*
X102085000Y-54634000D02*
X102085000Y-56450000D01*
X102085000Y-50738000D02*
X102085000Y-52554000D01*
X102045000Y-54634000D02*
X102045000Y-56470000D01*
X102045000Y-50718000D02*
X102045000Y-52554000D01*
X102005000Y-54634000D02*
X102005000Y-56490000D01*
X102005000Y-50698000D02*
X102005000Y-52554000D01*
X101965000Y-54634000D02*
X101965000Y-56510000D01*
X101965000Y-50678000D02*
X101965000Y-52554000D01*
X101925000Y-54634000D02*
X101925000Y-56528000D01*
X101925000Y-50660000D02*
X101925000Y-52554000D01*
X101885000Y-54634000D02*
X101885000Y-56546000D01*
X101885000Y-50642000D02*
X101885000Y-52554000D01*
X101845000Y-54634000D02*
X101845000Y-56564000D01*
X101845000Y-50624000D02*
X101845000Y-52554000D01*
X101805000Y-54634000D02*
X101805000Y-56580000D01*
X101805000Y-50608000D02*
X101805000Y-52554000D01*
X101765000Y-54634000D02*
X101765000Y-56596000D01*
X101765000Y-50592000D02*
X101765000Y-52554000D01*
X101725000Y-54634000D02*
X101725000Y-56612000D01*
X101725000Y-50576000D02*
X101725000Y-52554000D01*
X101685000Y-54634000D02*
X101685000Y-56627000D01*
X101685000Y-50561000D02*
X101685000Y-52554000D01*
X101645000Y-54634000D02*
X101645000Y-56641000D01*
X101645000Y-50547000D02*
X101645000Y-52554000D01*
X101605000Y-54634000D02*
X101605000Y-56655000D01*
X101605000Y-50533000D02*
X101605000Y-52554000D01*
X101565000Y-54634000D02*
X101565000Y-56668000D01*
X101565000Y-50520000D02*
X101565000Y-52554000D01*
X101525000Y-54634000D02*
X101525000Y-56680000D01*
X101525000Y-50508000D02*
X101525000Y-52554000D01*
X101485000Y-54634000D02*
X101485000Y-56692000D01*
X101485000Y-50496000D02*
X101485000Y-52554000D01*
X101445000Y-54634000D02*
X101445000Y-56704000D01*
X101445000Y-50484000D02*
X101445000Y-52554000D01*
X101405000Y-54634000D02*
X101405000Y-56715000D01*
X101405000Y-50473000D02*
X101405000Y-52554000D01*
X101365000Y-54634000D02*
X101365000Y-56725000D01*
X101365000Y-50463000D02*
X101365000Y-52554000D01*
X101325000Y-54634000D02*
X101325000Y-56735000D01*
X101325000Y-50453000D02*
X101325000Y-52554000D01*
X101285000Y-54634000D02*
X101285000Y-56744000D01*
X101285000Y-50444000D02*
X101285000Y-52554000D01*
X101244000Y-54634000D02*
X101244000Y-56753000D01*
X101244000Y-50435000D02*
X101244000Y-52554000D01*
X101204000Y-54634000D02*
X101204000Y-56761000D01*
X101204000Y-50427000D02*
X101204000Y-52554000D01*
X101164000Y-54634000D02*
X101164000Y-56769000D01*
X101164000Y-50419000D02*
X101164000Y-52554000D01*
X101124000Y-54634000D02*
X101124000Y-56776000D01*
X101124000Y-50412000D02*
X101124000Y-52554000D01*
X101084000Y-54634000D02*
X101084000Y-56783000D01*
X101084000Y-50405000D02*
X101084000Y-52554000D01*
X101044000Y-54634000D02*
X101044000Y-56789000D01*
X101044000Y-50399000D02*
X101044000Y-52554000D01*
X101004000Y-54634000D02*
X101004000Y-56795000D01*
X101004000Y-50393000D02*
X101004000Y-52554000D01*
X100964000Y-54634000D02*
X100964000Y-56800000D01*
X100964000Y-50388000D02*
X100964000Y-52554000D01*
X100924000Y-54634000D02*
X100924000Y-56805000D01*
X100924000Y-50383000D02*
X100924000Y-52554000D01*
X100884000Y-54634000D02*
X100884000Y-56809000D01*
X100884000Y-50379000D02*
X100884000Y-52554000D01*
X100844000Y-54634000D02*
X100844000Y-56812000D01*
X100844000Y-50376000D02*
X100844000Y-52554000D01*
X100804000Y-54634000D02*
X100804000Y-56816000D01*
X100804000Y-50372000D02*
X100804000Y-52554000D01*
X100764000Y-50370000D02*
X100764000Y-56818000D01*
X100724000Y-50367000D02*
X100724000Y-56821000D01*
X100684000Y-50366000D02*
X100684000Y-56822000D01*
X100644000Y-50364000D02*
X100644000Y-56824000D01*
X100604000Y-50364000D02*
X100604000Y-56824000D01*
X100564000Y-50364000D02*
X100564000Y-56824000D01*
X103834000Y-53594000D02*
G75*
G03X103834000Y-53594000I-3270000J0D01*
G01*
X135334000Y-82531000D02*
X133834000Y-82531000D01*
X131334000Y-83781000D02*
X131334000Y-88281000D01*
X133834000Y-89531000D02*
X135334000Y-89531000D01*
X137834000Y-88281000D02*
X137834000Y-83781000D01*
X132655000Y-95056000D02*
X132655000Y-93726000D01*
X133985000Y-95056000D02*
X132655000Y-95056000D01*
X135255000Y-95056000D02*
X135255000Y-92396000D01*
X135255000Y-92396000D02*
X137855000Y-92396000D01*
X135255000Y-95056000D02*
X137855000Y-95056000D01*
X137855000Y-95056000D02*
X137855000Y-92396000D01*
X123094000Y-103378000D02*
X123714000Y-103378000D01*
X123094000Y-103378000D02*
G75*
G03X123094000Y-103378000I-920000J0D01*
G01*
X124000000Y-111080000D02*
X124000000Y-110460000D01*
X124920000Y-112000000D02*
G75*
G03X124920000Y-112000000I-920000J0D01*
G01*
X125699759Y-112146000D02*
X125699759Y-112776000D01*
X125384759Y-112461000D02*
X126014759Y-112461000D01*
X132126000Y-113898000D02*
X132126000Y-114702000D01*
X132086000Y-113667000D02*
X132086000Y-114933000D01*
X132046000Y-113498000D02*
X132046000Y-115102000D01*
X132006000Y-113360000D02*
X132006000Y-115240000D01*
X131966000Y-113241000D02*
X131966000Y-115359000D01*
X131926000Y-113135000D02*
X131926000Y-115465000D01*
X131886000Y-113038000D02*
X131886000Y-115562000D01*
X131846000Y-112950000D02*
X131846000Y-115650000D01*
X131806000Y-112868000D02*
X131806000Y-115732000D01*
X131766000Y-112791000D02*
X131766000Y-115809000D01*
X131726000Y-112719000D02*
X131726000Y-115881000D01*
X131686000Y-112650000D02*
X131686000Y-115950000D01*
X131646000Y-112586000D02*
X131646000Y-116014000D01*
X131606000Y-112524000D02*
X131606000Y-116076000D01*
X131566000Y-112466000D02*
X131566000Y-116134000D01*
X131526000Y-112410000D02*
X131526000Y-116190000D01*
X131486000Y-112356000D02*
X131486000Y-116244000D01*
X131446000Y-112305000D02*
X131446000Y-116295000D01*
X131406000Y-112256000D02*
X131406000Y-116344000D01*
X131366000Y-112208000D02*
X131366000Y-116392000D01*
X131326000Y-112163000D02*
X131326000Y-116437000D01*
X131286000Y-112118000D02*
X131286000Y-116482000D01*
X131246000Y-112076000D02*
X131246000Y-116524000D01*
X131206000Y-112035000D02*
X131206000Y-116565000D01*
X131166000Y-115340000D02*
X131166000Y-116605000D01*
X131166000Y-111995000D02*
X131166000Y-113260000D01*
X131126000Y-115340000D02*
X131126000Y-116643000D01*
X131126000Y-111957000D02*
X131126000Y-113260000D01*
X131086000Y-115340000D02*
X131086000Y-116680000D01*
X131086000Y-111920000D02*
X131086000Y-113260000D01*
X131046000Y-115340000D02*
X131046000Y-116716000D01*
X131046000Y-111884000D02*
X131046000Y-113260000D01*
X131006000Y-115340000D02*
X131006000Y-116750000D01*
X131006000Y-111850000D02*
X131006000Y-113260000D01*
X130966000Y-115340000D02*
X130966000Y-116784000D01*
X130966000Y-111816000D02*
X130966000Y-113260000D01*
X130926000Y-115340000D02*
X130926000Y-116816000D01*
X130926000Y-111784000D02*
X130926000Y-113260000D01*
X130886000Y-115340000D02*
X130886000Y-116848000D01*
X130886000Y-111752000D02*
X130886000Y-113260000D01*
X130846000Y-115340000D02*
X130846000Y-116878000D01*
X130846000Y-111722000D02*
X130846000Y-113260000D01*
X130806000Y-115340000D02*
X130806000Y-116907000D01*
X130806000Y-111693000D02*
X130806000Y-113260000D01*
X130766000Y-115340000D02*
X130766000Y-116936000D01*
X130766000Y-111664000D02*
X130766000Y-113260000D01*
X130726000Y-115340000D02*
X130726000Y-116964000D01*
X130726000Y-111636000D02*
X130726000Y-113260000D01*
X130686000Y-115340000D02*
X130686000Y-116990000D01*
X130686000Y-111610000D02*
X130686000Y-113260000D01*
X130646000Y-115340000D02*
X130646000Y-117016000D01*
X130646000Y-111584000D02*
X130646000Y-113260000D01*
X130606000Y-115340000D02*
X130606000Y-117042000D01*
X130606000Y-111558000D02*
X130606000Y-113260000D01*
X130566000Y-115340000D02*
X130566000Y-117066000D01*
X130566000Y-111534000D02*
X130566000Y-113260000D01*
X130526000Y-115340000D02*
X130526000Y-117090000D01*
X130526000Y-111510000D02*
X130526000Y-113260000D01*
X130486000Y-115340000D02*
X130486000Y-117112000D01*
X130486000Y-111488000D02*
X130486000Y-113260000D01*
X130446000Y-115340000D02*
X130446000Y-117134000D01*
X130446000Y-111466000D02*
X130446000Y-113260000D01*
X130406000Y-115340000D02*
X130406000Y-117156000D01*
X130406000Y-111444000D02*
X130406000Y-113260000D01*
X130366000Y-115340000D02*
X130366000Y-117176000D01*
X130366000Y-111424000D02*
X130366000Y-113260000D01*
X130326000Y-115340000D02*
X130326000Y-117196000D01*
X130326000Y-111404000D02*
X130326000Y-113260000D01*
X130286000Y-115340000D02*
X130286000Y-117216000D01*
X130286000Y-111384000D02*
X130286000Y-113260000D01*
X130246000Y-115340000D02*
X130246000Y-117234000D01*
X130246000Y-111366000D02*
X130246000Y-113260000D01*
X130206000Y-115340000D02*
X130206000Y-117252000D01*
X130206000Y-111348000D02*
X130206000Y-113260000D01*
X130166000Y-115340000D02*
X130166000Y-117270000D01*
X130166000Y-111330000D02*
X130166000Y-113260000D01*
X130126000Y-115340000D02*
X130126000Y-117286000D01*
X130126000Y-111314000D02*
X130126000Y-113260000D01*
X130086000Y-115340000D02*
X130086000Y-117302000D01*
X130086000Y-111298000D02*
X130086000Y-113260000D01*
X130046000Y-115340000D02*
X130046000Y-117318000D01*
X130046000Y-111282000D02*
X130046000Y-113260000D01*
X130006000Y-115340000D02*
X130006000Y-117333000D01*
X130006000Y-111267000D02*
X130006000Y-113260000D01*
X129966000Y-115340000D02*
X129966000Y-117347000D01*
X129966000Y-111253000D02*
X129966000Y-113260000D01*
X129926000Y-115340000D02*
X129926000Y-117361000D01*
X129926000Y-111239000D02*
X129926000Y-113260000D01*
X129886000Y-115340000D02*
X129886000Y-117374000D01*
X129886000Y-111226000D02*
X129886000Y-113260000D01*
X129846000Y-115340000D02*
X129846000Y-117386000D01*
X129846000Y-111214000D02*
X129846000Y-113260000D01*
X129806000Y-115340000D02*
X129806000Y-117398000D01*
X129806000Y-111202000D02*
X129806000Y-113260000D01*
X129766000Y-115340000D02*
X129766000Y-117410000D01*
X129766000Y-111190000D02*
X129766000Y-113260000D01*
X129726000Y-115340000D02*
X129726000Y-117421000D01*
X129726000Y-111179000D02*
X129726000Y-113260000D01*
X129686000Y-115340000D02*
X129686000Y-117431000D01*
X129686000Y-111169000D02*
X129686000Y-113260000D01*
X129646000Y-115340000D02*
X129646000Y-117441000D01*
X129646000Y-111159000D02*
X129646000Y-113260000D01*
X129606000Y-115340000D02*
X129606000Y-117450000D01*
X129606000Y-111150000D02*
X129606000Y-113260000D01*
X129565000Y-115340000D02*
X129565000Y-117459000D01*
X129565000Y-111141000D02*
X129565000Y-113260000D01*
X129525000Y-115340000D02*
X129525000Y-117467000D01*
X129525000Y-111133000D02*
X129525000Y-113260000D01*
X129485000Y-115340000D02*
X129485000Y-117475000D01*
X129485000Y-111125000D02*
X129485000Y-113260000D01*
X129445000Y-115340000D02*
X129445000Y-117482000D01*
X129445000Y-111118000D02*
X129445000Y-113260000D01*
X129405000Y-115340000D02*
X129405000Y-117489000D01*
X129405000Y-111111000D02*
X129405000Y-113260000D01*
X129365000Y-115340000D02*
X129365000Y-117495000D01*
X129365000Y-111105000D02*
X129365000Y-113260000D01*
X129325000Y-115340000D02*
X129325000Y-117501000D01*
X129325000Y-111099000D02*
X129325000Y-113260000D01*
X129285000Y-115340000D02*
X129285000Y-117506000D01*
X129285000Y-111094000D02*
X129285000Y-113260000D01*
X129245000Y-115340000D02*
X129245000Y-117511000D01*
X129245000Y-111089000D02*
X129245000Y-113260000D01*
X129205000Y-115340000D02*
X129205000Y-117515000D01*
X129205000Y-111085000D02*
X129205000Y-113260000D01*
X129165000Y-115340000D02*
X129165000Y-117518000D01*
X129165000Y-111082000D02*
X129165000Y-113260000D01*
X129125000Y-115340000D02*
X129125000Y-117522000D01*
X129125000Y-111078000D02*
X129125000Y-113260000D01*
X129085000Y-111076000D02*
X129085000Y-117524000D01*
X129045000Y-111073000D02*
X129045000Y-117527000D01*
X129005000Y-111072000D02*
X129005000Y-117528000D01*
X128965000Y-111070000D02*
X128965000Y-117530000D01*
X128925000Y-111070000D02*
X128925000Y-117530000D01*
X128885000Y-111070000D02*
X128885000Y-117530000D01*
X132155000Y-114300000D02*
G75*
G03X132155000Y-114300000I-3270000J0D01*
G01*
X109375000Y-115495000D02*
X109375000Y-112955000D01*
X115750000Y-115495000D02*
X109375000Y-115495000D01*
X115750000Y-84915000D02*
X115750000Y-115495000D01*
X109375000Y-84915000D02*
X109375000Y-87455000D01*
X115750000Y-84915000D02*
X109375000Y-84915000D01*
X64925000Y-112955000D02*
X77625000Y-112955000D01*
X64925000Y-115495000D02*
X64925000Y-112955000D01*
X58580000Y-115495000D02*
X64925000Y-115495000D01*
X58580000Y-84915000D02*
X58580000Y-115495000D01*
X64925000Y-84915000D02*
X58580000Y-84915000D01*
X64925000Y-87455000D02*
X64925000Y-84915000D01*
X64925000Y-87455000D02*
X77625000Y-87455000D01*
X109375000Y-112955000D02*
X96675000Y-112955000D01*
X77625000Y-84915000D02*
X77625000Y-87455000D01*
X96675000Y-84915000D02*
X77625000Y-84915000D01*
X96675000Y-87455000D02*
X96675000Y-84915000D01*
X109375000Y-87455000D02*
X96675000Y-87455000D01*
X96675000Y-115495000D02*
X96675000Y-112955000D01*
X77625000Y-115495000D02*
X96675000Y-115495000D01*
X77625000Y-112955000D02*
X77625000Y-115495000D01*
X115750000Y-100459000D02*
X58580000Y-100459000D01*
X58580000Y-99951000D02*
X115750000Y-99951000D01*
X96675000Y-90170000D02*
X96675000Y-91440000D01*
X78895000Y-90170000D02*
X96675000Y-90170000D01*
X78895000Y-91440000D02*
X78895000Y-90170000D01*
X77625000Y-91440000D02*
X78895000Y-91440000D01*
X77625000Y-93980000D02*
X77625000Y-91440000D01*
X78895000Y-93980000D02*
X77625000Y-93980000D01*
X78895000Y-95250000D02*
X78895000Y-93980000D01*
X96675000Y-95250000D02*
X78895000Y-95250000D01*
X96675000Y-91440000D02*
X96675000Y-95250000D01*
X95405000Y-110240000D02*
X77625000Y-110240000D01*
X95405000Y-108970000D02*
X95405000Y-110240000D01*
X96675000Y-108970000D02*
X95405000Y-108970000D01*
X96675000Y-106430000D02*
X96675000Y-108970000D01*
X95405000Y-106430000D02*
X96675000Y-106430000D01*
X95405000Y-105160000D02*
X95405000Y-106430000D01*
X77625000Y-105160000D02*
X95405000Y-105160000D01*
X77625000Y-110240000D02*
X77625000Y-105160000D01*
X117020000Y-83645000D02*
X57310000Y-83645000D01*
X57310000Y-83645000D02*
X57310000Y-116765000D01*
X57310000Y-116765000D02*
X117020000Y-116765000D01*
X117020000Y-116765000D02*
X117020000Y-83645000D01*
D10*
X77452380Y-69761904D02*
X78261904Y-69761904D01*
X78357142Y-69714285D01*
X78404761Y-69666666D01*
X78452380Y-69571428D01*
X78452380Y-69380952D01*
X78404761Y-69285714D01*
X78357142Y-69238095D01*
X78261904Y-69190476D01*
X77452380Y-69190476D01*
X78452380Y-68190476D02*
X78452380Y-68761904D01*
X78452380Y-68476190D02*
X77452380Y-68476190D01*
X77595238Y-68571428D01*
X77690476Y-68666666D01*
X77738095Y-68761904D01*
X104523809Y-65095238D02*
X104561904Y-64980952D01*
X104561904Y-64790476D01*
X104523809Y-64714285D01*
X104485714Y-64676190D01*
X104409523Y-64638095D01*
X104333333Y-64638095D01*
X104257142Y-64676190D01*
X104219047Y-64714285D01*
X104180952Y-64790476D01*
X104142857Y-64942857D01*
X104104761Y-65019047D01*
X104066666Y-65057142D01*
X103990476Y-65095238D01*
X103914285Y-65095238D01*
X103838095Y-65057142D01*
X103800000Y-65019047D01*
X103761904Y-64942857D01*
X103761904Y-64752380D01*
X103800000Y-64638095D01*
X103761904Y-64371428D02*
X104561904Y-64180952D01*
X103990476Y-64028571D01*
X104561904Y-63876190D01*
X103761904Y-63685714D01*
X104561904Y-63380952D02*
X103761904Y-63380952D01*
X103761904Y-63190476D01*
X103800000Y-63076190D01*
X103876190Y-63000000D01*
X103952380Y-62961904D01*
X104104761Y-62923809D01*
X104219047Y-62923809D01*
X104371428Y-62961904D01*
X104447619Y-63000000D01*
X104523809Y-63076190D01*
X104561904Y-63190476D01*
X104561904Y-63380952D01*
X104561904Y-62580952D02*
X103761904Y-62580952D01*
X103761904Y-62047619D02*
X103761904Y-61895238D01*
X103800000Y-61819047D01*
X103876190Y-61742857D01*
X104028571Y-61704761D01*
X104295238Y-61704761D01*
X104447619Y-61742857D01*
X104523809Y-61819047D01*
X104561904Y-61895238D01*
X104561904Y-62047619D01*
X104523809Y-62123809D01*
X104447619Y-62200000D01*
X104295238Y-62238095D01*
X104028571Y-62238095D01*
X103876190Y-62200000D01*
X103800000Y-62123809D01*
X103761904Y-62047619D01*
X104523809Y-76509523D02*
X104561904Y-76395238D01*
X104561904Y-76204761D01*
X104523809Y-76128571D01*
X104485714Y-76090476D01*
X104409523Y-76052380D01*
X104333333Y-76052380D01*
X104257142Y-76090476D01*
X104219047Y-76128571D01*
X104180952Y-76204761D01*
X104142857Y-76357142D01*
X104104761Y-76433333D01*
X104066666Y-76471428D01*
X103990476Y-76509523D01*
X103914285Y-76509523D01*
X103838095Y-76471428D01*
X103800000Y-76433333D01*
X103761904Y-76357142D01*
X103761904Y-76166666D01*
X103800000Y-76052380D01*
X103761904Y-75785714D02*
X104561904Y-75595238D01*
X103990476Y-75442857D01*
X104561904Y-75290476D01*
X103761904Y-75100000D01*
X104485714Y-74338095D02*
X104523809Y-74376190D01*
X104561904Y-74490476D01*
X104561904Y-74566666D01*
X104523809Y-74680952D01*
X104447619Y-74757142D01*
X104371428Y-74795238D01*
X104219047Y-74833333D01*
X104104761Y-74833333D01*
X103952380Y-74795238D01*
X103876190Y-74757142D01*
X103800000Y-74680952D01*
X103761904Y-74566666D01*
X103761904Y-74490476D01*
X103800000Y-74376190D01*
X103838095Y-74338095D01*
X104561904Y-73614285D02*
X104561904Y-73995238D01*
X103761904Y-73995238D01*
X104561904Y-73347619D02*
X103761904Y-73347619D01*
X104561904Y-72890476D02*
X104104761Y-73233333D01*
X103761904Y-72890476D02*
X104219047Y-73347619D01*
X71126333Y-56273523D02*
X71126333Y-55892571D01*
X71354904Y-56349714D02*
X70554904Y-56083047D01*
X71354904Y-55816380D01*
X70593000Y-55130666D02*
X70554904Y-55206857D01*
X70554904Y-55321142D01*
X70593000Y-55435428D01*
X70669190Y-55511619D01*
X70745380Y-55549714D01*
X70897761Y-55587809D01*
X71012047Y-55587809D01*
X71164428Y-55549714D01*
X71240619Y-55511619D01*
X71316809Y-55435428D01*
X71354904Y-55321142D01*
X71354904Y-55244952D01*
X71316809Y-55130666D01*
X71278714Y-55092571D01*
X71012047Y-55092571D01*
X71012047Y-55244952D01*
X71354904Y-54749714D02*
X70554904Y-54749714D01*
X71354904Y-54292571D01*
X70554904Y-54292571D01*
X71354904Y-53911619D02*
X70554904Y-53911619D01*
X70554904Y-53721142D01*
X70593000Y-53606857D01*
X70669190Y-53530666D01*
X70745380Y-53492571D01*
X70897761Y-53454476D01*
X71012047Y-53454476D01*
X71164428Y-53492571D01*
X71240619Y-53530666D01*
X71316809Y-53606857D01*
X71354904Y-53721142D01*
X71354904Y-53911619D01*
X58655000Y-55219523D02*
X58616904Y-55295714D01*
X58616904Y-55410000D01*
X58655000Y-55524285D01*
X58731190Y-55600476D01*
X58807380Y-55638571D01*
X58959761Y-55676666D01*
X59074047Y-55676666D01*
X59226428Y-55638571D01*
X59302619Y-55600476D01*
X59378809Y-55524285D01*
X59416904Y-55410000D01*
X59416904Y-55333809D01*
X59378809Y-55219523D01*
X59340714Y-55181428D01*
X59074047Y-55181428D01*
X59074047Y-55333809D01*
X59416904Y-54838571D02*
X58616904Y-54838571D01*
X59416904Y-54381428D01*
X58616904Y-54381428D01*
X59416904Y-54000476D02*
X58616904Y-54000476D01*
X58616904Y-53810000D01*
X58655000Y-53695714D01*
X58731190Y-53619523D01*
X58807380Y-53581428D01*
X58959761Y-53543333D01*
X59074047Y-53543333D01*
X59226428Y-53581428D01*
X59302619Y-53619523D01*
X59378809Y-53695714D01*
X59416904Y-53810000D01*
X59416904Y-54000476D01*
X83801000Y-55600523D02*
X83762904Y-55676714D01*
X83762904Y-55791000D01*
X83801000Y-55905285D01*
X83877190Y-55981476D01*
X83953380Y-56019571D01*
X84105761Y-56057666D01*
X84220047Y-56057666D01*
X84372428Y-56019571D01*
X84448619Y-55981476D01*
X84524809Y-55905285D01*
X84562904Y-55791000D01*
X84562904Y-55714809D01*
X84524809Y-55600523D01*
X84486714Y-55562428D01*
X84220047Y-55562428D01*
X84220047Y-55714809D01*
X84562904Y-55219571D02*
X83762904Y-55219571D01*
X84562904Y-54762428D01*
X83762904Y-54762428D01*
X84562904Y-54381476D02*
X83762904Y-54381476D01*
X83762904Y-54191000D01*
X83801000Y-54076714D01*
X83877190Y-54000523D01*
X83953380Y-53962428D01*
X84105761Y-53924333D01*
X84220047Y-53924333D01*
X84372428Y-53962428D01*
X84448619Y-54000523D01*
X84524809Y-54076714D01*
X84562904Y-54191000D01*
X84562904Y-54381476D01*
X96501000Y-55600523D02*
X96462904Y-55676714D01*
X96462904Y-55791000D01*
X96501000Y-55905285D01*
X96577190Y-55981476D01*
X96653380Y-56019571D01*
X96805761Y-56057666D01*
X96920047Y-56057666D01*
X97072428Y-56019571D01*
X97148619Y-55981476D01*
X97224809Y-55905285D01*
X97262904Y-55791000D01*
X97262904Y-55714809D01*
X97224809Y-55600523D01*
X97186714Y-55562428D01*
X96920047Y-55562428D01*
X96920047Y-55714809D01*
X97262904Y-55219571D02*
X96462904Y-55219571D01*
X97262904Y-54762428D01*
X96462904Y-54762428D01*
X97262904Y-54381476D02*
X96462904Y-54381476D01*
X96462904Y-54191000D01*
X96501000Y-54076714D01*
X96577190Y-54000523D01*
X96653380Y-53962428D01*
X96805761Y-53924333D01*
X96920047Y-53924333D01*
X97072428Y-53962428D01*
X97148619Y-54000523D01*
X97224809Y-54076714D01*
X97262904Y-54191000D01*
X97262904Y-54381476D01*
X99377576Y-82162700D02*
X99301385Y-82124604D01*
X99187100Y-82124604D01*
X99072814Y-82162700D01*
X98996623Y-82238890D01*
X98958528Y-82315080D01*
X98920433Y-82467461D01*
X98920433Y-82581747D01*
X98958528Y-82734128D01*
X98996623Y-82810319D01*
X99072814Y-82886509D01*
X99187100Y-82924604D01*
X99263290Y-82924604D01*
X99377576Y-82886509D01*
X99415671Y-82848414D01*
X99415671Y-82581747D01*
X99263290Y-82581747D01*
X99758528Y-82924604D02*
X99758528Y-82124604D01*
X100215671Y-82924604D01*
X100215671Y-82124604D01*
X100596623Y-82924604D02*
X100596623Y-82124604D01*
X100787100Y-82124604D01*
X100901385Y-82162700D01*
X100977576Y-82238890D01*
X101015671Y-82315080D01*
X101053766Y-82467461D01*
X101053766Y-82581747D01*
X101015671Y-82734128D01*
X100977576Y-82810319D01*
X100901385Y-82886509D01*
X100787100Y-82924604D01*
X100596623Y-82924604D01*
X83845476Y-82150000D02*
X83769285Y-82111904D01*
X83655000Y-82111904D01*
X83540714Y-82150000D01*
X83464523Y-82226190D01*
X83426428Y-82302380D01*
X83388333Y-82454761D01*
X83388333Y-82569047D01*
X83426428Y-82721428D01*
X83464523Y-82797619D01*
X83540714Y-82873809D01*
X83655000Y-82911904D01*
X83731190Y-82911904D01*
X83845476Y-82873809D01*
X83883571Y-82835714D01*
X83883571Y-82569047D01*
X83731190Y-82569047D01*
X84226428Y-82911904D02*
X84226428Y-82111904D01*
X84683571Y-82911904D01*
X84683571Y-82111904D01*
X85064523Y-82911904D02*
X85064523Y-82111904D01*
X85255000Y-82111904D01*
X85369285Y-82150000D01*
X85445476Y-82226190D01*
X85483571Y-82302380D01*
X85521666Y-82454761D01*
X85521666Y-82569047D01*
X85483571Y-82721428D01*
X85445476Y-82797619D01*
X85369285Y-82873809D01*
X85255000Y-82911904D01*
X85064523Y-82911904D01*
X71145476Y-82150000D02*
X71069285Y-82111904D01*
X70955000Y-82111904D01*
X70840714Y-82150000D01*
X70764523Y-82226190D01*
X70726428Y-82302380D01*
X70688333Y-82454761D01*
X70688333Y-82569047D01*
X70726428Y-82721428D01*
X70764523Y-82797619D01*
X70840714Y-82873809D01*
X70955000Y-82911904D01*
X71031190Y-82911904D01*
X71145476Y-82873809D01*
X71183571Y-82835714D01*
X71183571Y-82569047D01*
X71031190Y-82569047D01*
X71526428Y-82911904D02*
X71526428Y-82111904D01*
X71983571Y-82911904D01*
X71983571Y-82111904D01*
X72364523Y-82911904D02*
X72364523Y-82111904D01*
X72555000Y-82111904D01*
X72669285Y-82150000D01*
X72745476Y-82226190D01*
X72783571Y-82302380D01*
X72821666Y-82454761D01*
X72821666Y-82569047D01*
X72783571Y-82721428D01*
X72745476Y-82797619D01*
X72669285Y-82873809D01*
X72555000Y-82911904D01*
X72364523Y-82911904D01*
X58445476Y-82150000D02*
X58369285Y-82111904D01*
X58255000Y-82111904D01*
X58140714Y-82150000D01*
X58064523Y-82226190D01*
X58026428Y-82302380D01*
X57988333Y-82454761D01*
X57988333Y-82569047D01*
X58026428Y-82721428D01*
X58064523Y-82797619D01*
X58140714Y-82873809D01*
X58255000Y-82911904D01*
X58331190Y-82911904D01*
X58445476Y-82873809D01*
X58483571Y-82835714D01*
X58483571Y-82569047D01*
X58331190Y-82569047D01*
X58826428Y-82911904D02*
X58826428Y-82111904D01*
X59283571Y-82911904D01*
X59283571Y-82111904D01*
X59664523Y-82911904D02*
X59664523Y-82111904D01*
X59855000Y-82111904D01*
X59969285Y-82150000D01*
X60045476Y-82226190D01*
X60083571Y-82302380D01*
X60121666Y-82454761D01*
X60121666Y-82569047D01*
X60083571Y-82721428D01*
X60045476Y-82797619D01*
X59969285Y-82873809D01*
X59855000Y-82911904D01*
X59664523Y-82911904D01*
X50996904Y-56076666D02*
X51796904Y-55810000D01*
X50996904Y-55543333D01*
X51377857Y-55010000D02*
X51415952Y-54895714D01*
X51454047Y-54857619D01*
X51530238Y-54819523D01*
X51644523Y-54819523D01*
X51720714Y-54857619D01*
X51758809Y-54895714D01*
X51796904Y-54971904D01*
X51796904Y-55276666D01*
X50996904Y-55276666D01*
X50996904Y-55010000D01*
X51035000Y-54933809D01*
X51073095Y-54895714D01*
X51149285Y-54857619D01*
X51225476Y-54857619D01*
X51301666Y-54895714D01*
X51339761Y-54933809D01*
X51377857Y-55010000D01*
X51377857Y-55276666D01*
X50996904Y-54476666D02*
X51644523Y-54476666D01*
X51720714Y-54438571D01*
X51758809Y-54400476D01*
X51796904Y-54324285D01*
X51796904Y-54171904D01*
X51758809Y-54095714D01*
X51720714Y-54057619D01*
X51644523Y-54019523D01*
X50996904Y-54019523D01*
X51758809Y-53676666D02*
X51796904Y-53562380D01*
X51796904Y-53371904D01*
X51758809Y-53295714D01*
X51720714Y-53257619D01*
X51644523Y-53219523D01*
X51568333Y-53219523D01*
X51492142Y-53257619D01*
X51454047Y-53295714D01*
X51415952Y-53371904D01*
X51377857Y-53524285D01*
X51339761Y-53600476D01*
X51301666Y-53638571D01*
X51225476Y-53676666D01*
X51149285Y-53676666D01*
X51073095Y-53638571D01*
X51035000Y-53600476D01*
X50996904Y-53524285D01*
X50996904Y-53333809D01*
X51035000Y-53219523D01*
X56711904Y-55981428D02*
X57511904Y-55714761D01*
X56711904Y-55448095D01*
X57473809Y-55219523D02*
X57511904Y-55105238D01*
X57511904Y-54914761D01*
X57473809Y-54838571D01*
X57435714Y-54800476D01*
X57359523Y-54762380D01*
X57283333Y-54762380D01*
X57207142Y-54800476D01*
X57169047Y-54838571D01*
X57130952Y-54914761D01*
X57092857Y-55067142D01*
X57054761Y-55143333D01*
X57016666Y-55181428D01*
X56940476Y-55219523D01*
X56864285Y-55219523D01*
X56788095Y-55181428D01*
X56750000Y-55143333D01*
X56711904Y-55067142D01*
X56711904Y-54876666D01*
X56750000Y-54762380D01*
X57130952Y-54267142D02*
X57511904Y-54267142D01*
X56711904Y-54533809D02*
X57130952Y-54267142D01*
X56711904Y-54000476D01*
X57473809Y-53771904D02*
X57511904Y-53657619D01*
X57511904Y-53467142D01*
X57473809Y-53390952D01*
X57435714Y-53352857D01*
X57359523Y-53314761D01*
X57283333Y-53314761D01*
X57207142Y-53352857D01*
X57169047Y-53390952D01*
X57130952Y-53467142D01*
X57092857Y-53619523D01*
X57054761Y-53695714D01*
X57016666Y-53733809D01*
X56940476Y-53771904D01*
X56864285Y-53771904D01*
X56788095Y-53733809D01*
X56750000Y-53695714D01*
X56711904Y-53619523D01*
X56711904Y-53429047D01*
X56750000Y-53314761D01*
X60775904Y-55670190D02*
X60775904Y-55174952D01*
X61080666Y-55441619D01*
X61080666Y-55327333D01*
X61118761Y-55251142D01*
X61156857Y-55213047D01*
X61233047Y-55174952D01*
X61423523Y-55174952D01*
X61499714Y-55213047D01*
X61537809Y-55251142D01*
X61575904Y-55327333D01*
X61575904Y-55555904D01*
X61537809Y-55632095D01*
X61499714Y-55670190D01*
X60775904Y-54946380D02*
X61575904Y-54679714D01*
X60775904Y-54413047D01*
X60775904Y-54222571D02*
X60775904Y-53727333D01*
X61080666Y-53994000D01*
X61080666Y-53879714D01*
X61118761Y-53803523D01*
X61156857Y-53765428D01*
X61233047Y-53727333D01*
X61423523Y-53727333D01*
X61499714Y-53765428D01*
X61537809Y-53803523D01*
X61575904Y-53879714D01*
X61575904Y-54108285D01*
X61537809Y-54184476D01*
X61499714Y-54222571D01*
X61652095Y-53574952D02*
X61652095Y-52965428D01*
X61156857Y-52774952D02*
X61156857Y-52508285D01*
X61575904Y-52394000D02*
X61575904Y-52774952D01*
X60775904Y-52774952D01*
X60775904Y-52394000D01*
X61575904Y-52051142D02*
X60775904Y-52051142D01*
X61575904Y-51594000D01*
X60775904Y-51594000D01*
X62426904Y-55600476D02*
X62426904Y-55105238D01*
X62731666Y-55371904D01*
X62731666Y-55257619D01*
X62769761Y-55181428D01*
X62807857Y-55143333D01*
X62884047Y-55105238D01*
X63074523Y-55105238D01*
X63150714Y-55143333D01*
X63188809Y-55181428D01*
X63226904Y-55257619D01*
X63226904Y-55486190D01*
X63188809Y-55562380D01*
X63150714Y-55600476D01*
X62426904Y-54876666D02*
X63226904Y-54610000D01*
X62426904Y-54343333D01*
X62426904Y-54152857D02*
X62426904Y-53657619D01*
X62731666Y-53924285D01*
X62731666Y-53810000D01*
X62769761Y-53733809D01*
X62807857Y-53695714D01*
X62884047Y-53657619D01*
X63074523Y-53657619D01*
X63150714Y-53695714D01*
X63188809Y-53733809D01*
X63226904Y-53810000D01*
X63226904Y-54038571D01*
X63188809Y-54114761D01*
X63150714Y-54152857D01*
X62736226Y-52129788D02*
X63005600Y-52399162D01*
X62520727Y-52237537D02*
X63274974Y-51860414D01*
X62897850Y-52614661D01*
X63086412Y-52803223D02*
X63652097Y-52237537D01*
X63786784Y-52372224D01*
X63840659Y-52479974D01*
X63840659Y-52587723D01*
X63813722Y-52668536D01*
X63732910Y-52803223D01*
X63652097Y-52884035D01*
X63517410Y-52964847D01*
X63436598Y-52991784D01*
X63328849Y-52991784D01*
X63221099Y-52937910D01*
X63086412Y-52803223D01*
X64029221Y-53638282D02*
X63975346Y-53638282D01*
X63867597Y-53584407D01*
X63813722Y-53530532D01*
X63759847Y-53422783D01*
X63759847Y-53315033D01*
X63786784Y-53234221D01*
X63867597Y-53099534D01*
X63948409Y-53018722D01*
X64083096Y-52937910D01*
X64163908Y-52910972D01*
X64271658Y-52910972D01*
X64379407Y-52964847D01*
X64433282Y-53018722D01*
X64487157Y-53126471D01*
X64487157Y-53180346D01*
X64029221Y-53853781D02*
X64460219Y-54284780D01*
X65133654Y-53719094D02*
X64756531Y-54473341D01*
X65510778Y-54096218D01*
X65456903Y-55173714D02*
X65537715Y-54715778D01*
X65133654Y-54850465D02*
X65699340Y-54284780D01*
X65914839Y-54500279D01*
X65941776Y-54581091D01*
X65941776Y-54634966D01*
X65914839Y-54715778D01*
X65834027Y-54796590D01*
X65753215Y-54823528D01*
X65699340Y-54823528D01*
X65618528Y-54796590D01*
X65403028Y-54581091D01*
X65995651Y-55119839D02*
X66184213Y-55308401D01*
X65968714Y-55685524D02*
X65699340Y-55416150D01*
X66265025Y-54850465D01*
X66534399Y-55119839D01*
X66696024Y-55820211D02*
X66507462Y-55631650D01*
X66211150Y-55927961D02*
X66776836Y-55362276D01*
X67046210Y-55631650D01*
X69196000Y-55816380D02*
X69157904Y-55892571D01*
X69157904Y-56006857D01*
X69196000Y-56121142D01*
X69272190Y-56197333D01*
X69348380Y-56235428D01*
X69500761Y-56273523D01*
X69615047Y-56273523D01*
X69767428Y-56235428D01*
X69843619Y-56197333D01*
X69919809Y-56121142D01*
X69957904Y-56006857D01*
X69957904Y-55930666D01*
X69919809Y-55816380D01*
X69881714Y-55778285D01*
X69615047Y-55778285D01*
X69615047Y-55930666D01*
X69957904Y-55435428D02*
X69157904Y-55435428D01*
X69157904Y-55130666D01*
X69196000Y-55054476D01*
X69234095Y-55016380D01*
X69310285Y-54978285D01*
X69424571Y-54978285D01*
X69500761Y-55016380D01*
X69538857Y-55054476D01*
X69576952Y-55130666D01*
X69576952Y-55435428D01*
X69234095Y-54673523D02*
X69196000Y-54635428D01*
X69157904Y-54559238D01*
X69157904Y-54368761D01*
X69196000Y-54292571D01*
X69234095Y-54254476D01*
X69310285Y-54216380D01*
X69386476Y-54216380D01*
X69500761Y-54254476D01*
X69957904Y-54711619D01*
X69957904Y-54216380D01*
X69500761Y-53759238D02*
X69462666Y-53835428D01*
X69424571Y-53873523D01*
X69348380Y-53911619D01*
X69310285Y-53911619D01*
X69234095Y-53873523D01*
X69196000Y-53835428D01*
X69157904Y-53759238D01*
X69157904Y-53606857D01*
X69196000Y-53530666D01*
X69234095Y-53492571D01*
X69310285Y-53454476D01*
X69348380Y-53454476D01*
X69424571Y-53492571D01*
X69462666Y-53530666D01*
X69500761Y-53606857D01*
X69500761Y-53759238D01*
X69538857Y-53835428D01*
X69576952Y-53873523D01*
X69653142Y-53911619D01*
X69805523Y-53911619D01*
X69881714Y-53873523D01*
X69919809Y-53835428D01*
X69957904Y-53759238D01*
X69957904Y-53606857D01*
X69919809Y-53530666D01*
X69881714Y-53492571D01*
X69805523Y-53454476D01*
X69653142Y-53454476D01*
X69576952Y-53492571D01*
X69538857Y-53530666D01*
X69500761Y-53606857D01*
X73895000Y-55562380D02*
X73856904Y-55638571D01*
X73856904Y-55752857D01*
X73895000Y-55867142D01*
X73971190Y-55943333D01*
X74047380Y-55981428D01*
X74199761Y-56019523D01*
X74314047Y-56019523D01*
X74466428Y-55981428D01*
X74542619Y-55943333D01*
X74618809Y-55867142D01*
X74656904Y-55752857D01*
X74656904Y-55676666D01*
X74618809Y-55562380D01*
X74580714Y-55524285D01*
X74314047Y-55524285D01*
X74314047Y-55676666D01*
X74656904Y-55181428D02*
X73856904Y-55181428D01*
X73856904Y-54876666D01*
X73895000Y-54800476D01*
X73933095Y-54762380D01*
X74009285Y-54724285D01*
X74123571Y-54724285D01*
X74199761Y-54762380D01*
X74237857Y-54800476D01*
X74275952Y-54876666D01*
X74275952Y-55181428D01*
X73933095Y-54419523D02*
X73895000Y-54381428D01*
X73856904Y-54305238D01*
X73856904Y-54114761D01*
X73895000Y-54038571D01*
X73933095Y-54000476D01*
X74009285Y-53962380D01*
X74085476Y-53962380D01*
X74199761Y-54000476D01*
X74656904Y-54457619D01*
X74656904Y-53962380D01*
X73856904Y-53695714D02*
X73856904Y-53162380D01*
X74656904Y-53505238D01*
X76816000Y-55943380D02*
X76777904Y-56019571D01*
X76777904Y-56133857D01*
X76816000Y-56248142D01*
X76892190Y-56324333D01*
X76968380Y-56362428D01*
X77120761Y-56400523D01*
X77235047Y-56400523D01*
X77387428Y-56362428D01*
X77463619Y-56324333D01*
X77539809Y-56248142D01*
X77577904Y-56133857D01*
X77577904Y-56057666D01*
X77539809Y-55943380D01*
X77501714Y-55905285D01*
X77235047Y-55905285D01*
X77235047Y-56057666D01*
X77577904Y-55562428D02*
X76777904Y-55562428D01*
X76777904Y-55257666D01*
X76816000Y-55181476D01*
X76854095Y-55143380D01*
X76930285Y-55105285D01*
X77044571Y-55105285D01*
X77120761Y-55143380D01*
X77158857Y-55181476D01*
X77196952Y-55257666D01*
X77196952Y-55562428D01*
X76854095Y-54800523D02*
X76816000Y-54762428D01*
X76777904Y-54686238D01*
X76777904Y-54495761D01*
X76816000Y-54419571D01*
X76854095Y-54381476D01*
X76930285Y-54343380D01*
X77006476Y-54343380D01*
X77120761Y-54381476D01*
X77577904Y-54838619D01*
X77577904Y-54343380D01*
X76777904Y-53657666D02*
X76777904Y-53810047D01*
X76816000Y-53886238D01*
X76854095Y-53924333D01*
X76968380Y-54000523D01*
X77120761Y-54038619D01*
X77425523Y-54038619D01*
X77501714Y-54000523D01*
X77539809Y-53962428D01*
X77577904Y-53886238D01*
X77577904Y-53733857D01*
X77539809Y-53657666D01*
X77501714Y-53619571D01*
X77425523Y-53581476D01*
X77235047Y-53581476D01*
X77158857Y-53619571D01*
X77120761Y-53657666D01*
X77082666Y-53733857D01*
X77082666Y-53886238D01*
X77120761Y-53962428D01*
X77158857Y-54000523D01*
X77235047Y-54038619D01*
X79736904Y-55200476D02*
X79355952Y-55467142D01*
X79736904Y-55657619D02*
X78936904Y-55657619D01*
X78936904Y-55352857D01*
X78975000Y-55276666D01*
X79013095Y-55238571D01*
X79089285Y-55200476D01*
X79203571Y-55200476D01*
X79279761Y-55238571D01*
X79317857Y-55276666D01*
X79355952Y-55352857D01*
X79355952Y-55657619D01*
X78936904Y-54857619D02*
X79584523Y-54857619D01*
X79660714Y-54819523D01*
X79698809Y-54781428D01*
X79736904Y-54705238D01*
X79736904Y-54552857D01*
X79698809Y-54476666D01*
X79660714Y-54438571D01*
X79584523Y-54400476D01*
X78936904Y-54400476D01*
X79736904Y-54019523D02*
X78936904Y-54019523D01*
X79736904Y-53562380D01*
X78936904Y-53562380D01*
X81515000Y-55562380D02*
X81476904Y-55638571D01*
X81476904Y-55752857D01*
X81515000Y-55867142D01*
X81591190Y-55943333D01*
X81667380Y-55981428D01*
X81819761Y-56019523D01*
X81934047Y-56019523D01*
X82086428Y-55981428D01*
X82162619Y-55943333D01*
X82238809Y-55867142D01*
X82276904Y-55752857D01*
X82276904Y-55676666D01*
X82238809Y-55562380D01*
X82200714Y-55524285D01*
X81934047Y-55524285D01*
X81934047Y-55676666D01*
X82276904Y-55181428D02*
X81476904Y-55181428D01*
X81476904Y-54876666D01*
X81515000Y-54800476D01*
X81553095Y-54762380D01*
X81629285Y-54724285D01*
X81743571Y-54724285D01*
X81819761Y-54762380D01*
X81857857Y-54800476D01*
X81895952Y-54876666D01*
X81895952Y-55181428D01*
X81553095Y-54419523D02*
X81515000Y-54381428D01*
X81476904Y-54305238D01*
X81476904Y-54114761D01*
X81515000Y-54038571D01*
X81553095Y-54000476D01*
X81629285Y-53962380D01*
X81705476Y-53962380D01*
X81819761Y-54000476D01*
X82276904Y-54457619D01*
X82276904Y-53962380D01*
X81553095Y-53657619D02*
X81515000Y-53619523D01*
X81476904Y-53543333D01*
X81476904Y-53352857D01*
X81515000Y-53276666D01*
X81553095Y-53238571D01*
X81629285Y-53200476D01*
X81705476Y-53200476D01*
X81819761Y-53238571D01*
X82276904Y-53695714D01*
X82276904Y-53200476D01*
X86595000Y-55562380D02*
X86556904Y-55638571D01*
X86556904Y-55752857D01*
X86595000Y-55867142D01*
X86671190Y-55943333D01*
X86747380Y-55981428D01*
X86899761Y-56019523D01*
X87014047Y-56019523D01*
X87166428Y-55981428D01*
X87242619Y-55943333D01*
X87318809Y-55867142D01*
X87356904Y-55752857D01*
X87356904Y-55676666D01*
X87318809Y-55562380D01*
X87280714Y-55524285D01*
X87014047Y-55524285D01*
X87014047Y-55676666D01*
X87356904Y-55181428D02*
X86556904Y-55181428D01*
X86556904Y-54876666D01*
X86595000Y-54800476D01*
X86633095Y-54762380D01*
X86709285Y-54724285D01*
X86823571Y-54724285D01*
X86899761Y-54762380D01*
X86937857Y-54800476D01*
X86975952Y-54876666D01*
X86975952Y-55181428D01*
X86633095Y-54419523D02*
X86595000Y-54381428D01*
X86556904Y-54305238D01*
X86556904Y-54114761D01*
X86595000Y-54038571D01*
X86633095Y-54000476D01*
X86709285Y-53962380D01*
X86785476Y-53962380D01*
X86899761Y-54000476D01*
X87356904Y-54457619D01*
X87356904Y-53962380D01*
X87356904Y-53200476D02*
X87356904Y-53657619D01*
X87356904Y-53429047D02*
X86556904Y-53429047D01*
X86671190Y-53505238D01*
X86747380Y-53581428D01*
X86785476Y-53657619D01*
X89135000Y-55562380D02*
X89096904Y-55638571D01*
X89096904Y-55752857D01*
X89135000Y-55867142D01*
X89211190Y-55943333D01*
X89287380Y-55981428D01*
X89439761Y-56019523D01*
X89554047Y-56019523D01*
X89706428Y-55981428D01*
X89782619Y-55943333D01*
X89858809Y-55867142D01*
X89896904Y-55752857D01*
X89896904Y-55676666D01*
X89858809Y-55562380D01*
X89820714Y-55524285D01*
X89554047Y-55524285D01*
X89554047Y-55676666D01*
X89896904Y-55181428D02*
X89096904Y-55181428D01*
X89096904Y-54876666D01*
X89135000Y-54800476D01*
X89173095Y-54762380D01*
X89249285Y-54724285D01*
X89363571Y-54724285D01*
X89439761Y-54762380D01*
X89477857Y-54800476D01*
X89515952Y-54876666D01*
X89515952Y-55181428D01*
X89173095Y-54419523D02*
X89135000Y-54381428D01*
X89096904Y-54305238D01*
X89096904Y-54114761D01*
X89135000Y-54038571D01*
X89173095Y-54000476D01*
X89249285Y-53962380D01*
X89325476Y-53962380D01*
X89439761Y-54000476D01*
X89896904Y-54457619D01*
X89896904Y-53962380D01*
X89096904Y-53467142D02*
X89096904Y-53390952D01*
X89135000Y-53314761D01*
X89173095Y-53276666D01*
X89249285Y-53238571D01*
X89401666Y-53200476D01*
X89592142Y-53200476D01*
X89744523Y-53238571D01*
X89820714Y-53276666D01*
X89858809Y-53314761D01*
X89896904Y-53390952D01*
X89896904Y-53467142D01*
X89858809Y-53543333D01*
X89820714Y-53581428D01*
X89744523Y-53619523D01*
X89592142Y-53657619D01*
X89401666Y-53657619D01*
X89249285Y-53619523D01*
X89173095Y-53581428D01*
X89135000Y-53543333D01*
X89096904Y-53467142D01*
X91570000Y-55562380D02*
X91531904Y-55638571D01*
X91531904Y-55752857D01*
X91570000Y-55867142D01*
X91646190Y-55943333D01*
X91722380Y-55981428D01*
X91874761Y-56019523D01*
X91989047Y-56019523D01*
X92141428Y-55981428D01*
X92217619Y-55943333D01*
X92293809Y-55867142D01*
X92331904Y-55752857D01*
X92331904Y-55676666D01*
X92293809Y-55562380D01*
X92255714Y-55524285D01*
X91989047Y-55524285D01*
X91989047Y-55676666D01*
X92331904Y-55181428D02*
X91531904Y-55181428D01*
X91531904Y-54876666D01*
X91570000Y-54800476D01*
X91608095Y-54762380D01*
X91684285Y-54724285D01*
X91798571Y-54724285D01*
X91874761Y-54762380D01*
X91912857Y-54800476D01*
X91950952Y-54876666D01*
X91950952Y-55181428D01*
X92331904Y-53962380D02*
X92331904Y-54419523D01*
X92331904Y-54190952D02*
X91531904Y-54190952D01*
X91646190Y-54267142D01*
X91722380Y-54343333D01*
X91760476Y-54419523D01*
X92331904Y-53581428D02*
X92331904Y-53429047D01*
X92293809Y-53352857D01*
X92255714Y-53314761D01*
X92141428Y-53238571D01*
X91989047Y-53200476D01*
X91684285Y-53200476D01*
X91608095Y-53238571D01*
X91570000Y-53276666D01*
X91531904Y-53352857D01*
X91531904Y-53505238D01*
X91570000Y-53581428D01*
X91608095Y-53619523D01*
X91684285Y-53657619D01*
X91874761Y-53657619D01*
X91950952Y-53619523D01*
X91989047Y-53581428D01*
X92027142Y-53505238D01*
X92027142Y-53352857D01*
X91989047Y-53276666D01*
X91950952Y-53238571D01*
X91874761Y-53200476D01*
X94215000Y-55562380D02*
X94176904Y-55638571D01*
X94176904Y-55752857D01*
X94215000Y-55867142D01*
X94291190Y-55943333D01*
X94367380Y-55981428D01*
X94519761Y-56019523D01*
X94634047Y-56019523D01*
X94786428Y-55981428D01*
X94862619Y-55943333D01*
X94938809Y-55867142D01*
X94976904Y-55752857D01*
X94976904Y-55676666D01*
X94938809Y-55562380D01*
X94900714Y-55524285D01*
X94634047Y-55524285D01*
X94634047Y-55676666D01*
X94976904Y-55181428D02*
X94176904Y-55181428D01*
X94176904Y-54876666D01*
X94215000Y-54800476D01*
X94253095Y-54762380D01*
X94329285Y-54724285D01*
X94443571Y-54724285D01*
X94519761Y-54762380D01*
X94557857Y-54800476D01*
X94595952Y-54876666D01*
X94595952Y-55181428D01*
X94976904Y-53962380D02*
X94976904Y-54419523D01*
X94976904Y-54190952D02*
X94176904Y-54190952D01*
X94291190Y-54267142D01*
X94367380Y-54343333D01*
X94405476Y-54419523D01*
X94519761Y-53505238D02*
X94481666Y-53581428D01*
X94443571Y-53619523D01*
X94367380Y-53657619D01*
X94329285Y-53657619D01*
X94253095Y-53619523D01*
X94215000Y-53581428D01*
X94176904Y-53505238D01*
X94176904Y-53352857D01*
X94215000Y-53276666D01*
X94253095Y-53238571D01*
X94329285Y-53200476D01*
X94367380Y-53200476D01*
X94443571Y-53238571D01*
X94481666Y-53276666D01*
X94519761Y-53352857D01*
X94519761Y-53505238D01*
X94557857Y-53581428D01*
X94595952Y-53619523D01*
X94672142Y-53657619D01*
X94824523Y-53657619D01*
X94900714Y-53619523D01*
X94938809Y-53581428D01*
X94976904Y-53505238D01*
X94976904Y-53352857D01*
X94938809Y-53276666D01*
X94900714Y-53238571D01*
X94824523Y-53200476D01*
X94672142Y-53200476D01*
X94595952Y-53238571D01*
X94557857Y-53276666D01*
X94519761Y-53352857D01*
X103816200Y-57327680D02*
X103778104Y-57403871D01*
X103778104Y-57518157D01*
X103816200Y-57632442D01*
X103892390Y-57708633D01*
X103968580Y-57746728D01*
X104120961Y-57784823D01*
X104235247Y-57784823D01*
X104387628Y-57746728D01*
X104463819Y-57708633D01*
X104540009Y-57632442D01*
X104578104Y-57518157D01*
X104578104Y-57441966D01*
X104540009Y-57327680D01*
X104501914Y-57289585D01*
X104235247Y-57289585D01*
X104235247Y-57441966D01*
X104578104Y-56946728D02*
X103778104Y-56946728D01*
X103778104Y-56641966D01*
X103816200Y-56565776D01*
X103854295Y-56527680D01*
X103930485Y-56489585D01*
X104044771Y-56489585D01*
X104120961Y-56527680D01*
X104159057Y-56565776D01*
X104197152Y-56641966D01*
X104197152Y-56946728D01*
X104578104Y-55727680D02*
X104578104Y-56184823D01*
X104578104Y-55956252D02*
X103778104Y-55956252D01*
X103892390Y-56032442D01*
X103968580Y-56108633D01*
X104006676Y-56184823D01*
X103778104Y-55461014D02*
X103778104Y-54927680D01*
X104578104Y-55270538D01*
X103816200Y-60552380D02*
X103778104Y-60628571D01*
X103778104Y-60742857D01*
X103816200Y-60857142D01*
X103892390Y-60933333D01*
X103968580Y-60971428D01*
X104120961Y-61009523D01*
X104235247Y-61009523D01*
X104387628Y-60971428D01*
X104463819Y-60933333D01*
X104540009Y-60857142D01*
X104578104Y-60742857D01*
X104578104Y-60666666D01*
X104540009Y-60552380D01*
X104501914Y-60514285D01*
X104235247Y-60514285D01*
X104235247Y-60666666D01*
X104578104Y-60171428D02*
X103778104Y-60171428D01*
X103778104Y-59866666D01*
X103816200Y-59790476D01*
X103854295Y-59752380D01*
X103930485Y-59714285D01*
X104044771Y-59714285D01*
X104120961Y-59752380D01*
X104159057Y-59790476D01*
X104197152Y-59866666D01*
X104197152Y-60171428D01*
X104578104Y-58952380D02*
X104578104Y-59409523D01*
X104578104Y-59180952D02*
X103778104Y-59180952D01*
X103892390Y-59257142D01*
X103968580Y-59333333D01*
X104006676Y-59409523D01*
X103778104Y-58266666D02*
X103778104Y-58419047D01*
X103816200Y-58495238D01*
X103854295Y-58533333D01*
X103968580Y-58609523D01*
X104120961Y-58647619D01*
X104425723Y-58647619D01*
X104501914Y-58609523D01*
X104540009Y-58571428D01*
X104578104Y-58495238D01*
X104578104Y-58342857D01*
X104540009Y-58266666D01*
X104501914Y-58228571D01*
X104425723Y-58190476D01*
X104235247Y-58190476D01*
X104159057Y-58228571D01*
X104120961Y-58266666D01*
X104082866Y-58342857D01*
X104082866Y-58495238D01*
X104120961Y-58571428D01*
X104159057Y-58609523D01*
X104235247Y-58647619D01*
X104965619Y-82188100D02*
X104889428Y-82150004D01*
X104775142Y-82150004D01*
X104660857Y-82188100D01*
X104584666Y-82264290D01*
X104546571Y-82340480D01*
X104508476Y-82492861D01*
X104508476Y-82607147D01*
X104546571Y-82759528D01*
X104584666Y-82835719D01*
X104660857Y-82911909D01*
X104775142Y-82950004D01*
X104851333Y-82950004D01*
X104965619Y-82911909D01*
X105003714Y-82873814D01*
X105003714Y-82607147D01*
X104851333Y-82607147D01*
X105346571Y-82950004D02*
X105346571Y-82150004D01*
X105651333Y-82150004D01*
X105727523Y-82188100D01*
X105765619Y-82226195D01*
X105803714Y-82302385D01*
X105803714Y-82416671D01*
X105765619Y-82492861D01*
X105727523Y-82530957D01*
X105651333Y-82569052D01*
X105346571Y-82569052D01*
X106565619Y-82950004D02*
X106108476Y-82950004D01*
X106337047Y-82950004D02*
X106337047Y-82150004D01*
X106260857Y-82264290D01*
X106184666Y-82340480D01*
X106108476Y-82378576D01*
X107289428Y-82150004D02*
X106908476Y-82150004D01*
X106870380Y-82530957D01*
X106908476Y-82492861D01*
X106984666Y-82454766D01*
X107175142Y-82454766D01*
X107251333Y-82492861D01*
X107289428Y-82530957D01*
X107327523Y-82607147D01*
X107327523Y-82797623D01*
X107289428Y-82873814D01*
X107251333Y-82911909D01*
X107175142Y-82950004D01*
X106984666Y-82950004D01*
X106908476Y-82911909D01*
X106870380Y-82873814D01*
X101828719Y-82188100D02*
X101752528Y-82150004D01*
X101638242Y-82150004D01*
X101523957Y-82188100D01*
X101447766Y-82264290D01*
X101409671Y-82340480D01*
X101371576Y-82492861D01*
X101371576Y-82607147D01*
X101409671Y-82759528D01*
X101447766Y-82835719D01*
X101523957Y-82911909D01*
X101638242Y-82950004D01*
X101714433Y-82950004D01*
X101828719Y-82911909D01*
X101866814Y-82873814D01*
X101866814Y-82607147D01*
X101714433Y-82607147D01*
X102209671Y-82950004D02*
X102209671Y-82150004D01*
X102514433Y-82150004D01*
X102590623Y-82188100D01*
X102628719Y-82226195D01*
X102666814Y-82302385D01*
X102666814Y-82416671D01*
X102628719Y-82492861D01*
X102590623Y-82530957D01*
X102514433Y-82569052D01*
X102209671Y-82569052D01*
X103428719Y-82950004D02*
X102971576Y-82950004D01*
X103200147Y-82950004D02*
X103200147Y-82150004D01*
X103123957Y-82264290D01*
X103047766Y-82340480D01*
X102971576Y-82378576D01*
X104114433Y-82416671D02*
X104114433Y-82950004D01*
X103923957Y-82111909D02*
X103733480Y-82683338D01*
X104228719Y-82683338D01*
X96202619Y-82150000D02*
X96126428Y-82111904D01*
X96012142Y-82111904D01*
X95897857Y-82150000D01*
X95821666Y-82226190D01*
X95783571Y-82302380D01*
X95745476Y-82454761D01*
X95745476Y-82569047D01*
X95783571Y-82721428D01*
X95821666Y-82797619D01*
X95897857Y-82873809D01*
X96012142Y-82911904D01*
X96088333Y-82911904D01*
X96202619Y-82873809D01*
X96240714Y-82835714D01*
X96240714Y-82569047D01*
X96088333Y-82569047D01*
X96583571Y-82911904D02*
X96583571Y-82111904D01*
X96888333Y-82111904D01*
X96964523Y-82150000D01*
X97002619Y-82188095D01*
X97040714Y-82264285D01*
X97040714Y-82378571D01*
X97002619Y-82454761D01*
X96964523Y-82492857D01*
X96888333Y-82530952D01*
X96583571Y-82530952D01*
X97802619Y-82911904D02*
X97345476Y-82911904D01*
X97574047Y-82911904D02*
X97574047Y-82111904D01*
X97497857Y-82226190D01*
X97421666Y-82302380D01*
X97345476Y-82340476D01*
X98069285Y-82111904D02*
X98564523Y-82111904D01*
X98297857Y-82416666D01*
X98412142Y-82416666D01*
X98488333Y-82454761D01*
X98526428Y-82492857D01*
X98564523Y-82569047D01*
X98564523Y-82759523D01*
X98526428Y-82835714D01*
X98488333Y-82873809D01*
X98412142Y-82911904D01*
X98183571Y-82911904D01*
X98107380Y-82873809D01*
X98069285Y-82835714D01*
X93027619Y-82150000D02*
X92951428Y-82111904D01*
X92837142Y-82111904D01*
X92722857Y-82150000D01*
X92646666Y-82226190D01*
X92608571Y-82302380D01*
X92570476Y-82454761D01*
X92570476Y-82569047D01*
X92608571Y-82721428D01*
X92646666Y-82797619D01*
X92722857Y-82873809D01*
X92837142Y-82911904D01*
X92913333Y-82911904D01*
X93027619Y-82873809D01*
X93065714Y-82835714D01*
X93065714Y-82569047D01*
X92913333Y-82569047D01*
X93408571Y-82911904D02*
X93408571Y-82111904D01*
X93713333Y-82111904D01*
X93789523Y-82150000D01*
X93827619Y-82188095D01*
X93865714Y-82264285D01*
X93865714Y-82378571D01*
X93827619Y-82454761D01*
X93789523Y-82492857D01*
X93713333Y-82530952D01*
X93408571Y-82530952D01*
X94627619Y-82911904D02*
X94170476Y-82911904D01*
X94399047Y-82911904D02*
X94399047Y-82111904D01*
X94322857Y-82226190D01*
X94246666Y-82302380D01*
X94170476Y-82340476D01*
X94932380Y-82188095D02*
X94970476Y-82150000D01*
X95046666Y-82111904D01*
X95237142Y-82111904D01*
X95313333Y-82150000D01*
X95351428Y-82188095D01*
X95389523Y-82264285D01*
X95389523Y-82340476D01*
X95351428Y-82454761D01*
X94894285Y-82911904D01*
X95389523Y-82911904D01*
X89852619Y-82150000D02*
X89776428Y-82111904D01*
X89662142Y-82111904D01*
X89547857Y-82150000D01*
X89471666Y-82226190D01*
X89433571Y-82302380D01*
X89395476Y-82454761D01*
X89395476Y-82569047D01*
X89433571Y-82721428D01*
X89471666Y-82797619D01*
X89547857Y-82873809D01*
X89662142Y-82911904D01*
X89738333Y-82911904D01*
X89852619Y-82873809D01*
X89890714Y-82835714D01*
X89890714Y-82569047D01*
X89738333Y-82569047D01*
X90233571Y-82911904D02*
X90233571Y-82111904D01*
X90538333Y-82111904D01*
X90614523Y-82150000D01*
X90652619Y-82188095D01*
X90690714Y-82264285D01*
X90690714Y-82378571D01*
X90652619Y-82454761D01*
X90614523Y-82492857D01*
X90538333Y-82530952D01*
X90233571Y-82530952D01*
X91452619Y-82911904D02*
X90995476Y-82911904D01*
X91224047Y-82911904D02*
X91224047Y-82111904D01*
X91147857Y-82226190D01*
X91071666Y-82302380D01*
X90995476Y-82340476D01*
X92214523Y-82911904D02*
X91757380Y-82911904D01*
X91985952Y-82911904D02*
X91985952Y-82111904D01*
X91909761Y-82226190D01*
X91833571Y-82302380D01*
X91757380Y-82340476D01*
X86677619Y-82150000D02*
X86601428Y-82111904D01*
X86487142Y-82111904D01*
X86372857Y-82150000D01*
X86296666Y-82226190D01*
X86258571Y-82302380D01*
X86220476Y-82454761D01*
X86220476Y-82569047D01*
X86258571Y-82721428D01*
X86296666Y-82797619D01*
X86372857Y-82873809D01*
X86487142Y-82911904D01*
X86563333Y-82911904D01*
X86677619Y-82873809D01*
X86715714Y-82835714D01*
X86715714Y-82569047D01*
X86563333Y-82569047D01*
X87058571Y-82911904D02*
X87058571Y-82111904D01*
X87363333Y-82111904D01*
X87439523Y-82150000D01*
X87477619Y-82188095D01*
X87515714Y-82264285D01*
X87515714Y-82378571D01*
X87477619Y-82454761D01*
X87439523Y-82492857D01*
X87363333Y-82530952D01*
X87058571Y-82530952D01*
X88277619Y-82911904D02*
X87820476Y-82911904D01*
X88049047Y-82911904D02*
X88049047Y-82111904D01*
X87972857Y-82226190D01*
X87896666Y-82302380D01*
X87820476Y-82340476D01*
X88772857Y-82111904D02*
X88849047Y-82111904D01*
X88925238Y-82150000D01*
X88963333Y-82188095D01*
X89001428Y-82264285D01*
X89039523Y-82416666D01*
X89039523Y-82607142D01*
X89001428Y-82759523D01*
X88963333Y-82835714D01*
X88925238Y-82873809D01*
X88849047Y-82911904D01*
X88772857Y-82911904D01*
X88696666Y-82873809D01*
X88658571Y-82835714D01*
X88620476Y-82759523D01*
X88582380Y-82607142D01*
X88582380Y-82416666D01*
X88620476Y-82264285D01*
X88658571Y-82188095D01*
X88696666Y-82150000D01*
X88772857Y-82111904D01*
X81343571Y-82150000D02*
X81267380Y-82111904D01*
X81153095Y-82111904D01*
X81038809Y-82150000D01*
X80962619Y-82226190D01*
X80924523Y-82302380D01*
X80886428Y-82454761D01*
X80886428Y-82569047D01*
X80924523Y-82721428D01*
X80962619Y-82797619D01*
X81038809Y-82873809D01*
X81153095Y-82911904D01*
X81229285Y-82911904D01*
X81343571Y-82873809D01*
X81381666Y-82835714D01*
X81381666Y-82569047D01*
X81229285Y-82569047D01*
X81724523Y-82911904D02*
X81724523Y-82111904D01*
X82029285Y-82111904D01*
X82105476Y-82150000D01*
X82143571Y-82188095D01*
X82181666Y-82264285D01*
X82181666Y-82378571D01*
X82143571Y-82454761D01*
X82105476Y-82492857D01*
X82029285Y-82530952D01*
X81724523Y-82530952D01*
X82562619Y-82911904D02*
X82715000Y-82911904D01*
X82791190Y-82873809D01*
X82829285Y-82835714D01*
X82905476Y-82721428D01*
X82943571Y-82569047D01*
X82943571Y-82264285D01*
X82905476Y-82188095D01*
X82867380Y-82150000D01*
X82791190Y-82111904D01*
X82638809Y-82111904D01*
X82562619Y-82150000D01*
X82524523Y-82188095D01*
X82486428Y-82264285D01*
X82486428Y-82454761D01*
X82524523Y-82530952D01*
X82562619Y-82569047D01*
X82638809Y-82607142D01*
X82791190Y-82607142D01*
X82867380Y-82569047D01*
X82905476Y-82530952D01*
X82943571Y-82454761D01*
X78698571Y-82150000D02*
X78622380Y-82111904D01*
X78508095Y-82111904D01*
X78393809Y-82150000D01*
X78317619Y-82226190D01*
X78279523Y-82302380D01*
X78241428Y-82454761D01*
X78241428Y-82569047D01*
X78279523Y-82721428D01*
X78317619Y-82797619D01*
X78393809Y-82873809D01*
X78508095Y-82911904D01*
X78584285Y-82911904D01*
X78698571Y-82873809D01*
X78736666Y-82835714D01*
X78736666Y-82569047D01*
X78584285Y-82569047D01*
X79079523Y-82911904D02*
X79079523Y-82111904D01*
X79384285Y-82111904D01*
X79460476Y-82150000D01*
X79498571Y-82188095D01*
X79536666Y-82264285D01*
X79536666Y-82378571D01*
X79498571Y-82454761D01*
X79460476Y-82492857D01*
X79384285Y-82530952D01*
X79079523Y-82530952D01*
X79993809Y-82454761D02*
X79917619Y-82416666D01*
X79879523Y-82378571D01*
X79841428Y-82302380D01*
X79841428Y-82264285D01*
X79879523Y-82188095D01*
X79917619Y-82150000D01*
X79993809Y-82111904D01*
X80146190Y-82111904D01*
X80222380Y-82150000D01*
X80260476Y-82188095D01*
X80298571Y-82264285D01*
X80298571Y-82302380D01*
X80260476Y-82378571D01*
X80222380Y-82416666D01*
X80146190Y-82454761D01*
X79993809Y-82454761D01*
X79917619Y-82492857D01*
X79879523Y-82530952D01*
X79841428Y-82607142D01*
X79841428Y-82759523D01*
X79879523Y-82835714D01*
X79917619Y-82873809D01*
X79993809Y-82911904D01*
X80146190Y-82911904D01*
X80222380Y-82873809D01*
X80260476Y-82835714D01*
X80298571Y-82759523D01*
X80298571Y-82607142D01*
X80260476Y-82530952D01*
X80222380Y-82492857D01*
X80146190Y-82454761D01*
X76263571Y-82150000D02*
X76187380Y-82111904D01*
X76073095Y-82111904D01*
X75958809Y-82150000D01*
X75882619Y-82226190D01*
X75844523Y-82302380D01*
X75806428Y-82454761D01*
X75806428Y-82569047D01*
X75844523Y-82721428D01*
X75882619Y-82797619D01*
X75958809Y-82873809D01*
X76073095Y-82911904D01*
X76149285Y-82911904D01*
X76263571Y-82873809D01*
X76301666Y-82835714D01*
X76301666Y-82569047D01*
X76149285Y-82569047D01*
X76644523Y-82911904D02*
X76644523Y-82111904D01*
X76949285Y-82111904D01*
X77025476Y-82150000D01*
X77063571Y-82188095D01*
X77101666Y-82264285D01*
X77101666Y-82378571D01*
X77063571Y-82454761D01*
X77025476Y-82492857D01*
X76949285Y-82530952D01*
X76644523Y-82530952D01*
X77368333Y-82111904D02*
X77901666Y-82111904D01*
X77558809Y-82911904D01*
X73723571Y-82150000D02*
X73647380Y-82111904D01*
X73533095Y-82111904D01*
X73418809Y-82150000D01*
X73342619Y-82226190D01*
X73304523Y-82302380D01*
X73266428Y-82454761D01*
X73266428Y-82569047D01*
X73304523Y-82721428D01*
X73342619Y-82797619D01*
X73418809Y-82873809D01*
X73533095Y-82911904D01*
X73609285Y-82911904D01*
X73723571Y-82873809D01*
X73761666Y-82835714D01*
X73761666Y-82569047D01*
X73609285Y-82569047D01*
X74104523Y-82911904D02*
X74104523Y-82111904D01*
X74409285Y-82111904D01*
X74485476Y-82150000D01*
X74523571Y-82188095D01*
X74561666Y-82264285D01*
X74561666Y-82378571D01*
X74523571Y-82454761D01*
X74485476Y-82492857D01*
X74409285Y-82530952D01*
X74104523Y-82530952D01*
X75247380Y-82111904D02*
X75095000Y-82111904D01*
X75018809Y-82150000D01*
X74980714Y-82188095D01*
X74904523Y-82302380D01*
X74866428Y-82454761D01*
X74866428Y-82759523D01*
X74904523Y-82835714D01*
X74942619Y-82873809D01*
X75018809Y-82911904D01*
X75171190Y-82911904D01*
X75247380Y-82873809D01*
X75285476Y-82835714D01*
X75323571Y-82759523D01*
X75323571Y-82569047D01*
X75285476Y-82492857D01*
X75247380Y-82454761D01*
X75171190Y-82416666D01*
X75018809Y-82416666D01*
X74942619Y-82454761D01*
X74904523Y-82492857D01*
X74866428Y-82569047D01*
X68643571Y-82150000D02*
X68567380Y-82111904D01*
X68453095Y-82111904D01*
X68338809Y-82150000D01*
X68262619Y-82226190D01*
X68224523Y-82302380D01*
X68186428Y-82454761D01*
X68186428Y-82569047D01*
X68224523Y-82721428D01*
X68262619Y-82797619D01*
X68338809Y-82873809D01*
X68453095Y-82911904D01*
X68529285Y-82911904D01*
X68643571Y-82873809D01*
X68681666Y-82835714D01*
X68681666Y-82569047D01*
X68529285Y-82569047D01*
X69024523Y-82911904D02*
X69024523Y-82111904D01*
X69329285Y-82111904D01*
X69405476Y-82150000D01*
X69443571Y-82188095D01*
X69481666Y-82264285D01*
X69481666Y-82378571D01*
X69443571Y-82454761D01*
X69405476Y-82492857D01*
X69329285Y-82530952D01*
X69024523Y-82530952D01*
X70205476Y-82111904D02*
X69824523Y-82111904D01*
X69786428Y-82492857D01*
X69824523Y-82454761D01*
X69900714Y-82416666D01*
X70091190Y-82416666D01*
X70167380Y-82454761D01*
X70205476Y-82492857D01*
X70243571Y-82569047D01*
X70243571Y-82759523D01*
X70205476Y-82835714D01*
X70167380Y-82873809D01*
X70091190Y-82911904D01*
X69900714Y-82911904D01*
X69824523Y-82873809D01*
X69786428Y-82835714D01*
X66103571Y-82150000D02*
X66027380Y-82111904D01*
X65913095Y-82111904D01*
X65798809Y-82150000D01*
X65722619Y-82226190D01*
X65684523Y-82302380D01*
X65646428Y-82454761D01*
X65646428Y-82569047D01*
X65684523Y-82721428D01*
X65722619Y-82797619D01*
X65798809Y-82873809D01*
X65913095Y-82911904D01*
X65989285Y-82911904D01*
X66103571Y-82873809D01*
X66141666Y-82835714D01*
X66141666Y-82569047D01*
X65989285Y-82569047D01*
X66484523Y-82911904D02*
X66484523Y-82111904D01*
X66789285Y-82111904D01*
X66865476Y-82150000D01*
X66903571Y-82188095D01*
X66941666Y-82264285D01*
X66941666Y-82378571D01*
X66903571Y-82454761D01*
X66865476Y-82492857D01*
X66789285Y-82530952D01*
X66484523Y-82530952D01*
X67627380Y-82378571D02*
X67627380Y-82911904D01*
X67436904Y-82073809D02*
X67246428Y-82645238D01*
X67741666Y-82645238D01*
X63563571Y-82150000D02*
X63487380Y-82111904D01*
X63373095Y-82111904D01*
X63258809Y-82150000D01*
X63182619Y-82226190D01*
X63144523Y-82302380D01*
X63106428Y-82454761D01*
X63106428Y-82569047D01*
X63144523Y-82721428D01*
X63182619Y-82797619D01*
X63258809Y-82873809D01*
X63373095Y-82911904D01*
X63449285Y-82911904D01*
X63563571Y-82873809D01*
X63601666Y-82835714D01*
X63601666Y-82569047D01*
X63449285Y-82569047D01*
X63944523Y-82911904D02*
X63944523Y-82111904D01*
X64249285Y-82111904D01*
X64325476Y-82150000D01*
X64363571Y-82188095D01*
X64401666Y-82264285D01*
X64401666Y-82378571D01*
X64363571Y-82454761D01*
X64325476Y-82492857D01*
X64249285Y-82530952D01*
X63944523Y-82530952D01*
X64668333Y-82111904D02*
X65163571Y-82111904D01*
X64896904Y-82416666D01*
X65011190Y-82416666D01*
X65087380Y-82454761D01*
X65125476Y-82492857D01*
X65163571Y-82569047D01*
X65163571Y-82759523D01*
X65125476Y-82835714D01*
X65087380Y-82873809D01*
X65011190Y-82911904D01*
X64782619Y-82911904D01*
X64706428Y-82873809D01*
X64668333Y-82835714D01*
X53403571Y-82150000D02*
X53327380Y-82111904D01*
X53213095Y-82111904D01*
X53098809Y-82150000D01*
X53022619Y-82226190D01*
X52984523Y-82302380D01*
X52946428Y-82454761D01*
X52946428Y-82569047D01*
X52984523Y-82721428D01*
X53022619Y-82797619D01*
X53098809Y-82873809D01*
X53213095Y-82911904D01*
X53289285Y-82911904D01*
X53403571Y-82873809D01*
X53441666Y-82835714D01*
X53441666Y-82569047D01*
X53289285Y-82569047D01*
X53784523Y-82911904D02*
X53784523Y-82111904D01*
X54089285Y-82111904D01*
X54165476Y-82150000D01*
X54203571Y-82188095D01*
X54241666Y-82264285D01*
X54241666Y-82378571D01*
X54203571Y-82454761D01*
X54165476Y-82492857D01*
X54089285Y-82530952D01*
X53784523Y-82530952D01*
X54736904Y-82111904D02*
X54813095Y-82111904D01*
X54889285Y-82150000D01*
X54927380Y-82188095D01*
X54965476Y-82264285D01*
X55003571Y-82416666D01*
X55003571Y-82607142D01*
X54965476Y-82759523D01*
X54927380Y-82835714D01*
X54889285Y-82873809D01*
X54813095Y-82911904D01*
X54736904Y-82911904D01*
X54660714Y-82873809D01*
X54622619Y-82835714D01*
X54584523Y-82759523D01*
X54546428Y-82607142D01*
X54546428Y-82416666D01*
X54584523Y-82264285D01*
X54622619Y-82188095D01*
X54660714Y-82150000D01*
X54736904Y-82111904D01*
X61023571Y-82150000D02*
X60947380Y-82111904D01*
X60833095Y-82111904D01*
X60718809Y-82150000D01*
X60642619Y-82226190D01*
X60604523Y-82302380D01*
X60566428Y-82454761D01*
X60566428Y-82569047D01*
X60604523Y-82721428D01*
X60642619Y-82797619D01*
X60718809Y-82873809D01*
X60833095Y-82911904D01*
X60909285Y-82911904D01*
X61023571Y-82873809D01*
X61061666Y-82835714D01*
X61061666Y-82569047D01*
X60909285Y-82569047D01*
X61404523Y-82911904D02*
X61404523Y-82111904D01*
X61709285Y-82111904D01*
X61785476Y-82150000D01*
X61823571Y-82188095D01*
X61861666Y-82264285D01*
X61861666Y-82378571D01*
X61823571Y-82454761D01*
X61785476Y-82492857D01*
X61709285Y-82530952D01*
X61404523Y-82530952D01*
X62166428Y-82188095D02*
X62204523Y-82150000D01*
X62280714Y-82111904D01*
X62471190Y-82111904D01*
X62547380Y-82150000D01*
X62585476Y-82188095D01*
X62623571Y-82264285D01*
X62623571Y-82340476D01*
X62585476Y-82454761D01*
X62128333Y-82911904D01*
X62623571Y-82911904D01*
X55943571Y-82150000D02*
X55867380Y-82111904D01*
X55753095Y-82111904D01*
X55638809Y-82150000D01*
X55562619Y-82226190D01*
X55524523Y-82302380D01*
X55486428Y-82454761D01*
X55486428Y-82569047D01*
X55524523Y-82721428D01*
X55562619Y-82797619D01*
X55638809Y-82873809D01*
X55753095Y-82911904D01*
X55829285Y-82911904D01*
X55943571Y-82873809D01*
X55981666Y-82835714D01*
X55981666Y-82569047D01*
X55829285Y-82569047D01*
X56324523Y-82911904D02*
X56324523Y-82111904D01*
X56629285Y-82111904D01*
X56705476Y-82150000D01*
X56743571Y-82188095D01*
X56781666Y-82264285D01*
X56781666Y-82378571D01*
X56743571Y-82454761D01*
X56705476Y-82492857D01*
X56629285Y-82530952D01*
X56324523Y-82530952D01*
X57543571Y-82911904D02*
X57086428Y-82911904D01*
X57315000Y-82911904D02*
X57315000Y-82111904D01*
X57238809Y-82226190D01*
X57162619Y-82302380D01*
X57086428Y-82340476D01*
X56998380Y-101524333D02*
X57712666Y-101524333D01*
X57855523Y-101571952D01*
X57950761Y-101667190D01*
X57998380Y-101810047D01*
X57998380Y-101905285D01*
X57998380Y-100524333D02*
X57998380Y-101095761D01*
X57998380Y-100810047D02*
X56998380Y-100810047D01*
X57141238Y-100905285D01*
X57236476Y-101000523D01*
X57284095Y-101095761D01*
X107219761Y-60237619D02*
X107124523Y-60190000D01*
X107029285Y-60094761D01*
X106886428Y-59951904D01*
X106791190Y-59904285D01*
X106695952Y-59904285D01*
X106743571Y-60142380D02*
X106648333Y-60094761D01*
X106553095Y-59999523D01*
X106505476Y-59809047D01*
X106505476Y-59475714D01*
X106553095Y-59285238D01*
X106648333Y-59190000D01*
X106743571Y-59142380D01*
X106934047Y-59142380D01*
X107029285Y-59190000D01*
X107124523Y-59285238D01*
X107172142Y-59475714D01*
X107172142Y-59809047D01*
X107124523Y-59999523D01*
X107029285Y-60094761D01*
X106934047Y-60142380D01*
X106743571Y-60142380D01*
X107553095Y-59237619D02*
X107600714Y-59190000D01*
X107695952Y-59142380D01*
X107934047Y-59142380D01*
X108029285Y-59190000D01*
X108076904Y-59237619D01*
X108124523Y-59332857D01*
X108124523Y-59428095D01*
X108076904Y-59570952D01*
X107505476Y-60142380D01*
X108124523Y-60142380D01*
X129063761Y-109087619D02*
X128968523Y-109040000D01*
X128873285Y-108944761D01*
X128730428Y-108801904D01*
X128635190Y-108754285D01*
X128539952Y-108754285D01*
X128587571Y-108992380D02*
X128492333Y-108944761D01*
X128397095Y-108849523D01*
X128349476Y-108659047D01*
X128349476Y-108325714D01*
X128397095Y-108135238D01*
X128492333Y-108040000D01*
X128587571Y-107992380D01*
X128778047Y-107992380D01*
X128873285Y-108040000D01*
X128968523Y-108135238D01*
X129016142Y-108325714D01*
X129016142Y-108659047D01*
X128968523Y-108849523D01*
X128873285Y-108944761D01*
X128778047Y-108992380D01*
X128587571Y-108992380D01*
X129968523Y-108992380D02*
X129397095Y-108992380D01*
X129682809Y-108992380D02*
X129682809Y-107992380D01*
X129587571Y-108135238D01*
X129492333Y-108230476D01*
X129397095Y-108278095D01*
X128293880Y-99964833D02*
X129008166Y-99964833D01*
X129151023Y-100012452D01*
X129246261Y-100107690D01*
X129293880Y-100250547D01*
X129293880Y-100345785D01*
X128293880Y-99583880D02*
X128293880Y-98964833D01*
X128674833Y-99298166D01*
X128674833Y-99155309D01*
X128722452Y-99060071D01*
X128770071Y-99012452D01*
X128865309Y-98964833D01*
X129103404Y-98964833D01*
X129198642Y-99012452D01*
X129246261Y-99060071D01*
X129293880Y-99155309D01*
X129293880Y-99441023D01*
X129246261Y-99536261D01*
X129198642Y-99583880D01*
X136357380Y-104560666D02*
X135881190Y-104894000D01*
X136357380Y-105132095D02*
X135357380Y-105132095D01*
X135357380Y-104751142D01*
X135405000Y-104655904D01*
X135452619Y-104608285D01*
X135547857Y-104560666D01*
X135690714Y-104560666D01*
X135785952Y-104608285D01*
X135833571Y-104655904D01*
X135881190Y-104751142D01*
X135881190Y-105132095D01*
X135357380Y-104227333D02*
X135357380Y-103608285D01*
X135738333Y-103941619D01*
X135738333Y-103798761D01*
X135785952Y-103703523D01*
X135833571Y-103655904D01*
X135928809Y-103608285D01*
X136166904Y-103608285D01*
X136262142Y-103655904D01*
X136309761Y-103703523D01*
X136357380Y-103798761D01*
X136357380Y-104084476D01*
X136309761Y-104179714D01*
X136262142Y-104227333D01*
X67143333Y-51252380D02*
X66810000Y-50776190D01*
X66571904Y-51252380D02*
X66571904Y-50252380D01*
X66952857Y-50252380D01*
X67048095Y-50300000D01*
X67095714Y-50347619D01*
X67143333Y-50442857D01*
X67143333Y-50585714D01*
X67095714Y-50680952D01*
X67048095Y-50728571D01*
X66952857Y-50776190D01*
X66571904Y-50776190D01*
X68000476Y-50585714D02*
X68000476Y-51252380D01*
X67762380Y-50204761D02*
X67524285Y-50919047D01*
X68143333Y-50919047D01*
X73493333Y-51157142D02*
X73445714Y-51204761D01*
X73302857Y-51252380D01*
X73207619Y-51252380D01*
X73064761Y-51204761D01*
X72969523Y-51109523D01*
X72921904Y-51014285D01*
X72874285Y-50823809D01*
X72874285Y-50680952D01*
X72921904Y-50490476D01*
X72969523Y-50395238D01*
X73064761Y-50300000D01*
X73207619Y-50252380D01*
X73302857Y-50252380D01*
X73445714Y-50300000D01*
X73493333Y-50347619D01*
X73874285Y-50347619D02*
X73921904Y-50300000D01*
X74017142Y-50252380D01*
X74255238Y-50252380D01*
X74350476Y-50300000D01*
X74398095Y-50347619D01*
X74445714Y-50442857D01*
X74445714Y-50538095D01*
X74398095Y-50680952D01*
X73826666Y-51252380D01*
X74445714Y-51252380D01*
X107783333Y-81097380D02*
X107450000Y-80621190D01*
X107211904Y-81097380D02*
X107211904Y-80097380D01*
X107592857Y-80097380D01*
X107688095Y-80145000D01*
X107735714Y-80192619D01*
X107783333Y-80287857D01*
X107783333Y-80430714D01*
X107735714Y-80525952D01*
X107688095Y-80573571D01*
X107592857Y-80621190D01*
X107211904Y-80621190D01*
X108354761Y-80525952D02*
X108259523Y-80478333D01*
X108211904Y-80430714D01*
X108164285Y-80335476D01*
X108164285Y-80287857D01*
X108211904Y-80192619D01*
X108259523Y-80145000D01*
X108354761Y-80097380D01*
X108545238Y-80097380D01*
X108640476Y-80145000D01*
X108688095Y-80192619D01*
X108735714Y-80287857D01*
X108735714Y-80335476D01*
X108688095Y-80430714D01*
X108640476Y-80478333D01*
X108545238Y-80525952D01*
X108354761Y-80525952D01*
X108259523Y-80573571D01*
X108211904Y-80621190D01*
X108164285Y-80716428D01*
X108164285Y-80906904D01*
X108211904Y-81002142D01*
X108259523Y-81049761D01*
X108354761Y-81097380D01*
X108545238Y-81097380D01*
X108640476Y-81049761D01*
X108688095Y-81002142D01*
X108735714Y-80906904D01*
X108735714Y-80716428D01*
X108688095Y-80621190D01*
X108640476Y-80573571D01*
X108545238Y-80525952D01*
X110434380Y-66206666D02*
X109958190Y-66540000D01*
X110434380Y-66778095D02*
X109434380Y-66778095D01*
X109434380Y-66397142D01*
X109482000Y-66301904D01*
X109529619Y-66254285D01*
X109624857Y-66206666D01*
X109767714Y-66206666D01*
X109862952Y-66254285D01*
X109910571Y-66301904D01*
X109958190Y-66397142D01*
X109958190Y-66778095D01*
X109434380Y-65873333D02*
X109434380Y-65206666D01*
X110434380Y-65635238D01*
X109497880Y-69675333D02*
X110212166Y-69675333D01*
X110355023Y-69722952D01*
X110450261Y-69818190D01*
X110497880Y-69961047D01*
X110497880Y-70056285D01*
X109831214Y-68770571D02*
X110497880Y-68770571D01*
X109450261Y-69008666D02*
X110164547Y-69246761D01*
X110164547Y-68627714D01*
X107148333Y-51252380D02*
X106815000Y-50776190D01*
X106576904Y-51252380D02*
X106576904Y-50252380D01*
X106957857Y-50252380D01*
X107053095Y-50300000D01*
X107100714Y-50347619D01*
X107148333Y-50442857D01*
X107148333Y-50585714D01*
X107100714Y-50680952D01*
X107053095Y-50728571D01*
X106957857Y-50776190D01*
X106576904Y-50776190D01*
X108005476Y-50252380D02*
X107815000Y-50252380D01*
X107719761Y-50300000D01*
X107672142Y-50347619D01*
X107576904Y-50490476D01*
X107529285Y-50680952D01*
X107529285Y-51061904D01*
X107576904Y-51157142D01*
X107624523Y-51204761D01*
X107719761Y-51252380D01*
X107910238Y-51252380D01*
X108005476Y-51204761D01*
X108053095Y-51157142D01*
X108100714Y-51061904D01*
X108100714Y-50823809D01*
X108053095Y-50728571D01*
X108005476Y-50680952D01*
X107910238Y-50633333D01*
X107719761Y-50633333D01*
X107624523Y-50680952D01*
X107576904Y-50728571D01*
X107529285Y-50823809D01*
X116782380Y-53347857D02*
X116782380Y-53824047D01*
X115782380Y-53824047D01*
X116734761Y-53062142D02*
X116782380Y-52919285D01*
X116782380Y-52681190D01*
X116734761Y-52585952D01*
X116687142Y-52538333D01*
X116591904Y-52490714D01*
X116496666Y-52490714D01*
X116401428Y-52538333D01*
X116353809Y-52585952D01*
X116306190Y-52681190D01*
X116258571Y-52871666D01*
X116210952Y-52966904D01*
X116163333Y-53014523D01*
X116068095Y-53062142D01*
X115972857Y-53062142D01*
X115877619Y-53014523D01*
X115830000Y-52966904D01*
X115782380Y-52871666D01*
X115782380Y-52633571D01*
X115830000Y-52490714D01*
X116782380Y-51538333D02*
X116782380Y-52109761D01*
X116782380Y-51824047D02*
X115782380Y-51824047D01*
X115925238Y-51919285D01*
X116020476Y-52014523D01*
X116068095Y-52109761D01*
X95718333Y-52046142D02*
X95670714Y-52093761D01*
X95527857Y-52141380D01*
X95432619Y-52141380D01*
X95289761Y-52093761D01*
X95194523Y-51998523D01*
X95146904Y-51903285D01*
X95099285Y-51712809D01*
X95099285Y-51569952D01*
X95146904Y-51379476D01*
X95194523Y-51284238D01*
X95289761Y-51189000D01*
X95432619Y-51141380D01*
X95527857Y-51141380D01*
X95670714Y-51189000D01*
X95718333Y-51236619D01*
X96575476Y-51474714D02*
X96575476Y-52141380D01*
X96337380Y-51093761D02*
X96099285Y-51808047D01*
X96718333Y-51808047D01*
X134897761Y-80835333D02*
X134945380Y-80692476D01*
X134945380Y-80454380D01*
X134897761Y-80359142D01*
X134850142Y-80311523D01*
X134754904Y-80263904D01*
X134659666Y-80263904D01*
X134564428Y-80311523D01*
X134516809Y-80359142D01*
X134469190Y-80454380D01*
X134421571Y-80644857D01*
X134373952Y-80740095D01*
X134326333Y-80787714D01*
X134231095Y-80835333D01*
X134135857Y-80835333D01*
X134040619Y-80787714D01*
X133993000Y-80740095D01*
X133945380Y-80644857D01*
X133945380Y-80406761D01*
X133993000Y-80263904D01*
X133945380Y-79930571D02*
X134945380Y-79692476D01*
X134231095Y-79502000D01*
X134945380Y-79311523D01*
X133945380Y-79073428D01*
X134945380Y-78168666D02*
X134945380Y-78740095D01*
X134945380Y-78454380D02*
X133945380Y-78454380D01*
X134088238Y-78549619D01*
X134183476Y-78644857D01*
X134231095Y-78740095D01*
X131278380Y-94249833D02*
X131992666Y-94249833D01*
X132135523Y-94297452D01*
X132230761Y-94392690D01*
X132278380Y-94535547D01*
X132278380Y-94630785D01*
X131373619Y-93821261D02*
X131326000Y-93773642D01*
X131278380Y-93678404D01*
X131278380Y-93440309D01*
X131326000Y-93345071D01*
X131373619Y-93297452D01*
X131468857Y-93249833D01*
X131564095Y-93249833D01*
X131706952Y-93297452D01*
X132278380Y-93868880D01*
X132278380Y-93249833D01*
X123277333Y-101910380D02*
X122944000Y-101434190D01*
X122705904Y-101910380D02*
X122705904Y-100910380D01*
X123086857Y-100910380D01*
X123182095Y-100958000D01*
X123229714Y-101005619D01*
X123277333Y-101100857D01*
X123277333Y-101243714D01*
X123229714Y-101338952D01*
X123182095Y-101386571D01*
X123086857Y-101434190D01*
X122705904Y-101434190D01*
X123658285Y-101005619D02*
X123705904Y-100958000D01*
X123801142Y-100910380D01*
X124039238Y-100910380D01*
X124134476Y-100958000D01*
X124182095Y-101005619D01*
X124229714Y-101100857D01*
X124229714Y-101196095D01*
X124182095Y-101338952D01*
X123610666Y-101910380D01*
X124229714Y-101910380D01*
X122532380Y-110896666D02*
X122056190Y-111230000D01*
X122532380Y-111468095D02*
X121532380Y-111468095D01*
X121532380Y-111087142D01*
X121580000Y-110991904D01*
X121627619Y-110944285D01*
X121722857Y-110896666D01*
X121865714Y-110896666D01*
X121960952Y-110944285D01*
X122008571Y-110991904D01*
X122056190Y-111087142D01*
X122056190Y-111468095D01*
X122532380Y-109944285D02*
X122532380Y-110515714D01*
X122532380Y-110230000D02*
X121532380Y-110230000D01*
X121675238Y-110325238D01*
X121770476Y-110420476D01*
X121818095Y-110515714D01*
X128718333Y-110257142D02*
X128670714Y-110304761D01*
X128527857Y-110352380D01*
X128432619Y-110352380D01*
X128289761Y-110304761D01*
X128194523Y-110209523D01*
X128146904Y-110114285D01*
X128099285Y-109923809D01*
X128099285Y-109780952D01*
X128146904Y-109590476D01*
X128194523Y-109495238D01*
X128289761Y-109400000D01*
X128432619Y-109352380D01*
X128527857Y-109352380D01*
X128670714Y-109400000D01*
X128718333Y-109447619D01*
X129670714Y-110352380D02*
X129099285Y-110352380D01*
X129385000Y-110352380D02*
X129385000Y-109352380D01*
X129289761Y-109495238D01*
X129194523Y-109590476D01*
X129099285Y-109638095D01*
X54459285Y-110418571D02*
X54602142Y-110466190D01*
X54649761Y-110513809D01*
X54697380Y-110609047D01*
X54697380Y-110751904D01*
X54649761Y-110847142D01*
X54602142Y-110894761D01*
X54506904Y-110942380D01*
X54125952Y-110942380D01*
X54125952Y-109942380D01*
X54459285Y-109942380D01*
X54554523Y-109990000D01*
X54602142Y-110037619D01*
X54649761Y-110132857D01*
X54649761Y-110228095D01*
X54602142Y-110323333D01*
X54554523Y-110370952D01*
X54459285Y-110418571D01*
X54125952Y-110418571D01*
X54983095Y-109942380D02*
X55554523Y-109942380D01*
X55268809Y-110942380D02*
X55268809Y-109942380D01*
X56411666Y-110942380D02*
X55840238Y-110942380D01*
X56125952Y-110942380D02*
X56125952Y-109942380D01*
X56030714Y-110085238D01*
X55935476Y-110180476D01*
X55840238Y-110228095D01*
X55181571Y-106406142D02*
X56324428Y-106406142D01*
X55054571Y-95738142D02*
X56197428Y-95738142D01*
X55626000Y-96309571D02*
X55626000Y-95166714D01*
X75783571Y-107807142D02*
X76926428Y-107807142D01*
X97373571Y-107807142D02*
X98516428Y-107807142D01*
X97945000Y-108378571D02*
X97945000Y-107235714D01*
X75783571Y-92817142D02*
X76926428Y-92817142D01*
X76355000Y-93388571D02*
X76355000Y-92245714D01*
X97373571Y-92817142D02*
X98516428Y-92817142D01*
M02*
