M48
; DRILL file {KiCad 5.1.5+dfsg1-2build2} date dom 15 ago 2021 18:42:24
; FORMAT={-:-/ absolute / metric / decimal}
; #@! TF.CreationDate,2021-08-15T18:42:24-05:00
; #@! TF.GenerationSoftware,Kicad,Pcbnew,5.1.5+dfsg1-2build2
; #@! TF.FileFunction,Plated,1,2,PTH
FMAT,2
METRIC
T1C0.700
T2C0.750
T3C0.800
T4C1.000
T5C1.020
T6C1.100
%
G90
G05
T1
X123.0Y-96.52
X123.0Y-99.06
X106.68Y-78.105
X109.22Y-78.105
X105.96Y-52.4
X108.5Y-52.4
X124.0Y-109.46
X124.0Y-112.0
X132.0Y-106.045
X132.0Y-108.585
X107.95Y-64.77
X107.95Y-67.31
X66.04Y-52.7
X68.58Y-52.7
T2
X123.825Y-103.505
X123.825Y-106.045
X125.095Y-104.775
X106.045Y-56.515
X107.315Y-55.245
X108.585Y-56.515
T3
X99.314Y-53.594
X101.814Y-53.594
X127.635Y-114.3
X130.135Y-114.3
X71.12Y-52.7
X76.12Y-52.7
T4
X86.89Y-57.57
X89.43Y-57.57
X91.97Y-57.57
X94.51Y-57.57
X53.87Y-57.57
X53.975Y-99.06
X53.975Y-101.6
X81.81Y-57.57
X56.41Y-57.57
X53.87Y-80.43
X56.41Y-80.43
X58.95Y-80.43
X61.49Y-80.43
X64.03Y-80.43
X66.57Y-80.43
X69.11Y-80.43
X71.65Y-80.43
X74.19Y-80.43
X76.73Y-80.43
X79.27Y-80.43
X81.81Y-80.43
X84.35Y-80.43
X86.89Y-80.43
X89.43Y-80.43
X91.97Y-80.43
X94.51Y-80.43
X129.0Y-94.615
X131.54Y-94.615
X66.57Y-57.57
X99.59Y-57.57
X102.13Y-57.57
X111.46Y-52.705
X114.0Y-52.705
X64.03Y-57.57
X129.0Y-100.33
X131.54Y-100.33
X134.08Y-100.33
X79.27Y-57.57
X106.68Y-72.263
X109.22Y-72.263
X74.19Y-57.57
T5
X53.87Y-60.11
X53.87Y-77.89
X56.41Y-60.11
X56.41Y-77.89
X58.95Y-60.11
X58.95Y-77.89
X61.49Y-60.11
X61.49Y-77.89
X64.03Y-60.11
X64.03Y-77.89
X66.57Y-60.11
X66.57Y-77.89
X69.11Y-60.11
X69.11Y-77.89
X71.65Y-60.11
X71.65Y-77.89
X74.19Y-60.11
X74.19Y-77.89
X76.73Y-60.11
X76.73Y-77.89
X79.27Y-60.11
X79.27Y-77.89
X81.81Y-60.11
X81.81Y-77.89
X84.35Y-60.11
X84.35Y-77.89
X86.89Y-60.11
X86.89Y-77.89
X89.43Y-60.11
X89.43Y-77.89
X91.97Y-60.11
X91.97Y-77.89
X94.51Y-60.11
X94.51Y-77.89
X97.05Y-60.11
X97.05Y-77.89
X99.59Y-60.11
X99.59Y-77.89
X101.9Y-66.46
X101.9Y-69.0
X101.9Y-71.54
X102.13Y-60.11
X102.13Y-77.89
X60.0Y-92.71
X60.0Y-107.7
T6
X128.0Y-83.035
X128.0Y-89.535
X132.5Y-83.035
X132.5Y-89.535
T0
M30
