G04 #@! TF.GenerationSoftware,KiCad,Pcbnew,5.1.5+dfsg1-2build2*
G04 #@! TF.CreationDate,2021-04-25T20:42:34-05:00*
G04 #@! TF.ProjectId,SINSONTE,53494e53-4f4e-4544-952e-6b696361645f,rev?*
G04 #@! TF.SameCoordinates,Original*
G04 #@! TF.FileFunction,Copper,L1,Top*
G04 #@! TF.FilePolarity,Positive*
%FSLAX46Y46*%
G04 Gerber Fmt 4.6, Leading zero omitted, Abs format (unit mm)*
G04 Created by KiCad (PCBNEW 5.1.5+dfsg1-2build2) date 2021-04-25 20:42:34*
%MOMM*%
%LPD*%
G04 APERTURE LIST*
%ADD10R,1.100000X1.800000*%
%ADD11C,0.100000*%
%ADD12R,1.800000X1.100000*%
%ADD13O,1.700000X1.700000*%
%ADD14C,1.700000*%
%ADD15R,1.700000X1.700000*%
%ADD16O,1.400000X1.400000*%
%ADD17C,1.400000*%
%ADD18C,1.600000*%
%ADD19R,1.600000X1.600000*%
%ADD20C,2.000000*%
%ADD21R,2.000000X2.000000*%
%ADD22R,3.500000X1.700000*%
%ADD23R,1.700000X3.500000*%
%ADD24C,0.254000*%
G04 APERTURE END LIST*
D10*
X106045000Y-56915000D03*
G04 #@! TA.AperFunction,ComponentPad*
D11*
G36*
X108886955Y-56016324D02*
G01*
X108913650Y-56020284D01*
X108939828Y-56026841D01*
X108965238Y-56035933D01*
X108989634Y-56047472D01*
X109012782Y-56061346D01*
X109034458Y-56077422D01*
X109054454Y-56095546D01*
X109072578Y-56115542D01*
X109088654Y-56137218D01*
X109102528Y-56160366D01*
X109114067Y-56184762D01*
X109123159Y-56210172D01*
X109129716Y-56236350D01*
X109133676Y-56263045D01*
X109135000Y-56290000D01*
X109135000Y-57540000D01*
X109133676Y-57566955D01*
X109129716Y-57593650D01*
X109123159Y-57619828D01*
X109114067Y-57645238D01*
X109102528Y-57669634D01*
X109088654Y-57692782D01*
X109072578Y-57714458D01*
X109054454Y-57734454D01*
X109034458Y-57752578D01*
X109012782Y-57768654D01*
X108989634Y-57782528D01*
X108965238Y-57794067D01*
X108939828Y-57803159D01*
X108913650Y-57809716D01*
X108886955Y-57813676D01*
X108860000Y-57815000D01*
X108310000Y-57815000D01*
X108283045Y-57813676D01*
X108256350Y-57809716D01*
X108230172Y-57803159D01*
X108204762Y-57794067D01*
X108180366Y-57782528D01*
X108157218Y-57768654D01*
X108135542Y-57752578D01*
X108115546Y-57734454D01*
X108097422Y-57714458D01*
X108081346Y-57692782D01*
X108067472Y-57669634D01*
X108055933Y-57645238D01*
X108046841Y-57619828D01*
X108040284Y-57593650D01*
X108036324Y-57566955D01*
X108035000Y-57540000D01*
X108035000Y-56290000D01*
X108036324Y-56263045D01*
X108040284Y-56236350D01*
X108046841Y-56210172D01*
X108055933Y-56184762D01*
X108067472Y-56160366D01*
X108081346Y-56137218D01*
X108097422Y-56115542D01*
X108115546Y-56095546D01*
X108135542Y-56077422D01*
X108157218Y-56061346D01*
X108180366Y-56047472D01*
X108204762Y-56035933D01*
X108230172Y-56026841D01*
X108256350Y-56020284D01*
X108283045Y-56016324D01*
X108310000Y-56015000D01*
X108860000Y-56015000D01*
X108886955Y-56016324D01*
G37*
G04 #@! TD.AperFunction*
G04 #@! TA.AperFunction,ComponentPad*
G36*
X107616955Y-53946324D02*
G01*
X107643650Y-53950284D01*
X107669828Y-53956841D01*
X107695238Y-53965933D01*
X107719634Y-53977472D01*
X107742782Y-53991346D01*
X107764458Y-54007422D01*
X107784454Y-54025546D01*
X107802578Y-54045542D01*
X107818654Y-54067218D01*
X107832528Y-54090366D01*
X107844067Y-54114762D01*
X107853159Y-54140172D01*
X107859716Y-54166350D01*
X107863676Y-54193045D01*
X107865000Y-54220000D01*
X107865000Y-55470000D01*
X107863676Y-55496955D01*
X107859716Y-55523650D01*
X107853159Y-55549828D01*
X107844067Y-55575238D01*
X107832528Y-55599634D01*
X107818654Y-55622782D01*
X107802578Y-55644458D01*
X107784454Y-55664454D01*
X107764458Y-55682578D01*
X107742782Y-55698654D01*
X107719634Y-55712528D01*
X107695238Y-55724067D01*
X107669828Y-55733159D01*
X107643650Y-55739716D01*
X107616955Y-55743676D01*
X107590000Y-55745000D01*
X107040000Y-55745000D01*
X107013045Y-55743676D01*
X106986350Y-55739716D01*
X106960172Y-55733159D01*
X106934762Y-55724067D01*
X106910366Y-55712528D01*
X106887218Y-55698654D01*
X106865542Y-55682578D01*
X106845546Y-55664454D01*
X106827422Y-55644458D01*
X106811346Y-55622782D01*
X106797472Y-55599634D01*
X106785933Y-55575238D01*
X106776841Y-55549828D01*
X106770284Y-55523650D01*
X106766324Y-55496955D01*
X106765000Y-55470000D01*
X106765000Y-54220000D01*
X106766324Y-54193045D01*
X106770284Y-54166350D01*
X106776841Y-54140172D01*
X106785933Y-54114762D01*
X106797472Y-54090366D01*
X106811346Y-54067218D01*
X106827422Y-54045542D01*
X106845546Y-54025546D01*
X106865542Y-54007422D01*
X106887218Y-53991346D01*
X106910366Y-53977472D01*
X106934762Y-53965933D01*
X106960172Y-53956841D01*
X106986350Y-53950284D01*
X107013045Y-53946324D01*
X107040000Y-53945000D01*
X107590000Y-53945000D01*
X107616955Y-53946324D01*
G37*
G04 #@! TD.AperFunction*
D12*
X123425000Y-103505000D03*
G04 #@! TA.AperFunction,ComponentPad*
D11*
G36*
X124076955Y-105496324D02*
G01*
X124103650Y-105500284D01*
X124129828Y-105506841D01*
X124155238Y-105515933D01*
X124179634Y-105527472D01*
X124202782Y-105541346D01*
X124224458Y-105557422D01*
X124244454Y-105575546D01*
X124262578Y-105595542D01*
X124278654Y-105617218D01*
X124292528Y-105640366D01*
X124304067Y-105664762D01*
X124313159Y-105690172D01*
X124319716Y-105716350D01*
X124323676Y-105743045D01*
X124325000Y-105770000D01*
X124325000Y-106320000D01*
X124323676Y-106346955D01*
X124319716Y-106373650D01*
X124313159Y-106399828D01*
X124304067Y-106425238D01*
X124292528Y-106449634D01*
X124278654Y-106472782D01*
X124262578Y-106494458D01*
X124244454Y-106514454D01*
X124224458Y-106532578D01*
X124202782Y-106548654D01*
X124179634Y-106562528D01*
X124155238Y-106574067D01*
X124129828Y-106583159D01*
X124103650Y-106589716D01*
X124076955Y-106593676D01*
X124050000Y-106595000D01*
X122800000Y-106595000D01*
X122773045Y-106593676D01*
X122746350Y-106589716D01*
X122720172Y-106583159D01*
X122694762Y-106574067D01*
X122670366Y-106562528D01*
X122647218Y-106548654D01*
X122625542Y-106532578D01*
X122605546Y-106514454D01*
X122587422Y-106494458D01*
X122571346Y-106472782D01*
X122557472Y-106449634D01*
X122545933Y-106425238D01*
X122536841Y-106399828D01*
X122530284Y-106373650D01*
X122526324Y-106346955D01*
X122525000Y-106320000D01*
X122525000Y-105770000D01*
X122526324Y-105743045D01*
X122530284Y-105716350D01*
X122536841Y-105690172D01*
X122545933Y-105664762D01*
X122557472Y-105640366D01*
X122571346Y-105617218D01*
X122587422Y-105595542D01*
X122605546Y-105575546D01*
X122625542Y-105557422D01*
X122647218Y-105541346D01*
X122670366Y-105527472D01*
X122694762Y-105515933D01*
X122720172Y-105506841D01*
X122746350Y-105500284D01*
X122773045Y-105496324D01*
X122800000Y-105495000D01*
X124050000Y-105495000D01*
X124076955Y-105496324D01*
G37*
G04 #@! TD.AperFunction*
G04 #@! TA.AperFunction,ComponentPad*
G36*
X126146955Y-104226324D02*
G01*
X126173650Y-104230284D01*
X126199828Y-104236841D01*
X126225238Y-104245933D01*
X126249634Y-104257472D01*
X126272782Y-104271346D01*
X126294458Y-104287422D01*
X126314454Y-104305546D01*
X126332578Y-104325542D01*
X126348654Y-104347218D01*
X126362528Y-104370366D01*
X126374067Y-104394762D01*
X126383159Y-104420172D01*
X126389716Y-104446350D01*
X126393676Y-104473045D01*
X126395000Y-104500000D01*
X126395000Y-105050000D01*
X126393676Y-105076955D01*
X126389716Y-105103650D01*
X126383159Y-105129828D01*
X126374067Y-105155238D01*
X126362528Y-105179634D01*
X126348654Y-105202782D01*
X126332578Y-105224458D01*
X126314454Y-105244454D01*
X126294458Y-105262578D01*
X126272782Y-105278654D01*
X126249634Y-105292528D01*
X126225238Y-105304067D01*
X126199828Y-105313159D01*
X126173650Y-105319716D01*
X126146955Y-105323676D01*
X126120000Y-105325000D01*
X124870000Y-105325000D01*
X124843045Y-105323676D01*
X124816350Y-105319716D01*
X124790172Y-105313159D01*
X124764762Y-105304067D01*
X124740366Y-105292528D01*
X124717218Y-105278654D01*
X124695542Y-105262578D01*
X124675546Y-105244454D01*
X124657422Y-105224458D01*
X124641346Y-105202782D01*
X124627472Y-105179634D01*
X124615933Y-105155238D01*
X124606841Y-105129828D01*
X124600284Y-105103650D01*
X124596324Y-105076955D01*
X124595000Y-105050000D01*
X124595000Y-104500000D01*
X124596324Y-104473045D01*
X124600284Y-104446350D01*
X124606841Y-104420172D01*
X124615933Y-104394762D01*
X124627472Y-104370366D01*
X124641346Y-104347218D01*
X124657422Y-104325542D01*
X124675546Y-104305546D01*
X124695542Y-104287422D01*
X124717218Y-104271346D01*
X124740366Y-104257472D01*
X124764762Y-104245933D01*
X124790172Y-104236841D01*
X124816350Y-104230284D01*
X124843045Y-104226324D01*
X124870000Y-104225000D01*
X126120000Y-104225000D01*
X126146955Y-104226324D01*
G37*
G04 #@! TD.AperFunction*
D13*
X102130000Y-57570000D03*
D14*
X99590000Y-57570000D03*
D13*
X134080000Y-100330000D03*
X131540000Y-100330000D03*
D15*
X129000000Y-100330000D03*
D14*
X53870000Y-57570000D03*
D13*
X94510000Y-57570000D03*
X91970000Y-57570000D03*
X89430000Y-57570000D03*
D14*
X86890000Y-57570000D03*
X81810000Y-57570000D03*
X66570000Y-57570000D03*
D16*
X132000000Y-108585000D03*
D17*
X132000000Y-106045000D03*
D14*
X79270000Y-57570000D03*
X74190000Y-57570000D03*
X64030000Y-57570000D03*
X56410000Y-57570000D03*
D13*
X94510000Y-80430000D03*
X91970000Y-80430000D03*
X89430000Y-80430000D03*
X86890000Y-80430000D03*
X84350000Y-80430000D03*
X81810000Y-80430000D03*
X79270000Y-80430000D03*
X76730000Y-80430000D03*
X74190000Y-80430000D03*
X71650000Y-80430000D03*
X69110000Y-80430000D03*
X66570000Y-80430000D03*
X64030000Y-80430000D03*
X61490000Y-80430000D03*
X58950000Y-80430000D03*
X56410000Y-80430000D03*
D15*
X53870000Y-80430000D03*
D16*
X68580000Y-52700000D03*
D17*
X66040000Y-52700000D03*
D18*
X76120000Y-52700000D03*
X71120000Y-52700000D03*
D16*
X109220000Y-78105000D03*
D17*
X106680000Y-78105000D03*
D16*
X109220000Y-72390000D03*
D17*
X106680000Y-72390000D03*
D13*
X107950000Y-64770000D03*
D15*
X107950000Y-67310000D03*
D16*
X105960000Y-52400000D03*
D17*
X108500000Y-52400000D03*
D13*
X111460000Y-52705000D03*
D15*
X114000000Y-52705000D03*
D18*
X99500000Y-53600000D03*
D19*
X102000000Y-53600000D03*
D20*
X128000000Y-83035000D03*
X132500000Y-83035000D03*
X128000000Y-89535000D03*
X132500000Y-89535000D03*
D13*
X131540000Y-94615000D03*
D15*
X129000000Y-94615000D03*
D16*
X123000000Y-99060000D03*
D17*
X123000000Y-96520000D03*
D16*
X124000000Y-109460000D03*
D17*
X124000000Y-112000000D03*
D18*
X130135000Y-114300000D03*
D19*
X127635000Y-114300000D03*
D13*
X53975000Y-101600000D03*
D15*
X53975000Y-99060000D03*
D20*
X60000000Y-107700000D03*
D21*
X60000000Y-92710000D03*
D13*
X101900000Y-66460000D03*
D22*
X102800000Y-66460000D03*
D15*
X101900000Y-69000000D03*
D22*
X102800000Y-69000000D03*
D13*
X101900000Y-71540000D03*
D22*
X102800000Y-71540000D03*
D23*
X102130000Y-59210000D03*
X99590000Y-59210000D03*
X97050000Y-59210000D03*
X94510000Y-59210000D03*
X91970000Y-59210000D03*
X89430000Y-59210000D03*
X86890000Y-59210000D03*
X84350000Y-59210000D03*
X81810000Y-59210000D03*
X79270000Y-59210000D03*
X76730000Y-59210000D03*
X74190000Y-59210000D03*
X71650000Y-59210000D03*
X69110000Y-59210000D03*
X66570000Y-59210000D03*
X64030000Y-59210000D03*
X61490000Y-59210000D03*
X58950000Y-59210000D03*
X56410000Y-59210000D03*
X53870000Y-59210000D03*
X102130000Y-78790000D03*
X99590000Y-78790000D03*
X97050000Y-78790000D03*
X94510000Y-78790000D03*
X91970000Y-78790000D03*
X89430000Y-78790000D03*
X86890000Y-78790000D03*
X84350000Y-78790000D03*
X81810000Y-78790000D03*
X79270000Y-78790000D03*
X76730000Y-78790000D03*
X74190000Y-78790000D03*
X71650000Y-78790000D03*
X69110000Y-78790000D03*
X66570000Y-78790000D03*
X64030000Y-78790000D03*
X61490000Y-78790000D03*
X58950000Y-78790000D03*
X56410000Y-78790000D03*
X53870000Y-78790000D03*
D13*
X53870000Y-60110000D03*
X56410000Y-60110000D03*
D15*
X58950000Y-60110000D03*
D13*
X61490000Y-60110000D03*
X64030000Y-60110000D03*
X66570000Y-60110000D03*
X69110000Y-60110000D03*
D15*
X71650000Y-60110000D03*
D13*
X74190000Y-60110000D03*
X76730000Y-60110000D03*
X79270000Y-60110000D03*
X81810000Y-60110000D03*
D15*
X84350000Y-60110000D03*
D13*
X86890000Y-60110000D03*
X89430000Y-60110000D03*
X91970000Y-60110000D03*
X94510000Y-60110000D03*
D15*
X97050000Y-60110000D03*
D13*
X99590000Y-60110000D03*
X102130000Y-60110000D03*
X102130000Y-77890000D03*
X99590000Y-77890000D03*
D15*
X97050000Y-77890000D03*
D13*
X94510000Y-77890000D03*
X91970000Y-77890000D03*
X89430000Y-77890000D03*
X86890000Y-77890000D03*
D15*
X84350000Y-77890000D03*
D13*
X81810000Y-77890000D03*
X79270000Y-77890000D03*
X76730000Y-77890000D03*
X74190000Y-77890000D03*
D15*
X71650000Y-77890000D03*
D13*
X69110000Y-77890000D03*
X66570000Y-77890000D03*
X64030000Y-77890000D03*
X61490000Y-77890000D03*
D15*
X58950000Y-77890000D03*
D13*
X56410000Y-77890000D03*
X53870000Y-77890000D03*
D24*
G36*
X139340001Y-119340000D02*
G01*
X50660000Y-119340000D01*
X50660000Y-115779872D01*
X51765000Y-115779872D01*
X51765000Y-116220128D01*
X51850890Y-116651925D01*
X52019369Y-117058669D01*
X52263962Y-117424729D01*
X52575271Y-117736038D01*
X52941331Y-117980631D01*
X53348075Y-118149110D01*
X53779872Y-118235000D01*
X54220128Y-118235000D01*
X54651925Y-118149110D01*
X55058669Y-117980631D01*
X55424729Y-117736038D01*
X55736038Y-117424729D01*
X55980631Y-117058669D01*
X56149110Y-116651925D01*
X56235000Y-116220128D01*
X56235000Y-115779872D01*
X133765000Y-115779872D01*
X133765000Y-116220128D01*
X133850890Y-116651925D01*
X134019369Y-117058669D01*
X134263962Y-117424729D01*
X134575271Y-117736038D01*
X134941331Y-117980631D01*
X135348075Y-118149110D01*
X135779872Y-118235000D01*
X136220128Y-118235000D01*
X136651925Y-118149110D01*
X137058669Y-117980631D01*
X137424729Y-117736038D01*
X137736038Y-117424729D01*
X137980631Y-117058669D01*
X138149110Y-116651925D01*
X138235000Y-116220128D01*
X138235000Y-115779872D01*
X138149110Y-115348075D01*
X137980631Y-114941331D01*
X137736038Y-114575271D01*
X137424729Y-114263962D01*
X137058669Y-114019369D01*
X136651925Y-113850890D01*
X136220128Y-113765000D01*
X135779872Y-113765000D01*
X135348075Y-113850890D01*
X134941331Y-114019369D01*
X134575271Y-114263962D01*
X134263962Y-114575271D01*
X134019369Y-114941331D01*
X133850890Y-115348075D01*
X133765000Y-115779872D01*
X56235000Y-115779872D01*
X56149110Y-115348075D01*
X55980631Y-114941331D01*
X55736038Y-114575271D01*
X55424729Y-114263962D01*
X55058669Y-114019369D01*
X54651925Y-113850890D01*
X54220128Y-113765000D01*
X53779872Y-113765000D01*
X53348075Y-113850890D01*
X52941331Y-114019369D01*
X52575271Y-114263962D01*
X52263962Y-114575271D01*
X52019369Y-114941331D01*
X51850890Y-115348075D01*
X51765000Y-115779872D01*
X50660000Y-115779872D01*
X50660000Y-113500000D01*
X126196928Y-113500000D01*
X126196928Y-115100000D01*
X126209188Y-115224482D01*
X126245498Y-115344180D01*
X126304463Y-115454494D01*
X126383815Y-115551185D01*
X126480506Y-115630537D01*
X126590820Y-115689502D01*
X126710518Y-115725812D01*
X126835000Y-115738072D01*
X128435000Y-115738072D01*
X128559482Y-115725812D01*
X128679180Y-115689502D01*
X128789494Y-115630537D01*
X128886185Y-115551185D01*
X128965537Y-115454494D01*
X129024502Y-115344180D01*
X129040117Y-115292702D01*
X129321903Y-115292702D01*
X129393486Y-115536671D01*
X129648996Y-115657571D01*
X129923184Y-115726300D01*
X130205512Y-115740217D01*
X130485130Y-115698787D01*
X130751292Y-115603603D01*
X130876514Y-115536671D01*
X130948097Y-115292702D01*
X130135000Y-114479605D01*
X129321903Y-115292702D01*
X129040117Y-115292702D01*
X129060812Y-115224482D01*
X129073072Y-115100000D01*
X129073072Y-115092785D01*
X129142298Y-115113097D01*
X129955395Y-114300000D01*
X130314605Y-114300000D01*
X131127702Y-115113097D01*
X131371671Y-115041514D01*
X131492571Y-114786004D01*
X131561300Y-114511816D01*
X131575217Y-114229488D01*
X131533787Y-113949870D01*
X131438603Y-113683708D01*
X131371671Y-113558486D01*
X131127702Y-113486903D01*
X130314605Y-114300000D01*
X129955395Y-114300000D01*
X129142298Y-113486903D01*
X129073072Y-113507215D01*
X129073072Y-113500000D01*
X129060812Y-113375518D01*
X129040118Y-113307298D01*
X129321903Y-113307298D01*
X130135000Y-114120395D01*
X130948097Y-113307298D01*
X130876514Y-113063329D01*
X130621004Y-112942429D01*
X130346816Y-112873700D01*
X130064488Y-112859783D01*
X129784870Y-112901213D01*
X129518708Y-112996397D01*
X129393486Y-113063329D01*
X129321903Y-113307298D01*
X129040118Y-113307298D01*
X129024502Y-113255820D01*
X128965537Y-113145506D01*
X128886185Y-113048815D01*
X128789494Y-112969463D01*
X128679180Y-112910498D01*
X128559482Y-112874188D01*
X128435000Y-112861928D01*
X126835000Y-112861928D01*
X126710518Y-112874188D01*
X126590820Y-112910498D01*
X126480506Y-112969463D01*
X126383815Y-113048815D01*
X126304463Y-113145506D01*
X126245498Y-113255820D01*
X126209188Y-113375518D01*
X126196928Y-113500000D01*
X50660000Y-113500000D01*
X50660000Y-108835413D01*
X59044192Y-108835413D01*
X59139956Y-109099814D01*
X59429571Y-109240704D01*
X59741108Y-109322384D01*
X60062595Y-109341718D01*
X60381675Y-109297961D01*
X60686088Y-109192795D01*
X60860044Y-109099814D01*
X60955808Y-108835413D01*
X60000000Y-107879605D01*
X59044192Y-108835413D01*
X50660000Y-108835413D01*
X50660000Y-107762595D01*
X58358282Y-107762595D01*
X58402039Y-108081675D01*
X58507205Y-108386088D01*
X58600186Y-108560044D01*
X58864587Y-108655808D01*
X59820395Y-107700000D01*
X60179605Y-107700000D01*
X61135413Y-108655808D01*
X61399814Y-108560044D01*
X61540704Y-108270429D01*
X61622384Y-107958892D01*
X61641718Y-107637405D01*
X61619440Y-107474947D01*
X84880000Y-107474947D01*
X84880000Y-107925053D01*
X84967811Y-108366510D01*
X85140059Y-108782353D01*
X85390125Y-109156603D01*
X85708397Y-109474875D01*
X86082647Y-109724941D01*
X86498490Y-109897189D01*
X86939947Y-109985000D01*
X87390053Y-109985000D01*
X87831510Y-109897189D01*
X88247353Y-109724941D01*
X88621603Y-109474875D01*
X88767964Y-109328514D01*
X122665000Y-109328514D01*
X122665000Y-109591486D01*
X122716304Y-109849405D01*
X122816939Y-110092359D01*
X122963038Y-110311013D01*
X123148987Y-110496962D01*
X123367641Y-110643061D01*
X123577530Y-110730000D01*
X123367641Y-110816939D01*
X123148987Y-110963038D01*
X122963038Y-111148987D01*
X122816939Y-111367641D01*
X122716304Y-111610595D01*
X122665000Y-111868514D01*
X122665000Y-112131486D01*
X122716304Y-112389405D01*
X122816939Y-112632359D01*
X122963038Y-112851013D01*
X123148987Y-113036962D01*
X123367641Y-113183061D01*
X123610595Y-113283696D01*
X123868514Y-113335000D01*
X124131486Y-113335000D01*
X124389405Y-113283696D01*
X124632359Y-113183061D01*
X124851013Y-113036962D01*
X125036962Y-112851013D01*
X125183061Y-112632359D01*
X125283696Y-112389405D01*
X125335000Y-112131486D01*
X125335000Y-111868514D01*
X125283696Y-111610595D01*
X125183061Y-111367641D01*
X125036962Y-111148987D01*
X124851013Y-110963038D01*
X124632359Y-110816939D01*
X124422470Y-110730000D01*
X124632359Y-110643061D01*
X124851013Y-110496962D01*
X125036962Y-110311013D01*
X125183061Y-110092359D01*
X125283696Y-109849405D01*
X125335000Y-109591486D01*
X125335000Y-109328514D01*
X125283696Y-109070595D01*
X125220626Y-108918330D01*
X130707278Y-108918330D01*
X130797147Y-109164123D01*
X130933241Y-109387660D01*
X131110330Y-109580351D01*
X131321608Y-109734792D01*
X131558956Y-109845047D01*
X131666671Y-109877716D01*
X131873000Y-109754374D01*
X131873000Y-108712000D01*
X132127000Y-108712000D01*
X132127000Y-109754374D01*
X132333329Y-109877716D01*
X132441044Y-109845047D01*
X132678392Y-109734792D01*
X132889670Y-109580351D01*
X133066759Y-109387660D01*
X133202853Y-109164123D01*
X133292722Y-108918330D01*
X133170201Y-108712000D01*
X132127000Y-108712000D01*
X131873000Y-108712000D01*
X130829799Y-108712000D01*
X130707278Y-108918330D01*
X125220626Y-108918330D01*
X125183061Y-108827641D01*
X125036962Y-108608987D01*
X124851013Y-108423038D01*
X124632359Y-108276939D01*
X124389405Y-108176304D01*
X124131486Y-108125000D01*
X123868514Y-108125000D01*
X123610595Y-108176304D01*
X123367641Y-108276939D01*
X123148987Y-108423038D01*
X122963038Y-108608987D01*
X122816939Y-108827641D01*
X122716304Y-109070595D01*
X122665000Y-109328514D01*
X88767964Y-109328514D01*
X88939875Y-109156603D01*
X89189941Y-108782353D01*
X89362189Y-108366510D01*
X89450000Y-107925053D01*
X89450000Y-107474947D01*
X89362189Y-107033490D01*
X89189941Y-106617647D01*
X88939875Y-106243397D01*
X88621603Y-105925125D01*
X88389443Y-105770000D01*
X121886928Y-105770000D01*
X121886928Y-106320000D01*
X121904472Y-106498132D01*
X121956431Y-106669418D01*
X122040808Y-106827276D01*
X122154361Y-106965639D01*
X122292724Y-107079192D01*
X122450582Y-107163569D01*
X122621868Y-107215528D01*
X122800000Y-107233072D01*
X124050000Y-107233072D01*
X124228132Y-107215528D01*
X124399418Y-107163569D01*
X124557276Y-107079192D01*
X124695639Y-106965639D01*
X124809192Y-106827276D01*
X124893569Y-106669418D01*
X124945528Y-106498132D01*
X124963072Y-106320000D01*
X124963072Y-105963072D01*
X126120000Y-105963072D01*
X126298132Y-105945528D01*
X126403668Y-105913514D01*
X130665000Y-105913514D01*
X130665000Y-106176486D01*
X130716304Y-106434405D01*
X130816939Y-106677359D01*
X130963038Y-106896013D01*
X131148987Y-107081962D01*
X131367641Y-107228061D01*
X131583550Y-107317494D01*
X131558956Y-107324953D01*
X131321608Y-107435208D01*
X131110330Y-107589649D01*
X130933241Y-107782340D01*
X130797147Y-108005877D01*
X130707278Y-108251670D01*
X130829799Y-108458000D01*
X131873000Y-108458000D01*
X131873000Y-108438000D01*
X132127000Y-108438000D01*
X132127000Y-108458000D01*
X133170201Y-108458000D01*
X133292722Y-108251670D01*
X133202853Y-108005877D01*
X133066759Y-107782340D01*
X132889670Y-107589649D01*
X132678392Y-107435208D01*
X132441044Y-107324953D01*
X132416450Y-107317494D01*
X132632359Y-107228061D01*
X132851013Y-107081962D01*
X133036962Y-106896013D01*
X133183061Y-106677359D01*
X133283696Y-106434405D01*
X133335000Y-106176486D01*
X133335000Y-105913514D01*
X133283696Y-105655595D01*
X133183061Y-105412641D01*
X133036962Y-105193987D01*
X132851013Y-105008038D01*
X132632359Y-104861939D01*
X132389405Y-104761304D01*
X132131486Y-104710000D01*
X131868514Y-104710000D01*
X131610595Y-104761304D01*
X131367641Y-104861939D01*
X131148987Y-105008038D01*
X130963038Y-105193987D01*
X130816939Y-105412641D01*
X130716304Y-105655595D01*
X130665000Y-105913514D01*
X126403668Y-105913514D01*
X126469418Y-105893569D01*
X126627276Y-105809192D01*
X126765639Y-105695639D01*
X126879192Y-105557276D01*
X126963569Y-105399418D01*
X127015528Y-105228132D01*
X127033072Y-105050000D01*
X127033072Y-104500000D01*
X127015528Y-104321868D01*
X126963569Y-104150582D01*
X126879192Y-103992724D01*
X126765639Y-103854361D01*
X126627276Y-103740808D01*
X126469418Y-103656431D01*
X126298132Y-103604472D01*
X126120000Y-103586928D01*
X124870000Y-103586928D01*
X124691868Y-103604472D01*
X124601120Y-103632000D01*
X123552000Y-103632000D01*
X123552000Y-104531250D01*
X123710750Y-104690000D01*
X123956928Y-104691231D01*
X123956928Y-104856928D01*
X122800000Y-104856928D01*
X122621868Y-104874472D01*
X122450582Y-104926431D01*
X122292724Y-105010808D01*
X122154361Y-105124361D01*
X122040808Y-105262724D01*
X121956431Y-105420582D01*
X121904472Y-105591868D01*
X121886928Y-105770000D01*
X88389443Y-105770000D01*
X88247353Y-105675059D01*
X87831510Y-105502811D01*
X87390053Y-105415000D01*
X86939947Y-105415000D01*
X86498490Y-105502811D01*
X86082647Y-105675059D01*
X85708397Y-105925125D01*
X85390125Y-106243397D01*
X85140059Y-106617647D01*
X84967811Y-107033490D01*
X84880000Y-107474947D01*
X61619440Y-107474947D01*
X61597961Y-107318325D01*
X61492795Y-107013912D01*
X61399814Y-106839956D01*
X61135413Y-106744192D01*
X60179605Y-107700000D01*
X59820395Y-107700000D01*
X58864587Y-106744192D01*
X58600186Y-106839956D01*
X58459296Y-107129571D01*
X58377616Y-107441108D01*
X58358282Y-107762595D01*
X50660000Y-107762595D01*
X50660000Y-106564587D01*
X59044192Y-106564587D01*
X60000000Y-107520395D01*
X60955808Y-106564587D01*
X60860044Y-106300186D01*
X60570429Y-106159296D01*
X60258892Y-106077616D01*
X59937405Y-106058282D01*
X59618325Y-106102039D01*
X59313912Y-106207205D01*
X59139956Y-106300186D01*
X59044192Y-106564587D01*
X50660000Y-106564587D01*
X50660000Y-104055000D01*
X121886928Y-104055000D01*
X121899188Y-104179482D01*
X121935498Y-104299180D01*
X121994463Y-104409494D01*
X122073815Y-104506185D01*
X122170506Y-104585537D01*
X122280820Y-104644502D01*
X122400518Y-104680812D01*
X122525000Y-104693072D01*
X123139250Y-104690000D01*
X123298000Y-104531250D01*
X123298000Y-103632000D01*
X122048750Y-103632000D01*
X121890000Y-103790750D01*
X121886928Y-104055000D01*
X50660000Y-104055000D01*
X50660000Y-101956890D01*
X52533524Y-101956890D01*
X52578175Y-102104099D01*
X52703359Y-102366920D01*
X52877412Y-102600269D01*
X53093645Y-102795178D01*
X53343748Y-102944157D01*
X53618109Y-103041481D01*
X53848000Y-102920814D01*
X53848000Y-101727000D01*
X54102000Y-101727000D01*
X54102000Y-102920814D01*
X54331891Y-103041481D01*
X54575685Y-102955000D01*
X121886928Y-102955000D01*
X121890000Y-103219250D01*
X122048750Y-103378000D01*
X123298000Y-103378000D01*
X123298000Y-102478750D01*
X123552000Y-102478750D01*
X123552000Y-103378000D01*
X124801250Y-103378000D01*
X124960000Y-103219250D01*
X124963072Y-102955000D01*
X124950812Y-102830518D01*
X124914502Y-102710820D01*
X124855537Y-102600506D01*
X124776185Y-102503815D01*
X124679494Y-102424463D01*
X124569180Y-102365498D01*
X124449482Y-102329188D01*
X124325000Y-102316928D01*
X123710750Y-102320000D01*
X123552000Y-102478750D01*
X123298000Y-102478750D01*
X123139250Y-102320000D01*
X122525000Y-102316928D01*
X122400518Y-102329188D01*
X122280820Y-102365498D01*
X122170506Y-102424463D01*
X122073815Y-102503815D01*
X121994463Y-102600506D01*
X121935498Y-102710820D01*
X121899188Y-102830518D01*
X121886928Y-102955000D01*
X54575685Y-102955000D01*
X54606252Y-102944157D01*
X54856355Y-102795178D01*
X55072588Y-102600269D01*
X55246641Y-102366920D01*
X55371825Y-102104099D01*
X55416476Y-101956890D01*
X55295155Y-101727000D01*
X54102000Y-101727000D01*
X53848000Y-101727000D01*
X52654845Y-101727000D01*
X52533524Y-101956890D01*
X50660000Y-101956890D01*
X50660000Y-98210000D01*
X52486928Y-98210000D01*
X52486928Y-99910000D01*
X52499188Y-100034482D01*
X52535498Y-100154180D01*
X52594463Y-100264494D01*
X52673815Y-100361185D01*
X52770506Y-100440537D01*
X52880820Y-100499502D01*
X52961466Y-100523966D01*
X52877412Y-100599731D01*
X52703359Y-100833080D01*
X52578175Y-101095901D01*
X52533524Y-101243110D01*
X52654845Y-101473000D01*
X53848000Y-101473000D01*
X53848000Y-101453000D01*
X54102000Y-101453000D01*
X54102000Y-101473000D01*
X55295155Y-101473000D01*
X55416476Y-101243110D01*
X55371825Y-101095901D01*
X55246641Y-100833080D01*
X55072588Y-100599731D01*
X54988534Y-100523966D01*
X55069180Y-100499502D01*
X55179494Y-100440537D01*
X55276185Y-100361185D01*
X55355537Y-100264494D01*
X55414502Y-100154180D01*
X55450812Y-100034482D01*
X55463072Y-99910000D01*
X55463072Y-98210000D01*
X55450812Y-98085518D01*
X55414502Y-97965820D01*
X55355537Y-97855506D01*
X55276185Y-97758815D01*
X55179494Y-97679463D01*
X55069180Y-97620498D01*
X54949482Y-97584188D01*
X54825000Y-97571928D01*
X53125000Y-97571928D01*
X53000518Y-97584188D01*
X52880820Y-97620498D01*
X52770506Y-97679463D01*
X52673815Y-97758815D01*
X52594463Y-97855506D01*
X52535498Y-97965820D01*
X52499188Y-98085518D01*
X52486928Y-98210000D01*
X50660000Y-98210000D01*
X50660000Y-96388514D01*
X121665000Y-96388514D01*
X121665000Y-96651486D01*
X121716304Y-96909405D01*
X121816939Y-97152359D01*
X121963038Y-97371013D01*
X122148987Y-97556962D01*
X122367641Y-97703061D01*
X122577530Y-97790000D01*
X122367641Y-97876939D01*
X122148987Y-98023038D01*
X121963038Y-98208987D01*
X121816939Y-98427641D01*
X121716304Y-98670595D01*
X121665000Y-98928514D01*
X121665000Y-99191486D01*
X121716304Y-99449405D01*
X121816939Y-99692359D01*
X121963038Y-99911013D01*
X122148987Y-100096962D01*
X122367641Y-100243061D01*
X122610595Y-100343696D01*
X122868514Y-100395000D01*
X123131486Y-100395000D01*
X123389405Y-100343696D01*
X123632359Y-100243061D01*
X123851013Y-100096962D01*
X124036962Y-99911013D01*
X124183061Y-99692359D01*
X124271023Y-99480000D01*
X127511928Y-99480000D01*
X127511928Y-101180000D01*
X127524188Y-101304482D01*
X127560498Y-101424180D01*
X127619463Y-101534494D01*
X127698815Y-101631185D01*
X127795506Y-101710537D01*
X127905820Y-101769502D01*
X128025518Y-101805812D01*
X128150000Y-101818072D01*
X129850000Y-101818072D01*
X129974482Y-101805812D01*
X130094180Y-101769502D01*
X130204494Y-101710537D01*
X130301185Y-101631185D01*
X130380537Y-101534494D01*
X130439502Y-101424180D01*
X130461513Y-101351620D01*
X130593368Y-101483475D01*
X130836589Y-101645990D01*
X131106842Y-101757932D01*
X131393740Y-101815000D01*
X131686260Y-101815000D01*
X131973158Y-101757932D01*
X132243411Y-101645990D01*
X132486632Y-101483475D01*
X132693475Y-101276632D01*
X132810000Y-101102240D01*
X132926525Y-101276632D01*
X133133368Y-101483475D01*
X133376589Y-101645990D01*
X133646842Y-101757932D01*
X133933740Y-101815000D01*
X134226260Y-101815000D01*
X134513158Y-101757932D01*
X134783411Y-101645990D01*
X135026632Y-101483475D01*
X135233475Y-101276632D01*
X135395990Y-101033411D01*
X135507932Y-100763158D01*
X135565000Y-100476260D01*
X135565000Y-100183740D01*
X135507932Y-99896842D01*
X135395990Y-99626589D01*
X135233475Y-99383368D01*
X135026632Y-99176525D01*
X134783411Y-99014010D01*
X134513158Y-98902068D01*
X134226260Y-98845000D01*
X133933740Y-98845000D01*
X133646842Y-98902068D01*
X133376589Y-99014010D01*
X133133368Y-99176525D01*
X132926525Y-99383368D01*
X132810000Y-99557760D01*
X132693475Y-99383368D01*
X132486632Y-99176525D01*
X132243411Y-99014010D01*
X131973158Y-98902068D01*
X131686260Y-98845000D01*
X131393740Y-98845000D01*
X131106842Y-98902068D01*
X130836589Y-99014010D01*
X130593368Y-99176525D01*
X130461513Y-99308380D01*
X130439502Y-99235820D01*
X130380537Y-99125506D01*
X130301185Y-99028815D01*
X130204494Y-98949463D01*
X130094180Y-98890498D01*
X129974482Y-98854188D01*
X129850000Y-98841928D01*
X128150000Y-98841928D01*
X128025518Y-98854188D01*
X127905820Y-98890498D01*
X127795506Y-98949463D01*
X127698815Y-99028815D01*
X127619463Y-99125506D01*
X127560498Y-99235820D01*
X127524188Y-99355518D01*
X127511928Y-99480000D01*
X124271023Y-99480000D01*
X124283696Y-99449405D01*
X124335000Y-99191486D01*
X124335000Y-98928514D01*
X124283696Y-98670595D01*
X124183061Y-98427641D01*
X124036962Y-98208987D01*
X123851013Y-98023038D01*
X123632359Y-97876939D01*
X123422470Y-97790000D01*
X123632359Y-97703061D01*
X123851013Y-97556962D01*
X124036962Y-97371013D01*
X124183061Y-97152359D01*
X124283696Y-96909405D01*
X124335000Y-96651486D01*
X124335000Y-96388514D01*
X124283696Y-96130595D01*
X124183061Y-95887641D01*
X124036962Y-95668987D01*
X123851013Y-95483038D01*
X123632359Y-95336939D01*
X123389405Y-95236304D01*
X123131486Y-95185000D01*
X122868514Y-95185000D01*
X122610595Y-95236304D01*
X122367641Y-95336939D01*
X122148987Y-95483038D01*
X121963038Y-95668987D01*
X121816939Y-95887641D01*
X121716304Y-96130595D01*
X121665000Y-96388514D01*
X50660000Y-96388514D01*
X50660000Y-91710000D01*
X58361928Y-91710000D01*
X58361928Y-93710000D01*
X58374188Y-93834482D01*
X58410498Y-93954180D01*
X58469463Y-94064494D01*
X58548815Y-94161185D01*
X58645506Y-94240537D01*
X58755820Y-94299502D01*
X58875518Y-94335812D01*
X59000000Y-94348072D01*
X61000000Y-94348072D01*
X61124482Y-94335812D01*
X61244180Y-94299502D01*
X61354494Y-94240537D01*
X61451185Y-94161185D01*
X61530537Y-94064494D01*
X61589502Y-93954180D01*
X61625812Y-93834482D01*
X61638072Y-93710000D01*
X61638072Y-92484947D01*
X84880000Y-92484947D01*
X84880000Y-92935053D01*
X84967811Y-93376510D01*
X85140059Y-93792353D01*
X85390125Y-94166603D01*
X85708397Y-94484875D01*
X86082647Y-94734941D01*
X86498490Y-94907189D01*
X86939947Y-94995000D01*
X87390053Y-94995000D01*
X87831510Y-94907189D01*
X88247353Y-94734941D01*
X88621603Y-94484875D01*
X88939875Y-94166603D01*
X89189941Y-93792353D01*
X89201270Y-93765000D01*
X127511928Y-93765000D01*
X127511928Y-95465000D01*
X127524188Y-95589482D01*
X127560498Y-95709180D01*
X127619463Y-95819494D01*
X127698815Y-95916185D01*
X127795506Y-95995537D01*
X127905820Y-96054502D01*
X128025518Y-96090812D01*
X128150000Y-96103072D01*
X129850000Y-96103072D01*
X129974482Y-96090812D01*
X130094180Y-96054502D01*
X130204494Y-95995537D01*
X130301185Y-95916185D01*
X130380537Y-95819494D01*
X130439502Y-95709180D01*
X130461513Y-95636620D01*
X130593368Y-95768475D01*
X130836589Y-95930990D01*
X131106842Y-96042932D01*
X131393740Y-96100000D01*
X131686260Y-96100000D01*
X131973158Y-96042932D01*
X132243411Y-95930990D01*
X132486632Y-95768475D01*
X132693475Y-95561632D01*
X132855990Y-95318411D01*
X132967932Y-95048158D01*
X133025000Y-94761260D01*
X133025000Y-94468740D01*
X132967932Y-94181842D01*
X132855990Y-93911589D01*
X132693475Y-93668368D01*
X132486632Y-93461525D01*
X132243411Y-93299010D01*
X131973158Y-93187068D01*
X131686260Y-93130000D01*
X131393740Y-93130000D01*
X131106842Y-93187068D01*
X130836589Y-93299010D01*
X130593368Y-93461525D01*
X130461513Y-93593380D01*
X130439502Y-93520820D01*
X130380537Y-93410506D01*
X130301185Y-93313815D01*
X130204494Y-93234463D01*
X130094180Y-93175498D01*
X129974482Y-93139188D01*
X129850000Y-93126928D01*
X128150000Y-93126928D01*
X128025518Y-93139188D01*
X127905820Y-93175498D01*
X127795506Y-93234463D01*
X127698815Y-93313815D01*
X127619463Y-93410506D01*
X127560498Y-93520820D01*
X127524188Y-93640518D01*
X127511928Y-93765000D01*
X89201270Y-93765000D01*
X89362189Y-93376510D01*
X89450000Y-92935053D01*
X89450000Y-92484947D01*
X89362189Y-92043490D01*
X89189941Y-91627647D01*
X88939875Y-91253397D01*
X88621603Y-90935125D01*
X88247353Y-90685059D01*
X87831510Y-90512811D01*
X87390053Y-90425000D01*
X86939947Y-90425000D01*
X86498490Y-90512811D01*
X86082647Y-90685059D01*
X85708397Y-90935125D01*
X85390125Y-91253397D01*
X85140059Y-91627647D01*
X84967811Y-92043490D01*
X84880000Y-92484947D01*
X61638072Y-92484947D01*
X61638072Y-91710000D01*
X61625812Y-91585518D01*
X61589502Y-91465820D01*
X61530537Y-91355506D01*
X61451185Y-91258815D01*
X61354494Y-91179463D01*
X61244180Y-91120498D01*
X61124482Y-91084188D01*
X61000000Y-91071928D01*
X59000000Y-91071928D01*
X58875518Y-91084188D01*
X58755820Y-91120498D01*
X58645506Y-91179463D01*
X58548815Y-91258815D01*
X58469463Y-91355506D01*
X58410498Y-91465820D01*
X58374188Y-91585518D01*
X58361928Y-91710000D01*
X50660000Y-91710000D01*
X50660000Y-89373967D01*
X126365000Y-89373967D01*
X126365000Y-89696033D01*
X126427832Y-90011912D01*
X126551082Y-90309463D01*
X126730013Y-90577252D01*
X126957748Y-90804987D01*
X127225537Y-90983918D01*
X127523088Y-91107168D01*
X127838967Y-91170000D01*
X128161033Y-91170000D01*
X128476912Y-91107168D01*
X128774463Y-90983918D01*
X129042252Y-90804987D01*
X129269987Y-90577252D01*
X129448918Y-90309463D01*
X129572168Y-90011912D01*
X129635000Y-89696033D01*
X129635000Y-89373967D01*
X130865000Y-89373967D01*
X130865000Y-89696033D01*
X130927832Y-90011912D01*
X131051082Y-90309463D01*
X131230013Y-90577252D01*
X131457748Y-90804987D01*
X131725537Y-90983918D01*
X132023088Y-91107168D01*
X132338967Y-91170000D01*
X132661033Y-91170000D01*
X132976912Y-91107168D01*
X133274463Y-90983918D01*
X133542252Y-90804987D01*
X133769987Y-90577252D01*
X133948918Y-90309463D01*
X134072168Y-90011912D01*
X134135000Y-89696033D01*
X134135000Y-89373967D01*
X134072168Y-89058088D01*
X133948918Y-88760537D01*
X133769987Y-88492748D01*
X133542252Y-88265013D01*
X133274463Y-88086082D01*
X132976912Y-87962832D01*
X132661033Y-87900000D01*
X132338967Y-87900000D01*
X132023088Y-87962832D01*
X131725537Y-88086082D01*
X131457748Y-88265013D01*
X131230013Y-88492748D01*
X131051082Y-88760537D01*
X130927832Y-89058088D01*
X130865000Y-89373967D01*
X129635000Y-89373967D01*
X129572168Y-89058088D01*
X129448918Y-88760537D01*
X129269987Y-88492748D01*
X129042252Y-88265013D01*
X128774463Y-88086082D01*
X128476912Y-87962832D01*
X128161033Y-87900000D01*
X127838967Y-87900000D01*
X127523088Y-87962832D01*
X127225537Y-88086082D01*
X126957748Y-88265013D01*
X126730013Y-88492748D01*
X126551082Y-88760537D01*
X126427832Y-89058088D01*
X126365000Y-89373967D01*
X50660000Y-89373967D01*
X50660000Y-82873967D01*
X126365000Y-82873967D01*
X126365000Y-83196033D01*
X126427832Y-83511912D01*
X126551082Y-83809463D01*
X126730013Y-84077252D01*
X126957748Y-84304987D01*
X127225537Y-84483918D01*
X127523088Y-84607168D01*
X127838967Y-84670000D01*
X128161033Y-84670000D01*
X128476912Y-84607168D01*
X128774463Y-84483918D01*
X129042252Y-84304987D01*
X129269987Y-84077252D01*
X129448918Y-83809463D01*
X129572168Y-83511912D01*
X129635000Y-83196033D01*
X129635000Y-82873967D01*
X130865000Y-82873967D01*
X130865000Y-83196033D01*
X130927832Y-83511912D01*
X131051082Y-83809463D01*
X131230013Y-84077252D01*
X131457748Y-84304987D01*
X131725537Y-84483918D01*
X132023088Y-84607168D01*
X132338967Y-84670000D01*
X132661033Y-84670000D01*
X132976912Y-84607168D01*
X133274463Y-84483918D01*
X133542252Y-84304987D01*
X133769987Y-84077252D01*
X133948918Y-83809463D01*
X134072168Y-83511912D01*
X134135000Y-83196033D01*
X134135000Y-82873967D01*
X134072168Y-82558088D01*
X133948918Y-82260537D01*
X133769987Y-81992748D01*
X133542252Y-81765013D01*
X133274463Y-81586082D01*
X132976912Y-81462832D01*
X132661033Y-81400000D01*
X132338967Y-81400000D01*
X132023088Y-81462832D01*
X131725537Y-81586082D01*
X131457748Y-81765013D01*
X131230013Y-81992748D01*
X131051082Y-82260537D01*
X130927832Y-82558088D01*
X130865000Y-82873967D01*
X129635000Y-82873967D01*
X129572168Y-82558088D01*
X129448918Y-82260537D01*
X129269987Y-81992748D01*
X129042252Y-81765013D01*
X128774463Y-81586082D01*
X128476912Y-81462832D01*
X128161033Y-81400000D01*
X127838967Y-81400000D01*
X127523088Y-81462832D01*
X127225537Y-81586082D01*
X126957748Y-81765013D01*
X126730013Y-81992748D01*
X126551082Y-82260537D01*
X126427832Y-82558088D01*
X126365000Y-82873967D01*
X50660000Y-82873967D01*
X50660000Y-77040000D01*
X52381928Y-77040000D01*
X52381928Y-81280000D01*
X52394188Y-81404482D01*
X52430498Y-81524180D01*
X52489463Y-81634494D01*
X52568815Y-81731185D01*
X52665506Y-81810537D01*
X52775820Y-81869502D01*
X52895518Y-81905812D01*
X53020000Y-81918072D01*
X54720000Y-81918072D01*
X54844482Y-81905812D01*
X54964180Y-81869502D01*
X55074494Y-81810537D01*
X55171185Y-81731185D01*
X55250537Y-81634494D01*
X55309502Y-81524180D01*
X55331513Y-81451620D01*
X55463368Y-81583475D01*
X55706589Y-81745990D01*
X55976842Y-81857932D01*
X56263740Y-81915000D01*
X56556260Y-81915000D01*
X56843158Y-81857932D01*
X57113411Y-81745990D01*
X57356632Y-81583475D01*
X57563475Y-81376632D01*
X57685195Y-81194466D01*
X57754822Y-81311355D01*
X57949731Y-81527588D01*
X58183080Y-81701641D01*
X58445901Y-81826825D01*
X58593110Y-81871476D01*
X58823000Y-81750155D01*
X58823000Y-76563750D01*
X59077000Y-76563750D01*
X59077000Y-81750155D01*
X59306890Y-81871476D01*
X59454099Y-81826825D01*
X59716920Y-81701641D01*
X59950269Y-81527588D01*
X60145178Y-81311355D01*
X60214805Y-81194466D01*
X60336525Y-81376632D01*
X60543368Y-81583475D01*
X60786589Y-81745990D01*
X61056842Y-81857932D01*
X61343740Y-81915000D01*
X61636260Y-81915000D01*
X61923158Y-81857932D01*
X62193411Y-81745990D01*
X62436632Y-81583475D01*
X62643475Y-81376632D01*
X62760000Y-81202240D01*
X62876525Y-81376632D01*
X63083368Y-81583475D01*
X63326589Y-81745990D01*
X63596842Y-81857932D01*
X63883740Y-81915000D01*
X64176260Y-81915000D01*
X64463158Y-81857932D01*
X64733411Y-81745990D01*
X64976632Y-81583475D01*
X65183475Y-81376632D01*
X65300000Y-81202240D01*
X65416525Y-81376632D01*
X65623368Y-81583475D01*
X65866589Y-81745990D01*
X66136842Y-81857932D01*
X66423740Y-81915000D01*
X66716260Y-81915000D01*
X67003158Y-81857932D01*
X67273411Y-81745990D01*
X67516632Y-81583475D01*
X67723475Y-81376632D01*
X67840000Y-81202240D01*
X67956525Y-81376632D01*
X68163368Y-81583475D01*
X68406589Y-81745990D01*
X68676842Y-81857932D01*
X68963740Y-81915000D01*
X69256260Y-81915000D01*
X69543158Y-81857932D01*
X69813411Y-81745990D01*
X70056632Y-81583475D01*
X70263475Y-81376632D01*
X70385195Y-81194466D01*
X70454822Y-81311355D01*
X70649731Y-81527588D01*
X70883080Y-81701641D01*
X71145901Y-81826825D01*
X71293110Y-81871476D01*
X71523000Y-81750155D01*
X71523000Y-76563750D01*
X71777000Y-76563750D01*
X71777000Y-81750155D01*
X72006890Y-81871476D01*
X72154099Y-81826825D01*
X72416920Y-81701641D01*
X72650269Y-81527588D01*
X72845178Y-81311355D01*
X72914805Y-81194466D01*
X73036525Y-81376632D01*
X73243368Y-81583475D01*
X73486589Y-81745990D01*
X73756842Y-81857932D01*
X74043740Y-81915000D01*
X74336260Y-81915000D01*
X74623158Y-81857932D01*
X74893411Y-81745990D01*
X75136632Y-81583475D01*
X75343475Y-81376632D01*
X75460000Y-81202240D01*
X75576525Y-81376632D01*
X75783368Y-81583475D01*
X76026589Y-81745990D01*
X76296842Y-81857932D01*
X76583740Y-81915000D01*
X76876260Y-81915000D01*
X77163158Y-81857932D01*
X77433411Y-81745990D01*
X77676632Y-81583475D01*
X77883475Y-81376632D01*
X78000000Y-81202240D01*
X78116525Y-81376632D01*
X78323368Y-81583475D01*
X78566589Y-81745990D01*
X78836842Y-81857932D01*
X79123740Y-81915000D01*
X79416260Y-81915000D01*
X79703158Y-81857932D01*
X79973411Y-81745990D01*
X80216632Y-81583475D01*
X80423475Y-81376632D01*
X80540000Y-81202240D01*
X80656525Y-81376632D01*
X80863368Y-81583475D01*
X81106589Y-81745990D01*
X81376842Y-81857932D01*
X81663740Y-81915000D01*
X81956260Y-81915000D01*
X82243158Y-81857932D01*
X82513411Y-81745990D01*
X82756632Y-81583475D01*
X82963475Y-81376632D01*
X83085195Y-81194466D01*
X83154822Y-81311355D01*
X83349731Y-81527588D01*
X83583080Y-81701641D01*
X83845901Y-81826825D01*
X83993110Y-81871476D01*
X84223000Y-81750155D01*
X84223000Y-76563750D01*
X84477000Y-76563750D01*
X84477000Y-81750155D01*
X84706890Y-81871476D01*
X84854099Y-81826825D01*
X85116920Y-81701641D01*
X85350269Y-81527588D01*
X85545178Y-81311355D01*
X85614805Y-81194466D01*
X85736525Y-81376632D01*
X85943368Y-81583475D01*
X86186589Y-81745990D01*
X86456842Y-81857932D01*
X86743740Y-81915000D01*
X87036260Y-81915000D01*
X87323158Y-81857932D01*
X87593411Y-81745990D01*
X87836632Y-81583475D01*
X88043475Y-81376632D01*
X88160000Y-81202240D01*
X88276525Y-81376632D01*
X88483368Y-81583475D01*
X88726589Y-81745990D01*
X88996842Y-81857932D01*
X89283740Y-81915000D01*
X89576260Y-81915000D01*
X89863158Y-81857932D01*
X90133411Y-81745990D01*
X90376632Y-81583475D01*
X90583475Y-81376632D01*
X90700000Y-81202240D01*
X90816525Y-81376632D01*
X91023368Y-81583475D01*
X91266589Y-81745990D01*
X91536842Y-81857932D01*
X91823740Y-81915000D01*
X92116260Y-81915000D01*
X92403158Y-81857932D01*
X92673411Y-81745990D01*
X92916632Y-81583475D01*
X93123475Y-81376632D01*
X93240000Y-81202240D01*
X93356525Y-81376632D01*
X93563368Y-81583475D01*
X93806589Y-81745990D01*
X94076842Y-81857932D01*
X94363740Y-81915000D01*
X94656260Y-81915000D01*
X94943158Y-81857932D01*
X95213411Y-81745990D01*
X95456632Y-81583475D01*
X95663475Y-81376632D01*
X95825990Y-81133411D01*
X95850850Y-81073393D01*
X95955820Y-81129502D01*
X96075518Y-81165812D01*
X96200000Y-81178072D01*
X96764250Y-81175000D01*
X96923000Y-81016250D01*
X96923000Y-76563750D01*
X97177000Y-76563750D01*
X97177000Y-81016250D01*
X97335750Y-81175000D01*
X97900000Y-81178072D01*
X98024482Y-81165812D01*
X98144180Y-81129502D01*
X98254494Y-81070537D01*
X98320000Y-81016778D01*
X98385506Y-81070537D01*
X98495820Y-81129502D01*
X98615518Y-81165812D01*
X98740000Y-81178072D01*
X100440000Y-81178072D01*
X100564482Y-81165812D01*
X100684180Y-81129502D01*
X100794494Y-81070537D01*
X100860000Y-81016778D01*
X100925506Y-81070537D01*
X101035820Y-81129502D01*
X101155518Y-81165812D01*
X101280000Y-81178072D01*
X102980000Y-81178072D01*
X103104482Y-81165812D01*
X103224180Y-81129502D01*
X103334494Y-81070537D01*
X103431185Y-80991185D01*
X103510537Y-80894494D01*
X103569502Y-80784180D01*
X103605812Y-80664482D01*
X103618072Y-80540000D01*
X103618072Y-77973514D01*
X105345000Y-77973514D01*
X105345000Y-78236486D01*
X105396304Y-78494405D01*
X105496939Y-78737359D01*
X105643038Y-78956013D01*
X105828987Y-79141962D01*
X106047641Y-79288061D01*
X106290595Y-79388696D01*
X106548514Y-79440000D01*
X106811486Y-79440000D01*
X107069405Y-79388696D01*
X107312359Y-79288061D01*
X107531013Y-79141962D01*
X107716962Y-78956013D01*
X107863061Y-78737359D01*
X107950000Y-78527470D01*
X108036939Y-78737359D01*
X108183038Y-78956013D01*
X108368987Y-79141962D01*
X108587641Y-79288061D01*
X108830595Y-79388696D01*
X109088514Y-79440000D01*
X109351486Y-79440000D01*
X109609405Y-79388696D01*
X109852359Y-79288061D01*
X110071013Y-79141962D01*
X110256962Y-78956013D01*
X110403061Y-78737359D01*
X110503696Y-78494405D01*
X110555000Y-78236486D01*
X110555000Y-77973514D01*
X110503696Y-77715595D01*
X110403061Y-77472641D01*
X110256962Y-77253987D01*
X110071013Y-77068038D01*
X109852359Y-76921939D01*
X109609405Y-76821304D01*
X109351486Y-76770000D01*
X109088514Y-76770000D01*
X108830595Y-76821304D01*
X108587641Y-76921939D01*
X108368987Y-77068038D01*
X108183038Y-77253987D01*
X108036939Y-77472641D01*
X107950000Y-77682530D01*
X107863061Y-77472641D01*
X107716962Y-77253987D01*
X107531013Y-77068038D01*
X107312359Y-76921939D01*
X107069405Y-76821304D01*
X106811486Y-76770000D01*
X106548514Y-76770000D01*
X106290595Y-76821304D01*
X106047641Y-76921939D01*
X105828987Y-77068038D01*
X105643038Y-77253987D01*
X105496939Y-77472641D01*
X105396304Y-77715595D01*
X105345000Y-77973514D01*
X103618072Y-77973514D01*
X103618072Y-77040000D01*
X103605812Y-76915518D01*
X103569502Y-76795820D01*
X103510537Y-76685506D01*
X103431185Y-76588815D01*
X103334494Y-76509463D01*
X103224180Y-76450498D01*
X103104482Y-76414188D01*
X102980000Y-76401928D01*
X101280000Y-76401928D01*
X101155518Y-76414188D01*
X101035820Y-76450498D01*
X100925506Y-76509463D01*
X100860000Y-76563222D01*
X100794494Y-76509463D01*
X100684180Y-76450498D01*
X100564482Y-76414188D01*
X100440000Y-76401928D01*
X98740000Y-76401928D01*
X98615518Y-76414188D01*
X98495820Y-76450498D01*
X98385506Y-76509463D01*
X98320000Y-76563222D01*
X98254494Y-76509463D01*
X98144180Y-76450498D01*
X98024482Y-76414188D01*
X97900000Y-76401928D01*
X97335750Y-76405000D01*
X97177000Y-76563750D01*
X96923000Y-76563750D01*
X96764250Y-76405000D01*
X96200000Y-76401928D01*
X96075518Y-76414188D01*
X95955820Y-76450498D01*
X95845506Y-76509463D01*
X95780000Y-76563222D01*
X95714494Y-76509463D01*
X95604180Y-76450498D01*
X95484482Y-76414188D01*
X95360000Y-76401928D01*
X93660000Y-76401928D01*
X93535518Y-76414188D01*
X93415820Y-76450498D01*
X93305506Y-76509463D01*
X93240000Y-76563222D01*
X93174494Y-76509463D01*
X93064180Y-76450498D01*
X92944482Y-76414188D01*
X92820000Y-76401928D01*
X91120000Y-76401928D01*
X90995518Y-76414188D01*
X90875820Y-76450498D01*
X90765506Y-76509463D01*
X90700000Y-76563222D01*
X90634494Y-76509463D01*
X90524180Y-76450498D01*
X90404482Y-76414188D01*
X90280000Y-76401928D01*
X88580000Y-76401928D01*
X88455518Y-76414188D01*
X88335820Y-76450498D01*
X88225506Y-76509463D01*
X88160000Y-76563222D01*
X88094494Y-76509463D01*
X87984180Y-76450498D01*
X87864482Y-76414188D01*
X87740000Y-76401928D01*
X86040000Y-76401928D01*
X85915518Y-76414188D01*
X85795820Y-76450498D01*
X85685506Y-76509463D01*
X85620000Y-76563222D01*
X85554494Y-76509463D01*
X85444180Y-76450498D01*
X85324482Y-76414188D01*
X85200000Y-76401928D01*
X84635750Y-76405000D01*
X84477000Y-76563750D01*
X84223000Y-76563750D01*
X84064250Y-76405000D01*
X83500000Y-76401928D01*
X83375518Y-76414188D01*
X83255820Y-76450498D01*
X83145506Y-76509463D01*
X83080000Y-76563222D01*
X83014494Y-76509463D01*
X82904180Y-76450498D01*
X82784482Y-76414188D01*
X82660000Y-76401928D01*
X80960000Y-76401928D01*
X80835518Y-76414188D01*
X80715820Y-76450498D01*
X80605506Y-76509463D01*
X80540000Y-76563222D01*
X80474494Y-76509463D01*
X80364180Y-76450498D01*
X80244482Y-76414188D01*
X80120000Y-76401928D01*
X78420000Y-76401928D01*
X78295518Y-76414188D01*
X78175820Y-76450498D01*
X78065506Y-76509463D01*
X78000000Y-76563222D01*
X77934494Y-76509463D01*
X77824180Y-76450498D01*
X77704482Y-76414188D01*
X77580000Y-76401928D01*
X75880000Y-76401928D01*
X75755518Y-76414188D01*
X75635820Y-76450498D01*
X75525506Y-76509463D01*
X75460000Y-76563222D01*
X75394494Y-76509463D01*
X75284180Y-76450498D01*
X75164482Y-76414188D01*
X75040000Y-76401928D01*
X73340000Y-76401928D01*
X73215518Y-76414188D01*
X73095820Y-76450498D01*
X72985506Y-76509463D01*
X72920000Y-76563222D01*
X72854494Y-76509463D01*
X72744180Y-76450498D01*
X72624482Y-76414188D01*
X72500000Y-76401928D01*
X71935750Y-76405000D01*
X71777000Y-76563750D01*
X71523000Y-76563750D01*
X71364250Y-76405000D01*
X70800000Y-76401928D01*
X70675518Y-76414188D01*
X70555820Y-76450498D01*
X70445506Y-76509463D01*
X70380000Y-76563222D01*
X70314494Y-76509463D01*
X70204180Y-76450498D01*
X70084482Y-76414188D01*
X69960000Y-76401928D01*
X68260000Y-76401928D01*
X68135518Y-76414188D01*
X68015820Y-76450498D01*
X67905506Y-76509463D01*
X67840000Y-76563222D01*
X67774494Y-76509463D01*
X67664180Y-76450498D01*
X67544482Y-76414188D01*
X67420000Y-76401928D01*
X65720000Y-76401928D01*
X65595518Y-76414188D01*
X65475820Y-76450498D01*
X65365506Y-76509463D01*
X65300000Y-76563222D01*
X65234494Y-76509463D01*
X65124180Y-76450498D01*
X65004482Y-76414188D01*
X64880000Y-76401928D01*
X63180000Y-76401928D01*
X63055518Y-76414188D01*
X62935820Y-76450498D01*
X62825506Y-76509463D01*
X62760000Y-76563222D01*
X62694494Y-76509463D01*
X62584180Y-76450498D01*
X62464482Y-76414188D01*
X62340000Y-76401928D01*
X60640000Y-76401928D01*
X60515518Y-76414188D01*
X60395820Y-76450498D01*
X60285506Y-76509463D01*
X60220000Y-76563222D01*
X60154494Y-76509463D01*
X60044180Y-76450498D01*
X59924482Y-76414188D01*
X59800000Y-76401928D01*
X59235750Y-76405000D01*
X59077000Y-76563750D01*
X58823000Y-76563750D01*
X58664250Y-76405000D01*
X58100000Y-76401928D01*
X57975518Y-76414188D01*
X57855820Y-76450498D01*
X57745506Y-76509463D01*
X57680000Y-76563222D01*
X57614494Y-76509463D01*
X57504180Y-76450498D01*
X57384482Y-76414188D01*
X57260000Y-76401928D01*
X55560000Y-76401928D01*
X55435518Y-76414188D01*
X55315820Y-76450498D01*
X55205506Y-76509463D01*
X55140000Y-76563222D01*
X55074494Y-76509463D01*
X54964180Y-76450498D01*
X54844482Y-76414188D01*
X54720000Y-76401928D01*
X53020000Y-76401928D01*
X52895518Y-76414188D01*
X52775820Y-76450498D01*
X52665506Y-76509463D01*
X52568815Y-76588815D01*
X52489463Y-76685506D01*
X52430498Y-76795820D01*
X52394188Y-76915518D01*
X52381928Y-77040000D01*
X50660000Y-77040000D01*
X50660000Y-71573816D01*
X52465000Y-71573816D01*
X52465000Y-71876184D01*
X52523989Y-72172743D01*
X52639701Y-72452095D01*
X52807688Y-72703505D01*
X53021495Y-72917312D01*
X53272905Y-73085299D01*
X53552257Y-73201011D01*
X53848816Y-73260000D01*
X54151184Y-73260000D01*
X54447743Y-73201011D01*
X54727095Y-73085299D01*
X54978505Y-72917312D01*
X55192312Y-72703505D01*
X55360299Y-72452095D01*
X55476011Y-72172743D01*
X55535000Y-71876184D01*
X55535000Y-71573816D01*
X55478266Y-71288589D01*
X55645000Y-71288589D01*
X55645000Y-71561411D01*
X55698225Y-71828989D01*
X55802629Y-72081043D01*
X55954201Y-72307886D01*
X56147114Y-72500799D01*
X56373957Y-72652371D01*
X56626011Y-72756775D01*
X56893589Y-72810000D01*
X57166411Y-72810000D01*
X57433989Y-72756775D01*
X57686043Y-72652371D01*
X57912886Y-72500799D01*
X58105799Y-72307886D01*
X58257371Y-72081043D01*
X58361775Y-71828989D01*
X58415000Y-71561411D01*
X58415000Y-71288589D01*
X58361775Y-71021011D01*
X58257371Y-70768957D01*
X58105799Y-70542114D01*
X57912886Y-70349201D01*
X57686043Y-70197629D01*
X57433989Y-70093225D01*
X57166411Y-70040000D01*
X56893589Y-70040000D01*
X56626011Y-70093225D01*
X56373957Y-70197629D01*
X56147114Y-70349201D01*
X55954201Y-70542114D01*
X55802629Y-70768957D01*
X55698225Y-71021011D01*
X55645000Y-71288589D01*
X55478266Y-71288589D01*
X55476011Y-71277257D01*
X55360299Y-70997905D01*
X55192312Y-70746495D01*
X54978505Y-70532688D01*
X54727095Y-70364701D01*
X54447743Y-70248989D01*
X54151184Y-70190000D01*
X53848816Y-70190000D01*
X53552257Y-70248989D01*
X53272905Y-70364701D01*
X53021495Y-70532688D01*
X52807688Y-70746495D01*
X52639701Y-70997905D01*
X52523989Y-71277257D01*
X52465000Y-71573816D01*
X50660000Y-71573816D01*
X50660000Y-66123816D01*
X52465000Y-66123816D01*
X52465000Y-66426184D01*
X52523989Y-66722743D01*
X52639701Y-67002095D01*
X52807688Y-67253505D01*
X53021495Y-67467312D01*
X53272905Y-67635299D01*
X53552257Y-67751011D01*
X53848816Y-67810000D01*
X54151184Y-67810000D01*
X54447743Y-67751011D01*
X54727095Y-67635299D01*
X54978505Y-67467312D01*
X55192312Y-67253505D01*
X55360299Y-67002095D01*
X55476011Y-66722743D01*
X55532532Y-66438589D01*
X55645000Y-66438589D01*
X55645000Y-66711411D01*
X55698225Y-66978989D01*
X55802629Y-67231043D01*
X55954201Y-67457886D01*
X56147114Y-67650799D01*
X56373957Y-67802371D01*
X56626011Y-67906775D01*
X56893589Y-67960000D01*
X57166411Y-67960000D01*
X57433989Y-67906775D01*
X57686043Y-67802371D01*
X57912886Y-67650799D01*
X58105799Y-67457886D01*
X58257371Y-67231043D01*
X58361775Y-66978989D01*
X58415000Y-66711411D01*
X58415000Y-66438589D01*
X58361775Y-66171011D01*
X58257371Y-65918957D01*
X58105799Y-65692114D01*
X58023685Y-65610000D01*
X100411928Y-65610000D01*
X100411928Y-67310000D01*
X100424188Y-67434482D01*
X100460498Y-67554180D01*
X100519463Y-67664494D01*
X100573222Y-67730000D01*
X100519463Y-67795506D01*
X100460498Y-67905820D01*
X100424188Y-68025518D01*
X100411928Y-68150000D01*
X100411928Y-69850000D01*
X100424188Y-69974482D01*
X100460498Y-70094180D01*
X100519463Y-70204494D01*
X100573222Y-70270000D01*
X100519463Y-70335506D01*
X100460498Y-70445820D01*
X100424188Y-70565518D01*
X100411928Y-70690000D01*
X100411928Y-72390000D01*
X100424188Y-72514482D01*
X100460498Y-72634180D01*
X100519463Y-72744494D01*
X100598815Y-72841185D01*
X100695506Y-72920537D01*
X100805820Y-72979502D01*
X100925518Y-73015812D01*
X101050000Y-73028072D01*
X104550000Y-73028072D01*
X104674482Y-73015812D01*
X104794180Y-72979502D01*
X104904494Y-72920537D01*
X105001185Y-72841185D01*
X105080537Y-72744494D01*
X105139502Y-72634180D01*
X105175812Y-72514482D01*
X105188072Y-72390000D01*
X105188072Y-72258514D01*
X105345000Y-72258514D01*
X105345000Y-72521486D01*
X105396304Y-72779405D01*
X105496939Y-73022359D01*
X105643038Y-73241013D01*
X105828987Y-73426962D01*
X106047641Y-73573061D01*
X106290595Y-73673696D01*
X106548514Y-73725000D01*
X106811486Y-73725000D01*
X107069405Y-73673696D01*
X107312359Y-73573061D01*
X107531013Y-73426962D01*
X107716962Y-73241013D01*
X107863061Y-73022359D01*
X107950000Y-72812470D01*
X108036939Y-73022359D01*
X108183038Y-73241013D01*
X108368987Y-73426962D01*
X108587641Y-73573061D01*
X108830595Y-73673696D01*
X109088514Y-73725000D01*
X109351486Y-73725000D01*
X109609405Y-73673696D01*
X109852359Y-73573061D01*
X110071013Y-73426962D01*
X110256962Y-73241013D01*
X110403061Y-73022359D01*
X110503696Y-72779405D01*
X110555000Y-72521486D01*
X110555000Y-72258514D01*
X110503696Y-72000595D01*
X110403061Y-71757641D01*
X110256962Y-71538987D01*
X110071013Y-71353038D01*
X109852359Y-71206939D01*
X109609405Y-71106304D01*
X109351486Y-71055000D01*
X109088514Y-71055000D01*
X108830595Y-71106304D01*
X108587641Y-71206939D01*
X108368987Y-71353038D01*
X108183038Y-71538987D01*
X108036939Y-71757641D01*
X107950000Y-71967530D01*
X107863061Y-71757641D01*
X107716962Y-71538987D01*
X107531013Y-71353038D01*
X107312359Y-71206939D01*
X107069405Y-71106304D01*
X106811486Y-71055000D01*
X106548514Y-71055000D01*
X106290595Y-71106304D01*
X106047641Y-71206939D01*
X105828987Y-71353038D01*
X105643038Y-71538987D01*
X105496939Y-71757641D01*
X105396304Y-72000595D01*
X105345000Y-72258514D01*
X105188072Y-72258514D01*
X105188072Y-70690000D01*
X105175812Y-70565518D01*
X105139502Y-70445820D01*
X105080537Y-70335506D01*
X105026778Y-70270000D01*
X105080537Y-70204494D01*
X105139502Y-70094180D01*
X105175812Y-69974482D01*
X105188072Y-69850000D01*
X105188072Y-68150000D01*
X105175812Y-68025518D01*
X105139502Y-67905820D01*
X105080537Y-67795506D01*
X105026778Y-67730000D01*
X105080537Y-67664494D01*
X105139502Y-67554180D01*
X105175812Y-67434482D01*
X105188072Y-67310000D01*
X105188072Y-66460000D01*
X106461928Y-66460000D01*
X106461928Y-68160000D01*
X106474188Y-68284482D01*
X106510498Y-68404180D01*
X106569463Y-68514494D01*
X106648815Y-68611185D01*
X106745506Y-68690537D01*
X106855820Y-68749502D01*
X106975518Y-68785812D01*
X107100000Y-68798072D01*
X108800000Y-68798072D01*
X108924482Y-68785812D01*
X109044180Y-68749502D01*
X109154494Y-68690537D01*
X109251185Y-68611185D01*
X109330537Y-68514494D01*
X109389502Y-68404180D01*
X109425812Y-68284482D01*
X109438072Y-68160000D01*
X109438072Y-66460000D01*
X109425812Y-66335518D01*
X109389502Y-66215820D01*
X109330537Y-66105506D01*
X109251185Y-66008815D01*
X109154494Y-65929463D01*
X109044180Y-65870498D01*
X108963534Y-65846034D01*
X109047588Y-65770269D01*
X109221641Y-65536920D01*
X109296013Y-65380776D01*
X116342116Y-65380776D01*
X116342116Y-66619224D01*
X116518365Y-67845067D01*
X116867276Y-69033349D01*
X117381746Y-70159881D01*
X118051302Y-71201730D01*
X118862313Y-72137687D01*
X119798270Y-72948698D01*
X120840119Y-73618254D01*
X121966651Y-74132724D01*
X123154933Y-74481635D01*
X124380776Y-74657884D01*
X125619224Y-74657884D01*
X126845067Y-74481635D01*
X128033349Y-74132724D01*
X129159881Y-73618254D01*
X130201730Y-72948698D01*
X131137687Y-72137687D01*
X131948698Y-71201730D01*
X132618254Y-70159881D01*
X133132724Y-69033349D01*
X133481635Y-67845067D01*
X133657884Y-66619224D01*
X133657884Y-65380776D01*
X133481635Y-64154933D01*
X133132724Y-62966651D01*
X132618254Y-61840119D01*
X131948698Y-60798270D01*
X131137687Y-59862313D01*
X130201730Y-59051302D01*
X129159881Y-58381746D01*
X128033349Y-57867276D01*
X126845067Y-57518365D01*
X125619224Y-57342116D01*
X124380776Y-57342116D01*
X123154933Y-57518365D01*
X121966651Y-57867276D01*
X120840119Y-58381746D01*
X119798270Y-59051302D01*
X118862313Y-59862313D01*
X118051302Y-60798270D01*
X117381746Y-61840119D01*
X116867276Y-62966651D01*
X116518365Y-64154933D01*
X116342116Y-65380776D01*
X109296013Y-65380776D01*
X109346825Y-65274099D01*
X109391476Y-65126890D01*
X109270155Y-64897000D01*
X108077000Y-64897000D01*
X108077000Y-64917000D01*
X107823000Y-64917000D01*
X107823000Y-64897000D01*
X106629845Y-64897000D01*
X106508524Y-65126890D01*
X106553175Y-65274099D01*
X106678359Y-65536920D01*
X106852412Y-65770269D01*
X106936466Y-65846034D01*
X106855820Y-65870498D01*
X106745506Y-65929463D01*
X106648815Y-66008815D01*
X106569463Y-66105506D01*
X106510498Y-66215820D01*
X106474188Y-66335518D01*
X106461928Y-66460000D01*
X105188072Y-66460000D01*
X105188072Y-65610000D01*
X105175812Y-65485518D01*
X105139502Y-65365820D01*
X105080537Y-65255506D01*
X105001185Y-65158815D01*
X104904494Y-65079463D01*
X104794180Y-65020498D01*
X104674482Y-64984188D01*
X104550000Y-64971928D01*
X101050000Y-64971928D01*
X100925518Y-64984188D01*
X100805820Y-65020498D01*
X100695506Y-65079463D01*
X100598815Y-65158815D01*
X100519463Y-65255506D01*
X100460498Y-65365820D01*
X100424188Y-65485518D01*
X100411928Y-65610000D01*
X58023685Y-65610000D01*
X57912886Y-65499201D01*
X57686043Y-65347629D01*
X57433989Y-65243225D01*
X57166411Y-65190000D01*
X56893589Y-65190000D01*
X56626011Y-65243225D01*
X56373957Y-65347629D01*
X56147114Y-65499201D01*
X55954201Y-65692114D01*
X55802629Y-65918957D01*
X55698225Y-66171011D01*
X55645000Y-66438589D01*
X55532532Y-66438589D01*
X55535000Y-66426184D01*
X55535000Y-66123816D01*
X55476011Y-65827257D01*
X55360299Y-65547905D01*
X55192312Y-65296495D01*
X54978505Y-65082688D01*
X54727095Y-64914701D01*
X54447743Y-64798989D01*
X54151184Y-64740000D01*
X53848816Y-64740000D01*
X53552257Y-64798989D01*
X53272905Y-64914701D01*
X53021495Y-65082688D01*
X52807688Y-65296495D01*
X52639701Y-65547905D01*
X52523989Y-65827257D01*
X52465000Y-66123816D01*
X50660000Y-66123816D01*
X50660000Y-64413110D01*
X106508524Y-64413110D01*
X106629845Y-64643000D01*
X107823000Y-64643000D01*
X107823000Y-63449186D01*
X108077000Y-63449186D01*
X108077000Y-64643000D01*
X109270155Y-64643000D01*
X109391476Y-64413110D01*
X109346825Y-64265901D01*
X109221641Y-64003080D01*
X109047588Y-63769731D01*
X108831355Y-63574822D01*
X108581252Y-63425843D01*
X108306891Y-63328519D01*
X108077000Y-63449186D01*
X107823000Y-63449186D01*
X107593109Y-63328519D01*
X107318748Y-63425843D01*
X107068645Y-63574822D01*
X106852412Y-63769731D01*
X106678359Y-64003080D01*
X106553175Y-64265901D01*
X106508524Y-64413110D01*
X50660000Y-64413110D01*
X50660000Y-53779872D01*
X51765000Y-53779872D01*
X51765000Y-54220128D01*
X51850890Y-54651925D01*
X52019369Y-55058669D01*
X52263962Y-55424729D01*
X52575271Y-55736038D01*
X52941331Y-55980631D01*
X53348075Y-56149110D01*
X53396558Y-56158754D01*
X53166589Y-56254010D01*
X52923368Y-56416525D01*
X52716525Y-56623368D01*
X52554010Y-56866589D01*
X52442068Y-57136842D01*
X52418473Y-57255461D01*
X52394188Y-57335518D01*
X52385989Y-57418769D01*
X52385000Y-57423740D01*
X52385000Y-57428808D01*
X52381928Y-57460000D01*
X52381928Y-60960000D01*
X52394188Y-61084482D01*
X52430498Y-61204180D01*
X52489463Y-61314494D01*
X52568815Y-61411185D01*
X52665506Y-61490537D01*
X52775820Y-61549502D01*
X52895518Y-61585812D01*
X53020000Y-61598072D01*
X54720000Y-61598072D01*
X54844482Y-61585812D01*
X54964180Y-61549502D01*
X55074494Y-61490537D01*
X55140000Y-61436778D01*
X55205506Y-61490537D01*
X55315820Y-61549502D01*
X55435518Y-61585812D01*
X55560000Y-61598072D01*
X57260000Y-61598072D01*
X57384482Y-61585812D01*
X57504180Y-61549502D01*
X57614494Y-61490537D01*
X57680000Y-61436778D01*
X57745506Y-61490537D01*
X57855820Y-61549502D01*
X57975518Y-61585812D01*
X58100000Y-61598072D01*
X58664250Y-61595000D01*
X58823000Y-61436250D01*
X58823000Y-56983750D01*
X59077000Y-56983750D01*
X59077000Y-61436250D01*
X59235750Y-61595000D01*
X59800000Y-61598072D01*
X59924482Y-61585812D01*
X60044180Y-61549502D01*
X60154494Y-61490537D01*
X60220000Y-61436778D01*
X60285506Y-61490537D01*
X60395820Y-61549502D01*
X60515518Y-61585812D01*
X60640000Y-61598072D01*
X62340000Y-61598072D01*
X62464482Y-61585812D01*
X62584180Y-61549502D01*
X62694494Y-61490537D01*
X62760000Y-61436778D01*
X62825506Y-61490537D01*
X62935820Y-61549502D01*
X63055518Y-61585812D01*
X63180000Y-61598072D01*
X64880000Y-61598072D01*
X65004482Y-61585812D01*
X65124180Y-61549502D01*
X65234494Y-61490537D01*
X65300000Y-61436778D01*
X65365506Y-61490537D01*
X65475820Y-61549502D01*
X65595518Y-61585812D01*
X65720000Y-61598072D01*
X67420000Y-61598072D01*
X67544482Y-61585812D01*
X67664180Y-61549502D01*
X67774494Y-61490537D01*
X67840000Y-61436778D01*
X67905506Y-61490537D01*
X68015820Y-61549502D01*
X68135518Y-61585812D01*
X68260000Y-61598072D01*
X69960000Y-61598072D01*
X70084482Y-61585812D01*
X70204180Y-61549502D01*
X70314494Y-61490537D01*
X70380000Y-61436778D01*
X70445506Y-61490537D01*
X70555820Y-61549502D01*
X70675518Y-61585812D01*
X70800000Y-61598072D01*
X71364250Y-61595000D01*
X71523000Y-61436250D01*
X71523000Y-56983750D01*
X71777000Y-56983750D01*
X71777000Y-61436250D01*
X71935750Y-61595000D01*
X72500000Y-61598072D01*
X72624482Y-61585812D01*
X72744180Y-61549502D01*
X72854494Y-61490537D01*
X72920000Y-61436778D01*
X72985506Y-61490537D01*
X73095820Y-61549502D01*
X73215518Y-61585812D01*
X73340000Y-61598072D01*
X75040000Y-61598072D01*
X75164482Y-61585812D01*
X75284180Y-61549502D01*
X75394494Y-61490537D01*
X75460000Y-61436778D01*
X75525506Y-61490537D01*
X75635820Y-61549502D01*
X75755518Y-61585812D01*
X75880000Y-61598072D01*
X77580000Y-61598072D01*
X77704482Y-61585812D01*
X77824180Y-61549502D01*
X77934494Y-61490537D01*
X78000000Y-61436778D01*
X78065506Y-61490537D01*
X78175820Y-61549502D01*
X78295518Y-61585812D01*
X78420000Y-61598072D01*
X80120000Y-61598072D01*
X80244482Y-61585812D01*
X80364180Y-61549502D01*
X80474494Y-61490537D01*
X80540000Y-61436778D01*
X80605506Y-61490537D01*
X80715820Y-61549502D01*
X80835518Y-61585812D01*
X80960000Y-61598072D01*
X82660000Y-61598072D01*
X82784482Y-61585812D01*
X82904180Y-61549502D01*
X83014494Y-61490537D01*
X83080000Y-61436778D01*
X83145506Y-61490537D01*
X83255820Y-61549502D01*
X83375518Y-61585812D01*
X83500000Y-61598072D01*
X84064250Y-61595000D01*
X84223000Y-61436250D01*
X84223000Y-56983750D01*
X84477000Y-56983750D01*
X84477000Y-61436250D01*
X84635750Y-61595000D01*
X85200000Y-61598072D01*
X85324482Y-61585812D01*
X85444180Y-61549502D01*
X85554494Y-61490537D01*
X85620000Y-61436778D01*
X85685506Y-61490537D01*
X85795820Y-61549502D01*
X85915518Y-61585812D01*
X86040000Y-61598072D01*
X87740000Y-61598072D01*
X87864482Y-61585812D01*
X87984180Y-61549502D01*
X88094494Y-61490537D01*
X88160000Y-61436778D01*
X88225506Y-61490537D01*
X88335820Y-61549502D01*
X88455518Y-61585812D01*
X88580000Y-61598072D01*
X90280000Y-61598072D01*
X90404482Y-61585812D01*
X90524180Y-61549502D01*
X90634494Y-61490537D01*
X90700000Y-61436778D01*
X90765506Y-61490537D01*
X90875820Y-61549502D01*
X90995518Y-61585812D01*
X91120000Y-61598072D01*
X92820000Y-61598072D01*
X92944482Y-61585812D01*
X93064180Y-61549502D01*
X93174494Y-61490537D01*
X93240000Y-61436778D01*
X93305506Y-61490537D01*
X93415820Y-61549502D01*
X93535518Y-61585812D01*
X93660000Y-61598072D01*
X95360000Y-61598072D01*
X95484482Y-61585812D01*
X95604180Y-61549502D01*
X95714494Y-61490537D01*
X95780000Y-61436778D01*
X95845506Y-61490537D01*
X95955820Y-61549502D01*
X96075518Y-61585812D01*
X96200000Y-61598072D01*
X96764250Y-61595000D01*
X96923000Y-61436250D01*
X96923000Y-56983750D01*
X97177000Y-56983750D01*
X97177000Y-61436250D01*
X97335750Y-61595000D01*
X97900000Y-61598072D01*
X98024482Y-61585812D01*
X98144180Y-61549502D01*
X98254494Y-61490537D01*
X98320000Y-61436778D01*
X98385506Y-61490537D01*
X98495820Y-61549502D01*
X98615518Y-61585812D01*
X98740000Y-61598072D01*
X100440000Y-61598072D01*
X100564482Y-61585812D01*
X100684180Y-61549502D01*
X100794494Y-61490537D01*
X100860000Y-61436778D01*
X100925506Y-61490537D01*
X101035820Y-61549502D01*
X101155518Y-61585812D01*
X101280000Y-61598072D01*
X102980000Y-61598072D01*
X103104482Y-61585812D01*
X103224180Y-61549502D01*
X103334494Y-61490537D01*
X103431185Y-61411185D01*
X103510537Y-61314494D01*
X103569502Y-61204180D01*
X103605812Y-61084482D01*
X103618072Y-60960000D01*
X103618072Y-57815000D01*
X104856928Y-57815000D01*
X104869188Y-57939482D01*
X104905498Y-58059180D01*
X104964463Y-58169494D01*
X105043815Y-58266185D01*
X105140506Y-58345537D01*
X105250820Y-58404502D01*
X105370518Y-58440812D01*
X105495000Y-58453072D01*
X105759250Y-58450000D01*
X105918000Y-58291250D01*
X105918000Y-57042000D01*
X106172000Y-57042000D01*
X106172000Y-58291250D01*
X106330750Y-58450000D01*
X106595000Y-58453072D01*
X106719482Y-58440812D01*
X106839180Y-58404502D01*
X106949494Y-58345537D01*
X107046185Y-58266185D01*
X107125537Y-58169494D01*
X107184502Y-58059180D01*
X107220812Y-57939482D01*
X107233072Y-57815000D01*
X107230000Y-57200750D01*
X107071250Y-57042000D01*
X106172000Y-57042000D01*
X105918000Y-57042000D01*
X105018750Y-57042000D01*
X104860000Y-57200750D01*
X104856928Y-57815000D01*
X103618072Y-57815000D01*
X103618072Y-57460000D01*
X103615000Y-57428808D01*
X103615000Y-57423740D01*
X103614011Y-57418769D01*
X103605812Y-57335518D01*
X103581527Y-57255461D01*
X103557932Y-57136842D01*
X103445990Y-56866589D01*
X103283475Y-56623368D01*
X103076632Y-56416525D01*
X102833411Y-56254010D01*
X102563158Y-56142068D01*
X102276260Y-56085000D01*
X101983740Y-56085000D01*
X101696842Y-56142068D01*
X101426589Y-56254010D01*
X101183368Y-56416525D01*
X100976525Y-56623368D01*
X100860000Y-56797760D01*
X100743475Y-56623368D01*
X100536632Y-56416525D01*
X100293411Y-56254010D01*
X100023158Y-56142068D01*
X99736260Y-56085000D01*
X99443740Y-56085000D01*
X99156842Y-56142068D01*
X98886589Y-56254010D01*
X98643368Y-56416525D01*
X98436525Y-56623368D01*
X98274010Y-56866589D01*
X98249150Y-56926607D01*
X98144180Y-56870498D01*
X98024482Y-56834188D01*
X97900000Y-56821928D01*
X97335750Y-56825000D01*
X97177000Y-56983750D01*
X96923000Y-56983750D01*
X96764250Y-56825000D01*
X96200000Y-56821928D01*
X96075518Y-56834188D01*
X95955820Y-56870498D01*
X95850850Y-56926607D01*
X95825990Y-56866589D01*
X95663475Y-56623368D01*
X95456632Y-56416525D01*
X95213411Y-56254010D01*
X94943158Y-56142068D01*
X94656260Y-56085000D01*
X94363740Y-56085000D01*
X94076842Y-56142068D01*
X93806589Y-56254010D01*
X93563368Y-56416525D01*
X93356525Y-56623368D01*
X93240000Y-56797760D01*
X93123475Y-56623368D01*
X92916632Y-56416525D01*
X92673411Y-56254010D01*
X92403158Y-56142068D01*
X92116260Y-56085000D01*
X91823740Y-56085000D01*
X91536842Y-56142068D01*
X91266589Y-56254010D01*
X91023368Y-56416525D01*
X90816525Y-56623368D01*
X90700000Y-56797760D01*
X90583475Y-56623368D01*
X90376632Y-56416525D01*
X90133411Y-56254010D01*
X89863158Y-56142068D01*
X89576260Y-56085000D01*
X89283740Y-56085000D01*
X88996842Y-56142068D01*
X88726589Y-56254010D01*
X88483368Y-56416525D01*
X88276525Y-56623368D01*
X88160000Y-56797760D01*
X88043475Y-56623368D01*
X87836632Y-56416525D01*
X87593411Y-56254010D01*
X87323158Y-56142068D01*
X87036260Y-56085000D01*
X86743740Y-56085000D01*
X86456842Y-56142068D01*
X86186589Y-56254010D01*
X85943368Y-56416525D01*
X85736525Y-56623368D01*
X85574010Y-56866589D01*
X85549150Y-56926607D01*
X85444180Y-56870498D01*
X85324482Y-56834188D01*
X85200000Y-56821928D01*
X84635750Y-56825000D01*
X84477000Y-56983750D01*
X84223000Y-56983750D01*
X84064250Y-56825000D01*
X83500000Y-56821928D01*
X83375518Y-56834188D01*
X83255820Y-56870498D01*
X83150850Y-56926607D01*
X83125990Y-56866589D01*
X82963475Y-56623368D01*
X82756632Y-56416525D01*
X82513411Y-56254010D01*
X82243158Y-56142068D01*
X81956260Y-56085000D01*
X81663740Y-56085000D01*
X81376842Y-56142068D01*
X81106589Y-56254010D01*
X80863368Y-56416525D01*
X80656525Y-56623368D01*
X80540000Y-56797760D01*
X80423475Y-56623368D01*
X80216632Y-56416525D01*
X79973411Y-56254010D01*
X79703158Y-56142068D01*
X79416260Y-56085000D01*
X79123740Y-56085000D01*
X78836842Y-56142068D01*
X78566589Y-56254010D01*
X78323368Y-56416525D01*
X78116525Y-56623368D01*
X77954010Y-56866589D01*
X77929150Y-56926607D01*
X77824180Y-56870498D01*
X77704482Y-56834188D01*
X77580000Y-56821928D01*
X75880000Y-56821928D01*
X75755518Y-56834188D01*
X75635820Y-56870498D01*
X75530850Y-56926607D01*
X75505990Y-56866589D01*
X75343475Y-56623368D01*
X75136632Y-56416525D01*
X74893411Y-56254010D01*
X74623158Y-56142068D01*
X74336260Y-56085000D01*
X74043740Y-56085000D01*
X73756842Y-56142068D01*
X73486589Y-56254010D01*
X73243368Y-56416525D01*
X73036525Y-56623368D01*
X72874010Y-56866589D01*
X72849150Y-56926607D01*
X72744180Y-56870498D01*
X72624482Y-56834188D01*
X72500000Y-56821928D01*
X71935750Y-56825000D01*
X71777000Y-56983750D01*
X71523000Y-56983750D01*
X71364250Y-56825000D01*
X70800000Y-56821928D01*
X70675518Y-56834188D01*
X70555820Y-56870498D01*
X70445506Y-56929463D01*
X70380000Y-56983222D01*
X70314494Y-56929463D01*
X70204180Y-56870498D01*
X70084482Y-56834188D01*
X69960000Y-56821928D01*
X68260000Y-56821928D01*
X68135518Y-56834188D01*
X68015820Y-56870498D01*
X67910850Y-56926607D01*
X67885990Y-56866589D01*
X67723475Y-56623368D01*
X67516632Y-56416525D01*
X67273411Y-56254010D01*
X67003158Y-56142068D01*
X66716260Y-56085000D01*
X66423740Y-56085000D01*
X66136842Y-56142068D01*
X65866589Y-56254010D01*
X65623368Y-56416525D01*
X65416525Y-56623368D01*
X65300000Y-56797760D01*
X65183475Y-56623368D01*
X64976632Y-56416525D01*
X64733411Y-56254010D01*
X64463158Y-56142068D01*
X64176260Y-56085000D01*
X63883740Y-56085000D01*
X63596842Y-56142068D01*
X63326589Y-56254010D01*
X63083368Y-56416525D01*
X62876525Y-56623368D01*
X62714010Y-56866589D01*
X62689150Y-56926607D01*
X62584180Y-56870498D01*
X62464482Y-56834188D01*
X62340000Y-56821928D01*
X60640000Y-56821928D01*
X60515518Y-56834188D01*
X60395820Y-56870498D01*
X60285506Y-56929463D01*
X60220000Y-56983222D01*
X60154494Y-56929463D01*
X60044180Y-56870498D01*
X59924482Y-56834188D01*
X59800000Y-56821928D01*
X59235750Y-56825000D01*
X59077000Y-56983750D01*
X58823000Y-56983750D01*
X58664250Y-56825000D01*
X58100000Y-56821928D01*
X57975518Y-56834188D01*
X57855820Y-56870498D01*
X57750850Y-56926607D01*
X57725990Y-56866589D01*
X57563475Y-56623368D01*
X57356632Y-56416525D01*
X57113411Y-56254010D01*
X56843158Y-56142068D01*
X56556260Y-56085000D01*
X56263740Y-56085000D01*
X55976842Y-56142068D01*
X55706589Y-56254010D01*
X55463368Y-56416525D01*
X55256525Y-56623368D01*
X55140000Y-56797760D01*
X55023475Y-56623368D01*
X54816632Y-56416525D01*
X54573411Y-56254010D01*
X54427792Y-56193693D01*
X54651925Y-56149110D01*
X54975694Y-56015000D01*
X104856928Y-56015000D01*
X104860000Y-56629250D01*
X105018750Y-56788000D01*
X105918000Y-56788000D01*
X105918000Y-55538750D01*
X105759250Y-55380000D01*
X105495000Y-55376928D01*
X105370518Y-55389188D01*
X105250820Y-55425498D01*
X105140506Y-55484463D01*
X105043815Y-55563815D01*
X104964463Y-55660506D01*
X104905498Y-55770820D01*
X104869188Y-55890518D01*
X104856928Y-56015000D01*
X54975694Y-56015000D01*
X55058669Y-55980631D01*
X55424729Y-55736038D01*
X55736038Y-55424729D01*
X55980631Y-55058669D01*
X56149110Y-54651925D01*
X56235000Y-54220128D01*
X56235000Y-53779872D01*
X56149110Y-53348075D01*
X55980631Y-52941331D01*
X55736038Y-52575271D01*
X55729281Y-52568514D01*
X64705000Y-52568514D01*
X64705000Y-52831486D01*
X64756304Y-53089405D01*
X64856939Y-53332359D01*
X65003038Y-53551013D01*
X65188987Y-53736962D01*
X65407641Y-53883061D01*
X65650595Y-53983696D01*
X65908514Y-54035000D01*
X66171486Y-54035000D01*
X66429405Y-53983696D01*
X66672359Y-53883061D01*
X66891013Y-53736962D01*
X67076962Y-53551013D01*
X67223061Y-53332359D01*
X67310000Y-53122470D01*
X67396939Y-53332359D01*
X67543038Y-53551013D01*
X67728987Y-53736962D01*
X67947641Y-53883061D01*
X68190595Y-53983696D01*
X68448514Y-54035000D01*
X68711486Y-54035000D01*
X68969405Y-53983696D01*
X69212359Y-53883061D01*
X69431013Y-53736962D01*
X69616962Y-53551013D01*
X69763061Y-53332359D01*
X69795880Y-53253126D01*
X69848320Y-53379727D01*
X70005363Y-53614759D01*
X70205241Y-53814637D01*
X70440273Y-53971680D01*
X70701426Y-54079853D01*
X70978665Y-54135000D01*
X71261335Y-54135000D01*
X71538574Y-54079853D01*
X71799727Y-53971680D01*
X72034759Y-53814637D01*
X72156694Y-53692702D01*
X75306903Y-53692702D01*
X75378486Y-53936671D01*
X75633996Y-54057571D01*
X75908184Y-54126300D01*
X76190512Y-54140217D01*
X76470130Y-54098787D01*
X76736292Y-54003603D01*
X76861514Y-53936671D01*
X76933097Y-53692702D01*
X76120000Y-52879605D01*
X75306903Y-53692702D01*
X72156694Y-53692702D01*
X72234637Y-53614759D01*
X72391680Y-53379727D01*
X72499853Y-53118574D01*
X72555000Y-52841335D01*
X72555000Y-52770512D01*
X74679783Y-52770512D01*
X74721213Y-53050130D01*
X74816397Y-53316292D01*
X74883329Y-53441514D01*
X75127298Y-53513097D01*
X75940395Y-52700000D01*
X76299605Y-52700000D01*
X77112702Y-53513097D01*
X77298217Y-53458665D01*
X98065000Y-53458665D01*
X98065000Y-53741335D01*
X98120147Y-54018574D01*
X98228320Y-54279727D01*
X98385363Y-54514759D01*
X98585241Y-54714637D01*
X98820273Y-54871680D01*
X99081426Y-54979853D01*
X99358665Y-55035000D01*
X99641335Y-55035000D01*
X99918574Y-54979853D01*
X100179727Y-54871680D01*
X100414759Y-54714637D01*
X100581339Y-54548057D01*
X100610498Y-54644180D01*
X100669463Y-54754494D01*
X100748815Y-54851185D01*
X100845506Y-54930537D01*
X100955820Y-54989502D01*
X101075518Y-55025812D01*
X101200000Y-55038072D01*
X102800000Y-55038072D01*
X102924482Y-55025812D01*
X103044180Y-54989502D01*
X103154494Y-54930537D01*
X103251185Y-54851185D01*
X103330537Y-54754494D01*
X103389502Y-54644180D01*
X103425812Y-54524482D01*
X103438072Y-54400000D01*
X103438072Y-52800000D01*
X103425812Y-52675518D01*
X103389502Y-52555820D01*
X103330537Y-52445506D01*
X103251185Y-52348815D01*
X103154494Y-52269463D01*
X103152719Y-52268514D01*
X104625000Y-52268514D01*
X104625000Y-52531486D01*
X104676304Y-52789405D01*
X104776939Y-53032359D01*
X104923038Y-53251013D01*
X105108987Y-53436962D01*
X105327641Y-53583061D01*
X105570595Y-53683696D01*
X105828514Y-53735000D01*
X106091486Y-53735000D01*
X106295896Y-53694340D01*
X106280808Y-53712724D01*
X106196431Y-53870582D01*
X106144472Y-54041868D01*
X106126928Y-54220000D01*
X106126928Y-55470000D01*
X106144472Y-55648132D01*
X106172000Y-55738880D01*
X106172000Y-56788000D01*
X107071250Y-56788000D01*
X107230000Y-56629250D01*
X107231231Y-56383072D01*
X107396928Y-56383072D01*
X107396928Y-57540000D01*
X107414472Y-57718132D01*
X107466431Y-57889418D01*
X107550808Y-58047276D01*
X107664361Y-58185639D01*
X107802724Y-58299192D01*
X107960582Y-58383569D01*
X108131868Y-58435528D01*
X108310000Y-58453072D01*
X108860000Y-58453072D01*
X109038132Y-58435528D01*
X109209418Y-58383569D01*
X109367276Y-58299192D01*
X109505639Y-58185639D01*
X109619192Y-58047276D01*
X109703569Y-57889418D01*
X109755528Y-57718132D01*
X109773072Y-57540000D01*
X109773072Y-56290000D01*
X109755528Y-56111868D01*
X109703569Y-55940582D01*
X109619192Y-55782724D01*
X109505639Y-55644361D01*
X109367276Y-55530808D01*
X109209418Y-55446431D01*
X109038132Y-55394472D01*
X108860000Y-55376928D01*
X108503072Y-55376928D01*
X108503072Y-54220000D01*
X108485528Y-54041868D01*
X108433569Y-53870582D01*
X108360217Y-53733350D01*
X108368514Y-53735000D01*
X108631486Y-53735000D01*
X108889405Y-53683696D01*
X109132359Y-53583061D01*
X109351013Y-53436962D01*
X109536962Y-53251013D01*
X109683061Y-53032359D01*
X109783696Y-52789405D01*
X109829578Y-52558740D01*
X109975000Y-52558740D01*
X109975000Y-52851260D01*
X110032068Y-53138158D01*
X110144010Y-53408411D01*
X110306525Y-53651632D01*
X110513368Y-53858475D01*
X110756589Y-54020990D01*
X111026842Y-54132932D01*
X111313740Y-54190000D01*
X111606260Y-54190000D01*
X111893158Y-54132932D01*
X112163411Y-54020990D01*
X112406632Y-53858475D01*
X112538487Y-53726620D01*
X112560498Y-53799180D01*
X112619463Y-53909494D01*
X112698815Y-54006185D01*
X112795506Y-54085537D01*
X112905820Y-54144502D01*
X113025518Y-54180812D01*
X113150000Y-54193072D01*
X114850000Y-54193072D01*
X114974482Y-54180812D01*
X115094180Y-54144502D01*
X115204494Y-54085537D01*
X115301185Y-54006185D01*
X115380537Y-53909494D01*
X115439502Y-53799180D01*
X115445359Y-53779872D01*
X133765000Y-53779872D01*
X133765000Y-54220128D01*
X133850890Y-54651925D01*
X134019369Y-55058669D01*
X134263962Y-55424729D01*
X134575271Y-55736038D01*
X134941331Y-55980631D01*
X135348075Y-56149110D01*
X135779872Y-56235000D01*
X136220128Y-56235000D01*
X136651925Y-56149110D01*
X137058669Y-55980631D01*
X137424729Y-55736038D01*
X137736038Y-55424729D01*
X137980631Y-55058669D01*
X138149110Y-54651925D01*
X138235000Y-54220128D01*
X138235000Y-53779872D01*
X138149110Y-53348075D01*
X137980631Y-52941331D01*
X137736038Y-52575271D01*
X137424729Y-52263962D01*
X137058669Y-52019369D01*
X136651925Y-51850890D01*
X136220128Y-51765000D01*
X135779872Y-51765000D01*
X135348075Y-51850890D01*
X134941331Y-52019369D01*
X134575271Y-52263962D01*
X134263962Y-52575271D01*
X134019369Y-52941331D01*
X133850890Y-53348075D01*
X133765000Y-53779872D01*
X115445359Y-53779872D01*
X115475812Y-53679482D01*
X115488072Y-53555000D01*
X115488072Y-51855000D01*
X115475812Y-51730518D01*
X115439502Y-51610820D01*
X115380537Y-51500506D01*
X115301185Y-51403815D01*
X115204494Y-51324463D01*
X115094180Y-51265498D01*
X114974482Y-51229188D01*
X114850000Y-51216928D01*
X113150000Y-51216928D01*
X113025518Y-51229188D01*
X112905820Y-51265498D01*
X112795506Y-51324463D01*
X112698815Y-51403815D01*
X112619463Y-51500506D01*
X112560498Y-51610820D01*
X112538487Y-51683380D01*
X112406632Y-51551525D01*
X112163411Y-51389010D01*
X111893158Y-51277068D01*
X111606260Y-51220000D01*
X111313740Y-51220000D01*
X111026842Y-51277068D01*
X110756589Y-51389010D01*
X110513368Y-51551525D01*
X110306525Y-51758368D01*
X110144010Y-52001589D01*
X110032068Y-52271842D01*
X109975000Y-52558740D01*
X109829578Y-52558740D01*
X109835000Y-52531486D01*
X109835000Y-52268514D01*
X109783696Y-52010595D01*
X109683061Y-51767641D01*
X109536962Y-51548987D01*
X109351013Y-51363038D01*
X109132359Y-51216939D01*
X108889405Y-51116304D01*
X108631486Y-51065000D01*
X108368514Y-51065000D01*
X108110595Y-51116304D01*
X107867641Y-51216939D01*
X107648987Y-51363038D01*
X107463038Y-51548987D01*
X107316939Y-51767641D01*
X107230000Y-51977530D01*
X107143061Y-51767641D01*
X106996962Y-51548987D01*
X106811013Y-51363038D01*
X106592359Y-51216939D01*
X106349405Y-51116304D01*
X106091486Y-51065000D01*
X105828514Y-51065000D01*
X105570595Y-51116304D01*
X105327641Y-51216939D01*
X105108987Y-51363038D01*
X104923038Y-51548987D01*
X104776939Y-51767641D01*
X104676304Y-52010595D01*
X104625000Y-52268514D01*
X103152719Y-52268514D01*
X103044180Y-52210498D01*
X102924482Y-52174188D01*
X102800000Y-52161928D01*
X101200000Y-52161928D01*
X101075518Y-52174188D01*
X100955820Y-52210498D01*
X100845506Y-52269463D01*
X100748815Y-52348815D01*
X100669463Y-52445506D01*
X100610498Y-52555820D01*
X100581339Y-52651943D01*
X100414759Y-52485363D01*
X100179727Y-52328320D01*
X99918574Y-52220147D01*
X99641335Y-52165000D01*
X99358665Y-52165000D01*
X99081426Y-52220147D01*
X98820273Y-52328320D01*
X98585241Y-52485363D01*
X98385363Y-52685241D01*
X98228320Y-52920273D01*
X98120147Y-53181426D01*
X98065000Y-53458665D01*
X77298217Y-53458665D01*
X77356671Y-53441514D01*
X77477571Y-53186004D01*
X77546300Y-52911816D01*
X77560217Y-52629488D01*
X77518787Y-52349870D01*
X77423603Y-52083708D01*
X77356671Y-51958486D01*
X77112702Y-51886903D01*
X76299605Y-52700000D01*
X75940395Y-52700000D01*
X75127298Y-51886903D01*
X74883329Y-51958486D01*
X74762429Y-52213996D01*
X74693700Y-52488184D01*
X74679783Y-52770512D01*
X72555000Y-52770512D01*
X72555000Y-52558665D01*
X72499853Y-52281426D01*
X72391680Y-52020273D01*
X72234637Y-51785241D01*
X72156694Y-51707298D01*
X75306903Y-51707298D01*
X76120000Y-52520395D01*
X76933097Y-51707298D01*
X76861514Y-51463329D01*
X76606004Y-51342429D01*
X76331816Y-51273700D01*
X76049488Y-51259783D01*
X75769870Y-51301213D01*
X75503708Y-51396397D01*
X75378486Y-51463329D01*
X75306903Y-51707298D01*
X72156694Y-51707298D01*
X72034759Y-51585363D01*
X71799727Y-51428320D01*
X71538574Y-51320147D01*
X71261335Y-51265000D01*
X70978665Y-51265000D01*
X70701426Y-51320147D01*
X70440273Y-51428320D01*
X70205241Y-51585363D01*
X70005363Y-51785241D01*
X69848320Y-52020273D01*
X69795880Y-52146874D01*
X69763061Y-52067641D01*
X69616962Y-51848987D01*
X69431013Y-51663038D01*
X69212359Y-51516939D01*
X68969405Y-51416304D01*
X68711486Y-51365000D01*
X68448514Y-51365000D01*
X68190595Y-51416304D01*
X67947641Y-51516939D01*
X67728987Y-51663038D01*
X67543038Y-51848987D01*
X67396939Y-52067641D01*
X67310000Y-52277530D01*
X67223061Y-52067641D01*
X67076962Y-51848987D01*
X66891013Y-51663038D01*
X66672359Y-51516939D01*
X66429405Y-51416304D01*
X66171486Y-51365000D01*
X65908514Y-51365000D01*
X65650595Y-51416304D01*
X65407641Y-51516939D01*
X65188987Y-51663038D01*
X65003038Y-51848987D01*
X64856939Y-52067641D01*
X64756304Y-52310595D01*
X64705000Y-52568514D01*
X55729281Y-52568514D01*
X55424729Y-52263962D01*
X55058669Y-52019369D01*
X54651925Y-51850890D01*
X54220128Y-51765000D01*
X53779872Y-51765000D01*
X53348075Y-51850890D01*
X52941331Y-52019369D01*
X52575271Y-52263962D01*
X52263962Y-52575271D01*
X52019369Y-52941331D01*
X51850890Y-53348075D01*
X51765000Y-53779872D01*
X50660000Y-53779872D01*
X50660000Y-50660000D01*
X139340000Y-50660000D01*
X139340001Y-119340000D01*
G37*
X139340001Y-119340000D02*
X50660000Y-119340000D01*
X50660000Y-115779872D01*
X51765000Y-115779872D01*
X51765000Y-116220128D01*
X51850890Y-116651925D01*
X52019369Y-117058669D01*
X52263962Y-117424729D01*
X52575271Y-117736038D01*
X52941331Y-117980631D01*
X53348075Y-118149110D01*
X53779872Y-118235000D01*
X54220128Y-118235000D01*
X54651925Y-118149110D01*
X55058669Y-117980631D01*
X55424729Y-117736038D01*
X55736038Y-117424729D01*
X55980631Y-117058669D01*
X56149110Y-116651925D01*
X56235000Y-116220128D01*
X56235000Y-115779872D01*
X133765000Y-115779872D01*
X133765000Y-116220128D01*
X133850890Y-116651925D01*
X134019369Y-117058669D01*
X134263962Y-117424729D01*
X134575271Y-117736038D01*
X134941331Y-117980631D01*
X135348075Y-118149110D01*
X135779872Y-118235000D01*
X136220128Y-118235000D01*
X136651925Y-118149110D01*
X137058669Y-117980631D01*
X137424729Y-117736038D01*
X137736038Y-117424729D01*
X137980631Y-117058669D01*
X138149110Y-116651925D01*
X138235000Y-116220128D01*
X138235000Y-115779872D01*
X138149110Y-115348075D01*
X137980631Y-114941331D01*
X137736038Y-114575271D01*
X137424729Y-114263962D01*
X137058669Y-114019369D01*
X136651925Y-113850890D01*
X136220128Y-113765000D01*
X135779872Y-113765000D01*
X135348075Y-113850890D01*
X134941331Y-114019369D01*
X134575271Y-114263962D01*
X134263962Y-114575271D01*
X134019369Y-114941331D01*
X133850890Y-115348075D01*
X133765000Y-115779872D01*
X56235000Y-115779872D01*
X56149110Y-115348075D01*
X55980631Y-114941331D01*
X55736038Y-114575271D01*
X55424729Y-114263962D01*
X55058669Y-114019369D01*
X54651925Y-113850890D01*
X54220128Y-113765000D01*
X53779872Y-113765000D01*
X53348075Y-113850890D01*
X52941331Y-114019369D01*
X52575271Y-114263962D01*
X52263962Y-114575271D01*
X52019369Y-114941331D01*
X51850890Y-115348075D01*
X51765000Y-115779872D01*
X50660000Y-115779872D01*
X50660000Y-113500000D01*
X126196928Y-113500000D01*
X126196928Y-115100000D01*
X126209188Y-115224482D01*
X126245498Y-115344180D01*
X126304463Y-115454494D01*
X126383815Y-115551185D01*
X126480506Y-115630537D01*
X126590820Y-115689502D01*
X126710518Y-115725812D01*
X126835000Y-115738072D01*
X128435000Y-115738072D01*
X128559482Y-115725812D01*
X128679180Y-115689502D01*
X128789494Y-115630537D01*
X128886185Y-115551185D01*
X128965537Y-115454494D01*
X129024502Y-115344180D01*
X129040117Y-115292702D01*
X129321903Y-115292702D01*
X129393486Y-115536671D01*
X129648996Y-115657571D01*
X129923184Y-115726300D01*
X130205512Y-115740217D01*
X130485130Y-115698787D01*
X130751292Y-115603603D01*
X130876514Y-115536671D01*
X130948097Y-115292702D01*
X130135000Y-114479605D01*
X129321903Y-115292702D01*
X129040117Y-115292702D01*
X129060812Y-115224482D01*
X129073072Y-115100000D01*
X129073072Y-115092785D01*
X129142298Y-115113097D01*
X129955395Y-114300000D01*
X130314605Y-114300000D01*
X131127702Y-115113097D01*
X131371671Y-115041514D01*
X131492571Y-114786004D01*
X131561300Y-114511816D01*
X131575217Y-114229488D01*
X131533787Y-113949870D01*
X131438603Y-113683708D01*
X131371671Y-113558486D01*
X131127702Y-113486903D01*
X130314605Y-114300000D01*
X129955395Y-114300000D01*
X129142298Y-113486903D01*
X129073072Y-113507215D01*
X129073072Y-113500000D01*
X129060812Y-113375518D01*
X129040118Y-113307298D01*
X129321903Y-113307298D01*
X130135000Y-114120395D01*
X130948097Y-113307298D01*
X130876514Y-113063329D01*
X130621004Y-112942429D01*
X130346816Y-112873700D01*
X130064488Y-112859783D01*
X129784870Y-112901213D01*
X129518708Y-112996397D01*
X129393486Y-113063329D01*
X129321903Y-113307298D01*
X129040118Y-113307298D01*
X129024502Y-113255820D01*
X128965537Y-113145506D01*
X128886185Y-113048815D01*
X128789494Y-112969463D01*
X128679180Y-112910498D01*
X128559482Y-112874188D01*
X128435000Y-112861928D01*
X126835000Y-112861928D01*
X126710518Y-112874188D01*
X126590820Y-112910498D01*
X126480506Y-112969463D01*
X126383815Y-113048815D01*
X126304463Y-113145506D01*
X126245498Y-113255820D01*
X126209188Y-113375518D01*
X126196928Y-113500000D01*
X50660000Y-113500000D01*
X50660000Y-108835413D01*
X59044192Y-108835413D01*
X59139956Y-109099814D01*
X59429571Y-109240704D01*
X59741108Y-109322384D01*
X60062595Y-109341718D01*
X60381675Y-109297961D01*
X60686088Y-109192795D01*
X60860044Y-109099814D01*
X60955808Y-108835413D01*
X60000000Y-107879605D01*
X59044192Y-108835413D01*
X50660000Y-108835413D01*
X50660000Y-107762595D01*
X58358282Y-107762595D01*
X58402039Y-108081675D01*
X58507205Y-108386088D01*
X58600186Y-108560044D01*
X58864587Y-108655808D01*
X59820395Y-107700000D01*
X60179605Y-107700000D01*
X61135413Y-108655808D01*
X61399814Y-108560044D01*
X61540704Y-108270429D01*
X61622384Y-107958892D01*
X61641718Y-107637405D01*
X61619440Y-107474947D01*
X84880000Y-107474947D01*
X84880000Y-107925053D01*
X84967811Y-108366510D01*
X85140059Y-108782353D01*
X85390125Y-109156603D01*
X85708397Y-109474875D01*
X86082647Y-109724941D01*
X86498490Y-109897189D01*
X86939947Y-109985000D01*
X87390053Y-109985000D01*
X87831510Y-109897189D01*
X88247353Y-109724941D01*
X88621603Y-109474875D01*
X88767964Y-109328514D01*
X122665000Y-109328514D01*
X122665000Y-109591486D01*
X122716304Y-109849405D01*
X122816939Y-110092359D01*
X122963038Y-110311013D01*
X123148987Y-110496962D01*
X123367641Y-110643061D01*
X123577530Y-110730000D01*
X123367641Y-110816939D01*
X123148987Y-110963038D01*
X122963038Y-111148987D01*
X122816939Y-111367641D01*
X122716304Y-111610595D01*
X122665000Y-111868514D01*
X122665000Y-112131486D01*
X122716304Y-112389405D01*
X122816939Y-112632359D01*
X122963038Y-112851013D01*
X123148987Y-113036962D01*
X123367641Y-113183061D01*
X123610595Y-113283696D01*
X123868514Y-113335000D01*
X124131486Y-113335000D01*
X124389405Y-113283696D01*
X124632359Y-113183061D01*
X124851013Y-113036962D01*
X125036962Y-112851013D01*
X125183061Y-112632359D01*
X125283696Y-112389405D01*
X125335000Y-112131486D01*
X125335000Y-111868514D01*
X125283696Y-111610595D01*
X125183061Y-111367641D01*
X125036962Y-111148987D01*
X124851013Y-110963038D01*
X124632359Y-110816939D01*
X124422470Y-110730000D01*
X124632359Y-110643061D01*
X124851013Y-110496962D01*
X125036962Y-110311013D01*
X125183061Y-110092359D01*
X125283696Y-109849405D01*
X125335000Y-109591486D01*
X125335000Y-109328514D01*
X125283696Y-109070595D01*
X125220626Y-108918330D01*
X130707278Y-108918330D01*
X130797147Y-109164123D01*
X130933241Y-109387660D01*
X131110330Y-109580351D01*
X131321608Y-109734792D01*
X131558956Y-109845047D01*
X131666671Y-109877716D01*
X131873000Y-109754374D01*
X131873000Y-108712000D01*
X132127000Y-108712000D01*
X132127000Y-109754374D01*
X132333329Y-109877716D01*
X132441044Y-109845047D01*
X132678392Y-109734792D01*
X132889670Y-109580351D01*
X133066759Y-109387660D01*
X133202853Y-109164123D01*
X133292722Y-108918330D01*
X133170201Y-108712000D01*
X132127000Y-108712000D01*
X131873000Y-108712000D01*
X130829799Y-108712000D01*
X130707278Y-108918330D01*
X125220626Y-108918330D01*
X125183061Y-108827641D01*
X125036962Y-108608987D01*
X124851013Y-108423038D01*
X124632359Y-108276939D01*
X124389405Y-108176304D01*
X124131486Y-108125000D01*
X123868514Y-108125000D01*
X123610595Y-108176304D01*
X123367641Y-108276939D01*
X123148987Y-108423038D01*
X122963038Y-108608987D01*
X122816939Y-108827641D01*
X122716304Y-109070595D01*
X122665000Y-109328514D01*
X88767964Y-109328514D01*
X88939875Y-109156603D01*
X89189941Y-108782353D01*
X89362189Y-108366510D01*
X89450000Y-107925053D01*
X89450000Y-107474947D01*
X89362189Y-107033490D01*
X89189941Y-106617647D01*
X88939875Y-106243397D01*
X88621603Y-105925125D01*
X88389443Y-105770000D01*
X121886928Y-105770000D01*
X121886928Y-106320000D01*
X121904472Y-106498132D01*
X121956431Y-106669418D01*
X122040808Y-106827276D01*
X122154361Y-106965639D01*
X122292724Y-107079192D01*
X122450582Y-107163569D01*
X122621868Y-107215528D01*
X122800000Y-107233072D01*
X124050000Y-107233072D01*
X124228132Y-107215528D01*
X124399418Y-107163569D01*
X124557276Y-107079192D01*
X124695639Y-106965639D01*
X124809192Y-106827276D01*
X124893569Y-106669418D01*
X124945528Y-106498132D01*
X124963072Y-106320000D01*
X124963072Y-105963072D01*
X126120000Y-105963072D01*
X126298132Y-105945528D01*
X126403668Y-105913514D01*
X130665000Y-105913514D01*
X130665000Y-106176486D01*
X130716304Y-106434405D01*
X130816939Y-106677359D01*
X130963038Y-106896013D01*
X131148987Y-107081962D01*
X131367641Y-107228061D01*
X131583550Y-107317494D01*
X131558956Y-107324953D01*
X131321608Y-107435208D01*
X131110330Y-107589649D01*
X130933241Y-107782340D01*
X130797147Y-108005877D01*
X130707278Y-108251670D01*
X130829799Y-108458000D01*
X131873000Y-108458000D01*
X131873000Y-108438000D01*
X132127000Y-108438000D01*
X132127000Y-108458000D01*
X133170201Y-108458000D01*
X133292722Y-108251670D01*
X133202853Y-108005877D01*
X133066759Y-107782340D01*
X132889670Y-107589649D01*
X132678392Y-107435208D01*
X132441044Y-107324953D01*
X132416450Y-107317494D01*
X132632359Y-107228061D01*
X132851013Y-107081962D01*
X133036962Y-106896013D01*
X133183061Y-106677359D01*
X133283696Y-106434405D01*
X133335000Y-106176486D01*
X133335000Y-105913514D01*
X133283696Y-105655595D01*
X133183061Y-105412641D01*
X133036962Y-105193987D01*
X132851013Y-105008038D01*
X132632359Y-104861939D01*
X132389405Y-104761304D01*
X132131486Y-104710000D01*
X131868514Y-104710000D01*
X131610595Y-104761304D01*
X131367641Y-104861939D01*
X131148987Y-105008038D01*
X130963038Y-105193987D01*
X130816939Y-105412641D01*
X130716304Y-105655595D01*
X130665000Y-105913514D01*
X126403668Y-105913514D01*
X126469418Y-105893569D01*
X126627276Y-105809192D01*
X126765639Y-105695639D01*
X126879192Y-105557276D01*
X126963569Y-105399418D01*
X127015528Y-105228132D01*
X127033072Y-105050000D01*
X127033072Y-104500000D01*
X127015528Y-104321868D01*
X126963569Y-104150582D01*
X126879192Y-103992724D01*
X126765639Y-103854361D01*
X126627276Y-103740808D01*
X126469418Y-103656431D01*
X126298132Y-103604472D01*
X126120000Y-103586928D01*
X124870000Y-103586928D01*
X124691868Y-103604472D01*
X124601120Y-103632000D01*
X123552000Y-103632000D01*
X123552000Y-104531250D01*
X123710750Y-104690000D01*
X123956928Y-104691231D01*
X123956928Y-104856928D01*
X122800000Y-104856928D01*
X122621868Y-104874472D01*
X122450582Y-104926431D01*
X122292724Y-105010808D01*
X122154361Y-105124361D01*
X122040808Y-105262724D01*
X121956431Y-105420582D01*
X121904472Y-105591868D01*
X121886928Y-105770000D01*
X88389443Y-105770000D01*
X88247353Y-105675059D01*
X87831510Y-105502811D01*
X87390053Y-105415000D01*
X86939947Y-105415000D01*
X86498490Y-105502811D01*
X86082647Y-105675059D01*
X85708397Y-105925125D01*
X85390125Y-106243397D01*
X85140059Y-106617647D01*
X84967811Y-107033490D01*
X84880000Y-107474947D01*
X61619440Y-107474947D01*
X61597961Y-107318325D01*
X61492795Y-107013912D01*
X61399814Y-106839956D01*
X61135413Y-106744192D01*
X60179605Y-107700000D01*
X59820395Y-107700000D01*
X58864587Y-106744192D01*
X58600186Y-106839956D01*
X58459296Y-107129571D01*
X58377616Y-107441108D01*
X58358282Y-107762595D01*
X50660000Y-107762595D01*
X50660000Y-106564587D01*
X59044192Y-106564587D01*
X60000000Y-107520395D01*
X60955808Y-106564587D01*
X60860044Y-106300186D01*
X60570429Y-106159296D01*
X60258892Y-106077616D01*
X59937405Y-106058282D01*
X59618325Y-106102039D01*
X59313912Y-106207205D01*
X59139956Y-106300186D01*
X59044192Y-106564587D01*
X50660000Y-106564587D01*
X50660000Y-104055000D01*
X121886928Y-104055000D01*
X121899188Y-104179482D01*
X121935498Y-104299180D01*
X121994463Y-104409494D01*
X122073815Y-104506185D01*
X122170506Y-104585537D01*
X122280820Y-104644502D01*
X122400518Y-104680812D01*
X122525000Y-104693072D01*
X123139250Y-104690000D01*
X123298000Y-104531250D01*
X123298000Y-103632000D01*
X122048750Y-103632000D01*
X121890000Y-103790750D01*
X121886928Y-104055000D01*
X50660000Y-104055000D01*
X50660000Y-101956890D01*
X52533524Y-101956890D01*
X52578175Y-102104099D01*
X52703359Y-102366920D01*
X52877412Y-102600269D01*
X53093645Y-102795178D01*
X53343748Y-102944157D01*
X53618109Y-103041481D01*
X53848000Y-102920814D01*
X53848000Y-101727000D01*
X54102000Y-101727000D01*
X54102000Y-102920814D01*
X54331891Y-103041481D01*
X54575685Y-102955000D01*
X121886928Y-102955000D01*
X121890000Y-103219250D01*
X122048750Y-103378000D01*
X123298000Y-103378000D01*
X123298000Y-102478750D01*
X123552000Y-102478750D01*
X123552000Y-103378000D01*
X124801250Y-103378000D01*
X124960000Y-103219250D01*
X124963072Y-102955000D01*
X124950812Y-102830518D01*
X124914502Y-102710820D01*
X124855537Y-102600506D01*
X124776185Y-102503815D01*
X124679494Y-102424463D01*
X124569180Y-102365498D01*
X124449482Y-102329188D01*
X124325000Y-102316928D01*
X123710750Y-102320000D01*
X123552000Y-102478750D01*
X123298000Y-102478750D01*
X123139250Y-102320000D01*
X122525000Y-102316928D01*
X122400518Y-102329188D01*
X122280820Y-102365498D01*
X122170506Y-102424463D01*
X122073815Y-102503815D01*
X121994463Y-102600506D01*
X121935498Y-102710820D01*
X121899188Y-102830518D01*
X121886928Y-102955000D01*
X54575685Y-102955000D01*
X54606252Y-102944157D01*
X54856355Y-102795178D01*
X55072588Y-102600269D01*
X55246641Y-102366920D01*
X55371825Y-102104099D01*
X55416476Y-101956890D01*
X55295155Y-101727000D01*
X54102000Y-101727000D01*
X53848000Y-101727000D01*
X52654845Y-101727000D01*
X52533524Y-101956890D01*
X50660000Y-101956890D01*
X50660000Y-98210000D01*
X52486928Y-98210000D01*
X52486928Y-99910000D01*
X52499188Y-100034482D01*
X52535498Y-100154180D01*
X52594463Y-100264494D01*
X52673815Y-100361185D01*
X52770506Y-100440537D01*
X52880820Y-100499502D01*
X52961466Y-100523966D01*
X52877412Y-100599731D01*
X52703359Y-100833080D01*
X52578175Y-101095901D01*
X52533524Y-101243110D01*
X52654845Y-101473000D01*
X53848000Y-101473000D01*
X53848000Y-101453000D01*
X54102000Y-101453000D01*
X54102000Y-101473000D01*
X55295155Y-101473000D01*
X55416476Y-101243110D01*
X55371825Y-101095901D01*
X55246641Y-100833080D01*
X55072588Y-100599731D01*
X54988534Y-100523966D01*
X55069180Y-100499502D01*
X55179494Y-100440537D01*
X55276185Y-100361185D01*
X55355537Y-100264494D01*
X55414502Y-100154180D01*
X55450812Y-100034482D01*
X55463072Y-99910000D01*
X55463072Y-98210000D01*
X55450812Y-98085518D01*
X55414502Y-97965820D01*
X55355537Y-97855506D01*
X55276185Y-97758815D01*
X55179494Y-97679463D01*
X55069180Y-97620498D01*
X54949482Y-97584188D01*
X54825000Y-97571928D01*
X53125000Y-97571928D01*
X53000518Y-97584188D01*
X52880820Y-97620498D01*
X52770506Y-97679463D01*
X52673815Y-97758815D01*
X52594463Y-97855506D01*
X52535498Y-97965820D01*
X52499188Y-98085518D01*
X52486928Y-98210000D01*
X50660000Y-98210000D01*
X50660000Y-96388514D01*
X121665000Y-96388514D01*
X121665000Y-96651486D01*
X121716304Y-96909405D01*
X121816939Y-97152359D01*
X121963038Y-97371013D01*
X122148987Y-97556962D01*
X122367641Y-97703061D01*
X122577530Y-97790000D01*
X122367641Y-97876939D01*
X122148987Y-98023038D01*
X121963038Y-98208987D01*
X121816939Y-98427641D01*
X121716304Y-98670595D01*
X121665000Y-98928514D01*
X121665000Y-99191486D01*
X121716304Y-99449405D01*
X121816939Y-99692359D01*
X121963038Y-99911013D01*
X122148987Y-100096962D01*
X122367641Y-100243061D01*
X122610595Y-100343696D01*
X122868514Y-100395000D01*
X123131486Y-100395000D01*
X123389405Y-100343696D01*
X123632359Y-100243061D01*
X123851013Y-100096962D01*
X124036962Y-99911013D01*
X124183061Y-99692359D01*
X124271023Y-99480000D01*
X127511928Y-99480000D01*
X127511928Y-101180000D01*
X127524188Y-101304482D01*
X127560498Y-101424180D01*
X127619463Y-101534494D01*
X127698815Y-101631185D01*
X127795506Y-101710537D01*
X127905820Y-101769502D01*
X128025518Y-101805812D01*
X128150000Y-101818072D01*
X129850000Y-101818072D01*
X129974482Y-101805812D01*
X130094180Y-101769502D01*
X130204494Y-101710537D01*
X130301185Y-101631185D01*
X130380537Y-101534494D01*
X130439502Y-101424180D01*
X130461513Y-101351620D01*
X130593368Y-101483475D01*
X130836589Y-101645990D01*
X131106842Y-101757932D01*
X131393740Y-101815000D01*
X131686260Y-101815000D01*
X131973158Y-101757932D01*
X132243411Y-101645990D01*
X132486632Y-101483475D01*
X132693475Y-101276632D01*
X132810000Y-101102240D01*
X132926525Y-101276632D01*
X133133368Y-101483475D01*
X133376589Y-101645990D01*
X133646842Y-101757932D01*
X133933740Y-101815000D01*
X134226260Y-101815000D01*
X134513158Y-101757932D01*
X134783411Y-101645990D01*
X135026632Y-101483475D01*
X135233475Y-101276632D01*
X135395990Y-101033411D01*
X135507932Y-100763158D01*
X135565000Y-100476260D01*
X135565000Y-100183740D01*
X135507932Y-99896842D01*
X135395990Y-99626589D01*
X135233475Y-99383368D01*
X135026632Y-99176525D01*
X134783411Y-99014010D01*
X134513158Y-98902068D01*
X134226260Y-98845000D01*
X133933740Y-98845000D01*
X133646842Y-98902068D01*
X133376589Y-99014010D01*
X133133368Y-99176525D01*
X132926525Y-99383368D01*
X132810000Y-99557760D01*
X132693475Y-99383368D01*
X132486632Y-99176525D01*
X132243411Y-99014010D01*
X131973158Y-98902068D01*
X131686260Y-98845000D01*
X131393740Y-98845000D01*
X131106842Y-98902068D01*
X130836589Y-99014010D01*
X130593368Y-99176525D01*
X130461513Y-99308380D01*
X130439502Y-99235820D01*
X130380537Y-99125506D01*
X130301185Y-99028815D01*
X130204494Y-98949463D01*
X130094180Y-98890498D01*
X129974482Y-98854188D01*
X129850000Y-98841928D01*
X128150000Y-98841928D01*
X128025518Y-98854188D01*
X127905820Y-98890498D01*
X127795506Y-98949463D01*
X127698815Y-99028815D01*
X127619463Y-99125506D01*
X127560498Y-99235820D01*
X127524188Y-99355518D01*
X127511928Y-99480000D01*
X124271023Y-99480000D01*
X124283696Y-99449405D01*
X124335000Y-99191486D01*
X124335000Y-98928514D01*
X124283696Y-98670595D01*
X124183061Y-98427641D01*
X124036962Y-98208987D01*
X123851013Y-98023038D01*
X123632359Y-97876939D01*
X123422470Y-97790000D01*
X123632359Y-97703061D01*
X123851013Y-97556962D01*
X124036962Y-97371013D01*
X124183061Y-97152359D01*
X124283696Y-96909405D01*
X124335000Y-96651486D01*
X124335000Y-96388514D01*
X124283696Y-96130595D01*
X124183061Y-95887641D01*
X124036962Y-95668987D01*
X123851013Y-95483038D01*
X123632359Y-95336939D01*
X123389405Y-95236304D01*
X123131486Y-95185000D01*
X122868514Y-95185000D01*
X122610595Y-95236304D01*
X122367641Y-95336939D01*
X122148987Y-95483038D01*
X121963038Y-95668987D01*
X121816939Y-95887641D01*
X121716304Y-96130595D01*
X121665000Y-96388514D01*
X50660000Y-96388514D01*
X50660000Y-91710000D01*
X58361928Y-91710000D01*
X58361928Y-93710000D01*
X58374188Y-93834482D01*
X58410498Y-93954180D01*
X58469463Y-94064494D01*
X58548815Y-94161185D01*
X58645506Y-94240537D01*
X58755820Y-94299502D01*
X58875518Y-94335812D01*
X59000000Y-94348072D01*
X61000000Y-94348072D01*
X61124482Y-94335812D01*
X61244180Y-94299502D01*
X61354494Y-94240537D01*
X61451185Y-94161185D01*
X61530537Y-94064494D01*
X61589502Y-93954180D01*
X61625812Y-93834482D01*
X61638072Y-93710000D01*
X61638072Y-92484947D01*
X84880000Y-92484947D01*
X84880000Y-92935053D01*
X84967811Y-93376510D01*
X85140059Y-93792353D01*
X85390125Y-94166603D01*
X85708397Y-94484875D01*
X86082647Y-94734941D01*
X86498490Y-94907189D01*
X86939947Y-94995000D01*
X87390053Y-94995000D01*
X87831510Y-94907189D01*
X88247353Y-94734941D01*
X88621603Y-94484875D01*
X88939875Y-94166603D01*
X89189941Y-93792353D01*
X89201270Y-93765000D01*
X127511928Y-93765000D01*
X127511928Y-95465000D01*
X127524188Y-95589482D01*
X127560498Y-95709180D01*
X127619463Y-95819494D01*
X127698815Y-95916185D01*
X127795506Y-95995537D01*
X127905820Y-96054502D01*
X128025518Y-96090812D01*
X128150000Y-96103072D01*
X129850000Y-96103072D01*
X129974482Y-96090812D01*
X130094180Y-96054502D01*
X130204494Y-95995537D01*
X130301185Y-95916185D01*
X130380537Y-95819494D01*
X130439502Y-95709180D01*
X130461513Y-95636620D01*
X130593368Y-95768475D01*
X130836589Y-95930990D01*
X131106842Y-96042932D01*
X131393740Y-96100000D01*
X131686260Y-96100000D01*
X131973158Y-96042932D01*
X132243411Y-95930990D01*
X132486632Y-95768475D01*
X132693475Y-95561632D01*
X132855990Y-95318411D01*
X132967932Y-95048158D01*
X133025000Y-94761260D01*
X133025000Y-94468740D01*
X132967932Y-94181842D01*
X132855990Y-93911589D01*
X132693475Y-93668368D01*
X132486632Y-93461525D01*
X132243411Y-93299010D01*
X131973158Y-93187068D01*
X131686260Y-93130000D01*
X131393740Y-93130000D01*
X131106842Y-93187068D01*
X130836589Y-93299010D01*
X130593368Y-93461525D01*
X130461513Y-93593380D01*
X130439502Y-93520820D01*
X130380537Y-93410506D01*
X130301185Y-93313815D01*
X130204494Y-93234463D01*
X130094180Y-93175498D01*
X129974482Y-93139188D01*
X129850000Y-93126928D01*
X128150000Y-93126928D01*
X128025518Y-93139188D01*
X127905820Y-93175498D01*
X127795506Y-93234463D01*
X127698815Y-93313815D01*
X127619463Y-93410506D01*
X127560498Y-93520820D01*
X127524188Y-93640518D01*
X127511928Y-93765000D01*
X89201270Y-93765000D01*
X89362189Y-93376510D01*
X89450000Y-92935053D01*
X89450000Y-92484947D01*
X89362189Y-92043490D01*
X89189941Y-91627647D01*
X88939875Y-91253397D01*
X88621603Y-90935125D01*
X88247353Y-90685059D01*
X87831510Y-90512811D01*
X87390053Y-90425000D01*
X86939947Y-90425000D01*
X86498490Y-90512811D01*
X86082647Y-90685059D01*
X85708397Y-90935125D01*
X85390125Y-91253397D01*
X85140059Y-91627647D01*
X84967811Y-92043490D01*
X84880000Y-92484947D01*
X61638072Y-92484947D01*
X61638072Y-91710000D01*
X61625812Y-91585518D01*
X61589502Y-91465820D01*
X61530537Y-91355506D01*
X61451185Y-91258815D01*
X61354494Y-91179463D01*
X61244180Y-91120498D01*
X61124482Y-91084188D01*
X61000000Y-91071928D01*
X59000000Y-91071928D01*
X58875518Y-91084188D01*
X58755820Y-91120498D01*
X58645506Y-91179463D01*
X58548815Y-91258815D01*
X58469463Y-91355506D01*
X58410498Y-91465820D01*
X58374188Y-91585518D01*
X58361928Y-91710000D01*
X50660000Y-91710000D01*
X50660000Y-89373967D01*
X126365000Y-89373967D01*
X126365000Y-89696033D01*
X126427832Y-90011912D01*
X126551082Y-90309463D01*
X126730013Y-90577252D01*
X126957748Y-90804987D01*
X127225537Y-90983918D01*
X127523088Y-91107168D01*
X127838967Y-91170000D01*
X128161033Y-91170000D01*
X128476912Y-91107168D01*
X128774463Y-90983918D01*
X129042252Y-90804987D01*
X129269987Y-90577252D01*
X129448918Y-90309463D01*
X129572168Y-90011912D01*
X129635000Y-89696033D01*
X129635000Y-89373967D01*
X130865000Y-89373967D01*
X130865000Y-89696033D01*
X130927832Y-90011912D01*
X131051082Y-90309463D01*
X131230013Y-90577252D01*
X131457748Y-90804987D01*
X131725537Y-90983918D01*
X132023088Y-91107168D01*
X132338967Y-91170000D01*
X132661033Y-91170000D01*
X132976912Y-91107168D01*
X133274463Y-90983918D01*
X133542252Y-90804987D01*
X133769987Y-90577252D01*
X133948918Y-90309463D01*
X134072168Y-90011912D01*
X134135000Y-89696033D01*
X134135000Y-89373967D01*
X134072168Y-89058088D01*
X133948918Y-88760537D01*
X133769987Y-88492748D01*
X133542252Y-88265013D01*
X133274463Y-88086082D01*
X132976912Y-87962832D01*
X132661033Y-87900000D01*
X132338967Y-87900000D01*
X132023088Y-87962832D01*
X131725537Y-88086082D01*
X131457748Y-88265013D01*
X131230013Y-88492748D01*
X131051082Y-88760537D01*
X130927832Y-89058088D01*
X130865000Y-89373967D01*
X129635000Y-89373967D01*
X129572168Y-89058088D01*
X129448918Y-88760537D01*
X129269987Y-88492748D01*
X129042252Y-88265013D01*
X128774463Y-88086082D01*
X128476912Y-87962832D01*
X128161033Y-87900000D01*
X127838967Y-87900000D01*
X127523088Y-87962832D01*
X127225537Y-88086082D01*
X126957748Y-88265013D01*
X126730013Y-88492748D01*
X126551082Y-88760537D01*
X126427832Y-89058088D01*
X126365000Y-89373967D01*
X50660000Y-89373967D01*
X50660000Y-82873967D01*
X126365000Y-82873967D01*
X126365000Y-83196033D01*
X126427832Y-83511912D01*
X126551082Y-83809463D01*
X126730013Y-84077252D01*
X126957748Y-84304987D01*
X127225537Y-84483918D01*
X127523088Y-84607168D01*
X127838967Y-84670000D01*
X128161033Y-84670000D01*
X128476912Y-84607168D01*
X128774463Y-84483918D01*
X129042252Y-84304987D01*
X129269987Y-84077252D01*
X129448918Y-83809463D01*
X129572168Y-83511912D01*
X129635000Y-83196033D01*
X129635000Y-82873967D01*
X130865000Y-82873967D01*
X130865000Y-83196033D01*
X130927832Y-83511912D01*
X131051082Y-83809463D01*
X131230013Y-84077252D01*
X131457748Y-84304987D01*
X131725537Y-84483918D01*
X132023088Y-84607168D01*
X132338967Y-84670000D01*
X132661033Y-84670000D01*
X132976912Y-84607168D01*
X133274463Y-84483918D01*
X133542252Y-84304987D01*
X133769987Y-84077252D01*
X133948918Y-83809463D01*
X134072168Y-83511912D01*
X134135000Y-83196033D01*
X134135000Y-82873967D01*
X134072168Y-82558088D01*
X133948918Y-82260537D01*
X133769987Y-81992748D01*
X133542252Y-81765013D01*
X133274463Y-81586082D01*
X132976912Y-81462832D01*
X132661033Y-81400000D01*
X132338967Y-81400000D01*
X132023088Y-81462832D01*
X131725537Y-81586082D01*
X131457748Y-81765013D01*
X131230013Y-81992748D01*
X131051082Y-82260537D01*
X130927832Y-82558088D01*
X130865000Y-82873967D01*
X129635000Y-82873967D01*
X129572168Y-82558088D01*
X129448918Y-82260537D01*
X129269987Y-81992748D01*
X129042252Y-81765013D01*
X128774463Y-81586082D01*
X128476912Y-81462832D01*
X128161033Y-81400000D01*
X127838967Y-81400000D01*
X127523088Y-81462832D01*
X127225537Y-81586082D01*
X126957748Y-81765013D01*
X126730013Y-81992748D01*
X126551082Y-82260537D01*
X126427832Y-82558088D01*
X126365000Y-82873967D01*
X50660000Y-82873967D01*
X50660000Y-77040000D01*
X52381928Y-77040000D01*
X52381928Y-81280000D01*
X52394188Y-81404482D01*
X52430498Y-81524180D01*
X52489463Y-81634494D01*
X52568815Y-81731185D01*
X52665506Y-81810537D01*
X52775820Y-81869502D01*
X52895518Y-81905812D01*
X53020000Y-81918072D01*
X54720000Y-81918072D01*
X54844482Y-81905812D01*
X54964180Y-81869502D01*
X55074494Y-81810537D01*
X55171185Y-81731185D01*
X55250537Y-81634494D01*
X55309502Y-81524180D01*
X55331513Y-81451620D01*
X55463368Y-81583475D01*
X55706589Y-81745990D01*
X55976842Y-81857932D01*
X56263740Y-81915000D01*
X56556260Y-81915000D01*
X56843158Y-81857932D01*
X57113411Y-81745990D01*
X57356632Y-81583475D01*
X57563475Y-81376632D01*
X57685195Y-81194466D01*
X57754822Y-81311355D01*
X57949731Y-81527588D01*
X58183080Y-81701641D01*
X58445901Y-81826825D01*
X58593110Y-81871476D01*
X58823000Y-81750155D01*
X58823000Y-76563750D01*
X59077000Y-76563750D01*
X59077000Y-81750155D01*
X59306890Y-81871476D01*
X59454099Y-81826825D01*
X59716920Y-81701641D01*
X59950269Y-81527588D01*
X60145178Y-81311355D01*
X60214805Y-81194466D01*
X60336525Y-81376632D01*
X60543368Y-81583475D01*
X60786589Y-81745990D01*
X61056842Y-81857932D01*
X61343740Y-81915000D01*
X61636260Y-81915000D01*
X61923158Y-81857932D01*
X62193411Y-81745990D01*
X62436632Y-81583475D01*
X62643475Y-81376632D01*
X62760000Y-81202240D01*
X62876525Y-81376632D01*
X63083368Y-81583475D01*
X63326589Y-81745990D01*
X63596842Y-81857932D01*
X63883740Y-81915000D01*
X64176260Y-81915000D01*
X64463158Y-81857932D01*
X64733411Y-81745990D01*
X64976632Y-81583475D01*
X65183475Y-81376632D01*
X65300000Y-81202240D01*
X65416525Y-81376632D01*
X65623368Y-81583475D01*
X65866589Y-81745990D01*
X66136842Y-81857932D01*
X66423740Y-81915000D01*
X66716260Y-81915000D01*
X67003158Y-81857932D01*
X67273411Y-81745990D01*
X67516632Y-81583475D01*
X67723475Y-81376632D01*
X67840000Y-81202240D01*
X67956525Y-81376632D01*
X68163368Y-81583475D01*
X68406589Y-81745990D01*
X68676842Y-81857932D01*
X68963740Y-81915000D01*
X69256260Y-81915000D01*
X69543158Y-81857932D01*
X69813411Y-81745990D01*
X70056632Y-81583475D01*
X70263475Y-81376632D01*
X70385195Y-81194466D01*
X70454822Y-81311355D01*
X70649731Y-81527588D01*
X70883080Y-81701641D01*
X71145901Y-81826825D01*
X71293110Y-81871476D01*
X71523000Y-81750155D01*
X71523000Y-76563750D01*
X71777000Y-76563750D01*
X71777000Y-81750155D01*
X72006890Y-81871476D01*
X72154099Y-81826825D01*
X72416920Y-81701641D01*
X72650269Y-81527588D01*
X72845178Y-81311355D01*
X72914805Y-81194466D01*
X73036525Y-81376632D01*
X73243368Y-81583475D01*
X73486589Y-81745990D01*
X73756842Y-81857932D01*
X74043740Y-81915000D01*
X74336260Y-81915000D01*
X74623158Y-81857932D01*
X74893411Y-81745990D01*
X75136632Y-81583475D01*
X75343475Y-81376632D01*
X75460000Y-81202240D01*
X75576525Y-81376632D01*
X75783368Y-81583475D01*
X76026589Y-81745990D01*
X76296842Y-81857932D01*
X76583740Y-81915000D01*
X76876260Y-81915000D01*
X77163158Y-81857932D01*
X77433411Y-81745990D01*
X77676632Y-81583475D01*
X77883475Y-81376632D01*
X78000000Y-81202240D01*
X78116525Y-81376632D01*
X78323368Y-81583475D01*
X78566589Y-81745990D01*
X78836842Y-81857932D01*
X79123740Y-81915000D01*
X79416260Y-81915000D01*
X79703158Y-81857932D01*
X79973411Y-81745990D01*
X80216632Y-81583475D01*
X80423475Y-81376632D01*
X80540000Y-81202240D01*
X80656525Y-81376632D01*
X80863368Y-81583475D01*
X81106589Y-81745990D01*
X81376842Y-81857932D01*
X81663740Y-81915000D01*
X81956260Y-81915000D01*
X82243158Y-81857932D01*
X82513411Y-81745990D01*
X82756632Y-81583475D01*
X82963475Y-81376632D01*
X83085195Y-81194466D01*
X83154822Y-81311355D01*
X83349731Y-81527588D01*
X83583080Y-81701641D01*
X83845901Y-81826825D01*
X83993110Y-81871476D01*
X84223000Y-81750155D01*
X84223000Y-76563750D01*
X84477000Y-76563750D01*
X84477000Y-81750155D01*
X84706890Y-81871476D01*
X84854099Y-81826825D01*
X85116920Y-81701641D01*
X85350269Y-81527588D01*
X85545178Y-81311355D01*
X85614805Y-81194466D01*
X85736525Y-81376632D01*
X85943368Y-81583475D01*
X86186589Y-81745990D01*
X86456842Y-81857932D01*
X86743740Y-81915000D01*
X87036260Y-81915000D01*
X87323158Y-81857932D01*
X87593411Y-81745990D01*
X87836632Y-81583475D01*
X88043475Y-81376632D01*
X88160000Y-81202240D01*
X88276525Y-81376632D01*
X88483368Y-81583475D01*
X88726589Y-81745990D01*
X88996842Y-81857932D01*
X89283740Y-81915000D01*
X89576260Y-81915000D01*
X89863158Y-81857932D01*
X90133411Y-81745990D01*
X90376632Y-81583475D01*
X90583475Y-81376632D01*
X90700000Y-81202240D01*
X90816525Y-81376632D01*
X91023368Y-81583475D01*
X91266589Y-81745990D01*
X91536842Y-81857932D01*
X91823740Y-81915000D01*
X92116260Y-81915000D01*
X92403158Y-81857932D01*
X92673411Y-81745990D01*
X92916632Y-81583475D01*
X93123475Y-81376632D01*
X93240000Y-81202240D01*
X93356525Y-81376632D01*
X93563368Y-81583475D01*
X93806589Y-81745990D01*
X94076842Y-81857932D01*
X94363740Y-81915000D01*
X94656260Y-81915000D01*
X94943158Y-81857932D01*
X95213411Y-81745990D01*
X95456632Y-81583475D01*
X95663475Y-81376632D01*
X95825990Y-81133411D01*
X95850850Y-81073393D01*
X95955820Y-81129502D01*
X96075518Y-81165812D01*
X96200000Y-81178072D01*
X96764250Y-81175000D01*
X96923000Y-81016250D01*
X96923000Y-76563750D01*
X97177000Y-76563750D01*
X97177000Y-81016250D01*
X97335750Y-81175000D01*
X97900000Y-81178072D01*
X98024482Y-81165812D01*
X98144180Y-81129502D01*
X98254494Y-81070537D01*
X98320000Y-81016778D01*
X98385506Y-81070537D01*
X98495820Y-81129502D01*
X98615518Y-81165812D01*
X98740000Y-81178072D01*
X100440000Y-81178072D01*
X100564482Y-81165812D01*
X100684180Y-81129502D01*
X100794494Y-81070537D01*
X100860000Y-81016778D01*
X100925506Y-81070537D01*
X101035820Y-81129502D01*
X101155518Y-81165812D01*
X101280000Y-81178072D01*
X102980000Y-81178072D01*
X103104482Y-81165812D01*
X103224180Y-81129502D01*
X103334494Y-81070537D01*
X103431185Y-80991185D01*
X103510537Y-80894494D01*
X103569502Y-80784180D01*
X103605812Y-80664482D01*
X103618072Y-80540000D01*
X103618072Y-77973514D01*
X105345000Y-77973514D01*
X105345000Y-78236486D01*
X105396304Y-78494405D01*
X105496939Y-78737359D01*
X105643038Y-78956013D01*
X105828987Y-79141962D01*
X106047641Y-79288061D01*
X106290595Y-79388696D01*
X106548514Y-79440000D01*
X106811486Y-79440000D01*
X107069405Y-79388696D01*
X107312359Y-79288061D01*
X107531013Y-79141962D01*
X107716962Y-78956013D01*
X107863061Y-78737359D01*
X107950000Y-78527470D01*
X108036939Y-78737359D01*
X108183038Y-78956013D01*
X108368987Y-79141962D01*
X108587641Y-79288061D01*
X108830595Y-79388696D01*
X109088514Y-79440000D01*
X109351486Y-79440000D01*
X109609405Y-79388696D01*
X109852359Y-79288061D01*
X110071013Y-79141962D01*
X110256962Y-78956013D01*
X110403061Y-78737359D01*
X110503696Y-78494405D01*
X110555000Y-78236486D01*
X110555000Y-77973514D01*
X110503696Y-77715595D01*
X110403061Y-77472641D01*
X110256962Y-77253987D01*
X110071013Y-77068038D01*
X109852359Y-76921939D01*
X109609405Y-76821304D01*
X109351486Y-76770000D01*
X109088514Y-76770000D01*
X108830595Y-76821304D01*
X108587641Y-76921939D01*
X108368987Y-77068038D01*
X108183038Y-77253987D01*
X108036939Y-77472641D01*
X107950000Y-77682530D01*
X107863061Y-77472641D01*
X107716962Y-77253987D01*
X107531013Y-77068038D01*
X107312359Y-76921939D01*
X107069405Y-76821304D01*
X106811486Y-76770000D01*
X106548514Y-76770000D01*
X106290595Y-76821304D01*
X106047641Y-76921939D01*
X105828987Y-77068038D01*
X105643038Y-77253987D01*
X105496939Y-77472641D01*
X105396304Y-77715595D01*
X105345000Y-77973514D01*
X103618072Y-77973514D01*
X103618072Y-77040000D01*
X103605812Y-76915518D01*
X103569502Y-76795820D01*
X103510537Y-76685506D01*
X103431185Y-76588815D01*
X103334494Y-76509463D01*
X103224180Y-76450498D01*
X103104482Y-76414188D01*
X102980000Y-76401928D01*
X101280000Y-76401928D01*
X101155518Y-76414188D01*
X101035820Y-76450498D01*
X100925506Y-76509463D01*
X100860000Y-76563222D01*
X100794494Y-76509463D01*
X100684180Y-76450498D01*
X100564482Y-76414188D01*
X100440000Y-76401928D01*
X98740000Y-76401928D01*
X98615518Y-76414188D01*
X98495820Y-76450498D01*
X98385506Y-76509463D01*
X98320000Y-76563222D01*
X98254494Y-76509463D01*
X98144180Y-76450498D01*
X98024482Y-76414188D01*
X97900000Y-76401928D01*
X97335750Y-76405000D01*
X97177000Y-76563750D01*
X96923000Y-76563750D01*
X96764250Y-76405000D01*
X96200000Y-76401928D01*
X96075518Y-76414188D01*
X95955820Y-76450498D01*
X95845506Y-76509463D01*
X95780000Y-76563222D01*
X95714494Y-76509463D01*
X95604180Y-76450498D01*
X95484482Y-76414188D01*
X95360000Y-76401928D01*
X93660000Y-76401928D01*
X93535518Y-76414188D01*
X93415820Y-76450498D01*
X93305506Y-76509463D01*
X93240000Y-76563222D01*
X93174494Y-76509463D01*
X93064180Y-76450498D01*
X92944482Y-76414188D01*
X92820000Y-76401928D01*
X91120000Y-76401928D01*
X90995518Y-76414188D01*
X90875820Y-76450498D01*
X90765506Y-76509463D01*
X90700000Y-76563222D01*
X90634494Y-76509463D01*
X90524180Y-76450498D01*
X90404482Y-76414188D01*
X90280000Y-76401928D01*
X88580000Y-76401928D01*
X88455518Y-76414188D01*
X88335820Y-76450498D01*
X88225506Y-76509463D01*
X88160000Y-76563222D01*
X88094494Y-76509463D01*
X87984180Y-76450498D01*
X87864482Y-76414188D01*
X87740000Y-76401928D01*
X86040000Y-76401928D01*
X85915518Y-76414188D01*
X85795820Y-76450498D01*
X85685506Y-76509463D01*
X85620000Y-76563222D01*
X85554494Y-76509463D01*
X85444180Y-76450498D01*
X85324482Y-76414188D01*
X85200000Y-76401928D01*
X84635750Y-76405000D01*
X84477000Y-76563750D01*
X84223000Y-76563750D01*
X84064250Y-76405000D01*
X83500000Y-76401928D01*
X83375518Y-76414188D01*
X83255820Y-76450498D01*
X83145506Y-76509463D01*
X83080000Y-76563222D01*
X83014494Y-76509463D01*
X82904180Y-76450498D01*
X82784482Y-76414188D01*
X82660000Y-76401928D01*
X80960000Y-76401928D01*
X80835518Y-76414188D01*
X80715820Y-76450498D01*
X80605506Y-76509463D01*
X80540000Y-76563222D01*
X80474494Y-76509463D01*
X80364180Y-76450498D01*
X80244482Y-76414188D01*
X80120000Y-76401928D01*
X78420000Y-76401928D01*
X78295518Y-76414188D01*
X78175820Y-76450498D01*
X78065506Y-76509463D01*
X78000000Y-76563222D01*
X77934494Y-76509463D01*
X77824180Y-76450498D01*
X77704482Y-76414188D01*
X77580000Y-76401928D01*
X75880000Y-76401928D01*
X75755518Y-76414188D01*
X75635820Y-76450498D01*
X75525506Y-76509463D01*
X75460000Y-76563222D01*
X75394494Y-76509463D01*
X75284180Y-76450498D01*
X75164482Y-76414188D01*
X75040000Y-76401928D01*
X73340000Y-76401928D01*
X73215518Y-76414188D01*
X73095820Y-76450498D01*
X72985506Y-76509463D01*
X72920000Y-76563222D01*
X72854494Y-76509463D01*
X72744180Y-76450498D01*
X72624482Y-76414188D01*
X72500000Y-76401928D01*
X71935750Y-76405000D01*
X71777000Y-76563750D01*
X71523000Y-76563750D01*
X71364250Y-76405000D01*
X70800000Y-76401928D01*
X70675518Y-76414188D01*
X70555820Y-76450498D01*
X70445506Y-76509463D01*
X70380000Y-76563222D01*
X70314494Y-76509463D01*
X70204180Y-76450498D01*
X70084482Y-76414188D01*
X69960000Y-76401928D01*
X68260000Y-76401928D01*
X68135518Y-76414188D01*
X68015820Y-76450498D01*
X67905506Y-76509463D01*
X67840000Y-76563222D01*
X67774494Y-76509463D01*
X67664180Y-76450498D01*
X67544482Y-76414188D01*
X67420000Y-76401928D01*
X65720000Y-76401928D01*
X65595518Y-76414188D01*
X65475820Y-76450498D01*
X65365506Y-76509463D01*
X65300000Y-76563222D01*
X65234494Y-76509463D01*
X65124180Y-76450498D01*
X65004482Y-76414188D01*
X64880000Y-76401928D01*
X63180000Y-76401928D01*
X63055518Y-76414188D01*
X62935820Y-76450498D01*
X62825506Y-76509463D01*
X62760000Y-76563222D01*
X62694494Y-76509463D01*
X62584180Y-76450498D01*
X62464482Y-76414188D01*
X62340000Y-76401928D01*
X60640000Y-76401928D01*
X60515518Y-76414188D01*
X60395820Y-76450498D01*
X60285506Y-76509463D01*
X60220000Y-76563222D01*
X60154494Y-76509463D01*
X60044180Y-76450498D01*
X59924482Y-76414188D01*
X59800000Y-76401928D01*
X59235750Y-76405000D01*
X59077000Y-76563750D01*
X58823000Y-76563750D01*
X58664250Y-76405000D01*
X58100000Y-76401928D01*
X57975518Y-76414188D01*
X57855820Y-76450498D01*
X57745506Y-76509463D01*
X57680000Y-76563222D01*
X57614494Y-76509463D01*
X57504180Y-76450498D01*
X57384482Y-76414188D01*
X57260000Y-76401928D01*
X55560000Y-76401928D01*
X55435518Y-76414188D01*
X55315820Y-76450498D01*
X55205506Y-76509463D01*
X55140000Y-76563222D01*
X55074494Y-76509463D01*
X54964180Y-76450498D01*
X54844482Y-76414188D01*
X54720000Y-76401928D01*
X53020000Y-76401928D01*
X52895518Y-76414188D01*
X52775820Y-76450498D01*
X52665506Y-76509463D01*
X52568815Y-76588815D01*
X52489463Y-76685506D01*
X52430498Y-76795820D01*
X52394188Y-76915518D01*
X52381928Y-77040000D01*
X50660000Y-77040000D01*
X50660000Y-71573816D01*
X52465000Y-71573816D01*
X52465000Y-71876184D01*
X52523989Y-72172743D01*
X52639701Y-72452095D01*
X52807688Y-72703505D01*
X53021495Y-72917312D01*
X53272905Y-73085299D01*
X53552257Y-73201011D01*
X53848816Y-73260000D01*
X54151184Y-73260000D01*
X54447743Y-73201011D01*
X54727095Y-73085299D01*
X54978505Y-72917312D01*
X55192312Y-72703505D01*
X55360299Y-72452095D01*
X55476011Y-72172743D01*
X55535000Y-71876184D01*
X55535000Y-71573816D01*
X55478266Y-71288589D01*
X55645000Y-71288589D01*
X55645000Y-71561411D01*
X55698225Y-71828989D01*
X55802629Y-72081043D01*
X55954201Y-72307886D01*
X56147114Y-72500799D01*
X56373957Y-72652371D01*
X56626011Y-72756775D01*
X56893589Y-72810000D01*
X57166411Y-72810000D01*
X57433989Y-72756775D01*
X57686043Y-72652371D01*
X57912886Y-72500799D01*
X58105799Y-72307886D01*
X58257371Y-72081043D01*
X58361775Y-71828989D01*
X58415000Y-71561411D01*
X58415000Y-71288589D01*
X58361775Y-71021011D01*
X58257371Y-70768957D01*
X58105799Y-70542114D01*
X57912886Y-70349201D01*
X57686043Y-70197629D01*
X57433989Y-70093225D01*
X57166411Y-70040000D01*
X56893589Y-70040000D01*
X56626011Y-70093225D01*
X56373957Y-70197629D01*
X56147114Y-70349201D01*
X55954201Y-70542114D01*
X55802629Y-70768957D01*
X55698225Y-71021011D01*
X55645000Y-71288589D01*
X55478266Y-71288589D01*
X55476011Y-71277257D01*
X55360299Y-70997905D01*
X55192312Y-70746495D01*
X54978505Y-70532688D01*
X54727095Y-70364701D01*
X54447743Y-70248989D01*
X54151184Y-70190000D01*
X53848816Y-70190000D01*
X53552257Y-70248989D01*
X53272905Y-70364701D01*
X53021495Y-70532688D01*
X52807688Y-70746495D01*
X52639701Y-70997905D01*
X52523989Y-71277257D01*
X52465000Y-71573816D01*
X50660000Y-71573816D01*
X50660000Y-66123816D01*
X52465000Y-66123816D01*
X52465000Y-66426184D01*
X52523989Y-66722743D01*
X52639701Y-67002095D01*
X52807688Y-67253505D01*
X53021495Y-67467312D01*
X53272905Y-67635299D01*
X53552257Y-67751011D01*
X53848816Y-67810000D01*
X54151184Y-67810000D01*
X54447743Y-67751011D01*
X54727095Y-67635299D01*
X54978505Y-67467312D01*
X55192312Y-67253505D01*
X55360299Y-67002095D01*
X55476011Y-66722743D01*
X55532532Y-66438589D01*
X55645000Y-66438589D01*
X55645000Y-66711411D01*
X55698225Y-66978989D01*
X55802629Y-67231043D01*
X55954201Y-67457886D01*
X56147114Y-67650799D01*
X56373957Y-67802371D01*
X56626011Y-67906775D01*
X56893589Y-67960000D01*
X57166411Y-67960000D01*
X57433989Y-67906775D01*
X57686043Y-67802371D01*
X57912886Y-67650799D01*
X58105799Y-67457886D01*
X58257371Y-67231043D01*
X58361775Y-66978989D01*
X58415000Y-66711411D01*
X58415000Y-66438589D01*
X58361775Y-66171011D01*
X58257371Y-65918957D01*
X58105799Y-65692114D01*
X58023685Y-65610000D01*
X100411928Y-65610000D01*
X100411928Y-67310000D01*
X100424188Y-67434482D01*
X100460498Y-67554180D01*
X100519463Y-67664494D01*
X100573222Y-67730000D01*
X100519463Y-67795506D01*
X100460498Y-67905820D01*
X100424188Y-68025518D01*
X100411928Y-68150000D01*
X100411928Y-69850000D01*
X100424188Y-69974482D01*
X100460498Y-70094180D01*
X100519463Y-70204494D01*
X100573222Y-70270000D01*
X100519463Y-70335506D01*
X100460498Y-70445820D01*
X100424188Y-70565518D01*
X100411928Y-70690000D01*
X100411928Y-72390000D01*
X100424188Y-72514482D01*
X100460498Y-72634180D01*
X100519463Y-72744494D01*
X100598815Y-72841185D01*
X100695506Y-72920537D01*
X100805820Y-72979502D01*
X100925518Y-73015812D01*
X101050000Y-73028072D01*
X104550000Y-73028072D01*
X104674482Y-73015812D01*
X104794180Y-72979502D01*
X104904494Y-72920537D01*
X105001185Y-72841185D01*
X105080537Y-72744494D01*
X105139502Y-72634180D01*
X105175812Y-72514482D01*
X105188072Y-72390000D01*
X105188072Y-72258514D01*
X105345000Y-72258514D01*
X105345000Y-72521486D01*
X105396304Y-72779405D01*
X105496939Y-73022359D01*
X105643038Y-73241013D01*
X105828987Y-73426962D01*
X106047641Y-73573061D01*
X106290595Y-73673696D01*
X106548514Y-73725000D01*
X106811486Y-73725000D01*
X107069405Y-73673696D01*
X107312359Y-73573061D01*
X107531013Y-73426962D01*
X107716962Y-73241013D01*
X107863061Y-73022359D01*
X107950000Y-72812470D01*
X108036939Y-73022359D01*
X108183038Y-73241013D01*
X108368987Y-73426962D01*
X108587641Y-73573061D01*
X108830595Y-73673696D01*
X109088514Y-73725000D01*
X109351486Y-73725000D01*
X109609405Y-73673696D01*
X109852359Y-73573061D01*
X110071013Y-73426962D01*
X110256962Y-73241013D01*
X110403061Y-73022359D01*
X110503696Y-72779405D01*
X110555000Y-72521486D01*
X110555000Y-72258514D01*
X110503696Y-72000595D01*
X110403061Y-71757641D01*
X110256962Y-71538987D01*
X110071013Y-71353038D01*
X109852359Y-71206939D01*
X109609405Y-71106304D01*
X109351486Y-71055000D01*
X109088514Y-71055000D01*
X108830595Y-71106304D01*
X108587641Y-71206939D01*
X108368987Y-71353038D01*
X108183038Y-71538987D01*
X108036939Y-71757641D01*
X107950000Y-71967530D01*
X107863061Y-71757641D01*
X107716962Y-71538987D01*
X107531013Y-71353038D01*
X107312359Y-71206939D01*
X107069405Y-71106304D01*
X106811486Y-71055000D01*
X106548514Y-71055000D01*
X106290595Y-71106304D01*
X106047641Y-71206939D01*
X105828987Y-71353038D01*
X105643038Y-71538987D01*
X105496939Y-71757641D01*
X105396304Y-72000595D01*
X105345000Y-72258514D01*
X105188072Y-72258514D01*
X105188072Y-70690000D01*
X105175812Y-70565518D01*
X105139502Y-70445820D01*
X105080537Y-70335506D01*
X105026778Y-70270000D01*
X105080537Y-70204494D01*
X105139502Y-70094180D01*
X105175812Y-69974482D01*
X105188072Y-69850000D01*
X105188072Y-68150000D01*
X105175812Y-68025518D01*
X105139502Y-67905820D01*
X105080537Y-67795506D01*
X105026778Y-67730000D01*
X105080537Y-67664494D01*
X105139502Y-67554180D01*
X105175812Y-67434482D01*
X105188072Y-67310000D01*
X105188072Y-66460000D01*
X106461928Y-66460000D01*
X106461928Y-68160000D01*
X106474188Y-68284482D01*
X106510498Y-68404180D01*
X106569463Y-68514494D01*
X106648815Y-68611185D01*
X106745506Y-68690537D01*
X106855820Y-68749502D01*
X106975518Y-68785812D01*
X107100000Y-68798072D01*
X108800000Y-68798072D01*
X108924482Y-68785812D01*
X109044180Y-68749502D01*
X109154494Y-68690537D01*
X109251185Y-68611185D01*
X109330537Y-68514494D01*
X109389502Y-68404180D01*
X109425812Y-68284482D01*
X109438072Y-68160000D01*
X109438072Y-66460000D01*
X109425812Y-66335518D01*
X109389502Y-66215820D01*
X109330537Y-66105506D01*
X109251185Y-66008815D01*
X109154494Y-65929463D01*
X109044180Y-65870498D01*
X108963534Y-65846034D01*
X109047588Y-65770269D01*
X109221641Y-65536920D01*
X109296013Y-65380776D01*
X116342116Y-65380776D01*
X116342116Y-66619224D01*
X116518365Y-67845067D01*
X116867276Y-69033349D01*
X117381746Y-70159881D01*
X118051302Y-71201730D01*
X118862313Y-72137687D01*
X119798270Y-72948698D01*
X120840119Y-73618254D01*
X121966651Y-74132724D01*
X123154933Y-74481635D01*
X124380776Y-74657884D01*
X125619224Y-74657884D01*
X126845067Y-74481635D01*
X128033349Y-74132724D01*
X129159881Y-73618254D01*
X130201730Y-72948698D01*
X131137687Y-72137687D01*
X131948698Y-71201730D01*
X132618254Y-70159881D01*
X133132724Y-69033349D01*
X133481635Y-67845067D01*
X133657884Y-66619224D01*
X133657884Y-65380776D01*
X133481635Y-64154933D01*
X133132724Y-62966651D01*
X132618254Y-61840119D01*
X131948698Y-60798270D01*
X131137687Y-59862313D01*
X130201730Y-59051302D01*
X129159881Y-58381746D01*
X128033349Y-57867276D01*
X126845067Y-57518365D01*
X125619224Y-57342116D01*
X124380776Y-57342116D01*
X123154933Y-57518365D01*
X121966651Y-57867276D01*
X120840119Y-58381746D01*
X119798270Y-59051302D01*
X118862313Y-59862313D01*
X118051302Y-60798270D01*
X117381746Y-61840119D01*
X116867276Y-62966651D01*
X116518365Y-64154933D01*
X116342116Y-65380776D01*
X109296013Y-65380776D01*
X109346825Y-65274099D01*
X109391476Y-65126890D01*
X109270155Y-64897000D01*
X108077000Y-64897000D01*
X108077000Y-64917000D01*
X107823000Y-64917000D01*
X107823000Y-64897000D01*
X106629845Y-64897000D01*
X106508524Y-65126890D01*
X106553175Y-65274099D01*
X106678359Y-65536920D01*
X106852412Y-65770269D01*
X106936466Y-65846034D01*
X106855820Y-65870498D01*
X106745506Y-65929463D01*
X106648815Y-66008815D01*
X106569463Y-66105506D01*
X106510498Y-66215820D01*
X106474188Y-66335518D01*
X106461928Y-66460000D01*
X105188072Y-66460000D01*
X105188072Y-65610000D01*
X105175812Y-65485518D01*
X105139502Y-65365820D01*
X105080537Y-65255506D01*
X105001185Y-65158815D01*
X104904494Y-65079463D01*
X104794180Y-65020498D01*
X104674482Y-64984188D01*
X104550000Y-64971928D01*
X101050000Y-64971928D01*
X100925518Y-64984188D01*
X100805820Y-65020498D01*
X100695506Y-65079463D01*
X100598815Y-65158815D01*
X100519463Y-65255506D01*
X100460498Y-65365820D01*
X100424188Y-65485518D01*
X100411928Y-65610000D01*
X58023685Y-65610000D01*
X57912886Y-65499201D01*
X57686043Y-65347629D01*
X57433989Y-65243225D01*
X57166411Y-65190000D01*
X56893589Y-65190000D01*
X56626011Y-65243225D01*
X56373957Y-65347629D01*
X56147114Y-65499201D01*
X55954201Y-65692114D01*
X55802629Y-65918957D01*
X55698225Y-66171011D01*
X55645000Y-66438589D01*
X55532532Y-66438589D01*
X55535000Y-66426184D01*
X55535000Y-66123816D01*
X55476011Y-65827257D01*
X55360299Y-65547905D01*
X55192312Y-65296495D01*
X54978505Y-65082688D01*
X54727095Y-64914701D01*
X54447743Y-64798989D01*
X54151184Y-64740000D01*
X53848816Y-64740000D01*
X53552257Y-64798989D01*
X53272905Y-64914701D01*
X53021495Y-65082688D01*
X52807688Y-65296495D01*
X52639701Y-65547905D01*
X52523989Y-65827257D01*
X52465000Y-66123816D01*
X50660000Y-66123816D01*
X50660000Y-64413110D01*
X106508524Y-64413110D01*
X106629845Y-64643000D01*
X107823000Y-64643000D01*
X107823000Y-63449186D01*
X108077000Y-63449186D01*
X108077000Y-64643000D01*
X109270155Y-64643000D01*
X109391476Y-64413110D01*
X109346825Y-64265901D01*
X109221641Y-64003080D01*
X109047588Y-63769731D01*
X108831355Y-63574822D01*
X108581252Y-63425843D01*
X108306891Y-63328519D01*
X108077000Y-63449186D01*
X107823000Y-63449186D01*
X107593109Y-63328519D01*
X107318748Y-63425843D01*
X107068645Y-63574822D01*
X106852412Y-63769731D01*
X106678359Y-64003080D01*
X106553175Y-64265901D01*
X106508524Y-64413110D01*
X50660000Y-64413110D01*
X50660000Y-53779872D01*
X51765000Y-53779872D01*
X51765000Y-54220128D01*
X51850890Y-54651925D01*
X52019369Y-55058669D01*
X52263962Y-55424729D01*
X52575271Y-55736038D01*
X52941331Y-55980631D01*
X53348075Y-56149110D01*
X53396558Y-56158754D01*
X53166589Y-56254010D01*
X52923368Y-56416525D01*
X52716525Y-56623368D01*
X52554010Y-56866589D01*
X52442068Y-57136842D01*
X52418473Y-57255461D01*
X52394188Y-57335518D01*
X52385989Y-57418769D01*
X52385000Y-57423740D01*
X52385000Y-57428808D01*
X52381928Y-57460000D01*
X52381928Y-60960000D01*
X52394188Y-61084482D01*
X52430498Y-61204180D01*
X52489463Y-61314494D01*
X52568815Y-61411185D01*
X52665506Y-61490537D01*
X52775820Y-61549502D01*
X52895518Y-61585812D01*
X53020000Y-61598072D01*
X54720000Y-61598072D01*
X54844482Y-61585812D01*
X54964180Y-61549502D01*
X55074494Y-61490537D01*
X55140000Y-61436778D01*
X55205506Y-61490537D01*
X55315820Y-61549502D01*
X55435518Y-61585812D01*
X55560000Y-61598072D01*
X57260000Y-61598072D01*
X57384482Y-61585812D01*
X57504180Y-61549502D01*
X57614494Y-61490537D01*
X57680000Y-61436778D01*
X57745506Y-61490537D01*
X57855820Y-61549502D01*
X57975518Y-61585812D01*
X58100000Y-61598072D01*
X58664250Y-61595000D01*
X58823000Y-61436250D01*
X58823000Y-56983750D01*
X59077000Y-56983750D01*
X59077000Y-61436250D01*
X59235750Y-61595000D01*
X59800000Y-61598072D01*
X59924482Y-61585812D01*
X60044180Y-61549502D01*
X60154494Y-61490537D01*
X60220000Y-61436778D01*
X60285506Y-61490537D01*
X60395820Y-61549502D01*
X60515518Y-61585812D01*
X60640000Y-61598072D01*
X62340000Y-61598072D01*
X62464482Y-61585812D01*
X62584180Y-61549502D01*
X62694494Y-61490537D01*
X62760000Y-61436778D01*
X62825506Y-61490537D01*
X62935820Y-61549502D01*
X63055518Y-61585812D01*
X63180000Y-61598072D01*
X64880000Y-61598072D01*
X65004482Y-61585812D01*
X65124180Y-61549502D01*
X65234494Y-61490537D01*
X65300000Y-61436778D01*
X65365506Y-61490537D01*
X65475820Y-61549502D01*
X65595518Y-61585812D01*
X65720000Y-61598072D01*
X67420000Y-61598072D01*
X67544482Y-61585812D01*
X67664180Y-61549502D01*
X67774494Y-61490537D01*
X67840000Y-61436778D01*
X67905506Y-61490537D01*
X68015820Y-61549502D01*
X68135518Y-61585812D01*
X68260000Y-61598072D01*
X69960000Y-61598072D01*
X70084482Y-61585812D01*
X70204180Y-61549502D01*
X70314494Y-61490537D01*
X70380000Y-61436778D01*
X70445506Y-61490537D01*
X70555820Y-61549502D01*
X70675518Y-61585812D01*
X70800000Y-61598072D01*
X71364250Y-61595000D01*
X71523000Y-61436250D01*
X71523000Y-56983750D01*
X71777000Y-56983750D01*
X71777000Y-61436250D01*
X71935750Y-61595000D01*
X72500000Y-61598072D01*
X72624482Y-61585812D01*
X72744180Y-61549502D01*
X72854494Y-61490537D01*
X72920000Y-61436778D01*
X72985506Y-61490537D01*
X73095820Y-61549502D01*
X73215518Y-61585812D01*
X73340000Y-61598072D01*
X75040000Y-61598072D01*
X75164482Y-61585812D01*
X75284180Y-61549502D01*
X75394494Y-61490537D01*
X75460000Y-61436778D01*
X75525506Y-61490537D01*
X75635820Y-61549502D01*
X75755518Y-61585812D01*
X75880000Y-61598072D01*
X77580000Y-61598072D01*
X77704482Y-61585812D01*
X77824180Y-61549502D01*
X77934494Y-61490537D01*
X78000000Y-61436778D01*
X78065506Y-61490537D01*
X78175820Y-61549502D01*
X78295518Y-61585812D01*
X78420000Y-61598072D01*
X80120000Y-61598072D01*
X80244482Y-61585812D01*
X80364180Y-61549502D01*
X80474494Y-61490537D01*
X80540000Y-61436778D01*
X80605506Y-61490537D01*
X80715820Y-61549502D01*
X80835518Y-61585812D01*
X80960000Y-61598072D01*
X82660000Y-61598072D01*
X82784482Y-61585812D01*
X82904180Y-61549502D01*
X83014494Y-61490537D01*
X83080000Y-61436778D01*
X83145506Y-61490537D01*
X83255820Y-61549502D01*
X83375518Y-61585812D01*
X83500000Y-61598072D01*
X84064250Y-61595000D01*
X84223000Y-61436250D01*
X84223000Y-56983750D01*
X84477000Y-56983750D01*
X84477000Y-61436250D01*
X84635750Y-61595000D01*
X85200000Y-61598072D01*
X85324482Y-61585812D01*
X85444180Y-61549502D01*
X85554494Y-61490537D01*
X85620000Y-61436778D01*
X85685506Y-61490537D01*
X85795820Y-61549502D01*
X85915518Y-61585812D01*
X86040000Y-61598072D01*
X87740000Y-61598072D01*
X87864482Y-61585812D01*
X87984180Y-61549502D01*
X88094494Y-61490537D01*
X88160000Y-61436778D01*
X88225506Y-61490537D01*
X88335820Y-61549502D01*
X88455518Y-61585812D01*
X88580000Y-61598072D01*
X90280000Y-61598072D01*
X90404482Y-61585812D01*
X90524180Y-61549502D01*
X90634494Y-61490537D01*
X90700000Y-61436778D01*
X90765506Y-61490537D01*
X90875820Y-61549502D01*
X90995518Y-61585812D01*
X91120000Y-61598072D01*
X92820000Y-61598072D01*
X92944482Y-61585812D01*
X93064180Y-61549502D01*
X93174494Y-61490537D01*
X93240000Y-61436778D01*
X93305506Y-61490537D01*
X93415820Y-61549502D01*
X93535518Y-61585812D01*
X93660000Y-61598072D01*
X95360000Y-61598072D01*
X95484482Y-61585812D01*
X95604180Y-61549502D01*
X95714494Y-61490537D01*
X95780000Y-61436778D01*
X95845506Y-61490537D01*
X95955820Y-61549502D01*
X96075518Y-61585812D01*
X96200000Y-61598072D01*
X96764250Y-61595000D01*
X96923000Y-61436250D01*
X96923000Y-56983750D01*
X97177000Y-56983750D01*
X97177000Y-61436250D01*
X97335750Y-61595000D01*
X97900000Y-61598072D01*
X98024482Y-61585812D01*
X98144180Y-61549502D01*
X98254494Y-61490537D01*
X98320000Y-61436778D01*
X98385506Y-61490537D01*
X98495820Y-61549502D01*
X98615518Y-61585812D01*
X98740000Y-61598072D01*
X100440000Y-61598072D01*
X100564482Y-61585812D01*
X100684180Y-61549502D01*
X100794494Y-61490537D01*
X100860000Y-61436778D01*
X100925506Y-61490537D01*
X101035820Y-61549502D01*
X101155518Y-61585812D01*
X101280000Y-61598072D01*
X102980000Y-61598072D01*
X103104482Y-61585812D01*
X103224180Y-61549502D01*
X103334494Y-61490537D01*
X103431185Y-61411185D01*
X103510537Y-61314494D01*
X103569502Y-61204180D01*
X103605812Y-61084482D01*
X103618072Y-60960000D01*
X103618072Y-57815000D01*
X104856928Y-57815000D01*
X104869188Y-57939482D01*
X104905498Y-58059180D01*
X104964463Y-58169494D01*
X105043815Y-58266185D01*
X105140506Y-58345537D01*
X105250820Y-58404502D01*
X105370518Y-58440812D01*
X105495000Y-58453072D01*
X105759250Y-58450000D01*
X105918000Y-58291250D01*
X105918000Y-57042000D01*
X106172000Y-57042000D01*
X106172000Y-58291250D01*
X106330750Y-58450000D01*
X106595000Y-58453072D01*
X106719482Y-58440812D01*
X106839180Y-58404502D01*
X106949494Y-58345537D01*
X107046185Y-58266185D01*
X107125537Y-58169494D01*
X107184502Y-58059180D01*
X107220812Y-57939482D01*
X107233072Y-57815000D01*
X107230000Y-57200750D01*
X107071250Y-57042000D01*
X106172000Y-57042000D01*
X105918000Y-57042000D01*
X105018750Y-57042000D01*
X104860000Y-57200750D01*
X104856928Y-57815000D01*
X103618072Y-57815000D01*
X103618072Y-57460000D01*
X103615000Y-57428808D01*
X103615000Y-57423740D01*
X103614011Y-57418769D01*
X103605812Y-57335518D01*
X103581527Y-57255461D01*
X103557932Y-57136842D01*
X103445990Y-56866589D01*
X103283475Y-56623368D01*
X103076632Y-56416525D01*
X102833411Y-56254010D01*
X102563158Y-56142068D01*
X102276260Y-56085000D01*
X101983740Y-56085000D01*
X101696842Y-56142068D01*
X101426589Y-56254010D01*
X101183368Y-56416525D01*
X100976525Y-56623368D01*
X100860000Y-56797760D01*
X100743475Y-56623368D01*
X100536632Y-56416525D01*
X100293411Y-56254010D01*
X100023158Y-56142068D01*
X99736260Y-56085000D01*
X99443740Y-56085000D01*
X99156842Y-56142068D01*
X98886589Y-56254010D01*
X98643368Y-56416525D01*
X98436525Y-56623368D01*
X98274010Y-56866589D01*
X98249150Y-56926607D01*
X98144180Y-56870498D01*
X98024482Y-56834188D01*
X97900000Y-56821928D01*
X97335750Y-56825000D01*
X97177000Y-56983750D01*
X96923000Y-56983750D01*
X96764250Y-56825000D01*
X96200000Y-56821928D01*
X96075518Y-56834188D01*
X95955820Y-56870498D01*
X95850850Y-56926607D01*
X95825990Y-56866589D01*
X95663475Y-56623368D01*
X95456632Y-56416525D01*
X95213411Y-56254010D01*
X94943158Y-56142068D01*
X94656260Y-56085000D01*
X94363740Y-56085000D01*
X94076842Y-56142068D01*
X93806589Y-56254010D01*
X93563368Y-56416525D01*
X93356525Y-56623368D01*
X93240000Y-56797760D01*
X93123475Y-56623368D01*
X92916632Y-56416525D01*
X92673411Y-56254010D01*
X92403158Y-56142068D01*
X92116260Y-56085000D01*
X91823740Y-56085000D01*
X91536842Y-56142068D01*
X91266589Y-56254010D01*
X91023368Y-56416525D01*
X90816525Y-56623368D01*
X90700000Y-56797760D01*
X90583475Y-56623368D01*
X90376632Y-56416525D01*
X90133411Y-56254010D01*
X89863158Y-56142068D01*
X89576260Y-56085000D01*
X89283740Y-56085000D01*
X88996842Y-56142068D01*
X88726589Y-56254010D01*
X88483368Y-56416525D01*
X88276525Y-56623368D01*
X88160000Y-56797760D01*
X88043475Y-56623368D01*
X87836632Y-56416525D01*
X87593411Y-56254010D01*
X87323158Y-56142068D01*
X87036260Y-56085000D01*
X86743740Y-56085000D01*
X86456842Y-56142068D01*
X86186589Y-56254010D01*
X85943368Y-56416525D01*
X85736525Y-56623368D01*
X85574010Y-56866589D01*
X85549150Y-56926607D01*
X85444180Y-56870498D01*
X85324482Y-56834188D01*
X85200000Y-56821928D01*
X84635750Y-56825000D01*
X84477000Y-56983750D01*
X84223000Y-56983750D01*
X84064250Y-56825000D01*
X83500000Y-56821928D01*
X83375518Y-56834188D01*
X83255820Y-56870498D01*
X83150850Y-56926607D01*
X83125990Y-56866589D01*
X82963475Y-56623368D01*
X82756632Y-56416525D01*
X82513411Y-56254010D01*
X82243158Y-56142068D01*
X81956260Y-56085000D01*
X81663740Y-56085000D01*
X81376842Y-56142068D01*
X81106589Y-56254010D01*
X80863368Y-56416525D01*
X80656525Y-56623368D01*
X80540000Y-56797760D01*
X80423475Y-56623368D01*
X80216632Y-56416525D01*
X79973411Y-56254010D01*
X79703158Y-56142068D01*
X79416260Y-56085000D01*
X79123740Y-56085000D01*
X78836842Y-56142068D01*
X78566589Y-56254010D01*
X78323368Y-56416525D01*
X78116525Y-56623368D01*
X77954010Y-56866589D01*
X77929150Y-56926607D01*
X77824180Y-56870498D01*
X77704482Y-56834188D01*
X77580000Y-56821928D01*
X75880000Y-56821928D01*
X75755518Y-56834188D01*
X75635820Y-56870498D01*
X75530850Y-56926607D01*
X75505990Y-56866589D01*
X75343475Y-56623368D01*
X75136632Y-56416525D01*
X74893411Y-56254010D01*
X74623158Y-56142068D01*
X74336260Y-56085000D01*
X74043740Y-56085000D01*
X73756842Y-56142068D01*
X73486589Y-56254010D01*
X73243368Y-56416525D01*
X73036525Y-56623368D01*
X72874010Y-56866589D01*
X72849150Y-56926607D01*
X72744180Y-56870498D01*
X72624482Y-56834188D01*
X72500000Y-56821928D01*
X71935750Y-56825000D01*
X71777000Y-56983750D01*
X71523000Y-56983750D01*
X71364250Y-56825000D01*
X70800000Y-56821928D01*
X70675518Y-56834188D01*
X70555820Y-56870498D01*
X70445506Y-56929463D01*
X70380000Y-56983222D01*
X70314494Y-56929463D01*
X70204180Y-56870498D01*
X70084482Y-56834188D01*
X69960000Y-56821928D01*
X68260000Y-56821928D01*
X68135518Y-56834188D01*
X68015820Y-56870498D01*
X67910850Y-56926607D01*
X67885990Y-56866589D01*
X67723475Y-56623368D01*
X67516632Y-56416525D01*
X67273411Y-56254010D01*
X67003158Y-56142068D01*
X66716260Y-56085000D01*
X66423740Y-56085000D01*
X66136842Y-56142068D01*
X65866589Y-56254010D01*
X65623368Y-56416525D01*
X65416525Y-56623368D01*
X65300000Y-56797760D01*
X65183475Y-56623368D01*
X64976632Y-56416525D01*
X64733411Y-56254010D01*
X64463158Y-56142068D01*
X64176260Y-56085000D01*
X63883740Y-56085000D01*
X63596842Y-56142068D01*
X63326589Y-56254010D01*
X63083368Y-56416525D01*
X62876525Y-56623368D01*
X62714010Y-56866589D01*
X62689150Y-56926607D01*
X62584180Y-56870498D01*
X62464482Y-56834188D01*
X62340000Y-56821928D01*
X60640000Y-56821928D01*
X60515518Y-56834188D01*
X60395820Y-56870498D01*
X60285506Y-56929463D01*
X60220000Y-56983222D01*
X60154494Y-56929463D01*
X60044180Y-56870498D01*
X59924482Y-56834188D01*
X59800000Y-56821928D01*
X59235750Y-56825000D01*
X59077000Y-56983750D01*
X58823000Y-56983750D01*
X58664250Y-56825000D01*
X58100000Y-56821928D01*
X57975518Y-56834188D01*
X57855820Y-56870498D01*
X57750850Y-56926607D01*
X57725990Y-56866589D01*
X57563475Y-56623368D01*
X57356632Y-56416525D01*
X57113411Y-56254010D01*
X56843158Y-56142068D01*
X56556260Y-56085000D01*
X56263740Y-56085000D01*
X55976842Y-56142068D01*
X55706589Y-56254010D01*
X55463368Y-56416525D01*
X55256525Y-56623368D01*
X55140000Y-56797760D01*
X55023475Y-56623368D01*
X54816632Y-56416525D01*
X54573411Y-56254010D01*
X54427792Y-56193693D01*
X54651925Y-56149110D01*
X54975694Y-56015000D01*
X104856928Y-56015000D01*
X104860000Y-56629250D01*
X105018750Y-56788000D01*
X105918000Y-56788000D01*
X105918000Y-55538750D01*
X105759250Y-55380000D01*
X105495000Y-55376928D01*
X105370518Y-55389188D01*
X105250820Y-55425498D01*
X105140506Y-55484463D01*
X105043815Y-55563815D01*
X104964463Y-55660506D01*
X104905498Y-55770820D01*
X104869188Y-55890518D01*
X104856928Y-56015000D01*
X54975694Y-56015000D01*
X55058669Y-55980631D01*
X55424729Y-55736038D01*
X55736038Y-55424729D01*
X55980631Y-55058669D01*
X56149110Y-54651925D01*
X56235000Y-54220128D01*
X56235000Y-53779872D01*
X56149110Y-53348075D01*
X55980631Y-52941331D01*
X55736038Y-52575271D01*
X55729281Y-52568514D01*
X64705000Y-52568514D01*
X64705000Y-52831486D01*
X64756304Y-53089405D01*
X64856939Y-53332359D01*
X65003038Y-53551013D01*
X65188987Y-53736962D01*
X65407641Y-53883061D01*
X65650595Y-53983696D01*
X65908514Y-54035000D01*
X66171486Y-54035000D01*
X66429405Y-53983696D01*
X66672359Y-53883061D01*
X66891013Y-53736962D01*
X67076962Y-53551013D01*
X67223061Y-53332359D01*
X67310000Y-53122470D01*
X67396939Y-53332359D01*
X67543038Y-53551013D01*
X67728987Y-53736962D01*
X67947641Y-53883061D01*
X68190595Y-53983696D01*
X68448514Y-54035000D01*
X68711486Y-54035000D01*
X68969405Y-53983696D01*
X69212359Y-53883061D01*
X69431013Y-53736962D01*
X69616962Y-53551013D01*
X69763061Y-53332359D01*
X69795880Y-53253126D01*
X69848320Y-53379727D01*
X70005363Y-53614759D01*
X70205241Y-53814637D01*
X70440273Y-53971680D01*
X70701426Y-54079853D01*
X70978665Y-54135000D01*
X71261335Y-54135000D01*
X71538574Y-54079853D01*
X71799727Y-53971680D01*
X72034759Y-53814637D01*
X72156694Y-53692702D01*
X75306903Y-53692702D01*
X75378486Y-53936671D01*
X75633996Y-54057571D01*
X75908184Y-54126300D01*
X76190512Y-54140217D01*
X76470130Y-54098787D01*
X76736292Y-54003603D01*
X76861514Y-53936671D01*
X76933097Y-53692702D01*
X76120000Y-52879605D01*
X75306903Y-53692702D01*
X72156694Y-53692702D01*
X72234637Y-53614759D01*
X72391680Y-53379727D01*
X72499853Y-53118574D01*
X72555000Y-52841335D01*
X72555000Y-52770512D01*
X74679783Y-52770512D01*
X74721213Y-53050130D01*
X74816397Y-53316292D01*
X74883329Y-53441514D01*
X75127298Y-53513097D01*
X75940395Y-52700000D01*
X76299605Y-52700000D01*
X77112702Y-53513097D01*
X77298217Y-53458665D01*
X98065000Y-53458665D01*
X98065000Y-53741335D01*
X98120147Y-54018574D01*
X98228320Y-54279727D01*
X98385363Y-54514759D01*
X98585241Y-54714637D01*
X98820273Y-54871680D01*
X99081426Y-54979853D01*
X99358665Y-55035000D01*
X99641335Y-55035000D01*
X99918574Y-54979853D01*
X100179727Y-54871680D01*
X100414759Y-54714637D01*
X100581339Y-54548057D01*
X100610498Y-54644180D01*
X100669463Y-54754494D01*
X100748815Y-54851185D01*
X100845506Y-54930537D01*
X100955820Y-54989502D01*
X101075518Y-55025812D01*
X101200000Y-55038072D01*
X102800000Y-55038072D01*
X102924482Y-55025812D01*
X103044180Y-54989502D01*
X103154494Y-54930537D01*
X103251185Y-54851185D01*
X103330537Y-54754494D01*
X103389502Y-54644180D01*
X103425812Y-54524482D01*
X103438072Y-54400000D01*
X103438072Y-52800000D01*
X103425812Y-52675518D01*
X103389502Y-52555820D01*
X103330537Y-52445506D01*
X103251185Y-52348815D01*
X103154494Y-52269463D01*
X103152719Y-52268514D01*
X104625000Y-52268514D01*
X104625000Y-52531486D01*
X104676304Y-52789405D01*
X104776939Y-53032359D01*
X104923038Y-53251013D01*
X105108987Y-53436962D01*
X105327641Y-53583061D01*
X105570595Y-53683696D01*
X105828514Y-53735000D01*
X106091486Y-53735000D01*
X106295896Y-53694340D01*
X106280808Y-53712724D01*
X106196431Y-53870582D01*
X106144472Y-54041868D01*
X106126928Y-54220000D01*
X106126928Y-55470000D01*
X106144472Y-55648132D01*
X106172000Y-55738880D01*
X106172000Y-56788000D01*
X107071250Y-56788000D01*
X107230000Y-56629250D01*
X107231231Y-56383072D01*
X107396928Y-56383072D01*
X107396928Y-57540000D01*
X107414472Y-57718132D01*
X107466431Y-57889418D01*
X107550808Y-58047276D01*
X107664361Y-58185639D01*
X107802724Y-58299192D01*
X107960582Y-58383569D01*
X108131868Y-58435528D01*
X108310000Y-58453072D01*
X108860000Y-58453072D01*
X109038132Y-58435528D01*
X109209418Y-58383569D01*
X109367276Y-58299192D01*
X109505639Y-58185639D01*
X109619192Y-58047276D01*
X109703569Y-57889418D01*
X109755528Y-57718132D01*
X109773072Y-57540000D01*
X109773072Y-56290000D01*
X109755528Y-56111868D01*
X109703569Y-55940582D01*
X109619192Y-55782724D01*
X109505639Y-55644361D01*
X109367276Y-55530808D01*
X109209418Y-55446431D01*
X109038132Y-55394472D01*
X108860000Y-55376928D01*
X108503072Y-55376928D01*
X108503072Y-54220000D01*
X108485528Y-54041868D01*
X108433569Y-53870582D01*
X108360217Y-53733350D01*
X108368514Y-53735000D01*
X108631486Y-53735000D01*
X108889405Y-53683696D01*
X109132359Y-53583061D01*
X109351013Y-53436962D01*
X109536962Y-53251013D01*
X109683061Y-53032359D01*
X109783696Y-52789405D01*
X109829578Y-52558740D01*
X109975000Y-52558740D01*
X109975000Y-52851260D01*
X110032068Y-53138158D01*
X110144010Y-53408411D01*
X110306525Y-53651632D01*
X110513368Y-53858475D01*
X110756589Y-54020990D01*
X111026842Y-54132932D01*
X111313740Y-54190000D01*
X111606260Y-54190000D01*
X111893158Y-54132932D01*
X112163411Y-54020990D01*
X112406632Y-53858475D01*
X112538487Y-53726620D01*
X112560498Y-53799180D01*
X112619463Y-53909494D01*
X112698815Y-54006185D01*
X112795506Y-54085537D01*
X112905820Y-54144502D01*
X113025518Y-54180812D01*
X113150000Y-54193072D01*
X114850000Y-54193072D01*
X114974482Y-54180812D01*
X115094180Y-54144502D01*
X115204494Y-54085537D01*
X115301185Y-54006185D01*
X115380537Y-53909494D01*
X115439502Y-53799180D01*
X115445359Y-53779872D01*
X133765000Y-53779872D01*
X133765000Y-54220128D01*
X133850890Y-54651925D01*
X134019369Y-55058669D01*
X134263962Y-55424729D01*
X134575271Y-55736038D01*
X134941331Y-55980631D01*
X135348075Y-56149110D01*
X135779872Y-56235000D01*
X136220128Y-56235000D01*
X136651925Y-56149110D01*
X137058669Y-55980631D01*
X137424729Y-55736038D01*
X137736038Y-55424729D01*
X137980631Y-55058669D01*
X138149110Y-54651925D01*
X138235000Y-54220128D01*
X138235000Y-53779872D01*
X138149110Y-53348075D01*
X137980631Y-52941331D01*
X137736038Y-52575271D01*
X137424729Y-52263962D01*
X137058669Y-52019369D01*
X136651925Y-51850890D01*
X136220128Y-51765000D01*
X135779872Y-51765000D01*
X135348075Y-51850890D01*
X134941331Y-52019369D01*
X134575271Y-52263962D01*
X134263962Y-52575271D01*
X134019369Y-52941331D01*
X133850890Y-53348075D01*
X133765000Y-53779872D01*
X115445359Y-53779872D01*
X115475812Y-53679482D01*
X115488072Y-53555000D01*
X115488072Y-51855000D01*
X115475812Y-51730518D01*
X115439502Y-51610820D01*
X115380537Y-51500506D01*
X115301185Y-51403815D01*
X115204494Y-51324463D01*
X115094180Y-51265498D01*
X114974482Y-51229188D01*
X114850000Y-51216928D01*
X113150000Y-51216928D01*
X113025518Y-51229188D01*
X112905820Y-51265498D01*
X112795506Y-51324463D01*
X112698815Y-51403815D01*
X112619463Y-51500506D01*
X112560498Y-51610820D01*
X112538487Y-51683380D01*
X112406632Y-51551525D01*
X112163411Y-51389010D01*
X111893158Y-51277068D01*
X111606260Y-51220000D01*
X111313740Y-51220000D01*
X111026842Y-51277068D01*
X110756589Y-51389010D01*
X110513368Y-51551525D01*
X110306525Y-51758368D01*
X110144010Y-52001589D01*
X110032068Y-52271842D01*
X109975000Y-52558740D01*
X109829578Y-52558740D01*
X109835000Y-52531486D01*
X109835000Y-52268514D01*
X109783696Y-52010595D01*
X109683061Y-51767641D01*
X109536962Y-51548987D01*
X109351013Y-51363038D01*
X109132359Y-51216939D01*
X108889405Y-51116304D01*
X108631486Y-51065000D01*
X108368514Y-51065000D01*
X108110595Y-51116304D01*
X107867641Y-51216939D01*
X107648987Y-51363038D01*
X107463038Y-51548987D01*
X107316939Y-51767641D01*
X107230000Y-51977530D01*
X107143061Y-51767641D01*
X106996962Y-51548987D01*
X106811013Y-51363038D01*
X106592359Y-51216939D01*
X106349405Y-51116304D01*
X106091486Y-51065000D01*
X105828514Y-51065000D01*
X105570595Y-51116304D01*
X105327641Y-51216939D01*
X105108987Y-51363038D01*
X104923038Y-51548987D01*
X104776939Y-51767641D01*
X104676304Y-52010595D01*
X104625000Y-52268514D01*
X103152719Y-52268514D01*
X103044180Y-52210498D01*
X102924482Y-52174188D01*
X102800000Y-52161928D01*
X101200000Y-52161928D01*
X101075518Y-52174188D01*
X100955820Y-52210498D01*
X100845506Y-52269463D01*
X100748815Y-52348815D01*
X100669463Y-52445506D01*
X100610498Y-52555820D01*
X100581339Y-52651943D01*
X100414759Y-52485363D01*
X100179727Y-52328320D01*
X99918574Y-52220147D01*
X99641335Y-52165000D01*
X99358665Y-52165000D01*
X99081426Y-52220147D01*
X98820273Y-52328320D01*
X98585241Y-52485363D01*
X98385363Y-52685241D01*
X98228320Y-52920273D01*
X98120147Y-53181426D01*
X98065000Y-53458665D01*
X77298217Y-53458665D01*
X77356671Y-53441514D01*
X77477571Y-53186004D01*
X77546300Y-52911816D01*
X77560217Y-52629488D01*
X77518787Y-52349870D01*
X77423603Y-52083708D01*
X77356671Y-51958486D01*
X77112702Y-51886903D01*
X76299605Y-52700000D01*
X75940395Y-52700000D01*
X75127298Y-51886903D01*
X74883329Y-51958486D01*
X74762429Y-52213996D01*
X74693700Y-52488184D01*
X74679783Y-52770512D01*
X72555000Y-52770512D01*
X72555000Y-52558665D01*
X72499853Y-52281426D01*
X72391680Y-52020273D01*
X72234637Y-51785241D01*
X72156694Y-51707298D01*
X75306903Y-51707298D01*
X76120000Y-52520395D01*
X76933097Y-51707298D01*
X76861514Y-51463329D01*
X76606004Y-51342429D01*
X76331816Y-51273700D01*
X76049488Y-51259783D01*
X75769870Y-51301213D01*
X75503708Y-51396397D01*
X75378486Y-51463329D01*
X75306903Y-51707298D01*
X72156694Y-51707298D01*
X72034759Y-51585363D01*
X71799727Y-51428320D01*
X71538574Y-51320147D01*
X71261335Y-51265000D01*
X70978665Y-51265000D01*
X70701426Y-51320147D01*
X70440273Y-51428320D01*
X70205241Y-51585363D01*
X70005363Y-51785241D01*
X69848320Y-52020273D01*
X69795880Y-52146874D01*
X69763061Y-52067641D01*
X69616962Y-51848987D01*
X69431013Y-51663038D01*
X69212359Y-51516939D01*
X68969405Y-51416304D01*
X68711486Y-51365000D01*
X68448514Y-51365000D01*
X68190595Y-51416304D01*
X67947641Y-51516939D01*
X67728987Y-51663038D01*
X67543038Y-51848987D01*
X67396939Y-52067641D01*
X67310000Y-52277530D01*
X67223061Y-52067641D01*
X67076962Y-51848987D01*
X66891013Y-51663038D01*
X66672359Y-51516939D01*
X66429405Y-51416304D01*
X66171486Y-51365000D01*
X65908514Y-51365000D01*
X65650595Y-51416304D01*
X65407641Y-51516939D01*
X65188987Y-51663038D01*
X65003038Y-51848987D01*
X64856939Y-52067641D01*
X64756304Y-52310595D01*
X64705000Y-52568514D01*
X55729281Y-52568514D01*
X55424729Y-52263962D01*
X55058669Y-52019369D01*
X54651925Y-51850890D01*
X54220128Y-51765000D01*
X53779872Y-51765000D01*
X53348075Y-51850890D01*
X52941331Y-52019369D01*
X52575271Y-52263962D01*
X52263962Y-52575271D01*
X52019369Y-52941331D01*
X51850890Y-53348075D01*
X51765000Y-53779872D01*
X50660000Y-53779872D01*
X50660000Y-50660000D01*
X139340000Y-50660000D01*
X139340001Y-119340000D01*
M02*
