G04 #@! TF.GenerationSoftware,KiCad,Pcbnew,5.1.5+dfsg1-2build2*
G04 #@! TF.CreationDate,2021-04-21T21:13:21-05:00*
G04 #@! TF.ProjectId,SINSONTE,53494e53-4f4e-4544-952e-6b696361645f,rev?*
G04 #@! TF.SameCoordinates,Original*
G04 #@! TF.FileFunction,Copper,L1,Top*
G04 #@! TF.FilePolarity,Positive*
%FSLAX46Y46*%
G04 Gerber Fmt 4.6, Leading zero omitted, Abs format (unit mm)*
G04 Created by KiCad (PCBNEW 5.1.5+dfsg1-2build2) date 2021-04-21 21:13:21*
%MOMM*%
%LPD*%
G04 APERTURE LIST*
%ADD10R,1.100000X1.800000*%
%ADD11C,0.100000*%
%ADD12R,1.800000X1.100000*%
%ADD13O,1.700000X1.700000*%
%ADD14C,1.700000*%
%ADD15R,1.700000X1.700000*%
%ADD16O,1.400000X1.400000*%
%ADD17C,1.400000*%
%ADD18C,1.600000*%
%ADD19R,1.600000X1.600000*%
%ADD20C,2.000000*%
%ADD21R,2.000000X2.000000*%
%ADD22R,3.500000X1.700000*%
%ADD23R,1.700000X3.500000*%
G04 APERTURE END LIST*
D10*
X106045000Y-56915000D03*
G04 #@! TA.AperFunction,ComponentPad*
D11*
G36*
X108886955Y-56016324D02*
G01*
X108913650Y-56020284D01*
X108939828Y-56026841D01*
X108965238Y-56035933D01*
X108989634Y-56047472D01*
X109012782Y-56061346D01*
X109034458Y-56077422D01*
X109054454Y-56095546D01*
X109072578Y-56115542D01*
X109088654Y-56137218D01*
X109102528Y-56160366D01*
X109114067Y-56184762D01*
X109123159Y-56210172D01*
X109129716Y-56236350D01*
X109133676Y-56263045D01*
X109135000Y-56290000D01*
X109135000Y-57540000D01*
X109133676Y-57566955D01*
X109129716Y-57593650D01*
X109123159Y-57619828D01*
X109114067Y-57645238D01*
X109102528Y-57669634D01*
X109088654Y-57692782D01*
X109072578Y-57714458D01*
X109054454Y-57734454D01*
X109034458Y-57752578D01*
X109012782Y-57768654D01*
X108989634Y-57782528D01*
X108965238Y-57794067D01*
X108939828Y-57803159D01*
X108913650Y-57809716D01*
X108886955Y-57813676D01*
X108860000Y-57815000D01*
X108310000Y-57815000D01*
X108283045Y-57813676D01*
X108256350Y-57809716D01*
X108230172Y-57803159D01*
X108204762Y-57794067D01*
X108180366Y-57782528D01*
X108157218Y-57768654D01*
X108135542Y-57752578D01*
X108115546Y-57734454D01*
X108097422Y-57714458D01*
X108081346Y-57692782D01*
X108067472Y-57669634D01*
X108055933Y-57645238D01*
X108046841Y-57619828D01*
X108040284Y-57593650D01*
X108036324Y-57566955D01*
X108035000Y-57540000D01*
X108035000Y-56290000D01*
X108036324Y-56263045D01*
X108040284Y-56236350D01*
X108046841Y-56210172D01*
X108055933Y-56184762D01*
X108067472Y-56160366D01*
X108081346Y-56137218D01*
X108097422Y-56115542D01*
X108115546Y-56095546D01*
X108135542Y-56077422D01*
X108157218Y-56061346D01*
X108180366Y-56047472D01*
X108204762Y-56035933D01*
X108230172Y-56026841D01*
X108256350Y-56020284D01*
X108283045Y-56016324D01*
X108310000Y-56015000D01*
X108860000Y-56015000D01*
X108886955Y-56016324D01*
G37*
G04 #@! TD.AperFunction*
G04 #@! TA.AperFunction,ComponentPad*
G36*
X107616955Y-53946324D02*
G01*
X107643650Y-53950284D01*
X107669828Y-53956841D01*
X107695238Y-53965933D01*
X107719634Y-53977472D01*
X107742782Y-53991346D01*
X107764458Y-54007422D01*
X107784454Y-54025546D01*
X107802578Y-54045542D01*
X107818654Y-54067218D01*
X107832528Y-54090366D01*
X107844067Y-54114762D01*
X107853159Y-54140172D01*
X107859716Y-54166350D01*
X107863676Y-54193045D01*
X107865000Y-54220000D01*
X107865000Y-55470000D01*
X107863676Y-55496955D01*
X107859716Y-55523650D01*
X107853159Y-55549828D01*
X107844067Y-55575238D01*
X107832528Y-55599634D01*
X107818654Y-55622782D01*
X107802578Y-55644458D01*
X107784454Y-55664454D01*
X107764458Y-55682578D01*
X107742782Y-55698654D01*
X107719634Y-55712528D01*
X107695238Y-55724067D01*
X107669828Y-55733159D01*
X107643650Y-55739716D01*
X107616955Y-55743676D01*
X107590000Y-55745000D01*
X107040000Y-55745000D01*
X107013045Y-55743676D01*
X106986350Y-55739716D01*
X106960172Y-55733159D01*
X106934762Y-55724067D01*
X106910366Y-55712528D01*
X106887218Y-55698654D01*
X106865542Y-55682578D01*
X106845546Y-55664454D01*
X106827422Y-55644458D01*
X106811346Y-55622782D01*
X106797472Y-55599634D01*
X106785933Y-55575238D01*
X106776841Y-55549828D01*
X106770284Y-55523650D01*
X106766324Y-55496955D01*
X106765000Y-55470000D01*
X106765000Y-54220000D01*
X106766324Y-54193045D01*
X106770284Y-54166350D01*
X106776841Y-54140172D01*
X106785933Y-54114762D01*
X106797472Y-54090366D01*
X106811346Y-54067218D01*
X106827422Y-54045542D01*
X106845546Y-54025546D01*
X106865542Y-54007422D01*
X106887218Y-53991346D01*
X106910366Y-53977472D01*
X106934762Y-53965933D01*
X106960172Y-53956841D01*
X106986350Y-53950284D01*
X107013045Y-53946324D01*
X107040000Y-53945000D01*
X107590000Y-53945000D01*
X107616955Y-53946324D01*
G37*
G04 #@! TD.AperFunction*
D12*
X123425000Y-103505000D03*
G04 #@! TA.AperFunction,ComponentPad*
D11*
G36*
X124076955Y-105496324D02*
G01*
X124103650Y-105500284D01*
X124129828Y-105506841D01*
X124155238Y-105515933D01*
X124179634Y-105527472D01*
X124202782Y-105541346D01*
X124224458Y-105557422D01*
X124244454Y-105575546D01*
X124262578Y-105595542D01*
X124278654Y-105617218D01*
X124292528Y-105640366D01*
X124304067Y-105664762D01*
X124313159Y-105690172D01*
X124319716Y-105716350D01*
X124323676Y-105743045D01*
X124325000Y-105770000D01*
X124325000Y-106320000D01*
X124323676Y-106346955D01*
X124319716Y-106373650D01*
X124313159Y-106399828D01*
X124304067Y-106425238D01*
X124292528Y-106449634D01*
X124278654Y-106472782D01*
X124262578Y-106494458D01*
X124244454Y-106514454D01*
X124224458Y-106532578D01*
X124202782Y-106548654D01*
X124179634Y-106562528D01*
X124155238Y-106574067D01*
X124129828Y-106583159D01*
X124103650Y-106589716D01*
X124076955Y-106593676D01*
X124050000Y-106595000D01*
X122800000Y-106595000D01*
X122773045Y-106593676D01*
X122746350Y-106589716D01*
X122720172Y-106583159D01*
X122694762Y-106574067D01*
X122670366Y-106562528D01*
X122647218Y-106548654D01*
X122625542Y-106532578D01*
X122605546Y-106514454D01*
X122587422Y-106494458D01*
X122571346Y-106472782D01*
X122557472Y-106449634D01*
X122545933Y-106425238D01*
X122536841Y-106399828D01*
X122530284Y-106373650D01*
X122526324Y-106346955D01*
X122525000Y-106320000D01*
X122525000Y-105770000D01*
X122526324Y-105743045D01*
X122530284Y-105716350D01*
X122536841Y-105690172D01*
X122545933Y-105664762D01*
X122557472Y-105640366D01*
X122571346Y-105617218D01*
X122587422Y-105595542D01*
X122605546Y-105575546D01*
X122625542Y-105557422D01*
X122647218Y-105541346D01*
X122670366Y-105527472D01*
X122694762Y-105515933D01*
X122720172Y-105506841D01*
X122746350Y-105500284D01*
X122773045Y-105496324D01*
X122800000Y-105495000D01*
X124050000Y-105495000D01*
X124076955Y-105496324D01*
G37*
G04 #@! TD.AperFunction*
G04 #@! TA.AperFunction,ComponentPad*
G36*
X126146955Y-104226324D02*
G01*
X126173650Y-104230284D01*
X126199828Y-104236841D01*
X126225238Y-104245933D01*
X126249634Y-104257472D01*
X126272782Y-104271346D01*
X126294458Y-104287422D01*
X126314454Y-104305546D01*
X126332578Y-104325542D01*
X126348654Y-104347218D01*
X126362528Y-104370366D01*
X126374067Y-104394762D01*
X126383159Y-104420172D01*
X126389716Y-104446350D01*
X126393676Y-104473045D01*
X126395000Y-104500000D01*
X126395000Y-105050000D01*
X126393676Y-105076955D01*
X126389716Y-105103650D01*
X126383159Y-105129828D01*
X126374067Y-105155238D01*
X126362528Y-105179634D01*
X126348654Y-105202782D01*
X126332578Y-105224458D01*
X126314454Y-105244454D01*
X126294458Y-105262578D01*
X126272782Y-105278654D01*
X126249634Y-105292528D01*
X126225238Y-105304067D01*
X126199828Y-105313159D01*
X126173650Y-105319716D01*
X126146955Y-105323676D01*
X126120000Y-105325000D01*
X124870000Y-105325000D01*
X124843045Y-105323676D01*
X124816350Y-105319716D01*
X124790172Y-105313159D01*
X124764762Y-105304067D01*
X124740366Y-105292528D01*
X124717218Y-105278654D01*
X124695542Y-105262578D01*
X124675546Y-105244454D01*
X124657422Y-105224458D01*
X124641346Y-105202782D01*
X124627472Y-105179634D01*
X124615933Y-105155238D01*
X124606841Y-105129828D01*
X124600284Y-105103650D01*
X124596324Y-105076955D01*
X124595000Y-105050000D01*
X124595000Y-104500000D01*
X124596324Y-104473045D01*
X124600284Y-104446350D01*
X124606841Y-104420172D01*
X124615933Y-104394762D01*
X124627472Y-104370366D01*
X124641346Y-104347218D01*
X124657422Y-104325542D01*
X124675546Y-104305546D01*
X124695542Y-104287422D01*
X124717218Y-104271346D01*
X124740366Y-104257472D01*
X124764762Y-104245933D01*
X124790172Y-104236841D01*
X124816350Y-104230284D01*
X124843045Y-104226324D01*
X124870000Y-104225000D01*
X126120000Y-104225000D01*
X126146955Y-104226324D01*
G37*
G04 #@! TD.AperFunction*
D13*
X102130000Y-57570000D03*
D14*
X99590000Y-57570000D03*
D13*
X134080000Y-100330000D03*
X131540000Y-100330000D03*
D15*
X129000000Y-100330000D03*
D14*
X53870000Y-57570000D03*
D13*
X94510000Y-57570000D03*
X91970000Y-57570000D03*
X89430000Y-57570000D03*
D14*
X86890000Y-57570000D03*
X81810000Y-57570000D03*
X66570000Y-57570000D03*
D16*
X132000000Y-108585000D03*
D17*
X132000000Y-106045000D03*
D14*
X79270000Y-57570000D03*
X74190000Y-57570000D03*
X64030000Y-57570000D03*
X56410000Y-57570000D03*
D13*
X94510000Y-80430000D03*
X91970000Y-80430000D03*
X89430000Y-80430000D03*
X86890000Y-80430000D03*
X84350000Y-80430000D03*
X81810000Y-80430000D03*
X79270000Y-80430000D03*
X76730000Y-80430000D03*
X74190000Y-80430000D03*
X71650000Y-80430000D03*
X69110000Y-80430000D03*
X66570000Y-80430000D03*
X64030000Y-80430000D03*
X61490000Y-80430000D03*
X58950000Y-80430000D03*
X56410000Y-80430000D03*
D15*
X53870000Y-80430000D03*
D16*
X68580000Y-52700000D03*
D17*
X66040000Y-52700000D03*
D18*
X76120000Y-52700000D03*
X71120000Y-52700000D03*
D16*
X109220000Y-78105000D03*
D17*
X106680000Y-78105000D03*
D16*
X109220000Y-72390000D03*
D17*
X106680000Y-72390000D03*
D13*
X107950000Y-64770000D03*
D15*
X107950000Y-67310000D03*
D16*
X105960000Y-52400000D03*
D17*
X108500000Y-52400000D03*
D13*
X111460000Y-52705000D03*
D15*
X114000000Y-52705000D03*
D18*
X99500000Y-53600000D03*
D19*
X102000000Y-53600000D03*
D20*
X128000000Y-83035000D03*
X132500000Y-83035000D03*
X128000000Y-89535000D03*
X132500000Y-89535000D03*
D13*
X131540000Y-94615000D03*
D15*
X129000000Y-94615000D03*
D16*
X123000000Y-99060000D03*
D17*
X123000000Y-96520000D03*
D16*
X124000000Y-109460000D03*
D17*
X124000000Y-112000000D03*
D18*
X130135000Y-114300000D03*
D19*
X127635000Y-114300000D03*
D13*
X53975000Y-101600000D03*
D15*
X53975000Y-99060000D03*
D20*
X60000000Y-107700000D03*
D21*
X60000000Y-92710000D03*
D13*
X101900000Y-66460000D03*
D22*
X102800000Y-66460000D03*
D15*
X101900000Y-69000000D03*
D22*
X102800000Y-69000000D03*
D13*
X101900000Y-71540000D03*
D22*
X102800000Y-71540000D03*
D23*
X102130000Y-59210000D03*
X99590000Y-59210000D03*
X97050000Y-59210000D03*
X94510000Y-59210000D03*
X91970000Y-59210000D03*
X89430000Y-59210000D03*
X86890000Y-59210000D03*
X84350000Y-59210000D03*
X81810000Y-59210000D03*
X79270000Y-59210000D03*
X76730000Y-59210000D03*
X74190000Y-59210000D03*
X71650000Y-59210000D03*
X69110000Y-59210000D03*
X66570000Y-59210000D03*
X64030000Y-59210000D03*
X61490000Y-59210000D03*
X58950000Y-59210000D03*
X56410000Y-59210000D03*
X53870000Y-59210000D03*
X102130000Y-78790000D03*
X99590000Y-78790000D03*
X97050000Y-78790000D03*
X94510000Y-78790000D03*
X91970000Y-78790000D03*
X89430000Y-78790000D03*
X86890000Y-78790000D03*
X84350000Y-78790000D03*
X81810000Y-78790000D03*
X79270000Y-78790000D03*
X76730000Y-78790000D03*
X74190000Y-78790000D03*
X71650000Y-78790000D03*
X69110000Y-78790000D03*
X66570000Y-78790000D03*
X64030000Y-78790000D03*
X61490000Y-78790000D03*
X58950000Y-78790000D03*
X56410000Y-78790000D03*
X53870000Y-78790000D03*
D13*
X53870000Y-60110000D03*
X56410000Y-60110000D03*
D15*
X58950000Y-60110000D03*
D13*
X61490000Y-60110000D03*
X64030000Y-60110000D03*
X66570000Y-60110000D03*
X69110000Y-60110000D03*
D15*
X71650000Y-60110000D03*
D13*
X74190000Y-60110000D03*
X76730000Y-60110000D03*
X79270000Y-60110000D03*
X81810000Y-60110000D03*
D15*
X84350000Y-60110000D03*
D13*
X86890000Y-60110000D03*
X89430000Y-60110000D03*
X91970000Y-60110000D03*
X94510000Y-60110000D03*
D15*
X97050000Y-60110000D03*
D13*
X99590000Y-60110000D03*
X102130000Y-60110000D03*
X102130000Y-77890000D03*
X99590000Y-77890000D03*
D15*
X97050000Y-77890000D03*
D13*
X94510000Y-77890000D03*
X91970000Y-77890000D03*
X89430000Y-77890000D03*
X86890000Y-77890000D03*
D15*
X84350000Y-77890000D03*
D13*
X81810000Y-77890000D03*
X79270000Y-77890000D03*
X76730000Y-77890000D03*
X74190000Y-77890000D03*
D15*
X71650000Y-77890000D03*
D13*
X69110000Y-77890000D03*
X66570000Y-77890000D03*
X64030000Y-77890000D03*
X61490000Y-77890000D03*
D15*
X58950000Y-77890000D03*
D13*
X56410000Y-77890000D03*
X53870000Y-77890000D03*
M02*
