G04 #@! TF.GenerationSoftware,KiCad,Pcbnew,5.1.5+dfsg1-2build2*
G04 #@! TF.CreationDate,2021-03-15T21:11:55-05:00*
G04 #@! TF.ProjectId,SINSONTE,53494e53-4f4e-4544-952e-6b696361645f,rev?*
G04 #@! TF.SameCoordinates,Original*
G04 #@! TF.FileFunction,Copper,L2,Bot*
G04 #@! TF.FilePolarity,Positive*
%FSLAX46Y46*%
G04 Gerber Fmt 4.6, Leading zero omitted, Abs format (unit mm)*
G04 Created by KiCad (PCBNEW 5.1.5+dfsg1-2build2) date 2021-03-15 21:11:55*
%MOMM*%
%LPD*%
G04 APERTURE LIST*
%ADD10R,1.100000X1.800000*%
%ADD11C,0.100000*%
%ADD12R,1.800000X1.100000*%
%ADD13O,1.700000X1.700000*%
%ADD14C,1.700000*%
%ADD15R,1.700000X1.700000*%
%ADD16O,1.400000X1.400000*%
%ADD17C,1.400000*%
%ADD18C,1.600000*%
%ADD19R,1.500000X1.000000*%
%ADD20R,1.600000X1.600000*%
%ADD21C,2.000000*%
%ADD22R,2.000000X2.000000*%
%ADD23C,0.750000*%
%ADD24C,0.250000*%
%ADD25C,0.254000*%
G04 APERTURE END LIST*
D10*
X106045000Y-56915000D03*
G04 #@! TA.AperFunction,ComponentPad*
D11*
G36*
X108886955Y-56016324D02*
G01*
X108913650Y-56020284D01*
X108939828Y-56026841D01*
X108965238Y-56035933D01*
X108989634Y-56047472D01*
X109012782Y-56061346D01*
X109034458Y-56077422D01*
X109054454Y-56095546D01*
X109072578Y-56115542D01*
X109088654Y-56137218D01*
X109102528Y-56160366D01*
X109114067Y-56184762D01*
X109123159Y-56210172D01*
X109129716Y-56236350D01*
X109133676Y-56263045D01*
X109135000Y-56290000D01*
X109135000Y-57540000D01*
X109133676Y-57566955D01*
X109129716Y-57593650D01*
X109123159Y-57619828D01*
X109114067Y-57645238D01*
X109102528Y-57669634D01*
X109088654Y-57692782D01*
X109072578Y-57714458D01*
X109054454Y-57734454D01*
X109034458Y-57752578D01*
X109012782Y-57768654D01*
X108989634Y-57782528D01*
X108965238Y-57794067D01*
X108939828Y-57803159D01*
X108913650Y-57809716D01*
X108886955Y-57813676D01*
X108860000Y-57815000D01*
X108310000Y-57815000D01*
X108283045Y-57813676D01*
X108256350Y-57809716D01*
X108230172Y-57803159D01*
X108204762Y-57794067D01*
X108180366Y-57782528D01*
X108157218Y-57768654D01*
X108135542Y-57752578D01*
X108115546Y-57734454D01*
X108097422Y-57714458D01*
X108081346Y-57692782D01*
X108067472Y-57669634D01*
X108055933Y-57645238D01*
X108046841Y-57619828D01*
X108040284Y-57593650D01*
X108036324Y-57566955D01*
X108035000Y-57540000D01*
X108035000Y-56290000D01*
X108036324Y-56263045D01*
X108040284Y-56236350D01*
X108046841Y-56210172D01*
X108055933Y-56184762D01*
X108067472Y-56160366D01*
X108081346Y-56137218D01*
X108097422Y-56115542D01*
X108115546Y-56095546D01*
X108135542Y-56077422D01*
X108157218Y-56061346D01*
X108180366Y-56047472D01*
X108204762Y-56035933D01*
X108230172Y-56026841D01*
X108256350Y-56020284D01*
X108283045Y-56016324D01*
X108310000Y-56015000D01*
X108860000Y-56015000D01*
X108886955Y-56016324D01*
G37*
G04 #@! TD.AperFunction*
G04 #@! TA.AperFunction,ComponentPad*
G36*
X107616955Y-53946324D02*
G01*
X107643650Y-53950284D01*
X107669828Y-53956841D01*
X107695238Y-53965933D01*
X107719634Y-53977472D01*
X107742782Y-53991346D01*
X107764458Y-54007422D01*
X107784454Y-54025546D01*
X107802578Y-54045542D01*
X107818654Y-54067218D01*
X107832528Y-54090366D01*
X107844067Y-54114762D01*
X107853159Y-54140172D01*
X107859716Y-54166350D01*
X107863676Y-54193045D01*
X107865000Y-54220000D01*
X107865000Y-55470000D01*
X107863676Y-55496955D01*
X107859716Y-55523650D01*
X107853159Y-55549828D01*
X107844067Y-55575238D01*
X107832528Y-55599634D01*
X107818654Y-55622782D01*
X107802578Y-55644458D01*
X107784454Y-55664454D01*
X107764458Y-55682578D01*
X107742782Y-55698654D01*
X107719634Y-55712528D01*
X107695238Y-55724067D01*
X107669828Y-55733159D01*
X107643650Y-55739716D01*
X107616955Y-55743676D01*
X107590000Y-55745000D01*
X107040000Y-55745000D01*
X107013045Y-55743676D01*
X106986350Y-55739716D01*
X106960172Y-55733159D01*
X106934762Y-55724067D01*
X106910366Y-55712528D01*
X106887218Y-55698654D01*
X106865542Y-55682578D01*
X106845546Y-55664454D01*
X106827422Y-55644458D01*
X106811346Y-55622782D01*
X106797472Y-55599634D01*
X106785933Y-55575238D01*
X106776841Y-55549828D01*
X106770284Y-55523650D01*
X106766324Y-55496955D01*
X106765000Y-55470000D01*
X106765000Y-54220000D01*
X106766324Y-54193045D01*
X106770284Y-54166350D01*
X106776841Y-54140172D01*
X106785933Y-54114762D01*
X106797472Y-54090366D01*
X106811346Y-54067218D01*
X106827422Y-54045542D01*
X106845546Y-54025546D01*
X106865542Y-54007422D01*
X106887218Y-53991346D01*
X106910366Y-53977472D01*
X106934762Y-53965933D01*
X106960172Y-53956841D01*
X106986350Y-53950284D01*
X107013045Y-53946324D01*
X107040000Y-53945000D01*
X107590000Y-53945000D01*
X107616955Y-53946324D01*
G37*
G04 #@! TD.AperFunction*
D12*
X123425000Y-103505000D03*
G04 #@! TA.AperFunction,ComponentPad*
D11*
G36*
X124076955Y-105496324D02*
G01*
X124103650Y-105500284D01*
X124129828Y-105506841D01*
X124155238Y-105515933D01*
X124179634Y-105527472D01*
X124202782Y-105541346D01*
X124224458Y-105557422D01*
X124244454Y-105575546D01*
X124262578Y-105595542D01*
X124278654Y-105617218D01*
X124292528Y-105640366D01*
X124304067Y-105664762D01*
X124313159Y-105690172D01*
X124319716Y-105716350D01*
X124323676Y-105743045D01*
X124325000Y-105770000D01*
X124325000Y-106320000D01*
X124323676Y-106346955D01*
X124319716Y-106373650D01*
X124313159Y-106399828D01*
X124304067Y-106425238D01*
X124292528Y-106449634D01*
X124278654Y-106472782D01*
X124262578Y-106494458D01*
X124244454Y-106514454D01*
X124224458Y-106532578D01*
X124202782Y-106548654D01*
X124179634Y-106562528D01*
X124155238Y-106574067D01*
X124129828Y-106583159D01*
X124103650Y-106589716D01*
X124076955Y-106593676D01*
X124050000Y-106595000D01*
X122800000Y-106595000D01*
X122773045Y-106593676D01*
X122746350Y-106589716D01*
X122720172Y-106583159D01*
X122694762Y-106574067D01*
X122670366Y-106562528D01*
X122647218Y-106548654D01*
X122625542Y-106532578D01*
X122605546Y-106514454D01*
X122587422Y-106494458D01*
X122571346Y-106472782D01*
X122557472Y-106449634D01*
X122545933Y-106425238D01*
X122536841Y-106399828D01*
X122530284Y-106373650D01*
X122526324Y-106346955D01*
X122525000Y-106320000D01*
X122525000Y-105770000D01*
X122526324Y-105743045D01*
X122530284Y-105716350D01*
X122536841Y-105690172D01*
X122545933Y-105664762D01*
X122557472Y-105640366D01*
X122571346Y-105617218D01*
X122587422Y-105595542D01*
X122605546Y-105575546D01*
X122625542Y-105557422D01*
X122647218Y-105541346D01*
X122670366Y-105527472D01*
X122694762Y-105515933D01*
X122720172Y-105506841D01*
X122746350Y-105500284D01*
X122773045Y-105496324D01*
X122800000Y-105495000D01*
X124050000Y-105495000D01*
X124076955Y-105496324D01*
G37*
G04 #@! TD.AperFunction*
G04 #@! TA.AperFunction,ComponentPad*
G36*
X126146955Y-104226324D02*
G01*
X126173650Y-104230284D01*
X126199828Y-104236841D01*
X126225238Y-104245933D01*
X126249634Y-104257472D01*
X126272782Y-104271346D01*
X126294458Y-104287422D01*
X126314454Y-104305546D01*
X126332578Y-104325542D01*
X126348654Y-104347218D01*
X126362528Y-104370366D01*
X126374067Y-104394762D01*
X126383159Y-104420172D01*
X126389716Y-104446350D01*
X126393676Y-104473045D01*
X126395000Y-104500000D01*
X126395000Y-105050000D01*
X126393676Y-105076955D01*
X126389716Y-105103650D01*
X126383159Y-105129828D01*
X126374067Y-105155238D01*
X126362528Y-105179634D01*
X126348654Y-105202782D01*
X126332578Y-105224458D01*
X126314454Y-105244454D01*
X126294458Y-105262578D01*
X126272782Y-105278654D01*
X126249634Y-105292528D01*
X126225238Y-105304067D01*
X126199828Y-105313159D01*
X126173650Y-105319716D01*
X126146955Y-105323676D01*
X126120000Y-105325000D01*
X124870000Y-105325000D01*
X124843045Y-105323676D01*
X124816350Y-105319716D01*
X124790172Y-105313159D01*
X124764762Y-105304067D01*
X124740366Y-105292528D01*
X124717218Y-105278654D01*
X124695542Y-105262578D01*
X124675546Y-105244454D01*
X124657422Y-105224458D01*
X124641346Y-105202782D01*
X124627472Y-105179634D01*
X124615933Y-105155238D01*
X124606841Y-105129828D01*
X124600284Y-105103650D01*
X124596324Y-105076955D01*
X124595000Y-105050000D01*
X124595000Y-104500000D01*
X124596324Y-104473045D01*
X124600284Y-104446350D01*
X124606841Y-104420172D01*
X124615933Y-104394762D01*
X124627472Y-104370366D01*
X124641346Y-104347218D01*
X124657422Y-104325542D01*
X124675546Y-104305546D01*
X124695542Y-104287422D01*
X124717218Y-104271346D01*
X124740366Y-104257472D01*
X124764762Y-104245933D01*
X124790172Y-104236841D01*
X124816350Y-104230284D01*
X124843045Y-104226324D01*
X124870000Y-104225000D01*
X126120000Y-104225000D01*
X126146955Y-104226324D01*
G37*
G04 #@! TD.AperFunction*
D13*
X102130000Y-57570000D03*
D14*
X99590000Y-57570000D03*
D13*
X134080000Y-100330000D03*
X131540000Y-100330000D03*
D15*
X129000000Y-100330000D03*
D14*
X53870000Y-57570000D03*
D13*
X94510000Y-57570000D03*
X91970000Y-57570000D03*
X89430000Y-57570000D03*
D14*
X86890000Y-57570000D03*
X81810000Y-57570000D03*
X66570000Y-57570000D03*
D16*
X132000000Y-108585000D03*
D17*
X132000000Y-106045000D03*
D14*
X79270000Y-57570000D03*
X74190000Y-57570000D03*
X64030000Y-57570000D03*
X56410000Y-57570000D03*
D13*
X94510000Y-80430000D03*
X91970000Y-80430000D03*
X89430000Y-80430000D03*
X86890000Y-80430000D03*
X84350000Y-80430000D03*
X81810000Y-80430000D03*
X79270000Y-80430000D03*
X76730000Y-80430000D03*
X74190000Y-80430000D03*
X71650000Y-80430000D03*
X69110000Y-80430000D03*
X66570000Y-80430000D03*
X64030000Y-80430000D03*
X61490000Y-80430000D03*
X58950000Y-80430000D03*
X56410000Y-80430000D03*
D15*
X53870000Y-80430000D03*
D16*
X68580000Y-52700000D03*
D17*
X66040000Y-52700000D03*
D18*
X76120000Y-52700000D03*
X71120000Y-52700000D03*
D16*
X109220000Y-78105000D03*
D17*
X106680000Y-78105000D03*
D19*
X85090000Y-68580000D03*
G04 #@! TA.AperFunction,SMDPad,CuDef*
D11*
G36*
X85839398Y-69880000D02*
G01*
X85839398Y-69904534D01*
X85834588Y-69953365D01*
X85825016Y-70001490D01*
X85810772Y-70048445D01*
X85791995Y-70093778D01*
X85768864Y-70137051D01*
X85741604Y-70177850D01*
X85710476Y-70215779D01*
X85675779Y-70250476D01*
X85637850Y-70281604D01*
X85597051Y-70308864D01*
X85553778Y-70331995D01*
X85508445Y-70350772D01*
X85461490Y-70365016D01*
X85413365Y-70374588D01*
X85364534Y-70379398D01*
X85340000Y-70379398D01*
X85340000Y-70380000D01*
X84840000Y-70380000D01*
X84840000Y-70379398D01*
X84815466Y-70379398D01*
X84766635Y-70374588D01*
X84718510Y-70365016D01*
X84671555Y-70350772D01*
X84626222Y-70331995D01*
X84582949Y-70308864D01*
X84542150Y-70281604D01*
X84504221Y-70250476D01*
X84469524Y-70215779D01*
X84438396Y-70177850D01*
X84411136Y-70137051D01*
X84388005Y-70093778D01*
X84369228Y-70048445D01*
X84354984Y-70001490D01*
X84345412Y-69953365D01*
X84340602Y-69904534D01*
X84340602Y-69880000D01*
X84340000Y-69880000D01*
X84340000Y-69330000D01*
X85840000Y-69330000D01*
X85840000Y-69880000D01*
X85839398Y-69880000D01*
G37*
G04 #@! TD.AperFunction*
G04 #@! TA.AperFunction,SMDPad,CuDef*
G36*
X84340000Y-67830000D02*
G01*
X84340000Y-67280000D01*
X84340602Y-67280000D01*
X84340602Y-67255466D01*
X84345412Y-67206635D01*
X84354984Y-67158510D01*
X84369228Y-67111555D01*
X84388005Y-67066222D01*
X84411136Y-67022949D01*
X84438396Y-66982150D01*
X84469524Y-66944221D01*
X84504221Y-66909524D01*
X84542150Y-66878396D01*
X84582949Y-66851136D01*
X84626222Y-66828005D01*
X84671555Y-66809228D01*
X84718510Y-66794984D01*
X84766635Y-66785412D01*
X84815466Y-66780602D01*
X84840000Y-66780602D01*
X84840000Y-66780000D01*
X85340000Y-66780000D01*
X85340000Y-66780602D01*
X85364534Y-66780602D01*
X85413365Y-66785412D01*
X85461490Y-66794984D01*
X85508445Y-66809228D01*
X85553778Y-66828005D01*
X85597051Y-66851136D01*
X85637850Y-66878396D01*
X85675779Y-66909524D01*
X85710476Y-66944221D01*
X85741604Y-66982150D01*
X85768864Y-67022949D01*
X85791995Y-67066222D01*
X85810772Y-67111555D01*
X85825016Y-67158510D01*
X85834588Y-67206635D01*
X85839398Y-67255466D01*
X85839398Y-67280000D01*
X85840000Y-67280000D01*
X85840000Y-67830000D01*
X84340000Y-67830000D01*
G37*
G04 #@! TD.AperFunction*
D16*
X109220000Y-72390000D03*
D17*
X106680000Y-72390000D03*
D13*
X107950000Y-64770000D03*
D15*
X107950000Y-67310000D03*
D16*
X105960000Y-52400000D03*
D17*
X108500000Y-52400000D03*
D13*
X111460000Y-52705000D03*
D15*
X114000000Y-52705000D03*
D18*
X99500000Y-53600000D03*
D20*
X102000000Y-53600000D03*
D21*
X128000000Y-83035000D03*
X132500000Y-83035000D03*
X128000000Y-89535000D03*
X132500000Y-89535000D03*
D13*
X131540000Y-94615000D03*
D15*
X129000000Y-94615000D03*
D16*
X123000000Y-99060000D03*
D17*
X123000000Y-96520000D03*
D16*
X124000000Y-109460000D03*
D17*
X124000000Y-112000000D03*
D18*
X130135000Y-114300000D03*
D20*
X127635000Y-114300000D03*
D13*
X53975000Y-101600000D03*
D15*
X53975000Y-99060000D03*
D21*
X60000000Y-107700000D03*
D22*
X60000000Y-92710000D03*
D13*
X101900000Y-66460000D03*
D15*
X101900000Y-69000000D03*
D13*
X101900000Y-71540000D03*
X53870000Y-60110000D03*
X56410000Y-60110000D03*
D15*
X58950000Y-60110000D03*
D13*
X61490000Y-60110000D03*
X64030000Y-60110000D03*
X66570000Y-60110000D03*
X69110000Y-60110000D03*
D15*
X71650000Y-60110000D03*
D13*
X74190000Y-60110000D03*
X76730000Y-60110000D03*
X79270000Y-60110000D03*
X81810000Y-60110000D03*
D15*
X84350000Y-60110000D03*
D13*
X86890000Y-60110000D03*
X89430000Y-60110000D03*
X91970000Y-60110000D03*
X94510000Y-60110000D03*
D15*
X97050000Y-60110000D03*
D13*
X99590000Y-60110000D03*
X102130000Y-60110000D03*
X102130000Y-77890000D03*
X99590000Y-77890000D03*
D15*
X97050000Y-77890000D03*
D13*
X94510000Y-77890000D03*
X91970000Y-77890000D03*
X89430000Y-77890000D03*
X86890000Y-77890000D03*
D15*
X84350000Y-77890000D03*
D13*
X81810000Y-77890000D03*
X79270000Y-77890000D03*
X76730000Y-77890000D03*
X74190000Y-77890000D03*
D15*
X71650000Y-77890000D03*
D13*
X69110000Y-77890000D03*
X66570000Y-77890000D03*
X64030000Y-77890000D03*
X61490000Y-77890000D03*
D15*
X58950000Y-77890000D03*
D13*
X56410000Y-77890000D03*
X53870000Y-77890000D03*
D23*
X71650000Y-60110000D02*
X71650000Y-57255000D01*
X71650000Y-57255000D02*
X73025000Y-55880000D01*
X73025000Y-55880000D02*
X83820000Y-55880000D01*
X84350000Y-56410000D02*
X84350000Y-60110000D01*
X83820000Y-55880000D02*
X84350000Y-56410000D01*
X55630000Y-107700000D02*
X60000000Y-107700000D01*
X53975000Y-106045000D02*
X55630000Y-107700000D01*
X53975000Y-101600000D02*
X53975000Y-106045000D01*
D24*
X58950000Y-60110000D02*
X59055000Y-60005000D01*
D23*
X58950000Y-53445000D02*
X58950000Y-60110000D01*
X61595000Y-50800000D02*
X58950000Y-53445000D01*
X75351370Y-50800000D02*
X61595000Y-50800000D01*
X76120000Y-51568630D02*
X75351370Y-50800000D01*
X76120000Y-52700000D02*
X76120000Y-51568630D01*
X120015000Y-114300000D02*
X124460000Y-118745000D01*
X68014213Y-114300000D02*
X120015000Y-114300000D01*
X61414213Y-107700000D02*
X68014213Y-114300000D01*
X60000000Y-107700000D02*
X61414213Y-107700000D01*
X124460000Y-118745000D02*
X128270000Y-118745000D01*
X130135000Y-116880000D02*
X130135000Y-114300000D01*
X128270000Y-118745000D02*
X130135000Y-116880000D01*
X130135000Y-113168630D02*
X130810000Y-112493630D01*
X130135000Y-114300000D02*
X130135000Y-113168630D01*
X83825001Y-50794999D02*
X83820000Y-50800000D01*
X116845001Y-50794999D02*
X83825001Y-50794999D01*
X116850002Y-50800000D02*
X116845001Y-50794999D01*
X127635000Y-50800000D02*
X116850002Y-50800000D01*
X83820000Y-50800000D02*
X75351370Y-50800000D01*
X139065000Y-62230000D02*
X127635000Y-50800000D01*
X139065000Y-105410000D02*
X139065000Y-62230000D01*
X135890000Y-108585000D02*
X139065000Y-105410000D01*
X132000000Y-108585000D02*
X135890000Y-108585000D01*
X130810000Y-112493630D02*
X130810000Y-112395000D01*
X132000000Y-111205000D02*
X132000000Y-108585000D01*
X130810000Y-112395000D02*
X132000000Y-111205000D01*
X124000000Y-103505000D02*
X127635000Y-103505000D01*
X127635000Y-103505000D02*
X128905000Y-104775000D01*
X128905000Y-104775000D02*
X128905000Y-107950000D01*
X129540000Y-108585000D02*
X132000000Y-108585000D01*
X128905000Y-107950000D02*
X129540000Y-108585000D01*
D24*
X97425000Y-78265000D02*
X97050000Y-77890000D01*
X97050000Y-77890000D02*
X96305000Y-77890000D01*
X97050000Y-78526410D02*
X96863600Y-78340010D01*
D23*
X97155000Y-77995000D02*
X97050000Y-77890000D01*
X97050000Y-77890000D02*
X97050000Y-76730000D01*
X97050000Y-76730000D02*
X94615000Y-74295000D01*
X94615000Y-74295000D02*
X86360000Y-74295000D01*
X85090000Y-73025000D02*
X85090000Y-69880000D01*
X86360000Y-74295000D02*
X85090000Y-73025000D01*
X105025000Y-57400000D02*
X106000000Y-57400000D01*
X103505000Y-55880000D02*
X105025000Y-57400000D01*
X97790000Y-55880000D02*
X103505000Y-55880000D01*
X97050000Y-56620000D02*
X97790000Y-55880000D01*
X97050000Y-60110000D02*
X97050000Y-56620000D01*
X106000000Y-61617919D02*
X106000000Y-57400000D01*
X107950000Y-63567919D02*
X106000000Y-61617919D01*
X107950000Y-64770000D02*
X107950000Y-63567919D01*
X84350000Y-80430000D02*
X84350000Y-77890000D01*
X71650000Y-80430000D02*
X71650000Y-77890000D01*
X58950000Y-80430000D02*
X58950000Y-77890000D01*
X53975000Y-99060000D02*
X53975000Y-95250000D01*
X56515000Y-92710000D02*
X60000000Y-92710000D01*
X53975000Y-95250000D02*
X56515000Y-92710000D01*
X56410000Y-60110000D02*
X56410000Y-57570000D01*
X50600010Y-86795010D02*
X56515000Y-92710000D01*
X50600010Y-64969990D02*
X50600010Y-86795010D01*
X52070000Y-63500000D02*
X50600010Y-64969990D01*
X56410000Y-62335000D02*
X55245000Y-63500000D01*
X55245000Y-63500000D02*
X52070000Y-63500000D01*
X56410000Y-60110000D02*
X56410000Y-62335000D01*
X110250000Y-100965000D02*
X71120000Y-100965000D01*
X62865000Y-92710000D02*
X60000000Y-92710000D01*
X121285000Y-112000000D02*
X110250000Y-100965000D01*
X71120000Y-100965000D02*
X62865000Y-92710000D01*
X121285000Y-112000000D02*
X124000000Y-112000000D01*
X128000000Y-83035000D02*
X128000000Y-89535000D01*
X128000000Y-93615000D02*
X129000000Y-94615000D01*
X128000000Y-89535000D02*
X128000000Y-93615000D01*
X123000000Y-99060000D02*
X124460000Y-99060000D01*
X124460000Y-99060000D02*
X125730000Y-100330000D01*
X125730000Y-104775000D02*
X124000000Y-104775000D01*
X126365000Y-105410000D02*
X125730000Y-104775000D01*
X126365000Y-107095000D02*
X126365000Y-105410000D01*
X124000000Y-109460000D02*
X126365000Y-107095000D01*
X127000000Y-107730000D02*
X126365000Y-107095000D01*
X127000000Y-112115000D02*
X127000000Y-107730000D01*
X127635000Y-112750000D02*
X127000000Y-112115000D01*
X127635000Y-114300000D02*
X127635000Y-112750000D01*
X120015000Y-99060000D02*
X123000000Y-99060000D01*
X118745000Y-100330000D02*
X120015000Y-99060000D01*
X118745000Y-102870000D02*
X118745000Y-100330000D01*
X120650000Y-104775000D02*
X118745000Y-102870000D01*
X124000000Y-104775000D02*
X120650000Y-104775000D01*
X129000000Y-94615000D02*
X129000000Y-100330000D01*
X125730000Y-100330000D02*
X129000000Y-100330000D01*
X99590000Y-87525000D02*
X99590000Y-77890000D01*
X108585000Y-96520000D02*
X99590000Y-87525000D01*
X108585000Y-96520000D02*
X123000000Y-96520000D01*
X69110000Y-60110000D02*
X69110000Y-56410000D01*
X69110000Y-56410000D02*
X68580000Y-55880000D01*
X68580000Y-55880000D02*
X66675000Y-55880000D01*
X66675000Y-55880000D02*
X66040000Y-55245000D01*
X66040000Y-55245000D02*
X66040000Y-52700000D01*
X68580000Y-52700000D02*
X71120000Y-52700000D01*
X73030000Y-54610000D02*
X71120000Y-52700000D01*
X78740000Y-54610000D02*
X73030000Y-54610000D01*
X79750000Y-53600000D02*
X78740000Y-54610000D01*
X79750000Y-53600000D02*
X99500000Y-53600000D01*
X104760000Y-53600000D02*
X105960000Y-52400000D01*
X102000000Y-53600000D02*
X104760000Y-53600000D01*
X105960000Y-52400000D02*
X105960000Y-53890000D01*
X105960000Y-53890000D02*
X107315000Y-55245000D01*
X111155000Y-52400000D02*
X111460000Y-52705000D01*
X108500000Y-52400000D02*
X111155000Y-52400000D01*
X108540000Y-52440000D02*
X108500000Y-52400000D01*
X108540000Y-57400000D02*
X108540000Y-52440000D01*
X109220000Y-71400051D02*
X108304949Y-70485000D01*
X109220000Y-72390000D02*
X109220000Y-71400051D01*
X108304949Y-70485000D02*
X108304949Y-70204949D01*
X107950000Y-69850000D02*
X107950000Y-67310000D01*
X108304949Y-70204949D02*
X107950000Y-69850000D01*
X78105000Y-63500000D02*
X76730000Y-62125000D01*
X76730000Y-62125000D02*
X76730000Y-60110000D01*
X104140000Y-63500000D02*
X78105000Y-63500000D01*
X106045000Y-65405000D02*
X104140000Y-63500000D01*
X106045000Y-67005000D02*
X106045000Y-65405000D01*
X106350000Y-67310000D02*
X106045000Y-67005000D01*
X107950000Y-67310000D02*
X106350000Y-67310000D01*
X89535000Y-70485000D02*
X87630000Y-68580000D01*
X98425000Y-75565000D02*
X93345000Y-70485000D01*
X102870000Y-75565000D02*
X98425000Y-75565000D01*
X108304949Y-76200000D02*
X103505000Y-76200000D01*
X87630000Y-68580000D02*
X85090000Y-68580000D01*
X93345000Y-70485000D02*
X89535000Y-70485000D01*
X109220000Y-77115051D02*
X108304949Y-76200000D01*
X103505000Y-76200000D02*
X102870000Y-75565000D01*
X109220000Y-78105000D02*
X109220000Y-77115051D01*
D24*
X102130000Y-77890000D02*
X102345000Y-78105000D01*
D23*
X106465000Y-77890000D02*
X106680000Y-78105000D01*
X102130000Y-77890000D02*
X106465000Y-77890000D01*
X94510000Y-80430000D02*
X94510000Y-77890000D01*
X91970000Y-80430000D02*
X91970000Y-77890000D01*
X89430000Y-80430000D02*
X89430000Y-77890000D01*
X86890000Y-80430000D02*
X86890000Y-77890000D01*
X81810000Y-80430000D02*
X81810000Y-77890000D01*
X79270000Y-80430000D02*
X79270000Y-77890000D01*
X76730000Y-80430000D02*
X76730000Y-77890000D01*
X74190000Y-80430000D02*
X74190000Y-77890000D01*
X69110000Y-80430000D02*
X69110000Y-77890000D01*
X66570000Y-80430000D02*
X66570000Y-77890000D01*
X64030000Y-80430000D02*
X64030000Y-77890000D01*
X61490000Y-80430000D02*
X61490000Y-77890000D01*
X56410000Y-80430000D02*
X56410000Y-77890000D01*
X53870000Y-80430000D02*
X53870000Y-77890000D01*
D24*
X64030000Y-60110000D02*
X64030000Y-60220000D01*
D23*
X106680000Y-73379949D02*
X105764949Y-74295000D01*
X106680000Y-72390000D02*
X106680000Y-73379949D01*
X105764949Y-74295000D02*
X104775000Y-74295000D01*
X104775000Y-74295000D02*
X104140000Y-73660000D01*
X104140000Y-73660000D02*
X100330000Y-73660000D01*
X93950000Y-67280000D02*
X85090000Y-67280000D01*
X100330000Y-73660000D02*
X93950000Y-67280000D01*
X85090000Y-67280000D02*
X67280000Y-67280000D01*
X64030000Y-64030000D02*
X64030000Y-60110000D01*
X67280000Y-67280000D02*
X64030000Y-64030000D01*
X64030000Y-60110000D02*
X64030000Y-57570000D01*
X111760000Y-54945000D02*
X114000000Y-52705000D01*
X111760000Y-73025000D02*
X111760000Y-54945000D01*
X110490000Y-74295000D02*
X111760000Y-73025000D01*
X107595051Y-74295000D02*
X110490000Y-74295000D01*
X106680000Y-73379949D02*
X107595051Y-74295000D01*
X74190000Y-57570000D02*
X74190000Y-60110000D01*
X79270000Y-60110000D02*
X79270000Y-57570000D01*
X132500000Y-83035000D02*
X132500000Y-89535000D01*
X132500000Y-93655000D02*
X131540000Y-94615000D01*
X132500000Y-89535000D02*
X132500000Y-93655000D01*
X132000000Y-103425000D02*
X132000000Y-106045000D01*
X131540000Y-102965000D02*
X132000000Y-103425000D01*
X131540000Y-100330000D02*
X131540000Y-102965000D01*
X131540000Y-94615000D02*
X131540000Y-100330000D01*
X112165000Y-99060000D02*
X119150000Y-106045000D01*
X61490000Y-60110000D02*
X61490000Y-64030000D01*
X61490000Y-64030000D02*
X66675000Y-69215000D01*
X69215000Y-69215000D02*
X70485000Y-70485000D01*
X52070000Y-84455000D02*
X57150000Y-89535000D01*
X70485000Y-70485000D02*
X70485000Y-73660000D01*
X69215000Y-74930000D02*
X53340000Y-74930000D01*
X53340000Y-74930000D02*
X52070000Y-76200000D01*
X52070000Y-76200000D02*
X52070000Y-84455000D01*
X57150000Y-89535000D02*
X63500000Y-89535000D01*
X66675000Y-69215000D02*
X69215000Y-69215000D01*
X63500000Y-89535000D02*
X73025000Y-99060000D01*
X70485000Y-73660000D02*
X69215000Y-74930000D01*
X73025000Y-99060000D02*
X112165000Y-99060000D01*
X119150000Y-106045000D02*
X124000000Y-106045000D01*
X66570000Y-60110000D02*
X66570000Y-57570000D01*
X81810000Y-60110000D02*
X81810000Y-57570000D01*
X94510000Y-60110000D02*
X94510000Y-57570000D01*
X91970000Y-60110000D02*
X91970000Y-57570000D01*
X89430000Y-60110000D02*
X89430000Y-57570000D01*
X86890000Y-60110000D02*
X86890000Y-57570000D01*
X53870000Y-60110000D02*
X53870000Y-57570000D01*
X102130000Y-57570000D02*
X102130000Y-60110000D01*
X99590000Y-57570000D02*
X99590000Y-60110000D01*
D25*
G36*
X139340001Y-119340000D02*
G01*
X50660000Y-119340000D01*
X50660000Y-115779872D01*
X51765000Y-115779872D01*
X51765000Y-116220128D01*
X51850890Y-116651925D01*
X52019369Y-117058669D01*
X52263962Y-117424729D01*
X52575271Y-117736038D01*
X52941331Y-117980631D01*
X53348075Y-118149110D01*
X53779872Y-118235000D01*
X54220128Y-118235000D01*
X54651925Y-118149110D01*
X55058669Y-117980631D01*
X55424729Y-117736038D01*
X55736038Y-117424729D01*
X55980631Y-117058669D01*
X56149110Y-116651925D01*
X56235000Y-116220128D01*
X56235000Y-115779872D01*
X133765000Y-115779872D01*
X133765000Y-116220128D01*
X133850890Y-116651925D01*
X134019369Y-117058669D01*
X134263962Y-117424729D01*
X134575271Y-117736038D01*
X134941331Y-117980631D01*
X135348075Y-118149110D01*
X135779872Y-118235000D01*
X136220128Y-118235000D01*
X136651925Y-118149110D01*
X137058669Y-117980631D01*
X137424729Y-117736038D01*
X137736038Y-117424729D01*
X137980631Y-117058669D01*
X138149110Y-116651925D01*
X138235000Y-116220128D01*
X138235000Y-115779872D01*
X138149110Y-115348075D01*
X137980631Y-114941331D01*
X137736038Y-114575271D01*
X137424729Y-114263962D01*
X137058669Y-114019369D01*
X136651925Y-113850890D01*
X136220128Y-113765000D01*
X135779872Y-113765000D01*
X135348075Y-113850890D01*
X134941331Y-114019369D01*
X134575271Y-114263962D01*
X134263962Y-114575271D01*
X134019369Y-114941331D01*
X133850890Y-115348075D01*
X133765000Y-115779872D01*
X56235000Y-115779872D01*
X56149110Y-115348075D01*
X55980631Y-114941331D01*
X55736038Y-114575271D01*
X55424729Y-114263962D01*
X55058669Y-114019369D01*
X54651925Y-113850890D01*
X54220128Y-113765000D01*
X53779872Y-113765000D01*
X53348075Y-113850890D01*
X52941331Y-114019369D01*
X52575271Y-114263962D01*
X52263962Y-114575271D01*
X52019369Y-114941331D01*
X51850890Y-115348075D01*
X51765000Y-115779872D01*
X50660000Y-115779872D01*
X50660000Y-108835413D01*
X59044192Y-108835413D01*
X59139956Y-109099814D01*
X59429571Y-109240704D01*
X59741108Y-109322384D01*
X60062595Y-109341718D01*
X60381675Y-109297961D01*
X60686088Y-109192795D01*
X60860044Y-109099814D01*
X60955808Y-108835413D01*
X60000000Y-107879605D01*
X59044192Y-108835413D01*
X50660000Y-108835413D01*
X50660000Y-107762595D01*
X58358282Y-107762595D01*
X58402039Y-108081675D01*
X58507205Y-108386088D01*
X58600186Y-108560044D01*
X58864587Y-108655808D01*
X59820395Y-107700000D01*
X60179605Y-107700000D01*
X61135413Y-108655808D01*
X61399814Y-108560044D01*
X61540704Y-108270429D01*
X61622384Y-107958892D01*
X61641718Y-107637405D01*
X61619440Y-107474947D01*
X84880000Y-107474947D01*
X84880000Y-107925053D01*
X84967811Y-108366510D01*
X85140059Y-108782353D01*
X85390125Y-109156603D01*
X85708397Y-109474875D01*
X86082647Y-109724941D01*
X86498490Y-109897189D01*
X86939947Y-109985000D01*
X87390053Y-109985000D01*
X87831510Y-109897189D01*
X88247353Y-109724941D01*
X88621603Y-109474875D01*
X88939875Y-109156603D01*
X89189941Y-108782353D01*
X89362189Y-108366510D01*
X89450000Y-107925053D01*
X89450000Y-107474947D01*
X89362189Y-107033490D01*
X89189941Y-106617647D01*
X88939875Y-106243397D01*
X88621603Y-105925125D01*
X88247353Y-105675059D01*
X87831510Y-105502811D01*
X87390053Y-105415000D01*
X86939947Y-105415000D01*
X86498490Y-105502811D01*
X86082647Y-105675059D01*
X85708397Y-105925125D01*
X85390125Y-106243397D01*
X85140059Y-106617647D01*
X84967811Y-107033490D01*
X84880000Y-107474947D01*
X61619440Y-107474947D01*
X61597961Y-107318325D01*
X61492795Y-107013912D01*
X61399814Y-106839956D01*
X61135413Y-106744192D01*
X60179605Y-107700000D01*
X59820395Y-107700000D01*
X58864587Y-106744192D01*
X58600186Y-106839956D01*
X58459296Y-107129571D01*
X58377616Y-107441108D01*
X58358282Y-107762595D01*
X50660000Y-107762595D01*
X50660000Y-106564587D01*
X59044192Y-106564587D01*
X60000000Y-107520395D01*
X60955808Y-106564587D01*
X60860044Y-106300186D01*
X60570429Y-106159296D01*
X60258892Y-106077616D01*
X59937405Y-106058282D01*
X59618325Y-106102039D01*
X59313912Y-106207205D01*
X59139956Y-106300186D01*
X59044192Y-106564587D01*
X50660000Y-106564587D01*
X50660000Y-101956890D01*
X52533524Y-101956890D01*
X52578175Y-102104099D01*
X52703359Y-102366920D01*
X52877412Y-102600269D01*
X53093645Y-102795178D01*
X53343748Y-102944157D01*
X53618109Y-103041481D01*
X53848000Y-102920814D01*
X53848000Y-101727000D01*
X54102000Y-101727000D01*
X54102000Y-102920814D01*
X54331891Y-103041481D01*
X54606252Y-102944157D01*
X54856355Y-102795178D01*
X55072588Y-102600269D01*
X55246641Y-102366920D01*
X55371825Y-102104099D01*
X55416476Y-101956890D01*
X55295155Y-101727000D01*
X54102000Y-101727000D01*
X53848000Y-101727000D01*
X52654845Y-101727000D01*
X52533524Y-101956890D01*
X50660000Y-101956890D01*
X50660000Y-88283355D01*
X55086645Y-92710000D01*
X53295901Y-94500744D01*
X53257368Y-94532367D01*
X53225745Y-94570900D01*
X53225744Y-94570901D01*
X53131154Y-94686160D01*
X53037368Y-94861621D01*
X52979615Y-95052006D01*
X52960114Y-95250000D01*
X52965001Y-95299618D01*
X52965000Y-97594962D01*
X52880820Y-97620498D01*
X52770506Y-97679463D01*
X52673815Y-97758815D01*
X52594463Y-97855506D01*
X52535498Y-97965820D01*
X52499188Y-98085518D01*
X52486928Y-98210000D01*
X52486928Y-99910000D01*
X52499188Y-100034482D01*
X52535498Y-100154180D01*
X52594463Y-100264494D01*
X52673815Y-100361185D01*
X52770506Y-100440537D01*
X52880820Y-100499502D01*
X52961466Y-100523966D01*
X52877412Y-100599731D01*
X52703359Y-100833080D01*
X52578175Y-101095901D01*
X52533524Y-101243110D01*
X52654845Y-101473000D01*
X53848000Y-101473000D01*
X53848000Y-101453000D01*
X54102000Y-101453000D01*
X54102000Y-101473000D01*
X55295155Y-101473000D01*
X55416476Y-101243110D01*
X55371825Y-101095901D01*
X55246641Y-100833080D01*
X55072588Y-100599731D01*
X54988534Y-100523966D01*
X55069180Y-100499502D01*
X55179494Y-100440537D01*
X55276185Y-100361185D01*
X55355537Y-100264494D01*
X55414502Y-100154180D01*
X55450812Y-100034482D01*
X55463072Y-99910000D01*
X55463072Y-98210000D01*
X55450812Y-98085518D01*
X55414502Y-97965820D01*
X55355537Y-97855506D01*
X55276185Y-97758815D01*
X55179494Y-97679463D01*
X55069180Y-97620498D01*
X54985000Y-97594962D01*
X54985000Y-95668355D01*
X56933356Y-93720000D01*
X58362913Y-93720000D01*
X58374188Y-93834482D01*
X58410498Y-93954180D01*
X58469463Y-94064494D01*
X58548815Y-94161185D01*
X58645506Y-94240537D01*
X58755820Y-94299502D01*
X58875518Y-94335812D01*
X59000000Y-94348072D01*
X61000000Y-94348072D01*
X61124482Y-94335812D01*
X61244180Y-94299502D01*
X61354494Y-94240537D01*
X61451185Y-94161185D01*
X61530537Y-94064494D01*
X61589502Y-93954180D01*
X61625812Y-93834482D01*
X61637087Y-93720000D01*
X62446645Y-93720000D01*
X70370743Y-101644099D01*
X70402367Y-101682633D01*
X70556160Y-101808847D01*
X70642720Y-101855114D01*
X70731620Y-101902632D01*
X70922005Y-101960385D01*
X71120000Y-101979886D01*
X71169608Y-101975000D01*
X109831645Y-101975000D01*
X120535744Y-112679100D01*
X120567367Y-112717633D01*
X120721160Y-112843847D01*
X120828485Y-112901213D01*
X120896620Y-112937632D01*
X121087005Y-112995385D01*
X121285000Y-113014886D01*
X121334608Y-113010000D01*
X123122025Y-113010000D01*
X123148987Y-113036962D01*
X123367641Y-113183061D01*
X123610595Y-113283696D01*
X123868514Y-113335000D01*
X124131486Y-113335000D01*
X124389405Y-113283696D01*
X124632359Y-113183061D01*
X124851013Y-113036962D01*
X125036962Y-112851013D01*
X125183061Y-112632359D01*
X125283696Y-112389405D01*
X125335000Y-112131486D01*
X125335000Y-111868514D01*
X125283696Y-111610595D01*
X125183061Y-111367641D01*
X125036962Y-111148987D01*
X124851013Y-110963038D01*
X124632359Y-110816939D01*
X124422470Y-110730000D01*
X124632359Y-110643061D01*
X124851013Y-110496962D01*
X125036962Y-110311013D01*
X125183061Y-110092359D01*
X125283696Y-109849405D01*
X125335000Y-109591486D01*
X125335000Y-109553355D01*
X125990001Y-108898354D01*
X125990000Y-112065392D01*
X125985114Y-112115000D01*
X125990000Y-112164607D01*
X126004615Y-112312993D01*
X126062368Y-112503379D01*
X126156153Y-112678840D01*
X126282367Y-112832633D01*
X126320906Y-112864261D01*
X126450628Y-112993983D01*
X126383815Y-113048815D01*
X126304463Y-113145506D01*
X126245498Y-113255820D01*
X126209188Y-113375518D01*
X126196928Y-113500000D01*
X126196928Y-115100000D01*
X126209188Y-115224482D01*
X126245498Y-115344180D01*
X126304463Y-115454494D01*
X126383815Y-115551185D01*
X126480506Y-115630537D01*
X126590820Y-115689502D01*
X126710518Y-115725812D01*
X126835000Y-115738072D01*
X128435000Y-115738072D01*
X128559482Y-115725812D01*
X128679180Y-115689502D01*
X128789494Y-115630537D01*
X128886185Y-115551185D01*
X128965537Y-115454494D01*
X129024502Y-115344180D01*
X129040117Y-115292702D01*
X129321903Y-115292702D01*
X129393486Y-115536671D01*
X129648996Y-115657571D01*
X129923184Y-115726300D01*
X130205512Y-115740217D01*
X130485130Y-115698787D01*
X130751292Y-115603603D01*
X130876514Y-115536671D01*
X130948097Y-115292702D01*
X130135000Y-114479605D01*
X129321903Y-115292702D01*
X129040117Y-115292702D01*
X129060812Y-115224482D01*
X129073072Y-115100000D01*
X129073072Y-115092785D01*
X129142298Y-115113097D01*
X129955395Y-114300000D01*
X130314605Y-114300000D01*
X131127702Y-115113097D01*
X131371671Y-115041514D01*
X131492571Y-114786004D01*
X131561300Y-114511816D01*
X131575217Y-114229488D01*
X131533787Y-113949870D01*
X131438603Y-113683708D01*
X131371671Y-113558486D01*
X131127702Y-113486903D01*
X130314605Y-114300000D01*
X129955395Y-114300000D01*
X129142298Y-113486903D01*
X129073072Y-113507215D01*
X129073072Y-113500000D01*
X129060812Y-113375518D01*
X129040118Y-113307298D01*
X129321903Y-113307298D01*
X130135000Y-114120395D01*
X130948097Y-113307298D01*
X130876514Y-113063329D01*
X130621004Y-112942429D01*
X130346816Y-112873700D01*
X130064488Y-112859783D01*
X129784870Y-112901213D01*
X129518708Y-112996397D01*
X129393486Y-113063329D01*
X129321903Y-113307298D01*
X129040118Y-113307298D01*
X129024502Y-113255820D01*
X128965537Y-113145506D01*
X128886185Y-113048815D01*
X128789494Y-112969463D01*
X128679180Y-112910498D01*
X128645000Y-112900130D01*
X128645000Y-112799608D01*
X128649886Y-112750000D01*
X128630385Y-112552005D01*
X128572632Y-112361620D01*
X128546640Y-112312993D01*
X128478847Y-112186160D01*
X128352633Y-112032367D01*
X128314094Y-112000739D01*
X128010000Y-111696645D01*
X128010000Y-108918330D01*
X130707278Y-108918330D01*
X130797147Y-109164123D01*
X130933241Y-109387660D01*
X131110330Y-109580351D01*
X131321608Y-109734792D01*
X131558956Y-109845047D01*
X131666671Y-109877716D01*
X131873000Y-109754374D01*
X131873000Y-108712000D01*
X132127000Y-108712000D01*
X132127000Y-109754374D01*
X132333329Y-109877716D01*
X132441044Y-109845047D01*
X132678392Y-109734792D01*
X132889670Y-109580351D01*
X133066759Y-109387660D01*
X133202853Y-109164123D01*
X133292722Y-108918330D01*
X133170201Y-108712000D01*
X132127000Y-108712000D01*
X131873000Y-108712000D01*
X130829799Y-108712000D01*
X130707278Y-108918330D01*
X128010000Y-108918330D01*
X128010000Y-107779608D01*
X128014886Y-107730000D01*
X127995385Y-107532005D01*
X127937632Y-107341620D01*
X127879612Y-107233072D01*
X127843847Y-107166160D01*
X127717633Y-107012367D01*
X127679094Y-106980739D01*
X127375000Y-106676645D01*
X127375000Y-105459608D01*
X127379886Y-105410000D01*
X127360385Y-105212005D01*
X127302632Y-105021620D01*
X127276641Y-104972994D01*
X127208847Y-104846160D01*
X127082633Y-104692367D01*
X127044094Y-104660739D01*
X127033072Y-104649717D01*
X127033072Y-104500000D01*
X127015528Y-104321868D01*
X126963569Y-104150582D01*
X126879192Y-103992724D01*
X126765639Y-103854361D01*
X126627276Y-103740808D01*
X126469418Y-103656431D01*
X126298132Y-103604472D01*
X126120000Y-103586928D01*
X124870000Y-103586928D01*
X124691868Y-103604472D01*
X124601120Y-103632000D01*
X123552000Y-103632000D01*
X123552000Y-103652000D01*
X123298000Y-103652000D01*
X123298000Y-103632000D01*
X122048750Y-103632000D01*
X121915750Y-103765000D01*
X121068356Y-103765000D01*
X120258356Y-102955000D01*
X121886928Y-102955000D01*
X121890000Y-103219250D01*
X122048750Y-103378000D01*
X123298000Y-103378000D01*
X123298000Y-102478750D01*
X123552000Y-102478750D01*
X123552000Y-103378000D01*
X124801250Y-103378000D01*
X124960000Y-103219250D01*
X124963072Y-102955000D01*
X124950812Y-102830518D01*
X124914502Y-102710820D01*
X124855537Y-102600506D01*
X124776185Y-102503815D01*
X124679494Y-102424463D01*
X124569180Y-102365498D01*
X124449482Y-102329188D01*
X124325000Y-102316928D01*
X123710750Y-102320000D01*
X123552000Y-102478750D01*
X123298000Y-102478750D01*
X123139250Y-102320000D01*
X122525000Y-102316928D01*
X122400518Y-102329188D01*
X122280820Y-102365498D01*
X122170506Y-102424463D01*
X122073815Y-102503815D01*
X121994463Y-102600506D01*
X121935498Y-102710820D01*
X121899188Y-102830518D01*
X121886928Y-102955000D01*
X120258356Y-102955000D01*
X119755000Y-102451645D01*
X119755000Y-100748355D01*
X120433355Y-100070000D01*
X122122025Y-100070000D01*
X122148987Y-100096962D01*
X122367641Y-100243061D01*
X122610595Y-100343696D01*
X122868514Y-100395000D01*
X123131486Y-100395000D01*
X123389405Y-100343696D01*
X123632359Y-100243061D01*
X123851013Y-100096962D01*
X123877975Y-100070000D01*
X124041645Y-100070000D01*
X124980739Y-101009094D01*
X125012367Y-101047633D01*
X125166160Y-101173847D01*
X125341620Y-101267632D01*
X125532006Y-101325385D01*
X125680392Y-101340000D01*
X125680394Y-101340000D01*
X125729999Y-101344886D01*
X125779604Y-101340000D01*
X127534962Y-101340000D01*
X127560498Y-101424180D01*
X127619463Y-101534494D01*
X127698815Y-101631185D01*
X127795506Y-101710537D01*
X127905820Y-101769502D01*
X128025518Y-101805812D01*
X128150000Y-101818072D01*
X129850000Y-101818072D01*
X129974482Y-101805812D01*
X130094180Y-101769502D01*
X130204494Y-101710537D01*
X130301185Y-101631185D01*
X130380537Y-101534494D01*
X130439502Y-101424180D01*
X130461513Y-101351620D01*
X130530000Y-101420107D01*
X130530001Y-102915383D01*
X130525114Y-102965000D01*
X130544615Y-103162994D01*
X130602368Y-103353379D01*
X130696154Y-103528840D01*
X130822368Y-103682633D01*
X130860902Y-103714257D01*
X130990000Y-103843355D01*
X130990001Y-105167024D01*
X130963038Y-105193987D01*
X130816939Y-105412641D01*
X130716304Y-105655595D01*
X130665000Y-105913514D01*
X130665000Y-106176486D01*
X130716304Y-106434405D01*
X130816939Y-106677359D01*
X130963038Y-106896013D01*
X131148987Y-107081962D01*
X131367641Y-107228061D01*
X131583550Y-107317494D01*
X131558956Y-107324953D01*
X131321608Y-107435208D01*
X131110330Y-107589649D01*
X130933241Y-107782340D01*
X130797147Y-108005877D01*
X130707278Y-108251670D01*
X130829799Y-108458000D01*
X131873000Y-108458000D01*
X131873000Y-108438000D01*
X132127000Y-108438000D01*
X132127000Y-108458000D01*
X133170201Y-108458000D01*
X133292722Y-108251670D01*
X133202853Y-108005877D01*
X133066759Y-107782340D01*
X132889670Y-107589649D01*
X132678392Y-107435208D01*
X132441044Y-107324953D01*
X132416450Y-107317494D01*
X132632359Y-107228061D01*
X132851013Y-107081962D01*
X133036962Y-106896013D01*
X133183061Y-106677359D01*
X133283696Y-106434405D01*
X133335000Y-106176486D01*
X133335000Y-105913514D01*
X133283696Y-105655595D01*
X133183061Y-105412641D01*
X133036962Y-105193987D01*
X133010000Y-105167025D01*
X133010000Y-103474604D01*
X133014886Y-103424999D01*
X133007832Y-103353379D01*
X132995385Y-103227006D01*
X132937632Y-103036620D01*
X132843847Y-102861160D01*
X132717633Y-102707367D01*
X132679089Y-102675735D01*
X132550000Y-102546646D01*
X132550000Y-101420107D01*
X132693475Y-101276632D01*
X132810000Y-101102240D01*
X132926525Y-101276632D01*
X133133368Y-101483475D01*
X133376589Y-101645990D01*
X133646842Y-101757932D01*
X133933740Y-101815000D01*
X134226260Y-101815000D01*
X134513158Y-101757932D01*
X134783411Y-101645990D01*
X135026632Y-101483475D01*
X135233475Y-101276632D01*
X135395990Y-101033411D01*
X135507932Y-100763158D01*
X135565000Y-100476260D01*
X135565000Y-100183740D01*
X135507932Y-99896842D01*
X135395990Y-99626589D01*
X135233475Y-99383368D01*
X135026632Y-99176525D01*
X134783411Y-99014010D01*
X134513158Y-98902068D01*
X134226260Y-98845000D01*
X133933740Y-98845000D01*
X133646842Y-98902068D01*
X133376589Y-99014010D01*
X133133368Y-99176525D01*
X132926525Y-99383368D01*
X132810000Y-99557760D01*
X132693475Y-99383368D01*
X132550000Y-99239893D01*
X132550000Y-95705107D01*
X132693475Y-95561632D01*
X132855990Y-95318411D01*
X132967932Y-95048158D01*
X133025000Y-94761260D01*
X133025000Y-94558355D01*
X133179094Y-94404261D01*
X133217633Y-94372633D01*
X133343847Y-94218840D01*
X133437632Y-94043380D01*
X133464691Y-93954180D01*
X133495385Y-93852995D01*
X133514886Y-93655001D01*
X133510000Y-93605393D01*
X133510000Y-90826537D01*
X133542252Y-90804987D01*
X133769987Y-90577252D01*
X133948918Y-90309463D01*
X134072168Y-90011912D01*
X134135000Y-89696033D01*
X134135000Y-89373967D01*
X134072168Y-89058088D01*
X133948918Y-88760537D01*
X133769987Y-88492748D01*
X133542252Y-88265013D01*
X133510000Y-88243463D01*
X133510000Y-84326537D01*
X133542252Y-84304987D01*
X133769987Y-84077252D01*
X133948918Y-83809463D01*
X134072168Y-83511912D01*
X134135000Y-83196033D01*
X134135000Y-82873967D01*
X134072168Y-82558088D01*
X133948918Y-82260537D01*
X133769987Y-81992748D01*
X133542252Y-81765013D01*
X133274463Y-81586082D01*
X132976912Y-81462832D01*
X132661033Y-81400000D01*
X132338967Y-81400000D01*
X132023088Y-81462832D01*
X131725537Y-81586082D01*
X131457748Y-81765013D01*
X131230013Y-81992748D01*
X131051082Y-82260537D01*
X130927832Y-82558088D01*
X130865000Y-82873967D01*
X130865000Y-83196033D01*
X130927832Y-83511912D01*
X131051082Y-83809463D01*
X131230013Y-84077252D01*
X131457748Y-84304987D01*
X131490000Y-84326537D01*
X131490001Y-88243462D01*
X131457748Y-88265013D01*
X131230013Y-88492748D01*
X131051082Y-88760537D01*
X130927832Y-89058088D01*
X130865000Y-89373967D01*
X130865000Y-89696033D01*
X130927832Y-90011912D01*
X131051082Y-90309463D01*
X131230013Y-90577252D01*
X131457748Y-90804987D01*
X131490000Y-90826537D01*
X131490001Y-93130000D01*
X131393740Y-93130000D01*
X131106842Y-93187068D01*
X130836589Y-93299010D01*
X130593368Y-93461525D01*
X130461513Y-93593380D01*
X130439502Y-93520820D01*
X130380537Y-93410506D01*
X130301185Y-93313815D01*
X130204494Y-93234463D01*
X130094180Y-93175498D01*
X129974482Y-93139188D01*
X129850000Y-93126928D01*
X129010000Y-93126928D01*
X129010000Y-90826537D01*
X129042252Y-90804987D01*
X129269987Y-90577252D01*
X129448918Y-90309463D01*
X129572168Y-90011912D01*
X129635000Y-89696033D01*
X129635000Y-89373967D01*
X129572168Y-89058088D01*
X129448918Y-88760537D01*
X129269987Y-88492748D01*
X129042252Y-88265013D01*
X129010000Y-88243463D01*
X129010000Y-84326537D01*
X129042252Y-84304987D01*
X129269987Y-84077252D01*
X129448918Y-83809463D01*
X129572168Y-83511912D01*
X129635000Y-83196033D01*
X129635000Y-82873967D01*
X129572168Y-82558088D01*
X129448918Y-82260537D01*
X129269987Y-81992748D01*
X129042252Y-81765013D01*
X128774463Y-81586082D01*
X128476912Y-81462832D01*
X128161033Y-81400000D01*
X127838967Y-81400000D01*
X127523088Y-81462832D01*
X127225537Y-81586082D01*
X126957748Y-81765013D01*
X126730013Y-81992748D01*
X126551082Y-82260537D01*
X126427832Y-82558088D01*
X126365000Y-82873967D01*
X126365000Y-83196033D01*
X126427832Y-83511912D01*
X126551082Y-83809463D01*
X126730013Y-84077252D01*
X126957748Y-84304987D01*
X126990000Y-84326537D01*
X126990001Y-88243462D01*
X126957748Y-88265013D01*
X126730013Y-88492748D01*
X126551082Y-88760537D01*
X126427832Y-89058088D01*
X126365000Y-89373967D01*
X126365000Y-89696033D01*
X126427832Y-90011912D01*
X126551082Y-90309463D01*
X126730013Y-90577252D01*
X126957748Y-90804987D01*
X126990000Y-90826537D01*
X126990001Y-93565382D01*
X126985114Y-93615000D01*
X127004615Y-93812994D01*
X127062368Y-94003379D01*
X127062369Y-94003380D01*
X127156154Y-94178840D01*
X127282368Y-94332633D01*
X127320901Y-94364256D01*
X127511928Y-94555283D01*
X127511928Y-95465000D01*
X127524188Y-95589482D01*
X127560498Y-95709180D01*
X127619463Y-95819494D01*
X127698815Y-95916185D01*
X127795506Y-95995537D01*
X127905820Y-96054502D01*
X127990000Y-96080038D01*
X127990001Y-98864962D01*
X127905820Y-98890498D01*
X127795506Y-98949463D01*
X127698815Y-99028815D01*
X127619463Y-99125506D01*
X127560498Y-99235820D01*
X127534962Y-99320000D01*
X126148355Y-99320000D01*
X125209261Y-98380906D01*
X125177633Y-98342367D01*
X125023840Y-98216153D01*
X124848380Y-98122368D01*
X124657994Y-98064615D01*
X124509608Y-98050000D01*
X124460000Y-98045114D01*
X124410392Y-98050000D01*
X123877975Y-98050000D01*
X123851013Y-98023038D01*
X123632359Y-97876939D01*
X123422470Y-97790000D01*
X123632359Y-97703061D01*
X123851013Y-97556962D01*
X124036962Y-97371013D01*
X124183061Y-97152359D01*
X124283696Y-96909405D01*
X124335000Y-96651486D01*
X124335000Y-96388514D01*
X124283696Y-96130595D01*
X124183061Y-95887641D01*
X124036962Y-95668987D01*
X123851013Y-95483038D01*
X123632359Y-95336939D01*
X123389405Y-95236304D01*
X123131486Y-95185000D01*
X122868514Y-95185000D01*
X122610595Y-95236304D01*
X122367641Y-95336939D01*
X122148987Y-95483038D01*
X122122025Y-95510000D01*
X109003356Y-95510000D01*
X100600000Y-87106645D01*
X100600000Y-78980107D01*
X100743475Y-78836632D01*
X100860000Y-78662240D01*
X100976525Y-78836632D01*
X101183368Y-79043475D01*
X101426589Y-79205990D01*
X101696842Y-79317932D01*
X101983740Y-79375000D01*
X102276260Y-79375000D01*
X102563158Y-79317932D01*
X102833411Y-79205990D01*
X103076632Y-79043475D01*
X103220107Y-78900000D01*
X105605612Y-78900000D01*
X105643038Y-78956013D01*
X105828987Y-79141962D01*
X106047641Y-79288061D01*
X106290595Y-79388696D01*
X106548514Y-79440000D01*
X106811486Y-79440000D01*
X107069405Y-79388696D01*
X107312359Y-79288061D01*
X107531013Y-79141962D01*
X107716962Y-78956013D01*
X107863061Y-78737359D01*
X107950000Y-78527470D01*
X108036939Y-78737359D01*
X108183038Y-78956013D01*
X108368987Y-79141962D01*
X108587641Y-79288061D01*
X108830595Y-79388696D01*
X109088514Y-79440000D01*
X109351486Y-79440000D01*
X109609405Y-79388696D01*
X109852359Y-79288061D01*
X110071013Y-79141962D01*
X110256962Y-78956013D01*
X110403061Y-78737359D01*
X110503696Y-78494405D01*
X110555000Y-78236486D01*
X110555000Y-77973514D01*
X110503696Y-77715595D01*
X110403061Y-77472641D01*
X110256962Y-77253987D01*
X110230000Y-77227025D01*
X110230000Y-77164659D01*
X110234886Y-77115051D01*
X110215385Y-76917056D01*
X110157632Y-76726671D01*
X110135629Y-76685506D01*
X110063847Y-76551211D01*
X109937633Y-76397418D01*
X109899099Y-76365794D01*
X109054210Y-75520905D01*
X109022582Y-75482367D01*
X108868789Y-75356153D01*
X108773088Y-75305000D01*
X110440392Y-75305000D01*
X110490000Y-75309886D01*
X110687994Y-75290385D01*
X110878380Y-75232632D01*
X111053840Y-75138847D01*
X111207633Y-75012633D01*
X111239261Y-74974094D01*
X112439094Y-73774261D01*
X112477633Y-73742633D01*
X112603847Y-73588840D01*
X112697632Y-73413380D01*
X112755385Y-73222994D01*
X112770000Y-73074608D01*
X112770000Y-73074606D01*
X112774886Y-73025001D01*
X112770000Y-72975396D01*
X112770000Y-64380776D01*
X116342116Y-64380776D01*
X116342116Y-65619224D01*
X116518365Y-66845067D01*
X116867276Y-68033349D01*
X117381746Y-69159881D01*
X118051302Y-70201730D01*
X118862313Y-71137687D01*
X119798270Y-71948698D01*
X120840119Y-72618254D01*
X121966651Y-73132724D01*
X123154933Y-73481635D01*
X124380776Y-73657884D01*
X125619224Y-73657884D01*
X126845067Y-73481635D01*
X128033349Y-73132724D01*
X129159881Y-72618254D01*
X130201730Y-71948698D01*
X131137687Y-71137687D01*
X131948698Y-70201730D01*
X132618254Y-69159881D01*
X133132724Y-68033349D01*
X133481635Y-66845067D01*
X133657884Y-65619224D01*
X133657884Y-64380776D01*
X133481635Y-63154933D01*
X133132724Y-61966651D01*
X132618254Y-60840119D01*
X131948698Y-59798270D01*
X131137687Y-58862313D01*
X130201730Y-58051302D01*
X129159881Y-57381746D01*
X128033349Y-56867276D01*
X126845067Y-56518365D01*
X125619224Y-56342116D01*
X124380776Y-56342116D01*
X123154933Y-56518365D01*
X121966651Y-56867276D01*
X120840119Y-57381746D01*
X119798270Y-58051302D01*
X118862313Y-58862313D01*
X118051302Y-59798270D01*
X117381746Y-60840119D01*
X116867276Y-61966651D01*
X116518365Y-63154933D01*
X116342116Y-64380776D01*
X112770000Y-64380776D01*
X112770000Y-55363355D01*
X113940283Y-54193072D01*
X114850000Y-54193072D01*
X114974482Y-54180812D01*
X115094180Y-54144502D01*
X115204494Y-54085537D01*
X115301185Y-54006185D01*
X115380537Y-53909494D01*
X115439502Y-53799180D01*
X115445359Y-53779872D01*
X133765000Y-53779872D01*
X133765000Y-54220128D01*
X133850890Y-54651925D01*
X134019369Y-55058669D01*
X134263962Y-55424729D01*
X134575271Y-55736038D01*
X134941331Y-55980631D01*
X135348075Y-56149110D01*
X135779872Y-56235000D01*
X136220128Y-56235000D01*
X136651925Y-56149110D01*
X137058669Y-55980631D01*
X137424729Y-55736038D01*
X137736038Y-55424729D01*
X137980631Y-55058669D01*
X138149110Y-54651925D01*
X138235000Y-54220128D01*
X138235000Y-53779872D01*
X138149110Y-53348075D01*
X137980631Y-52941331D01*
X137736038Y-52575271D01*
X137424729Y-52263962D01*
X137058669Y-52019369D01*
X136651925Y-51850890D01*
X136220128Y-51765000D01*
X135779872Y-51765000D01*
X135348075Y-51850890D01*
X134941331Y-52019369D01*
X134575271Y-52263962D01*
X134263962Y-52575271D01*
X134019369Y-52941331D01*
X133850890Y-53348075D01*
X133765000Y-53779872D01*
X115445359Y-53779872D01*
X115475812Y-53679482D01*
X115488072Y-53555000D01*
X115488072Y-51855000D01*
X115475812Y-51730518D01*
X115439502Y-51610820D01*
X115380537Y-51500506D01*
X115301185Y-51403815D01*
X115204494Y-51324463D01*
X115094180Y-51265498D01*
X114974482Y-51229188D01*
X114850000Y-51216928D01*
X113150000Y-51216928D01*
X113025518Y-51229188D01*
X112905820Y-51265498D01*
X112795506Y-51324463D01*
X112698815Y-51403815D01*
X112619463Y-51500506D01*
X112560498Y-51610820D01*
X112538487Y-51683380D01*
X112406632Y-51551525D01*
X112163411Y-51389010D01*
X111893158Y-51277068D01*
X111606260Y-51220000D01*
X111313740Y-51220000D01*
X111026842Y-51277068D01*
X110756589Y-51389010D01*
X110755107Y-51390000D01*
X109377975Y-51390000D01*
X109351013Y-51363038D01*
X109132359Y-51216939D01*
X108889405Y-51116304D01*
X108631486Y-51065000D01*
X108368514Y-51065000D01*
X108110595Y-51116304D01*
X107867641Y-51216939D01*
X107648987Y-51363038D01*
X107463038Y-51548987D01*
X107316939Y-51767641D01*
X107230000Y-51977530D01*
X107143061Y-51767641D01*
X106996962Y-51548987D01*
X106811013Y-51363038D01*
X106592359Y-51216939D01*
X106349405Y-51116304D01*
X106091486Y-51065000D01*
X105828514Y-51065000D01*
X105570595Y-51116304D01*
X105327641Y-51216939D01*
X105108987Y-51363038D01*
X104923038Y-51548987D01*
X104776939Y-51767641D01*
X104676304Y-52010595D01*
X104625000Y-52268514D01*
X104625000Y-52306645D01*
X104341645Y-52590000D01*
X103399870Y-52590000D01*
X103389502Y-52555820D01*
X103330537Y-52445506D01*
X103251185Y-52348815D01*
X103154494Y-52269463D01*
X103044180Y-52210498D01*
X102924482Y-52174188D01*
X102800000Y-52161928D01*
X101200000Y-52161928D01*
X101075518Y-52174188D01*
X100955820Y-52210498D01*
X100845506Y-52269463D01*
X100748815Y-52348815D01*
X100669463Y-52445506D01*
X100610498Y-52555820D01*
X100581339Y-52651943D01*
X100414759Y-52485363D01*
X100179727Y-52328320D01*
X99918574Y-52220147D01*
X99641335Y-52165000D01*
X99358665Y-52165000D01*
X99081426Y-52220147D01*
X98820273Y-52328320D01*
X98585241Y-52485363D01*
X98480604Y-52590000D01*
X79799608Y-52590000D01*
X79750000Y-52585114D01*
X79552005Y-52604615D01*
X79361620Y-52662368D01*
X79186160Y-52756153D01*
X79032367Y-52882367D01*
X79000743Y-52920901D01*
X78321645Y-53600000D01*
X77199607Y-53600000D01*
X77112704Y-53513097D01*
X77356671Y-53441514D01*
X77477571Y-53186004D01*
X77546300Y-52911816D01*
X77560217Y-52629488D01*
X77518787Y-52349870D01*
X77423603Y-52083708D01*
X77356671Y-51958486D01*
X77112702Y-51886903D01*
X76299605Y-52700000D01*
X76313748Y-52714143D01*
X76134143Y-52893748D01*
X76120000Y-52879605D01*
X76105858Y-52893748D01*
X75926253Y-52714143D01*
X75940395Y-52700000D01*
X75127298Y-51886903D01*
X74883329Y-51958486D01*
X74762429Y-52213996D01*
X74693700Y-52488184D01*
X74679783Y-52770512D01*
X74721213Y-53050130D01*
X74816397Y-53316292D01*
X74883329Y-53441514D01*
X75127296Y-53513097D01*
X75040393Y-53600000D01*
X73448356Y-53600000D01*
X72555000Y-52706645D01*
X72555000Y-52558665D01*
X72499853Y-52281426D01*
X72391680Y-52020273D01*
X72234637Y-51785241D01*
X72156694Y-51707298D01*
X75306903Y-51707298D01*
X76120000Y-52520395D01*
X76933097Y-51707298D01*
X76861514Y-51463329D01*
X76606004Y-51342429D01*
X76331816Y-51273700D01*
X76049488Y-51259783D01*
X75769870Y-51301213D01*
X75503708Y-51396397D01*
X75378486Y-51463329D01*
X75306903Y-51707298D01*
X72156694Y-51707298D01*
X72034759Y-51585363D01*
X71799727Y-51428320D01*
X71538574Y-51320147D01*
X71261335Y-51265000D01*
X70978665Y-51265000D01*
X70701426Y-51320147D01*
X70440273Y-51428320D01*
X70205241Y-51585363D01*
X70100604Y-51690000D01*
X69457975Y-51690000D01*
X69431013Y-51663038D01*
X69212359Y-51516939D01*
X68969405Y-51416304D01*
X68711486Y-51365000D01*
X68448514Y-51365000D01*
X68190595Y-51416304D01*
X67947641Y-51516939D01*
X67728987Y-51663038D01*
X67543038Y-51848987D01*
X67396939Y-52067641D01*
X67310000Y-52277530D01*
X67223061Y-52067641D01*
X67076962Y-51848987D01*
X66891013Y-51663038D01*
X66672359Y-51516939D01*
X66429405Y-51416304D01*
X66171486Y-51365000D01*
X65908514Y-51365000D01*
X65650595Y-51416304D01*
X65407641Y-51516939D01*
X65188987Y-51663038D01*
X65003038Y-51848987D01*
X64856939Y-52067641D01*
X64756304Y-52310595D01*
X64705000Y-52568514D01*
X64705000Y-52831486D01*
X64756304Y-53089405D01*
X64856939Y-53332359D01*
X65003038Y-53551013D01*
X65030001Y-53577976D01*
X65030000Y-55195392D01*
X65025114Y-55245000D01*
X65044615Y-55442994D01*
X65076357Y-55547632D01*
X65102368Y-55633379D01*
X65196153Y-55808840D01*
X65322367Y-55962633D01*
X65360906Y-55994261D01*
X65719162Y-56352517D01*
X65623368Y-56416525D01*
X65416525Y-56623368D01*
X65300000Y-56797760D01*
X65183475Y-56623368D01*
X64976632Y-56416525D01*
X64733411Y-56254010D01*
X64463158Y-56142068D01*
X64176260Y-56085000D01*
X63883740Y-56085000D01*
X63596842Y-56142068D01*
X63326589Y-56254010D01*
X63083368Y-56416525D01*
X62876525Y-56623368D01*
X62714010Y-56866589D01*
X62602068Y-57136842D01*
X62545000Y-57423740D01*
X62545000Y-57716260D01*
X62602068Y-58003158D01*
X62714010Y-58273411D01*
X62876525Y-58516632D01*
X63020001Y-58660108D01*
X63020000Y-59019893D01*
X62876525Y-59163368D01*
X62760000Y-59337760D01*
X62643475Y-59163368D01*
X62436632Y-58956525D01*
X62193411Y-58794010D01*
X61923158Y-58682068D01*
X61636260Y-58625000D01*
X61343740Y-58625000D01*
X61056842Y-58682068D01*
X60786589Y-58794010D01*
X60543368Y-58956525D01*
X60411513Y-59088380D01*
X60389502Y-59015820D01*
X60330537Y-58905506D01*
X60251185Y-58808815D01*
X60154494Y-58729463D01*
X60044180Y-58670498D01*
X59924482Y-58634188D01*
X59800000Y-58621928D01*
X59235750Y-58625000D01*
X59077000Y-58783750D01*
X59077000Y-59983000D01*
X59097000Y-59983000D01*
X59097000Y-60237000D01*
X59077000Y-60237000D01*
X59077000Y-61436250D01*
X59235750Y-61595000D01*
X59800000Y-61598072D01*
X59924482Y-61585812D01*
X60044180Y-61549502D01*
X60154494Y-61490537D01*
X60251185Y-61411185D01*
X60330537Y-61314494D01*
X60389502Y-61204180D01*
X60411513Y-61131620D01*
X60480000Y-61200107D01*
X60480001Y-63980382D01*
X60475114Y-64030000D01*
X60494615Y-64227994D01*
X60552368Y-64418379D01*
X60583365Y-64476370D01*
X60646154Y-64593840D01*
X60772368Y-64747633D01*
X60810901Y-64779256D01*
X65925739Y-69894094D01*
X65957367Y-69932633D01*
X66111160Y-70058847D01*
X66286620Y-70152632D01*
X66477006Y-70210385D01*
X66625392Y-70225000D01*
X66625394Y-70225000D01*
X66674999Y-70229886D01*
X66724604Y-70225000D01*
X68796645Y-70225000D01*
X69475000Y-70903355D01*
X69475001Y-73241644D01*
X68796645Y-73920000D01*
X53389604Y-73920000D01*
X53339999Y-73915114D01*
X53290394Y-73920000D01*
X53290392Y-73920000D01*
X53142006Y-73934615D01*
X52951620Y-73992368D01*
X52776160Y-74086153D01*
X52622367Y-74212367D01*
X52590739Y-74250906D01*
X51610010Y-75231635D01*
X51610010Y-71573816D01*
X52465000Y-71573816D01*
X52465000Y-71876184D01*
X52523989Y-72172743D01*
X52639701Y-72452095D01*
X52807688Y-72703505D01*
X53021495Y-72917312D01*
X53272905Y-73085299D01*
X53552257Y-73201011D01*
X53848816Y-73260000D01*
X54151184Y-73260000D01*
X54447743Y-73201011D01*
X54727095Y-73085299D01*
X54978505Y-72917312D01*
X55192312Y-72703505D01*
X55360299Y-72452095D01*
X55476011Y-72172743D01*
X55535000Y-71876184D01*
X55535000Y-71573816D01*
X55478266Y-71288589D01*
X55645000Y-71288589D01*
X55645000Y-71561411D01*
X55698225Y-71828989D01*
X55802629Y-72081043D01*
X55954201Y-72307886D01*
X56147114Y-72500799D01*
X56373957Y-72652371D01*
X56626011Y-72756775D01*
X56893589Y-72810000D01*
X57166411Y-72810000D01*
X57433989Y-72756775D01*
X57686043Y-72652371D01*
X57912886Y-72500799D01*
X58105799Y-72307886D01*
X58257371Y-72081043D01*
X58361775Y-71828989D01*
X58415000Y-71561411D01*
X58415000Y-71288589D01*
X58361775Y-71021011D01*
X58257371Y-70768957D01*
X58105799Y-70542114D01*
X57912886Y-70349201D01*
X57686043Y-70197629D01*
X57433989Y-70093225D01*
X57166411Y-70040000D01*
X56893589Y-70040000D01*
X56626011Y-70093225D01*
X56373957Y-70197629D01*
X56147114Y-70349201D01*
X55954201Y-70542114D01*
X55802629Y-70768957D01*
X55698225Y-71021011D01*
X55645000Y-71288589D01*
X55478266Y-71288589D01*
X55476011Y-71277257D01*
X55360299Y-70997905D01*
X55192312Y-70746495D01*
X54978505Y-70532688D01*
X54727095Y-70364701D01*
X54447743Y-70248989D01*
X54151184Y-70190000D01*
X53848816Y-70190000D01*
X53552257Y-70248989D01*
X53272905Y-70364701D01*
X53021495Y-70532688D01*
X52807688Y-70746495D01*
X52639701Y-70997905D01*
X52523989Y-71277257D01*
X52465000Y-71573816D01*
X51610010Y-71573816D01*
X51610010Y-66123816D01*
X52465000Y-66123816D01*
X52465000Y-66426184D01*
X52523989Y-66722743D01*
X52639701Y-67002095D01*
X52807688Y-67253505D01*
X53021495Y-67467312D01*
X53272905Y-67635299D01*
X53552257Y-67751011D01*
X53848816Y-67810000D01*
X54151184Y-67810000D01*
X54447743Y-67751011D01*
X54727095Y-67635299D01*
X54978505Y-67467312D01*
X55192312Y-67253505D01*
X55360299Y-67002095D01*
X55476011Y-66722743D01*
X55532532Y-66438589D01*
X55645000Y-66438589D01*
X55645000Y-66711411D01*
X55698225Y-66978989D01*
X55802629Y-67231043D01*
X55954201Y-67457886D01*
X56147114Y-67650799D01*
X56373957Y-67802371D01*
X56626011Y-67906775D01*
X56893589Y-67960000D01*
X57166411Y-67960000D01*
X57433989Y-67906775D01*
X57686043Y-67802371D01*
X57912886Y-67650799D01*
X58105799Y-67457886D01*
X58257371Y-67231043D01*
X58361775Y-66978989D01*
X58415000Y-66711411D01*
X58415000Y-66438589D01*
X58361775Y-66171011D01*
X58257371Y-65918957D01*
X58105799Y-65692114D01*
X57912886Y-65499201D01*
X57686043Y-65347629D01*
X57433989Y-65243225D01*
X57166411Y-65190000D01*
X56893589Y-65190000D01*
X56626011Y-65243225D01*
X56373957Y-65347629D01*
X56147114Y-65499201D01*
X55954201Y-65692114D01*
X55802629Y-65918957D01*
X55698225Y-66171011D01*
X55645000Y-66438589D01*
X55532532Y-66438589D01*
X55535000Y-66426184D01*
X55535000Y-66123816D01*
X55476011Y-65827257D01*
X55360299Y-65547905D01*
X55192312Y-65296495D01*
X54978505Y-65082688D01*
X54727095Y-64914701D01*
X54447743Y-64798989D01*
X54151184Y-64740000D01*
X53848816Y-64740000D01*
X53552257Y-64798989D01*
X53272905Y-64914701D01*
X53021495Y-65082688D01*
X52807688Y-65296495D01*
X52639701Y-65547905D01*
X52523989Y-65827257D01*
X52465000Y-66123816D01*
X51610010Y-66123816D01*
X51610010Y-65388345D01*
X52488356Y-64510000D01*
X55195392Y-64510000D01*
X55245000Y-64514886D01*
X55442994Y-64495385D01*
X55505678Y-64476370D01*
X55633380Y-64437632D01*
X55808840Y-64343847D01*
X55962633Y-64217633D01*
X55994261Y-64179094D01*
X57089099Y-63084257D01*
X57127633Y-63052633D01*
X57253847Y-62898840D01*
X57347632Y-62723380D01*
X57368025Y-62656153D01*
X57405385Y-62532995D01*
X57424886Y-62335000D01*
X57420000Y-62285392D01*
X57420000Y-61200107D01*
X57488487Y-61131620D01*
X57510498Y-61204180D01*
X57569463Y-61314494D01*
X57648815Y-61411185D01*
X57745506Y-61490537D01*
X57855820Y-61549502D01*
X57975518Y-61585812D01*
X58100000Y-61598072D01*
X58664250Y-61595000D01*
X58823000Y-61436250D01*
X58823000Y-60237000D01*
X58803000Y-60237000D01*
X58803000Y-59983000D01*
X58823000Y-59983000D01*
X58823000Y-58783750D01*
X58664250Y-58625000D01*
X58100000Y-58621928D01*
X57975518Y-58634188D01*
X57855820Y-58670498D01*
X57745506Y-58729463D01*
X57648815Y-58808815D01*
X57569463Y-58905506D01*
X57510498Y-59015820D01*
X57488487Y-59088380D01*
X57420000Y-59019893D01*
X57420000Y-58660107D01*
X57563475Y-58516632D01*
X57725990Y-58273411D01*
X57837932Y-58003158D01*
X57895000Y-57716260D01*
X57895000Y-57423740D01*
X57837932Y-57136842D01*
X57725990Y-56866589D01*
X57563475Y-56623368D01*
X57356632Y-56416525D01*
X57113411Y-56254010D01*
X56843158Y-56142068D01*
X56556260Y-56085000D01*
X56263740Y-56085000D01*
X55976842Y-56142068D01*
X55706589Y-56254010D01*
X55463368Y-56416525D01*
X55256525Y-56623368D01*
X55140000Y-56797760D01*
X55023475Y-56623368D01*
X54816632Y-56416525D01*
X54573411Y-56254010D01*
X54427792Y-56193693D01*
X54651925Y-56149110D01*
X55058669Y-55980631D01*
X55424729Y-55736038D01*
X55736038Y-55424729D01*
X55980631Y-55058669D01*
X56149110Y-54651925D01*
X56235000Y-54220128D01*
X56235000Y-53779872D01*
X56149110Y-53348075D01*
X55980631Y-52941331D01*
X55736038Y-52575271D01*
X55424729Y-52263962D01*
X55058669Y-52019369D01*
X54651925Y-51850890D01*
X54220128Y-51765000D01*
X53779872Y-51765000D01*
X53348075Y-51850890D01*
X52941331Y-52019369D01*
X52575271Y-52263962D01*
X52263962Y-52575271D01*
X52019369Y-52941331D01*
X51850890Y-53348075D01*
X51765000Y-53779872D01*
X51765000Y-54220128D01*
X51850890Y-54651925D01*
X52019369Y-55058669D01*
X52263962Y-55424729D01*
X52575271Y-55736038D01*
X52941331Y-55980631D01*
X53348075Y-56149110D01*
X53396558Y-56158754D01*
X53166589Y-56254010D01*
X52923368Y-56416525D01*
X52716525Y-56623368D01*
X52554010Y-56866589D01*
X52442068Y-57136842D01*
X52385000Y-57423740D01*
X52385000Y-57716260D01*
X52442068Y-58003158D01*
X52554010Y-58273411D01*
X52716525Y-58516632D01*
X52860001Y-58660108D01*
X52860000Y-59019893D01*
X52716525Y-59163368D01*
X52554010Y-59406589D01*
X52442068Y-59676842D01*
X52385000Y-59963740D01*
X52385000Y-60256260D01*
X52442068Y-60543158D01*
X52554010Y-60813411D01*
X52716525Y-61056632D01*
X52923368Y-61263475D01*
X53166589Y-61425990D01*
X53436842Y-61537932D01*
X53723740Y-61595000D01*
X54016260Y-61595000D01*
X54303158Y-61537932D01*
X54573411Y-61425990D01*
X54816632Y-61263475D01*
X55023475Y-61056632D01*
X55140000Y-60882240D01*
X55256525Y-61056632D01*
X55400000Y-61200107D01*
X55400001Y-61916643D01*
X54826645Y-62490000D01*
X52119608Y-62490000D01*
X52070000Y-62485114D01*
X51872005Y-62504615D01*
X51681620Y-62562368D01*
X51506160Y-62656153D01*
X51352367Y-62782367D01*
X51320744Y-62820900D01*
X50660000Y-63481644D01*
X50660000Y-50660000D01*
X139340000Y-50660000D01*
X139340001Y-119340000D01*
G37*
X139340001Y-119340000D02*
X50660000Y-119340000D01*
X50660000Y-115779872D01*
X51765000Y-115779872D01*
X51765000Y-116220128D01*
X51850890Y-116651925D01*
X52019369Y-117058669D01*
X52263962Y-117424729D01*
X52575271Y-117736038D01*
X52941331Y-117980631D01*
X53348075Y-118149110D01*
X53779872Y-118235000D01*
X54220128Y-118235000D01*
X54651925Y-118149110D01*
X55058669Y-117980631D01*
X55424729Y-117736038D01*
X55736038Y-117424729D01*
X55980631Y-117058669D01*
X56149110Y-116651925D01*
X56235000Y-116220128D01*
X56235000Y-115779872D01*
X133765000Y-115779872D01*
X133765000Y-116220128D01*
X133850890Y-116651925D01*
X134019369Y-117058669D01*
X134263962Y-117424729D01*
X134575271Y-117736038D01*
X134941331Y-117980631D01*
X135348075Y-118149110D01*
X135779872Y-118235000D01*
X136220128Y-118235000D01*
X136651925Y-118149110D01*
X137058669Y-117980631D01*
X137424729Y-117736038D01*
X137736038Y-117424729D01*
X137980631Y-117058669D01*
X138149110Y-116651925D01*
X138235000Y-116220128D01*
X138235000Y-115779872D01*
X138149110Y-115348075D01*
X137980631Y-114941331D01*
X137736038Y-114575271D01*
X137424729Y-114263962D01*
X137058669Y-114019369D01*
X136651925Y-113850890D01*
X136220128Y-113765000D01*
X135779872Y-113765000D01*
X135348075Y-113850890D01*
X134941331Y-114019369D01*
X134575271Y-114263962D01*
X134263962Y-114575271D01*
X134019369Y-114941331D01*
X133850890Y-115348075D01*
X133765000Y-115779872D01*
X56235000Y-115779872D01*
X56149110Y-115348075D01*
X55980631Y-114941331D01*
X55736038Y-114575271D01*
X55424729Y-114263962D01*
X55058669Y-114019369D01*
X54651925Y-113850890D01*
X54220128Y-113765000D01*
X53779872Y-113765000D01*
X53348075Y-113850890D01*
X52941331Y-114019369D01*
X52575271Y-114263962D01*
X52263962Y-114575271D01*
X52019369Y-114941331D01*
X51850890Y-115348075D01*
X51765000Y-115779872D01*
X50660000Y-115779872D01*
X50660000Y-108835413D01*
X59044192Y-108835413D01*
X59139956Y-109099814D01*
X59429571Y-109240704D01*
X59741108Y-109322384D01*
X60062595Y-109341718D01*
X60381675Y-109297961D01*
X60686088Y-109192795D01*
X60860044Y-109099814D01*
X60955808Y-108835413D01*
X60000000Y-107879605D01*
X59044192Y-108835413D01*
X50660000Y-108835413D01*
X50660000Y-107762595D01*
X58358282Y-107762595D01*
X58402039Y-108081675D01*
X58507205Y-108386088D01*
X58600186Y-108560044D01*
X58864587Y-108655808D01*
X59820395Y-107700000D01*
X60179605Y-107700000D01*
X61135413Y-108655808D01*
X61399814Y-108560044D01*
X61540704Y-108270429D01*
X61622384Y-107958892D01*
X61641718Y-107637405D01*
X61619440Y-107474947D01*
X84880000Y-107474947D01*
X84880000Y-107925053D01*
X84967811Y-108366510D01*
X85140059Y-108782353D01*
X85390125Y-109156603D01*
X85708397Y-109474875D01*
X86082647Y-109724941D01*
X86498490Y-109897189D01*
X86939947Y-109985000D01*
X87390053Y-109985000D01*
X87831510Y-109897189D01*
X88247353Y-109724941D01*
X88621603Y-109474875D01*
X88939875Y-109156603D01*
X89189941Y-108782353D01*
X89362189Y-108366510D01*
X89450000Y-107925053D01*
X89450000Y-107474947D01*
X89362189Y-107033490D01*
X89189941Y-106617647D01*
X88939875Y-106243397D01*
X88621603Y-105925125D01*
X88247353Y-105675059D01*
X87831510Y-105502811D01*
X87390053Y-105415000D01*
X86939947Y-105415000D01*
X86498490Y-105502811D01*
X86082647Y-105675059D01*
X85708397Y-105925125D01*
X85390125Y-106243397D01*
X85140059Y-106617647D01*
X84967811Y-107033490D01*
X84880000Y-107474947D01*
X61619440Y-107474947D01*
X61597961Y-107318325D01*
X61492795Y-107013912D01*
X61399814Y-106839956D01*
X61135413Y-106744192D01*
X60179605Y-107700000D01*
X59820395Y-107700000D01*
X58864587Y-106744192D01*
X58600186Y-106839956D01*
X58459296Y-107129571D01*
X58377616Y-107441108D01*
X58358282Y-107762595D01*
X50660000Y-107762595D01*
X50660000Y-106564587D01*
X59044192Y-106564587D01*
X60000000Y-107520395D01*
X60955808Y-106564587D01*
X60860044Y-106300186D01*
X60570429Y-106159296D01*
X60258892Y-106077616D01*
X59937405Y-106058282D01*
X59618325Y-106102039D01*
X59313912Y-106207205D01*
X59139956Y-106300186D01*
X59044192Y-106564587D01*
X50660000Y-106564587D01*
X50660000Y-101956890D01*
X52533524Y-101956890D01*
X52578175Y-102104099D01*
X52703359Y-102366920D01*
X52877412Y-102600269D01*
X53093645Y-102795178D01*
X53343748Y-102944157D01*
X53618109Y-103041481D01*
X53848000Y-102920814D01*
X53848000Y-101727000D01*
X54102000Y-101727000D01*
X54102000Y-102920814D01*
X54331891Y-103041481D01*
X54606252Y-102944157D01*
X54856355Y-102795178D01*
X55072588Y-102600269D01*
X55246641Y-102366920D01*
X55371825Y-102104099D01*
X55416476Y-101956890D01*
X55295155Y-101727000D01*
X54102000Y-101727000D01*
X53848000Y-101727000D01*
X52654845Y-101727000D01*
X52533524Y-101956890D01*
X50660000Y-101956890D01*
X50660000Y-88283355D01*
X55086645Y-92710000D01*
X53295901Y-94500744D01*
X53257368Y-94532367D01*
X53225745Y-94570900D01*
X53225744Y-94570901D01*
X53131154Y-94686160D01*
X53037368Y-94861621D01*
X52979615Y-95052006D01*
X52960114Y-95250000D01*
X52965001Y-95299618D01*
X52965000Y-97594962D01*
X52880820Y-97620498D01*
X52770506Y-97679463D01*
X52673815Y-97758815D01*
X52594463Y-97855506D01*
X52535498Y-97965820D01*
X52499188Y-98085518D01*
X52486928Y-98210000D01*
X52486928Y-99910000D01*
X52499188Y-100034482D01*
X52535498Y-100154180D01*
X52594463Y-100264494D01*
X52673815Y-100361185D01*
X52770506Y-100440537D01*
X52880820Y-100499502D01*
X52961466Y-100523966D01*
X52877412Y-100599731D01*
X52703359Y-100833080D01*
X52578175Y-101095901D01*
X52533524Y-101243110D01*
X52654845Y-101473000D01*
X53848000Y-101473000D01*
X53848000Y-101453000D01*
X54102000Y-101453000D01*
X54102000Y-101473000D01*
X55295155Y-101473000D01*
X55416476Y-101243110D01*
X55371825Y-101095901D01*
X55246641Y-100833080D01*
X55072588Y-100599731D01*
X54988534Y-100523966D01*
X55069180Y-100499502D01*
X55179494Y-100440537D01*
X55276185Y-100361185D01*
X55355537Y-100264494D01*
X55414502Y-100154180D01*
X55450812Y-100034482D01*
X55463072Y-99910000D01*
X55463072Y-98210000D01*
X55450812Y-98085518D01*
X55414502Y-97965820D01*
X55355537Y-97855506D01*
X55276185Y-97758815D01*
X55179494Y-97679463D01*
X55069180Y-97620498D01*
X54985000Y-97594962D01*
X54985000Y-95668355D01*
X56933356Y-93720000D01*
X58362913Y-93720000D01*
X58374188Y-93834482D01*
X58410498Y-93954180D01*
X58469463Y-94064494D01*
X58548815Y-94161185D01*
X58645506Y-94240537D01*
X58755820Y-94299502D01*
X58875518Y-94335812D01*
X59000000Y-94348072D01*
X61000000Y-94348072D01*
X61124482Y-94335812D01*
X61244180Y-94299502D01*
X61354494Y-94240537D01*
X61451185Y-94161185D01*
X61530537Y-94064494D01*
X61589502Y-93954180D01*
X61625812Y-93834482D01*
X61637087Y-93720000D01*
X62446645Y-93720000D01*
X70370743Y-101644099D01*
X70402367Y-101682633D01*
X70556160Y-101808847D01*
X70642720Y-101855114D01*
X70731620Y-101902632D01*
X70922005Y-101960385D01*
X71120000Y-101979886D01*
X71169608Y-101975000D01*
X109831645Y-101975000D01*
X120535744Y-112679100D01*
X120567367Y-112717633D01*
X120721160Y-112843847D01*
X120828485Y-112901213D01*
X120896620Y-112937632D01*
X121087005Y-112995385D01*
X121285000Y-113014886D01*
X121334608Y-113010000D01*
X123122025Y-113010000D01*
X123148987Y-113036962D01*
X123367641Y-113183061D01*
X123610595Y-113283696D01*
X123868514Y-113335000D01*
X124131486Y-113335000D01*
X124389405Y-113283696D01*
X124632359Y-113183061D01*
X124851013Y-113036962D01*
X125036962Y-112851013D01*
X125183061Y-112632359D01*
X125283696Y-112389405D01*
X125335000Y-112131486D01*
X125335000Y-111868514D01*
X125283696Y-111610595D01*
X125183061Y-111367641D01*
X125036962Y-111148987D01*
X124851013Y-110963038D01*
X124632359Y-110816939D01*
X124422470Y-110730000D01*
X124632359Y-110643061D01*
X124851013Y-110496962D01*
X125036962Y-110311013D01*
X125183061Y-110092359D01*
X125283696Y-109849405D01*
X125335000Y-109591486D01*
X125335000Y-109553355D01*
X125990001Y-108898354D01*
X125990000Y-112065392D01*
X125985114Y-112115000D01*
X125990000Y-112164607D01*
X126004615Y-112312993D01*
X126062368Y-112503379D01*
X126156153Y-112678840D01*
X126282367Y-112832633D01*
X126320906Y-112864261D01*
X126450628Y-112993983D01*
X126383815Y-113048815D01*
X126304463Y-113145506D01*
X126245498Y-113255820D01*
X126209188Y-113375518D01*
X126196928Y-113500000D01*
X126196928Y-115100000D01*
X126209188Y-115224482D01*
X126245498Y-115344180D01*
X126304463Y-115454494D01*
X126383815Y-115551185D01*
X126480506Y-115630537D01*
X126590820Y-115689502D01*
X126710518Y-115725812D01*
X126835000Y-115738072D01*
X128435000Y-115738072D01*
X128559482Y-115725812D01*
X128679180Y-115689502D01*
X128789494Y-115630537D01*
X128886185Y-115551185D01*
X128965537Y-115454494D01*
X129024502Y-115344180D01*
X129040117Y-115292702D01*
X129321903Y-115292702D01*
X129393486Y-115536671D01*
X129648996Y-115657571D01*
X129923184Y-115726300D01*
X130205512Y-115740217D01*
X130485130Y-115698787D01*
X130751292Y-115603603D01*
X130876514Y-115536671D01*
X130948097Y-115292702D01*
X130135000Y-114479605D01*
X129321903Y-115292702D01*
X129040117Y-115292702D01*
X129060812Y-115224482D01*
X129073072Y-115100000D01*
X129073072Y-115092785D01*
X129142298Y-115113097D01*
X129955395Y-114300000D01*
X130314605Y-114300000D01*
X131127702Y-115113097D01*
X131371671Y-115041514D01*
X131492571Y-114786004D01*
X131561300Y-114511816D01*
X131575217Y-114229488D01*
X131533787Y-113949870D01*
X131438603Y-113683708D01*
X131371671Y-113558486D01*
X131127702Y-113486903D01*
X130314605Y-114300000D01*
X129955395Y-114300000D01*
X129142298Y-113486903D01*
X129073072Y-113507215D01*
X129073072Y-113500000D01*
X129060812Y-113375518D01*
X129040118Y-113307298D01*
X129321903Y-113307298D01*
X130135000Y-114120395D01*
X130948097Y-113307298D01*
X130876514Y-113063329D01*
X130621004Y-112942429D01*
X130346816Y-112873700D01*
X130064488Y-112859783D01*
X129784870Y-112901213D01*
X129518708Y-112996397D01*
X129393486Y-113063329D01*
X129321903Y-113307298D01*
X129040118Y-113307298D01*
X129024502Y-113255820D01*
X128965537Y-113145506D01*
X128886185Y-113048815D01*
X128789494Y-112969463D01*
X128679180Y-112910498D01*
X128645000Y-112900130D01*
X128645000Y-112799608D01*
X128649886Y-112750000D01*
X128630385Y-112552005D01*
X128572632Y-112361620D01*
X128546640Y-112312993D01*
X128478847Y-112186160D01*
X128352633Y-112032367D01*
X128314094Y-112000739D01*
X128010000Y-111696645D01*
X128010000Y-108918330D01*
X130707278Y-108918330D01*
X130797147Y-109164123D01*
X130933241Y-109387660D01*
X131110330Y-109580351D01*
X131321608Y-109734792D01*
X131558956Y-109845047D01*
X131666671Y-109877716D01*
X131873000Y-109754374D01*
X131873000Y-108712000D01*
X132127000Y-108712000D01*
X132127000Y-109754374D01*
X132333329Y-109877716D01*
X132441044Y-109845047D01*
X132678392Y-109734792D01*
X132889670Y-109580351D01*
X133066759Y-109387660D01*
X133202853Y-109164123D01*
X133292722Y-108918330D01*
X133170201Y-108712000D01*
X132127000Y-108712000D01*
X131873000Y-108712000D01*
X130829799Y-108712000D01*
X130707278Y-108918330D01*
X128010000Y-108918330D01*
X128010000Y-107779608D01*
X128014886Y-107730000D01*
X127995385Y-107532005D01*
X127937632Y-107341620D01*
X127879612Y-107233072D01*
X127843847Y-107166160D01*
X127717633Y-107012367D01*
X127679094Y-106980739D01*
X127375000Y-106676645D01*
X127375000Y-105459608D01*
X127379886Y-105410000D01*
X127360385Y-105212005D01*
X127302632Y-105021620D01*
X127276641Y-104972994D01*
X127208847Y-104846160D01*
X127082633Y-104692367D01*
X127044094Y-104660739D01*
X127033072Y-104649717D01*
X127033072Y-104500000D01*
X127015528Y-104321868D01*
X126963569Y-104150582D01*
X126879192Y-103992724D01*
X126765639Y-103854361D01*
X126627276Y-103740808D01*
X126469418Y-103656431D01*
X126298132Y-103604472D01*
X126120000Y-103586928D01*
X124870000Y-103586928D01*
X124691868Y-103604472D01*
X124601120Y-103632000D01*
X123552000Y-103632000D01*
X123552000Y-103652000D01*
X123298000Y-103652000D01*
X123298000Y-103632000D01*
X122048750Y-103632000D01*
X121915750Y-103765000D01*
X121068356Y-103765000D01*
X120258356Y-102955000D01*
X121886928Y-102955000D01*
X121890000Y-103219250D01*
X122048750Y-103378000D01*
X123298000Y-103378000D01*
X123298000Y-102478750D01*
X123552000Y-102478750D01*
X123552000Y-103378000D01*
X124801250Y-103378000D01*
X124960000Y-103219250D01*
X124963072Y-102955000D01*
X124950812Y-102830518D01*
X124914502Y-102710820D01*
X124855537Y-102600506D01*
X124776185Y-102503815D01*
X124679494Y-102424463D01*
X124569180Y-102365498D01*
X124449482Y-102329188D01*
X124325000Y-102316928D01*
X123710750Y-102320000D01*
X123552000Y-102478750D01*
X123298000Y-102478750D01*
X123139250Y-102320000D01*
X122525000Y-102316928D01*
X122400518Y-102329188D01*
X122280820Y-102365498D01*
X122170506Y-102424463D01*
X122073815Y-102503815D01*
X121994463Y-102600506D01*
X121935498Y-102710820D01*
X121899188Y-102830518D01*
X121886928Y-102955000D01*
X120258356Y-102955000D01*
X119755000Y-102451645D01*
X119755000Y-100748355D01*
X120433355Y-100070000D01*
X122122025Y-100070000D01*
X122148987Y-100096962D01*
X122367641Y-100243061D01*
X122610595Y-100343696D01*
X122868514Y-100395000D01*
X123131486Y-100395000D01*
X123389405Y-100343696D01*
X123632359Y-100243061D01*
X123851013Y-100096962D01*
X123877975Y-100070000D01*
X124041645Y-100070000D01*
X124980739Y-101009094D01*
X125012367Y-101047633D01*
X125166160Y-101173847D01*
X125341620Y-101267632D01*
X125532006Y-101325385D01*
X125680392Y-101340000D01*
X125680394Y-101340000D01*
X125729999Y-101344886D01*
X125779604Y-101340000D01*
X127534962Y-101340000D01*
X127560498Y-101424180D01*
X127619463Y-101534494D01*
X127698815Y-101631185D01*
X127795506Y-101710537D01*
X127905820Y-101769502D01*
X128025518Y-101805812D01*
X128150000Y-101818072D01*
X129850000Y-101818072D01*
X129974482Y-101805812D01*
X130094180Y-101769502D01*
X130204494Y-101710537D01*
X130301185Y-101631185D01*
X130380537Y-101534494D01*
X130439502Y-101424180D01*
X130461513Y-101351620D01*
X130530000Y-101420107D01*
X130530001Y-102915383D01*
X130525114Y-102965000D01*
X130544615Y-103162994D01*
X130602368Y-103353379D01*
X130696154Y-103528840D01*
X130822368Y-103682633D01*
X130860902Y-103714257D01*
X130990000Y-103843355D01*
X130990001Y-105167024D01*
X130963038Y-105193987D01*
X130816939Y-105412641D01*
X130716304Y-105655595D01*
X130665000Y-105913514D01*
X130665000Y-106176486D01*
X130716304Y-106434405D01*
X130816939Y-106677359D01*
X130963038Y-106896013D01*
X131148987Y-107081962D01*
X131367641Y-107228061D01*
X131583550Y-107317494D01*
X131558956Y-107324953D01*
X131321608Y-107435208D01*
X131110330Y-107589649D01*
X130933241Y-107782340D01*
X130797147Y-108005877D01*
X130707278Y-108251670D01*
X130829799Y-108458000D01*
X131873000Y-108458000D01*
X131873000Y-108438000D01*
X132127000Y-108438000D01*
X132127000Y-108458000D01*
X133170201Y-108458000D01*
X133292722Y-108251670D01*
X133202853Y-108005877D01*
X133066759Y-107782340D01*
X132889670Y-107589649D01*
X132678392Y-107435208D01*
X132441044Y-107324953D01*
X132416450Y-107317494D01*
X132632359Y-107228061D01*
X132851013Y-107081962D01*
X133036962Y-106896013D01*
X133183061Y-106677359D01*
X133283696Y-106434405D01*
X133335000Y-106176486D01*
X133335000Y-105913514D01*
X133283696Y-105655595D01*
X133183061Y-105412641D01*
X133036962Y-105193987D01*
X133010000Y-105167025D01*
X133010000Y-103474604D01*
X133014886Y-103424999D01*
X133007832Y-103353379D01*
X132995385Y-103227006D01*
X132937632Y-103036620D01*
X132843847Y-102861160D01*
X132717633Y-102707367D01*
X132679089Y-102675735D01*
X132550000Y-102546646D01*
X132550000Y-101420107D01*
X132693475Y-101276632D01*
X132810000Y-101102240D01*
X132926525Y-101276632D01*
X133133368Y-101483475D01*
X133376589Y-101645990D01*
X133646842Y-101757932D01*
X133933740Y-101815000D01*
X134226260Y-101815000D01*
X134513158Y-101757932D01*
X134783411Y-101645990D01*
X135026632Y-101483475D01*
X135233475Y-101276632D01*
X135395990Y-101033411D01*
X135507932Y-100763158D01*
X135565000Y-100476260D01*
X135565000Y-100183740D01*
X135507932Y-99896842D01*
X135395990Y-99626589D01*
X135233475Y-99383368D01*
X135026632Y-99176525D01*
X134783411Y-99014010D01*
X134513158Y-98902068D01*
X134226260Y-98845000D01*
X133933740Y-98845000D01*
X133646842Y-98902068D01*
X133376589Y-99014010D01*
X133133368Y-99176525D01*
X132926525Y-99383368D01*
X132810000Y-99557760D01*
X132693475Y-99383368D01*
X132550000Y-99239893D01*
X132550000Y-95705107D01*
X132693475Y-95561632D01*
X132855990Y-95318411D01*
X132967932Y-95048158D01*
X133025000Y-94761260D01*
X133025000Y-94558355D01*
X133179094Y-94404261D01*
X133217633Y-94372633D01*
X133343847Y-94218840D01*
X133437632Y-94043380D01*
X133464691Y-93954180D01*
X133495385Y-93852995D01*
X133514886Y-93655001D01*
X133510000Y-93605393D01*
X133510000Y-90826537D01*
X133542252Y-90804987D01*
X133769987Y-90577252D01*
X133948918Y-90309463D01*
X134072168Y-90011912D01*
X134135000Y-89696033D01*
X134135000Y-89373967D01*
X134072168Y-89058088D01*
X133948918Y-88760537D01*
X133769987Y-88492748D01*
X133542252Y-88265013D01*
X133510000Y-88243463D01*
X133510000Y-84326537D01*
X133542252Y-84304987D01*
X133769987Y-84077252D01*
X133948918Y-83809463D01*
X134072168Y-83511912D01*
X134135000Y-83196033D01*
X134135000Y-82873967D01*
X134072168Y-82558088D01*
X133948918Y-82260537D01*
X133769987Y-81992748D01*
X133542252Y-81765013D01*
X133274463Y-81586082D01*
X132976912Y-81462832D01*
X132661033Y-81400000D01*
X132338967Y-81400000D01*
X132023088Y-81462832D01*
X131725537Y-81586082D01*
X131457748Y-81765013D01*
X131230013Y-81992748D01*
X131051082Y-82260537D01*
X130927832Y-82558088D01*
X130865000Y-82873967D01*
X130865000Y-83196033D01*
X130927832Y-83511912D01*
X131051082Y-83809463D01*
X131230013Y-84077252D01*
X131457748Y-84304987D01*
X131490000Y-84326537D01*
X131490001Y-88243462D01*
X131457748Y-88265013D01*
X131230013Y-88492748D01*
X131051082Y-88760537D01*
X130927832Y-89058088D01*
X130865000Y-89373967D01*
X130865000Y-89696033D01*
X130927832Y-90011912D01*
X131051082Y-90309463D01*
X131230013Y-90577252D01*
X131457748Y-90804987D01*
X131490000Y-90826537D01*
X131490001Y-93130000D01*
X131393740Y-93130000D01*
X131106842Y-93187068D01*
X130836589Y-93299010D01*
X130593368Y-93461525D01*
X130461513Y-93593380D01*
X130439502Y-93520820D01*
X130380537Y-93410506D01*
X130301185Y-93313815D01*
X130204494Y-93234463D01*
X130094180Y-93175498D01*
X129974482Y-93139188D01*
X129850000Y-93126928D01*
X129010000Y-93126928D01*
X129010000Y-90826537D01*
X129042252Y-90804987D01*
X129269987Y-90577252D01*
X129448918Y-90309463D01*
X129572168Y-90011912D01*
X129635000Y-89696033D01*
X129635000Y-89373967D01*
X129572168Y-89058088D01*
X129448918Y-88760537D01*
X129269987Y-88492748D01*
X129042252Y-88265013D01*
X129010000Y-88243463D01*
X129010000Y-84326537D01*
X129042252Y-84304987D01*
X129269987Y-84077252D01*
X129448918Y-83809463D01*
X129572168Y-83511912D01*
X129635000Y-83196033D01*
X129635000Y-82873967D01*
X129572168Y-82558088D01*
X129448918Y-82260537D01*
X129269987Y-81992748D01*
X129042252Y-81765013D01*
X128774463Y-81586082D01*
X128476912Y-81462832D01*
X128161033Y-81400000D01*
X127838967Y-81400000D01*
X127523088Y-81462832D01*
X127225537Y-81586082D01*
X126957748Y-81765013D01*
X126730013Y-81992748D01*
X126551082Y-82260537D01*
X126427832Y-82558088D01*
X126365000Y-82873967D01*
X126365000Y-83196033D01*
X126427832Y-83511912D01*
X126551082Y-83809463D01*
X126730013Y-84077252D01*
X126957748Y-84304987D01*
X126990000Y-84326537D01*
X126990001Y-88243462D01*
X126957748Y-88265013D01*
X126730013Y-88492748D01*
X126551082Y-88760537D01*
X126427832Y-89058088D01*
X126365000Y-89373967D01*
X126365000Y-89696033D01*
X126427832Y-90011912D01*
X126551082Y-90309463D01*
X126730013Y-90577252D01*
X126957748Y-90804987D01*
X126990000Y-90826537D01*
X126990001Y-93565382D01*
X126985114Y-93615000D01*
X127004615Y-93812994D01*
X127062368Y-94003379D01*
X127062369Y-94003380D01*
X127156154Y-94178840D01*
X127282368Y-94332633D01*
X127320901Y-94364256D01*
X127511928Y-94555283D01*
X127511928Y-95465000D01*
X127524188Y-95589482D01*
X127560498Y-95709180D01*
X127619463Y-95819494D01*
X127698815Y-95916185D01*
X127795506Y-95995537D01*
X127905820Y-96054502D01*
X127990000Y-96080038D01*
X127990001Y-98864962D01*
X127905820Y-98890498D01*
X127795506Y-98949463D01*
X127698815Y-99028815D01*
X127619463Y-99125506D01*
X127560498Y-99235820D01*
X127534962Y-99320000D01*
X126148355Y-99320000D01*
X125209261Y-98380906D01*
X125177633Y-98342367D01*
X125023840Y-98216153D01*
X124848380Y-98122368D01*
X124657994Y-98064615D01*
X124509608Y-98050000D01*
X124460000Y-98045114D01*
X124410392Y-98050000D01*
X123877975Y-98050000D01*
X123851013Y-98023038D01*
X123632359Y-97876939D01*
X123422470Y-97790000D01*
X123632359Y-97703061D01*
X123851013Y-97556962D01*
X124036962Y-97371013D01*
X124183061Y-97152359D01*
X124283696Y-96909405D01*
X124335000Y-96651486D01*
X124335000Y-96388514D01*
X124283696Y-96130595D01*
X124183061Y-95887641D01*
X124036962Y-95668987D01*
X123851013Y-95483038D01*
X123632359Y-95336939D01*
X123389405Y-95236304D01*
X123131486Y-95185000D01*
X122868514Y-95185000D01*
X122610595Y-95236304D01*
X122367641Y-95336939D01*
X122148987Y-95483038D01*
X122122025Y-95510000D01*
X109003356Y-95510000D01*
X100600000Y-87106645D01*
X100600000Y-78980107D01*
X100743475Y-78836632D01*
X100860000Y-78662240D01*
X100976525Y-78836632D01*
X101183368Y-79043475D01*
X101426589Y-79205990D01*
X101696842Y-79317932D01*
X101983740Y-79375000D01*
X102276260Y-79375000D01*
X102563158Y-79317932D01*
X102833411Y-79205990D01*
X103076632Y-79043475D01*
X103220107Y-78900000D01*
X105605612Y-78900000D01*
X105643038Y-78956013D01*
X105828987Y-79141962D01*
X106047641Y-79288061D01*
X106290595Y-79388696D01*
X106548514Y-79440000D01*
X106811486Y-79440000D01*
X107069405Y-79388696D01*
X107312359Y-79288061D01*
X107531013Y-79141962D01*
X107716962Y-78956013D01*
X107863061Y-78737359D01*
X107950000Y-78527470D01*
X108036939Y-78737359D01*
X108183038Y-78956013D01*
X108368987Y-79141962D01*
X108587641Y-79288061D01*
X108830595Y-79388696D01*
X109088514Y-79440000D01*
X109351486Y-79440000D01*
X109609405Y-79388696D01*
X109852359Y-79288061D01*
X110071013Y-79141962D01*
X110256962Y-78956013D01*
X110403061Y-78737359D01*
X110503696Y-78494405D01*
X110555000Y-78236486D01*
X110555000Y-77973514D01*
X110503696Y-77715595D01*
X110403061Y-77472641D01*
X110256962Y-77253987D01*
X110230000Y-77227025D01*
X110230000Y-77164659D01*
X110234886Y-77115051D01*
X110215385Y-76917056D01*
X110157632Y-76726671D01*
X110135629Y-76685506D01*
X110063847Y-76551211D01*
X109937633Y-76397418D01*
X109899099Y-76365794D01*
X109054210Y-75520905D01*
X109022582Y-75482367D01*
X108868789Y-75356153D01*
X108773088Y-75305000D01*
X110440392Y-75305000D01*
X110490000Y-75309886D01*
X110687994Y-75290385D01*
X110878380Y-75232632D01*
X111053840Y-75138847D01*
X111207633Y-75012633D01*
X111239261Y-74974094D01*
X112439094Y-73774261D01*
X112477633Y-73742633D01*
X112603847Y-73588840D01*
X112697632Y-73413380D01*
X112755385Y-73222994D01*
X112770000Y-73074608D01*
X112770000Y-73074606D01*
X112774886Y-73025001D01*
X112770000Y-72975396D01*
X112770000Y-64380776D01*
X116342116Y-64380776D01*
X116342116Y-65619224D01*
X116518365Y-66845067D01*
X116867276Y-68033349D01*
X117381746Y-69159881D01*
X118051302Y-70201730D01*
X118862313Y-71137687D01*
X119798270Y-71948698D01*
X120840119Y-72618254D01*
X121966651Y-73132724D01*
X123154933Y-73481635D01*
X124380776Y-73657884D01*
X125619224Y-73657884D01*
X126845067Y-73481635D01*
X128033349Y-73132724D01*
X129159881Y-72618254D01*
X130201730Y-71948698D01*
X131137687Y-71137687D01*
X131948698Y-70201730D01*
X132618254Y-69159881D01*
X133132724Y-68033349D01*
X133481635Y-66845067D01*
X133657884Y-65619224D01*
X133657884Y-64380776D01*
X133481635Y-63154933D01*
X133132724Y-61966651D01*
X132618254Y-60840119D01*
X131948698Y-59798270D01*
X131137687Y-58862313D01*
X130201730Y-58051302D01*
X129159881Y-57381746D01*
X128033349Y-56867276D01*
X126845067Y-56518365D01*
X125619224Y-56342116D01*
X124380776Y-56342116D01*
X123154933Y-56518365D01*
X121966651Y-56867276D01*
X120840119Y-57381746D01*
X119798270Y-58051302D01*
X118862313Y-58862313D01*
X118051302Y-59798270D01*
X117381746Y-60840119D01*
X116867276Y-61966651D01*
X116518365Y-63154933D01*
X116342116Y-64380776D01*
X112770000Y-64380776D01*
X112770000Y-55363355D01*
X113940283Y-54193072D01*
X114850000Y-54193072D01*
X114974482Y-54180812D01*
X115094180Y-54144502D01*
X115204494Y-54085537D01*
X115301185Y-54006185D01*
X115380537Y-53909494D01*
X115439502Y-53799180D01*
X115445359Y-53779872D01*
X133765000Y-53779872D01*
X133765000Y-54220128D01*
X133850890Y-54651925D01*
X134019369Y-55058669D01*
X134263962Y-55424729D01*
X134575271Y-55736038D01*
X134941331Y-55980631D01*
X135348075Y-56149110D01*
X135779872Y-56235000D01*
X136220128Y-56235000D01*
X136651925Y-56149110D01*
X137058669Y-55980631D01*
X137424729Y-55736038D01*
X137736038Y-55424729D01*
X137980631Y-55058669D01*
X138149110Y-54651925D01*
X138235000Y-54220128D01*
X138235000Y-53779872D01*
X138149110Y-53348075D01*
X137980631Y-52941331D01*
X137736038Y-52575271D01*
X137424729Y-52263962D01*
X137058669Y-52019369D01*
X136651925Y-51850890D01*
X136220128Y-51765000D01*
X135779872Y-51765000D01*
X135348075Y-51850890D01*
X134941331Y-52019369D01*
X134575271Y-52263962D01*
X134263962Y-52575271D01*
X134019369Y-52941331D01*
X133850890Y-53348075D01*
X133765000Y-53779872D01*
X115445359Y-53779872D01*
X115475812Y-53679482D01*
X115488072Y-53555000D01*
X115488072Y-51855000D01*
X115475812Y-51730518D01*
X115439502Y-51610820D01*
X115380537Y-51500506D01*
X115301185Y-51403815D01*
X115204494Y-51324463D01*
X115094180Y-51265498D01*
X114974482Y-51229188D01*
X114850000Y-51216928D01*
X113150000Y-51216928D01*
X113025518Y-51229188D01*
X112905820Y-51265498D01*
X112795506Y-51324463D01*
X112698815Y-51403815D01*
X112619463Y-51500506D01*
X112560498Y-51610820D01*
X112538487Y-51683380D01*
X112406632Y-51551525D01*
X112163411Y-51389010D01*
X111893158Y-51277068D01*
X111606260Y-51220000D01*
X111313740Y-51220000D01*
X111026842Y-51277068D01*
X110756589Y-51389010D01*
X110755107Y-51390000D01*
X109377975Y-51390000D01*
X109351013Y-51363038D01*
X109132359Y-51216939D01*
X108889405Y-51116304D01*
X108631486Y-51065000D01*
X108368514Y-51065000D01*
X108110595Y-51116304D01*
X107867641Y-51216939D01*
X107648987Y-51363038D01*
X107463038Y-51548987D01*
X107316939Y-51767641D01*
X107230000Y-51977530D01*
X107143061Y-51767641D01*
X106996962Y-51548987D01*
X106811013Y-51363038D01*
X106592359Y-51216939D01*
X106349405Y-51116304D01*
X106091486Y-51065000D01*
X105828514Y-51065000D01*
X105570595Y-51116304D01*
X105327641Y-51216939D01*
X105108987Y-51363038D01*
X104923038Y-51548987D01*
X104776939Y-51767641D01*
X104676304Y-52010595D01*
X104625000Y-52268514D01*
X104625000Y-52306645D01*
X104341645Y-52590000D01*
X103399870Y-52590000D01*
X103389502Y-52555820D01*
X103330537Y-52445506D01*
X103251185Y-52348815D01*
X103154494Y-52269463D01*
X103044180Y-52210498D01*
X102924482Y-52174188D01*
X102800000Y-52161928D01*
X101200000Y-52161928D01*
X101075518Y-52174188D01*
X100955820Y-52210498D01*
X100845506Y-52269463D01*
X100748815Y-52348815D01*
X100669463Y-52445506D01*
X100610498Y-52555820D01*
X100581339Y-52651943D01*
X100414759Y-52485363D01*
X100179727Y-52328320D01*
X99918574Y-52220147D01*
X99641335Y-52165000D01*
X99358665Y-52165000D01*
X99081426Y-52220147D01*
X98820273Y-52328320D01*
X98585241Y-52485363D01*
X98480604Y-52590000D01*
X79799608Y-52590000D01*
X79750000Y-52585114D01*
X79552005Y-52604615D01*
X79361620Y-52662368D01*
X79186160Y-52756153D01*
X79032367Y-52882367D01*
X79000743Y-52920901D01*
X78321645Y-53600000D01*
X77199607Y-53600000D01*
X77112704Y-53513097D01*
X77356671Y-53441514D01*
X77477571Y-53186004D01*
X77546300Y-52911816D01*
X77560217Y-52629488D01*
X77518787Y-52349870D01*
X77423603Y-52083708D01*
X77356671Y-51958486D01*
X77112702Y-51886903D01*
X76299605Y-52700000D01*
X76313748Y-52714143D01*
X76134143Y-52893748D01*
X76120000Y-52879605D01*
X76105858Y-52893748D01*
X75926253Y-52714143D01*
X75940395Y-52700000D01*
X75127298Y-51886903D01*
X74883329Y-51958486D01*
X74762429Y-52213996D01*
X74693700Y-52488184D01*
X74679783Y-52770512D01*
X74721213Y-53050130D01*
X74816397Y-53316292D01*
X74883329Y-53441514D01*
X75127296Y-53513097D01*
X75040393Y-53600000D01*
X73448356Y-53600000D01*
X72555000Y-52706645D01*
X72555000Y-52558665D01*
X72499853Y-52281426D01*
X72391680Y-52020273D01*
X72234637Y-51785241D01*
X72156694Y-51707298D01*
X75306903Y-51707298D01*
X76120000Y-52520395D01*
X76933097Y-51707298D01*
X76861514Y-51463329D01*
X76606004Y-51342429D01*
X76331816Y-51273700D01*
X76049488Y-51259783D01*
X75769870Y-51301213D01*
X75503708Y-51396397D01*
X75378486Y-51463329D01*
X75306903Y-51707298D01*
X72156694Y-51707298D01*
X72034759Y-51585363D01*
X71799727Y-51428320D01*
X71538574Y-51320147D01*
X71261335Y-51265000D01*
X70978665Y-51265000D01*
X70701426Y-51320147D01*
X70440273Y-51428320D01*
X70205241Y-51585363D01*
X70100604Y-51690000D01*
X69457975Y-51690000D01*
X69431013Y-51663038D01*
X69212359Y-51516939D01*
X68969405Y-51416304D01*
X68711486Y-51365000D01*
X68448514Y-51365000D01*
X68190595Y-51416304D01*
X67947641Y-51516939D01*
X67728987Y-51663038D01*
X67543038Y-51848987D01*
X67396939Y-52067641D01*
X67310000Y-52277530D01*
X67223061Y-52067641D01*
X67076962Y-51848987D01*
X66891013Y-51663038D01*
X66672359Y-51516939D01*
X66429405Y-51416304D01*
X66171486Y-51365000D01*
X65908514Y-51365000D01*
X65650595Y-51416304D01*
X65407641Y-51516939D01*
X65188987Y-51663038D01*
X65003038Y-51848987D01*
X64856939Y-52067641D01*
X64756304Y-52310595D01*
X64705000Y-52568514D01*
X64705000Y-52831486D01*
X64756304Y-53089405D01*
X64856939Y-53332359D01*
X65003038Y-53551013D01*
X65030001Y-53577976D01*
X65030000Y-55195392D01*
X65025114Y-55245000D01*
X65044615Y-55442994D01*
X65076357Y-55547632D01*
X65102368Y-55633379D01*
X65196153Y-55808840D01*
X65322367Y-55962633D01*
X65360906Y-55994261D01*
X65719162Y-56352517D01*
X65623368Y-56416525D01*
X65416525Y-56623368D01*
X65300000Y-56797760D01*
X65183475Y-56623368D01*
X64976632Y-56416525D01*
X64733411Y-56254010D01*
X64463158Y-56142068D01*
X64176260Y-56085000D01*
X63883740Y-56085000D01*
X63596842Y-56142068D01*
X63326589Y-56254010D01*
X63083368Y-56416525D01*
X62876525Y-56623368D01*
X62714010Y-56866589D01*
X62602068Y-57136842D01*
X62545000Y-57423740D01*
X62545000Y-57716260D01*
X62602068Y-58003158D01*
X62714010Y-58273411D01*
X62876525Y-58516632D01*
X63020001Y-58660108D01*
X63020000Y-59019893D01*
X62876525Y-59163368D01*
X62760000Y-59337760D01*
X62643475Y-59163368D01*
X62436632Y-58956525D01*
X62193411Y-58794010D01*
X61923158Y-58682068D01*
X61636260Y-58625000D01*
X61343740Y-58625000D01*
X61056842Y-58682068D01*
X60786589Y-58794010D01*
X60543368Y-58956525D01*
X60411513Y-59088380D01*
X60389502Y-59015820D01*
X60330537Y-58905506D01*
X60251185Y-58808815D01*
X60154494Y-58729463D01*
X60044180Y-58670498D01*
X59924482Y-58634188D01*
X59800000Y-58621928D01*
X59235750Y-58625000D01*
X59077000Y-58783750D01*
X59077000Y-59983000D01*
X59097000Y-59983000D01*
X59097000Y-60237000D01*
X59077000Y-60237000D01*
X59077000Y-61436250D01*
X59235750Y-61595000D01*
X59800000Y-61598072D01*
X59924482Y-61585812D01*
X60044180Y-61549502D01*
X60154494Y-61490537D01*
X60251185Y-61411185D01*
X60330537Y-61314494D01*
X60389502Y-61204180D01*
X60411513Y-61131620D01*
X60480000Y-61200107D01*
X60480001Y-63980382D01*
X60475114Y-64030000D01*
X60494615Y-64227994D01*
X60552368Y-64418379D01*
X60583365Y-64476370D01*
X60646154Y-64593840D01*
X60772368Y-64747633D01*
X60810901Y-64779256D01*
X65925739Y-69894094D01*
X65957367Y-69932633D01*
X66111160Y-70058847D01*
X66286620Y-70152632D01*
X66477006Y-70210385D01*
X66625392Y-70225000D01*
X66625394Y-70225000D01*
X66674999Y-70229886D01*
X66724604Y-70225000D01*
X68796645Y-70225000D01*
X69475000Y-70903355D01*
X69475001Y-73241644D01*
X68796645Y-73920000D01*
X53389604Y-73920000D01*
X53339999Y-73915114D01*
X53290394Y-73920000D01*
X53290392Y-73920000D01*
X53142006Y-73934615D01*
X52951620Y-73992368D01*
X52776160Y-74086153D01*
X52622367Y-74212367D01*
X52590739Y-74250906D01*
X51610010Y-75231635D01*
X51610010Y-71573816D01*
X52465000Y-71573816D01*
X52465000Y-71876184D01*
X52523989Y-72172743D01*
X52639701Y-72452095D01*
X52807688Y-72703505D01*
X53021495Y-72917312D01*
X53272905Y-73085299D01*
X53552257Y-73201011D01*
X53848816Y-73260000D01*
X54151184Y-73260000D01*
X54447743Y-73201011D01*
X54727095Y-73085299D01*
X54978505Y-72917312D01*
X55192312Y-72703505D01*
X55360299Y-72452095D01*
X55476011Y-72172743D01*
X55535000Y-71876184D01*
X55535000Y-71573816D01*
X55478266Y-71288589D01*
X55645000Y-71288589D01*
X55645000Y-71561411D01*
X55698225Y-71828989D01*
X55802629Y-72081043D01*
X55954201Y-72307886D01*
X56147114Y-72500799D01*
X56373957Y-72652371D01*
X56626011Y-72756775D01*
X56893589Y-72810000D01*
X57166411Y-72810000D01*
X57433989Y-72756775D01*
X57686043Y-72652371D01*
X57912886Y-72500799D01*
X58105799Y-72307886D01*
X58257371Y-72081043D01*
X58361775Y-71828989D01*
X58415000Y-71561411D01*
X58415000Y-71288589D01*
X58361775Y-71021011D01*
X58257371Y-70768957D01*
X58105799Y-70542114D01*
X57912886Y-70349201D01*
X57686043Y-70197629D01*
X57433989Y-70093225D01*
X57166411Y-70040000D01*
X56893589Y-70040000D01*
X56626011Y-70093225D01*
X56373957Y-70197629D01*
X56147114Y-70349201D01*
X55954201Y-70542114D01*
X55802629Y-70768957D01*
X55698225Y-71021011D01*
X55645000Y-71288589D01*
X55478266Y-71288589D01*
X55476011Y-71277257D01*
X55360299Y-70997905D01*
X55192312Y-70746495D01*
X54978505Y-70532688D01*
X54727095Y-70364701D01*
X54447743Y-70248989D01*
X54151184Y-70190000D01*
X53848816Y-70190000D01*
X53552257Y-70248989D01*
X53272905Y-70364701D01*
X53021495Y-70532688D01*
X52807688Y-70746495D01*
X52639701Y-70997905D01*
X52523989Y-71277257D01*
X52465000Y-71573816D01*
X51610010Y-71573816D01*
X51610010Y-66123816D01*
X52465000Y-66123816D01*
X52465000Y-66426184D01*
X52523989Y-66722743D01*
X52639701Y-67002095D01*
X52807688Y-67253505D01*
X53021495Y-67467312D01*
X53272905Y-67635299D01*
X53552257Y-67751011D01*
X53848816Y-67810000D01*
X54151184Y-67810000D01*
X54447743Y-67751011D01*
X54727095Y-67635299D01*
X54978505Y-67467312D01*
X55192312Y-67253505D01*
X55360299Y-67002095D01*
X55476011Y-66722743D01*
X55532532Y-66438589D01*
X55645000Y-66438589D01*
X55645000Y-66711411D01*
X55698225Y-66978989D01*
X55802629Y-67231043D01*
X55954201Y-67457886D01*
X56147114Y-67650799D01*
X56373957Y-67802371D01*
X56626011Y-67906775D01*
X56893589Y-67960000D01*
X57166411Y-67960000D01*
X57433989Y-67906775D01*
X57686043Y-67802371D01*
X57912886Y-67650799D01*
X58105799Y-67457886D01*
X58257371Y-67231043D01*
X58361775Y-66978989D01*
X58415000Y-66711411D01*
X58415000Y-66438589D01*
X58361775Y-66171011D01*
X58257371Y-65918957D01*
X58105799Y-65692114D01*
X57912886Y-65499201D01*
X57686043Y-65347629D01*
X57433989Y-65243225D01*
X57166411Y-65190000D01*
X56893589Y-65190000D01*
X56626011Y-65243225D01*
X56373957Y-65347629D01*
X56147114Y-65499201D01*
X55954201Y-65692114D01*
X55802629Y-65918957D01*
X55698225Y-66171011D01*
X55645000Y-66438589D01*
X55532532Y-66438589D01*
X55535000Y-66426184D01*
X55535000Y-66123816D01*
X55476011Y-65827257D01*
X55360299Y-65547905D01*
X55192312Y-65296495D01*
X54978505Y-65082688D01*
X54727095Y-64914701D01*
X54447743Y-64798989D01*
X54151184Y-64740000D01*
X53848816Y-64740000D01*
X53552257Y-64798989D01*
X53272905Y-64914701D01*
X53021495Y-65082688D01*
X52807688Y-65296495D01*
X52639701Y-65547905D01*
X52523989Y-65827257D01*
X52465000Y-66123816D01*
X51610010Y-66123816D01*
X51610010Y-65388345D01*
X52488356Y-64510000D01*
X55195392Y-64510000D01*
X55245000Y-64514886D01*
X55442994Y-64495385D01*
X55505678Y-64476370D01*
X55633380Y-64437632D01*
X55808840Y-64343847D01*
X55962633Y-64217633D01*
X55994261Y-64179094D01*
X57089099Y-63084257D01*
X57127633Y-63052633D01*
X57253847Y-62898840D01*
X57347632Y-62723380D01*
X57368025Y-62656153D01*
X57405385Y-62532995D01*
X57424886Y-62335000D01*
X57420000Y-62285392D01*
X57420000Y-61200107D01*
X57488487Y-61131620D01*
X57510498Y-61204180D01*
X57569463Y-61314494D01*
X57648815Y-61411185D01*
X57745506Y-61490537D01*
X57855820Y-61549502D01*
X57975518Y-61585812D01*
X58100000Y-61598072D01*
X58664250Y-61595000D01*
X58823000Y-61436250D01*
X58823000Y-60237000D01*
X58803000Y-60237000D01*
X58803000Y-59983000D01*
X58823000Y-59983000D01*
X58823000Y-58783750D01*
X58664250Y-58625000D01*
X58100000Y-58621928D01*
X57975518Y-58634188D01*
X57855820Y-58670498D01*
X57745506Y-58729463D01*
X57648815Y-58808815D01*
X57569463Y-58905506D01*
X57510498Y-59015820D01*
X57488487Y-59088380D01*
X57420000Y-59019893D01*
X57420000Y-58660107D01*
X57563475Y-58516632D01*
X57725990Y-58273411D01*
X57837932Y-58003158D01*
X57895000Y-57716260D01*
X57895000Y-57423740D01*
X57837932Y-57136842D01*
X57725990Y-56866589D01*
X57563475Y-56623368D01*
X57356632Y-56416525D01*
X57113411Y-56254010D01*
X56843158Y-56142068D01*
X56556260Y-56085000D01*
X56263740Y-56085000D01*
X55976842Y-56142068D01*
X55706589Y-56254010D01*
X55463368Y-56416525D01*
X55256525Y-56623368D01*
X55140000Y-56797760D01*
X55023475Y-56623368D01*
X54816632Y-56416525D01*
X54573411Y-56254010D01*
X54427792Y-56193693D01*
X54651925Y-56149110D01*
X55058669Y-55980631D01*
X55424729Y-55736038D01*
X55736038Y-55424729D01*
X55980631Y-55058669D01*
X56149110Y-54651925D01*
X56235000Y-54220128D01*
X56235000Y-53779872D01*
X56149110Y-53348075D01*
X55980631Y-52941331D01*
X55736038Y-52575271D01*
X55424729Y-52263962D01*
X55058669Y-52019369D01*
X54651925Y-51850890D01*
X54220128Y-51765000D01*
X53779872Y-51765000D01*
X53348075Y-51850890D01*
X52941331Y-52019369D01*
X52575271Y-52263962D01*
X52263962Y-52575271D01*
X52019369Y-52941331D01*
X51850890Y-53348075D01*
X51765000Y-53779872D01*
X51765000Y-54220128D01*
X51850890Y-54651925D01*
X52019369Y-55058669D01*
X52263962Y-55424729D01*
X52575271Y-55736038D01*
X52941331Y-55980631D01*
X53348075Y-56149110D01*
X53396558Y-56158754D01*
X53166589Y-56254010D01*
X52923368Y-56416525D01*
X52716525Y-56623368D01*
X52554010Y-56866589D01*
X52442068Y-57136842D01*
X52385000Y-57423740D01*
X52385000Y-57716260D01*
X52442068Y-58003158D01*
X52554010Y-58273411D01*
X52716525Y-58516632D01*
X52860001Y-58660108D01*
X52860000Y-59019893D01*
X52716525Y-59163368D01*
X52554010Y-59406589D01*
X52442068Y-59676842D01*
X52385000Y-59963740D01*
X52385000Y-60256260D01*
X52442068Y-60543158D01*
X52554010Y-60813411D01*
X52716525Y-61056632D01*
X52923368Y-61263475D01*
X53166589Y-61425990D01*
X53436842Y-61537932D01*
X53723740Y-61595000D01*
X54016260Y-61595000D01*
X54303158Y-61537932D01*
X54573411Y-61425990D01*
X54816632Y-61263475D01*
X55023475Y-61056632D01*
X55140000Y-60882240D01*
X55256525Y-61056632D01*
X55400000Y-61200107D01*
X55400001Y-61916643D01*
X54826645Y-62490000D01*
X52119608Y-62490000D01*
X52070000Y-62485114D01*
X51872005Y-62504615D01*
X51681620Y-62562368D01*
X51506160Y-62656153D01*
X51352367Y-62782367D01*
X51320744Y-62820900D01*
X50660000Y-63481644D01*
X50660000Y-50660000D01*
X139340000Y-50660000D01*
X139340001Y-119340000D01*
G36*
X83701928Y-69080000D02*
G01*
X83714188Y-69204482D01*
X83750498Y-69324180D01*
X83809463Y-69434494D01*
X83888815Y-69531185D01*
X83985506Y-69610537D01*
X84095820Y-69669502D01*
X84215518Y-69705812D01*
X84340000Y-69718072D01*
X85840000Y-69718072D01*
X85964482Y-69705812D01*
X86084180Y-69669502D01*
X86194494Y-69610537D01*
X86219518Y-69590000D01*
X87211645Y-69590000D01*
X88785743Y-71164099D01*
X88817367Y-71202633D01*
X88971160Y-71328847D01*
X89057720Y-71375114D01*
X89146620Y-71422632D01*
X89337005Y-71480385D01*
X89535000Y-71499886D01*
X89584608Y-71495000D01*
X92926645Y-71495000D01*
X97675743Y-76244099D01*
X97707367Y-76282633D01*
X97853041Y-76402184D01*
X97335750Y-76405000D01*
X97177000Y-76563750D01*
X97177000Y-77763000D01*
X97197000Y-77763000D01*
X97197000Y-78017000D01*
X97177000Y-78017000D01*
X97177000Y-79216250D01*
X97335750Y-79375000D01*
X97900000Y-79378072D01*
X98024482Y-79365812D01*
X98144180Y-79329502D01*
X98254494Y-79270537D01*
X98351185Y-79191185D01*
X98430537Y-79094494D01*
X98489502Y-78984180D01*
X98511513Y-78911620D01*
X98580001Y-78980108D01*
X98580000Y-87475392D01*
X98575114Y-87525000D01*
X98580000Y-87574607D01*
X98594615Y-87722993D01*
X98652368Y-87913379D01*
X98746153Y-88088840D01*
X98872367Y-88242633D01*
X98910906Y-88274261D01*
X107835744Y-97199100D01*
X107867367Y-97237633D01*
X108021160Y-97363847D01*
X108034567Y-97371013D01*
X108196620Y-97457632D01*
X108387005Y-97515385D01*
X108585000Y-97534886D01*
X108634608Y-97530000D01*
X122122025Y-97530000D01*
X122148987Y-97556962D01*
X122367641Y-97703061D01*
X122577530Y-97790000D01*
X122367641Y-97876939D01*
X122148987Y-98023038D01*
X122122025Y-98050000D01*
X120064604Y-98050000D01*
X120014999Y-98045114D01*
X119965394Y-98050000D01*
X119965392Y-98050000D01*
X119817006Y-98064615D01*
X119626620Y-98122368D01*
X119451160Y-98216153D01*
X119297367Y-98342367D01*
X119265739Y-98380906D01*
X118065901Y-99580744D01*
X118027368Y-99612367D01*
X117995745Y-99650900D01*
X117995744Y-99650901D01*
X117901154Y-99766160D01*
X117807368Y-99941621D01*
X117749615Y-100132006D01*
X117730114Y-100330000D01*
X117735001Y-100379617D01*
X117735000Y-102820392D01*
X117730114Y-102870000D01*
X117735000Y-102919607D01*
X117749615Y-103067993D01*
X117807368Y-103258379D01*
X117825319Y-103291963D01*
X112914261Y-98380906D01*
X112882633Y-98342367D01*
X112728840Y-98216153D01*
X112553380Y-98122368D01*
X112362994Y-98064615D01*
X112214608Y-98050000D01*
X112165000Y-98045114D01*
X112115392Y-98050000D01*
X73443355Y-98050000D01*
X67878302Y-92484947D01*
X84880000Y-92484947D01*
X84880000Y-92935053D01*
X84967811Y-93376510D01*
X85140059Y-93792353D01*
X85390125Y-94166603D01*
X85708397Y-94484875D01*
X86082647Y-94734941D01*
X86498490Y-94907189D01*
X86939947Y-94995000D01*
X87390053Y-94995000D01*
X87831510Y-94907189D01*
X88247353Y-94734941D01*
X88621603Y-94484875D01*
X88939875Y-94166603D01*
X89189941Y-93792353D01*
X89362189Y-93376510D01*
X89450000Y-92935053D01*
X89450000Y-92484947D01*
X89362189Y-92043490D01*
X89189941Y-91627647D01*
X88939875Y-91253397D01*
X88621603Y-90935125D01*
X88247353Y-90685059D01*
X87831510Y-90512811D01*
X87390053Y-90425000D01*
X86939947Y-90425000D01*
X86498490Y-90512811D01*
X86082647Y-90685059D01*
X85708397Y-90935125D01*
X85390125Y-91253397D01*
X85140059Y-91627647D01*
X84967811Y-92043490D01*
X84880000Y-92484947D01*
X67878302Y-92484947D01*
X64249261Y-88855906D01*
X64217633Y-88817367D01*
X64063840Y-88691153D01*
X63888380Y-88597368D01*
X63697994Y-88539615D01*
X63549608Y-88525000D01*
X63500000Y-88520114D01*
X63450392Y-88525000D01*
X57568356Y-88525000D01*
X53080000Y-84036645D01*
X53080000Y-81918072D01*
X54720000Y-81918072D01*
X54844482Y-81905812D01*
X54964180Y-81869502D01*
X55074494Y-81810537D01*
X55171185Y-81731185D01*
X55250537Y-81634494D01*
X55309502Y-81524180D01*
X55331513Y-81451620D01*
X55463368Y-81583475D01*
X55706589Y-81745990D01*
X55976842Y-81857932D01*
X56263740Y-81915000D01*
X56556260Y-81915000D01*
X56843158Y-81857932D01*
X57113411Y-81745990D01*
X57356632Y-81583475D01*
X57563475Y-81376632D01*
X57685195Y-81194466D01*
X57754822Y-81311355D01*
X57949731Y-81527588D01*
X58183080Y-81701641D01*
X58445901Y-81826825D01*
X58593110Y-81871476D01*
X58823000Y-81750155D01*
X58823000Y-80557000D01*
X58803000Y-80557000D01*
X58803000Y-80303000D01*
X58823000Y-80303000D01*
X58823000Y-78017000D01*
X58803000Y-78017000D01*
X58803000Y-77763000D01*
X58823000Y-77763000D01*
X58823000Y-76563750D01*
X59077000Y-76563750D01*
X59077000Y-77763000D01*
X59097000Y-77763000D01*
X59097000Y-78017000D01*
X59077000Y-78017000D01*
X59077000Y-80303000D01*
X59097000Y-80303000D01*
X59097000Y-80557000D01*
X59077000Y-80557000D01*
X59077000Y-81750155D01*
X59306890Y-81871476D01*
X59454099Y-81826825D01*
X59716920Y-81701641D01*
X59950269Y-81527588D01*
X60145178Y-81311355D01*
X60214805Y-81194466D01*
X60336525Y-81376632D01*
X60543368Y-81583475D01*
X60786589Y-81745990D01*
X61056842Y-81857932D01*
X61343740Y-81915000D01*
X61636260Y-81915000D01*
X61923158Y-81857932D01*
X62193411Y-81745990D01*
X62436632Y-81583475D01*
X62643475Y-81376632D01*
X62760000Y-81202240D01*
X62876525Y-81376632D01*
X63083368Y-81583475D01*
X63326589Y-81745990D01*
X63596842Y-81857932D01*
X63883740Y-81915000D01*
X64176260Y-81915000D01*
X64463158Y-81857932D01*
X64733411Y-81745990D01*
X64976632Y-81583475D01*
X65183475Y-81376632D01*
X65300000Y-81202240D01*
X65416525Y-81376632D01*
X65623368Y-81583475D01*
X65866589Y-81745990D01*
X66136842Y-81857932D01*
X66423740Y-81915000D01*
X66716260Y-81915000D01*
X67003158Y-81857932D01*
X67273411Y-81745990D01*
X67516632Y-81583475D01*
X67723475Y-81376632D01*
X67840000Y-81202240D01*
X67956525Y-81376632D01*
X68163368Y-81583475D01*
X68406589Y-81745990D01*
X68676842Y-81857932D01*
X68963740Y-81915000D01*
X69256260Y-81915000D01*
X69543158Y-81857932D01*
X69813411Y-81745990D01*
X70056632Y-81583475D01*
X70263475Y-81376632D01*
X70385195Y-81194466D01*
X70454822Y-81311355D01*
X70649731Y-81527588D01*
X70883080Y-81701641D01*
X71145901Y-81826825D01*
X71293110Y-81871476D01*
X71523000Y-81750155D01*
X71523000Y-80557000D01*
X71503000Y-80557000D01*
X71503000Y-80303000D01*
X71523000Y-80303000D01*
X71523000Y-78017000D01*
X71503000Y-78017000D01*
X71503000Y-77763000D01*
X71523000Y-77763000D01*
X71523000Y-76563750D01*
X71777000Y-76563750D01*
X71777000Y-77763000D01*
X71797000Y-77763000D01*
X71797000Y-78017000D01*
X71777000Y-78017000D01*
X71777000Y-80303000D01*
X71797000Y-80303000D01*
X71797000Y-80557000D01*
X71777000Y-80557000D01*
X71777000Y-81750155D01*
X72006890Y-81871476D01*
X72154099Y-81826825D01*
X72416920Y-81701641D01*
X72650269Y-81527588D01*
X72845178Y-81311355D01*
X72914805Y-81194466D01*
X73036525Y-81376632D01*
X73243368Y-81583475D01*
X73486589Y-81745990D01*
X73756842Y-81857932D01*
X74043740Y-81915000D01*
X74336260Y-81915000D01*
X74623158Y-81857932D01*
X74893411Y-81745990D01*
X75136632Y-81583475D01*
X75343475Y-81376632D01*
X75460000Y-81202240D01*
X75576525Y-81376632D01*
X75783368Y-81583475D01*
X76026589Y-81745990D01*
X76296842Y-81857932D01*
X76583740Y-81915000D01*
X76876260Y-81915000D01*
X77163158Y-81857932D01*
X77433411Y-81745990D01*
X77676632Y-81583475D01*
X77883475Y-81376632D01*
X78000000Y-81202240D01*
X78116525Y-81376632D01*
X78323368Y-81583475D01*
X78566589Y-81745990D01*
X78836842Y-81857932D01*
X79123740Y-81915000D01*
X79416260Y-81915000D01*
X79703158Y-81857932D01*
X79973411Y-81745990D01*
X80216632Y-81583475D01*
X80423475Y-81376632D01*
X80540000Y-81202240D01*
X80656525Y-81376632D01*
X80863368Y-81583475D01*
X81106589Y-81745990D01*
X81376842Y-81857932D01*
X81663740Y-81915000D01*
X81956260Y-81915000D01*
X82243158Y-81857932D01*
X82513411Y-81745990D01*
X82756632Y-81583475D01*
X82963475Y-81376632D01*
X83085195Y-81194466D01*
X83154822Y-81311355D01*
X83349731Y-81527588D01*
X83583080Y-81701641D01*
X83845901Y-81826825D01*
X83993110Y-81871476D01*
X84223000Y-81750155D01*
X84223000Y-80557000D01*
X84203000Y-80557000D01*
X84203000Y-80303000D01*
X84223000Y-80303000D01*
X84223000Y-78017000D01*
X84203000Y-78017000D01*
X84203000Y-77763000D01*
X84223000Y-77763000D01*
X84223000Y-76563750D01*
X84477000Y-76563750D01*
X84477000Y-77763000D01*
X84497000Y-77763000D01*
X84497000Y-78017000D01*
X84477000Y-78017000D01*
X84477000Y-80303000D01*
X84497000Y-80303000D01*
X84497000Y-80557000D01*
X84477000Y-80557000D01*
X84477000Y-81750155D01*
X84706890Y-81871476D01*
X84854099Y-81826825D01*
X85116920Y-81701641D01*
X85350269Y-81527588D01*
X85545178Y-81311355D01*
X85614805Y-81194466D01*
X85736525Y-81376632D01*
X85943368Y-81583475D01*
X86186589Y-81745990D01*
X86456842Y-81857932D01*
X86743740Y-81915000D01*
X87036260Y-81915000D01*
X87323158Y-81857932D01*
X87593411Y-81745990D01*
X87836632Y-81583475D01*
X88043475Y-81376632D01*
X88160000Y-81202240D01*
X88276525Y-81376632D01*
X88483368Y-81583475D01*
X88726589Y-81745990D01*
X88996842Y-81857932D01*
X89283740Y-81915000D01*
X89576260Y-81915000D01*
X89863158Y-81857932D01*
X90133411Y-81745990D01*
X90376632Y-81583475D01*
X90583475Y-81376632D01*
X90700000Y-81202240D01*
X90816525Y-81376632D01*
X91023368Y-81583475D01*
X91266589Y-81745990D01*
X91536842Y-81857932D01*
X91823740Y-81915000D01*
X92116260Y-81915000D01*
X92403158Y-81857932D01*
X92673411Y-81745990D01*
X92916632Y-81583475D01*
X93123475Y-81376632D01*
X93240000Y-81202240D01*
X93356525Y-81376632D01*
X93563368Y-81583475D01*
X93806589Y-81745990D01*
X94076842Y-81857932D01*
X94363740Y-81915000D01*
X94656260Y-81915000D01*
X94943158Y-81857932D01*
X95213411Y-81745990D01*
X95456632Y-81583475D01*
X95663475Y-81376632D01*
X95825990Y-81133411D01*
X95937932Y-80863158D01*
X95995000Y-80576260D01*
X95995000Y-80283740D01*
X95937932Y-79996842D01*
X95825990Y-79726589D01*
X95663475Y-79483368D01*
X95520000Y-79339893D01*
X95520000Y-78980107D01*
X95588487Y-78911620D01*
X95610498Y-78984180D01*
X95669463Y-79094494D01*
X95748815Y-79191185D01*
X95845506Y-79270537D01*
X95955820Y-79329502D01*
X96075518Y-79365812D01*
X96200000Y-79378072D01*
X96764250Y-79375000D01*
X96923000Y-79216250D01*
X96923000Y-78017000D01*
X96903000Y-78017000D01*
X96903000Y-77763000D01*
X96923000Y-77763000D01*
X96923000Y-76563750D01*
X96764250Y-76405000D01*
X96200000Y-76401928D01*
X96075518Y-76414188D01*
X95955820Y-76450498D01*
X95845506Y-76509463D01*
X95748815Y-76588815D01*
X95669463Y-76685506D01*
X95610498Y-76795820D01*
X95588487Y-76868380D01*
X95456632Y-76736525D01*
X95213411Y-76574010D01*
X94943158Y-76462068D01*
X94656260Y-76405000D01*
X94363740Y-76405000D01*
X94076842Y-76462068D01*
X93806589Y-76574010D01*
X93563368Y-76736525D01*
X93356525Y-76943368D01*
X93240000Y-77117760D01*
X93123475Y-76943368D01*
X92916632Y-76736525D01*
X92673411Y-76574010D01*
X92403158Y-76462068D01*
X92116260Y-76405000D01*
X91823740Y-76405000D01*
X91536842Y-76462068D01*
X91266589Y-76574010D01*
X91023368Y-76736525D01*
X90816525Y-76943368D01*
X90700000Y-77117760D01*
X90583475Y-76943368D01*
X90376632Y-76736525D01*
X90133411Y-76574010D01*
X89863158Y-76462068D01*
X89576260Y-76405000D01*
X89283740Y-76405000D01*
X88996842Y-76462068D01*
X88726589Y-76574010D01*
X88483368Y-76736525D01*
X88276525Y-76943368D01*
X88160000Y-77117760D01*
X88043475Y-76943368D01*
X87836632Y-76736525D01*
X87593411Y-76574010D01*
X87323158Y-76462068D01*
X87036260Y-76405000D01*
X86743740Y-76405000D01*
X86456842Y-76462068D01*
X86186589Y-76574010D01*
X85943368Y-76736525D01*
X85811513Y-76868380D01*
X85789502Y-76795820D01*
X85730537Y-76685506D01*
X85651185Y-76588815D01*
X85554494Y-76509463D01*
X85444180Y-76450498D01*
X85324482Y-76414188D01*
X85200000Y-76401928D01*
X84635750Y-76405000D01*
X84477000Y-76563750D01*
X84223000Y-76563750D01*
X84064250Y-76405000D01*
X83500000Y-76401928D01*
X83375518Y-76414188D01*
X83255820Y-76450498D01*
X83145506Y-76509463D01*
X83048815Y-76588815D01*
X82969463Y-76685506D01*
X82910498Y-76795820D01*
X82888487Y-76868380D01*
X82756632Y-76736525D01*
X82513411Y-76574010D01*
X82243158Y-76462068D01*
X81956260Y-76405000D01*
X81663740Y-76405000D01*
X81376842Y-76462068D01*
X81106589Y-76574010D01*
X80863368Y-76736525D01*
X80656525Y-76943368D01*
X80540000Y-77117760D01*
X80423475Y-76943368D01*
X80216632Y-76736525D01*
X79973411Y-76574010D01*
X79703158Y-76462068D01*
X79416260Y-76405000D01*
X79123740Y-76405000D01*
X78836842Y-76462068D01*
X78566589Y-76574010D01*
X78323368Y-76736525D01*
X78116525Y-76943368D01*
X78000000Y-77117760D01*
X77883475Y-76943368D01*
X77676632Y-76736525D01*
X77433411Y-76574010D01*
X77163158Y-76462068D01*
X76876260Y-76405000D01*
X76583740Y-76405000D01*
X76296842Y-76462068D01*
X76026589Y-76574010D01*
X75783368Y-76736525D01*
X75576525Y-76943368D01*
X75460000Y-77117760D01*
X75343475Y-76943368D01*
X75136632Y-76736525D01*
X74893411Y-76574010D01*
X74623158Y-76462068D01*
X74336260Y-76405000D01*
X74043740Y-76405000D01*
X73756842Y-76462068D01*
X73486589Y-76574010D01*
X73243368Y-76736525D01*
X73111513Y-76868380D01*
X73089502Y-76795820D01*
X73030537Y-76685506D01*
X72951185Y-76588815D01*
X72854494Y-76509463D01*
X72744180Y-76450498D01*
X72624482Y-76414188D01*
X72500000Y-76401928D01*
X71935750Y-76405000D01*
X71777000Y-76563750D01*
X71523000Y-76563750D01*
X71364250Y-76405000D01*
X70800000Y-76401928D01*
X70675518Y-76414188D01*
X70555820Y-76450498D01*
X70445506Y-76509463D01*
X70348815Y-76588815D01*
X70269463Y-76685506D01*
X70210498Y-76795820D01*
X70188487Y-76868380D01*
X70056632Y-76736525D01*
X69813411Y-76574010D01*
X69543158Y-76462068D01*
X69256260Y-76405000D01*
X68963740Y-76405000D01*
X68676842Y-76462068D01*
X68406589Y-76574010D01*
X68163368Y-76736525D01*
X67956525Y-76943368D01*
X67840000Y-77117760D01*
X67723475Y-76943368D01*
X67516632Y-76736525D01*
X67273411Y-76574010D01*
X67003158Y-76462068D01*
X66716260Y-76405000D01*
X66423740Y-76405000D01*
X66136842Y-76462068D01*
X65866589Y-76574010D01*
X65623368Y-76736525D01*
X65416525Y-76943368D01*
X65300000Y-77117760D01*
X65183475Y-76943368D01*
X64976632Y-76736525D01*
X64733411Y-76574010D01*
X64463158Y-76462068D01*
X64176260Y-76405000D01*
X63883740Y-76405000D01*
X63596842Y-76462068D01*
X63326589Y-76574010D01*
X63083368Y-76736525D01*
X62876525Y-76943368D01*
X62760000Y-77117760D01*
X62643475Y-76943368D01*
X62436632Y-76736525D01*
X62193411Y-76574010D01*
X61923158Y-76462068D01*
X61636260Y-76405000D01*
X61343740Y-76405000D01*
X61056842Y-76462068D01*
X60786589Y-76574010D01*
X60543368Y-76736525D01*
X60411513Y-76868380D01*
X60389502Y-76795820D01*
X60330537Y-76685506D01*
X60251185Y-76588815D01*
X60154494Y-76509463D01*
X60044180Y-76450498D01*
X59924482Y-76414188D01*
X59800000Y-76401928D01*
X59235750Y-76405000D01*
X59077000Y-76563750D01*
X58823000Y-76563750D01*
X58664250Y-76405000D01*
X58100000Y-76401928D01*
X57975518Y-76414188D01*
X57855820Y-76450498D01*
X57745506Y-76509463D01*
X57648815Y-76588815D01*
X57569463Y-76685506D01*
X57510498Y-76795820D01*
X57488487Y-76868380D01*
X57356632Y-76736525D01*
X57113411Y-76574010D01*
X56843158Y-76462068D01*
X56556260Y-76405000D01*
X56263740Y-76405000D01*
X55976842Y-76462068D01*
X55706589Y-76574010D01*
X55463368Y-76736525D01*
X55256525Y-76943368D01*
X55140000Y-77117760D01*
X55023475Y-76943368D01*
X54816632Y-76736525D01*
X54573411Y-76574010D01*
X54303158Y-76462068D01*
X54016260Y-76405000D01*
X53723740Y-76405000D01*
X53436842Y-76462068D01*
X53166589Y-76574010D01*
X53080000Y-76631867D01*
X53080000Y-76618355D01*
X53758355Y-75940000D01*
X69165392Y-75940000D01*
X69215000Y-75944886D01*
X69412994Y-75925385D01*
X69603380Y-75867632D01*
X69778840Y-75773847D01*
X69932633Y-75647633D01*
X69964261Y-75609094D01*
X71164094Y-74409261D01*
X71202633Y-74377633D01*
X71328847Y-74223840D01*
X71422632Y-74048380D01*
X71480385Y-73857994D01*
X71495000Y-73709608D01*
X71495000Y-73709606D01*
X71499886Y-73660001D01*
X71495000Y-73610396D01*
X71495000Y-70534604D01*
X71499886Y-70484999D01*
X71492877Y-70413840D01*
X71480385Y-70287006D01*
X71422632Y-70096620D01*
X71328847Y-69921160D01*
X71202633Y-69767367D01*
X71164094Y-69735739D01*
X69964261Y-68535906D01*
X69932633Y-68497367D01*
X69778840Y-68371153D01*
X69627013Y-68290000D01*
X83701928Y-68290000D01*
X83701928Y-69080000D01*
G37*
X83701928Y-69080000D02*
X83714188Y-69204482D01*
X83750498Y-69324180D01*
X83809463Y-69434494D01*
X83888815Y-69531185D01*
X83985506Y-69610537D01*
X84095820Y-69669502D01*
X84215518Y-69705812D01*
X84340000Y-69718072D01*
X85840000Y-69718072D01*
X85964482Y-69705812D01*
X86084180Y-69669502D01*
X86194494Y-69610537D01*
X86219518Y-69590000D01*
X87211645Y-69590000D01*
X88785743Y-71164099D01*
X88817367Y-71202633D01*
X88971160Y-71328847D01*
X89057720Y-71375114D01*
X89146620Y-71422632D01*
X89337005Y-71480385D01*
X89535000Y-71499886D01*
X89584608Y-71495000D01*
X92926645Y-71495000D01*
X97675743Y-76244099D01*
X97707367Y-76282633D01*
X97853041Y-76402184D01*
X97335750Y-76405000D01*
X97177000Y-76563750D01*
X97177000Y-77763000D01*
X97197000Y-77763000D01*
X97197000Y-78017000D01*
X97177000Y-78017000D01*
X97177000Y-79216250D01*
X97335750Y-79375000D01*
X97900000Y-79378072D01*
X98024482Y-79365812D01*
X98144180Y-79329502D01*
X98254494Y-79270537D01*
X98351185Y-79191185D01*
X98430537Y-79094494D01*
X98489502Y-78984180D01*
X98511513Y-78911620D01*
X98580001Y-78980108D01*
X98580000Y-87475392D01*
X98575114Y-87525000D01*
X98580000Y-87574607D01*
X98594615Y-87722993D01*
X98652368Y-87913379D01*
X98746153Y-88088840D01*
X98872367Y-88242633D01*
X98910906Y-88274261D01*
X107835744Y-97199100D01*
X107867367Y-97237633D01*
X108021160Y-97363847D01*
X108034567Y-97371013D01*
X108196620Y-97457632D01*
X108387005Y-97515385D01*
X108585000Y-97534886D01*
X108634608Y-97530000D01*
X122122025Y-97530000D01*
X122148987Y-97556962D01*
X122367641Y-97703061D01*
X122577530Y-97790000D01*
X122367641Y-97876939D01*
X122148987Y-98023038D01*
X122122025Y-98050000D01*
X120064604Y-98050000D01*
X120014999Y-98045114D01*
X119965394Y-98050000D01*
X119965392Y-98050000D01*
X119817006Y-98064615D01*
X119626620Y-98122368D01*
X119451160Y-98216153D01*
X119297367Y-98342367D01*
X119265739Y-98380906D01*
X118065901Y-99580744D01*
X118027368Y-99612367D01*
X117995745Y-99650900D01*
X117995744Y-99650901D01*
X117901154Y-99766160D01*
X117807368Y-99941621D01*
X117749615Y-100132006D01*
X117730114Y-100330000D01*
X117735001Y-100379617D01*
X117735000Y-102820392D01*
X117730114Y-102870000D01*
X117735000Y-102919607D01*
X117749615Y-103067993D01*
X117807368Y-103258379D01*
X117825319Y-103291963D01*
X112914261Y-98380906D01*
X112882633Y-98342367D01*
X112728840Y-98216153D01*
X112553380Y-98122368D01*
X112362994Y-98064615D01*
X112214608Y-98050000D01*
X112165000Y-98045114D01*
X112115392Y-98050000D01*
X73443355Y-98050000D01*
X67878302Y-92484947D01*
X84880000Y-92484947D01*
X84880000Y-92935053D01*
X84967811Y-93376510D01*
X85140059Y-93792353D01*
X85390125Y-94166603D01*
X85708397Y-94484875D01*
X86082647Y-94734941D01*
X86498490Y-94907189D01*
X86939947Y-94995000D01*
X87390053Y-94995000D01*
X87831510Y-94907189D01*
X88247353Y-94734941D01*
X88621603Y-94484875D01*
X88939875Y-94166603D01*
X89189941Y-93792353D01*
X89362189Y-93376510D01*
X89450000Y-92935053D01*
X89450000Y-92484947D01*
X89362189Y-92043490D01*
X89189941Y-91627647D01*
X88939875Y-91253397D01*
X88621603Y-90935125D01*
X88247353Y-90685059D01*
X87831510Y-90512811D01*
X87390053Y-90425000D01*
X86939947Y-90425000D01*
X86498490Y-90512811D01*
X86082647Y-90685059D01*
X85708397Y-90935125D01*
X85390125Y-91253397D01*
X85140059Y-91627647D01*
X84967811Y-92043490D01*
X84880000Y-92484947D01*
X67878302Y-92484947D01*
X64249261Y-88855906D01*
X64217633Y-88817367D01*
X64063840Y-88691153D01*
X63888380Y-88597368D01*
X63697994Y-88539615D01*
X63549608Y-88525000D01*
X63500000Y-88520114D01*
X63450392Y-88525000D01*
X57568356Y-88525000D01*
X53080000Y-84036645D01*
X53080000Y-81918072D01*
X54720000Y-81918072D01*
X54844482Y-81905812D01*
X54964180Y-81869502D01*
X55074494Y-81810537D01*
X55171185Y-81731185D01*
X55250537Y-81634494D01*
X55309502Y-81524180D01*
X55331513Y-81451620D01*
X55463368Y-81583475D01*
X55706589Y-81745990D01*
X55976842Y-81857932D01*
X56263740Y-81915000D01*
X56556260Y-81915000D01*
X56843158Y-81857932D01*
X57113411Y-81745990D01*
X57356632Y-81583475D01*
X57563475Y-81376632D01*
X57685195Y-81194466D01*
X57754822Y-81311355D01*
X57949731Y-81527588D01*
X58183080Y-81701641D01*
X58445901Y-81826825D01*
X58593110Y-81871476D01*
X58823000Y-81750155D01*
X58823000Y-80557000D01*
X58803000Y-80557000D01*
X58803000Y-80303000D01*
X58823000Y-80303000D01*
X58823000Y-78017000D01*
X58803000Y-78017000D01*
X58803000Y-77763000D01*
X58823000Y-77763000D01*
X58823000Y-76563750D01*
X59077000Y-76563750D01*
X59077000Y-77763000D01*
X59097000Y-77763000D01*
X59097000Y-78017000D01*
X59077000Y-78017000D01*
X59077000Y-80303000D01*
X59097000Y-80303000D01*
X59097000Y-80557000D01*
X59077000Y-80557000D01*
X59077000Y-81750155D01*
X59306890Y-81871476D01*
X59454099Y-81826825D01*
X59716920Y-81701641D01*
X59950269Y-81527588D01*
X60145178Y-81311355D01*
X60214805Y-81194466D01*
X60336525Y-81376632D01*
X60543368Y-81583475D01*
X60786589Y-81745990D01*
X61056842Y-81857932D01*
X61343740Y-81915000D01*
X61636260Y-81915000D01*
X61923158Y-81857932D01*
X62193411Y-81745990D01*
X62436632Y-81583475D01*
X62643475Y-81376632D01*
X62760000Y-81202240D01*
X62876525Y-81376632D01*
X63083368Y-81583475D01*
X63326589Y-81745990D01*
X63596842Y-81857932D01*
X63883740Y-81915000D01*
X64176260Y-81915000D01*
X64463158Y-81857932D01*
X64733411Y-81745990D01*
X64976632Y-81583475D01*
X65183475Y-81376632D01*
X65300000Y-81202240D01*
X65416525Y-81376632D01*
X65623368Y-81583475D01*
X65866589Y-81745990D01*
X66136842Y-81857932D01*
X66423740Y-81915000D01*
X66716260Y-81915000D01*
X67003158Y-81857932D01*
X67273411Y-81745990D01*
X67516632Y-81583475D01*
X67723475Y-81376632D01*
X67840000Y-81202240D01*
X67956525Y-81376632D01*
X68163368Y-81583475D01*
X68406589Y-81745990D01*
X68676842Y-81857932D01*
X68963740Y-81915000D01*
X69256260Y-81915000D01*
X69543158Y-81857932D01*
X69813411Y-81745990D01*
X70056632Y-81583475D01*
X70263475Y-81376632D01*
X70385195Y-81194466D01*
X70454822Y-81311355D01*
X70649731Y-81527588D01*
X70883080Y-81701641D01*
X71145901Y-81826825D01*
X71293110Y-81871476D01*
X71523000Y-81750155D01*
X71523000Y-80557000D01*
X71503000Y-80557000D01*
X71503000Y-80303000D01*
X71523000Y-80303000D01*
X71523000Y-78017000D01*
X71503000Y-78017000D01*
X71503000Y-77763000D01*
X71523000Y-77763000D01*
X71523000Y-76563750D01*
X71777000Y-76563750D01*
X71777000Y-77763000D01*
X71797000Y-77763000D01*
X71797000Y-78017000D01*
X71777000Y-78017000D01*
X71777000Y-80303000D01*
X71797000Y-80303000D01*
X71797000Y-80557000D01*
X71777000Y-80557000D01*
X71777000Y-81750155D01*
X72006890Y-81871476D01*
X72154099Y-81826825D01*
X72416920Y-81701641D01*
X72650269Y-81527588D01*
X72845178Y-81311355D01*
X72914805Y-81194466D01*
X73036525Y-81376632D01*
X73243368Y-81583475D01*
X73486589Y-81745990D01*
X73756842Y-81857932D01*
X74043740Y-81915000D01*
X74336260Y-81915000D01*
X74623158Y-81857932D01*
X74893411Y-81745990D01*
X75136632Y-81583475D01*
X75343475Y-81376632D01*
X75460000Y-81202240D01*
X75576525Y-81376632D01*
X75783368Y-81583475D01*
X76026589Y-81745990D01*
X76296842Y-81857932D01*
X76583740Y-81915000D01*
X76876260Y-81915000D01*
X77163158Y-81857932D01*
X77433411Y-81745990D01*
X77676632Y-81583475D01*
X77883475Y-81376632D01*
X78000000Y-81202240D01*
X78116525Y-81376632D01*
X78323368Y-81583475D01*
X78566589Y-81745990D01*
X78836842Y-81857932D01*
X79123740Y-81915000D01*
X79416260Y-81915000D01*
X79703158Y-81857932D01*
X79973411Y-81745990D01*
X80216632Y-81583475D01*
X80423475Y-81376632D01*
X80540000Y-81202240D01*
X80656525Y-81376632D01*
X80863368Y-81583475D01*
X81106589Y-81745990D01*
X81376842Y-81857932D01*
X81663740Y-81915000D01*
X81956260Y-81915000D01*
X82243158Y-81857932D01*
X82513411Y-81745990D01*
X82756632Y-81583475D01*
X82963475Y-81376632D01*
X83085195Y-81194466D01*
X83154822Y-81311355D01*
X83349731Y-81527588D01*
X83583080Y-81701641D01*
X83845901Y-81826825D01*
X83993110Y-81871476D01*
X84223000Y-81750155D01*
X84223000Y-80557000D01*
X84203000Y-80557000D01*
X84203000Y-80303000D01*
X84223000Y-80303000D01*
X84223000Y-78017000D01*
X84203000Y-78017000D01*
X84203000Y-77763000D01*
X84223000Y-77763000D01*
X84223000Y-76563750D01*
X84477000Y-76563750D01*
X84477000Y-77763000D01*
X84497000Y-77763000D01*
X84497000Y-78017000D01*
X84477000Y-78017000D01*
X84477000Y-80303000D01*
X84497000Y-80303000D01*
X84497000Y-80557000D01*
X84477000Y-80557000D01*
X84477000Y-81750155D01*
X84706890Y-81871476D01*
X84854099Y-81826825D01*
X85116920Y-81701641D01*
X85350269Y-81527588D01*
X85545178Y-81311355D01*
X85614805Y-81194466D01*
X85736525Y-81376632D01*
X85943368Y-81583475D01*
X86186589Y-81745990D01*
X86456842Y-81857932D01*
X86743740Y-81915000D01*
X87036260Y-81915000D01*
X87323158Y-81857932D01*
X87593411Y-81745990D01*
X87836632Y-81583475D01*
X88043475Y-81376632D01*
X88160000Y-81202240D01*
X88276525Y-81376632D01*
X88483368Y-81583475D01*
X88726589Y-81745990D01*
X88996842Y-81857932D01*
X89283740Y-81915000D01*
X89576260Y-81915000D01*
X89863158Y-81857932D01*
X90133411Y-81745990D01*
X90376632Y-81583475D01*
X90583475Y-81376632D01*
X90700000Y-81202240D01*
X90816525Y-81376632D01*
X91023368Y-81583475D01*
X91266589Y-81745990D01*
X91536842Y-81857932D01*
X91823740Y-81915000D01*
X92116260Y-81915000D01*
X92403158Y-81857932D01*
X92673411Y-81745990D01*
X92916632Y-81583475D01*
X93123475Y-81376632D01*
X93240000Y-81202240D01*
X93356525Y-81376632D01*
X93563368Y-81583475D01*
X93806589Y-81745990D01*
X94076842Y-81857932D01*
X94363740Y-81915000D01*
X94656260Y-81915000D01*
X94943158Y-81857932D01*
X95213411Y-81745990D01*
X95456632Y-81583475D01*
X95663475Y-81376632D01*
X95825990Y-81133411D01*
X95937932Y-80863158D01*
X95995000Y-80576260D01*
X95995000Y-80283740D01*
X95937932Y-79996842D01*
X95825990Y-79726589D01*
X95663475Y-79483368D01*
X95520000Y-79339893D01*
X95520000Y-78980107D01*
X95588487Y-78911620D01*
X95610498Y-78984180D01*
X95669463Y-79094494D01*
X95748815Y-79191185D01*
X95845506Y-79270537D01*
X95955820Y-79329502D01*
X96075518Y-79365812D01*
X96200000Y-79378072D01*
X96764250Y-79375000D01*
X96923000Y-79216250D01*
X96923000Y-78017000D01*
X96903000Y-78017000D01*
X96903000Y-77763000D01*
X96923000Y-77763000D01*
X96923000Y-76563750D01*
X96764250Y-76405000D01*
X96200000Y-76401928D01*
X96075518Y-76414188D01*
X95955820Y-76450498D01*
X95845506Y-76509463D01*
X95748815Y-76588815D01*
X95669463Y-76685506D01*
X95610498Y-76795820D01*
X95588487Y-76868380D01*
X95456632Y-76736525D01*
X95213411Y-76574010D01*
X94943158Y-76462068D01*
X94656260Y-76405000D01*
X94363740Y-76405000D01*
X94076842Y-76462068D01*
X93806589Y-76574010D01*
X93563368Y-76736525D01*
X93356525Y-76943368D01*
X93240000Y-77117760D01*
X93123475Y-76943368D01*
X92916632Y-76736525D01*
X92673411Y-76574010D01*
X92403158Y-76462068D01*
X92116260Y-76405000D01*
X91823740Y-76405000D01*
X91536842Y-76462068D01*
X91266589Y-76574010D01*
X91023368Y-76736525D01*
X90816525Y-76943368D01*
X90700000Y-77117760D01*
X90583475Y-76943368D01*
X90376632Y-76736525D01*
X90133411Y-76574010D01*
X89863158Y-76462068D01*
X89576260Y-76405000D01*
X89283740Y-76405000D01*
X88996842Y-76462068D01*
X88726589Y-76574010D01*
X88483368Y-76736525D01*
X88276525Y-76943368D01*
X88160000Y-77117760D01*
X88043475Y-76943368D01*
X87836632Y-76736525D01*
X87593411Y-76574010D01*
X87323158Y-76462068D01*
X87036260Y-76405000D01*
X86743740Y-76405000D01*
X86456842Y-76462068D01*
X86186589Y-76574010D01*
X85943368Y-76736525D01*
X85811513Y-76868380D01*
X85789502Y-76795820D01*
X85730537Y-76685506D01*
X85651185Y-76588815D01*
X85554494Y-76509463D01*
X85444180Y-76450498D01*
X85324482Y-76414188D01*
X85200000Y-76401928D01*
X84635750Y-76405000D01*
X84477000Y-76563750D01*
X84223000Y-76563750D01*
X84064250Y-76405000D01*
X83500000Y-76401928D01*
X83375518Y-76414188D01*
X83255820Y-76450498D01*
X83145506Y-76509463D01*
X83048815Y-76588815D01*
X82969463Y-76685506D01*
X82910498Y-76795820D01*
X82888487Y-76868380D01*
X82756632Y-76736525D01*
X82513411Y-76574010D01*
X82243158Y-76462068D01*
X81956260Y-76405000D01*
X81663740Y-76405000D01*
X81376842Y-76462068D01*
X81106589Y-76574010D01*
X80863368Y-76736525D01*
X80656525Y-76943368D01*
X80540000Y-77117760D01*
X80423475Y-76943368D01*
X80216632Y-76736525D01*
X79973411Y-76574010D01*
X79703158Y-76462068D01*
X79416260Y-76405000D01*
X79123740Y-76405000D01*
X78836842Y-76462068D01*
X78566589Y-76574010D01*
X78323368Y-76736525D01*
X78116525Y-76943368D01*
X78000000Y-77117760D01*
X77883475Y-76943368D01*
X77676632Y-76736525D01*
X77433411Y-76574010D01*
X77163158Y-76462068D01*
X76876260Y-76405000D01*
X76583740Y-76405000D01*
X76296842Y-76462068D01*
X76026589Y-76574010D01*
X75783368Y-76736525D01*
X75576525Y-76943368D01*
X75460000Y-77117760D01*
X75343475Y-76943368D01*
X75136632Y-76736525D01*
X74893411Y-76574010D01*
X74623158Y-76462068D01*
X74336260Y-76405000D01*
X74043740Y-76405000D01*
X73756842Y-76462068D01*
X73486589Y-76574010D01*
X73243368Y-76736525D01*
X73111513Y-76868380D01*
X73089502Y-76795820D01*
X73030537Y-76685506D01*
X72951185Y-76588815D01*
X72854494Y-76509463D01*
X72744180Y-76450498D01*
X72624482Y-76414188D01*
X72500000Y-76401928D01*
X71935750Y-76405000D01*
X71777000Y-76563750D01*
X71523000Y-76563750D01*
X71364250Y-76405000D01*
X70800000Y-76401928D01*
X70675518Y-76414188D01*
X70555820Y-76450498D01*
X70445506Y-76509463D01*
X70348815Y-76588815D01*
X70269463Y-76685506D01*
X70210498Y-76795820D01*
X70188487Y-76868380D01*
X70056632Y-76736525D01*
X69813411Y-76574010D01*
X69543158Y-76462068D01*
X69256260Y-76405000D01*
X68963740Y-76405000D01*
X68676842Y-76462068D01*
X68406589Y-76574010D01*
X68163368Y-76736525D01*
X67956525Y-76943368D01*
X67840000Y-77117760D01*
X67723475Y-76943368D01*
X67516632Y-76736525D01*
X67273411Y-76574010D01*
X67003158Y-76462068D01*
X66716260Y-76405000D01*
X66423740Y-76405000D01*
X66136842Y-76462068D01*
X65866589Y-76574010D01*
X65623368Y-76736525D01*
X65416525Y-76943368D01*
X65300000Y-77117760D01*
X65183475Y-76943368D01*
X64976632Y-76736525D01*
X64733411Y-76574010D01*
X64463158Y-76462068D01*
X64176260Y-76405000D01*
X63883740Y-76405000D01*
X63596842Y-76462068D01*
X63326589Y-76574010D01*
X63083368Y-76736525D01*
X62876525Y-76943368D01*
X62760000Y-77117760D01*
X62643475Y-76943368D01*
X62436632Y-76736525D01*
X62193411Y-76574010D01*
X61923158Y-76462068D01*
X61636260Y-76405000D01*
X61343740Y-76405000D01*
X61056842Y-76462068D01*
X60786589Y-76574010D01*
X60543368Y-76736525D01*
X60411513Y-76868380D01*
X60389502Y-76795820D01*
X60330537Y-76685506D01*
X60251185Y-76588815D01*
X60154494Y-76509463D01*
X60044180Y-76450498D01*
X59924482Y-76414188D01*
X59800000Y-76401928D01*
X59235750Y-76405000D01*
X59077000Y-76563750D01*
X58823000Y-76563750D01*
X58664250Y-76405000D01*
X58100000Y-76401928D01*
X57975518Y-76414188D01*
X57855820Y-76450498D01*
X57745506Y-76509463D01*
X57648815Y-76588815D01*
X57569463Y-76685506D01*
X57510498Y-76795820D01*
X57488487Y-76868380D01*
X57356632Y-76736525D01*
X57113411Y-76574010D01*
X56843158Y-76462068D01*
X56556260Y-76405000D01*
X56263740Y-76405000D01*
X55976842Y-76462068D01*
X55706589Y-76574010D01*
X55463368Y-76736525D01*
X55256525Y-76943368D01*
X55140000Y-77117760D01*
X55023475Y-76943368D01*
X54816632Y-76736525D01*
X54573411Y-76574010D01*
X54303158Y-76462068D01*
X54016260Y-76405000D01*
X53723740Y-76405000D01*
X53436842Y-76462068D01*
X53166589Y-76574010D01*
X53080000Y-76631867D01*
X53080000Y-76618355D01*
X53758355Y-75940000D01*
X69165392Y-75940000D01*
X69215000Y-75944886D01*
X69412994Y-75925385D01*
X69603380Y-75867632D01*
X69778840Y-75773847D01*
X69932633Y-75647633D01*
X69964261Y-75609094D01*
X71164094Y-74409261D01*
X71202633Y-74377633D01*
X71328847Y-74223840D01*
X71422632Y-74048380D01*
X71480385Y-73857994D01*
X71495000Y-73709608D01*
X71495000Y-73709606D01*
X71499886Y-73660001D01*
X71495000Y-73610396D01*
X71495000Y-70534604D01*
X71499886Y-70484999D01*
X71492877Y-70413840D01*
X71480385Y-70287006D01*
X71422632Y-70096620D01*
X71328847Y-69921160D01*
X71202633Y-69767367D01*
X71164094Y-69735739D01*
X69964261Y-68535906D01*
X69932633Y-68497367D01*
X69778840Y-68371153D01*
X69627013Y-68290000D01*
X83701928Y-68290000D01*
X83701928Y-69080000D01*
G36*
X67396939Y-53332359D02*
G01*
X67543038Y-53551013D01*
X67728987Y-53736962D01*
X67947641Y-53883061D01*
X68190595Y-53983696D01*
X68448514Y-54035000D01*
X68711486Y-54035000D01*
X68969405Y-53983696D01*
X69212359Y-53883061D01*
X69431013Y-53736962D01*
X69457975Y-53710000D01*
X70100604Y-53710000D01*
X70205241Y-53814637D01*
X70440273Y-53971680D01*
X70701426Y-54079853D01*
X70978665Y-54135000D01*
X71126645Y-54135000D01*
X72280744Y-55289100D01*
X72312367Y-55327633D01*
X72466160Y-55453847D01*
X72625003Y-55538750D01*
X72641620Y-55547632D01*
X72832005Y-55605385D01*
X73030000Y-55624886D01*
X73079608Y-55620000D01*
X78690392Y-55620000D01*
X78740000Y-55624886D01*
X78937994Y-55605385D01*
X79067324Y-55566153D01*
X79128380Y-55547632D01*
X79303840Y-55453847D01*
X79457633Y-55327633D01*
X79489261Y-55289094D01*
X80168356Y-54610000D01*
X98480604Y-54610000D01*
X98585241Y-54714637D01*
X98820273Y-54871680D01*
X99081426Y-54979853D01*
X99358665Y-55035000D01*
X99641335Y-55035000D01*
X99918574Y-54979853D01*
X100179727Y-54871680D01*
X100414759Y-54714637D01*
X100581339Y-54548057D01*
X100610498Y-54644180D01*
X100669463Y-54754494D01*
X100748815Y-54851185D01*
X100845506Y-54930537D01*
X100955820Y-54989502D01*
X101075518Y-55025812D01*
X101200000Y-55038072D01*
X102800000Y-55038072D01*
X102924482Y-55025812D01*
X103044180Y-54989502D01*
X103154494Y-54930537D01*
X103251185Y-54851185D01*
X103330537Y-54754494D01*
X103389502Y-54644180D01*
X103399870Y-54610000D01*
X104710392Y-54610000D01*
X104760000Y-54614886D01*
X104957994Y-54595385D01*
X105044647Y-54569099D01*
X105148380Y-54537632D01*
X105173779Y-54524056D01*
X105176497Y-54527368D01*
X105242368Y-54607633D01*
X105280901Y-54639256D01*
X106021645Y-55380000D01*
X105917998Y-55380000D01*
X105917998Y-55538748D01*
X105759250Y-55380000D01*
X105495000Y-55376928D01*
X105370518Y-55389188D01*
X105250820Y-55425498D01*
X105140506Y-55484463D01*
X105043815Y-55563815D01*
X104964463Y-55660506D01*
X104905498Y-55770820D01*
X104869188Y-55890518D01*
X104856928Y-56015000D01*
X104860000Y-56629250D01*
X105018750Y-56788000D01*
X105918000Y-56788000D01*
X105918000Y-56768000D01*
X106172000Y-56768000D01*
X106172000Y-56788000D01*
X107071250Y-56788000D01*
X107230000Y-56629250D01*
X107231231Y-56383072D01*
X107396928Y-56383072D01*
X107396928Y-57540000D01*
X107414472Y-57718132D01*
X107466431Y-57889418D01*
X107550808Y-58047276D01*
X107664361Y-58185639D01*
X107802724Y-58299192D01*
X107960582Y-58383569D01*
X108131868Y-58435528D01*
X108310000Y-58453072D01*
X108860000Y-58453072D01*
X109038132Y-58435528D01*
X109209418Y-58383569D01*
X109367276Y-58299192D01*
X109505639Y-58185639D01*
X109619192Y-58047276D01*
X109703569Y-57889418D01*
X109755528Y-57718132D01*
X109773072Y-57540000D01*
X109773072Y-56290000D01*
X109755528Y-56111868D01*
X109703569Y-55940582D01*
X109619192Y-55782724D01*
X109550000Y-55698414D01*
X109550000Y-53410000D01*
X110145072Y-53410000D01*
X110306525Y-53651632D01*
X110513368Y-53858475D01*
X110756589Y-54020990D01*
X111026842Y-54132932D01*
X111124323Y-54152322D01*
X111080901Y-54195744D01*
X111042368Y-54227367D01*
X111010745Y-54265900D01*
X111010744Y-54265901D01*
X110916154Y-54381160D01*
X110822368Y-54556621D01*
X110764615Y-54747006D01*
X110745114Y-54945000D01*
X110750001Y-54994618D01*
X110750000Y-72606645D01*
X110451692Y-72904953D01*
X110503696Y-72779405D01*
X110555000Y-72521486D01*
X110555000Y-72258514D01*
X110503696Y-72000595D01*
X110403061Y-71757641D01*
X110256962Y-71538987D01*
X110230000Y-71512025D01*
X110230000Y-71449659D01*
X110234886Y-71400051D01*
X110215385Y-71202056D01*
X110157632Y-71011671D01*
X110126916Y-70954205D01*
X110063847Y-70836211D01*
X109937633Y-70682418D01*
X109899099Y-70650794D01*
X109305259Y-70056954D01*
X109300334Y-70006954D01*
X109242581Y-69816570D01*
X109242581Y-69816569D01*
X109148796Y-69641109D01*
X109022582Y-69487316D01*
X108984043Y-69455688D01*
X108960000Y-69431645D01*
X108960000Y-68775038D01*
X109044180Y-68749502D01*
X109154494Y-68690537D01*
X109251185Y-68611185D01*
X109330537Y-68514494D01*
X109389502Y-68404180D01*
X109425812Y-68284482D01*
X109438072Y-68160000D01*
X109438072Y-66460000D01*
X109425812Y-66335518D01*
X109389502Y-66215820D01*
X109330537Y-66105506D01*
X109251185Y-66008815D01*
X109154494Y-65929463D01*
X109044180Y-65870498D01*
X108963534Y-65846034D01*
X109047588Y-65770269D01*
X109221641Y-65536920D01*
X109346825Y-65274099D01*
X109391476Y-65126890D01*
X109270155Y-64897000D01*
X108077000Y-64897000D01*
X108077000Y-64917000D01*
X107823000Y-64917000D01*
X107823000Y-64897000D01*
X107803000Y-64897000D01*
X107803000Y-64643000D01*
X107823000Y-64643000D01*
X107823000Y-63449186D01*
X108077000Y-63449186D01*
X108077000Y-64643000D01*
X109270155Y-64643000D01*
X109391476Y-64413110D01*
X109346825Y-64265901D01*
X109221641Y-64003080D01*
X109047588Y-63769731D01*
X108831355Y-63574822D01*
X108581252Y-63425843D01*
X108306891Y-63328519D01*
X108077000Y-63449186D01*
X107823000Y-63449186D01*
X107593109Y-63328519D01*
X107318748Y-63425843D01*
X107068645Y-63574822D01*
X106852412Y-63769731D01*
X106678359Y-64003080D01*
X106553175Y-64265901D01*
X106508524Y-64413110D01*
X106538760Y-64470404D01*
X104889261Y-62820906D01*
X104857633Y-62782367D01*
X104703840Y-62656153D01*
X104528380Y-62562368D01*
X104337994Y-62504615D01*
X104189608Y-62490000D01*
X104140000Y-62485114D01*
X104090392Y-62490000D01*
X78523356Y-62490000D01*
X77740000Y-61706645D01*
X77740000Y-61200107D01*
X77883475Y-61056632D01*
X78000000Y-60882240D01*
X78116525Y-61056632D01*
X78323368Y-61263475D01*
X78566589Y-61425990D01*
X78836842Y-61537932D01*
X79123740Y-61595000D01*
X79416260Y-61595000D01*
X79703158Y-61537932D01*
X79973411Y-61425990D01*
X80216632Y-61263475D01*
X80423475Y-61056632D01*
X80540000Y-60882240D01*
X80656525Y-61056632D01*
X80863368Y-61263475D01*
X81106589Y-61425990D01*
X81376842Y-61537932D01*
X81663740Y-61595000D01*
X81956260Y-61595000D01*
X82243158Y-61537932D01*
X82513411Y-61425990D01*
X82756632Y-61263475D01*
X82888487Y-61131620D01*
X82910498Y-61204180D01*
X82969463Y-61314494D01*
X83048815Y-61411185D01*
X83145506Y-61490537D01*
X83255820Y-61549502D01*
X83375518Y-61585812D01*
X83500000Y-61598072D01*
X84064250Y-61595000D01*
X84223000Y-61436250D01*
X84223000Y-60237000D01*
X84203000Y-60237000D01*
X84203000Y-59983000D01*
X84223000Y-59983000D01*
X84223000Y-58783750D01*
X84477000Y-58783750D01*
X84477000Y-59983000D01*
X84497000Y-59983000D01*
X84497000Y-60237000D01*
X84477000Y-60237000D01*
X84477000Y-61436250D01*
X84635750Y-61595000D01*
X85200000Y-61598072D01*
X85324482Y-61585812D01*
X85444180Y-61549502D01*
X85554494Y-61490537D01*
X85651185Y-61411185D01*
X85730537Y-61314494D01*
X85789502Y-61204180D01*
X85811513Y-61131620D01*
X85943368Y-61263475D01*
X86186589Y-61425990D01*
X86456842Y-61537932D01*
X86743740Y-61595000D01*
X87036260Y-61595000D01*
X87323158Y-61537932D01*
X87593411Y-61425990D01*
X87836632Y-61263475D01*
X88043475Y-61056632D01*
X88160000Y-60882240D01*
X88276525Y-61056632D01*
X88483368Y-61263475D01*
X88726589Y-61425990D01*
X88996842Y-61537932D01*
X89283740Y-61595000D01*
X89576260Y-61595000D01*
X89863158Y-61537932D01*
X90133411Y-61425990D01*
X90376632Y-61263475D01*
X90583475Y-61056632D01*
X90700000Y-60882240D01*
X90816525Y-61056632D01*
X91023368Y-61263475D01*
X91266589Y-61425990D01*
X91536842Y-61537932D01*
X91823740Y-61595000D01*
X92116260Y-61595000D01*
X92403158Y-61537932D01*
X92673411Y-61425990D01*
X92916632Y-61263475D01*
X93123475Y-61056632D01*
X93240000Y-60882240D01*
X93356525Y-61056632D01*
X93563368Y-61263475D01*
X93806589Y-61425990D01*
X94076842Y-61537932D01*
X94363740Y-61595000D01*
X94656260Y-61595000D01*
X94943158Y-61537932D01*
X95213411Y-61425990D01*
X95456632Y-61263475D01*
X95588487Y-61131620D01*
X95610498Y-61204180D01*
X95669463Y-61314494D01*
X95748815Y-61411185D01*
X95845506Y-61490537D01*
X95955820Y-61549502D01*
X96075518Y-61585812D01*
X96200000Y-61598072D01*
X96764250Y-61595000D01*
X96923000Y-61436250D01*
X96923000Y-60237000D01*
X96903000Y-60237000D01*
X96903000Y-59983000D01*
X96923000Y-59983000D01*
X96923000Y-58783750D01*
X97177000Y-58783750D01*
X97177000Y-59983000D01*
X97197000Y-59983000D01*
X97197000Y-60237000D01*
X97177000Y-60237000D01*
X97177000Y-61436250D01*
X97335750Y-61595000D01*
X97900000Y-61598072D01*
X98024482Y-61585812D01*
X98144180Y-61549502D01*
X98254494Y-61490537D01*
X98351185Y-61411185D01*
X98430537Y-61314494D01*
X98489502Y-61204180D01*
X98511513Y-61131620D01*
X98643368Y-61263475D01*
X98886589Y-61425990D01*
X99156842Y-61537932D01*
X99443740Y-61595000D01*
X99736260Y-61595000D01*
X100023158Y-61537932D01*
X100293411Y-61425990D01*
X100536632Y-61263475D01*
X100743475Y-61056632D01*
X100860000Y-60882240D01*
X100976525Y-61056632D01*
X101183368Y-61263475D01*
X101426589Y-61425990D01*
X101696842Y-61537932D01*
X101983740Y-61595000D01*
X102276260Y-61595000D01*
X102563158Y-61537932D01*
X102833411Y-61425990D01*
X103076632Y-61263475D01*
X103283475Y-61056632D01*
X103445990Y-60813411D01*
X103557932Y-60543158D01*
X103615000Y-60256260D01*
X103615000Y-59963740D01*
X103557932Y-59676842D01*
X103445990Y-59406589D01*
X103283475Y-59163368D01*
X103140000Y-59019893D01*
X103140000Y-58660107D01*
X103283475Y-58516632D01*
X103445990Y-58273411D01*
X103557932Y-58003158D01*
X103595359Y-57815000D01*
X104856928Y-57815000D01*
X104869188Y-57939482D01*
X104905498Y-58059180D01*
X104964463Y-58169494D01*
X105043815Y-58266185D01*
X105140506Y-58345537D01*
X105250820Y-58404502D01*
X105370518Y-58440812D01*
X105495000Y-58453072D01*
X105759250Y-58450000D01*
X105918000Y-58291250D01*
X105918000Y-57042000D01*
X106172000Y-57042000D01*
X106172000Y-58291250D01*
X106330750Y-58450000D01*
X106595000Y-58453072D01*
X106719482Y-58440812D01*
X106839180Y-58404502D01*
X106949494Y-58345537D01*
X107046185Y-58266185D01*
X107125537Y-58169494D01*
X107184502Y-58059180D01*
X107220812Y-57939482D01*
X107233072Y-57815000D01*
X107230000Y-57200750D01*
X107071250Y-57042000D01*
X106172000Y-57042000D01*
X105918000Y-57042000D01*
X105018750Y-57042000D01*
X104860000Y-57200750D01*
X104856928Y-57815000D01*
X103595359Y-57815000D01*
X103615000Y-57716260D01*
X103615000Y-57423740D01*
X103557932Y-57136842D01*
X103445990Y-56866589D01*
X103283475Y-56623368D01*
X103076632Y-56416525D01*
X102833411Y-56254010D01*
X102563158Y-56142068D01*
X102276260Y-56085000D01*
X101983740Y-56085000D01*
X101696842Y-56142068D01*
X101426589Y-56254010D01*
X101183368Y-56416525D01*
X100976525Y-56623368D01*
X100860000Y-56797760D01*
X100743475Y-56623368D01*
X100536632Y-56416525D01*
X100293411Y-56254010D01*
X100023158Y-56142068D01*
X99736260Y-56085000D01*
X99443740Y-56085000D01*
X99156842Y-56142068D01*
X98886589Y-56254010D01*
X98643368Y-56416525D01*
X98436525Y-56623368D01*
X98274010Y-56866589D01*
X98162068Y-57136842D01*
X98105000Y-57423740D01*
X98105000Y-57716260D01*
X98162068Y-58003158D01*
X98274010Y-58273411D01*
X98436525Y-58516632D01*
X98580000Y-58660107D01*
X98580001Y-59019892D01*
X98511513Y-59088380D01*
X98489502Y-59015820D01*
X98430537Y-58905506D01*
X98351185Y-58808815D01*
X98254494Y-58729463D01*
X98144180Y-58670498D01*
X98024482Y-58634188D01*
X97900000Y-58621928D01*
X97335750Y-58625000D01*
X97177000Y-58783750D01*
X96923000Y-58783750D01*
X96764250Y-58625000D01*
X96200000Y-58621928D01*
X96075518Y-58634188D01*
X95955820Y-58670498D01*
X95845506Y-58729463D01*
X95748815Y-58808815D01*
X95669463Y-58905506D01*
X95610498Y-59015820D01*
X95588487Y-59088380D01*
X95520000Y-59019893D01*
X95520000Y-58660107D01*
X95663475Y-58516632D01*
X95825990Y-58273411D01*
X95937932Y-58003158D01*
X95995000Y-57716260D01*
X95995000Y-57423740D01*
X95937932Y-57136842D01*
X95825990Y-56866589D01*
X95663475Y-56623368D01*
X95456632Y-56416525D01*
X95213411Y-56254010D01*
X94943158Y-56142068D01*
X94656260Y-56085000D01*
X94363740Y-56085000D01*
X94076842Y-56142068D01*
X93806589Y-56254010D01*
X93563368Y-56416525D01*
X93356525Y-56623368D01*
X93240000Y-56797760D01*
X93123475Y-56623368D01*
X92916632Y-56416525D01*
X92673411Y-56254010D01*
X92403158Y-56142068D01*
X92116260Y-56085000D01*
X91823740Y-56085000D01*
X91536842Y-56142068D01*
X91266589Y-56254010D01*
X91023368Y-56416525D01*
X90816525Y-56623368D01*
X90700000Y-56797760D01*
X90583475Y-56623368D01*
X90376632Y-56416525D01*
X90133411Y-56254010D01*
X89863158Y-56142068D01*
X89576260Y-56085000D01*
X89283740Y-56085000D01*
X88996842Y-56142068D01*
X88726589Y-56254010D01*
X88483368Y-56416525D01*
X88276525Y-56623368D01*
X88160000Y-56797760D01*
X88043475Y-56623368D01*
X87836632Y-56416525D01*
X87593411Y-56254010D01*
X87323158Y-56142068D01*
X87036260Y-56085000D01*
X86743740Y-56085000D01*
X86456842Y-56142068D01*
X86186589Y-56254010D01*
X85943368Y-56416525D01*
X85736525Y-56623368D01*
X85574010Y-56866589D01*
X85462068Y-57136842D01*
X85405000Y-57423740D01*
X85405000Y-57716260D01*
X85462068Y-58003158D01*
X85574010Y-58273411D01*
X85736525Y-58516632D01*
X85880001Y-58660108D01*
X85880000Y-59019893D01*
X85811513Y-59088380D01*
X85789502Y-59015820D01*
X85730537Y-58905506D01*
X85651185Y-58808815D01*
X85554494Y-58729463D01*
X85444180Y-58670498D01*
X85324482Y-58634188D01*
X85200000Y-58621928D01*
X84635750Y-58625000D01*
X84477000Y-58783750D01*
X84223000Y-58783750D01*
X84064250Y-58625000D01*
X83500000Y-58621928D01*
X83375518Y-58634188D01*
X83255820Y-58670498D01*
X83145506Y-58729463D01*
X83048815Y-58808815D01*
X82969463Y-58905506D01*
X82910498Y-59015820D01*
X82888487Y-59088380D01*
X82820000Y-59019893D01*
X82820000Y-58660107D01*
X82963475Y-58516632D01*
X83125990Y-58273411D01*
X83237932Y-58003158D01*
X83295000Y-57716260D01*
X83295000Y-57423740D01*
X83237932Y-57136842D01*
X83125990Y-56866589D01*
X82963475Y-56623368D01*
X82756632Y-56416525D01*
X82513411Y-56254010D01*
X82243158Y-56142068D01*
X81956260Y-56085000D01*
X81663740Y-56085000D01*
X81376842Y-56142068D01*
X81106589Y-56254010D01*
X80863368Y-56416525D01*
X80656525Y-56623368D01*
X80540000Y-56797760D01*
X80423475Y-56623368D01*
X80216632Y-56416525D01*
X79973411Y-56254010D01*
X79703158Y-56142068D01*
X79416260Y-56085000D01*
X79123740Y-56085000D01*
X78836842Y-56142068D01*
X78566589Y-56254010D01*
X78323368Y-56416525D01*
X78116525Y-56623368D01*
X77954010Y-56866589D01*
X77842068Y-57136842D01*
X77785000Y-57423740D01*
X77785000Y-57716260D01*
X77842068Y-58003158D01*
X77954010Y-58273411D01*
X78116525Y-58516632D01*
X78260001Y-58660108D01*
X78260000Y-59019893D01*
X78116525Y-59163368D01*
X78000000Y-59337760D01*
X77883475Y-59163368D01*
X77676632Y-58956525D01*
X77433411Y-58794010D01*
X77163158Y-58682068D01*
X76876260Y-58625000D01*
X76583740Y-58625000D01*
X76296842Y-58682068D01*
X76026589Y-58794010D01*
X75783368Y-58956525D01*
X75576525Y-59163368D01*
X75460000Y-59337760D01*
X75343475Y-59163368D01*
X75200000Y-59019893D01*
X75200000Y-58660107D01*
X75343475Y-58516632D01*
X75505990Y-58273411D01*
X75617932Y-58003158D01*
X75675000Y-57716260D01*
X75675000Y-57423740D01*
X75617932Y-57136842D01*
X75505990Y-56866589D01*
X75343475Y-56623368D01*
X75136632Y-56416525D01*
X74893411Y-56254010D01*
X74623158Y-56142068D01*
X74336260Y-56085000D01*
X74043740Y-56085000D01*
X73756842Y-56142068D01*
X73486589Y-56254010D01*
X73243368Y-56416525D01*
X73036525Y-56623368D01*
X72874010Y-56866589D01*
X72762068Y-57136842D01*
X72705000Y-57423740D01*
X72705000Y-57716260D01*
X72762068Y-58003158D01*
X72874010Y-58273411D01*
X73036525Y-58516632D01*
X73180000Y-58660107D01*
X73180001Y-59019892D01*
X73111513Y-59088380D01*
X73089502Y-59015820D01*
X73030537Y-58905506D01*
X72951185Y-58808815D01*
X72854494Y-58729463D01*
X72744180Y-58670498D01*
X72624482Y-58634188D01*
X72500000Y-58621928D01*
X71935750Y-58625000D01*
X71777000Y-58783750D01*
X71777000Y-59983000D01*
X71797000Y-59983000D01*
X71797000Y-60237000D01*
X71777000Y-60237000D01*
X71777000Y-61436250D01*
X71935750Y-61595000D01*
X72500000Y-61598072D01*
X72624482Y-61585812D01*
X72744180Y-61549502D01*
X72854494Y-61490537D01*
X72951185Y-61411185D01*
X73030537Y-61314494D01*
X73089502Y-61204180D01*
X73111513Y-61131620D01*
X73243368Y-61263475D01*
X73486589Y-61425990D01*
X73756842Y-61537932D01*
X74043740Y-61595000D01*
X74336260Y-61595000D01*
X74623158Y-61537932D01*
X74893411Y-61425990D01*
X75136632Y-61263475D01*
X75343475Y-61056632D01*
X75460000Y-60882240D01*
X75576525Y-61056632D01*
X75720000Y-61200107D01*
X75720000Y-62075392D01*
X75715114Y-62125000D01*
X75720000Y-62174607D01*
X75734615Y-62322993D01*
X75792368Y-62513379D01*
X75886153Y-62688840D01*
X76012367Y-62842633D01*
X76050906Y-62874261D01*
X77355743Y-64179099D01*
X77387367Y-64217633D01*
X77541160Y-64343847D01*
X77680600Y-64418379D01*
X77716620Y-64437632D01*
X77907005Y-64495385D01*
X78105000Y-64514886D01*
X78154608Y-64510000D01*
X103721645Y-64510000D01*
X105035001Y-65823357D01*
X105035000Y-66955392D01*
X105030114Y-67005000D01*
X105049615Y-67202994D01*
X105072975Y-67280000D01*
X105107368Y-67393379D01*
X105201153Y-67568840D01*
X105327367Y-67722633D01*
X105365907Y-67754262D01*
X105600735Y-67989090D01*
X105632367Y-68027633D01*
X105786160Y-68153847D01*
X105961620Y-68247632D01*
X106152006Y-68305385D01*
X106300392Y-68320000D01*
X106300394Y-68320000D01*
X106349999Y-68324886D01*
X106399604Y-68320000D01*
X106484962Y-68320000D01*
X106510498Y-68404180D01*
X106569463Y-68514494D01*
X106648815Y-68611185D01*
X106745506Y-68690537D01*
X106855820Y-68749502D01*
X106940000Y-68775038D01*
X106940000Y-69800392D01*
X106935114Y-69850000D01*
X106954615Y-70047994D01*
X106986357Y-70152632D01*
X107012368Y-70238379D01*
X107106153Y-70413840D01*
X107232367Y-70567633D01*
X107270906Y-70599261D01*
X107304639Y-70632994D01*
X107309564Y-70682994D01*
X107321078Y-70720951D01*
X107367317Y-70873379D01*
X107461102Y-71048840D01*
X107587316Y-71202633D01*
X107625854Y-71234261D01*
X108081918Y-71690325D01*
X108036939Y-71757641D01*
X107950000Y-71967530D01*
X107863061Y-71757641D01*
X107716962Y-71538987D01*
X107531013Y-71353038D01*
X107312359Y-71206939D01*
X107069405Y-71106304D01*
X106811486Y-71055000D01*
X106548514Y-71055000D01*
X106290595Y-71106304D01*
X106047641Y-71206939D01*
X105828987Y-71353038D01*
X105643038Y-71538987D01*
X105496939Y-71757641D01*
X105396304Y-72000595D01*
X105345000Y-72258514D01*
X105345000Y-72521486D01*
X105396304Y-72779405D01*
X105496939Y-73022359D01*
X105541918Y-73089675D01*
X105346594Y-73285000D01*
X105193355Y-73285000D01*
X104889261Y-72980906D01*
X104857633Y-72942367D01*
X104703840Y-72816153D01*
X104528380Y-72722368D01*
X104337994Y-72664615D01*
X104189608Y-72650000D01*
X104140000Y-72645114D01*
X104090392Y-72650000D01*
X102890107Y-72650000D01*
X103053475Y-72486632D01*
X103215990Y-72243411D01*
X103327932Y-71973158D01*
X103385000Y-71686260D01*
X103385000Y-71393740D01*
X103327932Y-71106842D01*
X103215990Y-70836589D01*
X103053475Y-70593368D01*
X102921620Y-70461513D01*
X102994180Y-70439502D01*
X103104494Y-70380537D01*
X103201185Y-70301185D01*
X103280537Y-70204494D01*
X103339502Y-70094180D01*
X103375812Y-69974482D01*
X103388072Y-69850000D01*
X103388072Y-68150000D01*
X103375812Y-68025518D01*
X103339502Y-67905820D01*
X103280537Y-67795506D01*
X103201185Y-67698815D01*
X103104494Y-67619463D01*
X102994180Y-67560498D01*
X102921620Y-67538487D01*
X103053475Y-67406632D01*
X103215990Y-67163411D01*
X103327932Y-66893158D01*
X103385000Y-66606260D01*
X103385000Y-66313740D01*
X103327932Y-66026842D01*
X103215990Y-65756589D01*
X103053475Y-65513368D01*
X102846632Y-65306525D01*
X102603411Y-65144010D01*
X102333158Y-65032068D01*
X102046260Y-64975000D01*
X101753740Y-64975000D01*
X101466842Y-65032068D01*
X101196589Y-65144010D01*
X100953368Y-65306525D01*
X100746525Y-65513368D01*
X100584010Y-65756589D01*
X100472068Y-66026842D01*
X100415000Y-66313740D01*
X100415000Y-66606260D01*
X100472068Y-66893158D01*
X100584010Y-67163411D01*
X100746525Y-67406632D01*
X100878380Y-67538487D01*
X100805820Y-67560498D01*
X100695506Y-67619463D01*
X100598815Y-67698815D01*
X100519463Y-67795506D01*
X100460498Y-67905820D01*
X100424188Y-68025518D01*
X100411928Y-68150000D01*
X100411928Y-69850000D01*
X100424188Y-69974482D01*
X100460498Y-70094180D01*
X100519463Y-70204494D01*
X100598815Y-70301185D01*
X100695506Y-70380537D01*
X100805820Y-70439502D01*
X100878380Y-70461513D01*
X100746525Y-70593368D01*
X100584010Y-70836589D01*
X100472068Y-71106842D01*
X100415000Y-71393740D01*
X100415000Y-71686260D01*
X100472068Y-71973158D01*
X100584010Y-72243411D01*
X100746525Y-72486632D01*
X100909893Y-72650000D01*
X100748356Y-72650000D01*
X94699261Y-66600906D01*
X94667633Y-66562367D01*
X94513840Y-66436153D01*
X94338380Y-66342368D01*
X94147994Y-66284615D01*
X93999608Y-66270000D01*
X93950000Y-66265114D01*
X93900392Y-66270000D01*
X85858160Y-66270000D01*
X85819875Y-66249536D01*
X85729319Y-66212027D01*
X85609623Y-66175718D01*
X85513490Y-66156596D01*
X85389009Y-66144336D01*
X85364450Y-66144336D01*
X85340000Y-66141928D01*
X84840000Y-66141928D01*
X84815550Y-66144336D01*
X84790991Y-66144336D01*
X84666510Y-66156596D01*
X84570377Y-66175718D01*
X84450681Y-66212027D01*
X84360125Y-66249536D01*
X84321840Y-66270000D01*
X67698355Y-66270000D01*
X65040000Y-63611645D01*
X65040000Y-61200107D01*
X65183475Y-61056632D01*
X65300000Y-60882240D01*
X65416525Y-61056632D01*
X65623368Y-61263475D01*
X65866589Y-61425990D01*
X66136842Y-61537932D01*
X66423740Y-61595000D01*
X66716260Y-61595000D01*
X67003158Y-61537932D01*
X67273411Y-61425990D01*
X67516632Y-61263475D01*
X67723475Y-61056632D01*
X67840000Y-60882240D01*
X67956525Y-61056632D01*
X68163368Y-61263475D01*
X68406589Y-61425990D01*
X68676842Y-61537932D01*
X68963740Y-61595000D01*
X69256260Y-61595000D01*
X69543158Y-61537932D01*
X69813411Y-61425990D01*
X70056632Y-61263475D01*
X70188487Y-61131620D01*
X70210498Y-61204180D01*
X70269463Y-61314494D01*
X70348815Y-61411185D01*
X70445506Y-61490537D01*
X70555820Y-61549502D01*
X70675518Y-61585812D01*
X70800000Y-61598072D01*
X71364250Y-61595000D01*
X71523000Y-61436250D01*
X71523000Y-60237000D01*
X71503000Y-60237000D01*
X71503000Y-59983000D01*
X71523000Y-59983000D01*
X71523000Y-58783750D01*
X71364250Y-58625000D01*
X70800000Y-58621928D01*
X70675518Y-58634188D01*
X70555820Y-58670498D01*
X70445506Y-58729463D01*
X70348815Y-58808815D01*
X70269463Y-58905506D01*
X70210498Y-59015820D01*
X70188487Y-59088380D01*
X70120000Y-59019893D01*
X70120000Y-56459604D01*
X70124886Y-56409999D01*
X70115388Y-56313569D01*
X70105385Y-56212006D01*
X70047632Y-56021620D01*
X69953847Y-55846160D01*
X69827633Y-55692367D01*
X69789089Y-55660735D01*
X69329261Y-55200907D01*
X69297633Y-55162367D01*
X69143840Y-55036153D01*
X68968380Y-54942368D01*
X68777994Y-54884615D01*
X68629608Y-54870000D01*
X68580000Y-54865114D01*
X68530392Y-54870000D01*
X67093355Y-54870000D01*
X67050000Y-54826645D01*
X67050000Y-53577975D01*
X67076962Y-53551013D01*
X67223061Y-53332359D01*
X67310000Y-53122470D01*
X67396939Y-53332359D01*
G37*
X67396939Y-53332359D02*
X67543038Y-53551013D01*
X67728987Y-53736962D01*
X67947641Y-53883061D01*
X68190595Y-53983696D01*
X68448514Y-54035000D01*
X68711486Y-54035000D01*
X68969405Y-53983696D01*
X69212359Y-53883061D01*
X69431013Y-53736962D01*
X69457975Y-53710000D01*
X70100604Y-53710000D01*
X70205241Y-53814637D01*
X70440273Y-53971680D01*
X70701426Y-54079853D01*
X70978665Y-54135000D01*
X71126645Y-54135000D01*
X72280744Y-55289100D01*
X72312367Y-55327633D01*
X72466160Y-55453847D01*
X72625003Y-55538750D01*
X72641620Y-55547632D01*
X72832005Y-55605385D01*
X73030000Y-55624886D01*
X73079608Y-55620000D01*
X78690392Y-55620000D01*
X78740000Y-55624886D01*
X78937994Y-55605385D01*
X79067324Y-55566153D01*
X79128380Y-55547632D01*
X79303840Y-55453847D01*
X79457633Y-55327633D01*
X79489261Y-55289094D01*
X80168356Y-54610000D01*
X98480604Y-54610000D01*
X98585241Y-54714637D01*
X98820273Y-54871680D01*
X99081426Y-54979853D01*
X99358665Y-55035000D01*
X99641335Y-55035000D01*
X99918574Y-54979853D01*
X100179727Y-54871680D01*
X100414759Y-54714637D01*
X100581339Y-54548057D01*
X100610498Y-54644180D01*
X100669463Y-54754494D01*
X100748815Y-54851185D01*
X100845506Y-54930537D01*
X100955820Y-54989502D01*
X101075518Y-55025812D01*
X101200000Y-55038072D01*
X102800000Y-55038072D01*
X102924482Y-55025812D01*
X103044180Y-54989502D01*
X103154494Y-54930537D01*
X103251185Y-54851185D01*
X103330537Y-54754494D01*
X103389502Y-54644180D01*
X103399870Y-54610000D01*
X104710392Y-54610000D01*
X104760000Y-54614886D01*
X104957994Y-54595385D01*
X105044647Y-54569099D01*
X105148380Y-54537632D01*
X105173779Y-54524056D01*
X105176497Y-54527368D01*
X105242368Y-54607633D01*
X105280901Y-54639256D01*
X106021645Y-55380000D01*
X105917998Y-55380000D01*
X105917998Y-55538748D01*
X105759250Y-55380000D01*
X105495000Y-55376928D01*
X105370518Y-55389188D01*
X105250820Y-55425498D01*
X105140506Y-55484463D01*
X105043815Y-55563815D01*
X104964463Y-55660506D01*
X104905498Y-55770820D01*
X104869188Y-55890518D01*
X104856928Y-56015000D01*
X104860000Y-56629250D01*
X105018750Y-56788000D01*
X105918000Y-56788000D01*
X105918000Y-56768000D01*
X106172000Y-56768000D01*
X106172000Y-56788000D01*
X107071250Y-56788000D01*
X107230000Y-56629250D01*
X107231231Y-56383072D01*
X107396928Y-56383072D01*
X107396928Y-57540000D01*
X107414472Y-57718132D01*
X107466431Y-57889418D01*
X107550808Y-58047276D01*
X107664361Y-58185639D01*
X107802724Y-58299192D01*
X107960582Y-58383569D01*
X108131868Y-58435528D01*
X108310000Y-58453072D01*
X108860000Y-58453072D01*
X109038132Y-58435528D01*
X109209418Y-58383569D01*
X109367276Y-58299192D01*
X109505639Y-58185639D01*
X109619192Y-58047276D01*
X109703569Y-57889418D01*
X109755528Y-57718132D01*
X109773072Y-57540000D01*
X109773072Y-56290000D01*
X109755528Y-56111868D01*
X109703569Y-55940582D01*
X109619192Y-55782724D01*
X109550000Y-55698414D01*
X109550000Y-53410000D01*
X110145072Y-53410000D01*
X110306525Y-53651632D01*
X110513368Y-53858475D01*
X110756589Y-54020990D01*
X111026842Y-54132932D01*
X111124323Y-54152322D01*
X111080901Y-54195744D01*
X111042368Y-54227367D01*
X111010745Y-54265900D01*
X111010744Y-54265901D01*
X110916154Y-54381160D01*
X110822368Y-54556621D01*
X110764615Y-54747006D01*
X110745114Y-54945000D01*
X110750001Y-54994618D01*
X110750000Y-72606645D01*
X110451692Y-72904953D01*
X110503696Y-72779405D01*
X110555000Y-72521486D01*
X110555000Y-72258514D01*
X110503696Y-72000595D01*
X110403061Y-71757641D01*
X110256962Y-71538987D01*
X110230000Y-71512025D01*
X110230000Y-71449659D01*
X110234886Y-71400051D01*
X110215385Y-71202056D01*
X110157632Y-71011671D01*
X110126916Y-70954205D01*
X110063847Y-70836211D01*
X109937633Y-70682418D01*
X109899099Y-70650794D01*
X109305259Y-70056954D01*
X109300334Y-70006954D01*
X109242581Y-69816570D01*
X109242581Y-69816569D01*
X109148796Y-69641109D01*
X109022582Y-69487316D01*
X108984043Y-69455688D01*
X108960000Y-69431645D01*
X108960000Y-68775038D01*
X109044180Y-68749502D01*
X109154494Y-68690537D01*
X109251185Y-68611185D01*
X109330537Y-68514494D01*
X109389502Y-68404180D01*
X109425812Y-68284482D01*
X109438072Y-68160000D01*
X109438072Y-66460000D01*
X109425812Y-66335518D01*
X109389502Y-66215820D01*
X109330537Y-66105506D01*
X109251185Y-66008815D01*
X109154494Y-65929463D01*
X109044180Y-65870498D01*
X108963534Y-65846034D01*
X109047588Y-65770269D01*
X109221641Y-65536920D01*
X109346825Y-65274099D01*
X109391476Y-65126890D01*
X109270155Y-64897000D01*
X108077000Y-64897000D01*
X108077000Y-64917000D01*
X107823000Y-64917000D01*
X107823000Y-64897000D01*
X107803000Y-64897000D01*
X107803000Y-64643000D01*
X107823000Y-64643000D01*
X107823000Y-63449186D01*
X108077000Y-63449186D01*
X108077000Y-64643000D01*
X109270155Y-64643000D01*
X109391476Y-64413110D01*
X109346825Y-64265901D01*
X109221641Y-64003080D01*
X109047588Y-63769731D01*
X108831355Y-63574822D01*
X108581252Y-63425843D01*
X108306891Y-63328519D01*
X108077000Y-63449186D01*
X107823000Y-63449186D01*
X107593109Y-63328519D01*
X107318748Y-63425843D01*
X107068645Y-63574822D01*
X106852412Y-63769731D01*
X106678359Y-64003080D01*
X106553175Y-64265901D01*
X106508524Y-64413110D01*
X106538760Y-64470404D01*
X104889261Y-62820906D01*
X104857633Y-62782367D01*
X104703840Y-62656153D01*
X104528380Y-62562368D01*
X104337994Y-62504615D01*
X104189608Y-62490000D01*
X104140000Y-62485114D01*
X104090392Y-62490000D01*
X78523356Y-62490000D01*
X77740000Y-61706645D01*
X77740000Y-61200107D01*
X77883475Y-61056632D01*
X78000000Y-60882240D01*
X78116525Y-61056632D01*
X78323368Y-61263475D01*
X78566589Y-61425990D01*
X78836842Y-61537932D01*
X79123740Y-61595000D01*
X79416260Y-61595000D01*
X79703158Y-61537932D01*
X79973411Y-61425990D01*
X80216632Y-61263475D01*
X80423475Y-61056632D01*
X80540000Y-60882240D01*
X80656525Y-61056632D01*
X80863368Y-61263475D01*
X81106589Y-61425990D01*
X81376842Y-61537932D01*
X81663740Y-61595000D01*
X81956260Y-61595000D01*
X82243158Y-61537932D01*
X82513411Y-61425990D01*
X82756632Y-61263475D01*
X82888487Y-61131620D01*
X82910498Y-61204180D01*
X82969463Y-61314494D01*
X83048815Y-61411185D01*
X83145506Y-61490537D01*
X83255820Y-61549502D01*
X83375518Y-61585812D01*
X83500000Y-61598072D01*
X84064250Y-61595000D01*
X84223000Y-61436250D01*
X84223000Y-60237000D01*
X84203000Y-60237000D01*
X84203000Y-59983000D01*
X84223000Y-59983000D01*
X84223000Y-58783750D01*
X84477000Y-58783750D01*
X84477000Y-59983000D01*
X84497000Y-59983000D01*
X84497000Y-60237000D01*
X84477000Y-60237000D01*
X84477000Y-61436250D01*
X84635750Y-61595000D01*
X85200000Y-61598072D01*
X85324482Y-61585812D01*
X85444180Y-61549502D01*
X85554494Y-61490537D01*
X85651185Y-61411185D01*
X85730537Y-61314494D01*
X85789502Y-61204180D01*
X85811513Y-61131620D01*
X85943368Y-61263475D01*
X86186589Y-61425990D01*
X86456842Y-61537932D01*
X86743740Y-61595000D01*
X87036260Y-61595000D01*
X87323158Y-61537932D01*
X87593411Y-61425990D01*
X87836632Y-61263475D01*
X88043475Y-61056632D01*
X88160000Y-60882240D01*
X88276525Y-61056632D01*
X88483368Y-61263475D01*
X88726589Y-61425990D01*
X88996842Y-61537932D01*
X89283740Y-61595000D01*
X89576260Y-61595000D01*
X89863158Y-61537932D01*
X90133411Y-61425990D01*
X90376632Y-61263475D01*
X90583475Y-61056632D01*
X90700000Y-60882240D01*
X90816525Y-61056632D01*
X91023368Y-61263475D01*
X91266589Y-61425990D01*
X91536842Y-61537932D01*
X91823740Y-61595000D01*
X92116260Y-61595000D01*
X92403158Y-61537932D01*
X92673411Y-61425990D01*
X92916632Y-61263475D01*
X93123475Y-61056632D01*
X93240000Y-60882240D01*
X93356525Y-61056632D01*
X93563368Y-61263475D01*
X93806589Y-61425990D01*
X94076842Y-61537932D01*
X94363740Y-61595000D01*
X94656260Y-61595000D01*
X94943158Y-61537932D01*
X95213411Y-61425990D01*
X95456632Y-61263475D01*
X95588487Y-61131620D01*
X95610498Y-61204180D01*
X95669463Y-61314494D01*
X95748815Y-61411185D01*
X95845506Y-61490537D01*
X95955820Y-61549502D01*
X96075518Y-61585812D01*
X96200000Y-61598072D01*
X96764250Y-61595000D01*
X96923000Y-61436250D01*
X96923000Y-60237000D01*
X96903000Y-60237000D01*
X96903000Y-59983000D01*
X96923000Y-59983000D01*
X96923000Y-58783750D01*
X97177000Y-58783750D01*
X97177000Y-59983000D01*
X97197000Y-59983000D01*
X97197000Y-60237000D01*
X97177000Y-60237000D01*
X97177000Y-61436250D01*
X97335750Y-61595000D01*
X97900000Y-61598072D01*
X98024482Y-61585812D01*
X98144180Y-61549502D01*
X98254494Y-61490537D01*
X98351185Y-61411185D01*
X98430537Y-61314494D01*
X98489502Y-61204180D01*
X98511513Y-61131620D01*
X98643368Y-61263475D01*
X98886589Y-61425990D01*
X99156842Y-61537932D01*
X99443740Y-61595000D01*
X99736260Y-61595000D01*
X100023158Y-61537932D01*
X100293411Y-61425990D01*
X100536632Y-61263475D01*
X100743475Y-61056632D01*
X100860000Y-60882240D01*
X100976525Y-61056632D01*
X101183368Y-61263475D01*
X101426589Y-61425990D01*
X101696842Y-61537932D01*
X101983740Y-61595000D01*
X102276260Y-61595000D01*
X102563158Y-61537932D01*
X102833411Y-61425990D01*
X103076632Y-61263475D01*
X103283475Y-61056632D01*
X103445990Y-60813411D01*
X103557932Y-60543158D01*
X103615000Y-60256260D01*
X103615000Y-59963740D01*
X103557932Y-59676842D01*
X103445990Y-59406589D01*
X103283475Y-59163368D01*
X103140000Y-59019893D01*
X103140000Y-58660107D01*
X103283475Y-58516632D01*
X103445990Y-58273411D01*
X103557932Y-58003158D01*
X103595359Y-57815000D01*
X104856928Y-57815000D01*
X104869188Y-57939482D01*
X104905498Y-58059180D01*
X104964463Y-58169494D01*
X105043815Y-58266185D01*
X105140506Y-58345537D01*
X105250820Y-58404502D01*
X105370518Y-58440812D01*
X105495000Y-58453072D01*
X105759250Y-58450000D01*
X105918000Y-58291250D01*
X105918000Y-57042000D01*
X106172000Y-57042000D01*
X106172000Y-58291250D01*
X106330750Y-58450000D01*
X106595000Y-58453072D01*
X106719482Y-58440812D01*
X106839180Y-58404502D01*
X106949494Y-58345537D01*
X107046185Y-58266185D01*
X107125537Y-58169494D01*
X107184502Y-58059180D01*
X107220812Y-57939482D01*
X107233072Y-57815000D01*
X107230000Y-57200750D01*
X107071250Y-57042000D01*
X106172000Y-57042000D01*
X105918000Y-57042000D01*
X105018750Y-57042000D01*
X104860000Y-57200750D01*
X104856928Y-57815000D01*
X103595359Y-57815000D01*
X103615000Y-57716260D01*
X103615000Y-57423740D01*
X103557932Y-57136842D01*
X103445990Y-56866589D01*
X103283475Y-56623368D01*
X103076632Y-56416525D01*
X102833411Y-56254010D01*
X102563158Y-56142068D01*
X102276260Y-56085000D01*
X101983740Y-56085000D01*
X101696842Y-56142068D01*
X101426589Y-56254010D01*
X101183368Y-56416525D01*
X100976525Y-56623368D01*
X100860000Y-56797760D01*
X100743475Y-56623368D01*
X100536632Y-56416525D01*
X100293411Y-56254010D01*
X100023158Y-56142068D01*
X99736260Y-56085000D01*
X99443740Y-56085000D01*
X99156842Y-56142068D01*
X98886589Y-56254010D01*
X98643368Y-56416525D01*
X98436525Y-56623368D01*
X98274010Y-56866589D01*
X98162068Y-57136842D01*
X98105000Y-57423740D01*
X98105000Y-57716260D01*
X98162068Y-58003158D01*
X98274010Y-58273411D01*
X98436525Y-58516632D01*
X98580000Y-58660107D01*
X98580001Y-59019892D01*
X98511513Y-59088380D01*
X98489502Y-59015820D01*
X98430537Y-58905506D01*
X98351185Y-58808815D01*
X98254494Y-58729463D01*
X98144180Y-58670498D01*
X98024482Y-58634188D01*
X97900000Y-58621928D01*
X97335750Y-58625000D01*
X97177000Y-58783750D01*
X96923000Y-58783750D01*
X96764250Y-58625000D01*
X96200000Y-58621928D01*
X96075518Y-58634188D01*
X95955820Y-58670498D01*
X95845506Y-58729463D01*
X95748815Y-58808815D01*
X95669463Y-58905506D01*
X95610498Y-59015820D01*
X95588487Y-59088380D01*
X95520000Y-59019893D01*
X95520000Y-58660107D01*
X95663475Y-58516632D01*
X95825990Y-58273411D01*
X95937932Y-58003158D01*
X95995000Y-57716260D01*
X95995000Y-57423740D01*
X95937932Y-57136842D01*
X95825990Y-56866589D01*
X95663475Y-56623368D01*
X95456632Y-56416525D01*
X95213411Y-56254010D01*
X94943158Y-56142068D01*
X94656260Y-56085000D01*
X94363740Y-56085000D01*
X94076842Y-56142068D01*
X93806589Y-56254010D01*
X93563368Y-56416525D01*
X93356525Y-56623368D01*
X93240000Y-56797760D01*
X93123475Y-56623368D01*
X92916632Y-56416525D01*
X92673411Y-56254010D01*
X92403158Y-56142068D01*
X92116260Y-56085000D01*
X91823740Y-56085000D01*
X91536842Y-56142068D01*
X91266589Y-56254010D01*
X91023368Y-56416525D01*
X90816525Y-56623368D01*
X90700000Y-56797760D01*
X90583475Y-56623368D01*
X90376632Y-56416525D01*
X90133411Y-56254010D01*
X89863158Y-56142068D01*
X89576260Y-56085000D01*
X89283740Y-56085000D01*
X88996842Y-56142068D01*
X88726589Y-56254010D01*
X88483368Y-56416525D01*
X88276525Y-56623368D01*
X88160000Y-56797760D01*
X88043475Y-56623368D01*
X87836632Y-56416525D01*
X87593411Y-56254010D01*
X87323158Y-56142068D01*
X87036260Y-56085000D01*
X86743740Y-56085000D01*
X86456842Y-56142068D01*
X86186589Y-56254010D01*
X85943368Y-56416525D01*
X85736525Y-56623368D01*
X85574010Y-56866589D01*
X85462068Y-57136842D01*
X85405000Y-57423740D01*
X85405000Y-57716260D01*
X85462068Y-58003158D01*
X85574010Y-58273411D01*
X85736525Y-58516632D01*
X85880001Y-58660108D01*
X85880000Y-59019893D01*
X85811513Y-59088380D01*
X85789502Y-59015820D01*
X85730537Y-58905506D01*
X85651185Y-58808815D01*
X85554494Y-58729463D01*
X85444180Y-58670498D01*
X85324482Y-58634188D01*
X85200000Y-58621928D01*
X84635750Y-58625000D01*
X84477000Y-58783750D01*
X84223000Y-58783750D01*
X84064250Y-58625000D01*
X83500000Y-58621928D01*
X83375518Y-58634188D01*
X83255820Y-58670498D01*
X83145506Y-58729463D01*
X83048815Y-58808815D01*
X82969463Y-58905506D01*
X82910498Y-59015820D01*
X82888487Y-59088380D01*
X82820000Y-59019893D01*
X82820000Y-58660107D01*
X82963475Y-58516632D01*
X83125990Y-58273411D01*
X83237932Y-58003158D01*
X83295000Y-57716260D01*
X83295000Y-57423740D01*
X83237932Y-57136842D01*
X83125990Y-56866589D01*
X82963475Y-56623368D01*
X82756632Y-56416525D01*
X82513411Y-56254010D01*
X82243158Y-56142068D01*
X81956260Y-56085000D01*
X81663740Y-56085000D01*
X81376842Y-56142068D01*
X81106589Y-56254010D01*
X80863368Y-56416525D01*
X80656525Y-56623368D01*
X80540000Y-56797760D01*
X80423475Y-56623368D01*
X80216632Y-56416525D01*
X79973411Y-56254010D01*
X79703158Y-56142068D01*
X79416260Y-56085000D01*
X79123740Y-56085000D01*
X78836842Y-56142068D01*
X78566589Y-56254010D01*
X78323368Y-56416525D01*
X78116525Y-56623368D01*
X77954010Y-56866589D01*
X77842068Y-57136842D01*
X77785000Y-57423740D01*
X77785000Y-57716260D01*
X77842068Y-58003158D01*
X77954010Y-58273411D01*
X78116525Y-58516632D01*
X78260001Y-58660108D01*
X78260000Y-59019893D01*
X78116525Y-59163368D01*
X78000000Y-59337760D01*
X77883475Y-59163368D01*
X77676632Y-58956525D01*
X77433411Y-58794010D01*
X77163158Y-58682068D01*
X76876260Y-58625000D01*
X76583740Y-58625000D01*
X76296842Y-58682068D01*
X76026589Y-58794010D01*
X75783368Y-58956525D01*
X75576525Y-59163368D01*
X75460000Y-59337760D01*
X75343475Y-59163368D01*
X75200000Y-59019893D01*
X75200000Y-58660107D01*
X75343475Y-58516632D01*
X75505990Y-58273411D01*
X75617932Y-58003158D01*
X75675000Y-57716260D01*
X75675000Y-57423740D01*
X75617932Y-57136842D01*
X75505990Y-56866589D01*
X75343475Y-56623368D01*
X75136632Y-56416525D01*
X74893411Y-56254010D01*
X74623158Y-56142068D01*
X74336260Y-56085000D01*
X74043740Y-56085000D01*
X73756842Y-56142068D01*
X73486589Y-56254010D01*
X73243368Y-56416525D01*
X73036525Y-56623368D01*
X72874010Y-56866589D01*
X72762068Y-57136842D01*
X72705000Y-57423740D01*
X72705000Y-57716260D01*
X72762068Y-58003158D01*
X72874010Y-58273411D01*
X73036525Y-58516632D01*
X73180000Y-58660107D01*
X73180001Y-59019892D01*
X73111513Y-59088380D01*
X73089502Y-59015820D01*
X73030537Y-58905506D01*
X72951185Y-58808815D01*
X72854494Y-58729463D01*
X72744180Y-58670498D01*
X72624482Y-58634188D01*
X72500000Y-58621928D01*
X71935750Y-58625000D01*
X71777000Y-58783750D01*
X71777000Y-59983000D01*
X71797000Y-59983000D01*
X71797000Y-60237000D01*
X71777000Y-60237000D01*
X71777000Y-61436250D01*
X71935750Y-61595000D01*
X72500000Y-61598072D01*
X72624482Y-61585812D01*
X72744180Y-61549502D01*
X72854494Y-61490537D01*
X72951185Y-61411185D01*
X73030537Y-61314494D01*
X73089502Y-61204180D01*
X73111513Y-61131620D01*
X73243368Y-61263475D01*
X73486589Y-61425990D01*
X73756842Y-61537932D01*
X74043740Y-61595000D01*
X74336260Y-61595000D01*
X74623158Y-61537932D01*
X74893411Y-61425990D01*
X75136632Y-61263475D01*
X75343475Y-61056632D01*
X75460000Y-60882240D01*
X75576525Y-61056632D01*
X75720000Y-61200107D01*
X75720000Y-62075392D01*
X75715114Y-62125000D01*
X75720000Y-62174607D01*
X75734615Y-62322993D01*
X75792368Y-62513379D01*
X75886153Y-62688840D01*
X76012367Y-62842633D01*
X76050906Y-62874261D01*
X77355743Y-64179099D01*
X77387367Y-64217633D01*
X77541160Y-64343847D01*
X77680600Y-64418379D01*
X77716620Y-64437632D01*
X77907005Y-64495385D01*
X78105000Y-64514886D01*
X78154608Y-64510000D01*
X103721645Y-64510000D01*
X105035001Y-65823357D01*
X105035000Y-66955392D01*
X105030114Y-67005000D01*
X105049615Y-67202994D01*
X105072975Y-67280000D01*
X105107368Y-67393379D01*
X105201153Y-67568840D01*
X105327367Y-67722633D01*
X105365907Y-67754262D01*
X105600735Y-67989090D01*
X105632367Y-68027633D01*
X105786160Y-68153847D01*
X105961620Y-68247632D01*
X106152006Y-68305385D01*
X106300392Y-68320000D01*
X106300394Y-68320000D01*
X106349999Y-68324886D01*
X106399604Y-68320000D01*
X106484962Y-68320000D01*
X106510498Y-68404180D01*
X106569463Y-68514494D01*
X106648815Y-68611185D01*
X106745506Y-68690537D01*
X106855820Y-68749502D01*
X106940000Y-68775038D01*
X106940000Y-69800392D01*
X106935114Y-69850000D01*
X106954615Y-70047994D01*
X106986357Y-70152632D01*
X107012368Y-70238379D01*
X107106153Y-70413840D01*
X107232367Y-70567633D01*
X107270906Y-70599261D01*
X107304639Y-70632994D01*
X107309564Y-70682994D01*
X107321078Y-70720951D01*
X107367317Y-70873379D01*
X107461102Y-71048840D01*
X107587316Y-71202633D01*
X107625854Y-71234261D01*
X108081918Y-71690325D01*
X108036939Y-71757641D01*
X107950000Y-71967530D01*
X107863061Y-71757641D01*
X107716962Y-71538987D01*
X107531013Y-71353038D01*
X107312359Y-71206939D01*
X107069405Y-71106304D01*
X106811486Y-71055000D01*
X106548514Y-71055000D01*
X106290595Y-71106304D01*
X106047641Y-71206939D01*
X105828987Y-71353038D01*
X105643038Y-71538987D01*
X105496939Y-71757641D01*
X105396304Y-72000595D01*
X105345000Y-72258514D01*
X105345000Y-72521486D01*
X105396304Y-72779405D01*
X105496939Y-73022359D01*
X105541918Y-73089675D01*
X105346594Y-73285000D01*
X105193355Y-73285000D01*
X104889261Y-72980906D01*
X104857633Y-72942367D01*
X104703840Y-72816153D01*
X104528380Y-72722368D01*
X104337994Y-72664615D01*
X104189608Y-72650000D01*
X104140000Y-72645114D01*
X104090392Y-72650000D01*
X102890107Y-72650000D01*
X103053475Y-72486632D01*
X103215990Y-72243411D01*
X103327932Y-71973158D01*
X103385000Y-71686260D01*
X103385000Y-71393740D01*
X103327932Y-71106842D01*
X103215990Y-70836589D01*
X103053475Y-70593368D01*
X102921620Y-70461513D01*
X102994180Y-70439502D01*
X103104494Y-70380537D01*
X103201185Y-70301185D01*
X103280537Y-70204494D01*
X103339502Y-70094180D01*
X103375812Y-69974482D01*
X103388072Y-69850000D01*
X103388072Y-68150000D01*
X103375812Y-68025518D01*
X103339502Y-67905820D01*
X103280537Y-67795506D01*
X103201185Y-67698815D01*
X103104494Y-67619463D01*
X102994180Y-67560498D01*
X102921620Y-67538487D01*
X103053475Y-67406632D01*
X103215990Y-67163411D01*
X103327932Y-66893158D01*
X103385000Y-66606260D01*
X103385000Y-66313740D01*
X103327932Y-66026842D01*
X103215990Y-65756589D01*
X103053475Y-65513368D01*
X102846632Y-65306525D01*
X102603411Y-65144010D01*
X102333158Y-65032068D01*
X102046260Y-64975000D01*
X101753740Y-64975000D01*
X101466842Y-65032068D01*
X101196589Y-65144010D01*
X100953368Y-65306525D01*
X100746525Y-65513368D01*
X100584010Y-65756589D01*
X100472068Y-66026842D01*
X100415000Y-66313740D01*
X100415000Y-66606260D01*
X100472068Y-66893158D01*
X100584010Y-67163411D01*
X100746525Y-67406632D01*
X100878380Y-67538487D01*
X100805820Y-67560498D01*
X100695506Y-67619463D01*
X100598815Y-67698815D01*
X100519463Y-67795506D01*
X100460498Y-67905820D01*
X100424188Y-68025518D01*
X100411928Y-68150000D01*
X100411928Y-69850000D01*
X100424188Y-69974482D01*
X100460498Y-70094180D01*
X100519463Y-70204494D01*
X100598815Y-70301185D01*
X100695506Y-70380537D01*
X100805820Y-70439502D01*
X100878380Y-70461513D01*
X100746525Y-70593368D01*
X100584010Y-70836589D01*
X100472068Y-71106842D01*
X100415000Y-71393740D01*
X100415000Y-71686260D01*
X100472068Y-71973158D01*
X100584010Y-72243411D01*
X100746525Y-72486632D01*
X100909893Y-72650000D01*
X100748356Y-72650000D01*
X94699261Y-66600906D01*
X94667633Y-66562367D01*
X94513840Y-66436153D01*
X94338380Y-66342368D01*
X94147994Y-66284615D01*
X93999608Y-66270000D01*
X93950000Y-66265114D01*
X93900392Y-66270000D01*
X85858160Y-66270000D01*
X85819875Y-66249536D01*
X85729319Y-66212027D01*
X85609623Y-66175718D01*
X85513490Y-66156596D01*
X85389009Y-66144336D01*
X85364450Y-66144336D01*
X85340000Y-66141928D01*
X84840000Y-66141928D01*
X84815550Y-66144336D01*
X84790991Y-66144336D01*
X84666510Y-66156596D01*
X84570377Y-66175718D01*
X84450681Y-66212027D01*
X84360125Y-66249536D01*
X84321840Y-66270000D01*
X67698355Y-66270000D01*
X65040000Y-63611645D01*
X65040000Y-61200107D01*
X65183475Y-61056632D01*
X65300000Y-60882240D01*
X65416525Y-61056632D01*
X65623368Y-61263475D01*
X65866589Y-61425990D01*
X66136842Y-61537932D01*
X66423740Y-61595000D01*
X66716260Y-61595000D01*
X67003158Y-61537932D01*
X67273411Y-61425990D01*
X67516632Y-61263475D01*
X67723475Y-61056632D01*
X67840000Y-60882240D01*
X67956525Y-61056632D01*
X68163368Y-61263475D01*
X68406589Y-61425990D01*
X68676842Y-61537932D01*
X68963740Y-61595000D01*
X69256260Y-61595000D01*
X69543158Y-61537932D01*
X69813411Y-61425990D01*
X70056632Y-61263475D01*
X70188487Y-61131620D01*
X70210498Y-61204180D01*
X70269463Y-61314494D01*
X70348815Y-61411185D01*
X70445506Y-61490537D01*
X70555820Y-61549502D01*
X70675518Y-61585812D01*
X70800000Y-61598072D01*
X71364250Y-61595000D01*
X71523000Y-61436250D01*
X71523000Y-60237000D01*
X71503000Y-60237000D01*
X71503000Y-59983000D01*
X71523000Y-59983000D01*
X71523000Y-58783750D01*
X71364250Y-58625000D01*
X70800000Y-58621928D01*
X70675518Y-58634188D01*
X70555820Y-58670498D01*
X70445506Y-58729463D01*
X70348815Y-58808815D01*
X70269463Y-58905506D01*
X70210498Y-59015820D01*
X70188487Y-59088380D01*
X70120000Y-59019893D01*
X70120000Y-56459604D01*
X70124886Y-56409999D01*
X70115388Y-56313569D01*
X70105385Y-56212006D01*
X70047632Y-56021620D01*
X69953847Y-55846160D01*
X69827633Y-55692367D01*
X69789089Y-55660735D01*
X69329261Y-55200907D01*
X69297633Y-55162367D01*
X69143840Y-55036153D01*
X68968380Y-54942368D01*
X68777994Y-54884615D01*
X68629608Y-54870000D01*
X68580000Y-54865114D01*
X68530392Y-54870000D01*
X67093355Y-54870000D01*
X67050000Y-54826645D01*
X67050000Y-53577975D01*
X67076962Y-53551013D01*
X67223061Y-53332359D01*
X67310000Y-53122470D01*
X67396939Y-53332359D01*
M02*
