G04 #@! TF.GenerationSoftware,KiCad,Pcbnew,5.1.5+dfsg1-2build2*
G04 #@! TF.CreationDate,2021-03-17T11:26:11-05:00*
G04 #@! TF.ProjectId,SINSONTE,53494e53-4f4e-4544-952e-6b696361645f,rev?*
G04 #@! TF.SameCoordinates,Original*
G04 #@! TF.FileFunction,Legend,Bot*
G04 #@! TF.FilePolarity,Positive*
%FSLAX46Y46*%
G04 Gerber Fmt 4.6, Leading zero omitted, Abs format (unit mm)*
G04 Created by KiCad (PCBNEW 5.1.5+dfsg1-2build2) date 2021-03-17 11:26:11*
%MOMM*%
%LPD*%
G04 APERTURE LIST*
%ADD10C,0.120000*%
%ADD11C,0.150000*%
G04 APERTURE END LIST*
D10*
X84790000Y-66530000D02*
G75*
G03X84090000Y-67230000I0J-700000D01*
G01*
X86090000Y-67230000D02*
G75*
G03X85390000Y-66530000I-700000J0D01*
G01*
X85390000Y-70630000D02*
G75*
G03X86090000Y-69930000I0J700000D01*
G01*
X84090000Y-69930000D02*
G75*
G03X84790000Y-70630000I700000J0D01*
G01*
X84090000Y-67180000D02*
X84090000Y-69980000D01*
X84790000Y-70630000D02*
X85390000Y-70630000D01*
X86090000Y-69980000D02*
X86090000Y-67180000D01*
X85390000Y-66530000D02*
X84790000Y-66530000D01*
D11*
X82742380Y-67746666D02*
X83456666Y-67746666D01*
X83599523Y-67699047D01*
X83694761Y-67603809D01*
X83742380Y-67460952D01*
X83742380Y-67365714D01*
X83742380Y-68222857D02*
X82742380Y-68222857D01*
X82742380Y-68603809D01*
X82790000Y-68699047D01*
X82837619Y-68746666D01*
X82932857Y-68794285D01*
X83075714Y-68794285D01*
X83170952Y-68746666D01*
X83218571Y-68699047D01*
X83266190Y-68603809D01*
X83266190Y-68222857D01*
X83742380Y-69746666D02*
X83742380Y-69175238D01*
X83742380Y-69460952D02*
X82742380Y-69460952D01*
X82885238Y-69365714D01*
X82980476Y-69270476D01*
X83028095Y-69175238D01*
X85542380Y-66265714D02*
X85542380Y-65694285D01*
X85542380Y-65980000D02*
X84542380Y-65980000D01*
X84685238Y-65884761D01*
X84780476Y-65789523D01*
X84828095Y-65694285D01*
X84542380Y-70846666D02*
X84542380Y-71465714D01*
X84923333Y-71132380D01*
X84923333Y-71275238D01*
X84970952Y-71370476D01*
X85018571Y-71418095D01*
X85113809Y-71465714D01*
X85351904Y-71465714D01*
X85447142Y-71418095D01*
X85494761Y-71370476D01*
X85542380Y-71275238D01*
X85542380Y-70989523D01*
X85494761Y-70894285D01*
X85447142Y-70846666D01*
M02*
