G04 #@! TF.GenerationSoftware,KiCad,Pcbnew,5.1.5+dfsg1-2build2*
G04 #@! TF.CreationDate,2021-03-15T21:11:55-05:00*
G04 #@! TF.ProjectId,SINSONTE,53494e53-4f4e-4544-952e-6b696361645f,rev?*
G04 #@! TF.SameCoordinates,Original*
G04 #@! TF.FileFunction,Legend,Top*
G04 #@! TF.FilePolarity,Positive*
%FSLAX46Y46*%
G04 Gerber Fmt 4.6, Leading zero omitted, Abs format (unit mm)*
G04 Created by KiCad (PCBNEW 5.1.5+dfsg1-2build2) date 2021-03-15 21:11:55*
%MOMM*%
%LPD*%
G04 APERTURE LIST*
%ADD10C,0.120000*%
%ADD11C,0.150000*%
G04 APERTURE END LIST*
D10*
X139000000Y-65000000D02*
G75*
G03X139000000Y-65000000I-14000000J0D01*
G01*
X109123445Y-58342684D02*
G75*
G03X108095000Y-54065000I-1808445J1827684D01*
G01*
X105503125Y-58356741D02*
G75*
G02X106495000Y-54065000I1811875J1841741D01*
G01*
X105515000Y-58365000D02*
X109115000Y-58365000D01*
X121997316Y-106583445D02*
G75*
G03X126275000Y-105555000I1827684J1808445D01*
G01*
X121983259Y-102963125D02*
G75*
G02X126275000Y-103955000I1841741J-1811875D01*
G01*
X121975000Y-102975000D02*
X121975000Y-106575000D01*
X98260000Y-58900000D02*
X98260000Y-57570000D01*
X99590000Y-58900000D02*
X98260000Y-58900000D01*
X100860000Y-58900000D02*
X100860000Y-56240000D01*
X100860000Y-56240000D02*
X103460000Y-56240000D01*
X100860000Y-58900000D02*
X103460000Y-58900000D01*
X103460000Y-58900000D02*
X103460000Y-56240000D01*
X127670000Y-101660000D02*
X127670000Y-100330000D01*
X129000000Y-101660000D02*
X127670000Y-101660000D01*
X130270000Y-101660000D02*
X130270000Y-99000000D01*
X130270000Y-99000000D02*
X135410000Y-99000000D01*
X130270000Y-101660000D02*
X135410000Y-101660000D01*
X135410000Y-101660000D02*
X135410000Y-99000000D01*
X52540000Y-56240000D02*
X53870000Y-56240000D01*
X52540000Y-57570000D02*
X52540000Y-56240000D01*
X52540000Y-58840000D02*
X55200000Y-58840000D01*
X55200000Y-58840000D02*
X55200000Y-58900000D01*
X52540000Y-58840000D02*
X52540000Y-58900000D01*
X52540000Y-58900000D02*
X55200000Y-58900000D01*
X85560000Y-58900000D02*
X85560000Y-57570000D01*
X86890000Y-58900000D02*
X85560000Y-58900000D01*
X88160000Y-58900000D02*
X88160000Y-56240000D01*
X88160000Y-56240000D02*
X95840000Y-56240000D01*
X88160000Y-58900000D02*
X95840000Y-58900000D01*
X95840000Y-58900000D02*
X95840000Y-56240000D01*
X80480000Y-56240000D02*
X81810000Y-56240000D01*
X80480000Y-57570000D02*
X80480000Y-56240000D01*
X80480000Y-58840000D02*
X83140000Y-58840000D01*
X83140000Y-58840000D02*
X83140000Y-58900000D01*
X80480000Y-58840000D02*
X80480000Y-58900000D01*
X80480000Y-58900000D02*
X83140000Y-58900000D01*
X65240000Y-56240000D02*
X66570000Y-56240000D01*
X65240000Y-57570000D02*
X65240000Y-56240000D01*
X65240000Y-58840000D02*
X67900000Y-58840000D01*
X67900000Y-58840000D02*
X67900000Y-58900000D01*
X65240000Y-58840000D02*
X65240000Y-58900000D01*
X65240000Y-58900000D02*
X67900000Y-58900000D01*
X132000000Y-106965000D02*
X132000000Y-107585000D01*
X132920000Y-106045000D02*
G75*
G03X132920000Y-106045000I-920000J0D01*
G01*
X77940000Y-56240000D02*
X79270000Y-56240000D01*
X77940000Y-57570000D02*
X77940000Y-56240000D01*
X77940000Y-58840000D02*
X80600000Y-58840000D01*
X80600000Y-58840000D02*
X80600000Y-58900000D01*
X77940000Y-58840000D02*
X77940000Y-58900000D01*
X77940000Y-58900000D02*
X80600000Y-58900000D01*
X72860000Y-56240000D02*
X74190000Y-56240000D01*
X72860000Y-57570000D02*
X72860000Y-56240000D01*
X72860000Y-58840000D02*
X75520000Y-58840000D01*
X75520000Y-58840000D02*
X75520000Y-58900000D01*
X72860000Y-58840000D02*
X72860000Y-58900000D01*
X72860000Y-58900000D02*
X75520000Y-58900000D01*
X62700000Y-56240000D02*
X64030000Y-56240000D01*
X62700000Y-57570000D02*
X62700000Y-56240000D01*
X62700000Y-58840000D02*
X65360000Y-58840000D01*
X65360000Y-58840000D02*
X65360000Y-58900000D01*
X62700000Y-58840000D02*
X62700000Y-58900000D01*
X62700000Y-58900000D02*
X65360000Y-58900000D01*
X55080000Y-56240000D02*
X56410000Y-56240000D01*
X55080000Y-57570000D02*
X55080000Y-56240000D01*
X55080000Y-58840000D02*
X57740000Y-58840000D01*
X57740000Y-58840000D02*
X57740000Y-58900000D01*
X55080000Y-58840000D02*
X55080000Y-58900000D01*
X55080000Y-58900000D02*
X57740000Y-58900000D01*
X52540000Y-81760000D02*
X52540000Y-80430000D01*
X53870000Y-81760000D02*
X52540000Y-81760000D01*
X55140000Y-81760000D02*
X55140000Y-79100000D01*
X55140000Y-79100000D02*
X95840000Y-79100000D01*
X55140000Y-81760000D02*
X95840000Y-81760000D01*
X95840000Y-81760000D02*
X95840000Y-79100000D01*
X66960000Y-52700000D02*
X67580000Y-52700000D01*
X66960000Y-52700000D02*
G75*
G03X66960000Y-52700000I-920000J0D01*
G01*
X76240000Y-53755000D02*
X76240000Y-54070000D01*
X76240000Y-51330000D02*
X76240000Y-51645000D01*
X71000000Y-53755000D02*
X71000000Y-54070000D01*
X71000000Y-51330000D02*
X71000000Y-51645000D01*
X71000000Y-54070000D02*
X76240000Y-54070000D01*
X71000000Y-51330000D02*
X76240000Y-51330000D01*
X107600000Y-78105000D02*
X108220000Y-78105000D01*
X107600000Y-78105000D02*
G75*
G03X107600000Y-78105000I-920000J0D01*
G01*
X107600000Y-72390000D02*
X108220000Y-72390000D01*
X107600000Y-72390000D02*
G75*
G03X107600000Y-72390000I-920000J0D01*
G01*
X109280000Y-68640000D02*
X107950000Y-68640000D01*
X109280000Y-67310000D02*
X109280000Y-68640000D01*
X109280000Y-66040000D02*
X106620000Y-66040000D01*
X106620000Y-66040000D02*
X106620000Y-63440000D01*
X109280000Y-66040000D02*
X109280000Y-63440000D01*
X109280000Y-63440000D02*
X106620000Y-63440000D01*
X107580000Y-52400000D02*
X106960000Y-52400000D01*
X109420000Y-52400000D02*
G75*
G03X109420000Y-52400000I-920000J0D01*
G01*
X115330000Y-51375000D02*
X115330000Y-52705000D01*
X114000000Y-51375000D02*
X115330000Y-51375000D01*
X112730000Y-51375000D02*
X112730000Y-54035000D01*
X112730000Y-54035000D02*
X110130000Y-54035000D01*
X112730000Y-51375000D02*
X110130000Y-51375000D01*
X110130000Y-51375000D02*
X110130000Y-54035000D01*
X103935241Y-55754000D02*
X103935241Y-55124000D01*
X104250241Y-55439000D02*
X103620241Y-55439000D01*
X97509000Y-54002000D02*
X97509000Y-53198000D01*
X97549000Y-54233000D02*
X97549000Y-52967000D01*
X97589000Y-54402000D02*
X97589000Y-52798000D01*
X97629000Y-54540000D02*
X97629000Y-52660000D01*
X97669000Y-54659000D02*
X97669000Y-52541000D01*
X97709000Y-54765000D02*
X97709000Y-52435000D01*
X97749000Y-54862000D02*
X97749000Y-52338000D01*
X97789000Y-54950000D02*
X97789000Y-52250000D01*
X97829000Y-55032000D02*
X97829000Y-52168000D01*
X97869000Y-55109000D02*
X97869000Y-52091000D01*
X97909000Y-55181000D02*
X97909000Y-52019000D01*
X97949000Y-55250000D02*
X97949000Y-51950000D01*
X97989000Y-55314000D02*
X97989000Y-51886000D01*
X98029000Y-55376000D02*
X98029000Y-51824000D01*
X98069000Y-55434000D02*
X98069000Y-51766000D01*
X98109000Y-55490000D02*
X98109000Y-51710000D01*
X98149000Y-55544000D02*
X98149000Y-51656000D01*
X98189000Y-55595000D02*
X98189000Y-51605000D01*
X98229000Y-55644000D02*
X98229000Y-51556000D01*
X98269000Y-55692000D02*
X98269000Y-51508000D01*
X98309000Y-55737000D02*
X98309000Y-51463000D01*
X98349000Y-55782000D02*
X98349000Y-51418000D01*
X98389000Y-55824000D02*
X98389000Y-51376000D01*
X98429000Y-55865000D02*
X98429000Y-51335000D01*
X98469000Y-52560000D02*
X98469000Y-51295000D01*
X98469000Y-55905000D02*
X98469000Y-54640000D01*
X98509000Y-52560000D02*
X98509000Y-51257000D01*
X98509000Y-55943000D02*
X98509000Y-54640000D01*
X98549000Y-52560000D02*
X98549000Y-51220000D01*
X98549000Y-55980000D02*
X98549000Y-54640000D01*
X98589000Y-52560000D02*
X98589000Y-51184000D01*
X98589000Y-56016000D02*
X98589000Y-54640000D01*
X98629000Y-52560000D02*
X98629000Y-51150000D01*
X98629000Y-56050000D02*
X98629000Y-54640000D01*
X98669000Y-52560000D02*
X98669000Y-51116000D01*
X98669000Y-56084000D02*
X98669000Y-54640000D01*
X98709000Y-52560000D02*
X98709000Y-51084000D01*
X98709000Y-56116000D02*
X98709000Y-54640000D01*
X98749000Y-52560000D02*
X98749000Y-51052000D01*
X98749000Y-56148000D02*
X98749000Y-54640000D01*
X98789000Y-52560000D02*
X98789000Y-51022000D01*
X98789000Y-56178000D02*
X98789000Y-54640000D01*
X98829000Y-52560000D02*
X98829000Y-50993000D01*
X98829000Y-56207000D02*
X98829000Y-54640000D01*
X98869000Y-52560000D02*
X98869000Y-50964000D01*
X98869000Y-56236000D02*
X98869000Y-54640000D01*
X98909000Y-52560000D02*
X98909000Y-50936000D01*
X98909000Y-56264000D02*
X98909000Y-54640000D01*
X98949000Y-52560000D02*
X98949000Y-50910000D01*
X98949000Y-56290000D02*
X98949000Y-54640000D01*
X98989000Y-52560000D02*
X98989000Y-50884000D01*
X98989000Y-56316000D02*
X98989000Y-54640000D01*
X99029000Y-52560000D02*
X99029000Y-50858000D01*
X99029000Y-56342000D02*
X99029000Y-54640000D01*
X99069000Y-52560000D02*
X99069000Y-50834000D01*
X99069000Y-56366000D02*
X99069000Y-54640000D01*
X99109000Y-52560000D02*
X99109000Y-50810000D01*
X99109000Y-56390000D02*
X99109000Y-54640000D01*
X99149000Y-52560000D02*
X99149000Y-50788000D01*
X99149000Y-56412000D02*
X99149000Y-54640000D01*
X99189000Y-52560000D02*
X99189000Y-50766000D01*
X99189000Y-56434000D02*
X99189000Y-54640000D01*
X99229000Y-52560000D02*
X99229000Y-50744000D01*
X99229000Y-56456000D02*
X99229000Y-54640000D01*
X99269000Y-52560000D02*
X99269000Y-50724000D01*
X99269000Y-56476000D02*
X99269000Y-54640000D01*
X99309000Y-52560000D02*
X99309000Y-50704000D01*
X99309000Y-56496000D02*
X99309000Y-54640000D01*
X99349000Y-52560000D02*
X99349000Y-50684000D01*
X99349000Y-56516000D02*
X99349000Y-54640000D01*
X99389000Y-52560000D02*
X99389000Y-50666000D01*
X99389000Y-56534000D02*
X99389000Y-54640000D01*
X99429000Y-52560000D02*
X99429000Y-50648000D01*
X99429000Y-56552000D02*
X99429000Y-54640000D01*
X99469000Y-52560000D02*
X99469000Y-50630000D01*
X99469000Y-56570000D02*
X99469000Y-54640000D01*
X99509000Y-52560000D02*
X99509000Y-50614000D01*
X99509000Y-56586000D02*
X99509000Y-54640000D01*
X99549000Y-52560000D02*
X99549000Y-50598000D01*
X99549000Y-56602000D02*
X99549000Y-54640000D01*
X99589000Y-52560000D02*
X99589000Y-50582000D01*
X99589000Y-56618000D02*
X99589000Y-54640000D01*
X99629000Y-52560000D02*
X99629000Y-50567000D01*
X99629000Y-56633000D02*
X99629000Y-54640000D01*
X99669000Y-52560000D02*
X99669000Y-50553000D01*
X99669000Y-56647000D02*
X99669000Y-54640000D01*
X99709000Y-52560000D02*
X99709000Y-50539000D01*
X99709000Y-56661000D02*
X99709000Y-54640000D01*
X99749000Y-52560000D02*
X99749000Y-50526000D01*
X99749000Y-56674000D02*
X99749000Y-54640000D01*
X99789000Y-52560000D02*
X99789000Y-50514000D01*
X99789000Y-56686000D02*
X99789000Y-54640000D01*
X99829000Y-52560000D02*
X99829000Y-50502000D01*
X99829000Y-56698000D02*
X99829000Y-54640000D01*
X99869000Y-52560000D02*
X99869000Y-50490000D01*
X99869000Y-56710000D02*
X99869000Y-54640000D01*
X99909000Y-52560000D02*
X99909000Y-50479000D01*
X99909000Y-56721000D02*
X99909000Y-54640000D01*
X99949000Y-52560000D02*
X99949000Y-50469000D01*
X99949000Y-56731000D02*
X99949000Y-54640000D01*
X99989000Y-52560000D02*
X99989000Y-50459000D01*
X99989000Y-56741000D02*
X99989000Y-54640000D01*
X100029000Y-52560000D02*
X100029000Y-50450000D01*
X100029000Y-56750000D02*
X100029000Y-54640000D01*
X100070000Y-52560000D02*
X100070000Y-50441000D01*
X100070000Y-56759000D02*
X100070000Y-54640000D01*
X100110000Y-52560000D02*
X100110000Y-50433000D01*
X100110000Y-56767000D02*
X100110000Y-54640000D01*
X100150000Y-52560000D02*
X100150000Y-50425000D01*
X100150000Y-56775000D02*
X100150000Y-54640000D01*
X100190000Y-52560000D02*
X100190000Y-50418000D01*
X100190000Y-56782000D02*
X100190000Y-54640000D01*
X100230000Y-52560000D02*
X100230000Y-50411000D01*
X100230000Y-56789000D02*
X100230000Y-54640000D01*
X100270000Y-52560000D02*
X100270000Y-50405000D01*
X100270000Y-56795000D02*
X100270000Y-54640000D01*
X100310000Y-52560000D02*
X100310000Y-50399000D01*
X100310000Y-56801000D02*
X100310000Y-54640000D01*
X100350000Y-52560000D02*
X100350000Y-50394000D01*
X100350000Y-56806000D02*
X100350000Y-54640000D01*
X100390000Y-52560000D02*
X100390000Y-50389000D01*
X100390000Y-56811000D02*
X100390000Y-54640000D01*
X100430000Y-52560000D02*
X100430000Y-50385000D01*
X100430000Y-56815000D02*
X100430000Y-54640000D01*
X100470000Y-52560000D02*
X100470000Y-50382000D01*
X100470000Y-56818000D02*
X100470000Y-54640000D01*
X100510000Y-52560000D02*
X100510000Y-50378000D01*
X100510000Y-56822000D02*
X100510000Y-54640000D01*
X100550000Y-56824000D02*
X100550000Y-50376000D01*
X100590000Y-56827000D02*
X100590000Y-50373000D01*
X100630000Y-56828000D02*
X100630000Y-50372000D01*
X100670000Y-56830000D02*
X100670000Y-50370000D01*
X100710000Y-56830000D02*
X100710000Y-50370000D01*
X100750000Y-56830000D02*
X100750000Y-50370000D01*
X104020000Y-53600000D02*
G75*
G03X104020000Y-53600000I-3270000J0D01*
G01*
X131000000Y-82785000D02*
X129500000Y-82785000D01*
X127000000Y-84035000D02*
X127000000Y-88535000D01*
X129500000Y-89785000D02*
X131000000Y-89785000D01*
X133500000Y-88535000D02*
X133500000Y-84035000D01*
X127670000Y-95945000D02*
X127670000Y-94615000D01*
X129000000Y-95945000D02*
X127670000Y-95945000D01*
X130270000Y-95945000D02*
X130270000Y-93285000D01*
X130270000Y-93285000D02*
X132870000Y-93285000D01*
X130270000Y-95945000D02*
X132870000Y-95945000D01*
X132870000Y-95945000D02*
X132870000Y-93285000D01*
X123000000Y-97440000D02*
X123000000Y-98060000D01*
X123920000Y-96520000D02*
G75*
G03X123920000Y-96520000I-920000J0D01*
G01*
X124000000Y-111080000D02*
X124000000Y-110460000D01*
X124920000Y-112000000D02*
G75*
G03X124920000Y-112000000I-920000J0D01*
G01*
X125699759Y-112146000D02*
X125699759Y-112776000D01*
X125384759Y-112461000D02*
X126014759Y-112461000D01*
X132126000Y-113898000D02*
X132126000Y-114702000D01*
X132086000Y-113667000D02*
X132086000Y-114933000D01*
X132046000Y-113498000D02*
X132046000Y-115102000D01*
X132006000Y-113360000D02*
X132006000Y-115240000D01*
X131966000Y-113241000D02*
X131966000Y-115359000D01*
X131926000Y-113135000D02*
X131926000Y-115465000D01*
X131886000Y-113038000D02*
X131886000Y-115562000D01*
X131846000Y-112950000D02*
X131846000Y-115650000D01*
X131806000Y-112868000D02*
X131806000Y-115732000D01*
X131766000Y-112791000D02*
X131766000Y-115809000D01*
X131726000Y-112719000D02*
X131726000Y-115881000D01*
X131686000Y-112650000D02*
X131686000Y-115950000D01*
X131646000Y-112586000D02*
X131646000Y-116014000D01*
X131606000Y-112524000D02*
X131606000Y-116076000D01*
X131566000Y-112466000D02*
X131566000Y-116134000D01*
X131526000Y-112410000D02*
X131526000Y-116190000D01*
X131486000Y-112356000D02*
X131486000Y-116244000D01*
X131446000Y-112305000D02*
X131446000Y-116295000D01*
X131406000Y-112256000D02*
X131406000Y-116344000D01*
X131366000Y-112208000D02*
X131366000Y-116392000D01*
X131326000Y-112163000D02*
X131326000Y-116437000D01*
X131286000Y-112118000D02*
X131286000Y-116482000D01*
X131246000Y-112076000D02*
X131246000Y-116524000D01*
X131206000Y-112035000D02*
X131206000Y-116565000D01*
X131166000Y-115340000D02*
X131166000Y-116605000D01*
X131166000Y-111995000D02*
X131166000Y-113260000D01*
X131126000Y-115340000D02*
X131126000Y-116643000D01*
X131126000Y-111957000D02*
X131126000Y-113260000D01*
X131086000Y-115340000D02*
X131086000Y-116680000D01*
X131086000Y-111920000D02*
X131086000Y-113260000D01*
X131046000Y-115340000D02*
X131046000Y-116716000D01*
X131046000Y-111884000D02*
X131046000Y-113260000D01*
X131006000Y-115340000D02*
X131006000Y-116750000D01*
X131006000Y-111850000D02*
X131006000Y-113260000D01*
X130966000Y-115340000D02*
X130966000Y-116784000D01*
X130966000Y-111816000D02*
X130966000Y-113260000D01*
X130926000Y-115340000D02*
X130926000Y-116816000D01*
X130926000Y-111784000D02*
X130926000Y-113260000D01*
X130886000Y-115340000D02*
X130886000Y-116848000D01*
X130886000Y-111752000D02*
X130886000Y-113260000D01*
X130846000Y-115340000D02*
X130846000Y-116878000D01*
X130846000Y-111722000D02*
X130846000Y-113260000D01*
X130806000Y-115340000D02*
X130806000Y-116907000D01*
X130806000Y-111693000D02*
X130806000Y-113260000D01*
X130766000Y-115340000D02*
X130766000Y-116936000D01*
X130766000Y-111664000D02*
X130766000Y-113260000D01*
X130726000Y-115340000D02*
X130726000Y-116964000D01*
X130726000Y-111636000D02*
X130726000Y-113260000D01*
X130686000Y-115340000D02*
X130686000Y-116990000D01*
X130686000Y-111610000D02*
X130686000Y-113260000D01*
X130646000Y-115340000D02*
X130646000Y-117016000D01*
X130646000Y-111584000D02*
X130646000Y-113260000D01*
X130606000Y-115340000D02*
X130606000Y-117042000D01*
X130606000Y-111558000D02*
X130606000Y-113260000D01*
X130566000Y-115340000D02*
X130566000Y-117066000D01*
X130566000Y-111534000D02*
X130566000Y-113260000D01*
X130526000Y-115340000D02*
X130526000Y-117090000D01*
X130526000Y-111510000D02*
X130526000Y-113260000D01*
X130486000Y-115340000D02*
X130486000Y-117112000D01*
X130486000Y-111488000D02*
X130486000Y-113260000D01*
X130446000Y-115340000D02*
X130446000Y-117134000D01*
X130446000Y-111466000D02*
X130446000Y-113260000D01*
X130406000Y-115340000D02*
X130406000Y-117156000D01*
X130406000Y-111444000D02*
X130406000Y-113260000D01*
X130366000Y-115340000D02*
X130366000Y-117176000D01*
X130366000Y-111424000D02*
X130366000Y-113260000D01*
X130326000Y-115340000D02*
X130326000Y-117196000D01*
X130326000Y-111404000D02*
X130326000Y-113260000D01*
X130286000Y-115340000D02*
X130286000Y-117216000D01*
X130286000Y-111384000D02*
X130286000Y-113260000D01*
X130246000Y-115340000D02*
X130246000Y-117234000D01*
X130246000Y-111366000D02*
X130246000Y-113260000D01*
X130206000Y-115340000D02*
X130206000Y-117252000D01*
X130206000Y-111348000D02*
X130206000Y-113260000D01*
X130166000Y-115340000D02*
X130166000Y-117270000D01*
X130166000Y-111330000D02*
X130166000Y-113260000D01*
X130126000Y-115340000D02*
X130126000Y-117286000D01*
X130126000Y-111314000D02*
X130126000Y-113260000D01*
X130086000Y-115340000D02*
X130086000Y-117302000D01*
X130086000Y-111298000D02*
X130086000Y-113260000D01*
X130046000Y-115340000D02*
X130046000Y-117318000D01*
X130046000Y-111282000D02*
X130046000Y-113260000D01*
X130006000Y-115340000D02*
X130006000Y-117333000D01*
X130006000Y-111267000D02*
X130006000Y-113260000D01*
X129966000Y-115340000D02*
X129966000Y-117347000D01*
X129966000Y-111253000D02*
X129966000Y-113260000D01*
X129926000Y-115340000D02*
X129926000Y-117361000D01*
X129926000Y-111239000D02*
X129926000Y-113260000D01*
X129886000Y-115340000D02*
X129886000Y-117374000D01*
X129886000Y-111226000D02*
X129886000Y-113260000D01*
X129846000Y-115340000D02*
X129846000Y-117386000D01*
X129846000Y-111214000D02*
X129846000Y-113260000D01*
X129806000Y-115340000D02*
X129806000Y-117398000D01*
X129806000Y-111202000D02*
X129806000Y-113260000D01*
X129766000Y-115340000D02*
X129766000Y-117410000D01*
X129766000Y-111190000D02*
X129766000Y-113260000D01*
X129726000Y-115340000D02*
X129726000Y-117421000D01*
X129726000Y-111179000D02*
X129726000Y-113260000D01*
X129686000Y-115340000D02*
X129686000Y-117431000D01*
X129686000Y-111169000D02*
X129686000Y-113260000D01*
X129646000Y-115340000D02*
X129646000Y-117441000D01*
X129646000Y-111159000D02*
X129646000Y-113260000D01*
X129606000Y-115340000D02*
X129606000Y-117450000D01*
X129606000Y-111150000D02*
X129606000Y-113260000D01*
X129565000Y-115340000D02*
X129565000Y-117459000D01*
X129565000Y-111141000D02*
X129565000Y-113260000D01*
X129525000Y-115340000D02*
X129525000Y-117467000D01*
X129525000Y-111133000D02*
X129525000Y-113260000D01*
X129485000Y-115340000D02*
X129485000Y-117475000D01*
X129485000Y-111125000D02*
X129485000Y-113260000D01*
X129445000Y-115340000D02*
X129445000Y-117482000D01*
X129445000Y-111118000D02*
X129445000Y-113260000D01*
X129405000Y-115340000D02*
X129405000Y-117489000D01*
X129405000Y-111111000D02*
X129405000Y-113260000D01*
X129365000Y-115340000D02*
X129365000Y-117495000D01*
X129365000Y-111105000D02*
X129365000Y-113260000D01*
X129325000Y-115340000D02*
X129325000Y-117501000D01*
X129325000Y-111099000D02*
X129325000Y-113260000D01*
X129285000Y-115340000D02*
X129285000Y-117506000D01*
X129285000Y-111094000D02*
X129285000Y-113260000D01*
X129245000Y-115340000D02*
X129245000Y-117511000D01*
X129245000Y-111089000D02*
X129245000Y-113260000D01*
X129205000Y-115340000D02*
X129205000Y-117515000D01*
X129205000Y-111085000D02*
X129205000Y-113260000D01*
X129165000Y-115340000D02*
X129165000Y-117518000D01*
X129165000Y-111082000D02*
X129165000Y-113260000D01*
X129125000Y-115340000D02*
X129125000Y-117522000D01*
X129125000Y-111078000D02*
X129125000Y-113260000D01*
X129085000Y-111076000D02*
X129085000Y-117524000D01*
X129045000Y-111073000D02*
X129045000Y-117527000D01*
X129005000Y-111072000D02*
X129005000Y-117528000D01*
X128965000Y-111070000D02*
X128965000Y-117530000D01*
X128925000Y-111070000D02*
X128925000Y-117530000D01*
X128885000Y-111070000D02*
X128885000Y-117530000D01*
X132155000Y-114300000D02*
G75*
G03X132155000Y-114300000I-3270000J0D01*
G01*
X52645000Y-97730000D02*
X53975000Y-97730000D01*
X52645000Y-99060000D02*
X52645000Y-97730000D01*
X52645000Y-100330000D02*
X55305000Y-100330000D01*
X55305000Y-100330000D02*
X55305000Y-102930000D01*
X52645000Y-100330000D02*
X52645000Y-102930000D01*
X52645000Y-102930000D02*
X55305000Y-102930000D01*
X109375000Y-115495000D02*
X109375000Y-112955000D01*
X115750000Y-115495000D02*
X109375000Y-115495000D01*
X115750000Y-84915000D02*
X115750000Y-115495000D01*
X109375000Y-84915000D02*
X109375000Y-87455000D01*
X115750000Y-84915000D02*
X109375000Y-84915000D01*
X64925000Y-112955000D02*
X77625000Y-112955000D01*
X64925000Y-115495000D02*
X64925000Y-112955000D01*
X58580000Y-115495000D02*
X64925000Y-115495000D01*
X58580000Y-84915000D02*
X58580000Y-115495000D01*
X64925000Y-84915000D02*
X58580000Y-84915000D01*
X64925000Y-87455000D02*
X64925000Y-84915000D01*
X64925000Y-87455000D02*
X77625000Y-87455000D01*
X109375000Y-112955000D02*
X96675000Y-112955000D01*
X77625000Y-84915000D02*
X77625000Y-87455000D01*
X96675000Y-84915000D02*
X77625000Y-84915000D01*
X96675000Y-87455000D02*
X96675000Y-84915000D01*
X109375000Y-87455000D02*
X96675000Y-87455000D01*
X96675000Y-115495000D02*
X96675000Y-112955000D01*
X77625000Y-115495000D02*
X96675000Y-115495000D01*
X77625000Y-112955000D02*
X77625000Y-115495000D01*
X115750000Y-100459000D02*
X58580000Y-100459000D01*
X58580000Y-99951000D02*
X115750000Y-99951000D01*
X96675000Y-90170000D02*
X96675000Y-91440000D01*
X78895000Y-90170000D02*
X96675000Y-90170000D01*
X78895000Y-91440000D02*
X78895000Y-90170000D01*
X77625000Y-91440000D02*
X78895000Y-91440000D01*
X77625000Y-93980000D02*
X77625000Y-91440000D01*
X78895000Y-93980000D02*
X77625000Y-93980000D01*
X78895000Y-95250000D02*
X78895000Y-93980000D01*
X96675000Y-95250000D02*
X78895000Y-95250000D01*
X96675000Y-91440000D02*
X96675000Y-95250000D01*
X95405000Y-110240000D02*
X77625000Y-110240000D01*
X95405000Y-108970000D02*
X95405000Y-110240000D01*
X96675000Y-108970000D02*
X95405000Y-108970000D01*
X96675000Y-106430000D02*
X96675000Y-108970000D01*
X95405000Y-106430000D02*
X96675000Y-106430000D01*
X95405000Y-105160000D02*
X95405000Y-106430000D01*
X77625000Y-105160000D02*
X95405000Y-105160000D01*
X77625000Y-110240000D02*
X77625000Y-105160000D01*
X117020000Y-83645000D02*
X57310000Y-83645000D01*
X57310000Y-83645000D02*
X57310000Y-116765000D01*
X57310000Y-116765000D02*
X117020000Y-116765000D01*
X117020000Y-116765000D02*
X117020000Y-83645000D01*
X52500000Y-79500000D02*
X52500000Y-58500000D01*
X103500000Y-72700000D02*
X103500000Y-79500000D01*
X55167000Y-79500000D02*
X55167000Y-76493000D01*
X55167000Y-76493000D02*
X52500000Y-76493000D01*
X52500000Y-79500000D02*
X52800000Y-79500000D01*
X54900000Y-79500000D02*
X55300000Y-79500000D01*
X57500000Y-79500000D02*
X57900000Y-79500000D01*
X60000000Y-79500000D02*
X60400000Y-79500000D01*
X62600000Y-79500000D02*
X63000000Y-79500000D01*
X65100000Y-79500000D02*
X65500000Y-79500000D01*
X67600000Y-79500000D02*
X68000000Y-79500000D01*
X70200000Y-79500000D02*
X70600000Y-79500000D01*
X72700000Y-79500000D02*
X73100000Y-79500000D01*
X75300000Y-79500000D02*
X75700000Y-79500000D01*
X77800000Y-79500000D02*
X78200000Y-79500000D01*
X80300000Y-79500000D02*
X80700000Y-79500000D01*
X82900000Y-79500000D02*
X83300000Y-79500000D01*
X85400000Y-79500000D02*
X85800000Y-79500000D01*
X88000000Y-79500000D02*
X88400000Y-79500000D01*
X90500000Y-79500000D02*
X90900000Y-79500000D01*
X93100000Y-79500000D02*
X93500000Y-79500000D01*
X95600000Y-79500000D02*
X96000000Y-79500000D01*
X98100000Y-79500000D02*
X98500000Y-79500000D01*
X100700000Y-79500000D02*
X101100000Y-79500000D01*
X67600000Y-58500000D02*
X68000000Y-58500000D01*
X72700000Y-58500000D02*
X73100000Y-58500000D01*
X80300000Y-58500000D02*
X80700000Y-58500000D01*
X88000000Y-58500000D02*
X88400000Y-58500000D01*
X57500000Y-58500000D02*
X57900000Y-58500000D01*
X54900000Y-58500000D02*
X55300000Y-58500000D01*
X62600000Y-58500000D02*
X63000000Y-58500000D01*
X95600000Y-58500000D02*
X96000000Y-58500000D01*
X100700000Y-58500000D02*
X101100000Y-58500000D01*
X98100000Y-58500000D02*
X98500000Y-58500000D01*
X82900000Y-58500000D02*
X83300000Y-58500000D01*
X77800000Y-58500000D02*
X78200000Y-58500000D01*
X65100000Y-58500000D02*
X65500000Y-58500000D01*
X70200000Y-58500000D02*
X70600000Y-58500000D01*
X90500000Y-58500000D02*
X90900000Y-58500000D01*
X75300000Y-58500000D02*
X75700000Y-58500000D01*
X52500000Y-58500000D02*
X52800000Y-58500000D01*
X60000000Y-58500000D02*
X60400000Y-58500000D01*
X85400000Y-58500000D02*
X85800000Y-58500000D01*
X93100000Y-58500000D02*
X93500000Y-58500000D01*
X103500000Y-58500000D02*
X103500000Y-65300000D01*
X103500000Y-70500000D02*
X103500000Y-70100000D01*
X103500000Y-67900000D02*
X103500000Y-67500000D01*
D11*
X107219761Y-52662619D02*
X107124523Y-52615000D01*
X107029285Y-52519761D01*
X106886428Y-52376904D01*
X106791190Y-52329285D01*
X106695952Y-52329285D01*
X106743571Y-52567380D02*
X106648333Y-52519761D01*
X106553095Y-52424523D01*
X106505476Y-52234047D01*
X106505476Y-51900714D01*
X106553095Y-51710238D01*
X106648333Y-51615000D01*
X106743571Y-51567380D01*
X106934047Y-51567380D01*
X107029285Y-51615000D01*
X107124523Y-51710238D01*
X107172142Y-51900714D01*
X107172142Y-52234047D01*
X107124523Y-52424523D01*
X107029285Y-52519761D01*
X106934047Y-52567380D01*
X106743571Y-52567380D01*
X107553095Y-51662619D02*
X107600714Y-51615000D01*
X107695952Y-51567380D01*
X107934047Y-51567380D01*
X108029285Y-51615000D01*
X108076904Y-51662619D01*
X108124523Y-51757857D01*
X108124523Y-51853095D01*
X108076904Y-51995952D01*
X107505476Y-52567380D01*
X108124523Y-52567380D01*
X128772619Y-104870238D02*
X128725000Y-104965476D01*
X128629761Y-105060714D01*
X128486904Y-105203571D01*
X128439285Y-105298809D01*
X128439285Y-105394047D01*
X128677380Y-105346428D02*
X128629761Y-105441666D01*
X128534523Y-105536904D01*
X128344047Y-105584523D01*
X128010714Y-105584523D01*
X127820238Y-105536904D01*
X127725000Y-105441666D01*
X127677380Y-105346428D01*
X127677380Y-105155952D01*
X127725000Y-105060714D01*
X127820238Y-104965476D01*
X128010714Y-104917857D01*
X128344047Y-104917857D01*
X128534523Y-104965476D01*
X128629761Y-105060714D01*
X128677380Y-105155952D01*
X128677380Y-105346428D01*
X128677380Y-103965476D02*
X128677380Y-104536904D01*
X128677380Y-104251190D02*
X127677380Y-104251190D01*
X127820238Y-104346428D01*
X127915476Y-104441666D01*
X127963095Y-104536904D01*
X96712380Y-58379523D02*
X97426666Y-58379523D01*
X97569523Y-58427142D01*
X97664761Y-58522380D01*
X97712380Y-58665238D01*
X97712380Y-58760476D01*
X97712380Y-57379523D02*
X97712380Y-57950952D01*
X97712380Y-57665238D02*
X96712380Y-57665238D01*
X96855238Y-57760476D01*
X96950476Y-57855714D01*
X96998095Y-57950952D01*
X97045714Y-56522380D02*
X97712380Y-56522380D01*
X96664761Y-56760476D02*
X97379047Y-56998571D01*
X97379047Y-56379523D01*
X126122380Y-100663333D02*
X126836666Y-100663333D01*
X126979523Y-100710952D01*
X127074761Y-100806190D01*
X127122380Y-100949047D01*
X127122380Y-101044285D01*
X127122380Y-100139523D02*
X127122380Y-99949047D01*
X127074761Y-99853809D01*
X127027142Y-99806190D01*
X126884285Y-99710952D01*
X126693809Y-99663333D01*
X126312857Y-99663333D01*
X126217619Y-99710952D01*
X126170000Y-99758571D01*
X126122380Y-99853809D01*
X126122380Y-100044285D01*
X126170000Y-100139523D01*
X126217619Y-100187142D01*
X126312857Y-100234761D01*
X126550952Y-100234761D01*
X126646190Y-100187142D01*
X126693809Y-100139523D01*
X126741428Y-100044285D01*
X126741428Y-99853809D01*
X126693809Y-99758571D01*
X126646190Y-99710952D01*
X126550952Y-99663333D01*
X53060476Y-54692380D02*
X53060476Y-55406666D01*
X53012857Y-55549523D01*
X52917619Y-55644761D01*
X52774761Y-55692380D01*
X52679523Y-55692380D01*
X54060476Y-55692380D02*
X53489047Y-55692380D01*
X53774761Y-55692380D02*
X53774761Y-54692380D01*
X53679523Y-54835238D01*
X53584285Y-54930476D01*
X53489047Y-54978095D01*
X54393809Y-54692380D02*
X55012857Y-54692380D01*
X54679523Y-55073333D01*
X54822380Y-55073333D01*
X54917619Y-55120952D01*
X54965238Y-55168571D01*
X55012857Y-55263809D01*
X55012857Y-55501904D01*
X54965238Y-55597142D01*
X54917619Y-55644761D01*
X54822380Y-55692380D01*
X54536666Y-55692380D01*
X54441428Y-55644761D01*
X54393809Y-55597142D01*
X84012380Y-58379523D02*
X84726666Y-58379523D01*
X84869523Y-58427142D01*
X84964761Y-58522380D01*
X85012380Y-58665238D01*
X85012380Y-58760476D01*
X85012380Y-57379523D02*
X85012380Y-57950952D01*
X85012380Y-57665238D02*
X84012380Y-57665238D01*
X84155238Y-57760476D01*
X84250476Y-57855714D01*
X84298095Y-57950952D01*
X84107619Y-56998571D02*
X84060000Y-56950952D01*
X84012380Y-56855714D01*
X84012380Y-56617619D01*
X84060000Y-56522380D01*
X84107619Y-56474761D01*
X84202857Y-56427142D01*
X84298095Y-56427142D01*
X84440952Y-56474761D01*
X85012380Y-57046190D01*
X85012380Y-56427142D01*
X81000476Y-54692380D02*
X81000476Y-55406666D01*
X80952857Y-55549523D01*
X80857619Y-55644761D01*
X80714761Y-55692380D01*
X80619523Y-55692380D01*
X82000476Y-55692380D02*
X81429047Y-55692380D01*
X81714761Y-55692380D02*
X81714761Y-54692380D01*
X81619523Y-54835238D01*
X81524285Y-54930476D01*
X81429047Y-54978095D01*
X82952857Y-55692380D02*
X82381428Y-55692380D01*
X82667142Y-55692380D02*
X82667142Y-54692380D01*
X82571904Y-54835238D01*
X82476666Y-54930476D01*
X82381428Y-54978095D01*
X65760476Y-54692380D02*
X65760476Y-55406666D01*
X65712857Y-55549523D01*
X65617619Y-55644761D01*
X65474761Y-55692380D01*
X65379523Y-55692380D01*
X66760476Y-55692380D02*
X66189047Y-55692380D01*
X66474761Y-55692380D02*
X66474761Y-54692380D01*
X66379523Y-54835238D01*
X66284285Y-54930476D01*
X66189047Y-54978095D01*
X67379523Y-54692380D02*
X67474761Y-54692380D01*
X67570000Y-54740000D01*
X67617619Y-54787619D01*
X67665238Y-54882857D01*
X67712857Y-55073333D01*
X67712857Y-55311428D01*
X67665238Y-55501904D01*
X67617619Y-55597142D01*
X67570000Y-55644761D01*
X67474761Y-55692380D01*
X67379523Y-55692380D01*
X67284285Y-55644761D01*
X67236666Y-55597142D01*
X67189047Y-55501904D01*
X67141428Y-55311428D01*
X67141428Y-55073333D01*
X67189047Y-54882857D01*
X67236666Y-54787619D01*
X67284285Y-54740000D01*
X67379523Y-54692380D01*
X52666666Y-50652380D02*
X52333333Y-50176190D01*
X52095238Y-50652380D02*
X52095238Y-49652380D01*
X52476190Y-49652380D01*
X52571428Y-49700000D01*
X52619047Y-49747619D01*
X52666666Y-49842857D01*
X52666666Y-49985714D01*
X52619047Y-50080952D01*
X52571428Y-50128571D01*
X52476190Y-50176190D01*
X52095238Y-50176190D01*
X53095238Y-50128571D02*
X53428571Y-50128571D01*
X53571428Y-50652380D02*
X53095238Y-50652380D01*
X53095238Y-49652380D01*
X53571428Y-49652380D01*
X54333333Y-50128571D02*
X54000000Y-50128571D01*
X54000000Y-50652380D02*
X54000000Y-49652380D01*
X54476190Y-49652380D01*
X55000000Y-49652380D02*
X55000000Y-49890476D01*
X54761904Y-49795238D02*
X55000000Y-49890476D01*
X55238095Y-49795238D01*
X54857142Y-50080952D02*
X55000000Y-49890476D01*
X55142857Y-50080952D01*
X55761904Y-49652380D02*
X55761904Y-49890476D01*
X55523809Y-49795238D02*
X55761904Y-49890476D01*
X56000000Y-49795238D01*
X55619047Y-50080952D02*
X55761904Y-49890476D01*
X55904761Y-50080952D01*
X134666666Y-50652380D02*
X134333333Y-50176190D01*
X134095238Y-50652380D02*
X134095238Y-49652380D01*
X134476190Y-49652380D01*
X134571428Y-49700000D01*
X134619047Y-49747619D01*
X134666666Y-49842857D01*
X134666666Y-49985714D01*
X134619047Y-50080952D01*
X134571428Y-50128571D01*
X134476190Y-50176190D01*
X134095238Y-50176190D01*
X135095238Y-50128571D02*
X135428571Y-50128571D01*
X135571428Y-50652380D02*
X135095238Y-50652380D01*
X135095238Y-49652380D01*
X135571428Y-49652380D01*
X136333333Y-50128571D02*
X136000000Y-50128571D01*
X136000000Y-50652380D02*
X136000000Y-49652380D01*
X136476190Y-49652380D01*
X137000000Y-49652380D02*
X137000000Y-49890476D01*
X136761904Y-49795238D02*
X137000000Y-49890476D01*
X137238095Y-49795238D01*
X136857142Y-50080952D02*
X137000000Y-49890476D01*
X137142857Y-50080952D01*
X137761904Y-49652380D02*
X137761904Y-49890476D01*
X137523809Y-49795238D02*
X137761904Y-49890476D01*
X138000000Y-49795238D01*
X137619047Y-50080952D02*
X137761904Y-49890476D01*
X137904761Y-50080952D01*
X134666666Y-112652380D02*
X134333333Y-112176190D01*
X134095238Y-112652380D02*
X134095238Y-111652380D01*
X134476190Y-111652380D01*
X134571428Y-111700000D01*
X134619047Y-111747619D01*
X134666666Y-111842857D01*
X134666666Y-111985714D01*
X134619047Y-112080952D01*
X134571428Y-112128571D01*
X134476190Y-112176190D01*
X134095238Y-112176190D01*
X135095238Y-112128571D02*
X135428571Y-112128571D01*
X135571428Y-112652380D02*
X135095238Y-112652380D01*
X135095238Y-111652380D01*
X135571428Y-111652380D01*
X136333333Y-112128571D02*
X136000000Y-112128571D01*
X136000000Y-112652380D02*
X136000000Y-111652380D01*
X136476190Y-111652380D01*
X137000000Y-111652380D02*
X137000000Y-111890476D01*
X136761904Y-111795238D02*
X137000000Y-111890476D01*
X137238095Y-111795238D01*
X136857142Y-112080952D02*
X137000000Y-111890476D01*
X137142857Y-112080952D01*
X137761904Y-111652380D02*
X137761904Y-111890476D01*
X137523809Y-111795238D02*
X137761904Y-111890476D01*
X138000000Y-111795238D01*
X137619047Y-112080952D02*
X137761904Y-111890476D01*
X137904761Y-112080952D01*
X52666666Y-112652380D02*
X52333333Y-112176190D01*
X52095238Y-112652380D02*
X52095238Y-111652380D01*
X52476190Y-111652380D01*
X52571428Y-111700000D01*
X52619047Y-111747619D01*
X52666666Y-111842857D01*
X52666666Y-111985714D01*
X52619047Y-112080952D01*
X52571428Y-112128571D01*
X52476190Y-112176190D01*
X52095238Y-112176190D01*
X53095238Y-112128571D02*
X53428571Y-112128571D01*
X53571428Y-112652380D02*
X53095238Y-112652380D01*
X53095238Y-111652380D01*
X53571428Y-111652380D01*
X54333333Y-112128571D02*
X54000000Y-112128571D01*
X54000000Y-112652380D02*
X54000000Y-111652380D01*
X54476190Y-111652380D01*
X55000000Y-111652380D02*
X55000000Y-111890476D01*
X54761904Y-111795238D02*
X55000000Y-111890476D01*
X55238095Y-111795238D01*
X54857142Y-112080952D02*
X55000000Y-111890476D01*
X55142857Y-112080952D01*
X55761904Y-111652380D02*
X55761904Y-111890476D01*
X55523809Y-111795238D02*
X55761904Y-111890476D01*
X56000000Y-111795238D01*
X55619047Y-112080952D02*
X55761904Y-111890476D01*
X55904761Y-112080952D01*
X134372380Y-107481666D02*
X133896190Y-107815000D01*
X134372380Y-108053095D02*
X133372380Y-108053095D01*
X133372380Y-107672142D01*
X133420000Y-107576904D01*
X133467619Y-107529285D01*
X133562857Y-107481666D01*
X133705714Y-107481666D01*
X133800952Y-107529285D01*
X133848571Y-107576904D01*
X133896190Y-107672142D01*
X133896190Y-108053095D01*
X133372380Y-107148333D02*
X133372380Y-106529285D01*
X133753333Y-106862619D01*
X133753333Y-106719761D01*
X133800952Y-106624523D01*
X133848571Y-106576904D01*
X133943809Y-106529285D01*
X134181904Y-106529285D01*
X134277142Y-106576904D01*
X134324761Y-106624523D01*
X134372380Y-106719761D01*
X134372380Y-107005476D01*
X134324761Y-107100714D01*
X134277142Y-107148333D01*
X78936666Y-54692380D02*
X78936666Y-55406666D01*
X78889047Y-55549523D01*
X78793809Y-55644761D01*
X78650952Y-55692380D01*
X78555714Y-55692380D01*
X79555714Y-55120952D02*
X79460476Y-55073333D01*
X79412857Y-55025714D01*
X79365238Y-54930476D01*
X79365238Y-54882857D01*
X79412857Y-54787619D01*
X79460476Y-54740000D01*
X79555714Y-54692380D01*
X79746190Y-54692380D01*
X79841428Y-54740000D01*
X79889047Y-54787619D01*
X79936666Y-54882857D01*
X79936666Y-54930476D01*
X79889047Y-55025714D01*
X79841428Y-55073333D01*
X79746190Y-55120952D01*
X79555714Y-55120952D01*
X79460476Y-55168571D01*
X79412857Y-55216190D01*
X79365238Y-55311428D01*
X79365238Y-55501904D01*
X79412857Y-55597142D01*
X79460476Y-55644761D01*
X79555714Y-55692380D01*
X79746190Y-55692380D01*
X79841428Y-55644761D01*
X79889047Y-55597142D01*
X79936666Y-55501904D01*
X79936666Y-55311428D01*
X79889047Y-55216190D01*
X79841428Y-55168571D01*
X79746190Y-55120952D01*
X73856666Y-54692380D02*
X73856666Y-55406666D01*
X73809047Y-55549523D01*
X73713809Y-55644761D01*
X73570952Y-55692380D01*
X73475714Y-55692380D01*
X74237619Y-54692380D02*
X74904285Y-54692380D01*
X74475714Y-55692380D01*
X63696666Y-54692380D02*
X63696666Y-55406666D01*
X63649047Y-55549523D01*
X63553809Y-55644761D01*
X63410952Y-55692380D01*
X63315714Y-55692380D01*
X64601428Y-54692380D02*
X64410952Y-54692380D01*
X64315714Y-54740000D01*
X64268095Y-54787619D01*
X64172857Y-54930476D01*
X64125238Y-55120952D01*
X64125238Y-55501904D01*
X64172857Y-55597142D01*
X64220476Y-55644761D01*
X64315714Y-55692380D01*
X64506190Y-55692380D01*
X64601428Y-55644761D01*
X64649047Y-55597142D01*
X64696666Y-55501904D01*
X64696666Y-55263809D01*
X64649047Y-55168571D01*
X64601428Y-55120952D01*
X64506190Y-55073333D01*
X64315714Y-55073333D01*
X64220476Y-55120952D01*
X64172857Y-55168571D01*
X64125238Y-55263809D01*
X56076666Y-54692380D02*
X56076666Y-55406666D01*
X56029047Y-55549523D01*
X55933809Y-55644761D01*
X55790952Y-55692380D01*
X55695714Y-55692380D01*
X57029047Y-54692380D02*
X56552857Y-54692380D01*
X56505238Y-55168571D01*
X56552857Y-55120952D01*
X56648095Y-55073333D01*
X56886190Y-55073333D01*
X56981428Y-55120952D01*
X57029047Y-55168571D01*
X57076666Y-55263809D01*
X57076666Y-55501904D01*
X57029047Y-55597142D01*
X56981428Y-55644761D01*
X56886190Y-55692380D01*
X56648095Y-55692380D01*
X56552857Y-55644761D01*
X56505238Y-55597142D01*
X50992380Y-80763333D02*
X51706666Y-80763333D01*
X51849523Y-80810952D01*
X51944761Y-80906190D01*
X51992380Y-81049047D01*
X51992380Y-81144285D01*
X51325714Y-79858571D02*
X51992380Y-79858571D01*
X50944761Y-80096666D02*
X51659047Y-80334761D01*
X51659047Y-79715714D01*
X67143333Y-51232380D02*
X66810000Y-50756190D01*
X66571904Y-51232380D02*
X66571904Y-50232380D01*
X66952857Y-50232380D01*
X67048095Y-50280000D01*
X67095714Y-50327619D01*
X67143333Y-50422857D01*
X67143333Y-50565714D01*
X67095714Y-50660952D01*
X67048095Y-50708571D01*
X66952857Y-50756190D01*
X66571904Y-50756190D01*
X68000476Y-50565714D02*
X68000476Y-51232380D01*
X67762380Y-50184761D02*
X67524285Y-50899047D01*
X68143333Y-50899047D01*
X73453333Y-50557142D02*
X73405714Y-50604761D01*
X73262857Y-50652380D01*
X73167619Y-50652380D01*
X73024761Y-50604761D01*
X72929523Y-50509523D01*
X72881904Y-50414285D01*
X72834285Y-50223809D01*
X72834285Y-50080952D01*
X72881904Y-49890476D01*
X72929523Y-49795238D01*
X73024761Y-49700000D01*
X73167619Y-49652380D01*
X73262857Y-49652380D01*
X73405714Y-49700000D01*
X73453333Y-49747619D01*
X73834285Y-49747619D02*
X73881904Y-49700000D01*
X73977142Y-49652380D01*
X74215238Y-49652380D01*
X74310476Y-49700000D01*
X74358095Y-49747619D01*
X74405714Y-49842857D01*
X74405714Y-49938095D01*
X74358095Y-50080952D01*
X73786666Y-50652380D01*
X74405714Y-50652380D01*
X107783333Y-81097380D02*
X107450000Y-80621190D01*
X107211904Y-81097380D02*
X107211904Y-80097380D01*
X107592857Y-80097380D01*
X107688095Y-80145000D01*
X107735714Y-80192619D01*
X107783333Y-80287857D01*
X107783333Y-80430714D01*
X107735714Y-80525952D01*
X107688095Y-80573571D01*
X107592857Y-80621190D01*
X107211904Y-80621190D01*
X108354761Y-80525952D02*
X108259523Y-80478333D01*
X108211904Y-80430714D01*
X108164285Y-80335476D01*
X108164285Y-80287857D01*
X108211904Y-80192619D01*
X108259523Y-80145000D01*
X108354761Y-80097380D01*
X108545238Y-80097380D01*
X108640476Y-80145000D01*
X108688095Y-80192619D01*
X108735714Y-80287857D01*
X108735714Y-80335476D01*
X108688095Y-80430714D01*
X108640476Y-80478333D01*
X108545238Y-80525952D01*
X108354761Y-80525952D01*
X108259523Y-80573571D01*
X108211904Y-80621190D01*
X108164285Y-80716428D01*
X108164285Y-80906904D01*
X108211904Y-81002142D01*
X108259523Y-81049761D01*
X108354761Y-81097380D01*
X108545238Y-81097380D01*
X108640476Y-81049761D01*
X108688095Y-81002142D01*
X108735714Y-80906904D01*
X108735714Y-80716428D01*
X108688095Y-80621190D01*
X108640476Y-80573571D01*
X108545238Y-80525952D01*
X107783333Y-75382380D02*
X107450000Y-74906190D01*
X107211904Y-75382380D02*
X107211904Y-74382380D01*
X107592857Y-74382380D01*
X107688095Y-74430000D01*
X107735714Y-74477619D01*
X107783333Y-74572857D01*
X107783333Y-74715714D01*
X107735714Y-74810952D01*
X107688095Y-74858571D01*
X107592857Y-74906190D01*
X107211904Y-74906190D01*
X108116666Y-74382380D02*
X108783333Y-74382380D01*
X108354761Y-75382380D01*
X107616666Y-69092380D02*
X107616666Y-69806666D01*
X107569047Y-69949523D01*
X107473809Y-70044761D01*
X107330952Y-70092380D01*
X107235714Y-70092380D01*
X107997619Y-69092380D02*
X108616666Y-69092380D01*
X108283333Y-69473333D01*
X108426190Y-69473333D01*
X108521428Y-69520952D01*
X108569047Y-69568571D01*
X108616666Y-69663809D01*
X108616666Y-69901904D01*
X108569047Y-69997142D01*
X108521428Y-70044761D01*
X108426190Y-70092380D01*
X108140476Y-70092380D01*
X108045238Y-70044761D01*
X107997619Y-69997142D01*
X107063333Y-54772380D02*
X106730000Y-54296190D01*
X106491904Y-54772380D02*
X106491904Y-53772380D01*
X106872857Y-53772380D01*
X106968095Y-53820000D01*
X107015714Y-53867619D01*
X107063333Y-53962857D01*
X107063333Y-54105714D01*
X107015714Y-54200952D01*
X106968095Y-54248571D01*
X106872857Y-54296190D01*
X106491904Y-54296190D01*
X107920476Y-53772380D02*
X107730000Y-53772380D01*
X107634761Y-53820000D01*
X107587142Y-53867619D01*
X107491904Y-54010476D01*
X107444285Y-54200952D01*
X107444285Y-54581904D01*
X107491904Y-54677142D01*
X107539523Y-54724761D01*
X107634761Y-54772380D01*
X107825238Y-54772380D01*
X107920476Y-54724761D01*
X107968095Y-54677142D01*
X108015714Y-54581904D01*
X108015714Y-54343809D01*
X107968095Y-54248571D01*
X107920476Y-54200952D01*
X107825238Y-54153333D01*
X107634761Y-54153333D01*
X107539523Y-54200952D01*
X107491904Y-54248571D01*
X107444285Y-54343809D01*
X116782380Y-53347857D02*
X116782380Y-53824047D01*
X115782380Y-53824047D01*
X116734761Y-53062142D02*
X116782380Y-52919285D01*
X116782380Y-52681190D01*
X116734761Y-52585952D01*
X116687142Y-52538333D01*
X116591904Y-52490714D01*
X116496666Y-52490714D01*
X116401428Y-52538333D01*
X116353809Y-52585952D01*
X116306190Y-52681190D01*
X116258571Y-52871666D01*
X116210952Y-52966904D01*
X116163333Y-53014523D01*
X116068095Y-53062142D01*
X115972857Y-53062142D01*
X115877619Y-53014523D01*
X115830000Y-52966904D01*
X115782380Y-52871666D01*
X115782380Y-52633571D01*
X115830000Y-52490714D01*
X116782380Y-51538333D02*
X116782380Y-52109761D01*
X116782380Y-51824047D02*
X115782380Y-51824047D01*
X115925238Y-51919285D01*
X116020476Y-52014523D01*
X116068095Y-52109761D01*
X100583333Y-58357142D02*
X100535714Y-58404761D01*
X100392857Y-58452380D01*
X100297619Y-58452380D01*
X100154761Y-58404761D01*
X100059523Y-58309523D01*
X100011904Y-58214285D01*
X99964285Y-58023809D01*
X99964285Y-57880952D01*
X100011904Y-57690476D01*
X100059523Y-57595238D01*
X100154761Y-57500000D01*
X100297619Y-57452380D01*
X100392857Y-57452380D01*
X100535714Y-57500000D01*
X100583333Y-57547619D01*
X101440476Y-57785714D02*
X101440476Y-58452380D01*
X101202380Y-57404761D02*
X100964285Y-58119047D01*
X101583333Y-58119047D01*
X126404761Y-87618333D02*
X126452380Y-87475476D01*
X126452380Y-87237380D01*
X126404761Y-87142142D01*
X126357142Y-87094523D01*
X126261904Y-87046904D01*
X126166666Y-87046904D01*
X126071428Y-87094523D01*
X126023809Y-87142142D01*
X125976190Y-87237380D01*
X125928571Y-87427857D01*
X125880952Y-87523095D01*
X125833333Y-87570714D01*
X125738095Y-87618333D01*
X125642857Y-87618333D01*
X125547619Y-87570714D01*
X125500000Y-87523095D01*
X125452380Y-87427857D01*
X125452380Y-87189761D01*
X125500000Y-87046904D01*
X125452380Y-86713571D02*
X126452380Y-86475476D01*
X125738095Y-86285000D01*
X126452380Y-86094523D01*
X125452380Y-85856428D01*
X126452380Y-84951666D02*
X126452380Y-85523095D01*
X126452380Y-85237380D02*
X125452380Y-85237380D01*
X125595238Y-85332619D01*
X125690476Y-85427857D01*
X125738095Y-85523095D01*
X126122380Y-94948333D02*
X126836666Y-94948333D01*
X126979523Y-94995952D01*
X127074761Y-95091190D01*
X127122380Y-95234047D01*
X127122380Y-95329285D01*
X126217619Y-94519761D02*
X126170000Y-94472142D01*
X126122380Y-94376904D01*
X126122380Y-94138809D01*
X126170000Y-94043571D01*
X126217619Y-93995952D01*
X126312857Y-93948333D01*
X126408095Y-93948333D01*
X126550952Y-93995952D01*
X127122380Y-94567380D01*
X127122380Y-93948333D01*
X125372380Y-97956666D02*
X124896190Y-98290000D01*
X125372380Y-98528095D02*
X124372380Y-98528095D01*
X124372380Y-98147142D01*
X124420000Y-98051904D01*
X124467619Y-98004285D01*
X124562857Y-97956666D01*
X124705714Y-97956666D01*
X124800952Y-98004285D01*
X124848571Y-98051904D01*
X124896190Y-98147142D01*
X124896190Y-98528095D01*
X124467619Y-97575714D02*
X124420000Y-97528095D01*
X124372380Y-97432857D01*
X124372380Y-97194761D01*
X124420000Y-97099523D01*
X124467619Y-97051904D01*
X124562857Y-97004285D01*
X124658095Y-97004285D01*
X124800952Y-97051904D01*
X125372380Y-97623333D01*
X125372380Y-97004285D01*
X122532380Y-110896666D02*
X122056190Y-111230000D01*
X122532380Y-111468095D02*
X121532380Y-111468095D01*
X121532380Y-111087142D01*
X121580000Y-110991904D01*
X121627619Y-110944285D01*
X121722857Y-110896666D01*
X121865714Y-110896666D01*
X121960952Y-110944285D01*
X122008571Y-110991904D01*
X122056190Y-111087142D01*
X122056190Y-111468095D01*
X122532380Y-109944285D02*
X122532380Y-110515714D01*
X122532380Y-110230000D02*
X121532380Y-110230000D01*
X121675238Y-110325238D01*
X121770476Y-110420476D01*
X121818095Y-110515714D01*
X128718333Y-110257142D02*
X128670714Y-110304761D01*
X128527857Y-110352380D01*
X128432619Y-110352380D01*
X128289761Y-110304761D01*
X128194523Y-110209523D01*
X128146904Y-110114285D01*
X128099285Y-109923809D01*
X128099285Y-109780952D01*
X128146904Y-109590476D01*
X128194523Y-109495238D01*
X128289761Y-109400000D01*
X128432619Y-109352380D01*
X128527857Y-109352380D01*
X128670714Y-109400000D01*
X128718333Y-109447619D01*
X129670714Y-110352380D02*
X129099285Y-110352380D01*
X129385000Y-110352380D02*
X129385000Y-109352380D01*
X129289761Y-109495238D01*
X129194523Y-109590476D01*
X129099285Y-109638095D01*
X53641666Y-96182380D02*
X53641666Y-96896666D01*
X53594047Y-97039523D01*
X53498809Y-97134761D01*
X53355952Y-97182380D01*
X53260714Y-97182380D01*
X54641666Y-97182380D02*
X54070238Y-97182380D01*
X54355952Y-97182380D02*
X54355952Y-96182380D01*
X54260714Y-96325238D01*
X54165476Y-96420476D01*
X54070238Y-96468095D01*
X54134285Y-86288571D02*
X54277142Y-86336190D01*
X54324761Y-86383809D01*
X54372380Y-86479047D01*
X54372380Y-86621904D01*
X54324761Y-86717142D01*
X54277142Y-86764761D01*
X54181904Y-86812380D01*
X53800952Y-86812380D01*
X53800952Y-85812380D01*
X54134285Y-85812380D01*
X54229523Y-85860000D01*
X54277142Y-85907619D01*
X54324761Y-86002857D01*
X54324761Y-86098095D01*
X54277142Y-86193333D01*
X54229523Y-86240952D01*
X54134285Y-86288571D01*
X53800952Y-86288571D01*
X54658095Y-85812380D02*
X55229523Y-85812380D01*
X54943809Y-86812380D02*
X54943809Y-85812380D01*
X56086666Y-86812380D02*
X55515238Y-86812380D01*
X55800952Y-86812380D02*
X55800952Y-85812380D01*
X55705714Y-85955238D01*
X55610476Y-86050476D01*
X55515238Y-86098095D01*
X55618571Y-107807142D02*
X56761428Y-107807142D01*
X55618571Y-92817142D02*
X56761428Y-92817142D01*
X56190000Y-93388571D02*
X56190000Y-92245714D01*
X75783571Y-107807142D02*
X76926428Y-107807142D01*
X97373571Y-107807142D02*
X98516428Y-107807142D01*
X97945000Y-108378571D02*
X97945000Y-107235714D01*
X75783571Y-92817142D02*
X76926428Y-92817142D01*
X76355000Y-93388571D02*
X76355000Y-92245714D01*
X97373571Y-92817142D02*
X98516428Y-92817142D01*
X77452380Y-69761904D02*
X78261904Y-69761904D01*
X78357142Y-69714285D01*
X78404761Y-69666666D01*
X78452380Y-69571428D01*
X78452380Y-69380952D01*
X78404761Y-69285714D01*
X78357142Y-69238095D01*
X78261904Y-69190476D01*
X77452380Y-69190476D01*
X78452380Y-68190476D02*
X78452380Y-68761904D01*
X78452380Y-68476190D02*
X77452380Y-68476190D01*
X77595238Y-68571428D01*
X77690476Y-68666666D01*
X77738095Y-68761904D01*
X104523809Y-65095238D02*
X104561904Y-64980952D01*
X104561904Y-64790476D01*
X104523809Y-64714285D01*
X104485714Y-64676190D01*
X104409523Y-64638095D01*
X104333333Y-64638095D01*
X104257142Y-64676190D01*
X104219047Y-64714285D01*
X104180952Y-64790476D01*
X104142857Y-64942857D01*
X104104761Y-65019047D01*
X104066666Y-65057142D01*
X103990476Y-65095238D01*
X103914285Y-65095238D01*
X103838095Y-65057142D01*
X103800000Y-65019047D01*
X103761904Y-64942857D01*
X103761904Y-64752380D01*
X103800000Y-64638095D01*
X103761904Y-64371428D02*
X104561904Y-64180952D01*
X103990476Y-64028571D01*
X104561904Y-63876190D01*
X103761904Y-63685714D01*
X104561904Y-63380952D02*
X103761904Y-63380952D01*
X103761904Y-63190476D01*
X103800000Y-63076190D01*
X103876190Y-63000000D01*
X103952380Y-62961904D01*
X104104761Y-62923809D01*
X104219047Y-62923809D01*
X104371428Y-62961904D01*
X104447619Y-63000000D01*
X104523809Y-63076190D01*
X104561904Y-63190476D01*
X104561904Y-63380952D01*
X104561904Y-62580952D02*
X103761904Y-62580952D01*
X103761904Y-62047619D02*
X103761904Y-61895238D01*
X103800000Y-61819047D01*
X103876190Y-61742857D01*
X104028571Y-61704761D01*
X104295238Y-61704761D01*
X104447619Y-61742857D01*
X104523809Y-61819047D01*
X104561904Y-61895238D01*
X104561904Y-62047619D01*
X104523809Y-62123809D01*
X104447619Y-62200000D01*
X104295238Y-62238095D01*
X104028571Y-62238095D01*
X103876190Y-62200000D01*
X103800000Y-62123809D01*
X103761904Y-62047619D01*
X104523809Y-76509523D02*
X104561904Y-76395238D01*
X104561904Y-76204761D01*
X104523809Y-76128571D01*
X104485714Y-76090476D01*
X104409523Y-76052380D01*
X104333333Y-76052380D01*
X104257142Y-76090476D01*
X104219047Y-76128571D01*
X104180952Y-76204761D01*
X104142857Y-76357142D01*
X104104761Y-76433333D01*
X104066666Y-76471428D01*
X103990476Y-76509523D01*
X103914285Y-76509523D01*
X103838095Y-76471428D01*
X103800000Y-76433333D01*
X103761904Y-76357142D01*
X103761904Y-76166666D01*
X103800000Y-76052380D01*
X103761904Y-75785714D02*
X104561904Y-75595238D01*
X103990476Y-75442857D01*
X104561904Y-75290476D01*
X103761904Y-75100000D01*
X104485714Y-74338095D02*
X104523809Y-74376190D01*
X104561904Y-74490476D01*
X104561904Y-74566666D01*
X104523809Y-74680952D01*
X104447619Y-74757142D01*
X104371428Y-74795238D01*
X104219047Y-74833333D01*
X104104761Y-74833333D01*
X103952380Y-74795238D01*
X103876190Y-74757142D01*
X103800000Y-74680952D01*
X103761904Y-74566666D01*
X103761904Y-74490476D01*
X103800000Y-74376190D01*
X103838095Y-74338095D01*
X104561904Y-73614285D02*
X104561904Y-73995238D01*
X103761904Y-73995238D01*
X104561904Y-73347619D02*
X103761904Y-73347619D01*
X104561904Y-72890476D02*
X104104761Y-73233333D01*
X103761904Y-72890476D02*
X104219047Y-73347619D01*
X70559035Y-55043597D02*
X70828409Y-55312971D01*
X70343536Y-55151346D02*
X71097783Y-54774223D01*
X70720659Y-55528470D01*
X71744280Y-55474595D02*
X71717343Y-55393783D01*
X71636531Y-55312971D01*
X71528781Y-55259096D01*
X71421032Y-55259096D01*
X71340219Y-55286033D01*
X71205532Y-55366845D01*
X71124720Y-55447658D01*
X71043908Y-55582345D01*
X71016971Y-55663157D01*
X71016971Y-55770906D01*
X71070845Y-55878656D01*
X71124720Y-55932531D01*
X71232470Y-55986406D01*
X71286345Y-55986406D01*
X71474906Y-55797844D01*
X71367157Y-55690094D01*
X71474906Y-56282717D02*
X72040592Y-55717032D01*
X71798155Y-56605966D01*
X72363841Y-56040280D01*
X72067529Y-56875340D02*
X72633215Y-56309654D01*
X72767902Y-56444341D01*
X72821776Y-56552091D01*
X72821776Y-56659841D01*
X72794839Y-56740653D01*
X72714027Y-56875340D01*
X72633215Y-56956152D01*
X72498528Y-57036964D01*
X72417715Y-57063902D01*
X72309966Y-57063902D01*
X72202216Y-57010027D01*
X72067529Y-56875340D01*
X58801844Y-55486158D02*
X58774906Y-55405346D01*
X58694094Y-55324534D01*
X58586345Y-55270659D01*
X58478595Y-55270659D01*
X58397783Y-55297597D01*
X58263096Y-55378409D01*
X58182284Y-55459221D01*
X58101471Y-55593908D01*
X58074534Y-55674720D01*
X58074534Y-55782470D01*
X58128409Y-55890219D01*
X58182284Y-55944094D01*
X58290033Y-55997969D01*
X58343908Y-55997969D01*
X58532470Y-55809407D01*
X58424720Y-55701658D01*
X58532470Y-56294280D02*
X59098155Y-55728595D01*
X58855719Y-56617529D01*
X59421404Y-56051844D01*
X59125093Y-56886903D02*
X59690778Y-56321218D01*
X59825465Y-56455905D01*
X59879340Y-56563654D01*
X59879340Y-56671404D01*
X59852402Y-56752216D01*
X59771590Y-56886903D01*
X59690778Y-56967715D01*
X59556091Y-57048528D01*
X59475279Y-57075465D01*
X59367529Y-57075465D01*
X59259780Y-57021590D01*
X59125093Y-56886903D01*
X84201844Y-55486158D02*
X84174906Y-55405346D01*
X84094094Y-55324534D01*
X83986345Y-55270659D01*
X83878595Y-55270659D01*
X83797783Y-55297597D01*
X83663096Y-55378409D01*
X83582284Y-55459221D01*
X83501471Y-55593908D01*
X83474534Y-55674720D01*
X83474534Y-55782470D01*
X83528409Y-55890219D01*
X83582284Y-55944094D01*
X83690033Y-55997969D01*
X83743908Y-55997969D01*
X83932470Y-55809407D01*
X83824720Y-55701658D01*
X83932470Y-56294280D02*
X84498155Y-55728595D01*
X84255719Y-56617529D01*
X84821404Y-56051844D01*
X84525093Y-56886903D02*
X85090778Y-56321218D01*
X85225465Y-56455905D01*
X85279340Y-56563654D01*
X85279340Y-56671404D01*
X85252402Y-56752216D01*
X85171590Y-56886903D01*
X85090778Y-56967715D01*
X84956091Y-57048528D01*
X84875279Y-57075465D01*
X84767529Y-57075465D01*
X84659780Y-57021590D01*
X84525093Y-56886903D01*
X96901844Y-55486158D02*
X96874906Y-55405346D01*
X96794094Y-55324534D01*
X96686345Y-55270659D01*
X96578595Y-55270659D01*
X96497783Y-55297597D01*
X96363096Y-55378409D01*
X96282284Y-55459221D01*
X96201471Y-55593908D01*
X96174534Y-55674720D01*
X96174534Y-55782470D01*
X96228409Y-55890219D01*
X96282284Y-55944094D01*
X96390033Y-55997969D01*
X96443908Y-55997969D01*
X96632470Y-55809407D01*
X96524720Y-55701658D01*
X96632470Y-56294280D02*
X97198155Y-55728595D01*
X96955719Y-56617529D01*
X97521404Y-56051844D01*
X97225093Y-56886903D02*
X97790778Y-56321218D01*
X97925465Y-56455905D01*
X97979340Y-56563654D01*
X97979340Y-56671404D01*
X97952402Y-56752216D01*
X97871590Y-56886903D01*
X97790778Y-56967715D01*
X97656091Y-57048528D01*
X97575279Y-57075465D01*
X97467529Y-57075465D01*
X97359780Y-57021590D01*
X97225093Y-56886903D01*
X96901844Y-81086158D02*
X96874906Y-81005346D01*
X96794094Y-80924534D01*
X96686345Y-80870659D01*
X96578595Y-80870659D01*
X96497783Y-80897597D01*
X96363096Y-80978409D01*
X96282284Y-81059221D01*
X96201471Y-81193908D01*
X96174534Y-81274720D01*
X96174534Y-81382470D01*
X96228409Y-81490219D01*
X96282284Y-81544094D01*
X96390033Y-81597969D01*
X96443908Y-81597969D01*
X96632470Y-81409407D01*
X96524720Y-81301658D01*
X96632470Y-81894280D02*
X97198155Y-81328595D01*
X96955719Y-82217529D01*
X97521404Y-81651844D01*
X97225093Y-82486903D02*
X97790778Y-81921218D01*
X97925465Y-82055905D01*
X97979340Y-82163654D01*
X97979340Y-82271404D01*
X97952402Y-82352216D01*
X97871590Y-82486903D01*
X97790778Y-82567715D01*
X97656091Y-82648528D01*
X97575279Y-82675465D01*
X97467529Y-82675465D01*
X97359780Y-82621590D01*
X97225093Y-82486903D01*
X84201844Y-81086158D02*
X84174906Y-81005346D01*
X84094094Y-80924534D01*
X83986345Y-80870659D01*
X83878595Y-80870659D01*
X83797783Y-80897597D01*
X83663096Y-80978409D01*
X83582284Y-81059221D01*
X83501471Y-81193908D01*
X83474534Y-81274720D01*
X83474534Y-81382470D01*
X83528409Y-81490219D01*
X83582284Y-81544094D01*
X83690033Y-81597969D01*
X83743908Y-81597969D01*
X83932470Y-81409407D01*
X83824720Y-81301658D01*
X83932470Y-81894280D02*
X84498155Y-81328595D01*
X84255719Y-82217529D01*
X84821404Y-81651844D01*
X84525093Y-82486903D02*
X85090778Y-81921218D01*
X85225465Y-82055905D01*
X85279340Y-82163654D01*
X85279340Y-82271404D01*
X85252402Y-82352216D01*
X85171590Y-82486903D01*
X85090778Y-82567715D01*
X84956091Y-82648528D01*
X84875279Y-82675465D01*
X84767529Y-82675465D01*
X84659780Y-82621590D01*
X84525093Y-82486903D01*
X71501844Y-81086158D02*
X71474906Y-81005346D01*
X71394094Y-80924534D01*
X71286345Y-80870659D01*
X71178595Y-80870659D01*
X71097783Y-80897597D01*
X70963096Y-80978409D01*
X70882284Y-81059221D01*
X70801471Y-81193908D01*
X70774534Y-81274720D01*
X70774534Y-81382470D01*
X70828409Y-81490219D01*
X70882284Y-81544094D01*
X70990033Y-81597969D01*
X71043908Y-81597969D01*
X71232470Y-81409407D01*
X71124720Y-81301658D01*
X71232470Y-81894280D02*
X71798155Y-81328595D01*
X71555719Y-82217529D01*
X72121404Y-81651844D01*
X71825093Y-82486903D02*
X72390778Y-81921218D01*
X72525465Y-82055905D01*
X72579340Y-82163654D01*
X72579340Y-82271404D01*
X72552402Y-82352216D01*
X72471590Y-82486903D01*
X72390778Y-82567715D01*
X72256091Y-82648528D01*
X72175279Y-82675465D01*
X72067529Y-82675465D01*
X71959780Y-82621590D01*
X71825093Y-82486903D01*
X58801844Y-81086158D02*
X58774906Y-81005346D01*
X58694094Y-80924534D01*
X58586345Y-80870659D01*
X58478595Y-80870659D01*
X58397783Y-80897597D01*
X58263096Y-80978409D01*
X58182284Y-81059221D01*
X58101471Y-81193908D01*
X58074534Y-81274720D01*
X58074534Y-81382470D01*
X58128409Y-81490219D01*
X58182284Y-81544094D01*
X58290033Y-81597969D01*
X58343908Y-81597969D01*
X58532470Y-81409407D01*
X58424720Y-81301658D01*
X58532470Y-81894280D02*
X59098155Y-81328595D01*
X58855719Y-82217529D01*
X59421404Y-81651844D01*
X59125093Y-82486903D02*
X59690778Y-81921218D01*
X59825465Y-82055905D01*
X59879340Y-82163654D01*
X59879340Y-82271404D01*
X59852402Y-82352216D01*
X59771590Y-82486903D01*
X59690778Y-82567715D01*
X59556091Y-82648528D01*
X59475279Y-82675465D01*
X59367529Y-82675465D01*
X59259780Y-82621590D01*
X59125093Y-82486903D01*
X53072690Y-54353129D02*
X52695566Y-55107377D01*
X53449813Y-54730253D01*
X53557563Y-55376751D02*
X53611438Y-55484500D01*
X53611438Y-55538375D01*
X53584500Y-55619187D01*
X53503688Y-55700000D01*
X53422876Y-55726937D01*
X53369001Y-55726937D01*
X53288189Y-55700000D01*
X53072690Y-55484500D01*
X53638375Y-54918815D01*
X53826937Y-55107377D01*
X53853874Y-55188189D01*
X53853874Y-55242064D01*
X53826937Y-55322876D01*
X53773062Y-55376751D01*
X53692250Y-55403688D01*
X53638375Y-55403688D01*
X53557563Y-55376751D01*
X53369001Y-55188189D01*
X54204061Y-55484500D02*
X53746125Y-55942436D01*
X53719187Y-56023248D01*
X53719187Y-56077123D01*
X53746125Y-56157935D01*
X53853874Y-56265685D01*
X53934687Y-56292622D01*
X53988561Y-56292622D01*
X54069374Y-56265685D01*
X54527309Y-55807749D01*
X54230998Y-56588934D02*
X54284873Y-56696683D01*
X54419560Y-56831370D01*
X54500372Y-56858308D01*
X54554247Y-56858308D01*
X54635059Y-56831370D01*
X54688934Y-56777496D01*
X54715871Y-56696683D01*
X54715871Y-56642809D01*
X54688934Y-56561996D01*
X54608122Y-56427309D01*
X54581184Y-56346497D01*
X54581184Y-56292622D01*
X54608122Y-56211810D01*
X54661996Y-56157935D01*
X54742809Y-56130998D01*
X54796683Y-56130998D01*
X54877496Y-56157935D01*
X55012183Y-56292622D01*
X55066057Y-56400372D01*
X55750033Y-54520473D02*
X55372910Y-55274720D01*
X56127157Y-54897597D01*
X55750033Y-55597969D02*
X55803908Y-55705719D01*
X55938595Y-55840406D01*
X56019407Y-55867343D01*
X56073282Y-55867343D01*
X56154094Y-55840406D01*
X56207969Y-55786531D01*
X56234906Y-55705719D01*
X56234906Y-55651844D01*
X56207969Y-55571032D01*
X56127157Y-55436345D01*
X56100219Y-55355532D01*
X56100219Y-55301658D01*
X56127157Y-55220845D01*
X56181032Y-55166971D01*
X56261844Y-55140033D01*
X56315719Y-55140033D01*
X56396531Y-55166971D01*
X56531218Y-55301658D01*
X56585093Y-55409407D01*
X56665905Y-56028967D02*
X56396531Y-56298341D01*
X56773654Y-55544094D02*
X56665905Y-56028967D01*
X57150778Y-55921218D01*
X56773654Y-56621590D02*
X56827529Y-56729340D01*
X56962216Y-56864027D01*
X57043028Y-56890964D01*
X57096903Y-56890964D01*
X57177715Y-56864027D01*
X57231590Y-56810152D01*
X57258528Y-56729340D01*
X57258528Y-56675465D01*
X57231590Y-56594653D01*
X57150778Y-56459966D01*
X57123841Y-56379154D01*
X57123841Y-56325279D01*
X57150778Y-56244467D01*
X57204653Y-56190592D01*
X57285465Y-56163654D01*
X57339340Y-56163654D01*
X57420152Y-56190592D01*
X57554839Y-56325279D01*
X57608714Y-56433028D01*
X59641691Y-53522131D02*
X59991877Y-53872317D01*
X59587816Y-53899255D01*
X59668629Y-53980067D01*
X59695566Y-54060879D01*
X59695566Y-54114754D01*
X59668629Y-54195566D01*
X59533942Y-54330253D01*
X59453129Y-54357190D01*
X59399255Y-54357190D01*
X59318442Y-54330253D01*
X59156818Y-54168629D01*
X59129881Y-54087816D01*
X59129881Y-54033942D01*
X60153502Y-54033942D02*
X59776378Y-54788189D01*
X60530625Y-54411065D01*
X60665312Y-54545752D02*
X61015499Y-54895938D01*
X60611438Y-54922876D01*
X60692250Y-55003688D01*
X60719187Y-55084500D01*
X60719187Y-55138375D01*
X60692250Y-55219187D01*
X60557563Y-55353874D01*
X60476751Y-55380812D01*
X60422876Y-55380812D01*
X60342064Y-55353874D01*
X60180439Y-55192250D01*
X60153502Y-55111438D01*
X60153502Y-55057563D01*
X60503688Y-55623248D02*
X60934687Y-56054247D01*
X61419560Y-55838748D02*
X61608122Y-56027309D01*
X61392622Y-56404433D02*
X61123248Y-56135059D01*
X61688934Y-55569374D01*
X61958308Y-55838748D01*
X61635059Y-56646870D02*
X62200744Y-56081184D01*
X61958308Y-56970118D01*
X62523993Y-56404433D01*
X63709407Y-55089847D02*
X64059593Y-55440033D01*
X63655532Y-55466971D01*
X63736345Y-55547783D01*
X63763282Y-55628595D01*
X63763282Y-55682470D01*
X63736345Y-55763282D01*
X63601658Y-55897969D01*
X63520845Y-55924906D01*
X63466971Y-55924906D01*
X63386158Y-55897969D01*
X63224534Y-55736345D01*
X63197597Y-55655532D01*
X63197597Y-55601658D01*
X64221218Y-55601658D02*
X63844094Y-56355905D01*
X64598341Y-55978781D01*
X64733028Y-56113468D02*
X65083215Y-56463654D01*
X64679154Y-56490592D01*
X64759966Y-56571404D01*
X64786903Y-56652216D01*
X64786903Y-56706091D01*
X64759966Y-56786903D01*
X64625279Y-56921590D01*
X64544467Y-56948528D01*
X64490592Y-56948528D01*
X64409780Y-56921590D01*
X64248155Y-56759966D01*
X64221218Y-56679154D01*
X64221218Y-56625279D01*
X63466226Y-53154788D02*
X63735600Y-53424162D01*
X63250727Y-53262537D02*
X64004974Y-52885414D01*
X63627850Y-53639661D01*
X63816412Y-53828223D02*
X64382097Y-53262537D01*
X64516784Y-53397224D01*
X64570659Y-53504974D01*
X64570659Y-53612723D01*
X64543722Y-53693536D01*
X64462910Y-53828223D01*
X64382097Y-53909035D01*
X64247410Y-53989847D01*
X64166598Y-54016784D01*
X64058849Y-54016784D01*
X63951099Y-53962910D01*
X63816412Y-53828223D01*
X64759221Y-54663282D02*
X64705346Y-54663282D01*
X64597597Y-54609407D01*
X64543722Y-54555532D01*
X64489847Y-54447783D01*
X64489847Y-54340033D01*
X64516784Y-54259221D01*
X64597597Y-54124534D01*
X64678409Y-54043722D01*
X64813096Y-53962910D01*
X64893908Y-53935972D01*
X65001658Y-53935972D01*
X65109407Y-53989847D01*
X65163282Y-54043722D01*
X65217157Y-54151471D01*
X65217157Y-54205346D01*
X64759221Y-54878781D02*
X65190219Y-55309780D01*
X65863654Y-54744094D02*
X65486531Y-55498341D01*
X66240778Y-55121218D01*
X66186903Y-56198714D02*
X66267715Y-55740778D01*
X65863654Y-55875465D02*
X66429340Y-55309780D01*
X66644839Y-55525279D01*
X66671776Y-55606091D01*
X66671776Y-55659966D01*
X66644839Y-55740778D01*
X66564027Y-55821590D01*
X66483215Y-55848528D01*
X66429340Y-55848528D01*
X66348528Y-55821590D01*
X66133028Y-55606091D01*
X66725651Y-56144839D02*
X66914213Y-56333401D01*
X66698714Y-56710524D02*
X66429340Y-56441150D01*
X66995025Y-55875465D01*
X67264399Y-56144839D01*
X67426024Y-56845211D02*
X67237462Y-56656650D01*
X66941150Y-56952961D02*
X67506836Y-56387276D01*
X67776210Y-56656650D01*
X68465407Y-54989722D02*
X68438470Y-54908910D01*
X68357658Y-54828097D01*
X68249908Y-54774223D01*
X68142158Y-54774223D01*
X68061346Y-54801160D01*
X67926659Y-54881972D01*
X67845847Y-54962784D01*
X67765035Y-55097471D01*
X67738097Y-55178284D01*
X67738097Y-55286033D01*
X67791972Y-55393783D01*
X67845847Y-55447658D01*
X67953597Y-55501532D01*
X68007471Y-55501532D01*
X68196033Y-55312971D01*
X68088284Y-55205221D01*
X68196033Y-55797844D02*
X68761719Y-55232158D01*
X68977218Y-55447658D01*
X69004155Y-55528470D01*
X69004155Y-55582345D01*
X68977218Y-55663157D01*
X68896406Y-55743969D01*
X68815593Y-55770906D01*
X68761719Y-55770906D01*
X68680906Y-55743969D01*
X68465407Y-55528470D01*
X69246592Y-55824781D02*
X69300467Y-55824781D01*
X69381279Y-55851719D01*
X69515966Y-55986406D01*
X69542903Y-56067218D01*
X69542903Y-56121093D01*
X69515966Y-56201905D01*
X69462091Y-56255780D01*
X69354341Y-56309654D01*
X68707844Y-56309654D01*
X69058030Y-56659841D01*
X69704528Y-56659841D02*
X69677590Y-56579028D01*
X69677590Y-56525154D01*
X69704528Y-56444341D01*
X69731465Y-56417404D01*
X69812277Y-56390467D01*
X69866152Y-56390467D01*
X69946964Y-56417404D01*
X70054714Y-56525154D01*
X70081651Y-56605966D01*
X70081651Y-56659841D01*
X70054714Y-56740653D01*
X70027776Y-56767590D01*
X69946964Y-56794528D01*
X69893089Y-56794528D01*
X69812277Y-56767590D01*
X69704528Y-56659841D01*
X69623715Y-56632903D01*
X69569841Y-56632903D01*
X69489028Y-56659841D01*
X69381279Y-56767590D01*
X69354341Y-56848402D01*
X69354341Y-56902277D01*
X69381279Y-56983089D01*
X69489028Y-57090839D01*
X69569841Y-57117776D01*
X69623715Y-57117776D01*
X69704528Y-57090839D01*
X69812277Y-56983089D01*
X69839215Y-56902277D01*
X69839215Y-56848402D01*
X69812277Y-56767590D01*
X73809407Y-54989722D02*
X73782470Y-54908910D01*
X73701658Y-54828097D01*
X73593908Y-54774223D01*
X73486158Y-54774223D01*
X73405346Y-54801160D01*
X73270659Y-54881972D01*
X73189847Y-54962784D01*
X73109035Y-55097471D01*
X73082097Y-55178284D01*
X73082097Y-55286033D01*
X73135972Y-55393783D01*
X73189847Y-55447658D01*
X73297597Y-55501532D01*
X73351471Y-55501532D01*
X73540033Y-55312971D01*
X73432284Y-55205221D01*
X73540033Y-55797844D02*
X74105719Y-55232158D01*
X74321218Y-55447658D01*
X74348155Y-55528470D01*
X74348155Y-55582345D01*
X74321218Y-55663157D01*
X74240406Y-55743969D01*
X74159593Y-55770906D01*
X74105719Y-55770906D01*
X74024906Y-55743969D01*
X73809407Y-55528470D01*
X74590592Y-55824781D02*
X74644467Y-55824781D01*
X74725279Y-55851719D01*
X74859966Y-55986406D01*
X74886903Y-56067218D01*
X74886903Y-56121093D01*
X74859966Y-56201905D01*
X74806091Y-56255780D01*
X74698341Y-56309654D01*
X74051844Y-56309654D01*
X74402030Y-56659841D01*
X75156277Y-56282717D02*
X75533401Y-56659841D01*
X74725279Y-56983089D01*
X76339407Y-54989722D02*
X76312470Y-54908910D01*
X76231658Y-54828097D01*
X76123908Y-54774223D01*
X76016158Y-54774223D01*
X75935346Y-54801160D01*
X75800659Y-54881972D01*
X75719847Y-54962784D01*
X75639035Y-55097471D01*
X75612097Y-55178284D01*
X75612097Y-55286033D01*
X75665972Y-55393783D01*
X75719847Y-55447658D01*
X75827597Y-55501532D01*
X75881471Y-55501532D01*
X76070033Y-55312971D01*
X75962284Y-55205221D01*
X76070033Y-55797844D02*
X76635719Y-55232158D01*
X76851218Y-55447658D01*
X76878155Y-55528470D01*
X76878155Y-55582345D01*
X76851218Y-55663157D01*
X76770406Y-55743969D01*
X76689593Y-55770906D01*
X76635719Y-55770906D01*
X76554906Y-55743969D01*
X76339407Y-55528470D01*
X77120592Y-55824781D02*
X77174467Y-55824781D01*
X77255279Y-55851719D01*
X77389966Y-55986406D01*
X77416903Y-56067218D01*
X77416903Y-56121093D01*
X77389966Y-56201905D01*
X77336091Y-56255780D01*
X77228341Y-56309654D01*
X76581844Y-56309654D01*
X76932030Y-56659841D01*
X77982589Y-56579028D02*
X77874839Y-56471279D01*
X77794027Y-56444341D01*
X77740152Y-56444341D01*
X77605465Y-56471279D01*
X77470778Y-56552091D01*
X77255279Y-56767590D01*
X77228341Y-56848402D01*
X77228341Y-56902277D01*
X77255279Y-56983089D01*
X77363028Y-57090839D01*
X77443841Y-57117776D01*
X77497715Y-57117776D01*
X77578528Y-57090839D01*
X77713215Y-56956152D01*
X77740152Y-56875340D01*
X77740152Y-56821465D01*
X77713215Y-56740653D01*
X77605465Y-56632903D01*
X77524653Y-56605966D01*
X77470778Y-56605966D01*
X77389966Y-56632903D01*
X78596564Y-55838375D02*
X78677377Y-55380439D01*
X78273316Y-55515126D02*
X78839001Y-54949441D01*
X79054500Y-55164940D01*
X79081438Y-55245752D01*
X79081438Y-55299627D01*
X79054500Y-55380439D01*
X78973688Y-55461251D01*
X78892876Y-55488189D01*
X78839001Y-55488189D01*
X78758189Y-55461251D01*
X78542690Y-55245752D01*
X79404687Y-55515126D02*
X78946751Y-55973062D01*
X78919813Y-56053874D01*
X78919813Y-56107749D01*
X78946751Y-56188561D01*
X79054500Y-56296311D01*
X79135312Y-56323248D01*
X79189187Y-56323248D01*
X79270000Y-56296311D01*
X79727935Y-55838375D01*
X79431624Y-56673435D02*
X79997309Y-56107749D01*
X79754873Y-56996683D01*
X80320558Y-56430998D01*
X81419407Y-54989722D02*
X81392470Y-54908910D01*
X81311658Y-54828097D01*
X81203908Y-54774223D01*
X81096158Y-54774223D01*
X81015346Y-54801160D01*
X80880659Y-54881972D01*
X80799847Y-54962784D01*
X80719035Y-55097471D01*
X80692097Y-55178284D01*
X80692097Y-55286033D01*
X80745972Y-55393783D01*
X80799847Y-55447658D01*
X80907597Y-55501532D01*
X80961471Y-55501532D01*
X81150033Y-55312971D01*
X81042284Y-55205221D01*
X81150033Y-55797844D02*
X81715719Y-55232158D01*
X81931218Y-55447658D01*
X81958155Y-55528470D01*
X81958155Y-55582345D01*
X81931218Y-55663157D01*
X81850406Y-55743969D01*
X81769593Y-55770906D01*
X81715719Y-55770906D01*
X81634906Y-55743969D01*
X81419407Y-55528470D01*
X82200592Y-55824781D02*
X82254467Y-55824781D01*
X82335279Y-55851719D01*
X82469966Y-55986406D01*
X82496903Y-56067218D01*
X82496903Y-56121093D01*
X82469966Y-56201905D01*
X82416091Y-56255780D01*
X82308341Y-56309654D01*
X81661844Y-56309654D01*
X82012030Y-56659841D01*
X82739340Y-56363529D02*
X82793215Y-56363529D01*
X82874027Y-56390467D01*
X83008714Y-56525154D01*
X83035651Y-56605966D01*
X83035651Y-56659841D01*
X83008714Y-56740653D01*
X82954839Y-56794528D01*
X82847089Y-56848402D01*
X82200592Y-56848402D01*
X82550778Y-57198589D01*
X86509407Y-54989722D02*
X86482470Y-54908910D01*
X86401658Y-54828097D01*
X86293908Y-54774223D01*
X86186158Y-54774223D01*
X86105346Y-54801160D01*
X85970659Y-54881972D01*
X85889847Y-54962784D01*
X85809035Y-55097471D01*
X85782097Y-55178284D01*
X85782097Y-55286033D01*
X85835972Y-55393783D01*
X85889847Y-55447658D01*
X85997597Y-55501532D01*
X86051471Y-55501532D01*
X86240033Y-55312971D01*
X86132284Y-55205221D01*
X86240033Y-55797844D02*
X86805719Y-55232158D01*
X87021218Y-55447658D01*
X87048155Y-55528470D01*
X87048155Y-55582345D01*
X87021218Y-55663157D01*
X86940406Y-55743969D01*
X86859593Y-55770906D01*
X86805719Y-55770906D01*
X86724906Y-55743969D01*
X86509407Y-55528470D01*
X87290592Y-55824781D02*
X87344467Y-55824781D01*
X87425279Y-55851719D01*
X87559966Y-55986406D01*
X87586903Y-56067218D01*
X87586903Y-56121093D01*
X87559966Y-56201905D01*
X87506091Y-56255780D01*
X87398341Y-56309654D01*
X86751844Y-56309654D01*
X87102030Y-56659841D01*
X87640778Y-57198589D02*
X87317529Y-56875340D01*
X87479154Y-57036964D02*
X88044839Y-56471279D01*
X87910152Y-56498216D01*
X87802402Y-56498216D01*
X87721590Y-56471279D01*
X89039407Y-54989722D02*
X89012470Y-54908910D01*
X88931658Y-54828097D01*
X88823908Y-54774223D01*
X88716158Y-54774223D01*
X88635346Y-54801160D01*
X88500659Y-54881972D01*
X88419847Y-54962784D01*
X88339035Y-55097471D01*
X88312097Y-55178284D01*
X88312097Y-55286033D01*
X88365972Y-55393783D01*
X88419847Y-55447658D01*
X88527597Y-55501532D01*
X88581471Y-55501532D01*
X88770033Y-55312971D01*
X88662284Y-55205221D01*
X88770033Y-55797844D02*
X89335719Y-55232158D01*
X89551218Y-55447658D01*
X89578155Y-55528470D01*
X89578155Y-55582345D01*
X89551218Y-55663157D01*
X89470406Y-55743969D01*
X89389593Y-55770906D01*
X89335719Y-55770906D01*
X89254906Y-55743969D01*
X89039407Y-55528470D01*
X89820592Y-55824781D02*
X89874467Y-55824781D01*
X89955279Y-55851719D01*
X90089966Y-55986406D01*
X90116903Y-56067218D01*
X90116903Y-56121093D01*
X90089966Y-56201905D01*
X90036091Y-56255780D01*
X89928341Y-56309654D01*
X89281844Y-56309654D01*
X89632030Y-56659841D01*
X90547902Y-56444341D02*
X90601776Y-56498216D01*
X90628714Y-56579028D01*
X90628714Y-56632903D01*
X90601776Y-56713715D01*
X90520964Y-56848402D01*
X90386277Y-56983089D01*
X90251590Y-57063902D01*
X90170778Y-57090839D01*
X90116903Y-57090839D01*
X90036091Y-57063902D01*
X89982216Y-57010027D01*
X89955279Y-56929215D01*
X89955279Y-56875340D01*
X89982216Y-56794528D01*
X90063028Y-56659841D01*
X90197715Y-56525154D01*
X90332402Y-56444341D01*
X90413215Y-56417404D01*
X90467089Y-56417404D01*
X90547902Y-56444341D01*
X91579407Y-54989722D02*
X91552470Y-54908910D01*
X91471658Y-54828097D01*
X91363908Y-54774223D01*
X91256158Y-54774223D01*
X91175346Y-54801160D01*
X91040659Y-54881972D01*
X90959847Y-54962784D01*
X90879035Y-55097471D01*
X90852097Y-55178284D01*
X90852097Y-55286033D01*
X90905972Y-55393783D01*
X90959847Y-55447658D01*
X91067597Y-55501532D01*
X91121471Y-55501532D01*
X91310033Y-55312971D01*
X91202284Y-55205221D01*
X91310033Y-55797844D02*
X91875719Y-55232158D01*
X92091218Y-55447658D01*
X92118155Y-55528470D01*
X92118155Y-55582345D01*
X92091218Y-55663157D01*
X92010406Y-55743969D01*
X91929593Y-55770906D01*
X91875719Y-55770906D01*
X91794906Y-55743969D01*
X91579407Y-55528470D01*
X92172030Y-56659841D02*
X91848781Y-56336592D01*
X92010406Y-56498216D02*
X92576091Y-55932531D01*
X92441404Y-55959468D01*
X92333654Y-55959468D01*
X92252842Y-55932531D01*
X92441404Y-56929215D02*
X92549154Y-57036964D01*
X92629966Y-57063902D01*
X92683841Y-57063902D01*
X92818528Y-57036964D01*
X92953215Y-56956152D01*
X93168714Y-56740653D01*
X93195651Y-56659841D01*
X93195651Y-56605966D01*
X93168714Y-56525154D01*
X93060964Y-56417404D01*
X92980152Y-56390467D01*
X92926277Y-56390467D01*
X92845465Y-56417404D01*
X92710778Y-56552091D01*
X92683841Y-56632903D01*
X92683841Y-56686778D01*
X92710778Y-56767590D01*
X92818528Y-56875340D01*
X92899340Y-56902277D01*
X92953215Y-56902277D01*
X93034027Y-56875340D01*
X94119407Y-54989722D02*
X94092470Y-54908910D01*
X94011658Y-54828097D01*
X93903908Y-54774223D01*
X93796158Y-54774223D01*
X93715346Y-54801160D01*
X93580659Y-54881972D01*
X93499847Y-54962784D01*
X93419035Y-55097471D01*
X93392097Y-55178284D01*
X93392097Y-55286033D01*
X93445972Y-55393783D01*
X93499847Y-55447658D01*
X93607597Y-55501532D01*
X93661471Y-55501532D01*
X93850033Y-55312971D01*
X93742284Y-55205221D01*
X93850033Y-55797844D02*
X94415719Y-55232158D01*
X94631218Y-55447658D01*
X94658155Y-55528470D01*
X94658155Y-55582345D01*
X94631218Y-55663157D01*
X94550406Y-55743969D01*
X94469593Y-55770906D01*
X94415719Y-55770906D01*
X94334906Y-55743969D01*
X94119407Y-55528470D01*
X94712030Y-56659841D02*
X94388781Y-56336592D01*
X94550406Y-56498216D02*
X95116091Y-55932531D01*
X94981404Y-55959468D01*
X94873654Y-55959468D01*
X94792842Y-55932531D01*
X95358528Y-56659841D02*
X95331590Y-56579028D01*
X95331590Y-56525154D01*
X95358528Y-56444341D01*
X95385465Y-56417404D01*
X95466277Y-56390467D01*
X95520152Y-56390467D01*
X95600964Y-56417404D01*
X95708714Y-56525154D01*
X95735651Y-56605966D01*
X95735651Y-56659841D01*
X95708714Y-56740653D01*
X95681776Y-56767590D01*
X95600964Y-56794528D01*
X95547089Y-56794528D01*
X95466277Y-56767590D01*
X95358528Y-56659841D01*
X95277715Y-56632903D01*
X95223841Y-56632903D01*
X95143028Y-56659841D01*
X95035279Y-56767590D01*
X95008341Y-56848402D01*
X95008341Y-56902277D01*
X95035279Y-56983089D01*
X95143028Y-57090839D01*
X95223841Y-57117776D01*
X95277715Y-57117776D01*
X95358528Y-57090839D01*
X95466277Y-56983089D01*
X95493215Y-56902277D01*
X95493215Y-56848402D01*
X95466277Y-56767590D01*
X99199407Y-54989722D02*
X99172470Y-54908910D01*
X99091658Y-54828097D01*
X98983908Y-54774223D01*
X98876158Y-54774223D01*
X98795346Y-54801160D01*
X98660659Y-54881972D01*
X98579847Y-54962784D01*
X98499035Y-55097471D01*
X98472097Y-55178284D01*
X98472097Y-55286033D01*
X98525972Y-55393783D01*
X98579847Y-55447658D01*
X98687597Y-55501532D01*
X98741471Y-55501532D01*
X98930033Y-55312971D01*
X98822284Y-55205221D01*
X98930033Y-55797844D02*
X99495719Y-55232158D01*
X99711218Y-55447658D01*
X99738155Y-55528470D01*
X99738155Y-55582345D01*
X99711218Y-55663157D01*
X99630406Y-55743969D01*
X99549593Y-55770906D01*
X99495719Y-55770906D01*
X99414906Y-55743969D01*
X99199407Y-55528470D01*
X99792030Y-56659841D02*
X99468781Y-56336592D01*
X99630406Y-56498216D02*
X100196091Y-55932531D01*
X100061404Y-55959468D01*
X99953654Y-55959468D01*
X99872842Y-55932531D01*
X100546277Y-56282717D02*
X100923401Y-56659841D01*
X100115279Y-56983089D01*
X101739407Y-54989722D02*
X101712470Y-54908910D01*
X101631658Y-54828097D01*
X101523908Y-54774223D01*
X101416158Y-54774223D01*
X101335346Y-54801160D01*
X101200659Y-54881972D01*
X101119847Y-54962784D01*
X101039035Y-55097471D01*
X101012097Y-55178284D01*
X101012097Y-55286033D01*
X101065972Y-55393783D01*
X101119847Y-55447658D01*
X101227597Y-55501532D01*
X101281471Y-55501532D01*
X101470033Y-55312971D01*
X101362284Y-55205221D01*
X101470033Y-55797844D02*
X102035719Y-55232158D01*
X102251218Y-55447658D01*
X102278155Y-55528470D01*
X102278155Y-55582345D01*
X102251218Y-55663157D01*
X102170406Y-55743969D01*
X102089593Y-55770906D01*
X102035719Y-55770906D01*
X101954906Y-55743969D01*
X101739407Y-55528470D01*
X102332030Y-56659841D02*
X102008781Y-56336592D01*
X102170406Y-56498216D02*
X102736091Y-55932531D01*
X102601404Y-55959468D01*
X102493654Y-55959468D01*
X102412842Y-55932531D01*
X103382589Y-56579028D02*
X103274839Y-56471279D01*
X103194027Y-56444341D01*
X103140152Y-56444341D01*
X103005465Y-56471279D01*
X102870778Y-56552091D01*
X102655279Y-56767590D01*
X102628341Y-56848402D01*
X102628341Y-56902277D01*
X102655279Y-56983089D01*
X102763028Y-57090839D01*
X102843841Y-57117776D01*
X102897715Y-57117776D01*
X102978528Y-57090839D01*
X103113215Y-56956152D01*
X103140152Y-56875340D01*
X103140152Y-56821465D01*
X103113215Y-56740653D01*
X103005465Y-56632903D01*
X102924653Y-56605966D01*
X102870778Y-56605966D01*
X102789966Y-56632903D01*
X101739407Y-81097722D02*
X101712470Y-81016910D01*
X101631658Y-80936097D01*
X101523908Y-80882223D01*
X101416158Y-80882223D01*
X101335346Y-80909160D01*
X101200659Y-80989972D01*
X101119847Y-81070784D01*
X101039035Y-81205471D01*
X101012097Y-81286284D01*
X101012097Y-81394033D01*
X101065972Y-81501783D01*
X101119847Y-81555658D01*
X101227597Y-81609532D01*
X101281471Y-81609532D01*
X101470033Y-81420971D01*
X101362284Y-81313221D01*
X101470033Y-81905844D02*
X102035719Y-81340158D01*
X102251218Y-81555658D01*
X102278155Y-81636470D01*
X102278155Y-81690345D01*
X102251218Y-81771157D01*
X102170406Y-81851969D01*
X102089593Y-81878906D01*
X102035719Y-81878906D01*
X101954906Y-81851969D01*
X101739407Y-81636470D01*
X102332030Y-82767841D02*
X102008781Y-82444592D01*
X102170406Y-82606216D02*
X102736091Y-82040531D01*
X102601404Y-82067468D01*
X102493654Y-82067468D01*
X102412842Y-82040531D01*
X103409526Y-82713966D02*
X103140152Y-82444592D01*
X102843841Y-82687028D01*
X102897715Y-82687028D01*
X102978528Y-82713966D01*
X103113215Y-82848653D01*
X103140152Y-82929465D01*
X103140152Y-82983340D01*
X103113215Y-83064152D01*
X102978528Y-83198839D01*
X102897715Y-83225776D01*
X102843841Y-83225776D01*
X102763028Y-83198839D01*
X102628341Y-83064152D01*
X102601404Y-82983340D01*
X102601404Y-82929465D01*
X99199407Y-81143722D02*
X99172470Y-81062910D01*
X99091658Y-80982097D01*
X98983908Y-80928223D01*
X98876158Y-80928223D01*
X98795346Y-80955160D01*
X98660659Y-81035972D01*
X98579847Y-81116784D01*
X98499035Y-81251471D01*
X98472097Y-81332284D01*
X98472097Y-81440033D01*
X98525972Y-81547783D01*
X98579847Y-81601658D01*
X98687597Y-81655532D01*
X98741471Y-81655532D01*
X98930033Y-81466971D01*
X98822284Y-81359221D01*
X98930033Y-81951844D02*
X99495719Y-81386158D01*
X99711218Y-81601658D01*
X99738155Y-81682470D01*
X99738155Y-81736345D01*
X99711218Y-81817157D01*
X99630406Y-81897969D01*
X99549593Y-81924906D01*
X99495719Y-81924906D01*
X99414906Y-81897969D01*
X99199407Y-81682470D01*
X99792030Y-82813841D02*
X99468781Y-82490592D01*
X99630406Y-82652216D02*
X100196091Y-82086531D01*
X100061404Y-82113468D01*
X99953654Y-82113468D01*
X99872842Y-82086531D01*
X100654027Y-82921590D02*
X100276903Y-83298714D01*
X100734839Y-82571404D02*
X100196091Y-82840778D01*
X100546277Y-83190964D01*
X94119407Y-81097722D02*
X94092470Y-81016910D01*
X94011658Y-80936097D01*
X93903908Y-80882223D01*
X93796158Y-80882223D01*
X93715346Y-80909160D01*
X93580659Y-80989972D01*
X93499847Y-81070784D01*
X93419035Y-81205471D01*
X93392097Y-81286284D01*
X93392097Y-81394033D01*
X93445972Y-81501783D01*
X93499847Y-81555658D01*
X93607597Y-81609532D01*
X93661471Y-81609532D01*
X93850033Y-81420971D01*
X93742284Y-81313221D01*
X93850033Y-81905844D02*
X94415719Y-81340158D01*
X94631218Y-81555658D01*
X94658155Y-81636470D01*
X94658155Y-81690345D01*
X94631218Y-81771157D01*
X94550406Y-81851969D01*
X94469593Y-81878906D01*
X94415719Y-81878906D01*
X94334906Y-81851969D01*
X94119407Y-81636470D01*
X94712030Y-82767841D02*
X94388781Y-82444592D01*
X94550406Y-82606216D02*
X95116091Y-82040531D01*
X94981404Y-82067468D01*
X94873654Y-82067468D01*
X94792842Y-82040531D01*
X95466277Y-82390717D02*
X95816463Y-82740903D01*
X95412402Y-82767841D01*
X95493215Y-82848653D01*
X95520152Y-82929465D01*
X95520152Y-82983340D01*
X95493215Y-83064152D01*
X95358528Y-83198839D01*
X95277715Y-83225776D01*
X95223841Y-83225776D01*
X95143028Y-83198839D01*
X94981404Y-83037215D01*
X94954467Y-82956402D01*
X94954467Y-82902528D01*
X91579407Y-81243722D02*
X91552470Y-81162910D01*
X91471658Y-81082097D01*
X91363908Y-81028223D01*
X91256158Y-81028223D01*
X91175346Y-81055160D01*
X91040659Y-81135972D01*
X90959847Y-81216784D01*
X90879035Y-81351471D01*
X90852097Y-81432284D01*
X90852097Y-81540033D01*
X90905972Y-81647783D01*
X90959847Y-81701658D01*
X91067597Y-81755532D01*
X91121471Y-81755532D01*
X91310033Y-81566971D01*
X91202284Y-81459221D01*
X91310033Y-82051844D02*
X91875719Y-81486158D01*
X92091218Y-81701658D01*
X92118155Y-81782470D01*
X92118155Y-81836345D01*
X92091218Y-81917157D01*
X92010406Y-81997969D01*
X91929593Y-82024906D01*
X91875719Y-82024906D01*
X91794906Y-81997969D01*
X91579407Y-81782470D01*
X92172030Y-82913841D02*
X91848781Y-82590592D01*
X92010406Y-82752216D02*
X92576091Y-82186531D01*
X92441404Y-82213468D01*
X92333654Y-82213468D01*
X92252842Y-82186531D01*
X92899340Y-82617529D02*
X92953215Y-82617529D01*
X93034027Y-82644467D01*
X93168714Y-82779154D01*
X93195651Y-82859966D01*
X93195651Y-82913841D01*
X93168714Y-82994653D01*
X93114839Y-83048528D01*
X93007089Y-83102402D01*
X92360592Y-83102402D01*
X92710778Y-83452589D01*
X89039407Y-81243722D02*
X89012470Y-81162910D01*
X88931658Y-81082097D01*
X88823908Y-81028223D01*
X88716158Y-81028223D01*
X88635346Y-81055160D01*
X88500659Y-81135972D01*
X88419847Y-81216784D01*
X88339035Y-81351471D01*
X88312097Y-81432284D01*
X88312097Y-81540033D01*
X88365972Y-81647783D01*
X88419847Y-81701658D01*
X88527597Y-81755532D01*
X88581471Y-81755532D01*
X88770033Y-81566971D01*
X88662284Y-81459221D01*
X88770033Y-82051844D02*
X89335719Y-81486158D01*
X89551218Y-81701658D01*
X89578155Y-81782470D01*
X89578155Y-81836345D01*
X89551218Y-81917157D01*
X89470406Y-81997969D01*
X89389593Y-82024906D01*
X89335719Y-82024906D01*
X89254906Y-81997969D01*
X89039407Y-81782470D01*
X89632030Y-82913841D02*
X89308781Y-82590592D01*
X89470406Y-82752216D02*
X90036091Y-82186531D01*
X89901404Y-82213468D01*
X89793654Y-82213468D01*
X89712842Y-82186531D01*
X90170778Y-83452589D02*
X89847529Y-83129340D01*
X90009154Y-83290964D02*
X90574839Y-82725279D01*
X90440152Y-82752216D01*
X90332402Y-82752216D01*
X90251590Y-82725279D01*
X86499407Y-81097722D02*
X86472470Y-81016910D01*
X86391658Y-80936097D01*
X86283908Y-80882223D01*
X86176158Y-80882223D01*
X86095346Y-80909160D01*
X85960659Y-80989972D01*
X85879847Y-81070784D01*
X85799035Y-81205471D01*
X85772097Y-81286284D01*
X85772097Y-81394033D01*
X85825972Y-81501783D01*
X85879847Y-81555658D01*
X85987597Y-81609532D01*
X86041471Y-81609532D01*
X86230033Y-81420971D01*
X86122284Y-81313221D01*
X86230033Y-81905844D02*
X86795719Y-81340158D01*
X87011218Y-81555658D01*
X87038155Y-81636470D01*
X87038155Y-81690345D01*
X87011218Y-81771157D01*
X86930406Y-81851969D01*
X86849593Y-81878906D01*
X86795719Y-81878906D01*
X86714906Y-81851969D01*
X86499407Y-81636470D01*
X87092030Y-82767841D02*
X86768781Y-82444592D01*
X86930406Y-82606216D02*
X87496091Y-82040531D01*
X87361404Y-82067468D01*
X87253654Y-82067468D01*
X87172842Y-82040531D01*
X88007902Y-82552341D02*
X88061776Y-82606216D01*
X88088714Y-82687028D01*
X88088714Y-82740903D01*
X88061776Y-82821715D01*
X87980964Y-82956402D01*
X87846277Y-83091089D01*
X87711590Y-83171902D01*
X87630778Y-83198839D01*
X87576903Y-83198839D01*
X87496091Y-83171902D01*
X87442216Y-83118027D01*
X87415279Y-83037215D01*
X87415279Y-82983340D01*
X87442216Y-82902528D01*
X87523028Y-82767841D01*
X87657715Y-82633154D01*
X87792402Y-82552341D01*
X87873215Y-82525404D01*
X87927089Y-82525404D01*
X88007902Y-82552341D01*
X81688781Y-81113096D02*
X81661844Y-81032284D01*
X81581032Y-80951471D01*
X81473282Y-80897597D01*
X81365532Y-80897597D01*
X81284720Y-80924534D01*
X81150033Y-81005346D01*
X81069221Y-81086158D01*
X80988409Y-81220845D01*
X80961471Y-81301658D01*
X80961471Y-81409407D01*
X81015346Y-81517157D01*
X81069221Y-81571032D01*
X81176971Y-81624906D01*
X81230845Y-81624906D01*
X81419407Y-81436345D01*
X81311658Y-81328595D01*
X81419407Y-81921218D02*
X81985093Y-81355532D01*
X82200592Y-81571032D01*
X82227529Y-81651844D01*
X82227529Y-81705719D01*
X82200592Y-81786531D01*
X82119780Y-81867343D01*
X82038967Y-81894280D01*
X81985093Y-81894280D01*
X81904280Y-81867343D01*
X81688781Y-81651844D01*
X82012030Y-82513841D02*
X82119780Y-82621590D01*
X82200592Y-82648528D01*
X82254467Y-82648528D01*
X82389154Y-82621590D01*
X82523841Y-82540778D01*
X82739340Y-82325279D01*
X82766277Y-82244467D01*
X82766277Y-82190592D01*
X82739340Y-82109780D01*
X82631590Y-82002030D01*
X82550778Y-81975093D01*
X82496903Y-81975093D01*
X82416091Y-82002030D01*
X82281404Y-82136717D01*
X82254467Y-82217529D01*
X82254467Y-82271404D01*
X82281404Y-82352216D01*
X82389154Y-82459966D01*
X82469966Y-82486903D01*
X82523841Y-82486903D01*
X82604653Y-82459966D01*
X79148781Y-81113096D02*
X79121844Y-81032284D01*
X79041032Y-80951471D01*
X78933282Y-80897597D01*
X78825532Y-80897597D01*
X78744720Y-80924534D01*
X78610033Y-81005346D01*
X78529221Y-81086158D01*
X78448409Y-81220845D01*
X78421471Y-81301658D01*
X78421471Y-81409407D01*
X78475346Y-81517157D01*
X78529221Y-81571032D01*
X78636971Y-81624906D01*
X78690845Y-81624906D01*
X78879407Y-81436345D01*
X78771658Y-81328595D01*
X78879407Y-81921218D02*
X79445093Y-81355532D01*
X79660592Y-81571032D01*
X79687529Y-81651844D01*
X79687529Y-81705719D01*
X79660592Y-81786531D01*
X79579780Y-81867343D01*
X79498967Y-81894280D01*
X79445093Y-81894280D01*
X79364280Y-81867343D01*
X79148781Y-81651844D01*
X79849154Y-82244467D02*
X79822216Y-82163654D01*
X79822216Y-82109780D01*
X79849154Y-82028967D01*
X79876091Y-82002030D01*
X79956903Y-81975093D01*
X80010778Y-81975093D01*
X80091590Y-82002030D01*
X80199340Y-82109780D01*
X80226277Y-82190592D01*
X80226277Y-82244467D01*
X80199340Y-82325279D01*
X80172402Y-82352216D01*
X80091590Y-82379154D01*
X80037715Y-82379154D01*
X79956903Y-82352216D01*
X79849154Y-82244467D01*
X79768341Y-82217529D01*
X79714467Y-82217529D01*
X79633654Y-82244467D01*
X79525905Y-82352216D01*
X79498967Y-82433028D01*
X79498967Y-82486903D01*
X79525905Y-82567715D01*
X79633654Y-82675465D01*
X79714467Y-82702402D01*
X79768341Y-82702402D01*
X79849154Y-82675465D01*
X79956903Y-82567715D01*
X79983841Y-82486903D01*
X79983841Y-82433028D01*
X79956903Y-82352216D01*
X76578781Y-81013096D02*
X76551844Y-80932284D01*
X76471032Y-80851471D01*
X76363282Y-80797597D01*
X76255532Y-80797597D01*
X76174720Y-80824534D01*
X76040033Y-80905346D01*
X75959221Y-80986158D01*
X75878409Y-81120845D01*
X75851471Y-81201658D01*
X75851471Y-81309407D01*
X75905346Y-81417157D01*
X75959221Y-81471032D01*
X76066971Y-81524906D01*
X76120845Y-81524906D01*
X76309407Y-81336345D01*
X76201658Y-81228595D01*
X76309407Y-81821218D02*
X76875093Y-81255532D01*
X77090592Y-81471032D01*
X77117529Y-81551844D01*
X77117529Y-81605719D01*
X77090592Y-81686531D01*
X77009780Y-81767343D01*
X76928967Y-81794280D01*
X76875093Y-81794280D01*
X76794280Y-81767343D01*
X76578781Y-81551844D01*
X77386903Y-81767343D02*
X77764027Y-82144467D01*
X76955905Y-82467715D01*
X74068781Y-81113096D02*
X74041844Y-81032284D01*
X73961032Y-80951471D01*
X73853282Y-80897597D01*
X73745532Y-80897597D01*
X73664720Y-80924534D01*
X73530033Y-81005346D01*
X73449221Y-81086158D01*
X73368409Y-81220845D01*
X73341471Y-81301658D01*
X73341471Y-81409407D01*
X73395346Y-81517157D01*
X73449221Y-81571032D01*
X73556971Y-81624906D01*
X73610845Y-81624906D01*
X73799407Y-81436345D01*
X73691658Y-81328595D01*
X73799407Y-81921218D02*
X74365093Y-81355532D01*
X74580592Y-81571032D01*
X74607529Y-81651844D01*
X74607529Y-81705719D01*
X74580592Y-81786531D01*
X74499780Y-81867343D01*
X74418967Y-81894280D01*
X74365093Y-81894280D01*
X74284280Y-81867343D01*
X74068781Y-81651844D01*
X75173215Y-82163654D02*
X75065465Y-82055905D01*
X74984653Y-82028967D01*
X74930778Y-82028967D01*
X74796091Y-82055905D01*
X74661404Y-82136717D01*
X74445905Y-82352216D01*
X74418967Y-82433028D01*
X74418967Y-82486903D01*
X74445905Y-82567715D01*
X74553654Y-82675465D01*
X74634467Y-82702402D01*
X74688341Y-82702402D01*
X74769154Y-82675465D01*
X74903841Y-82540778D01*
X74930778Y-82459966D01*
X74930778Y-82406091D01*
X74903841Y-82325279D01*
X74796091Y-82217529D01*
X74715279Y-82190592D01*
X74661404Y-82190592D01*
X74580592Y-82217529D01*
X68988781Y-81113096D02*
X68961844Y-81032284D01*
X68881032Y-80951471D01*
X68773282Y-80897597D01*
X68665532Y-80897597D01*
X68584720Y-80924534D01*
X68450033Y-81005346D01*
X68369221Y-81086158D01*
X68288409Y-81220845D01*
X68261471Y-81301658D01*
X68261471Y-81409407D01*
X68315346Y-81517157D01*
X68369221Y-81571032D01*
X68476971Y-81624906D01*
X68530845Y-81624906D01*
X68719407Y-81436345D01*
X68611658Y-81328595D01*
X68719407Y-81921218D02*
X69285093Y-81355532D01*
X69500592Y-81571032D01*
X69527529Y-81651844D01*
X69527529Y-81705719D01*
X69500592Y-81786531D01*
X69419780Y-81867343D01*
X69338967Y-81894280D01*
X69285093Y-81894280D01*
X69204280Y-81867343D01*
X68988781Y-81651844D01*
X70120152Y-82190592D02*
X69850778Y-81921218D01*
X69554467Y-82163654D01*
X69608341Y-82163654D01*
X69689154Y-82190592D01*
X69823841Y-82325279D01*
X69850778Y-82406091D01*
X69850778Y-82459966D01*
X69823841Y-82540778D01*
X69689154Y-82675465D01*
X69608341Y-82702402D01*
X69554467Y-82702402D01*
X69473654Y-82675465D01*
X69338967Y-82540778D01*
X69312030Y-82459966D01*
X69312030Y-82406091D01*
X66448781Y-81113096D02*
X66421844Y-81032284D01*
X66341032Y-80951471D01*
X66233282Y-80897597D01*
X66125532Y-80897597D01*
X66044720Y-80924534D01*
X65910033Y-81005346D01*
X65829221Y-81086158D01*
X65748409Y-81220845D01*
X65721471Y-81301658D01*
X65721471Y-81409407D01*
X65775346Y-81517157D01*
X65829221Y-81571032D01*
X65936971Y-81624906D01*
X65990845Y-81624906D01*
X66179407Y-81436345D01*
X66071658Y-81328595D01*
X66179407Y-81921218D02*
X66745093Y-81355532D01*
X66960592Y-81571032D01*
X66987529Y-81651844D01*
X66987529Y-81705719D01*
X66960592Y-81786531D01*
X66879780Y-81867343D01*
X66798967Y-81894280D01*
X66745093Y-81894280D01*
X66664280Y-81867343D01*
X66448781Y-81651844D01*
X67364653Y-82352216D02*
X66987529Y-82729340D01*
X67445465Y-82002030D02*
X66906717Y-82271404D01*
X67256903Y-82621590D01*
X63908781Y-81113096D02*
X63881844Y-81032284D01*
X63801032Y-80951471D01*
X63693282Y-80897597D01*
X63585532Y-80897597D01*
X63504720Y-80924534D01*
X63370033Y-81005346D01*
X63289221Y-81086158D01*
X63208409Y-81220845D01*
X63181471Y-81301658D01*
X63181471Y-81409407D01*
X63235346Y-81517157D01*
X63289221Y-81571032D01*
X63396971Y-81624906D01*
X63450845Y-81624906D01*
X63639407Y-81436345D01*
X63531658Y-81328595D01*
X63639407Y-81921218D02*
X64205093Y-81355532D01*
X64420592Y-81571032D01*
X64447529Y-81651844D01*
X64447529Y-81705719D01*
X64420592Y-81786531D01*
X64339780Y-81867343D01*
X64258967Y-81894280D01*
X64205093Y-81894280D01*
X64124280Y-81867343D01*
X63908781Y-81651844D01*
X64716903Y-81867343D02*
X65067089Y-82217529D01*
X64663028Y-82244467D01*
X64743841Y-82325279D01*
X64770778Y-82406091D01*
X64770778Y-82459966D01*
X64743841Y-82540778D01*
X64609154Y-82675465D01*
X64528341Y-82702402D01*
X64474467Y-82702402D01*
X64393654Y-82675465D01*
X64232030Y-82513841D01*
X64205093Y-82433028D01*
X64205093Y-82379154D01*
X53748781Y-81113096D02*
X53721844Y-81032284D01*
X53641032Y-80951471D01*
X53533282Y-80897597D01*
X53425532Y-80897597D01*
X53344720Y-80924534D01*
X53210033Y-81005346D01*
X53129221Y-81086158D01*
X53048409Y-81220845D01*
X53021471Y-81301658D01*
X53021471Y-81409407D01*
X53075346Y-81517157D01*
X53129221Y-81571032D01*
X53236971Y-81624906D01*
X53290845Y-81624906D01*
X53479407Y-81436345D01*
X53371658Y-81328595D01*
X53479407Y-81921218D02*
X54045093Y-81355532D01*
X54260592Y-81571032D01*
X54287529Y-81651844D01*
X54287529Y-81705719D01*
X54260592Y-81786531D01*
X54179780Y-81867343D01*
X54098967Y-81894280D01*
X54045093Y-81894280D01*
X53964280Y-81867343D01*
X53748781Y-81651844D01*
X54718528Y-82028967D02*
X54772402Y-82082842D01*
X54799340Y-82163654D01*
X54799340Y-82217529D01*
X54772402Y-82298341D01*
X54691590Y-82433028D01*
X54556903Y-82567715D01*
X54422216Y-82648528D01*
X54341404Y-82675465D01*
X54287529Y-82675465D01*
X54206717Y-82648528D01*
X54152842Y-82594653D01*
X54125905Y-82513841D01*
X54125905Y-82459966D01*
X54152842Y-82379154D01*
X54233654Y-82244467D01*
X54368341Y-82109780D01*
X54503028Y-82028967D01*
X54583841Y-82002030D01*
X54637715Y-82002030D01*
X54718528Y-82028967D01*
X61368781Y-81213096D02*
X61341844Y-81132284D01*
X61261032Y-81051471D01*
X61153282Y-80997597D01*
X61045532Y-80997597D01*
X60964720Y-81024534D01*
X60830033Y-81105346D01*
X60749221Y-81186158D01*
X60668409Y-81320845D01*
X60641471Y-81401658D01*
X60641471Y-81509407D01*
X60695346Y-81617157D01*
X60749221Y-81671032D01*
X60856971Y-81724906D01*
X60910845Y-81724906D01*
X61099407Y-81536345D01*
X60991658Y-81428595D01*
X61099407Y-82021218D02*
X61665093Y-81455532D01*
X61880592Y-81671032D01*
X61907529Y-81751844D01*
X61907529Y-81805719D01*
X61880592Y-81886531D01*
X61799780Y-81967343D01*
X61718967Y-81994280D01*
X61665093Y-81994280D01*
X61584280Y-81967343D01*
X61368781Y-81751844D01*
X62149966Y-82048155D02*
X62203841Y-82048155D01*
X62284653Y-82075093D01*
X62419340Y-82209780D01*
X62446277Y-82290592D01*
X62446277Y-82344467D01*
X62419340Y-82425279D01*
X62365465Y-82479154D01*
X62257715Y-82533028D01*
X61611218Y-82533028D01*
X61961404Y-82883215D01*
X56278781Y-81213096D02*
X56251844Y-81132284D01*
X56171032Y-81051471D01*
X56063282Y-80997597D01*
X55955532Y-80997597D01*
X55874720Y-81024534D01*
X55740033Y-81105346D01*
X55659221Y-81186158D01*
X55578409Y-81320845D01*
X55551471Y-81401658D01*
X55551471Y-81509407D01*
X55605346Y-81617157D01*
X55659221Y-81671032D01*
X55766971Y-81724906D01*
X55820845Y-81724906D01*
X56009407Y-81536345D01*
X55901658Y-81428595D01*
X56009407Y-82021218D02*
X56575093Y-81455532D01*
X56790592Y-81671032D01*
X56817529Y-81751844D01*
X56817529Y-81805719D01*
X56790592Y-81886531D01*
X56709780Y-81967343D01*
X56628967Y-81994280D01*
X56575093Y-81994280D01*
X56494280Y-81967343D01*
X56278781Y-81751844D01*
X56871404Y-82883215D02*
X56548155Y-82559966D01*
X56709780Y-82721590D02*
X57275465Y-82155905D01*
X57140778Y-82182842D01*
X57033028Y-82182842D01*
X56952216Y-82155905D01*
M02*
