G04 #@! TF.GenerationSoftware,KiCad,Pcbnew,5.1.5+dfsg1-2build2*
G04 #@! TF.CreationDate,2021-11-10T18:08:46-05:00*
G04 #@! TF.ProjectId,,58585858-5858-4585-9858-585858585858,rev?*
G04 #@! TF.SameCoordinates,Original*
G04 #@! TF.FileFunction,Legend,Bot*
G04 #@! TF.FilePolarity,Positive*
%FSLAX46Y46*%
G04 Gerber Fmt 4.6, Leading zero omitted, Abs format (unit mm)*
G04 Created by KiCad (PCBNEW 5.1.5+dfsg1-2build2) date 2021-11-10 18:08:46*
%MOMM*%
%LPD*%
G04 APERTURE LIST*
%ADD10C,1.500000*%
%ADD11C,0.500000*%
%ADD12C,0.150000*%
%ADD13C,0.010000*%
%ADD14C,0.120000*%
G04 APERTURE END LIST*
D10*
X110313000Y-96791900D02*
X198813000Y-96791900D01*
D11*
X159185285Y-111060985D02*
X158756714Y-111203842D01*
X158042428Y-111203842D01*
X157756714Y-111060985D01*
X157613857Y-110918128D01*
X157471000Y-110632414D01*
X157471000Y-110346700D01*
X157613857Y-110060985D01*
X157756714Y-109918128D01*
X158042428Y-109775271D01*
X158613857Y-109632414D01*
X158899571Y-109489557D01*
X159042428Y-109346700D01*
X159185285Y-109060985D01*
X159185285Y-108775271D01*
X159042428Y-108489557D01*
X158899571Y-108346700D01*
X158613857Y-108203842D01*
X157899571Y-108203842D01*
X157471000Y-108346700D01*
X156185285Y-111203842D02*
X156185285Y-108203842D01*
X154756714Y-111203842D02*
X154756714Y-108203842D01*
X153042428Y-111203842D01*
X153042428Y-108203842D01*
X151756714Y-111060985D02*
X151328142Y-111203842D01*
X150613857Y-111203842D01*
X150328142Y-111060985D01*
X150185285Y-110918128D01*
X150042428Y-110632414D01*
X150042428Y-110346700D01*
X150185285Y-110060985D01*
X150328142Y-109918128D01*
X150613857Y-109775271D01*
X151185285Y-109632414D01*
X151471000Y-109489557D01*
X151613857Y-109346700D01*
X151756714Y-109060985D01*
X151756714Y-108775271D01*
X151613857Y-108489557D01*
X151471000Y-108346700D01*
X151185285Y-108203842D01*
X150471000Y-108203842D01*
X150042428Y-108346700D01*
X148185285Y-108203842D02*
X147613857Y-108203842D01*
X147328142Y-108346700D01*
X147042428Y-108632414D01*
X146899571Y-109203842D01*
X146899571Y-110203842D01*
X147042428Y-110775271D01*
X147328142Y-111060985D01*
X147613857Y-111203842D01*
X148185285Y-111203842D01*
X148471000Y-111060985D01*
X148756714Y-110775271D01*
X148899571Y-110203842D01*
X148899571Y-109203842D01*
X148756714Y-108632414D01*
X148471000Y-108346700D01*
X148185285Y-108203842D01*
X145613857Y-111203842D02*
X145613857Y-108203842D01*
X143899571Y-111203842D01*
X143899571Y-108203842D01*
X142899571Y-108203842D02*
X141185285Y-108203842D01*
X142042428Y-111203842D02*
X142042428Y-108203842D01*
X140185285Y-109632414D02*
X139185285Y-109632414D01*
X138756714Y-111203842D02*
X140185285Y-111203842D01*
X140185285Y-108203842D01*
X138756714Y-108203842D01*
D12*
X191753738Y-134149680D02*
X191753738Y-133149680D01*
X191420404Y-133863966D01*
X191087071Y-133149680D01*
X191087071Y-134149680D01*
X190420404Y-133149680D02*
X190229928Y-133149680D01*
X190134690Y-133197300D01*
X190039452Y-133292538D01*
X189991833Y-133483014D01*
X189991833Y-133816347D01*
X190039452Y-134006823D01*
X190134690Y-134102061D01*
X190229928Y-134149680D01*
X190420404Y-134149680D01*
X190515642Y-134102061D01*
X190610880Y-134006823D01*
X190658500Y-133816347D01*
X190658500Y-133483014D01*
X190610880Y-133292538D01*
X190515642Y-133197300D01*
X190420404Y-133149680D01*
X189563261Y-134149680D02*
X189563261Y-133149680D01*
X189325166Y-133149680D01*
X189182309Y-133197300D01*
X189087071Y-133292538D01*
X189039452Y-133387776D01*
X188991833Y-133578252D01*
X188991833Y-133721109D01*
X189039452Y-133911585D01*
X189087071Y-134006823D01*
X189182309Y-134102061D01*
X189325166Y-134149680D01*
X189563261Y-134149680D01*
X188563261Y-133625871D02*
X188229928Y-133625871D01*
X188087071Y-134149680D02*
X188563261Y-134149680D01*
X188563261Y-133149680D01*
X188087071Y-133149680D01*
X187182309Y-134149680D02*
X187658500Y-134149680D01*
X187658500Y-133149680D01*
X185753738Y-133625871D02*
X185610880Y-133673490D01*
X185563261Y-133721109D01*
X185515642Y-133816347D01*
X185515642Y-133959204D01*
X185563261Y-134054442D01*
X185610880Y-134102061D01*
X185706119Y-134149680D01*
X186087071Y-134149680D01*
X186087071Y-133149680D01*
X185753738Y-133149680D01*
X185658500Y-133197300D01*
X185610880Y-133244919D01*
X185563261Y-133340157D01*
X185563261Y-133435395D01*
X185610880Y-133530633D01*
X185658500Y-133578252D01*
X185753738Y-133625871D01*
X186087071Y-133625871D01*
D10*
X198813000Y-96791900D02*
X198813000Y-136291900D01*
X110313000Y-96791900D02*
X110313000Y-136291900D01*
X110313000Y-136291900D02*
X198813000Y-136291900D01*
D12*
X191753738Y-93149680D02*
X191753738Y-92149680D01*
X191420404Y-92863966D01*
X191087071Y-92149680D01*
X191087071Y-93149680D01*
X190420404Y-92149680D02*
X190229928Y-92149680D01*
X190134690Y-92197300D01*
X190039452Y-92292538D01*
X189991833Y-92483014D01*
X189991833Y-92816347D01*
X190039452Y-93006823D01*
X190134690Y-93102061D01*
X190229928Y-93149680D01*
X190420404Y-93149680D01*
X190515642Y-93102061D01*
X190610880Y-93006823D01*
X190658500Y-92816347D01*
X190658500Y-92483014D01*
X190610880Y-92292538D01*
X190515642Y-92197300D01*
X190420404Y-92149680D01*
X189563261Y-93149680D02*
X189563261Y-92149680D01*
X189325166Y-92149680D01*
X189182309Y-92197300D01*
X189087071Y-92292538D01*
X189039452Y-92387776D01*
X188991833Y-92578252D01*
X188991833Y-92721109D01*
X189039452Y-92911585D01*
X189087071Y-93006823D01*
X189182309Y-93102061D01*
X189325166Y-93149680D01*
X189563261Y-93149680D01*
X188563261Y-92625871D02*
X188229928Y-92625871D01*
X188087071Y-93149680D02*
X188563261Y-93149680D01*
X188563261Y-92149680D01*
X188087071Y-92149680D01*
X187182309Y-93149680D02*
X187658500Y-93149680D01*
X187658500Y-92149680D01*
X185753738Y-92625871D02*
X185610880Y-92673490D01*
X185563261Y-92721109D01*
X185515642Y-92816347D01*
X185515642Y-92959204D01*
X185563261Y-93054442D01*
X185610880Y-93102061D01*
X185706119Y-93149680D01*
X186087071Y-93149680D01*
X186087071Y-92149680D01*
X185753738Y-92149680D01*
X185658500Y-92197300D01*
X185610880Y-92244919D01*
X185563261Y-92340157D01*
X185563261Y-92435395D01*
X185610880Y-92530633D01*
X185658500Y-92578252D01*
X185753738Y-92625871D01*
X186087071Y-92625871D01*
D11*
X159185285Y-70060985D02*
X158756714Y-70203842D01*
X158042428Y-70203842D01*
X157756714Y-70060985D01*
X157613857Y-69918128D01*
X157471000Y-69632414D01*
X157471000Y-69346700D01*
X157613857Y-69060985D01*
X157756714Y-68918128D01*
X158042428Y-68775271D01*
X158613857Y-68632414D01*
X158899571Y-68489557D01*
X159042428Y-68346700D01*
X159185285Y-68060985D01*
X159185285Y-67775271D01*
X159042428Y-67489557D01*
X158899571Y-67346700D01*
X158613857Y-67203842D01*
X157899571Y-67203842D01*
X157471000Y-67346700D01*
X156185285Y-70203842D02*
X156185285Y-67203842D01*
X154756714Y-70203842D02*
X154756714Y-67203842D01*
X153042428Y-70203842D01*
X153042428Y-67203842D01*
X151756714Y-70060985D02*
X151328142Y-70203842D01*
X150613857Y-70203842D01*
X150328142Y-70060985D01*
X150185285Y-69918128D01*
X150042428Y-69632414D01*
X150042428Y-69346700D01*
X150185285Y-69060985D01*
X150328142Y-68918128D01*
X150613857Y-68775271D01*
X151185285Y-68632414D01*
X151471000Y-68489557D01*
X151613857Y-68346700D01*
X151756714Y-68060985D01*
X151756714Y-67775271D01*
X151613857Y-67489557D01*
X151471000Y-67346700D01*
X151185285Y-67203842D01*
X150471000Y-67203842D01*
X150042428Y-67346700D01*
X148185285Y-67203842D02*
X147613857Y-67203842D01*
X147328142Y-67346700D01*
X147042428Y-67632414D01*
X146899571Y-68203842D01*
X146899571Y-69203842D01*
X147042428Y-69775271D01*
X147328142Y-70060985D01*
X147613857Y-70203842D01*
X148185285Y-70203842D01*
X148471000Y-70060985D01*
X148756714Y-69775271D01*
X148899571Y-69203842D01*
X148899571Y-68203842D01*
X148756714Y-67632414D01*
X148471000Y-67346700D01*
X148185285Y-67203842D01*
X145613857Y-70203842D02*
X145613857Y-67203842D01*
X143899571Y-70203842D01*
X143899571Y-67203842D01*
X142899571Y-67203842D02*
X141185285Y-67203842D01*
X142042428Y-70203842D02*
X142042428Y-67203842D01*
X140185285Y-68632414D02*
X139185285Y-68632414D01*
X138756714Y-70203842D02*
X140185285Y-70203842D01*
X140185285Y-67203842D01*
X138756714Y-67203842D01*
D10*
X110313000Y-55791900D02*
X198813000Y-55791900D01*
X110313000Y-95291900D02*
X198813000Y-95291900D01*
X110313000Y-55791900D02*
X110313000Y-95291900D01*
X198813000Y-55791900D02*
X198813000Y-95291900D01*
D13*
G36*
X191176086Y-101930831D02*
G01*
X191092265Y-102375455D01*
X190782980Y-102502953D01*
X190473694Y-102630451D01*
X190102654Y-102378146D01*
X189998743Y-102307896D01*
X189904813Y-102245172D01*
X189825248Y-102192838D01*
X189764430Y-102153757D01*
X189726743Y-102130793D01*
X189716479Y-102125842D01*
X189697990Y-102138576D01*
X189658480Y-102173782D01*
X189602378Y-102226962D01*
X189534113Y-102293618D01*
X189458114Y-102369254D01*
X189378808Y-102449372D01*
X189300625Y-102529474D01*
X189227993Y-102605064D01*
X189165341Y-102671645D01*
X189117097Y-102724718D01*
X189087690Y-102759787D01*
X189080659Y-102771523D01*
X189090777Y-102793160D01*
X189119141Y-102840562D01*
X189162771Y-102909093D01*
X189218682Y-102994115D01*
X189283894Y-103090993D01*
X189321681Y-103146250D01*
X189390557Y-103247148D01*
X189451760Y-103338199D01*
X189502322Y-103414870D01*
X189539272Y-103472628D01*
X189559642Y-103506943D01*
X189562703Y-103514154D01*
X189555764Y-103534648D01*
X189536849Y-103582413D01*
X189508813Y-103650732D01*
X189474509Y-103732889D01*
X189436791Y-103822170D01*
X189398513Y-103911858D01*
X189362530Y-103995238D01*
X189331694Y-104065594D01*
X189308861Y-104116210D01*
X189296883Y-104140371D01*
X189296176Y-104141322D01*
X189277369Y-104145936D01*
X189227282Y-104156228D01*
X189151107Y-104171187D01*
X189054035Y-104189801D01*
X188941257Y-104211059D01*
X188875458Y-104223318D01*
X188754950Y-104246262D01*
X188646103Y-104268095D01*
X188554424Y-104287622D01*
X188485419Y-104303648D01*
X188444596Y-104314979D01*
X188436389Y-104318574D01*
X188428352Y-104342906D01*
X188421867Y-104397859D01*
X188416930Y-104477008D01*
X188413536Y-104573926D01*
X188411682Y-104682187D01*
X188411362Y-104795365D01*
X188412573Y-104907035D01*
X188415310Y-105010768D01*
X188419569Y-105100141D01*
X188425345Y-105168726D01*
X188432633Y-105210097D01*
X188437005Y-105218710D01*
X188463136Y-105229033D01*
X188518507Y-105243792D01*
X188595793Y-105261252D01*
X188687670Y-105279680D01*
X188719742Y-105285641D01*
X188874376Y-105313966D01*
X188996525Y-105336776D01*
X189090227Y-105354980D01*
X189159516Y-105369483D01*
X189208429Y-105381192D01*
X189241003Y-105391015D01*
X189261272Y-105399856D01*
X189273274Y-105408624D01*
X189274953Y-105410357D01*
X189291716Y-105438271D01*
X189317286Y-105492595D01*
X189349112Y-105566677D01*
X189384640Y-105653865D01*
X189421317Y-105747508D01*
X189456589Y-105840952D01*
X189487904Y-105927547D01*
X189512707Y-106000640D01*
X189528446Y-106053578D01*
X189532568Y-106079711D01*
X189532224Y-106080626D01*
X189518259Y-106101986D01*
X189486578Y-106148984D01*
X189440509Y-106216727D01*
X189383382Y-106300323D01*
X189318527Y-106394882D01*
X189300057Y-106421754D01*
X189234201Y-106519175D01*
X189176250Y-106608063D01*
X189129362Y-106683312D01*
X189096693Y-106739820D01*
X189081400Y-106772481D01*
X189080659Y-106776493D01*
X189093508Y-106797584D01*
X189129012Y-106839364D01*
X189182607Y-106897345D01*
X189249729Y-106967035D01*
X189325813Y-107043945D01*
X189406296Y-107123583D01*
X189486613Y-107201461D01*
X189562201Y-107273086D01*
X189628495Y-107333970D01*
X189680931Y-107379621D01*
X189714945Y-107405550D01*
X189724355Y-107409783D01*
X189746257Y-107399812D01*
X189791100Y-107372920D01*
X189851579Y-107333636D01*
X189898111Y-107302017D01*
X189982425Y-107243998D01*
X190082274Y-107175684D01*
X190182427Y-107107479D01*
X190236273Y-107070975D01*
X190418529Y-106947700D01*
X190571519Y-107030420D01*
X190641218Y-107066659D01*
X190700486Y-107094826D01*
X190740589Y-107110891D01*
X190750797Y-107113126D01*
X190763071Y-107096622D01*
X190787287Y-107049982D01*
X190821637Y-106977509D01*
X190864312Y-106883506D01*
X190913506Y-106772274D01*
X190967410Y-106648115D01*
X191024216Y-106515332D01*
X191082118Y-106378227D01*
X191139307Y-106241102D01*
X191193976Y-106108258D01*
X191244316Y-105983998D01*
X191288520Y-105872625D01*
X191324781Y-105778439D01*
X191351291Y-105705744D01*
X191366242Y-105658841D01*
X191368646Y-105642733D01*
X191349589Y-105622186D01*
X191307864Y-105588833D01*
X191252194Y-105549602D01*
X191247522Y-105546499D01*
X191103636Y-105431323D01*
X190987617Y-105296953D01*
X190900470Y-105147684D01*
X190843201Y-104987813D01*
X190816814Y-104821637D01*
X190822315Y-104653452D01*
X190860710Y-104487555D01*
X190933005Y-104328242D01*
X190954274Y-104293387D01*
X191064904Y-104152637D01*
X191195598Y-104039614D01*
X191341836Y-103954903D01*
X191499092Y-103899094D01*
X191662843Y-103872774D01*
X191828567Y-103876530D01*
X191991738Y-103910950D01*
X192147835Y-103976623D01*
X192292333Y-104074135D01*
X192337031Y-104113713D01*
X192450788Y-104237603D01*
X192533682Y-104368024D01*
X192590544Y-104514215D01*
X192622213Y-104658988D01*
X192630031Y-104821760D01*
X192603962Y-104985340D01*
X192546655Y-105144198D01*
X192460756Y-105292806D01*
X192348914Y-105425635D01*
X192213777Y-105537156D01*
X192196017Y-105548911D01*
X192139750Y-105587408D01*
X192096977Y-105620763D01*
X192076528Y-105642060D01*
X192076231Y-105642733D01*
X192080621Y-105665771D01*
X192098024Y-105718057D01*
X192126632Y-105795290D01*
X192164635Y-105893168D01*
X192210226Y-106007391D01*
X192261597Y-106133658D01*
X192316938Y-106267667D01*
X192374442Y-106405118D01*
X192432299Y-106541708D01*
X192488702Y-106673137D01*
X192541842Y-106795105D01*
X192589910Y-106903309D01*
X192631099Y-106993449D01*
X192663599Y-107061223D01*
X192685603Y-107102330D01*
X192694464Y-107113126D01*
X192721540Y-107104719D01*
X192772203Y-107082172D01*
X192837717Y-107049513D01*
X192873741Y-107030420D01*
X193026732Y-106947700D01*
X193208988Y-107070975D01*
X193302025Y-107134128D01*
X193403885Y-107203627D01*
X193499338Y-107269065D01*
X193547150Y-107302017D01*
X193614395Y-107347173D01*
X193671336Y-107382957D01*
X193710546Y-107404838D01*
X193723281Y-107409463D01*
X193741817Y-107396985D01*
X193782841Y-107362152D01*
X193842375Y-107308578D01*
X193916442Y-107239883D01*
X194001065Y-107159681D01*
X194054585Y-107108186D01*
X194148219Y-107016186D01*
X194229141Y-106933899D01*
X194294077Y-106864845D01*
X194339758Y-106812544D01*
X194362911Y-106780516D01*
X194365132Y-106774016D01*
X194354824Y-106749294D01*
X194326339Y-106699305D01*
X194282837Y-106629112D01*
X194227477Y-106543775D01*
X194163420Y-106448356D01*
X194145203Y-106421754D01*
X194078827Y-106325067D01*
X194019278Y-106238017D01*
X193969884Y-106165495D01*
X193933975Y-106112393D01*
X193914881Y-106083603D01*
X193913036Y-106080626D01*
X193915795Y-106057682D01*
X193930438Y-106007236D01*
X193954413Y-105935941D01*
X193985166Y-105850447D01*
X194020144Y-105757407D01*
X194056793Y-105663474D01*
X194092561Y-105575299D01*
X194124894Y-105499534D01*
X194151238Y-105442831D01*
X194169042Y-105411843D01*
X194170307Y-105410357D01*
X194181194Y-105401501D01*
X194199582Y-105392743D01*
X194229506Y-105383177D01*
X194275003Y-105371896D01*
X194340109Y-105357993D01*
X194428861Y-105340563D01*
X194545293Y-105318698D01*
X194693442Y-105291491D01*
X194725518Y-105285641D01*
X194820586Y-105267274D01*
X194903465Y-105249305D01*
X194966830Y-105233469D01*
X195003358Y-105221500D01*
X195008256Y-105218710D01*
X195016327Y-105193972D01*
X195022887Y-105138690D01*
X195027933Y-105059289D01*
X195031459Y-104962196D01*
X195033461Y-104853838D01*
X195033936Y-104740640D01*
X195032877Y-104629028D01*
X195030282Y-104525429D01*
X195026146Y-104436268D01*
X195020463Y-104367972D01*
X195013231Y-104326966D01*
X195008871Y-104318574D01*
X194984598Y-104310108D01*
X194929326Y-104296335D01*
X194848562Y-104278450D01*
X194747812Y-104257648D01*
X194632583Y-104235123D01*
X194569802Y-104223318D01*
X194450687Y-104201051D01*
X194344465Y-104180879D01*
X194256327Y-104163815D01*
X194191466Y-104150869D01*
X194155074Y-104143055D01*
X194149084Y-104141322D01*
X194138961Y-104121790D01*
X194117562Y-104074743D01*
X194087739Y-104006903D01*
X194052345Y-103924991D01*
X194014232Y-103835728D01*
X193976253Y-103745835D01*
X193941260Y-103662035D01*
X193912106Y-103591047D01*
X193891643Y-103539594D01*
X193882723Y-103514397D01*
X193882557Y-103513296D01*
X193892669Y-103493419D01*
X193921017Y-103447677D01*
X193964623Y-103380617D01*
X194020506Y-103296784D01*
X194085687Y-103200726D01*
X194123579Y-103145550D01*
X194192625Y-103044381D01*
X194253950Y-102952530D01*
X194304563Y-102874644D01*
X194341471Y-102815369D01*
X194361682Y-102779351D01*
X194364601Y-102771277D01*
X194352053Y-102752484D01*
X194317363Y-102712357D01*
X194264963Y-102655393D01*
X194199284Y-102586085D01*
X194124756Y-102508931D01*
X194045813Y-102428425D01*
X193966883Y-102349063D01*
X193892400Y-102275340D01*
X193826794Y-102211752D01*
X193774496Y-102162794D01*
X193739939Y-102132961D01*
X193728378Y-102125842D01*
X193709554Y-102135853D01*
X193664531Y-102163978D01*
X193597687Y-102207354D01*
X193513399Y-102263118D01*
X193416044Y-102328406D01*
X193342607Y-102378146D01*
X192971567Y-102630451D01*
X192352995Y-102375455D01*
X192269175Y-101930831D01*
X192185354Y-101486207D01*
X191259906Y-101486207D01*
X191176086Y-101930831D01*
G37*
X191176086Y-101930831D02*
X191092265Y-102375455D01*
X190782980Y-102502953D01*
X190473694Y-102630451D01*
X190102654Y-102378146D01*
X189998743Y-102307896D01*
X189904813Y-102245172D01*
X189825248Y-102192838D01*
X189764430Y-102153757D01*
X189726743Y-102130793D01*
X189716479Y-102125842D01*
X189697990Y-102138576D01*
X189658480Y-102173782D01*
X189602378Y-102226962D01*
X189534113Y-102293618D01*
X189458114Y-102369254D01*
X189378808Y-102449372D01*
X189300625Y-102529474D01*
X189227993Y-102605064D01*
X189165341Y-102671645D01*
X189117097Y-102724718D01*
X189087690Y-102759787D01*
X189080659Y-102771523D01*
X189090777Y-102793160D01*
X189119141Y-102840562D01*
X189162771Y-102909093D01*
X189218682Y-102994115D01*
X189283894Y-103090993D01*
X189321681Y-103146250D01*
X189390557Y-103247148D01*
X189451760Y-103338199D01*
X189502322Y-103414870D01*
X189539272Y-103472628D01*
X189559642Y-103506943D01*
X189562703Y-103514154D01*
X189555764Y-103534648D01*
X189536849Y-103582413D01*
X189508813Y-103650732D01*
X189474509Y-103732889D01*
X189436791Y-103822170D01*
X189398513Y-103911858D01*
X189362530Y-103995238D01*
X189331694Y-104065594D01*
X189308861Y-104116210D01*
X189296883Y-104140371D01*
X189296176Y-104141322D01*
X189277369Y-104145936D01*
X189227282Y-104156228D01*
X189151107Y-104171187D01*
X189054035Y-104189801D01*
X188941257Y-104211059D01*
X188875458Y-104223318D01*
X188754950Y-104246262D01*
X188646103Y-104268095D01*
X188554424Y-104287622D01*
X188485419Y-104303648D01*
X188444596Y-104314979D01*
X188436389Y-104318574D01*
X188428352Y-104342906D01*
X188421867Y-104397859D01*
X188416930Y-104477008D01*
X188413536Y-104573926D01*
X188411682Y-104682187D01*
X188411362Y-104795365D01*
X188412573Y-104907035D01*
X188415310Y-105010768D01*
X188419569Y-105100141D01*
X188425345Y-105168726D01*
X188432633Y-105210097D01*
X188437005Y-105218710D01*
X188463136Y-105229033D01*
X188518507Y-105243792D01*
X188595793Y-105261252D01*
X188687670Y-105279680D01*
X188719742Y-105285641D01*
X188874376Y-105313966D01*
X188996525Y-105336776D01*
X189090227Y-105354980D01*
X189159516Y-105369483D01*
X189208429Y-105381192D01*
X189241003Y-105391015D01*
X189261272Y-105399856D01*
X189273274Y-105408624D01*
X189274953Y-105410357D01*
X189291716Y-105438271D01*
X189317286Y-105492595D01*
X189349112Y-105566677D01*
X189384640Y-105653865D01*
X189421317Y-105747508D01*
X189456589Y-105840952D01*
X189487904Y-105927547D01*
X189512707Y-106000640D01*
X189528446Y-106053578D01*
X189532568Y-106079711D01*
X189532224Y-106080626D01*
X189518259Y-106101986D01*
X189486578Y-106148984D01*
X189440509Y-106216727D01*
X189383382Y-106300323D01*
X189318527Y-106394882D01*
X189300057Y-106421754D01*
X189234201Y-106519175D01*
X189176250Y-106608063D01*
X189129362Y-106683312D01*
X189096693Y-106739820D01*
X189081400Y-106772481D01*
X189080659Y-106776493D01*
X189093508Y-106797584D01*
X189129012Y-106839364D01*
X189182607Y-106897345D01*
X189249729Y-106967035D01*
X189325813Y-107043945D01*
X189406296Y-107123583D01*
X189486613Y-107201461D01*
X189562201Y-107273086D01*
X189628495Y-107333970D01*
X189680931Y-107379621D01*
X189714945Y-107405550D01*
X189724355Y-107409783D01*
X189746257Y-107399812D01*
X189791100Y-107372920D01*
X189851579Y-107333636D01*
X189898111Y-107302017D01*
X189982425Y-107243998D01*
X190082274Y-107175684D01*
X190182427Y-107107479D01*
X190236273Y-107070975D01*
X190418529Y-106947700D01*
X190571519Y-107030420D01*
X190641218Y-107066659D01*
X190700486Y-107094826D01*
X190740589Y-107110891D01*
X190750797Y-107113126D01*
X190763071Y-107096622D01*
X190787287Y-107049982D01*
X190821637Y-106977509D01*
X190864312Y-106883506D01*
X190913506Y-106772274D01*
X190967410Y-106648115D01*
X191024216Y-106515332D01*
X191082118Y-106378227D01*
X191139307Y-106241102D01*
X191193976Y-106108258D01*
X191244316Y-105983998D01*
X191288520Y-105872625D01*
X191324781Y-105778439D01*
X191351291Y-105705744D01*
X191366242Y-105658841D01*
X191368646Y-105642733D01*
X191349589Y-105622186D01*
X191307864Y-105588833D01*
X191252194Y-105549602D01*
X191247522Y-105546499D01*
X191103636Y-105431323D01*
X190987617Y-105296953D01*
X190900470Y-105147684D01*
X190843201Y-104987813D01*
X190816814Y-104821637D01*
X190822315Y-104653452D01*
X190860710Y-104487555D01*
X190933005Y-104328242D01*
X190954274Y-104293387D01*
X191064904Y-104152637D01*
X191195598Y-104039614D01*
X191341836Y-103954903D01*
X191499092Y-103899094D01*
X191662843Y-103872774D01*
X191828567Y-103876530D01*
X191991738Y-103910950D01*
X192147835Y-103976623D01*
X192292333Y-104074135D01*
X192337031Y-104113713D01*
X192450788Y-104237603D01*
X192533682Y-104368024D01*
X192590544Y-104514215D01*
X192622213Y-104658988D01*
X192630031Y-104821760D01*
X192603962Y-104985340D01*
X192546655Y-105144198D01*
X192460756Y-105292806D01*
X192348914Y-105425635D01*
X192213777Y-105537156D01*
X192196017Y-105548911D01*
X192139750Y-105587408D01*
X192096977Y-105620763D01*
X192076528Y-105642060D01*
X192076231Y-105642733D01*
X192080621Y-105665771D01*
X192098024Y-105718057D01*
X192126632Y-105795290D01*
X192164635Y-105893168D01*
X192210226Y-106007391D01*
X192261597Y-106133658D01*
X192316938Y-106267667D01*
X192374442Y-106405118D01*
X192432299Y-106541708D01*
X192488702Y-106673137D01*
X192541842Y-106795105D01*
X192589910Y-106903309D01*
X192631099Y-106993449D01*
X192663599Y-107061223D01*
X192685603Y-107102330D01*
X192694464Y-107113126D01*
X192721540Y-107104719D01*
X192772203Y-107082172D01*
X192837717Y-107049513D01*
X192873741Y-107030420D01*
X193026732Y-106947700D01*
X193208988Y-107070975D01*
X193302025Y-107134128D01*
X193403885Y-107203627D01*
X193499338Y-107269065D01*
X193547150Y-107302017D01*
X193614395Y-107347173D01*
X193671336Y-107382957D01*
X193710546Y-107404838D01*
X193723281Y-107409463D01*
X193741817Y-107396985D01*
X193782841Y-107362152D01*
X193842375Y-107308578D01*
X193916442Y-107239883D01*
X194001065Y-107159681D01*
X194054585Y-107108186D01*
X194148219Y-107016186D01*
X194229141Y-106933899D01*
X194294077Y-106864845D01*
X194339758Y-106812544D01*
X194362911Y-106780516D01*
X194365132Y-106774016D01*
X194354824Y-106749294D01*
X194326339Y-106699305D01*
X194282837Y-106629112D01*
X194227477Y-106543775D01*
X194163420Y-106448356D01*
X194145203Y-106421754D01*
X194078827Y-106325067D01*
X194019278Y-106238017D01*
X193969884Y-106165495D01*
X193933975Y-106112393D01*
X193914881Y-106083603D01*
X193913036Y-106080626D01*
X193915795Y-106057682D01*
X193930438Y-106007236D01*
X193954413Y-105935941D01*
X193985166Y-105850447D01*
X194020144Y-105757407D01*
X194056793Y-105663474D01*
X194092561Y-105575299D01*
X194124894Y-105499534D01*
X194151238Y-105442831D01*
X194169042Y-105411843D01*
X194170307Y-105410357D01*
X194181194Y-105401501D01*
X194199582Y-105392743D01*
X194229506Y-105383177D01*
X194275003Y-105371896D01*
X194340109Y-105357993D01*
X194428861Y-105340563D01*
X194545293Y-105318698D01*
X194693442Y-105291491D01*
X194725518Y-105285641D01*
X194820586Y-105267274D01*
X194903465Y-105249305D01*
X194966830Y-105233469D01*
X195003358Y-105221500D01*
X195008256Y-105218710D01*
X195016327Y-105193972D01*
X195022887Y-105138690D01*
X195027933Y-105059289D01*
X195031459Y-104962196D01*
X195033461Y-104853838D01*
X195033936Y-104740640D01*
X195032877Y-104629028D01*
X195030282Y-104525429D01*
X195026146Y-104436268D01*
X195020463Y-104367972D01*
X195013231Y-104326966D01*
X195008871Y-104318574D01*
X194984598Y-104310108D01*
X194929326Y-104296335D01*
X194848562Y-104278450D01*
X194747812Y-104257648D01*
X194632583Y-104235123D01*
X194569802Y-104223318D01*
X194450687Y-104201051D01*
X194344465Y-104180879D01*
X194256327Y-104163815D01*
X194191466Y-104150869D01*
X194155074Y-104143055D01*
X194149084Y-104141322D01*
X194138961Y-104121790D01*
X194117562Y-104074743D01*
X194087739Y-104006903D01*
X194052345Y-103924991D01*
X194014232Y-103835728D01*
X193976253Y-103745835D01*
X193941260Y-103662035D01*
X193912106Y-103591047D01*
X193891643Y-103539594D01*
X193882723Y-103514397D01*
X193882557Y-103513296D01*
X193892669Y-103493419D01*
X193921017Y-103447677D01*
X193964623Y-103380617D01*
X194020506Y-103296784D01*
X194085687Y-103200726D01*
X194123579Y-103145550D01*
X194192625Y-103044381D01*
X194253950Y-102952530D01*
X194304563Y-102874644D01*
X194341471Y-102815369D01*
X194361682Y-102779351D01*
X194364601Y-102771277D01*
X194352053Y-102752484D01*
X194317363Y-102712357D01*
X194264963Y-102655393D01*
X194199284Y-102586085D01*
X194124756Y-102508931D01*
X194045813Y-102428425D01*
X193966883Y-102349063D01*
X193892400Y-102275340D01*
X193826794Y-102211752D01*
X193774496Y-102162794D01*
X193739939Y-102132961D01*
X193728378Y-102125842D01*
X193709554Y-102135853D01*
X193664531Y-102163978D01*
X193597687Y-102207354D01*
X193513399Y-102263118D01*
X193416044Y-102328406D01*
X193342607Y-102378146D01*
X192971567Y-102630451D01*
X192352995Y-102375455D01*
X192269175Y-101930831D01*
X192185354Y-101486207D01*
X191259906Y-101486207D01*
X191176086Y-101930831D01*
D14*
X144953000Y-112571900D02*
X144353000Y-112571900D01*
X145653000Y-116021900D02*
X145653000Y-113221900D01*
X144353000Y-116671900D02*
X144953000Y-116671900D01*
X143653000Y-113221900D02*
X143653000Y-116021900D01*
X143653000Y-115971900D02*
G75*
G03X144353000Y-116671900I700000J0D01*
G01*
X144953000Y-116671900D02*
G75*
G03X145653000Y-115971900I0J700000D01*
G01*
X145653000Y-113271900D02*
G75*
G03X144953000Y-112571900I-700000J0D01*
G01*
X144353000Y-112571900D02*
G75*
G03X143653000Y-113271900I0J-700000D01*
G01*
D13*
G36*
X191176086Y-60930831D02*
G01*
X191092265Y-61375455D01*
X190782980Y-61502953D01*
X190473694Y-61630451D01*
X190102654Y-61378146D01*
X189998743Y-61307896D01*
X189904813Y-61245172D01*
X189825248Y-61192838D01*
X189764430Y-61153757D01*
X189726743Y-61130793D01*
X189716479Y-61125842D01*
X189697990Y-61138576D01*
X189658480Y-61173782D01*
X189602378Y-61226962D01*
X189534113Y-61293618D01*
X189458114Y-61369254D01*
X189378808Y-61449372D01*
X189300625Y-61529474D01*
X189227993Y-61605064D01*
X189165341Y-61671645D01*
X189117097Y-61724718D01*
X189087690Y-61759787D01*
X189080659Y-61771523D01*
X189090777Y-61793160D01*
X189119141Y-61840562D01*
X189162771Y-61909093D01*
X189218682Y-61994115D01*
X189283894Y-62090993D01*
X189321681Y-62146250D01*
X189390557Y-62247148D01*
X189451760Y-62338199D01*
X189502322Y-62414870D01*
X189539272Y-62472628D01*
X189559642Y-62506943D01*
X189562703Y-62514154D01*
X189555764Y-62534648D01*
X189536849Y-62582413D01*
X189508813Y-62650732D01*
X189474509Y-62732889D01*
X189436791Y-62822170D01*
X189398513Y-62911858D01*
X189362530Y-62995238D01*
X189331694Y-63065594D01*
X189308861Y-63116210D01*
X189296883Y-63140371D01*
X189296176Y-63141322D01*
X189277369Y-63145936D01*
X189227282Y-63156228D01*
X189151107Y-63171187D01*
X189054035Y-63189801D01*
X188941257Y-63211059D01*
X188875458Y-63223318D01*
X188754950Y-63246262D01*
X188646103Y-63268095D01*
X188554424Y-63287622D01*
X188485419Y-63303648D01*
X188444596Y-63314979D01*
X188436389Y-63318574D01*
X188428352Y-63342906D01*
X188421867Y-63397859D01*
X188416930Y-63477008D01*
X188413536Y-63573926D01*
X188411682Y-63682187D01*
X188411362Y-63795365D01*
X188412573Y-63907035D01*
X188415310Y-64010768D01*
X188419569Y-64100141D01*
X188425345Y-64168726D01*
X188432633Y-64210097D01*
X188437005Y-64218710D01*
X188463136Y-64229033D01*
X188518507Y-64243792D01*
X188595793Y-64261252D01*
X188687670Y-64279680D01*
X188719742Y-64285641D01*
X188874376Y-64313966D01*
X188996525Y-64336776D01*
X189090227Y-64354980D01*
X189159516Y-64369483D01*
X189208429Y-64381192D01*
X189241003Y-64391015D01*
X189261272Y-64399856D01*
X189273274Y-64408624D01*
X189274953Y-64410357D01*
X189291716Y-64438271D01*
X189317286Y-64492595D01*
X189349112Y-64566677D01*
X189384640Y-64653865D01*
X189421317Y-64747508D01*
X189456589Y-64840952D01*
X189487904Y-64927547D01*
X189512707Y-65000640D01*
X189528446Y-65053578D01*
X189532568Y-65079711D01*
X189532224Y-65080626D01*
X189518259Y-65101986D01*
X189486578Y-65148984D01*
X189440509Y-65216727D01*
X189383382Y-65300323D01*
X189318527Y-65394882D01*
X189300057Y-65421754D01*
X189234201Y-65519175D01*
X189176250Y-65608063D01*
X189129362Y-65683312D01*
X189096693Y-65739820D01*
X189081400Y-65772481D01*
X189080659Y-65776493D01*
X189093508Y-65797584D01*
X189129012Y-65839364D01*
X189182607Y-65897345D01*
X189249729Y-65967035D01*
X189325813Y-66043945D01*
X189406296Y-66123583D01*
X189486613Y-66201461D01*
X189562201Y-66273086D01*
X189628495Y-66333970D01*
X189680931Y-66379621D01*
X189714945Y-66405550D01*
X189724355Y-66409783D01*
X189746257Y-66399812D01*
X189791100Y-66372920D01*
X189851579Y-66333636D01*
X189898111Y-66302017D01*
X189982425Y-66243998D01*
X190082274Y-66175684D01*
X190182427Y-66107479D01*
X190236273Y-66070975D01*
X190418529Y-65947700D01*
X190571519Y-66030420D01*
X190641218Y-66066659D01*
X190700486Y-66094826D01*
X190740589Y-66110891D01*
X190750797Y-66113126D01*
X190763071Y-66096622D01*
X190787287Y-66049982D01*
X190821637Y-65977509D01*
X190864312Y-65883506D01*
X190913506Y-65772274D01*
X190967410Y-65648115D01*
X191024216Y-65515332D01*
X191082118Y-65378227D01*
X191139307Y-65241102D01*
X191193976Y-65108258D01*
X191244316Y-64983998D01*
X191288520Y-64872625D01*
X191324781Y-64778439D01*
X191351291Y-64705744D01*
X191366242Y-64658841D01*
X191368646Y-64642733D01*
X191349589Y-64622186D01*
X191307864Y-64588833D01*
X191252194Y-64549602D01*
X191247522Y-64546499D01*
X191103636Y-64431323D01*
X190987617Y-64296953D01*
X190900470Y-64147684D01*
X190843201Y-63987813D01*
X190816814Y-63821637D01*
X190822315Y-63653452D01*
X190860710Y-63487555D01*
X190933005Y-63328242D01*
X190954274Y-63293387D01*
X191064904Y-63152637D01*
X191195598Y-63039614D01*
X191341836Y-62954903D01*
X191499092Y-62899094D01*
X191662843Y-62872774D01*
X191828567Y-62876530D01*
X191991738Y-62910950D01*
X192147835Y-62976623D01*
X192292333Y-63074135D01*
X192337031Y-63113713D01*
X192450788Y-63237603D01*
X192533682Y-63368024D01*
X192590544Y-63514215D01*
X192622213Y-63658988D01*
X192630031Y-63821760D01*
X192603962Y-63985340D01*
X192546655Y-64144198D01*
X192460756Y-64292806D01*
X192348914Y-64425635D01*
X192213777Y-64537156D01*
X192196017Y-64548911D01*
X192139750Y-64587408D01*
X192096977Y-64620763D01*
X192076528Y-64642060D01*
X192076231Y-64642733D01*
X192080621Y-64665771D01*
X192098024Y-64718057D01*
X192126632Y-64795290D01*
X192164635Y-64893168D01*
X192210226Y-65007391D01*
X192261597Y-65133658D01*
X192316938Y-65267667D01*
X192374442Y-65405118D01*
X192432299Y-65541708D01*
X192488702Y-65673137D01*
X192541842Y-65795105D01*
X192589910Y-65903309D01*
X192631099Y-65993449D01*
X192663599Y-66061223D01*
X192685603Y-66102330D01*
X192694464Y-66113126D01*
X192721540Y-66104719D01*
X192772203Y-66082172D01*
X192837717Y-66049513D01*
X192873741Y-66030420D01*
X193026732Y-65947700D01*
X193208988Y-66070975D01*
X193302025Y-66134128D01*
X193403885Y-66203627D01*
X193499338Y-66269065D01*
X193547150Y-66302017D01*
X193614395Y-66347173D01*
X193671336Y-66382957D01*
X193710546Y-66404838D01*
X193723281Y-66409463D01*
X193741817Y-66396985D01*
X193782841Y-66362152D01*
X193842375Y-66308578D01*
X193916442Y-66239883D01*
X194001065Y-66159681D01*
X194054585Y-66108186D01*
X194148219Y-66016186D01*
X194229141Y-65933899D01*
X194294077Y-65864845D01*
X194339758Y-65812544D01*
X194362911Y-65780516D01*
X194365132Y-65774016D01*
X194354824Y-65749294D01*
X194326339Y-65699305D01*
X194282837Y-65629112D01*
X194227477Y-65543775D01*
X194163420Y-65448356D01*
X194145203Y-65421754D01*
X194078827Y-65325067D01*
X194019278Y-65238017D01*
X193969884Y-65165495D01*
X193933975Y-65112393D01*
X193914881Y-65083603D01*
X193913036Y-65080626D01*
X193915795Y-65057682D01*
X193930438Y-65007236D01*
X193954413Y-64935941D01*
X193985166Y-64850447D01*
X194020144Y-64757407D01*
X194056793Y-64663474D01*
X194092561Y-64575299D01*
X194124894Y-64499534D01*
X194151238Y-64442831D01*
X194169042Y-64411843D01*
X194170307Y-64410357D01*
X194181194Y-64401501D01*
X194199582Y-64392743D01*
X194229506Y-64383177D01*
X194275003Y-64371896D01*
X194340109Y-64357993D01*
X194428861Y-64340563D01*
X194545293Y-64318698D01*
X194693442Y-64291491D01*
X194725518Y-64285641D01*
X194820586Y-64267274D01*
X194903465Y-64249305D01*
X194966830Y-64233469D01*
X195003358Y-64221500D01*
X195008256Y-64218710D01*
X195016327Y-64193972D01*
X195022887Y-64138690D01*
X195027933Y-64059289D01*
X195031459Y-63962196D01*
X195033461Y-63853838D01*
X195033936Y-63740640D01*
X195032877Y-63629028D01*
X195030282Y-63525429D01*
X195026146Y-63436268D01*
X195020463Y-63367972D01*
X195013231Y-63326966D01*
X195008871Y-63318574D01*
X194984598Y-63310108D01*
X194929326Y-63296335D01*
X194848562Y-63278450D01*
X194747812Y-63257648D01*
X194632583Y-63235123D01*
X194569802Y-63223318D01*
X194450687Y-63201051D01*
X194344465Y-63180879D01*
X194256327Y-63163815D01*
X194191466Y-63150869D01*
X194155074Y-63143055D01*
X194149084Y-63141322D01*
X194138961Y-63121790D01*
X194117562Y-63074743D01*
X194087739Y-63006903D01*
X194052345Y-62924991D01*
X194014232Y-62835728D01*
X193976253Y-62745835D01*
X193941260Y-62662035D01*
X193912106Y-62591047D01*
X193891643Y-62539594D01*
X193882723Y-62514397D01*
X193882557Y-62513296D01*
X193892669Y-62493419D01*
X193921017Y-62447677D01*
X193964623Y-62380617D01*
X194020506Y-62296784D01*
X194085687Y-62200726D01*
X194123579Y-62145550D01*
X194192625Y-62044381D01*
X194253950Y-61952530D01*
X194304563Y-61874644D01*
X194341471Y-61815369D01*
X194361682Y-61779351D01*
X194364601Y-61771277D01*
X194352053Y-61752484D01*
X194317363Y-61712357D01*
X194264963Y-61655393D01*
X194199284Y-61586085D01*
X194124756Y-61508931D01*
X194045813Y-61428425D01*
X193966883Y-61349063D01*
X193892400Y-61275340D01*
X193826794Y-61211752D01*
X193774496Y-61162794D01*
X193739939Y-61132961D01*
X193728378Y-61125842D01*
X193709554Y-61135853D01*
X193664531Y-61163978D01*
X193597687Y-61207354D01*
X193513399Y-61263118D01*
X193416044Y-61328406D01*
X193342607Y-61378146D01*
X192971567Y-61630451D01*
X192352995Y-61375455D01*
X192269175Y-60930831D01*
X192185354Y-60486207D01*
X191259906Y-60486207D01*
X191176086Y-60930831D01*
G37*
X191176086Y-60930831D02*
X191092265Y-61375455D01*
X190782980Y-61502953D01*
X190473694Y-61630451D01*
X190102654Y-61378146D01*
X189998743Y-61307896D01*
X189904813Y-61245172D01*
X189825248Y-61192838D01*
X189764430Y-61153757D01*
X189726743Y-61130793D01*
X189716479Y-61125842D01*
X189697990Y-61138576D01*
X189658480Y-61173782D01*
X189602378Y-61226962D01*
X189534113Y-61293618D01*
X189458114Y-61369254D01*
X189378808Y-61449372D01*
X189300625Y-61529474D01*
X189227993Y-61605064D01*
X189165341Y-61671645D01*
X189117097Y-61724718D01*
X189087690Y-61759787D01*
X189080659Y-61771523D01*
X189090777Y-61793160D01*
X189119141Y-61840562D01*
X189162771Y-61909093D01*
X189218682Y-61994115D01*
X189283894Y-62090993D01*
X189321681Y-62146250D01*
X189390557Y-62247148D01*
X189451760Y-62338199D01*
X189502322Y-62414870D01*
X189539272Y-62472628D01*
X189559642Y-62506943D01*
X189562703Y-62514154D01*
X189555764Y-62534648D01*
X189536849Y-62582413D01*
X189508813Y-62650732D01*
X189474509Y-62732889D01*
X189436791Y-62822170D01*
X189398513Y-62911858D01*
X189362530Y-62995238D01*
X189331694Y-63065594D01*
X189308861Y-63116210D01*
X189296883Y-63140371D01*
X189296176Y-63141322D01*
X189277369Y-63145936D01*
X189227282Y-63156228D01*
X189151107Y-63171187D01*
X189054035Y-63189801D01*
X188941257Y-63211059D01*
X188875458Y-63223318D01*
X188754950Y-63246262D01*
X188646103Y-63268095D01*
X188554424Y-63287622D01*
X188485419Y-63303648D01*
X188444596Y-63314979D01*
X188436389Y-63318574D01*
X188428352Y-63342906D01*
X188421867Y-63397859D01*
X188416930Y-63477008D01*
X188413536Y-63573926D01*
X188411682Y-63682187D01*
X188411362Y-63795365D01*
X188412573Y-63907035D01*
X188415310Y-64010768D01*
X188419569Y-64100141D01*
X188425345Y-64168726D01*
X188432633Y-64210097D01*
X188437005Y-64218710D01*
X188463136Y-64229033D01*
X188518507Y-64243792D01*
X188595793Y-64261252D01*
X188687670Y-64279680D01*
X188719742Y-64285641D01*
X188874376Y-64313966D01*
X188996525Y-64336776D01*
X189090227Y-64354980D01*
X189159516Y-64369483D01*
X189208429Y-64381192D01*
X189241003Y-64391015D01*
X189261272Y-64399856D01*
X189273274Y-64408624D01*
X189274953Y-64410357D01*
X189291716Y-64438271D01*
X189317286Y-64492595D01*
X189349112Y-64566677D01*
X189384640Y-64653865D01*
X189421317Y-64747508D01*
X189456589Y-64840952D01*
X189487904Y-64927547D01*
X189512707Y-65000640D01*
X189528446Y-65053578D01*
X189532568Y-65079711D01*
X189532224Y-65080626D01*
X189518259Y-65101986D01*
X189486578Y-65148984D01*
X189440509Y-65216727D01*
X189383382Y-65300323D01*
X189318527Y-65394882D01*
X189300057Y-65421754D01*
X189234201Y-65519175D01*
X189176250Y-65608063D01*
X189129362Y-65683312D01*
X189096693Y-65739820D01*
X189081400Y-65772481D01*
X189080659Y-65776493D01*
X189093508Y-65797584D01*
X189129012Y-65839364D01*
X189182607Y-65897345D01*
X189249729Y-65967035D01*
X189325813Y-66043945D01*
X189406296Y-66123583D01*
X189486613Y-66201461D01*
X189562201Y-66273086D01*
X189628495Y-66333970D01*
X189680931Y-66379621D01*
X189714945Y-66405550D01*
X189724355Y-66409783D01*
X189746257Y-66399812D01*
X189791100Y-66372920D01*
X189851579Y-66333636D01*
X189898111Y-66302017D01*
X189982425Y-66243998D01*
X190082274Y-66175684D01*
X190182427Y-66107479D01*
X190236273Y-66070975D01*
X190418529Y-65947700D01*
X190571519Y-66030420D01*
X190641218Y-66066659D01*
X190700486Y-66094826D01*
X190740589Y-66110891D01*
X190750797Y-66113126D01*
X190763071Y-66096622D01*
X190787287Y-66049982D01*
X190821637Y-65977509D01*
X190864312Y-65883506D01*
X190913506Y-65772274D01*
X190967410Y-65648115D01*
X191024216Y-65515332D01*
X191082118Y-65378227D01*
X191139307Y-65241102D01*
X191193976Y-65108258D01*
X191244316Y-64983998D01*
X191288520Y-64872625D01*
X191324781Y-64778439D01*
X191351291Y-64705744D01*
X191366242Y-64658841D01*
X191368646Y-64642733D01*
X191349589Y-64622186D01*
X191307864Y-64588833D01*
X191252194Y-64549602D01*
X191247522Y-64546499D01*
X191103636Y-64431323D01*
X190987617Y-64296953D01*
X190900470Y-64147684D01*
X190843201Y-63987813D01*
X190816814Y-63821637D01*
X190822315Y-63653452D01*
X190860710Y-63487555D01*
X190933005Y-63328242D01*
X190954274Y-63293387D01*
X191064904Y-63152637D01*
X191195598Y-63039614D01*
X191341836Y-62954903D01*
X191499092Y-62899094D01*
X191662843Y-62872774D01*
X191828567Y-62876530D01*
X191991738Y-62910950D01*
X192147835Y-62976623D01*
X192292333Y-63074135D01*
X192337031Y-63113713D01*
X192450788Y-63237603D01*
X192533682Y-63368024D01*
X192590544Y-63514215D01*
X192622213Y-63658988D01*
X192630031Y-63821760D01*
X192603962Y-63985340D01*
X192546655Y-64144198D01*
X192460756Y-64292806D01*
X192348914Y-64425635D01*
X192213777Y-64537156D01*
X192196017Y-64548911D01*
X192139750Y-64587408D01*
X192096977Y-64620763D01*
X192076528Y-64642060D01*
X192076231Y-64642733D01*
X192080621Y-64665771D01*
X192098024Y-64718057D01*
X192126632Y-64795290D01*
X192164635Y-64893168D01*
X192210226Y-65007391D01*
X192261597Y-65133658D01*
X192316938Y-65267667D01*
X192374442Y-65405118D01*
X192432299Y-65541708D01*
X192488702Y-65673137D01*
X192541842Y-65795105D01*
X192589910Y-65903309D01*
X192631099Y-65993449D01*
X192663599Y-66061223D01*
X192685603Y-66102330D01*
X192694464Y-66113126D01*
X192721540Y-66104719D01*
X192772203Y-66082172D01*
X192837717Y-66049513D01*
X192873741Y-66030420D01*
X193026732Y-65947700D01*
X193208988Y-66070975D01*
X193302025Y-66134128D01*
X193403885Y-66203627D01*
X193499338Y-66269065D01*
X193547150Y-66302017D01*
X193614395Y-66347173D01*
X193671336Y-66382957D01*
X193710546Y-66404838D01*
X193723281Y-66409463D01*
X193741817Y-66396985D01*
X193782841Y-66362152D01*
X193842375Y-66308578D01*
X193916442Y-66239883D01*
X194001065Y-66159681D01*
X194054585Y-66108186D01*
X194148219Y-66016186D01*
X194229141Y-65933899D01*
X194294077Y-65864845D01*
X194339758Y-65812544D01*
X194362911Y-65780516D01*
X194365132Y-65774016D01*
X194354824Y-65749294D01*
X194326339Y-65699305D01*
X194282837Y-65629112D01*
X194227477Y-65543775D01*
X194163420Y-65448356D01*
X194145203Y-65421754D01*
X194078827Y-65325067D01*
X194019278Y-65238017D01*
X193969884Y-65165495D01*
X193933975Y-65112393D01*
X193914881Y-65083603D01*
X193913036Y-65080626D01*
X193915795Y-65057682D01*
X193930438Y-65007236D01*
X193954413Y-64935941D01*
X193985166Y-64850447D01*
X194020144Y-64757407D01*
X194056793Y-64663474D01*
X194092561Y-64575299D01*
X194124894Y-64499534D01*
X194151238Y-64442831D01*
X194169042Y-64411843D01*
X194170307Y-64410357D01*
X194181194Y-64401501D01*
X194199582Y-64392743D01*
X194229506Y-64383177D01*
X194275003Y-64371896D01*
X194340109Y-64357993D01*
X194428861Y-64340563D01*
X194545293Y-64318698D01*
X194693442Y-64291491D01*
X194725518Y-64285641D01*
X194820586Y-64267274D01*
X194903465Y-64249305D01*
X194966830Y-64233469D01*
X195003358Y-64221500D01*
X195008256Y-64218710D01*
X195016327Y-64193972D01*
X195022887Y-64138690D01*
X195027933Y-64059289D01*
X195031459Y-63962196D01*
X195033461Y-63853838D01*
X195033936Y-63740640D01*
X195032877Y-63629028D01*
X195030282Y-63525429D01*
X195026146Y-63436268D01*
X195020463Y-63367972D01*
X195013231Y-63326966D01*
X195008871Y-63318574D01*
X194984598Y-63310108D01*
X194929326Y-63296335D01*
X194848562Y-63278450D01*
X194747812Y-63257648D01*
X194632583Y-63235123D01*
X194569802Y-63223318D01*
X194450687Y-63201051D01*
X194344465Y-63180879D01*
X194256327Y-63163815D01*
X194191466Y-63150869D01*
X194155074Y-63143055D01*
X194149084Y-63141322D01*
X194138961Y-63121790D01*
X194117562Y-63074743D01*
X194087739Y-63006903D01*
X194052345Y-62924991D01*
X194014232Y-62835728D01*
X193976253Y-62745835D01*
X193941260Y-62662035D01*
X193912106Y-62591047D01*
X193891643Y-62539594D01*
X193882723Y-62514397D01*
X193882557Y-62513296D01*
X193892669Y-62493419D01*
X193921017Y-62447677D01*
X193964623Y-62380617D01*
X194020506Y-62296784D01*
X194085687Y-62200726D01*
X194123579Y-62145550D01*
X194192625Y-62044381D01*
X194253950Y-61952530D01*
X194304563Y-61874644D01*
X194341471Y-61815369D01*
X194361682Y-61779351D01*
X194364601Y-61771277D01*
X194352053Y-61752484D01*
X194317363Y-61712357D01*
X194264963Y-61655393D01*
X194199284Y-61586085D01*
X194124756Y-61508931D01*
X194045813Y-61428425D01*
X193966883Y-61349063D01*
X193892400Y-61275340D01*
X193826794Y-61211752D01*
X193774496Y-61162794D01*
X193739939Y-61132961D01*
X193728378Y-61125842D01*
X193709554Y-61135853D01*
X193664531Y-61163978D01*
X193597687Y-61207354D01*
X193513399Y-61263118D01*
X193416044Y-61328406D01*
X193342607Y-61378146D01*
X192971567Y-61630451D01*
X192352995Y-61375455D01*
X192269175Y-60930831D01*
X192185354Y-60486207D01*
X191259906Y-60486207D01*
X191176086Y-60930831D01*
D14*
X144353000Y-71571900D02*
G75*
G03X143653000Y-72271900I0J-700000D01*
G01*
X145653000Y-72271900D02*
G75*
G03X144953000Y-71571900I-700000J0D01*
G01*
X144953000Y-75671900D02*
G75*
G03X145653000Y-74971900I0J700000D01*
G01*
X143653000Y-74971900D02*
G75*
G03X144353000Y-75671900I700000J0D01*
G01*
X143653000Y-72221900D02*
X143653000Y-75021900D01*
X144353000Y-75671900D02*
X144953000Y-75671900D01*
X145653000Y-75021900D02*
X145653000Y-72221900D01*
X144953000Y-71571900D02*
X144353000Y-71571900D01*
D12*
X142305380Y-113788566D02*
X143019666Y-113788566D01*
X143162523Y-113740947D01*
X143257761Y-113645709D01*
X143305380Y-113502852D01*
X143305380Y-113407614D01*
X143305380Y-114264757D02*
X142305380Y-114264757D01*
X142305380Y-114645709D01*
X142353000Y-114740947D01*
X142400619Y-114788566D01*
X142495857Y-114836185D01*
X142638714Y-114836185D01*
X142733952Y-114788566D01*
X142781571Y-114740947D01*
X142829190Y-114645709D01*
X142829190Y-114264757D01*
X143305380Y-115788566D02*
X143305380Y-115217138D01*
X143305380Y-115502852D02*
X142305380Y-115502852D01*
X142448238Y-115407614D01*
X142543476Y-115312376D01*
X142591095Y-115217138D01*
X144105380Y-116888566D02*
X144105380Y-117507614D01*
X144486333Y-117174280D01*
X144486333Y-117317138D01*
X144533952Y-117412376D01*
X144581571Y-117459995D01*
X144676809Y-117507614D01*
X144914904Y-117507614D01*
X145010142Y-117459995D01*
X145057761Y-117412376D01*
X145105380Y-117317138D01*
X145105380Y-117031423D01*
X145057761Y-116936185D01*
X145010142Y-116888566D01*
X145105380Y-112307614D02*
X145105380Y-111736185D01*
X145105380Y-112021900D02*
X144105380Y-112021900D01*
X144248238Y-111926661D01*
X144343476Y-111831423D01*
X144391095Y-111736185D01*
X142305380Y-72788566D02*
X143019666Y-72788566D01*
X143162523Y-72740947D01*
X143257761Y-72645709D01*
X143305380Y-72502852D01*
X143305380Y-72407614D01*
X143305380Y-73264757D02*
X142305380Y-73264757D01*
X142305380Y-73645709D01*
X142353000Y-73740947D01*
X142400619Y-73788566D01*
X142495857Y-73836185D01*
X142638714Y-73836185D01*
X142733952Y-73788566D01*
X142781571Y-73740947D01*
X142829190Y-73645709D01*
X142829190Y-73264757D01*
X143305380Y-74788566D02*
X143305380Y-74217138D01*
X143305380Y-74502852D02*
X142305380Y-74502852D01*
X142448238Y-74407614D01*
X142543476Y-74312376D01*
X142591095Y-74217138D01*
X145105380Y-71307614D02*
X145105380Y-70736185D01*
X145105380Y-71021900D02*
X144105380Y-71021900D01*
X144248238Y-70926661D01*
X144343476Y-70831423D01*
X144391095Y-70736185D01*
X144105380Y-75888566D02*
X144105380Y-76507614D01*
X144486333Y-76174280D01*
X144486333Y-76317138D01*
X144533952Y-76412376D01*
X144581571Y-76459995D01*
X144676809Y-76507614D01*
X144914904Y-76507614D01*
X145010142Y-76459995D01*
X145057761Y-76412376D01*
X145105380Y-76317138D01*
X145105380Y-76031423D01*
X145057761Y-75936185D01*
X145010142Y-75888566D01*
M02*
