G04 #@! TF.GenerationSoftware,KiCad,Pcbnew,5.1.5+dfsg1-2build2*
G04 #@! TF.CreationDate,2021-11-10T16:28:47-05:00*
G04 #@! TF.ProjectId,,58585858-5858-4585-9858-585858585858,rev?*
G04 #@! TF.SameCoordinates,Original*
G04 #@! TF.FileFunction,Legend,Bot*
G04 #@! TF.FilePolarity,Positive*
%FSLAX46Y46*%
G04 Gerber Fmt 4.6, Leading zero omitted, Abs format (unit mm)*
G04 Created by KiCad (PCBNEW 5.1.5+dfsg1-2build2) date 2021-11-10 16:28:47*
%MOMM*%
%LPD*%
G04 APERTURE LIST*
%ADD10C,1.500000*%
%ADD11C,0.150000*%
%ADD12C,0.500000*%
%ADD13C,0.010000*%
%ADD14C,0.120000*%
G04 APERTURE END LIST*
D10*
X101778600Y-150414300D02*
X190278600Y-150414300D01*
X101778600Y-110914300D02*
X190278600Y-110914300D01*
D11*
X183219338Y-148272080D02*
X183219338Y-147272080D01*
X182886004Y-147986366D01*
X182552671Y-147272080D01*
X182552671Y-148272080D01*
X181886004Y-147272080D02*
X181695528Y-147272080D01*
X181600290Y-147319700D01*
X181505052Y-147414938D01*
X181457433Y-147605414D01*
X181457433Y-147938747D01*
X181505052Y-148129223D01*
X181600290Y-148224461D01*
X181695528Y-148272080D01*
X181886004Y-148272080D01*
X181981242Y-148224461D01*
X182076480Y-148129223D01*
X182124100Y-147938747D01*
X182124100Y-147605414D01*
X182076480Y-147414938D01*
X181981242Y-147319700D01*
X181886004Y-147272080D01*
X181028861Y-148272080D02*
X181028861Y-147272080D01*
X180790766Y-147272080D01*
X180647909Y-147319700D01*
X180552671Y-147414938D01*
X180505052Y-147510176D01*
X180457433Y-147700652D01*
X180457433Y-147843509D01*
X180505052Y-148033985D01*
X180552671Y-148129223D01*
X180647909Y-148224461D01*
X180790766Y-148272080D01*
X181028861Y-148272080D01*
X180028861Y-147748271D02*
X179695528Y-147748271D01*
X179552671Y-148272080D02*
X180028861Y-148272080D01*
X180028861Y-147272080D01*
X179552671Y-147272080D01*
X178647909Y-148272080D02*
X179124100Y-148272080D01*
X179124100Y-147272080D01*
X177219338Y-147748271D02*
X177076480Y-147795890D01*
X177028861Y-147843509D01*
X176981242Y-147938747D01*
X176981242Y-148081604D01*
X177028861Y-148176842D01*
X177076480Y-148224461D01*
X177171719Y-148272080D01*
X177552671Y-148272080D01*
X177552671Y-147272080D01*
X177219338Y-147272080D01*
X177124100Y-147319700D01*
X177076480Y-147367319D01*
X177028861Y-147462557D01*
X177028861Y-147557795D01*
X177076480Y-147653033D01*
X177124100Y-147700652D01*
X177219338Y-147748271D01*
X177552671Y-147748271D01*
D12*
X150650885Y-125183385D02*
X150222314Y-125326242D01*
X149508028Y-125326242D01*
X149222314Y-125183385D01*
X149079457Y-125040528D01*
X148936600Y-124754814D01*
X148936600Y-124469100D01*
X149079457Y-124183385D01*
X149222314Y-124040528D01*
X149508028Y-123897671D01*
X150079457Y-123754814D01*
X150365171Y-123611957D01*
X150508028Y-123469100D01*
X150650885Y-123183385D01*
X150650885Y-122897671D01*
X150508028Y-122611957D01*
X150365171Y-122469100D01*
X150079457Y-122326242D01*
X149365171Y-122326242D01*
X148936600Y-122469100D01*
X147650885Y-125326242D02*
X147650885Y-122326242D01*
X146222314Y-125326242D02*
X146222314Y-122326242D01*
X144508028Y-125326242D01*
X144508028Y-122326242D01*
X143222314Y-125183385D02*
X142793742Y-125326242D01*
X142079457Y-125326242D01*
X141793742Y-125183385D01*
X141650885Y-125040528D01*
X141508028Y-124754814D01*
X141508028Y-124469100D01*
X141650885Y-124183385D01*
X141793742Y-124040528D01*
X142079457Y-123897671D01*
X142650885Y-123754814D01*
X142936600Y-123611957D01*
X143079457Y-123469100D01*
X143222314Y-123183385D01*
X143222314Y-122897671D01*
X143079457Y-122611957D01*
X142936600Y-122469100D01*
X142650885Y-122326242D01*
X141936600Y-122326242D01*
X141508028Y-122469100D01*
X139650885Y-122326242D02*
X139079457Y-122326242D01*
X138793742Y-122469100D01*
X138508028Y-122754814D01*
X138365171Y-123326242D01*
X138365171Y-124326242D01*
X138508028Y-124897671D01*
X138793742Y-125183385D01*
X139079457Y-125326242D01*
X139650885Y-125326242D01*
X139936600Y-125183385D01*
X140222314Y-124897671D01*
X140365171Y-124326242D01*
X140365171Y-123326242D01*
X140222314Y-122754814D01*
X139936600Y-122469100D01*
X139650885Y-122326242D01*
X137079457Y-125326242D02*
X137079457Y-122326242D01*
X135365171Y-125326242D01*
X135365171Y-122326242D01*
X134365171Y-122326242D02*
X132650885Y-122326242D01*
X133508028Y-125326242D02*
X133508028Y-122326242D01*
X131650885Y-123754814D02*
X130650885Y-123754814D01*
X130222314Y-125326242D02*
X131650885Y-125326242D01*
X131650885Y-122326242D01*
X130222314Y-122326242D01*
D10*
X190278600Y-110914300D02*
X190278600Y-150414300D01*
X101778600Y-110914300D02*
X101778600Y-150414300D01*
D11*
X183219338Y-107272080D02*
X183219338Y-106272080D01*
X182886004Y-106986366D01*
X182552671Y-106272080D01*
X182552671Y-107272080D01*
X181886004Y-106272080D02*
X181695528Y-106272080D01*
X181600290Y-106319700D01*
X181505052Y-106414938D01*
X181457433Y-106605414D01*
X181457433Y-106938747D01*
X181505052Y-107129223D01*
X181600290Y-107224461D01*
X181695528Y-107272080D01*
X181886004Y-107272080D01*
X181981242Y-107224461D01*
X182076480Y-107129223D01*
X182124100Y-106938747D01*
X182124100Y-106605414D01*
X182076480Y-106414938D01*
X181981242Y-106319700D01*
X181886004Y-106272080D01*
X181028861Y-107272080D02*
X181028861Y-106272080D01*
X180790766Y-106272080D01*
X180647909Y-106319700D01*
X180552671Y-106414938D01*
X180505052Y-106510176D01*
X180457433Y-106700652D01*
X180457433Y-106843509D01*
X180505052Y-107033985D01*
X180552671Y-107129223D01*
X180647909Y-107224461D01*
X180790766Y-107272080D01*
X181028861Y-107272080D01*
X180028861Y-106748271D02*
X179695528Y-106748271D01*
X179552671Y-107272080D02*
X180028861Y-107272080D01*
X180028861Y-106272080D01*
X179552671Y-106272080D01*
X178647909Y-107272080D02*
X179124100Y-107272080D01*
X179124100Y-106272080D01*
X177219338Y-106748271D02*
X177076480Y-106795890D01*
X177028861Y-106843509D01*
X176981242Y-106938747D01*
X176981242Y-107081604D01*
X177028861Y-107176842D01*
X177076480Y-107224461D01*
X177171719Y-107272080D01*
X177552671Y-107272080D01*
X177552671Y-106272080D01*
X177219338Y-106272080D01*
X177124100Y-106319700D01*
X177076480Y-106367319D01*
X177028861Y-106462557D01*
X177028861Y-106557795D01*
X177076480Y-106653033D01*
X177124100Y-106700652D01*
X177219338Y-106748271D01*
X177552671Y-106748271D01*
D12*
X150650885Y-84183385D02*
X150222314Y-84326242D01*
X149508028Y-84326242D01*
X149222314Y-84183385D01*
X149079457Y-84040528D01*
X148936600Y-83754814D01*
X148936600Y-83469100D01*
X149079457Y-83183385D01*
X149222314Y-83040528D01*
X149508028Y-82897671D01*
X150079457Y-82754814D01*
X150365171Y-82611957D01*
X150508028Y-82469100D01*
X150650885Y-82183385D01*
X150650885Y-81897671D01*
X150508028Y-81611957D01*
X150365171Y-81469100D01*
X150079457Y-81326242D01*
X149365171Y-81326242D01*
X148936600Y-81469100D01*
X147650885Y-84326242D02*
X147650885Y-81326242D01*
X146222314Y-84326242D02*
X146222314Y-81326242D01*
X144508028Y-84326242D01*
X144508028Y-81326242D01*
X143222314Y-84183385D02*
X142793742Y-84326242D01*
X142079457Y-84326242D01*
X141793742Y-84183385D01*
X141650885Y-84040528D01*
X141508028Y-83754814D01*
X141508028Y-83469100D01*
X141650885Y-83183385D01*
X141793742Y-83040528D01*
X142079457Y-82897671D01*
X142650885Y-82754814D01*
X142936600Y-82611957D01*
X143079457Y-82469100D01*
X143222314Y-82183385D01*
X143222314Y-81897671D01*
X143079457Y-81611957D01*
X142936600Y-81469100D01*
X142650885Y-81326242D01*
X141936600Y-81326242D01*
X141508028Y-81469100D01*
X139650885Y-81326242D02*
X139079457Y-81326242D01*
X138793742Y-81469100D01*
X138508028Y-81754814D01*
X138365171Y-82326242D01*
X138365171Y-83326242D01*
X138508028Y-83897671D01*
X138793742Y-84183385D01*
X139079457Y-84326242D01*
X139650885Y-84326242D01*
X139936600Y-84183385D01*
X140222314Y-83897671D01*
X140365171Y-83326242D01*
X140365171Y-82326242D01*
X140222314Y-81754814D01*
X139936600Y-81469100D01*
X139650885Y-81326242D01*
X137079457Y-84326242D02*
X137079457Y-81326242D01*
X135365171Y-84326242D01*
X135365171Y-81326242D01*
X134365171Y-81326242D02*
X132650885Y-81326242D01*
X133508028Y-84326242D02*
X133508028Y-81326242D01*
X131650885Y-82754814D02*
X130650885Y-82754814D01*
X130222314Y-84326242D02*
X131650885Y-84326242D01*
X131650885Y-81326242D01*
X130222314Y-81326242D01*
D10*
X101778600Y-69914300D02*
X190278600Y-69914300D01*
X101778600Y-109414300D02*
X190278600Y-109414300D01*
X101778600Y-69914300D02*
X101778600Y-109414300D01*
X190278600Y-69914300D02*
X190278600Y-109414300D01*
D13*
G36*
X182641686Y-116053231D02*
G01*
X182557865Y-116497855D01*
X182248580Y-116625353D01*
X181939294Y-116752851D01*
X181568254Y-116500546D01*
X181464343Y-116430296D01*
X181370413Y-116367572D01*
X181290848Y-116315238D01*
X181230030Y-116276157D01*
X181192343Y-116253193D01*
X181182079Y-116248242D01*
X181163590Y-116260976D01*
X181124080Y-116296182D01*
X181067978Y-116349362D01*
X180999713Y-116416018D01*
X180923714Y-116491654D01*
X180844408Y-116571772D01*
X180766225Y-116651874D01*
X180693593Y-116727464D01*
X180630941Y-116794045D01*
X180582697Y-116847118D01*
X180553290Y-116882187D01*
X180546259Y-116893923D01*
X180556377Y-116915560D01*
X180584741Y-116962962D01*
X180628371Y-117031493D01*
X180684282Y-117116515D01*
X180749494Y-117213393D01*
X180787281Y-117268650D01*
X180856157Y-117369548D01*
X180917360Y-117460599D01*
X180967922Y-117537270D01*
X181004872Y-117595028D01*
X181025242Y-117629343D01*
X181028303Y-117636554D01*
X181021364Y-117657048D01*
X181002449Y-117704813D01*
X180974413Y-117773132D01*
X180940109Y-117855289D01*
X180902391Y-117944570D01*
X180864113Y-118034258D01*
X180828130Y-118117638D01*
X180797294Y-118187994D01*
X180774461Y-118238610D01*
X180762483Y-118262771D01*
X180761776Y-118263722D01*
X180742969Y-118268336D01*
X180692882Y-118278628D01*
X180616707Y-118293587D01*
X180519635Y-118312201D01*
X180406857Y-118333459D01*
X180341058Y-118345718D01*
X180220550Y-118368662D01*
X180111703Y-118390495D01*
X180020024Y-118410022D01*
X179951019Y-118426048D01*
X179910196Y-118437379D01*
X179901989Y-118440974D01*
X179893952Y-118465306D01*
X179887467Y-118520259D01*
X179882530Y-118599408D01*
X179879136Y-118696326D01*
X179877282Y-118804587D01*
X179876962Y-118917765D01*
X179878173Y-119029435D01*
X179880910Y-119133168D01*
X179885169Y-119222541D01*
X179890945Y-119291126D01*
X179898233Y-119332497D01*
X179902605Y-119341110D01*
X179928736Y-119351433D01*
X179984107Y-119366192D01*
X180061393Y-119383652D01*
X180153270Y-119402080D01*
X180185342Y-119408041D01*
X180339976Y-119436366D01*
X180462125Y-119459176D01*
X180555827Y-119477380D01*
X180625116Y-119491883D01*
X180674029Y-119503592D01*
X180706603Y-119513415D01*
X180726872Y-119522256D01*
X180738874Y-119531024D01*
X180740553Y-119532757D01*
X180757316Y-119560671D01*
X180782886Y-119614995D01*
X180814712Y-119689077D01*
X180850240Y-119776265D01*
X180886917Y-119869908D01*
X180922189Y-119963352D01*
X180953504Y-120049947D01*
X180978307Y-120123040D01*
X180994046Y-120175978D01*
X180998168Y-120202111D01*
X180997824Y-120203026D01*
X180983859Y-120224386D01*
X180952178Y-120271384D01*
X180906109Y-120339127D01*
X180848982Y-120422723D01*
X180784127Y-120517282D01*
X180765657Y-120544154D01*
X180699801Y-120641575D01*
X180641850Y-120730463D01*
X180594962Y-120805712D01*
X180562293Y-120862220D01*
X180547000Y-120894881D01*
X180546259Y-120898893D01*
X180559108Y-120919984D01*
X180594612Y-120961764D01*
X180648207Y-121019745D01*
X180715329Y-121089435D01*
X180791413Y-121166345D01*
X180871896Y-121245983D01*
X180952213Y-121323861D01*
X181027801Y-121395486D01*
X181094095Y-121456370D01*
X181146531Y-121502021D01*
X181180545Y-121527950D01*
X181189955Y-121532183D01*
X181211857Y-121522212D01*
X181256700Y-121495320D01*
X181317179Y-121456036D01*
X181363711Y-121424417D01*
X181448025Y-121366398D01*
X181547874Y-121298084D01*
X181648027Y-121229879D01*
X181701873Y-121193375D01*
X181884129Y-121070100D01*
X182037119Y-121152820D01*
X182106818Y-121189059D01*
X182166086Y-121217226D01*
X182206189Y-121233291D01*
X182216397Y-121235526D01*
X182228671Y-121219022D01*
X182252887Y-121172382D01*
X182287237Y-121099909D01*
X182329912Y-121005906D01*
X182379106Y-120894674D01*
X182433010Y-120770515D01*
X182489816Y-120637732D01*
X182547718Y-120500627D01*
X182604907Y-120363502D01*
X182659576Y-120230658D01*
X182709916Y-120106398D01*
X182754120Y-119995025D01*
X182790381Y-119900839D01*
X182816891Y-119828144D01*
X182831842Y-119781241D01*
X182834246Y-119765133D01*
X182815189Y-119744586D01*
X182773464Y-119711233D01*
X182717794Y-119672002D01*
X182713122Y-119668899D01*
X182569236Y-119553723D01*
X182453217Y-119419353D01*
X182366070Y-119270084D01*
X182308801Y-119110213D01*
X182282414Y-118944037D01*
X182287915Y-118775852D01*
X182326310Y-118609955D01*
X182398605Y-118450642D01*
X182419874Y-118415787D01*
X182530504Y-118275037D01*
X182661198Y-118162014D01*
X182807436Y-118077303D01*
X182964692Y-118021494D01*
X183128443Y-117995174D01*
X183294167Y-117998930D01*
X183457338Y-118033350D01*
X183613435Y-118099023D01*
X183757933Y-118196535D01*
X183802631Y-118236113D01*
X183916388Y-118360003D01*
X183999282Y-118490424D01*
X184056144Y-118636615D01*
X184087813Y-118781388D01*
X184095631Y-118944160D01*
X184069562Y-119107740D01*
X184012255Y-119266598D01*
X183926356Y-119415206D01*
X183814514Y-119548035D01*
X183679377Y-119659556D01*
X183661617Y-119671311D01*
X183605350Y-119709808D01*
X183562577Y-119743163D01*
X183542128Y-119764460D01*
X183541831Y-119765133D01*
X183546221Y-119788171D01*
X183563624Y-119840457D01*
X183592232Y-119917690D01*
X183630235Y-120015568D01*
X183675826Y-120129791D01*
X183727197Y-120256058D01*
X183782538Y-120390067D01*
X183840042Y-120527518D01*
X183897899Y-120664108D01*
X183954302Y-120795537D01*
X184007442Y-120917505D01*
X184055510Y-121025709D01*
X184096699Y-121115849D01*
X184129199Y-121183623D01*
X184151203Y-121224730D01*
X184160064Y-121235526D01*
X184187140Y-121227119D01*
X184237803Y-121204572D01*
X184303317Y-121171913D01*
X184339341Y-121152820D01*
X184492332Y-121070100D01*
X184674588Y-121193375D01*
X184767625Y-121256528D01*
X184869485Y-121326027D01*
X184964938Y-121391465D01*
X185012750Y-121424417D01*
X185079995Y-121469573D01*
X185136936Y-121505357D01*
X185176146Y-121527238D01*
X185188881Y-121531863D01*
X185207417Y-121519385D01*
X185248441Y-121484552D01*
X185307975Y-121430978D01*
X185382042Y-121362283D01*
X185466665Y-121282081D01*
X185520185Y-121230586D01*
X185613819Y-121138586D01*
X185694741Y-121056299D01*
X185759677Y-120987245D01*
X185805358Y-120934944D01*
X185828511Y-120902916D01*
X185830732Y-120896416D01*
X185820424Y-120871694D01*
X185791939Y-120821705D01*
X185748437Y-120751512D01*
X185693077Y-120666175D01*
X185629020Y-120570756D01*
X185610803Y-120544154D01*
X185544427Y-120447467D01*
X185484878Y-120360417D01*
X185435484Y-120287895D01*
X185399575Y-120234793D01*
X185380481Y-120206003D01*
X185378636Y-120203026D01*
X185381395Y-120180082D01*
X185396038Y-120129636D01*
X185420013Y-120058341D01*
X185450766Y-119972847D01*
X185485744Y-119879807D01*
X185522393Y-119785874D01*
X185558161Y-119697699D01*
X185590494Y-119621934D01*
X185616838Y-119565231D01*
X185634642Y-119534243D01*
X185635907Y-119532757D01*
X185646794Y-119523901D01*
X185665182Y-119515143D01*
X185695106Y-119505577D01*
X185740603Y-119494296D01*
X185805709Y-119480393D01*
X185894461Y-119462963D01*
X186010893Y-119441098D01*
X186159042Y-119413891D01*
X186191118Y-119408041D01*
X186286186Y-119389674D01*
X186369065Y-119371705D01*
X186432430Y-119355869D01*
X186468958Y-119343900D01*
X186473856Y-119341110D01*
X186481927Y-119316372D01*
X186488487Y-119261090D01*
X186493533Y-119181689D01*
X186497059Y-119084596D01*
X186499061Y-118976238D01*
X186499536Y-118863040D01*
X186498477Y-118751428D01*
X186495882Y-118647829D01*
X186491746Y-118558668D01*
X186486063Y-118490372D01*
X186478831Y-118449366D01*
X186474471Y-118440974D01*
X186450198Y-118432508D01*
X186394926Y-118418735D01*
X186314162Y-118400850D01*
X186213412Y-118380048D01*
X186098183Y-118357523D01*
X186035402Y-118345718D01*
X185916287Y-118323451D01*
X185810065Y-118303279D01*
X185721927Y-118286215D01*
X185657066Y-118273269D01*
X185620674Y-118265455D01*
X185614684Y-118263722D01*
X185604561Y-118244190D01*
X185583162Y-118197143D01*
X185553339Y-118129303D01*
X185517945Y-118047391D01*
X185479832Y-117958128D01*
X185441853Y-117868235D01*
X185406860Y-117784435D01*
X185377706Y-117713447D01*
X185357243Y-117661994D01*
X185348323Y-117636797D01*
X185348157Y-117635696D01*
X185358269Y-117615819D01*
X185386617Y-117570077D01*
X185430223Y-117503017D01*
X185486106Y-117419184D01*
X185551287Y-117323126D01*
X185589179Y-117267950D01*
X185658225Y-117166781D01*
X185719550Y-117074930D01*
X185770163Y-116997044D01*
X185807071Y-116937769D01*
X185827282Y-116901751D01*
X185830201Y-116893677D01*
X185817653Y-116874884D01*
X185782963Y-116834757D01*
X185730563Y-116777793D01*
X185664884Y-116708485D01*
X185590356Y-116631331D01*
X185511413Y-116550825D01*
X185432483Y-116471463D01*
X185358000Y-116397740D01*
X185292394Y-116334152D01*
X185240096Y-116285194D01*
X185205539Y-116255361D01*
X185193978Y-116248242D01*
X185175154Y-116258253D01*
X185130131Y-116286378D01*
X185063287Y-116329754D01*
X184978999Y-116385518D01*
X184881644Y-116450806D01*
X184808207Y-116500546D01*
X184437167Y-116752851D01*
X183818595Y-116497855D01*
X183734775Y-116053231D01*
X183650954Y-115608607D01*
X182725506Y-115608607D01*
X182641686Y-116053231D01*
G37*
X182641686Y-116053231D02*
X182557865Y-116497855D01*
X182248580Y-116625353D01*
X181939294Y-116752851D01*
X181568254Y-116500546D01*
X181464343Y-116430296D01*
X181370413Y-116367572D01*
X181290848Y-116315238D01*
X181230030Y-116276157D01*
X181192343Y-116253193D01*
X181182079Y-116248242D01*
X181163590Y-116260976D01*
X181124080Y-116296182D01*
X181067978Y-116349362D01*
X180999713Y-116416018D01*
X180923714Y-116491654D01*
X180844408Y-116571772D01*
X180766225Y-116651874D01*
X180693593Y-116727464D01*
X180630941Y-116794045D01*
X180582697Y-116847118D01*
X180553290Y-116882187D01*
X180546259Y-116893923D01*
X180556377Y-116915560D01*
X180584741Y-116962962D01*
X180628371Y-117031493D01*
X180684282Y-117116515D01*
X180749494Y-117213393D01*
X180787281Y-117268650D01*
X180856157Y-117369548D01*
X180917360Y-117460599D01*
X180967922Y-117537270D01*
X181004872Y-117595028D01*
X181025242Y-117629343D01*
X181028303Y-117636554D01*
X181021364Y-117657048D01*
X181002449Y-117704813D01*
X180974413Y-117773132D01*
X180940109Y-117855289D01*
X180902391Y-117944570D01*
X180864113Y-118034258D01*
X180828130Y-118117638D01*
X180797294Y-118187994D01*
X180774461Y-118238610D01*
X180762483Y-118262771D01*
X180761776Y-118263722D01*
X180742969Y-118268336D01*
X180692882Y-118278628D01*
X180616707Y-118293587D01*
X180519635Y-118312201D01*
X180406857Y-118333459D01*
X180341058Y-118345718D01*
X180220550Y-118368662D01*
X180111703Y-118390495D01*
X180020024Y-118410022D01*
X179951019Y-118426048D01*
X179910196Y-118437379D01*
X179901989Y-118440974D01*
X179893952Y-118465306D01*
X179887467Y-118520259D01*
X179882530Y-118599408D01*
X179879136Y-118696326D01*
X179877282Y-118804587D01*
X179876962Y-118917765D01*
X179878173Y-119029435D01*
X179880910Y-119133168D01*
X179885169Y-119222541D01*
X179890945Y-119291126D01*
X179898233Y-119332497D01*
X179902605Y-119341110D01*
X179928736Y-119351433D01*
X179984107Y-119366192D01*
X180061393Y-119383652D01*
X180153270Y-119402080D01*
X180185342Y-119408041D01*
X180339976Y-119436366D01*
X180462125Y-119459176D01*
X180555827Y-119477380D01*
X180625116Y-119491883D01*
X180674029Y-119503592D01*
X180706603Y-119513415D01*
X180726872Y-119522256D01*
X180738874Y-119531024D01*
X180740553Y-119532757D01*
X180757316Y-119560671D01*
X180782886Y-119614995D01*
X180814712Y-119689077D01*
X180850240Y-119776265D01*
X180886917Y-119869908D01*
X180922189Y-119963352D01*
X180953504Y-120049947D01*
X180978307Y-120123040D01*
X180994046Y-120175978D01*
X180998168Y-120202111D01*
X180997824Y-120203026D01*
X180983859Y-120224386D01*
X180952178Y-120271384D01*
X180906109Y-120339127D01*
X180848982Y-120422723D01*
X180784127Y-120517282D01*
X180765657Y-120544154D01*
X180699801Y-120641575D01*
X180641850Y-120730463D01*
X180594962Y-120805712D01*
X180562293Y-120862220D01*
X180547000Y-120894881D01*
X180546259Y-120898893D01*
X180559108Y-120919984D01*
X180594612Y-120961764D01*
X180648207Y-121019745D01*
X180715329Y-121089435D01*
X180791413Y-121166345D01*
X180871896Y-121245983D01*
X180952213Y-121323861D01*
X181027801Y-121395486D01*
X181094095Y-121456370D01*
X181146531Y-121502021D01*
X181180545Y-121527950D01*
X181189955Y-121532183D01*
X181211857Y-121522212D01*
X181256700Y-121495320D01*
X181317179Y-121456036D01*
X181363711Y-121424417D01*
X181448025Y-121366398D01*
X181547874Y-121298084D01*
X181648027Y-121229879D01*
X181701873Y-121193375D01*
X181884129Y-121070100D01*
X182037119Y-121152820D01*
X182106818Y-121189059D01*
X182166086Y-121217226D01*
X182206189Y-121233291D01*
X182216397Y-121235526D01*
X182228671Y-121219022D01*
X182252887Y-121172382D01*
X182287237Y-121099909D01*
X182329912Y-121005906D01*
X182379106Y-120894674D01*
X182433010Y-120770515D01*
X182489816Y-120637732D01*
X182547718Y-120500627D01*
X182604907Y-120363502D01*
X182659576Y-120230658D01*
X182709916Y-120106398D01*
X182754120Y-119995025D01*
X182790381Y-119900839D01*
X182816891Y-119828144D01*
X182831842Y-119781241D01*
X182834246Y-119765133D01*
X182815189Y-119744586D01*
X182773464Y-119711233D01*
X182717794Y-119672002D01*
X182713122Y-119668899D01*
X182569236Y-119553723D01*
X182453217Y-119419353D01*
X182366070Y-119270084D01*
X182308801Y-119110213D01*
X182282414Y-118944037D01*
X182287915Y-118775852D01*
X182326310Y-118609955D01*
X182398605Y-118450642D01*
X182419874Y-118415787D01*
X182530504Y-118275037D01*
X182661198Y-118162014D01*
X182807436Y-118077303D01*
X182964692Y-118021494D01*
X183128443Y-117995174D01*
X183294167Y-117998930D01*
X183457338Y-118033350D01*
X183613435Y-118099023D01*
X183757933Y-118196535D01*
X183802631Y-118236113D01*
X183916388Y-118360003D01*
X183999282Y-118490424D01*
X184056144Y-118636615D01*
X184087813Y-118781388D01*
X184095631Y-118944160D01*
X184069562Y-119107740D01*
X184012255Y-119266598D01*
X183926356Y-119415206D01*
X183814514Y-119548035D01*
X183679377Y-119659556D01*
X183661617Y-119671311D01*
X183605350Y-119709808D01*
X183562577Y-119743163D01*
X183542128Y-119764460D01*
X183541831Y-119765133D01*
X183546221Y-119788171D01*
X183563624Y-119840457D01*
X183592232Y-119917690D01*
X183630235Y-120015568D01*
X183675826Y-120129791D01*
X183727197Y-120256058D01*
X183782538Y-120390067D01*
X183840042Y-120527518D01*
X183897899Y-120664108D01*
X183954302Y-120795537D01*
X184007442Y-120917505D01*
X184055510Y-121025709D01*
X184096699Y-121115849D01*
X184129199Y-121183623D01*
X184151203Y-121224730D01*
X184160064Y-121235526D01*
X184187140Y-121227119D01*
X184237803Y-121204572D01*
X184303317Y-121171913D01*
X184339341Y-121152820D01*
X184492332Y-121070100D01*
X184674588Y-121193375D01*
X184767625Y-121256528D01*
X184869485Y-121326027D01*
X184964938Y-121391465D01*
X185012750Y-121424417D01*
X185079995Y-121469573D01*
X185136936Y-121505357D01*
X185176146Y-121527238D01*
X185188881Y-121531863D01*
X185207417Y-121519385D01*
X185248441Y-121484552D01*
X185307975Y-121430978D01*
X185382042Y-121362283D01*
X185466665Y-121282081D01*
X185520185Y-121230586D01*
X185613819Y-121138586D01*
X185694741Y-121056299D01*
X185759677Y-120987245D01*
X185805358Y-120934944D01*
X185828511Y-120902916D01*
X185830732Y-120896416D01*
X185820424Y-120871694D01*
X185791939Y-120821705D01*
X185748437Y-120751512D01*
X185693077Y-120666175D01*
X185629020Y-120570756D01*
X185610803Y-120544154D01*
X185544427Y-120447467D01*
X185484878Y-120360417D01*
X185435484Y-120287895D01*
X185399575Y-120234793D01*
X185380481Y-120206003D01*
X185378636Y-120203026D01*
X185381395Y-120180082D01*
X185396038Y-120129636D01*
X185420013Y-120058341D01*
X185450766Y-119972847D01*
X185485744Y-119879807D01*
X185522393Y-119785874D01*
X185558161Y-119697699D01*
X185590494Y-119621934D01*
X185616838Y-119565231D01*
X185634642Y-119534243D01*
X185635907Y-119532757D01*
X185646794Y-119523901D01*
X185665182Y-119515143D01*
X185695106Y-119505577D01*
X185740603Y-119494296D01*
X185805709Y-119480393D01*
X185894461Y-119462963D01*
X186010893Y-119441098D01*
X186159042Y-119413891D01*
X186191118Y-119408041D01*
X186286186Y-119389674D01*
X186369065Y-119371705D01*
X186432430Y-119355869D01*
X186468958Y-119343900D01*
X186473856Y-119341110D01*
X186481927Y-119316372D01*
X186488487Y-119261090D01*
X186493533Y-119181689D01*
X186497059Y-119084596D01*
X186499061Y-118976238D01*
X186499536Y-118863040D01*
X186498477Y-118751428D01*
X186495882Y-118647829D01*
X186491746Y-118558668D01*
X186486063Y-118490372D01*
X186478831Y-118449366D01*
X186474471Y-118440974D01*
X186450198Y-118432508D01*
X186394926Y-118418735D01*
X186314162Y-118400850D01*
X186213412Y-118380048D01*
X186098183Y-118357523D01*
X186035402Y-118345718D01*
X185916287Y-118323451D01*
X185810065Y-118303279D01*
X185721927Y-118286215D01*
X185657066Y-118273269D01*
X185620674Y-118265455D01*
X185614684Y-118263722D01*
X185604561Y-118244190D01*
X185583162Y-118197143D01*
X185553339Y-118129303D01*
X185517945Y-118047391D01*
X185479832Y-117958128D01*
X185441853Y-117868235D01*
X185406860Y-117784435D01*
X185377706Y-117713447D01*
X185357243Y-117661994D01*
X185348323Y-117636797D01*
X185348157Y-117635696D01*
X185358269Y-117615819D01*
X185386617Y-117570077D01*
X185430223Y-117503017D01*
X185486106Y-117419184D01*
X185551287Y-117323126D01*
X185589179Y-117267950D01*
X185658225Y-117166781D01*
X185719550Y-117074930D01*
X185770163Y-116997044D01*
X185807071Y-116937769D01*
X185827282Y-116901751D01*
X185830201Y-116893677D01*
X185817653Y-116874884D01*
X185782963Y-116834757D01*
X185730563Y-116777793D01*
X185664884Y-116708485D01*
X185590356Y-116631331D01*
X185511413Y-116550825D01*
X185432483Y-116471463D01*
X185358000Y-116397740D01*
X185292394Y-116334152D01*
X185240096Y-116285194D01*
X185205539Y-116255361D01*
X185193978Y-116248242D01*
X185175154Y-116258253D01*
X185130131Y-116286378D01*
X185063287Y-116329754D01*
X184978999Y-116385518D01*
X184881644Y-116450806D01*
X184808207Y-116500546D01*
X184437167Y-116752851D01*
X183818595Y-116497855D01*
X183734775Y-116053231D01*
X183650954Y-115608607D01*
X182725506Y-115608607D01*
X182641686Y-116053231D01*
D14*
X136418600Y-126694300D02*
X135818600Y-126694300D01*
X137118600Y-130144300D02*
X137118600Y-127344300D01*
X135818600Y-130794300D02*
X136418600Y-130794300D01*
X135118600Y-127344300D02*
X135118600Y-130144300D01*
X135118600Y-130094300D02*
G75*
G03X135818600Y-130794300I700000J0D01*
G01*
X136418600Y-130794300D02*
G75*
G03X137118600Y-130094300I0J700000D01*
G01*
X137118600Y-127394300D02*
G75*
G03X136418600Y-126694300I-700000J0D01*
G01*
X135818600Y-126694300D02*
G75*
G03X135118600Y-127394300I0J-700000D01*
G01*
D13*
G36*
X182641686Y-75053231D02*
G01*
X182557865Y-75497855D01*
X182248580Y-75625353D01*
X181939294Y-75752851D01*
X181568254Y-75500546D01*
X181464343Y-75430296D01*
X181370413Y-75367572D01*
X181290848Y-75315238D01*
X181230030Y-75276157D01*
X181192343Y-75253193D01*
X181182079Y-75248242D01*
X181163590Y-75260976D01*
X181124080Y-75296182D01*
X181067978Y-75349362D01*
X180999713Y-75416018D01*
X180923714Y-75491654D01*
X180844408Y-75571772D01*
X180766225Y-75651874D01*
X180693593Y-75727464D01*
X180630941Y-75794045D01*
X180582697Y-75847118D01*
X180553290Y-75882187D01*
X180546259Y-75893923D01*
X180556377Y-75915560D01*
X180584741Y-75962962D01*
X180628371Y-76031493D01*
X180684282Y-76116515D01*
X180749494Y-76213393D01*
X180787281Y-76268650D01*
X180856157Y-76369548D01*
X180917360Y-76460599D01*
X180967922Y-76537270D01*
X181004872Y-76595028D01*
X181025242Y-76629343D01*
X181028303Y-76636554D01*
X181021364Y-76657048D01*
X181002449Y-76704813D01*
X180974413Y-76773132D01*
X180940109Y-76855289D01*
X180902391Y-76944570D01*
X180864113Y-77034258D01*
X180828130Y-77117638D01*
X180797294Y-77187994D01*
X180774461Y-77238610D01*
X180762483Y-77262771D01*
X180761776Y-77263722D01*
X180742969Y-77268336D01*
X180692882Y-77278628D01*
X180616707Y-77293587D01*
X180519635Y-77312201D01*
X180406857Y-77333459D01*
X180341058Y-77345718D01*
X180220550Y-77368662D01*
X180111703Y-77390495D01*
X180020024Y-77410022D01*
X179951019Y-77426048D01*
X179910196Y-77437379D01*
X179901989Y-77440974D01*
X179893952Y-77465306D01*
X179887467Y-77520259D01*
X179882530Y-77599408D01*
X179879136Y-77696326D01*
X179877282Y-77804587D01*
X179876962Y-77917765D01*
X179878173Y-78029435D01*
X179880910Y-78133168D01*
X179885169Y-78222541D01*
X179890945Y-78291126D01*
X179898233Y-78332497D01*
X179902605Y-78341110D01*
X179928736Y-78351433D01*
X179984107Y-78366192D01*
X180061393Y-78383652D01*
X180153270Y-78402080D01*
X180185342Y-78408041D01*
X180339976Y-78436366D01*
X180462125Y-78459176D01*
X180555827Y-78477380D01*
X180625116Y-78491883D01*
X180674029Y-78503592D01*
X180706603Y-78513415D01*
X180726872Y-78522256D01*
X180738874Y-78531024D01*
X180740553Y-78532757D01*
X180757316Y-78560671D01*
X180782886Y-78614995D01*
X180814712Y-78689077D01*
X180850240Y-78776265D01*
X180886917Y-78869908D01*
X180922189Y-78963352D01*
X180953504Y-79049947D01*
X180978307Y-79123040D01*
X180994046Y-79175978D01*
X180998168Y-79202111D01*
X180997824Y-79203026D01*
X180983859Y-79224386D01*
X180952178Y-79271384D01*
X180906109Y-79339127D01*
X180848982Y-79422723D01*
X180784127Y-79517282D01*
X180765657Y-79544154D01*
X180699801Y-79641575D01*
X180641850Y-79730463D01*
X180594962Y-79805712D01*
X180562293Y-79862220D01*
X180547000Y-79894881D01*
X180546259Y-79898893D01*
X180559108Y-79919984D01*
X180594612Y-79961764D01*
X180648207Y-80019745D01*
X180715329Y-80089435D01*
X180791413Y-80166345D01*
X180871896Y-80245983D01*
X180952213Y-80323861D01*
X181027801Y-80395486D01*
X181094095Y-80456370D01*
X181146531Y-80502021D01*
X181180545Y-80527950D01*
X181189955Y-80532183D01*
X181211857Y-80522212D01*
X181256700Y-80495320D01*
X181317179Y-80456036D01*
X181363711Y-80424417D01*
X181448025Y-80366398D01*
X181547874Y-80298084D01*
X181648027Y-80229879D01*
X181701873Y-80193375D01*
X181884129Y-80070100D01*
X182037119Y-80152820D01*
X182106818Y-80189059D01*
X182166086Y-80217226D01*
X182206189Y-80233291D01*
X182216397Y-80235526D01*
X182228671Y-80219022D01*
X182252887Y-80172382D01*
X182287237Y-80099909D01*
X182329912Y-80005906D01*
X182379106Y-79894674D01*
X182433010Y-79770515D01*
X182489816Y-79637732D01*
X182547718Y-79500627D01*
X182604907Y-79363502D01*
X182659576Y-79230658D01*
X182709916Y-79106398D01*
X182754120Y-78995025D01*
X182790381Y-78900839D01*
X182816891Y-78828144D01*
X182831842Y-78781241D01*
X182834246Y-78765133D01*
X182815189Y-78744586D01*
X182773464Y-78711233D01*
X182717794Y-78672002D01*
X182713122Y-78668899D01*
X182569236Y-78553723D01*
X182453217Y-78419353D01*
X182366070Y-78270084D01*
X182308801Y-78110213D01*
X182282414Y-77944037D01*
X182287915Y-77775852D01*
X182326310Y-77609955D01*
X182398605Y-77450642D01*
X182419874Y-77415787D01*
X182530504Y-77275037D01*
X182661198Y-77162014D01*
X182807436Y-77077303D01*
X182964692Y-77021494D01*
X183128443Y-76995174D01*
X183294167Y-76998930D01*
X183457338Y-77033350D01*
X183613435Y-77099023D01*
X183757933Y-77196535D01*
X183802631Y-77236113D01*
X183916388Y-77360003D01*
X183999282Y-77490424D01*
X184056144Y-77636615D01*
X184087813Y-77781388D01*
X184095631Y-77944160D01*
X184069562Y-78107740D01*
X184012255Y-78266598D01*
X183926356Y-78415206D01*
X183814514Y-78548035D01*
X183679377Y-78659556D01*
X183661617Y-78671311D01*
X183605350Y-78709808D01*
X183562577Y-78743163D01*
X183542128Y-78764460D01*
X183541831Y-78765133D01*
X183546221Y-78788171D01*
X183563624Y-78840457D01*
X183592232Y-78917690D01*
X183630235Y-79015568D01*
X183675826Y-79129791D01*
X183727197Y-79256058D01*
X183782538Y-79390067D01*
X183840042Y-79527518D01*
X183897899Y-79664108D01*
X183954302Y-79795537D01*
X184007442Y-79917505D01*
X184055510Y-80025709D01*
X184096699Y-80115849D01*
X184129199Y-80183623D01*
X184151203Y-80224730D01*
X184160064Y-80235526D01*
X184187140Y-80227119D01*
X184237803Y-80204572D01*
X184303317Y-80171913D01*
X184339341Y-80152820D01*
X184492332Y-80070100D01*
X184674588Y-80193375D01*
X184767625Y-80256528D01*
X184869485Y-80326027D01*
X184964938Y-80391465D01*
X185012750Y-80424417D01*
X185079995Y-80469573D01*
X185136936Y-80505357D01*
X185176146Y-80527238D01*
X185188881Y-80531863D01*
X185207417Y-80519385D01*
X185248441Y-80484552D01*
X185307975Y-80430978D01*
X185382042Y-80362283D01*
X185466665Y-80282081D01*
X185520185Y-80230586D01*
X185613819Y-80138586D01*
X185694741Y-80056299D01*
X185759677Y-79987245D01*
X185805358Y-79934944D01*
X185828511Y-79902916D01*
X185830732Y-79896416D01*
X185820424Y-79871694D01*
X185791939Y-79821705D01*
X185748437Y-79751512D01*
X185693077Y-79666175D01*
X185629020Y-79570756D01*
X185610803Y-79544154D01*
X185544427Y-79447467D01*
X185484878Y-79360417D01*
X185435484Y-79287895D01*
X185399575Y-79234793D01*
X185380481Y-79206003D01*
X185378636Y-79203026D01*
X185381395Y-79180082D01*
X185396038Y-79129636D01*
X185420013Y-79058341D01*
X185450766Y-78972847D01*
X185485744Y-78879807D01*
X185522393Y-78785874D01*
X185558161Y-78697699D01*
X185590494Y-78621934D01*
X185616838Y-78565231D01*
X185634642Y-78534243D01*
X185635907Y-78532757D01*
X185646794Y-78523901D01*
X185665182Y-78515143D01*
X185695106Y-78505577D01*
X185740603Y-78494296D01*
X185805709Y-78480393D01*
X185894461Y-78462963D01*
X186010893Y-78441098D01*
X186159042Y-78413891D01*
X186191118Y-78408041D01*
X186286186Y-78389674D01*
X186369065Y-78371705D01*
X186432430Y-78355869D01*
X186468958Y-78343900D01*
X186473856Y-78341110D01*
X186481927Y-78316372D01*
X186488487Y-78261090D01*
X186493533Y-78181689D01*
X186497059Y-78084596D01*
X186499061Y-77976238D01*
X186499536Y-77863040D01*
X186498477Y-77751428D01*
X186495882Y-77647829D01*
X186491746Y-77558668D01*
X186486063Y-77490372D01*
X186478831Y-77449366D01*
X186474471Y-77440974D01*
X186450198Y-77432508D01*
X186394926Y-77418735D01*
X186314162Y-77400850D01*
X186213412Y-77380048D01*
X186098183Y-77357523D01*
X186035402Y-77345718D01*
X185916287Y-77323451D01*
X185810065Y-77303279D01*
X185721927Y-77286215D01*
X185657066Y-77273269D01*
X185620674Y-77265455D01*
X185614684Y-77263722D01*
X185604561Y-77244190D01*
X185583162Y-77197143D01*
X185553339Y-77129303D01*
X185517945Y-77047391D01*
X185479832Y-76958128D01*
X185441853Y-76868235D01*
X185406860Y-76784435D01*
X185377706Y-76713447D01*
X185357243Y-76661994D01*
X185348323Y-76636797D01*
X185348157Y-76635696D01*
X185358269Y-76615819D01*
X185386617Y-76570077D01*
X185430223Y-76503017D01*
X185486106Y-76419184D01*
X185551287Y-76323126D01*
X185589179Y-76267950D01*
X185658225Y-76166781D01*
X185719550Y-76074930D01*
X185770163Y-75997044D01*
X185807071Y-75937769D01*
X185827282Y-75901751D01*
X185830201Y-75893677D01*
X185817653Y-75874884D01*
X185782963Y-75834757D01*
X185730563Y-75777793D01*
X185664884Y-75708485D01*
X185590356Y-75631331D01*
X185511413Y-75550825D01*
X185432483Y-75471463D01*
X185358000Y-75397740D01*
X185292394Y-75334152D01*
X185240096Y-75285194D01*
X185205539Y-75255361D01*
X185193978Y-75248242D01*
X185175154Y-75258253D01*
X185130131Y-75286378D01*
X185063287Y-75329754D01*
X184978999Y-75385518D01*
X184881644Y-75450806D01*
X184808207Y-75500546D01*
X184437167Y-75752851D01*
X183818595Y-75497855D01*
X183734775Y-75053231D01*
X183650954Y-74608607D01*
X182725506Y-74608607D01*
X182641686Y-75053231D01*
G37*
X182641686Y-75053231D02*
X182557865Y-75497855D01*
X182248580Y-75625353D01*
X181939294Y-75752851D01*
X181568254Y-75500546D01*
X181464343Y-75430296D01*
X181370413Y-75367572D01*
X181290848Y-75315238D01*
X181230030Y-75276157D01*
X181192343Y-75253193D01*
X181182079Y-75248242D01*
X181163590Y-75260976D01*
X181124080Y-75296182D01*
X181067978Y-75349362D01*
X180999713Y-75416018D01*
X180923714Y-75491654D01*
X180844408Y-75571772D01*
X180766225Y-75651874D01*
X180693593Y-75727464D01*
X180630941Y-75794045D01*
X180582697Y-75847118D01*
X180553290Y-75882187D01*
X180546259Y-75893923D01*
X180556377Y-75915560D01*
X180584741Y-75962962D01*
X180628371Y-76031493D01*
X180684282Y-76116515D01*
X180749494Y-76213393D01*
X180787281Y-76268650D01*
X180856157Y-76369548D01*
X180917360Y-76460599D01*
X180967922Y-76537270D01*
X181004872Y-76595028D01*
X181025242Y-76629343D01*
X181028303Y-76636554D01*
X181021364Y-76657048D01*
X181002449Y-76704813D01*
X180974413Y-76773132D01*
X180940109Y-76855289D01*
X180902391Y-76944570D01*
X180864113Y-77034258D01*
X180828130Y-77117638D01*
X180797294Y-77187994D01*
X180774461Y-77238610D01*
X180762483Y-77262771D01*
X180761776Y-77263722D01*
X180742969Y-77268336D01*
X180692882Y-77278628D01*
X180616707Y-77293587D01*
X180519635Y-77312201D01*
X180406857Y-77333459D01*
X180341058Y-77345718D01*
X180220550Y-77368662D01*
X180111703Y-77390495D01*
X180020024Y-77410022D01*
X179951019Y-77426048D01*
X179910196Y-77437379D01*
X179901989Y-77440974D01*
X179893952Y-77465306D01*
X179887467Y-77520259D01*
X179882530Y-77599408D01*
X179879136Y-77696326D01*
X179877282Y-77804587D01*
X179876962Y-77917765D01*
X179878173Y-78029435D01*
X179880910Y-78133168D01*
X179885169Y-78222541D01*
X179890945Y-78291126D01*
X179898233Y-78332497D01*
X179902605Y-78341110D01*
X179928736Y-78351433D01*
X179984107Y-78366192D01*
X180061393Y-78383652D01*
X180153270Y-78402080D01*
X180185342Y-78408041D01*
X180339976Y-78436366D01*
X180462125Y-78459176D01*
X180555827Y-78477380D01*
X180625116Y-78491883D01*
X180674029Y-78503592D01*
X180706603Y-78513415D01*
X180726872Y-78522256D01*
X180738874Y-78531024D01*
X180740553Y-78532757D01*
X180757316Y-78560671D01*
X180782886Y-78614995D01*
X180814712Y-78689077D01*
X180850240Y-78776265D01*
X180886917Y-78869908D01*
X180922189Y-78963352D01*
X180953504Y-79049947D01*
X180978307Y-79123040D01*
X180994046Y-79175978D01*
X180998168Y-79202111D01*
X180997824Y-79203026D01*
X180983859Y-79224386D01*
X180952178Y-79271384D01*
X180906109Y-79339127D01*
X180848982Y-79422723D01*
X180784127Y-79517282D01*
X180765657Y-79544154D01*
X180699801Y-79641575D01*
X180641850Y-79730463D01*
X180594962Y-79805712D01*
X180562293Y-79862220D01*
X180547000Y-79894881D01*
X180546259Y-79898893D01*
X180559108Y-79919984D01*
X180594612Y-79961764D01*
X180648207Y-80019745D01*
X180715329Y-80089435D01*
X180791413Y-80166345D01*
X180871896Y-80245983D01*
X180952213Y-80323861D01*
X181027801Y-80395486D01*
X181094095Y-80456370D01*
X181146531Y-80502021D01*
X181180545Y-80527950D01*
X181189955Y-80532183D01*
X181211857Y-80522212D01*
X181256700Y-80495320D01*
X181317179Y-80456036D01*
X181363711Y-80424417D01*
X181448025Y-80366398D01*
X181547874Y-80298084D01*
X181648027Y-80229879D01*
X181701873Y-80193375D01*
X181884129Y-80070100D01*
X182037119Y-80152820D01*
X182106818Y-80189059D01*
X182166086Y-80217226D01*
X182206189Y-80233291D01*
X182216397Y-80235526D01*
X182228671Y-80219022D01*
X182252887Y-80172382D01*
X182287237Y-80099909D01*
X182329912Y-80005906D01*
X182379106Y-79894674D01*
X182433010Y-79770515D01*
X182489816Y-79637732D01*
X182547718Y-79500627D01*
X182604907Y-79363502D01*
X182659576Y-79230658D01*
X182709916Y-79106398D01*
X182754120Y-78995025D01*
X182790381Y-78900839D01*
X182816891Y-78828144D01*
X182831842Y-78781241D01*
X182834246Y-78765133D01*
X182815189Y-78744586D01*
X182773464Y-78711233D01*
X182717794Y-78672002D01*
X182713122Y-78668899D01*
X182569236Y-78553723D01*
X182453217Y-78419353D01*
X182366070Y-78270084D01*
X182308801Y-78110213D01*
X182282414Y-77944037D01*
X182287915Y-77775852D01*
X182326310Y-77609955D01*
X182398605Y-77450642D01*
X182419874Y-77415787D01*
X182530504Y-77275037D01*
X182661198Y-77162014D01*
X182807436Y-77077303D01*
X182964692Y-77021494D01*
X183128443Y-76995174D01*
X183294167Y-76998930D01*
X183457338Y-77033350D01*
X183613435Y-77099023D01*
X183757933Y-77196535D01*
X183802631Y-77236113D01*
X183916388Y-77360003D01*
X183999282Y-77490424D01*
X184056144Y-77636615D01*
X184087813Y-77781388D01*
X184095631Y-77944160D01*
X184069562Y-78107740D01*
X184012255Y-78266598D01*
X183926356Y-78415206D01*
X183814514Y-78548035D01*
X183679377Y-78659556D01*
X183661617Y-78671311D01*
X183605350Y-78709808D01*
X183562577Y-78743163D01*
X183542128Y-78764460D01*
X183541831Y-78765133D01*
X183546221Y-78788171D01*
X183563624Y-78840457D01*
X183592232Y-78917690D01*
X183630235Y-79015568D01*
X183675826Y-79129791D01*
X183727197Y-79256058D01*
X183782538Y-79390067D01*
X183840042Y-79527518D01*
X183897899Y-79664108D01*
X183954302Y-79795537D01*
X184007442Y-79917505D01*
X184055510Y-80025709D01*
X184096699Y-80115849D01*
X184129199Y-80183623D01*
X184151203Y-80224730D01*
X184160064Y-80235526D01*
X184187140Y-80227119D01*
X184237803Y-80204572D01*
X184303317Y-80171913D01*
X184339341Y-80152820D01*
X184492332Y-80070100D01*
X184674588Y-80193375D01*
X184767625Y-80256528D01*
X184869485Y-80326027D01*
X184964938Y-80391465D01*
X185012750Y-80424417D01*
X185079995Y-80469573D01*
X185136936Y-80505357D01*
X185176146Y-80527238D01*
X185188881Y-80531863D01*
X185207417Y-80519385D01*
X185248441Y-80484552D01*
X185307975Y-80430978D01*
X185382042Y-80362283D01*
X185466665Y-80282081D01*
X185520185Y-80230586D01*
X185613819Y-80138586D01*
X185694741Y-80056299D01*
X185759677Y-79987245D01*
X185805358Y-79934944D01*
X185828511Y-79902916D01*
X185830732Y-79896416D01*
X185820424Y-79871694D01*
X185791939Y-79821705D01*
X185748437Y-79751512D01*
X185693077Y-79666175D01*
X185629020Y-79570756D01*
X185610803Y-79544154D01*
X185544427Y-79447467D01*
X185484878Y-79360417D01*
X185435484Y-79287895D01*
X185399575Y-79234793D01*
X185380481Y-79206003D01*
X185378636Y-79203026D01*
X185381395Y-79180082D01*
X185396038Y-79129636D01*
X185420013Y-79058341D01*
X185450766Y-78972847D01*
X185485744Y-78879807D01*
X185522393Y-78785874D01*
X185558161Y-78697699D01*
X185590494Y-78621934D01*
X185616838Y-78565231D01*
X185634642Y-78534243D01*
X185635907Y-78532757D01*
X185646794Y-78523901D01*
X185665182Y-78515143D01*
X185695106Y-78505577D01*
X185740603Y-78494296D01*
X185805709Y-78480393D01*
X185894461Y-78462963D01*
X186010893Y-78441098D01*
X186159042Y-78413891D01*
X186191118Y-78408041D01*
X186286186Y-78389674D01*
X186369065Y-78371705D01*
X186432430Y-78355869D01*
X186468958Y-78343900D01*
X186473856Y-78341110D01*
X186481927Y-78316372D01*
X186488487Y-78261090D01*
X186493533Y-78181689D01*
X186497059Y-78084596D01*
X186499061Y-77976238D01*
X186499536Y-77863040D01*
X186498477Y-77751428D01*
X186495882Y-77647829D01*
X186491746Y-77558668D01*
X186486063Y-77490372D01*
X186478831Y-77449366D01*
X186474471Y-77440974D01*
X186450198Y-77432508D01*
X186394926Y-77418735D01*
X186314162Y-77400850D01*
X186213412Y-77380048D01*
X186098183Y-77357523D01*
X186035402Y-77345718D01*
X185916287Y-77323451D01*
X185810065Y-77303279D01*
X185721927Y-77286215D01*
X185657066Y-77273269D01*
X185620674Y-77265455D01*
X185614684Y-77263722D01*
X185604561Y-77244190D01*
X185583162Y-77197143D01*
X185553339Y-77129303D01*
X185517945Y-77047391D01*
X185479832Y-76958128D01*
X185441853Y-76868235D01*
X185406860Y-76784435D01*
X185377706Y-76713447D01*
X185357243Y-76661994D01*
X185348323Y-76636797D01*
X185348157Y-76635696D01*
X185358269Y-76615819D01*
X185386617Y-76570077D01*
X185430223Y-76503017D01*
X185486106Y-76419184D01*
X185551287Y-76323126D01*
X185589179Y-76267950D01*
X185658225Y-76166781D01*
X185719550Y-76074930D01*
X185770163Y-75997044D01*
X185807071Y-75937769D01*
X185827282Y-75901751D01*
X185830201Y-75893677D01*
X185817653Y-75874884D01*
X185782963Y-75834757D01*
X185730563Y-75777793D01*
X185664884Y-75708485D01*
X185590356Y-75631331D01*
X185511413Y-75550825D01*
X185432483Y-75471463D01*
X185358000Y-75397740D01*
X185292394Y-75334152D01*
X185240096Y-75285194D01*
X185205539Y-75255361D01*
X185193978Y-75248242D01*
X185175154Y-75258253D01*
X185130131Y-75286378D01*
X185063287Y-75329754D01*
X184978999Y-75385518D01*
X184881644Y-75450806D01*
X184808207Y-75500546D01*
X184437167Y-75752851D01*
X183818595Y-75497855D01*
X183734775Y-75053231D01*
X183650954Y-74608607D01*
X182725506Y-74608607D01*
X182641686Y-75053231D01*
D14*
X135818600Y-85694300D02*
G75*
G03X135118600Y-86394300I0J-700000D01*
G01*
X137118600Y-86394300D02*
G75*
G03X136418600Y-85694300I-700000J0D01*
G01*
X136418600Y-89794300D02*
G75*
G03X137118600Y-89094300I0J700000D01*
G01*
X135118600Y-89094300D02*
G75*
G03X135818600Y-89794300I700000J0D01*
G01*
X135118600Y-86344300D02*
X135118600Y-89144300D01*
X135818600Y-89794300D02*
X136418600Y-89794300D01*
X137118600Y-89144300D02*
X137118600Y-86344300D01*
X136418600Y-85694300D02*
X135818600Y-85694300D01*
D11*
X133770980Y-127910966D02*
X134485266Y-127910966D01*
X134628123Y-127863347D01*
X134723361Y-127768109D01*
X134770980Y-127625252D01*
X134770980Y-127530014D01*
X134770980Y-128387157D02*
X133770980Y-128387157D01*
X133770980Y-128768109D01*
X133818600Y-128863347D01*
X133866219Y-128910966D01*
X133961457Y-128958585D01*
X134104314Y-128958585D01*
X134199552Y-128910966D01*
X134247171Y-128863347D01*
X134294790Y-128768109D01*
X134294790Y-128387157D01*
X134770980Y-129910966D02*
X134770980Y-129339538D01*
X134770980Y-129625252D02*
X133770980Y-129625252D01*
X133913838Y-129530014D01*
X134009076Y-129434776D01*
X134056695Y-129339538D01*
X135570980Y-131010966D02*
X135570980Y-131630014D01*
X135951933Y-131296680D01*
X135951933Y-131439538D01*
X135999552Y-131534776D01*
X136047171Y-131582395D01*
X136142409Y-131630014D01*
X136380504Y-131630014D01*
X136475742Y-131582395D01*
X136523361Y-131534776D01*
X136570980Y-131439538D01*
X136570980Y-131153823D01*
X136523361Y-131058585D01*
X136475742Y-131010966D01*
X136570980Y-126430014D02*
X136570980Y-125858585D01*
X136570980Y-126144300D02*
X135570980Y-126144300D01*
X135713838Y-126049061D01*
X135809076Y-125953823D01*
X135856695Y-125858585D01*
X133770980Y-86910966D02*
X134485266Y-86910966D01*
X134628123Y-86863347D01*
X134723361Y-86768109D01*
X134770980Y-86625252D01*
X134770980Y-86530014D01*
X134770980Y-87387157D02*
X133770980Y-87387157D01*
X133770980Y-87768109D01*
X133818600Y-87863347D01*
X133866219Y-87910966D01*
X133961457Y-87958585D01*
X134104314Y-87958585D01*
X134199552Y-87910966D01*
X134247171Y-87863347D01*
X134294790Y-87768109D01*
X134294790Y-87387157D01*
X134770980Y-88910966D02*
X134770980Y-88339538D01*
X134770980Y-88625252D02*
X133770980Y-88625252D01*
X133913838Y-88530014D01*
X134009076Y-88434776D01*
X134056695Y-88339538D01*
X136570980Y-85430014D02*
X136570980Y-84858585D01*
X136570980Y-85144300D02*
X135570980Y-85144300D01*
X135713838Y-85049061D01*
X135809076Y-84953823D01*
X135856695Y-84858585D01*
X135570980Y-90010966D02*
X135570980Y-90630014D01*
X135951933Y-90296680D01*
X135951933Y-90439538D01*
X135999552Y-90534776D01*
X136047171Y-90582395D01*
X136142409Y-90630014D01*
X136380504Y-90630014D01*
X136475742Y-90582395D01*
X136523361Y-90534776D01*
X136570980Y-90439538D01*
X136570980Y-90153823D01*
X136523361Y-90058585D01*
X136475742Y-90010966D01*
M02*
