G04 #@! TF.GenerationSoftware,KiCad,Pcbnew,5.1.5+dfsg1-2build2*
G04 #@! TF.CreationDate,2021-11-10T16:19:55-05:00*
G04 #@! TF.ProjectId,SINSONTE_MODEL_B,53494e53-4f4e-4544-955f-4d4f44454c5f,rev?*
G04 #@! TF.SameCoordinates,Original*
G04 #@! TF.FileFunction,Legend,Bot*
G04 #@! TF.FilePolarity,Positive*
%FSLAX46Y46*%
G04 Gerber Fmt 4.6, Leading zero omitted, Abs format (unit mm)*
G04 Created by KiCad (PCBNEW 5.1.5+dfsg1-2build2) date 2021-11-10 16:19:55*
%MOMM*%
%LPD*%
G04 APERTURE LIST*
%ADD10C,0.150000*%
%ADD11C,0.500000*%
%ADD12C,1.500000*%
%ADD13C,0.010000*%
%ADD14C,0.120000*%
G04 APERTURE END LIST*
D10*
X132190738Y-88107780D02*
X132190738Y-87107780D01*
X131857404Y-87822066D01*
X131524071Y-87107780D01*
X131524071Y-88107780D01*
X130857404Y-87107780D02*
X130666928Y-87107780D01*
X130571690Y-87155400D01*
X130476452Y-87250638D01*
X130428833Y-87441114D01*
X130428833Y-87774447D01*
X130476452Y-87964923D01*
X130571690Y-88060161D01*
X130666928Y-88107780D01*
X130857404Y-88107780D01*
X130952642Y-88060161D01*
X131047880Y-87964923D01*
X131095500Y-87774447D01*
X131095500Y-87441114D01*
X131047880Y-87250638D01*
X130952642Y-87155400D01*
X130857404Y-87107780D01*
X130000261Y-88107780D02*
X130000261Y-87107780D01*
X129762166Y-87107780D01*
X129619309Y-87155400D01*
X129524071Y-87250638D01*
X129476452Y-87345876D01*
X129428833Y-87536352D01*
X129428833Y-87679209D01*
X129476452Y-87869685D01*
X129524071Y-87964923D01*
X129619309Y-88060161D01*
X129762166Y-88107780D01*
X130000261Y-88107780D01*
X129000261Y-87583971D02*
X128666928Y-87583971D01*
X128524071Y-88107780D02*
X129000261Y-88107780D01*
X129000261Y-87107780D01*
X128524071Y-87107780D01*
X127619309Y-88107780D02*
X128095500Y-88107780D01*
X128095500Y-87107780D01*
X126190738Y-87583971D02*
X126047880Y-87631590D01*
X126000261Y-87679209D01*
X125952642Y-87774447D01*
X125952642Y-87917304D01*
X126000261Y-88012542D01*
X126047880Y-88060161D01*
X126143119Y-88107780D01*
X126524071Y-88107780D01*
X126524071Y-87107780D01*
X126190738Y-87107780D01*
X126095500Y-87155400D01*
X126047880Y-87203019D01*
X126000261Y-87298257D01*
X126000261Y-87393495D01*
X126047880Y-87488733D01*
X126095500Y-87536352D01*
X126190738Y-87583971D01*
X126524071Y-87583971D01*
D11*
X99622285Y-65019085D02*
X99193714Y-65161942D01*
X98479428Y-65161942D01*
X98193714Y-65019085D01*
X98050857Y-64876228D01*
X97908000Y-64590514D01*
X97908000Y-64304800D01*
X98050857Y-64019085D01*
X98193714Y-63876228D01*
X98479428Y-63733371D01*
X99050857Y-63590514D01*
X99336571Y-63447657D01*
X99479428Y-63304800D01*
X99622285Y-63019085D01*
X99622285Y-62733371D01*
X99479428Y-62447657D01*
X99336571Y-62304800D01*
X99050857Y-62161942D01*
X98336571Y-62161942D01*
X97908000Y-62304800D01*
X96622285Y-65161942D02*
X96622285Y-62161942D01*
X95193714Y-65161942D02*
X95193714Y-62161942D01*
X93479428Y-65161942D01*
X93479428Y-62161942D01*
X92193714Y-65019085D02*
X91765142Y-65161942D01*
X91050857Y-65161942D01*
X90765142Y-65019085D01*
X90622285Y-64876228D01*
X90479428Y-64590514D01*
X90479428Y-64304800D01*
X90622285Y-64019085D01*
X90765142Y-63876228D01*
X91050857Y-63733371D01*
X91622285Y-63590514D01*
X91908000Y-63447657D01*
X92050857Y-63304800D01*
X92193714Y-63019085D01*
X92193714Y-62733371D01*
X92050857Y-62447657D01*
X91908000Y-62304800D01*
X91622285Y-62161942D01*
X90908000Y-62161942D01*
X90479428Y-62304800D01*
X88622285Y-62161942D02*
X88050857Y-62161942D01*
X87765142Y-62304800D01*
X87479428Y-62590514D01*
X87336571Y-63161942D01*
X87336571Y-64161942D01*
X87479428Y-64733371D01*
X87765142Y-65019085D01*
X88050857Y-65161942D01*
X88622285Y-65161942D01*
X88908000Y-65019085D01*
X89193714Y-64733371D01*
X89336571Y-64161942D01*
X89336571Y-63161942D01*
X89193714Y-62590514D01*
X88908000Y-62304800D01*
X88622285Y-62161942D01*
X86050857Y-65161942D02*
X86050857Y-62161942D01*
X84336571Y-65161942D01*
X84336571Y-62161942D01*
X83336571Y-62161942D02*
X81622285Y-62161942D01*
X82479428Y-65161942D02*
X82479428Y-62161942D01*
X80622285Y-63590514D02*
X79622285Y-63590514D01*
X79193714Y-65161942D02*
X80622285Y-65161942D01*
X80622285Y-62161942D01*
X79193714Y-62161942D01*
D12*
X50750000Y-50750000D02*
X139250000Y-50750000D01*
X50750000Y-90250000D02*
X139250000Y-90250000D01*
X50750000Y-50750000D02*
X50750000Y-90250000D01*
X139250000Y-50750000D02*
X139250000Y-90250000D01*
D13*
G36*
X131613086Y-55888931D02*
G01*
X131529265Y-56333555D01*
X131219980Y-56461053D01*
X130910694Y-56588551D01*
X130539654Y-56336246D01*
X130435743Y-56265996D01*
X130341813Y-56203272D01*
X130262248Y-56150938D01*
X130201430Y-56111857D01*
X130163743Y-56088893D01*
X130153479Y-56083942D01*
X130134990Y-56096676D01*
X130095480Y-56131882D01*
X130039378Y-56185062D01*
X129971113Y-56251718D01*
X129895114Y-56327354D01*
X129815808Y-56407472D01*
X129737625Y-56487574D01*
X129664993Y-56563164D01*
X129602341Y-56629745D01*
X129554097Y-56682818D01*
X129524690Y-56717887D01*
X129517659Y-56729623D01*
X129527777Y-56751260D01*
X129556141Y-56798662D01*
X129599771Y-56867193D01*
X129655682Y-56952215D01*
X129720894Y-57049093D01*
X129758681Y-57104350D01*
X129827557Y-57205248D01*
X129888760Y-57296299D01*
X129939322Y-57372970D01*
X129976272Y-57430728D01*
X129996642Y-57465043D01*
X129999703Y-57472254D01*
X129992764Y-57492748D01*
X129973849Y-57540513D01*
X129945813Y-57608832D01*
X129911509Y-57690989D01*
X129873791Y-57780270D01*
X129835513Y-57869958D01*
X129799530Y-57953338D01*
X129768694Y-58023694D01*
X129745861Y-58074310D01*
X129733883Y-58098471D01*
X129733176Y-58099422D01*
X129714369Y-58104036D01*
X129664282Y-58114328D01*
X129588107Y-58129287D01*
X129491035Y-58147901D01*
X129378257Y-58169159D01*
X129312458Y-58181418D01*
X129191950Y-58204362D01*
X129083103Y-58226195D01*
X128991424Y-58245722D01*
X128922419Y-58261748D01*
X128881596Y-58273079D01*
X128873389Y-58276674D01*
X128865352Y-58301006D01*
X128858867Y-58355959D01*
X128853930Y-58435108D01*
X128850536Y-58532026D01*
X128848682Y-58640287D01*
X128848362Y-58753465D01*
X128849573Y-58865135D01*
X128852310Y-58968868D01*
X128856569Y-59058241D01*
X128862345Y-59126826D01*
X128869633Y-59168197D01*
X128874005Y-59176810D01*
X128900136Y-59187133D01*
X128955507Y-59201892D01*
X129032793Y-59219352D01*
X129124670Y-59237780D01*
X129156742Y-59243741D01*
X129311376Y-59272066D01*
X129433525Y-59294876D01*
X129527227Y-59313080D01*
X129596516Y-59327583D01*
X129645429Y-59339292D01*
X129678003Y-59349115D01*
X129698272Y-59357956D01*
X129710274Y-59366724D01*
X129711953Y-59368457D01*
X129728716Y-59396371D01*
X129754286Y-59450695D01*
X129786112Y-59524777D01*
X129821640Y-59611965D01*
X129858317Y-59705608D01*
X129893589Y-59799052D01*
X129924904Y-59885647D01*
X129949707Y-59958740D01*
X129965446Y-60011678D01*
X129969568Y-60037811D01*
X129969224Y-60038726D01*
X129955259Y-60060086D01*
X129923578Y-60107084D01*
X129877509Y-60174827D01*
X129820382Y-60258423D01*
X129755527Y-60352982D01*
X129737057Y-60379854D01*
X129671201Y-60477275D01*
X129613250Y-60566163D01*
X129566362Y-60641412D01*
X129533693Y-60697920D01*
X129518400Y-60730581D01*
X129517659Y-60734593D01*
X129530508Y-60755684D01*
X129566012Y-60797464D01*
X129619607Y-60855445D01*
X129686729Y-60925135D01*
X129762813Y-61002045D01*
X129843296Y-61081683D01*
X129923613Y-61159561D01*
X129999201Y-61231186D01*
X130065495Y-61292070D01*
X130117931Y-61337721D01*
X130151945Y-61363650D01*
X130161355Y-61367883D01*
X130183257Y-61357912D01*
X130228100Y-61331020D01*
X130288579Y-61291736D01*
X130335111Y-61260117D01*
X130419425Y-61202098D01*
X130519274Y-61133784D01*
X130619427Y-61065579D01*
X130673273Y-61029075D01*
X130855529Y-60905800D01*
X131008519Y-60988520D01*
X131078218Y-61024759D01*
X131137486Y-61052926D01*
X131177589Y-61068991D01*
X131187797Y-61071226D01*
X131200071Y-61054722D01*
X131224287Y-61008082D01*
X131258637Y-60935609D01*
X131301312Y-60841606D01*
X131350506Y-60730374D01*
X131404410Y-60606215D01*
X131461216Y-60473432D01*
X131519118Y-60336327D01*
X131576307Y-60199202D01*
X131630976Y-60066358D01*
X131681316Y-59942098D01*
X131725520Y-59830725D01*
X131761781Y-59736539D01*
X131788291Y-59663844D01*
X131803242Y-59616941D01*
X131805646Y-59600833D01*
X131786589Y-59580286D01*
X131744864Y-59546933D01*
X131689194Y-59507702D01*
X131684522Y-59504599D01*
X131540636Y-59389423D01*
X131424617Y-59255053D01*
X131337470Y-59105784D01*
X131280201Y-58945913D01*
X131253814Y-58779737D01*
X131259315Y-58611552D01*
X131297710Y-58445655D01*
X131370005Y-58286342D01*
X131391274Y-58251487D01*
X131501904Y-58110737D01*
X131632598Y-57997714D01*
X131778836Y-57913003D01*
X131936092Y-57857194D01*
X132099843Y-57830874D01*
X132265567Y-57834630D01*
X132428738Y-57869050D01*
X132584835Y-57934723D01*
X132729333Y-58032235D01*
X132774031Y-58071813D01*
X132887788Y-58195703D01*
X132970682Y-58326124D01*
X133027544Y-58472315D01*
X133059213Y-58617088D01*
X133067031Y-58779860D01*
X133040962Y-58943440D01*
X132983655Y-59102298D01*
X132897756Y-59250906D01*
X132785914Y-59383735D01*
X132650777Y-59495256D01*
X132633017Y-59507011D01*
X132576750Y-59545508D01*
X132533977Y-59578863D01*
X132513528Y-59600160D01*
X132513231Y-59600833D01*
X132517621Y-59623871D01*
X132535024Y-59676157D01*
X132563632Y-59753390D01*
X132601635Y-59851268D01*
X132647226Y-59965491D01*
X132698597Y-60091758D01*
X132753938Y-60225767D01*
X132811442Y-60363218D01*
X132869299Y-60499808D01*
X132925702Y-60631237D01*
X132978842Y-60753205D01*
X133026910Y-60861409D01*
X133068099Y-60951549D01*
X133100599Y-61019323D01*
X133122603Y-61060430D01*
X133131464Y-61071226D01*
X133158540Y-61062819D01*
X133209203Y-61040272D01*
X133274717Y-61007613D01*
X133310741Y-60988520D01*
X133463732Y-60905800D01*
X133645988Y-61029075D01*
X133739025Y-61092228D01*
X133840885Y-61161727D01*
X133936338Y-61227165D01*
X133984150Y-61260117D01*
X134051395Y-61305273D01*
X134108336Y-61341057D01*
X134147546Y-61362938D01*
X134160281Y-61367563D01*
X134178817Y-61355085D01*
X134219841Y-61320252D01*
X134279375Y-61266678D01*
X134353442Y-61197983D01*
X134438065Y-61117781D01*
X134491585Y-61066286D01*
X134585219Y-60974286D01*
X134666141Y-60891999D01*
X134731077Y-60822945D01*
X134776758Y-60770644D01*
X134799911Y-60738616D01*
X134802132Y-60732116D01*
X134791824Y-60707394D01*
X134763339Y-60657405D01*
X134719837Y-60587212D01*
X134664477Y-60501875D01*
X134600420Y-60406456D01*
X134582203Y-60379854D01*
X134515827Y-60283167D01*
X134456278Y-60196117D01*
X134406884Y-60123595D01*
X134370975Y-60070493D01*
X134351881Y-60041703D01*
X134350036Y-60038726D01*
X134352795Y-60015782D01*
X134367438Y-59965336D01*
X134391413Y-59894041D01*
X134422166Y-59808547D01*
X134457144Y-59715507D01*
X134493793Y-59621574D01*
X134529561Y-59533399D01*
X134561894Y-59457634D01*
X134588238Y-59400931D01*
X134606042Y-59369943D01*
X134607307Y-59368457D01*
X134618194Y-59359601D01*
X134636582Y-59350843D01*
X134666506Y-59341277D01*
X134712003Y-59329996D01*
X134777109Y-59316093D01*
X134865861Y-59298663D01*
X134982293Y-59276798D01*
X135130442Y-59249591D01*
X135162518Y-59243741D01*
X135257586Y-59225374D01*
X135340465Y-59207405D01*
X135403830Y-59191569D01*
X135440358Y-59179600D01*
X135445256Y-59176810D01*
X135453327Y-59152072D01*
X135459887Y-59096790D01*
X135464933Y-59017389D01*
X135468459Y-58920296D01*
X135470461Y-58811938D01*
X135470936Y-58698740D01*
X135469877Y-58587128D01*
X135467282Y-58483529D01*
X135463146Y-58394368D01*
X135457463Y-58326072D01*
X135450231Y-58285066D01*
X135445871Y-58276674D01*
X135421598Y-58268208D01*
X135366326Y-58254435D01*
X135285562Y-58236550D01*
X135184812Y-58215748D01*
X135069583Y-58193223D01*
X135006802Y-58181418D01*
X134887687Y-58159151D01*
X134781465Y-58138979D01*
X134693327Y-58121915D01*
X134628466Y-58108969D01*
X134592074Y-58101155D01*
X134586084Y-58099422D01*
X134575961Y-58079890D01*
X134554562Y-58032843D01*
X134524739Y-57965003D01*
X134489345Y-57883091D01*
X134451232Y-57793828D01*
X134413253Y-57703935D01*
X134378260Y-57620135D01*
X134349106Y-57549147D01*
X134328643Y-57497694D01*
X134319723Y-57472497D01*
X134319557Y-57471396D01*
X134329669Y-57451519D01*
X134358017Y-57405777D01*
X134401623Y-57338717D01*
X134457506Y-57254884D01*
X134522687Y-57158826D01*
X134560579Y-57103650D01*
X134629625Y-57002481D01*
X134690950Y-56910630D01*
X134741563Y-56832744D01*
X134778471Y-56773469D01*
X134798682Y-56737451D01*
X134801601Y-56729377D01*
X134789053Y-56710584D01*
X134754363Y-56670457D01*
X134701963Y-56613493D01*
X134636284Y-56544185D01*
X134561756Y-56467031D01*
X134482813Y-56386525D01*
X134403883Y-56307163D01*
X134329400Y-56233440D01*
X134263794Y-56169852D01*
X134211496Y-56120894D01*
X134176939Y-56091061D01*
X134165378Y-56083942D01*
X134146554Y-56093953D01*
X134101531Y-56122078D01*
X134034687Y-56165454D01*
X133950399Y-56221218D01*
X133853044Y-56286506D01*
X133779607Y-56336246D01*
X133408567Y-56588551D01*
X132789995Y-56333555D01*
X132706175Y-55888931D01*
X132622354Y-55444307D01*
X131696906Y-55444307D01*
X131613086Y-55888931D01*
G37*
X131613086Y-55888931D02*
X131529265Y-56333555D01*
X131219980Y-56461053D01*
X130910694Y-56588551D01*
X130539654Y-56336246D01*
X130435743Y-56265996D01*
X130341813Y-56203272D01*
X130262248Y-56150938D01*
X130201430Y-56111857D01*
X130163743Y-56088893D01*
X130153479Y-56083942D01*
X130134990Y-56096676D01*
X130095480Y-56131882D01*
X130039378Y-56185062D01*
X129971113Y-56251718D01*
X129895114Y-56327354D01*
X129815808Y-56407472D01*
X129737625Y-56487574D01*
X129664993Y-56563164D01*
X129602341Y-56629745D01*
X129554097Y-56682818D01*
X129524690Y-56717887D01*
X129517659Y-56729623D01*
X129527777Y-56751260D01*
X129556141Y-56798662D01*
X129599771Y-56867193D01*
X129655682Y-56952215D01*
X129720894Y-57049093D01*
X129758681Y-57104350D01*
X129827557Y-57205248D01*
X129888760Y-57296299D01*
X129939322Y-57372970D01*
X129976272Y-57430728D01*
X129996642Y-57465043D01*
X129999703Y-57472254D01*
X129992764Y-57492748D01*
X129973849Y-57540513D01*
X129945813Y-57608832D01*
X129911509Y-57690989D01*
X129873791Y-57780270D01*
X129835513Y-57869958D01*
X129799530Y-57953338D01*
X129768694Y-58023694D01*
X129745861Y-58074310D01*
X129733883Y-58098471D01*
X129733176Y-58099422D01*
X129714369Y-58104036D01*
X129664282Y-58114328D01*
X129588107Y-58129287D01*
X129491035Y-58147901D01*
X129378257Y-58169159D01*
X129312458Y-58181418D01*
X129191950Y-58204362D01*
X129083103Y-58226195D01*
X128991424Y-58245722D01*
X128922419Y-58261748D01*
X128881596Y-58273079D01*
X128873389Y-58276674D01*
X128865352Y-58301006D01*
X128858867Y-58355959D01*
X128853930Y-58435108D01*
X128850536Y-58532026D01*
X128848682Y-58640287D01*
X128848362Y-58753465D01*
X128849573Y-58865135D01*
X128852310Y-58968868D01*
X128856569Y-59058241D01*
X128862345Y-59126826D01*
X128869633Y-59168197D01*
X128874005Y-59176810D01*
X128900136Y-59187133D01*
X128955507Y-59201892D01*
X129032793Y-59219352D01*
X129124670Y-59237780D01*
X129156742Y-59243741D01*
X129311376Y-59272066D01*
X129433525Y-59294876D01*
X129527227Y-59313080D01*
X129596516Y-59327583D01*
X129645429Y-59339292D01*
X129678003Y-59349115D01*
X129698272Y-59357956D01*
X129710274Y-59366724D01*
X129711953Y-59368457D01*
X129728716Y-59396371D01*
X129754286Y-59450695D01*
X129786112Y-59524777D01*
X129821640Y-59611965D01*
X129858317Y-59705608D01*
X129893589Y-59799052D01*
X129924904Y-59885647D01*
X129949707Y-59958740D01*
X129965446Y-60011678D01*
X129969568Y-60037811D01*
X129969224Y-60038726D01*
X129955259Y-60060086D01*
X129923578Y-60107084D01*
X129877509Y-60174827D01*
X129820382Y-60258423D01*
X129755527Y-60352982D01*
X129737057Y-60379854D01*
X129671201Y-60477275D01*
X129613250Y-60566163D01*
X129566362Y-60641412D01*
X129533693Y-60697920D01*
X129518400Y-60730581D01*
X129517659Y-60734593D01*
X129530508Y-60755684D01*
X129566012Y-60797464D01*
X129619607Y-60855445D01*
X129686729Y-60925135D01*
X129762813Y-61002045D01*
X129843296Y-61081683D01*
X129923613Y-61159561D01*
X129999201Y-61231186D01*
X130065495Y-61292070D01*
X130117931Y-61337721D01*
X130151945Y-61363650D01*
X130161355Y-61367883D01*
X130183257Y-61357912D01*
X130228100Y-61331020D01*
X130288579Y-61291736D01*
X130335111Y-61260117D01*
X130419425Y-61202098D01*
X130519274Y-61133784D01*
X130619427Y-61065579D01*
X130673273Y-61029075D01*
X130855529Y-60905800D01*
X131008519Y-60988520D01*
X131078218Y-61024759D01*
X131137486Y-61052926D01*
X131177589Y-61068991D01*
X131187797Y-61071226D01*
X131200071Y-61054722D01*
X131224287Y-61008082D01*
X131258637Y-60935609D01*
X131301312Y-60841606D01*
X131350506Y-60730374D01*
X131404410Y-60606215D01*
X131461216Y-60473432D01*
X131519118Y-60336327D01*
X131576307Y-60199202D01*
X131630976Y-60066358D01*
X131681316Y-59942098D01*
X131725520Y-59830725D01*
X131761781Y-59736539D01*
X131788291Y-59663844D01*
X131803242Y-59616941D01*
X131805646Y-59600833D01*
X131786589Y-59580286D01*
X131744864Y-59546933D01*
X131689194Y-59507702D01*
X131684522Y-59504599D01*
X131540636Y-59389423D01*
X131424617Y-59255053D01*
X131337470Y-59105784D01*
X131280201Y-58945913D01*
X131253814Y-58779737D01*
X131259315Y-58611552D01*
X131297710Y-58445655D01*
X131370005Y-58286342D01*
X131391274Y-58251487D01*
X131501904Y-58110737D01*
X131632598Y-57997714D01*
X131778836Y-57913003D01*
X131936092Y-57857194D01*
X132099843Y-57830874D01*
X132265567Y-57834630D01*
X132428738Y-57869050D01*
X132584835Y-57934723D01*
X132729333Y-58032235D01*
X132774031Y-58071813D01*
X132887788Y-58195703D01*
X132970682Y-58326124D01*
X133027544Y-58472315D01*
X133059213Y-58617088D01*
X133067031Y-58779860D01*
X133040962Y-58943440D01*
X132983655Y-59102298D01*
X132897756Y-59250906D01*
X132785914Y-59383735D01*
X132650777Y-59495256D01*
X132633017Y-59507011D01*
X132576750Y-59545508D01*
X132533977Y-59578863D01*
X132513528Y-59600160D01*
X132513231Y-59600833D01*
X132517621Y-59623871D01*
X132535024Y-59676157D01*
X132563632Y-59753390D01*
X132601635Y-59851268D01*
X132647226Y-59965491D01*
X132698597Y-60091758D01*
X132753938Y-60225767D01*
X132811442Y-60363218D01*
X132869299Y-60499808D01*
X132925702Y-60631237D01*
X132978842Y-60753205D01*
X133026910Y-60861409D01*
X133068099Y-60951549D01*
X133100599Y-61019323D01*
X133122603Y-61060430D01*
X133131464Y-61071226D01*
X133158540Y-61062819D01*
X133209203Y-61040272D01*
X133274717Y-61007613D01*
X133310741Y-60988520D01*
X133463732Y-60905800D01*
X133645988Y-61029075D01*
X133739025Y-61092228D01*
X133840885Y-61161727D01*
X133936338Y-61227165D01*
X133984150Y-61260117D01*
X134051395Y-61305273D01*
X134108336Y-61341057D01*
X134147546Y-61362938D01*
X134160281Y-61367563D01*
X134178817Y-61355085D01*
X134219841Y-61320252D01*
X134279375Y-61266678D01*
X134353442Y-61197983D01*
X134438065Y-61117781D01*
X134491585Y-61066286D01*
X134585219Y-60974286D01*
X134666141Y-60891999D01*
X134731077Y-60822945D01*
X134776758Y-60770644D01*
X134799911Y-60738616D01*
X134802132Y-60732116D01*
X134791824Y-60707394D01*
X134763339Y-60657405D01*
X134719837Y-60587212D01*
X134664477Y-60501875D01*
X134600420Y-60406456D01*
X134582203Y-60379854D01*
X134515827Y-60283167D01*
X134456278Y-60196117D01*
X134406884Y-60123595D01*
X134370975Y-60070493D01*
X134351881Y-60041703D01*
X134350036Y-60038726D01*
X134352795Y-60015782D01*
X134367438Y-59965336D01*
X134391413Y-59894041D01*
X134422166Y-59808547D01*
X134457144Y-59715507D01*
X134493793Y-59621574D01*
X134529561Y-59533399D01*
X134561894Y-59457634D01*
X134588238Y-59400931D01*
X134606042Y-59369943D01*
X134607307Y-59368457D01*
X134618194Y-59359601D01*
X134636582Y-59350843D01*
X134666506Y-59341277D01*
X134712003Y-59329996D01*
X134777109Y-59316093D01*
X134865861Y-59298663D01*
X134982293Y-59276798D01*
X135130442Y-59249591D01*
X135162518Y-59243741D01*
X135257586Y-59225374D01*
X135340465Y-59207405D01*
X135403830Y-59191569D01*
X135440358Y-59179600D01*
X135445256Y-59176810D01*
X135453327Y-59152072D01*
X135459887Y-59096790D01*
X135464933Y-59017389D01*
X135468459Y-58920296D01*
X135470461Y-58811938D01*
X135470936Y-58698740D01*
X135469877Y-58587128D01*
X135467282Y-58483529D01*
X135463146Y-58394368D01*
X135457463Y-58326072D01*
X135450231Y-58285066D01*
X135445871Y-58276674D01*
X135421598Y-58268208D01*
X135366326Y-58254435D01*
X135285562Y-58236550D01*
X135184812Y-58215748D01*
X135069583Y-58193223D01*
X135006802Y-58181418D01*
X134887687Y-58159151D01*
X134781465Y-58138979D01*
X134693327Y-58121915D01*
X134628466Y-58108969D01*
X134592074Y-58101155D01*
X134586084Y-58099422D01*
X134575961Y-58079890D01*
X134554562Y-58032843D01*
X134524739Y-57965003D01*
X134489345Y-57883091D01*
X134451232Y-57793828D01*
X134413253Y-57703935D01*
X134378260Y-57620135D01*
X134349106Y-57549147D01*
X134328643Y-57497694D01*
X134319723Y-57472497D01*
X134319557Y-57471396D01*
X134329669Y-57451519D01*
X134358017Y-57405777D01*
X134401623Y-57338717D01*
X134457506Y-57254884D01*
X134522687Y-57158826D01*
X134560579Y-57103650D01*
X134629625Y-57002481D01*
X134690950Y-56910630D01*
X134741563Y-56832744D01*
X134778471Y-56773469D01*
X134798682Y-56737451D01*
X134801601Y-56729377D01*
X134789053Y-56710584D01*
X134754363Y-56670457D01*
X134701963Y-56613493D01*
X134636284Y-56544185D01*
X134561756Y-56467031D01*
X134482813Y-56386525D01*
X134403883Y-56307163D01*
X134329400Y-56233440D01*
X134263794Y-56169852D01*
X134211496Y-56120894D01*
X134176939Y-56091061D01*
X134165378Y-56083942D01*
X134146554Y-56093953D01*
X134101531Y-56122078D01*
X134034687Y-56165454D01*
X133950399Y-56221218D01*
X133853044Y-56286506D01*
X133779607Y-56336246D01*
X133408567Y-56588551D01*
X132789995Y-56333555D01*
X132706175Y-55888931D01*
X132622354Y-55444307D01*
X131696906Y-55444307D01*
X131613086Y-55888931D01*
D14*
X84790000Y-66530000D02*
G75*
G03X84090000Y-67230000I0J-700000D01*
G01*
X86090000Y-67230000D02*
G75*
G03X85390000Y-66530000I-700000J0D01*
G01*
X85390000Y-70630000D02*
G75*
G03X86090000Y-69930000I0J700000D01*
G01*
X84090000Y-69930000D02*
G75*
G03X84790000Y-70630000I700000J0D01*
G01*
X84090000Y-67180000D02*
X84090000Y-69980000D01*
X84790000Y-70630000D02*
X85390000Y-70630000D01*
X86090000Y-69980000D02*
X86090000Y-67180000D01*
X85390000Y-66530000D02*
X84790000Y-66530000D01*
D10*
X82742380Y-67746666D02*
X83456666Y-67746666D01*
X83599523Y-67699047D01*
X83694761Y-67603809D01*
X83742380Y-67460952D01*
X83742380Y-67365714D01*
X83742380Y-68222857D02*
X82742380Y-68222857D01*
X82742380Y-68603809D01*
X82790000Y-68699047D01*
X82837619Y-68746666D01*
X82932857Y-68794285D01*
X83075714Y-68794285D01*
X83170952Y-68746666D01*
X83218571Y-68699047D01*
X83266190Y-68603809D01*
X83266190Y-68222857D01*
X83742380Y-69746666D02*
X83742380Y-69175238D01*
X83742380Y-69460952D02*
X82742380Y-69460952D01*
X82885238Y-69365714D01*
X82980476Y-69270476D01*
X83028095Y-69175238D01*
X85542380Y-66265714D02*
X85542380Y-65694285D01*
X85542380Y-65980000D02*
X84542380Y-65980000D01*
X84685238Y-65884761D01*
X84780476Y-65789523D01*
X84828095Y-65694285D01*
X84542380Y-70846666D02*
X84542380Y-71465714D01*
X84923333Y-71132380D01*
X84923333Y-71275238D01*
X84970952Y-71370476D01*
X85018571Y-71418095D01*
X85113809Y-71465714D01*
X85351904Y-71465714D01*
X85447142Y-71418095D01*
X85494761Y-71370476D01*
X85542380Y-71275238D01*
X85542380Y-70989523D01*
X85494761Y-70894285D01*
X85447142Y-70846666D01*
M02*
