G04 #@! TF.GenerationSoftware,KiCad,Pcbnew,5.1.5+dfsg1-2build2*
G04 #@! TF.CreationDate,2021-11-10T16:06:01-05:00*
G04 #@! TF.ProjectId,SINSONTE_MODEL_B,53494e53-4f4e-4544-955f-4d4f44454c5f,rev?*
G04 #@! TF.SameCoordinates,Original*
G04 #@! TF.FileFunction,Copper,L1,Top*
G04 #@! TF.FilePolarity,Positive*
%FSLAX46Y46*%
G04 Gerber Fmt 4.6, Leading zero omitted, Abs format (unit mm)*
G04 Created by KiCad (PCBNEW 5.1.5+dfsg1-2build2) date 2021-11-10 16:06:01*
%MOMM*%
%LPD*%
G04 APERTURE LIST*
%ADD10O,1.700000X1.700000*%
%ADD11R,1.700000X1.700000*%
%ADD12C,1.700000*%
%ADD13R,3.500000X1.700000*%
%ADD14R,1.700000X3.500000*%
%ADD15C,2.400000*%
%ADD16R,2.400000X2.400000*%
%ADD17R,1.100000X1.800000*%
%ADD18C,0.100000*%
%ADD19O,1.400000X1.400000*%
%ADD20C,1.400000*%
%ADD21C,1.600000*%
%ADD22R,1.600000X1.600000*%
%ADD23C,2.000000*%
%ADD24C,0.254000*%
G04 APERTURE END LIST*
D10*
X76568300Y-86423500D03*
D11*
X74028300Y-86423500D03*
D10*
X127190500Y-56642000D03*
D12*
X124650500Y-56642000D03*
D10*
X127190500Y-59182000D03*
D12*
X124650500Y-59182000D03*
D10*
X127190500Y-61722000D03*
D12*
X124650500Y-61722000D03*
D10*
X127190500Y-64262000D03*
D12*
X124650500Y-64262000D03*
D10*
X127190500Y-66802000D03*
D12*
X124650500Y-66802000D03*
D10*
X114490500Y-56642000D03*
D12*
X117030500Y-56642000D03*
D10*
X114490500Y-59182000D03*
D12*
X117030500Y-59182000D03*
D10*
X114490500Y-61722000D03*
D12*
X117030500Y-61722000D03*
D10*
X114490500Y-64262000D03*
D12*
X117030500Y-64262000D03*
D10*
X114490500Y-66802000D03*
D12*
X117030500Y-66802000D03*
D10*
X119570500Y-66802000D03*
X119570500Y-64262000D03*
X119570500Y-61722000D03*
X119570500Y-59182000D03*
D12*
X119570500Y-56642000D03*
D10*
X122110500Y-66802000D03*
X122110500Y-64262000D03*
X122110500Y-61722000D03*
X122110500Y-59182000D03*
D12*
X122110500Y-56642000D03*
D10*
X102130000Y-57570000D03*
X99590000Y-57570000D03*
X97050000Y-57570000D03*
X94510000Y-57570000D03*
X91970000Y-57570000D03*
X89430000Y-57570000D03*
X86890000Y-57570000D03*
X84350000Y-57570000D03*
X81810000Y-57570000D03*
X79270000Y-57570000D03*
X76730000Y-57570000D03*
X74190000Y-57570000D03*
X71650000Y-57570000D03*
X69110000Y-57570000D03*
X66570000Y-57570000D03*
X64030000Y-57570000D03*
X61490000Y-57570000D03*
X58950000Y-57570000D03*
X56410000Y-57570000D03*
D12*
X53870000Y-57570000D03*
D10*
X102130000Y-80430000D03*
X99590000Y-80430000D03*
X97050000Y-80430000D03*
X94510000Y-80430000D03*
X91970000Y-80430000D03*
X89430000Y-80430000D03*
X86890000Y-80430000D03*
X84350000Y-80430000D03*
X81810000Y-80430000D03*
X79270000Y-80430000D03*
X76730000Y-80430000D03*
X74190000Y-80430000D03*
X71650000Y-80430000D03*
X69110000Y-80430000D03*
X66570000Y-80430000D03*
X64030000Y-80430000D03*
X61490000Y-80430000D03*
X58950000Y-80430000D03*
X56410000Y-80430000D03*
D12*
X53870000Y-80430000D03*
D10*
X101900000Y-66460000D03*
D13*
X102800000Y-66460000D03*
D11*
X101900000Y-69000000D03*
D13*
X102800000Y-69000000D03*
D10*
X101900000Y-71540000D03*
D13*
X102800000Y-71540000D03*
D14*
X102130000Y-59210000D03*
X99590000Y-59210000D03*
X97050000Y-59210000D03*
X94510000Y-59210000D03*
X91970000Y-59210000D03*
X89430000Y-59210000D03*
X86890000Y-59210000D03*
X84350000Y-59210000D03*
X81810000Y-59210000D03*
X79270000Y-59210000D03*
X76730000Y-59210000D03*
X74190000Y-59210000D03*
X71650000Y-59210000D03*
X69110000Y-59210000D03*
X66570000Y-59210000D03*
X64030000Y-59210000D03*
X61490000Y-59210000D03*
X58950000Y-59210000D03*
X56410000Y-59210000D03*
X53870000Y-59210000D03*
X102130000Y-78790000D03*
X99590000Y-78790000D03*
X97050000Y-78790000D03*
X94510000Y-78790000D03*
X91970000Y-78790000D03*
X89430000Y-78790000D03*
X86890000Y-78790000D03*
X84350000Y-78790000D03*
X81810000Y-78790000D03*
X79270000Y-78790000D03*
X76730000Y-78790000D03*
X74190000Y-78790000D03*
X71650000Y-78790000D03*
X69110000Y-78790000D03*
X66570000Y-78790000D03*
X64030000Y-78790000D03*
X61490000Y-78790000D03*
X58950000Y-78790000D03*
X56410000Y-78790000D03*
X53870000Y-78790000D03*
D10*
X53870000Y-60110000D03*
X56410000Y-60110000D03*
D11*
X58950000Y-60110000D03*
D10*
X61490000Y-60110000D03*
X64030000Y-60110000D03*
X66570000Y-60110000D03*
X69110000Y-60110000D03*
D11*
X71650000Y-60110000D03*
D10*
X74190000Y-60110000D03*
X76730000Y-60110000D03*
X79270000Y-60110000D03*
X81810000Y-60110000D03*
D11*
X84350000Y-60110000D03*
D10*
X86890000Y-60110000D03*
X89430000Y-60110000D03*
X91970000Y-60110000D03*
X94510000Y-60110000D03*
D11*
X97050000Y-60110000D03*
D10*
X99590000Y-60110000D03*
X102130000Y-60110000D03*
X102130000Y-77890000D03*
X99590000Y-77890000D03*
D11*
X97050000Y-77890000D03*
D10*
X94510000Y-77890000D03*
X91970000Y-77890000D03*
X89430000Y-77890000D03*
X86890000Y-77890000D03*
D11*
X84350000Y-77890000D03*
D10*
X81810000Y-77890000D03*
X79270000Y-77890000D03*
X76730000Y-77890000D03*
X74190000Y-77890000D03*
D11*
X71650000Y-77890000D03*
D10*
X69110000Y-77890000D03*
X66570000Y-77890000D03*
X64030000Y-77890000D03*
X61490000Y-77890000D03*
D11*
X58950000Y-77890000D03*
D10*
X56410000Y-77890000D03*
X53870000Y-77890000D03*
D15*
X65500000Y-86800000D03*
D16*
X62000000Y-86800000D03*
D17*
X106045000Y-56915000D03*
G04 #@! TA.AperFunction,ComponentPad*
D18*
G36*
X108886955Y-56016324D02*
G01*
X108913650Y-56020284D01*
X108939828Y-56026841D01*
X108965238Y-56035933D01*
X108989634Y-56047472D01*
X109012782Y-56061346D01*
X109034458Y-56077422D01*
X109054454Y-56095546D01*
X109072578Y-56115542D01*
X109088654Y-56137218D01*
X109102528Y-56160366D01*
X109114067Y-56184762D01*
X109123159Y-56210172D01*
X109129716Y-56236350D01*
X109133676Y-56263045D01*
X109135000Y-56290000D01*
X109135000Y-57540000D01*
X109133676Y-57566955D01*
X109129716Y-57593650D01*
X109123159Y-57619828D01*
X109114067Y-57645238D01*
X109102528Y-57669634D01*
X109088654Y-57692782D01*
X109072578Y-57714458D01*
X109054454Y-57734454D01*
X109034458Y-57752578D01*
X109012782Y-57768654D01*
X108989634Y-57782528D01*
X108965238Y-57794067D01*
X108939828Y-57803159D01*
X108913650Y-57809716D01*
X108886955Y-57813676D01*
X108860000Y-57815000D01*
X108310000Y-57815000D01*
X108283045Y-57813676D01*
X108256350Y-57809716D01*
X108230172Y-57803159D01*
X108204762Y-57794067D01*
X108180366Y-57782528D01*
X108157218Y-57768654D01*
X108135542Y-57752578D01*
X108115546Y-57734454D01*
X108097422Y-57714458D01*
X108081346Y-57692782D01*
X108067472Y-57669634D01*
X108055933Y-57645238D01*
X108046841Y-57619828D01*
X108040284Y-57593650D01*
X108036324Y-57566955D01*
X108035000Y-57540000D01*
X108035000Y-56290000D01*
X108036324Y-56263045D01*
X108040284Y-56236350D01*
X108046841Y-56210172D01*
X108055933Y-56184762D01*
X108067472Y-56160366D01*
X108081346Y-56137218D01*
X108097422Y-56115542D01*
X108115546Y-56095546D01*
X108135542Y-56077422D01*
X108157218Y-56061346D01*
X108180366Y-56047472D01*
X108204762Y-56035933D01*
X108230172Y-56026841D01*
X108256350Y-56020284D01*
X108283045Y-56016324D01*
X108310000Y-56015000D01*
X108860000Y-56015000D01*
X108886955Y-56016324D01*
G37*
G04 #@! TD.AperFunction*
G04 #@! TA.AperFunction,ComponentPad*
G36*
X107616955Y-53946324D02*
G01*
X107643650Y-53950284D01*
X107669828Y-53956841D01*
X107695238Y-53965933D01*
X107719634Y-53977472D01*
X107742782Y-53991346D01*
X107764458Y-54007422D01*
X107784454Y-54025546D01*
X107802578Y-54045542D01*
X107818654Y-54067218D01*
X107832528Y-54090366D01*
X107844067Y-54114762D01*
X107853159Y-54140172D01*
X107859716Y-54166350D01*
X107863676Y-54193045D01*
X107865000Y-54220000D01*
X107865000Y-55470000D01*
X107863676Y-55496955D01*
X107859716Y-55523650D01*
X107853159Y-55549828D01*
X107844067Y-55575238D01*
X107832528Y-55599634D01*
X107818654Y-55622782D01*
X107802578Y-55644458D01*
X107784454Y-55664454D01*
X107764458Y-55682578D01*
X107742782Y-55698654D01*
X107719634Y-55712528D01*
X107695238Y-55724067D01*
X107669828Y-55733159D01*
X107643650Y-55739716D01*
X107616955Y-55743676D01*
X107590000Y-55745000D01*
X107040000Y-55745000D01*
X107013045Y-55743676D01*
X106986350Y-55739716D01*
X106960172Y-55733159D01*
X106934762Y-55724067D01*
X106910366Y-55712528D01*
X106887218Y-55698654D01*
X106865542Y-55682578D01*
X106845546Y-55664454D01*
X106827422Y-55644458D01*
X106811346Y-55622782D01*
X106797472Y-55599634D01*
X106785933Y-55575238D01*
X106776841Y-55549828D01*
X106770284Y-55523650D01*
X106766324Y-55496955D01*
X106765000Y-55470000D01*
X106765000Y-54220000D01*
X106766324Y-54193045D01*
X106770284Y-54166350D01*
X106776841Y-54140172D01*
X106785933Y-54114762D01*
X106797472Y-54090366D01*
X106811346Y-54067218D01*
X106827422Y-54045542D01*
X106845546Y-54025546D01*
X106865542Y-54007422D01*
X106887218Y-53991346D01*
X106910366Y-53977472D01*
X106934762Y-53965933D01*
X106960172Y-53956841D01*
X106986350Y-53950284D01*
X107013045Y-53946324D01*
X107040000Y-53945000D01*
X107590000Y-53945000D01*
X107616955Y-53946324D01*
G37*
G04 #@! TD.AperFunction*
D17*
X127190500Y-73577500D03*
G04 #@! TA.AperFunction,ComponentPad*
D18*
G36*
X124952455Y-72678824D02*
G01*
X124979150Y-72682784D01*
X125005328Y-72689341D01*
X125030738Y-72698433D01*
X125055134Y-72709972D01*
X125078282Y-72723846D01*
X125099958Y-72739922D01*
X125119954Y-72758046D01*
X125138078Y-72778042D01*
X125154154Y-72799718D01*
X125168028Y-72822866D01*
X125179567Y-72847262D01*
X125188659Y-72872672D01*
X125195216Y-72898850D01*
X125199176Y-72925545D01*
X125200500Y-72952500D01*
X125200500Y-74202500D01*
X125199176Y-74229455D01*
X125195216Y-74256150D01*
X125188659Y-74282328D01*
X125179567Y-74307738D01*
X125168028Y-74332134D01*
X125154154Y-74355282D01*
X125138078Y-74376958D01*
X125119954Y-74396954D01*
X125099958Y-74415078D01*
X125078282Y-74431154D01*
X125055134Y-74445028D01*
X125030738Y-74456567D01*
X125005328Y-74465659D01*
X124979150Y-74472216D01*
X124952455Y-74476176D01*
X124925500Y-74477500D01*
X124375500Y-74477500D01*
X124348545Y-74476176D01*
X124321850Y-74472216D01*
X124295672Y-74465659D01*
X124270262Y-74456567D01*
X124245866Y-74445028D01*
X124222718Y-74431154D01*
X124201042Y-74415078D01*
X124181046Y-74396954D01*
X124162922Y-74376958D01*
X124146846Y-74355282D01*
X124132972Y-74332134D01*
X124121433Y-74307738D01*
X124112341Y-74282328D01*
X124105784Y-74256150D01*
X124101824Y-74229455D01*
X124100500Y-74202500D01*
X124100500Y-72952500D01*
X124101824Y-72925545D01*
X124105784Y-72898850D01*
X124112341Y-72872672D01*
X124121433Y-72847262D01*
X124132972Y-72822866D01*
X124146846Y-72799718D01*
X124162922Y-72778042D01*
X124181046Y-72758046D01*
X124201042Y-72739922D01*
X124222718Y-72723846D01*
X124245866Y-72709972D01*
X124270262Y-72698433D01*
X124295672Y-72689341D01*
X124321850Y-72682784D01*
X124348545Y-72678824D01*
X124375500Y-72677500D01*
X124925500Y-72677500D01*
X124952455Y-72678824D01*
G37*
G04 #@! TD.AperFunction*
G04 #@! TA.AperFunction,ComponentPad*
G36*
X126222455Y-74748824D02*
G01*
X126249150Y-74752784D01*
X126275328Y-74759341D01*
X126300738Y-74768433D01*
X126325134Y-74779972D01*
X126348282Y-74793846D01*
X126369958Y-74809922D01*
X126389954Y-74828046D01*
X126408078Y-74848042D01*
X126424154Y-74869718D01*
X126438028Y-74892866D01*
X126449567Y-74917262D01*
X126458659Y-74942672D01*
X126465216Y-74968850D01*
X126469176Y-74995545D01*
X126470500Y-75022500D01*
X126470500Y-76272500D01*
X126469176Y-76299455D01*
X126465216Y-76326150D01*
X126458659Y-76352328D01*
X126449567Y-76377738D01*
X126438028Y-76402134D01*
X126424154Y-76425282D01*
X126408078Y-76446958D01*
X126389954Y-76466954D01*
X126369958Y-76485078D01*
X126348282Y-76501154D01*
X126325134Y-76515028D01*
X126300738Y-76526567D01*
X126275328Y-76535659D01*
X126249150Y-76542216D01*
X126222455Y-76546176D01*
X126195500Y-76547500D01*
X125645500Y-76547500D01*
X125618545Y-76546176D01*
X125591850Y-76542216D01*
X125565672Y-76535659D01*
X125540262Y-76526567D01*
X125515866Y-76515028D01*
X125492718Y-76501154D01*
X125471042Y-76485078D01*
X125451046Y-76466954D01*
X125432922Y-76446958D01*
X125416846Y-76425282D01*
X125402972Y-76402134D01*
X125391433Y-76377738D01*
X125382341Y-76352328D01*
X125375784Y-76326150D01*
X125371824Y-76299455D01*
X125370500Y-76272500D01*
X125370500Y-75022500D01*
X125371824Y-74995545D01*
X125375784Y-74968850D01*
X125382341Y-74942672D01*
X125391433Y-74917262D01*
X125402972Y-74892866D01*
X125416846Y-74869718D01*
X125432922Y-74848042D01*
X125451046Y-74828046D01*
X125471042Y-74809922D01*
X125492718Y-74793846D01*
X125515866Y-74779972D01*
X125540262Y-74768433D01*
X125565672Y-74759341D01*
X125591850Y-74752784D01*
X125618545Y-74748824D01*
X125645500Y-74747500D01*
X126195500Y-74747500D01*
X126222455Y-74748824D01*
G37*
G04 #@! TD.AperFunction*
D10*
X136525000Y-78676500D03*
X133985000Y-78676500D03*
D11*
X131445000Y-78676500D03*
D19*
X125336300Y-83451700D03*
D20*
X127876300Y-83451700D03*
D19*
X68580000Y-52700000D03*
D20*
X66040000Y-52700000D03*
D21*
X76120000Y-52700000D03*
X71120000Y-52700000D03*
D19*
X109220000Y-78105000D03*
D20*
X106680000Y-78105000D03*
D19*
X107950000Y-67310000D03*
D20*
X107950000Y-64770000D03*
D10*
X106680000Y-72263000D03*
D11*
X109220000Y-72263000D03*
D19*
X105960000Y-52400000D03*
D20*
X108500000Y-52400000D03*
D10*
X111460000Y-52705000D03*
D11*
X114000000Y-52705000D03*
D21*
X101814000Y-53594000D03*
D22*
X99314000Y-53594000D03*
D23*
X132270500Y-63731000D03*
X136770500Y-63731000D03*
X132270500Y-70231000D03*
X136770500Y-70231000D03*
D10*
X136525000Y-74295000D03*
D11*
X133985000Y-74295000D03*
D19*
X122047000Y-70675500D03*
D20*
X119507000Y-70675500D03*
D19*
X121666000Y-77025500D03*
D20*
X119126000Y-77025500D03*
D21*
X120914800Y-83273900D03*
D22*
X118414800Y-83273900D03*
D24*
G36*
X139340001Y-90340000D02*
G01*
X50660000Y-90340000D01*
X50660000Y-86779872D01*
X51765000Y-86779872D01*
X51765000Y-87220128D01*
X51850890Y-87651925D01*
X52019369Y-88058669D01*
X52263962Y-88424729D01*
X52575271Y-88736038D01*
X52941331Y-88980631D01*
X53348075Y-89149110D01*
X53779872Y-89235000D01*
X54220128Y-89235000D01*
X54651925Y-89149110D01*
X55058669Y-88980631D01*
X55424729Y-88736038D01*
X55736038Y-88424729D01*
X55980631Y-88058669D01*
X56149110Y-87651925D01*
X56235000Y-87220128D01*
X56235000Y-86779872D01*
X56149110Y-86348075D01*
X55980631Y-85941331D01*
X55752562Y-85600000D01*
X60161928Y-85600000D01*
X60161928Y-88000000D01*
X60174188Y-88124482D01*
X60210498Y-88244180D01*
X60269463Y-88354494D01*
X60348815Y-88451185D01*
X60445506Y-88530537D01*
X60555820Y-88589502D01*
X60675518Y-88625812D01*
X60800000Y-88638072D01*
X63200000Y-88638072D01*
X63324482Y-88625812D01*
X63444180Y-88589502D01*
X63554494Y-88530537D01*
X63651185Y-88451185D01*
X63730537Y-88354494D01*
X63789502Y-88244180D01*
X63825812Y-88124482D01*
X63830391Y-88077980D01*
X64401626Y-88077980D01*
X64521514Y-88362836D01*
X64845210Y-88523699D01*
X65194069Y-88618322D01*
X65554684Y-88643067D01*
X65913198Y-88596985D01*
X66255833Y-88481846D01*
X66478486Y-88362836D01*
X66598374Y-88077980D01*
X65500000Y-86979605D01*
X64401626Y-88077980D01*
X63830391Y-88077980D01*
X63838072Y-88000000D01*
X63838072Y-87593097D01*
X63937164Y-87778486D01*
X64222020Y-87898374D01*
X65320395Y-86800000D01*
X65679605Y-86800000D01*
X66777980Y-87898374D01*
X67062836Y-87778486D01*
X67223699Y-87454790D01*
X67318322Y-87105931D01*
X67343067Y-86745316D01*
X67296985Y-86386802D01*
X67181846Y-86044167D01*
X67062836Y-85821514D01*
X66777980Y-85701626D01*
X65679605Y-86800000D01*
X65320395Y-86800000D01*
X64222020Y-85701626D01*
X63937164Y-85821514D01*
X63838072Y-86020912D01*
X63838072Y-85600000D01*
X63830392Y-85522020D01*
X64401626Y-85522020D01*
X65500000Y-86620395D01*
X66546894Y-85573500D01*
X72540228Y-85573500D01*
X72540228Y-87273500D01*
X72552488Y-87397982D01*
X72588798Y-87517680D01*
X72647763Y-87627994D01*
X72727115Y-87724685D01*
X72823806Y-87804037D01*
X72934120Y-87863002D01*
X73053818Y-87899312D01*
X73178300Y-87911572D01*
X74878300Y-87911572D01*
X75002782Y-87899312D01*
X75122480Y-87863002D01*
X75232794Y-87804037D01*
X75329485Y-87724685D01*
X75408837Y-87627994D01*
X75467802Y-87517680D01*
X75492266Y-87437034D01*
X75568031Y-87521088D01*
X75801380Y-87695141D01*
X76064201Y-87820325D01*
X76211410Y-87864976D01*
X76441300Y-87743655D01*
X76441300Y-86550500D01*
X76695300Y-86550500D01*
X76695300Y-87743655D01*
X76925190Y-87864976D01*
X77072399Y-87820325D01*
X77335220Y-87695141D01*
X77568569Y-87521088D01*
X77763478Y-87304855D01*
X77912457Y-87054752D01*
X78009781Y-86780391D01*
X78009509Y-86779872D01*
X133765000Y-86779872D01*
X133765000Y-87220128D01*
X133850890Y-87651925D01*
X134019369Y-88058669D01*
X134263962Y-88424729D01*
X134575271Y-88736038D01*
X134941331Y-88980631D01*
X135348075Y-89149110D01*
X135779872Y-89235000D01*
X136220128Y-89235000D01*
X136651925Y-89149110D01*
X137058669Y-88980631D01*
X137424729Y-88736038D01*
X137736038Y-88424729D01*
X137980631Y-88058669D01*
X138149110Y-87651925D01*
X138235000Y-87220128D01*
X138235000Y-86779872D01*
X138149110Y-86348075D01*
X137980631Y-85941331D01*
X137736038Y-85575271D01*
X137424729Y-85263962D01*
X137058669Y-85019369D01*
X136651925Y-84850890D01*
X136220128Y-84765000D01*
X135779872Y-84765000D01*
X135348075Y-84850890D01*
X134941331Y-85019369D01*
X134575271Y-85263962D01*
X134263962Y-85575271D01*
X134019369Y-85941331D01*
X133850890Y-86348075D01*
X133765000Y-86779872D01*
X78009509Y-86779872D01*
X77889114Y-86550500D01*
X76695300Y-86550500D01*
X76441300Y-86550500D01*
X76421300Y-86550500D01*
X76421300Y-86296500D01*
X76441300Y-86296500D01*
X76441300Y-85103345D01*
X76695300Y-85103345D01*
X76695300Y-86296500D01*
X77889114Y-86296500D01*
X78009781Y-86066609D01*
X77912457Y-85792248D01*
X77763478Y-85542145D01*
X77568569Y-85325912D01*
X77335220Y-85151859D01*
X77072399Y-85026675D01*
X76925190Y-84982024D01*
X76695300Y-85103345D01*
X76441300Y-85103345D01*
X76211410Y-84982024D01*
X76064201Y-85026675D01*
X75801380Y-85151859D01*
X75568031Y-85325912D01*
X75492266Y-85409966D01*
X75467802Y-85329320D01*
X75408837Y-85219006D01*
X75329485Y-85122315D01*
X75232794Y-85042963D01*
X75122480Y-84983998D01*
X75002782Y-84947688D01*
X74878300Y-84935428D01*
X73178300Y-84935428D01*
X73053818Y-84947688D01*
X72934120Y-84983998D01*
X72823806Y-85042963D01*
X72727115Y-85122315D01*
X72647763Y-85219006D01*
X72588798Y-85329320D01*
X72552488Y-85449018D01*
X72540228Y-85573500D01*
X66546894Y-85573500D01*
X66598374Y-85522020D01*
X66478486Y-85237164D01*
X66154790Y-85076301D01*
X65805931Y-84981678D01*
X65445316Y-84956933D01*
X65086802Y-85003015D01*
X64744167Y-85118154D01*
X64521514Y-85237164D01*
X64401626Y-85522020D01*
X63830392Y-85522020D01*
X63825812Y-85475518D01*
X63789502Y-85355820D01*
X63730537Y-85245506D01*
X63651185Y-85148815D01*
X63554494Y-85069463D01*
X63444180Y-85010498D01*
X63324482Y-84974188D01*
X63200000Y-84961928D01*
X60800000Y-84961928D01*
X60675518Y-84974188D01*
X60555820Y-85010498D01*
X60445506Y-85069463D01*
X60348815Y-85148815D01*
X60269463Y-85245506D01*
X60210498Y-85355820D01*
X60174188Y-85475518D01*
X60161928Y-85600000D01*
X55752562Y-85600000D01*
X55736038Y-85575271D01*
X55424729Y-85263962D01*
X55058669Y-85019369D01*
X54651925Y-84850890D01*
X54220128Y-84765000D01*
X53779872Y-84765000D01*
X53348075Y-84850890D01*
X52941331Y-85019369D01*
X52575271Y-85263962D01*
X52263962Y-85575271D01*
X52019369Y-85941331D01*
X51850890Y-86348075D01*
X51765000Y-86779872D01*
X50660000Y-86779872D01*
X50660000Y-82473900D01*
X116976728Y-82473900D01*
X116976728Y-84073900D01*
X116988988Y-84198382D01*
X117025298Y-84318080D01*
X117084263Y-84428394D01*
X117163615Y-84525085D01*
X117260306Y-84604437D01*
X117370620Y-84663402D01*
X117490318Y-84699712D01*
X117614800Y-84711972D01*
X119214800Y-84711972D01*
X119339282Y-84699712D01*
X119458980Y-84663402D01*
X119569294Y-84604437D01*
X119665985Y-84525085D01*
X119745337Y-84428394D01*
X119804302Y-84318080D01*
X119819917Y-84266602D01*
X120101703Y-84266602D01*
X120173286Y-84510571D01*
X120428796Y-84631471D01*
X120702984Y-84700200D01*
X120985312Y-84714117D01*
X121264930Y-84672687D01*
X121531092Y-84577503D01*
X121656314Y-84510571D01*
X121727897Y-84266602D01*
X120914800Y-83453505D01*
X120101703Y-84266602D01*
X119819917Y-84266602D01*
X119840612Y-84198382D01*
X119852872Y-84073900D01*
X119852872Y-84066685D01*
X119922098Y-84086997D01*
X120735195Y-83273900D01*
X121094405Y-83273900D01*
X121907502Y-84086997D01*
X122151471Y-84015414D01*
X122260482Y-83785029D01*
X124043584Y-83785029D01*
X124076253Y-83892744D01*
X124186508Y-84130092D01*
X124340949Y-84341370D01*
X124533640Y-84518459D01*
X124757177Y-84654553D01*
X125002970Y-84744422D01*
X125209300Y-84621901D01*
X125209300Y-83578700D01*
X124166926Y-83578700D01*
X124043584Y-83785029D01*
X122260482Y-83785029D01*
X122272371Y-83759904D01*
X122341100Y-83485716D01*
X122355017Y-83203388D01*
X122342421Y-83118371D01*
X124043584Y-83118371D01*
X124166926Y-83324700D01*
X125209300Y-83324700D01*
X125209300Y-82281499D01*
X125463300Y-82281499D01*
X125463300Y-83324700D01*
X125483300Y-83324700D01*
X125483300Y-83578700D01*
X125463300Y-83578700D01*
X125463300Y-84621901D01*
X125669630Y-84744422D01*
X125915423Y-84654553D01*
X126138960Y-84518459D01*
X126331651Y-84341370D01*
X126486092Y-84130092D01*
X126596347Y-83892744D01*
X126603806Y-83868150D01*
X126693239Y-84084059D01*
X126839338Y-84302713D01*
X127025287Y-84488662D01*
X127243941Y-84634761D01*
X127486895Y-84735396D01*
X127744814Y-84786700D01*
X128007786Y-84786700D01*
X128265705Y-84735396D01*
X128508659Y-84634761D01*
X128727313Y-84488662D01*
X128913262Y-84302713D01*
X129059361Y-84084059D01*
X129159996Y-83841105D01*
X129211300Y-83583186D01*
X129211300Y-83320214D01*
X129159996Y-83062295D01*
X129059361Y-82819341D01*
X128913262Y-82600687D01*
X128727313Y-82414738D01*
X128508659Y-82268639D01*
X128265705Y-82168004D01*
X128007786Y-82116700D01*
X127744814Y-82116700D01*
X127486895Y-82168004D01*
X127243941Y-82268639D01*
X127025287Y-82414738D01*
X126839338Y-82600687D01*
X126693239Y-82819341D01*
X126603806Y-83035250D01*
X126596347Y-83010656D01*
X126486092Y-82773308D01*
X126331651Y-82562030D01*
X126138960Y-82384941D01*
X125915423Y-82248847D01*
X125669630Y-82158978D01*
X125463300Y-82281499D01*
X125209300Y-82281499D01*
X125002970Y-82158978D01*
X124757177Y-82248847D01*
X124533640Y-82384941D01*
X124340949Y-82562030D01*
X124186508Y-82773308D01*
X124076253Y-83010656D01*
X124043584Y-83118371D01*
X122342421Y-83118371D01*
X122313587Y-82923770D01*
X122218403Y-82657608D01*
X122151471Y-82532386D01*
X121907502Y-82460803D01*
X121094405Y-83273900D01*
X120735195Y-83273900D01*
X119922098Y-82460803D01*
X119852872Y-82481115D01*
X119852872Y-82473900D01*
X119840612Y-82349418D01*
X119819918Y-82281198D01*
X120101703Y-82281198D01*
X120914800Y-83094295D01*
X121727897Y-82281198D01*
X121656314Y-82037229D01*
X121400804Y-81916329D01*
X121126616Y-81847600D01*
X120844288Y-81833683D01*
X120564670Y-81875113D01*
X120298508Y-81970297D01*
X120173286Y-82037229D01*
X120101703Y-82281198D01*
X119819918Y-82281198D01*
X119804302Y-82229720D01*
X119745337Y-82119406D01*
X119665985Y-82022715D01*
X119569294Y-81943363D01*
X119458980Y-81884398D01*
X119339282Y-81848088D01*
X119214800Y-81835828D01*
X117614800Y-81835828D01*
X117490318Y-81848088D01*
X117370620Y-81884398D01*
X117260306Y-81943363D01*
X117163615Y-82022715D01*
X117084263Y-82119406D01*
X117025298Y-82229720D01*
X116988988Y-82349418D01*
X116976728Y-82473900D01*
X50660000Y-82473900D01*
X50660000Y-77040000D01*
X52381928Y-77040000D01*
X52381928Y-80540000D01*
X52385000Y-80571192D01*
X52385000Y-80576260D01*
X52385989Y-80581231D01*
X52394188Y-80664482D01*
X52418473Y-80744539D01*
X52442068Y-80863158D01*
X52554010Y-81133411D01*
X52716525Y-81376632D01*
X52923368Y-81583475D01*
X53166589Y-81745990D01*
X53436842Y-81857932D01*
X53723740Y-81915000D01*
X54016260Y-81915000D01*
X54303158Y-81857932D01*
X54573411Y-81745990D01*
X54816632Y-81583475D01*
X55023475Y-81376632D01*
X55140000Y-81202240D01*
X55256525Y-81376632D01*
X55463368Y-81583475D01*
X55706589Y-81745990D01*
X55976842Y-81857932D01*
X56263740Y-81915000D01*
X56556260Y-81915000D01*
X56843158Y-81857932D01*
X57113411Y-81745990D01*
X57356632Y-81583475D01*
X57563475Y-81376632D01*
X57685195Y-81194466D01*
X57754822Y-81311355D01*
X57949731Y-81527588D01*
X58183080Y-81701641D01*
X58445901Y-81826825D01*
X58593110Y-81871476D01*
X58823000Y-81750155D01*
X58823000Y-76563750D01*
X59077000Y-76563750D01*
X59077000Y-81750155D01*
X59306890Y-81871476D01*
X59454099Y-81826825D01*
X59716920Y-81701641D01*
X59950269Y-81527588D01*
X60145178Y-81311355D01*
X60214805Y-81194466D01*
X60336525Y-81376632D01*
X60543368Y-81583475D01*
X60786589Y-81745990D01*
X61056842Y-81857932D01*
X61343740Y-81915000D01*
X61636260Y-81915000D01*
X61923158Y-81857932D01*
X62193411Y-81745990D01*
X62436632Y-81583475D01*
X62643475Y-81376632D01*
X62760000Y-81202240D01*
X62876525Y-81376632D01*
X63083368Y-81583475D01*
X63326589Y-81745990D01*
X63596842Y-81857932D01*
X63883740Y-81915000D01*
X64176260Y-81915000D01*
X64463158Y-81857932D01*
X64733411Y-81745990D01*
X64976632Y-81583475D01*
X65183475Y-81376632D01*
X65300000Y-81202240D01*
X65416525Y-81376632D01*
X65623368Y-81583475D01*
X65866589Y-81745990D01*
X66136842Y-81857932D01*
X66423740Y-81915000D01*
X66716260Y-81915000D01*
X67003158Y-81857932D01*
X67273411Y-81745990D01*
X67516632Y-81583475D01*
X67723475Y-81376632D01*
X67840000Y-81202240D01*
X67956525Y-81376632D01*
X68163368Y-81583475D01*
X68406589Y-81745990D01*
X68676842Y-81857932D01*
X68963740Y-81915000D01*
X69256260Y-81915000D01*
X69543158Y-81857932D01*
X69813411Y-81745990D01*
X70056632Y-81583475D01*
X70263475Y-81376632D01*
X70385195Y-81194466D01*
X70454822Y-81311355D01*
X70649731Y-81527588D01*
X70883080Y-81701641D01*
X71145901Y-81826825D01*
X71293110Y-81871476D01*
X71523000Y-81750155D01*
X71523000Y-76563750D01*
X71777000Y-76563750D01*
X71777000Y-81750155D01*
X72006890Y-81871476D01*
X72154099Y-81826825D01*
X72416920Y-81701641D01*
X72650269Y-81527588D01*
X72845178Y-81311355D01*
X72914805Y-81194466D01*
X73036525Y-81376632D01*
X73243368Y-81583475D01*
X73486589Y-81745990D01*
X73756842Y-81857932D01*
X74043740Y-81915000D01*
X74336260Y-81915000D01*
X74623158Y-81857932D01*
X74893411Y-81745990D01*
X75136632Y-81583475D01*
X75343475Y-81376632D01*
X75460000Y-81202240D01*
X75576525Y-81376632D01*
X75783368Y-81583475D01*
X76026589Y-81745990D01*
X76296842Y-81857932D01*
X76583740Y-81915000D01*
X76876260Y-81915000D01*
X77163158Y-81857932D01*
X77433411Y-81745990D01*
X77676632Y-81583475D01*
X77883475Y-81376632D01*
X78000000Y-81202240D01*
X78116525Y-81376632D01*
X78323368Y-81583475D01*
X78566589Y-81745990D01*
X78836842Y-81857932D01*
X79123740Y-81915000D01*
X79416260Y-81915000D01*
X79703158Y-81857932D01*
X79973411Y-81745990D01*
X80216632Y-81583475D01*
X80423475Y-81376632D01*
X80540000Y-81202240D01*
X80656525Y-81376632D01*
X80863368Y-81583475D01*
X81106589Y-81745990D01*
X81376842Y-81857932D01*
X81663740Y-81915000D01*
X81956260Y-81915000D01*
X82243158Y-81857932D01*
X82513411Y-81745990D01*
X82756632Y-81583475D01*
X82963475Y-81376632D01*
X83085195Y-81194466D01*
X83154822Y-81311355D01*
X83349731Y-81527588D01*
X83583080Y-81701641D01*
X83845901Y-81826825D01*
X83993110Y-81871476D01*
X84223000Y-81750155D01*
X84223000Y-76563750D01*
X84477000Y-76563750D01*
X84477000Y-81750155D01*
X84706890Y-81871476D01*
X84854099Y-81826825D01*
X85116920Y-81701641D01*
X85350269Y-81527588D01*
X85545178Y-81311355D01*
X85614805Y-81194466D01*
X85736525Y-81376632D01*
X85943368Y-81583475D01*
X86186589Y-81745990D01*
X86456842Y-81857932D01*
X86743740Y-81915000D01*
X87036260Y-81915000D01*
X87323158Y-81857932D01*
X87593411Y-81745990D01*
X87836632Y-81583475D01*
X88043475Y-81376632D01*
X88160000Y-81202240D01*
X88276525Y-81376632D01*
X88483368Y-81583475D01*
X88726589Y-81745990D01*
X88996842Y-81857932D01*
X89283740Y-81915000D01*
X89576260Y-81915000D01*
X89863158Y-81857932D01*
X90133411Y-81745990D01*
X90376632Y-81583475D01*
X90583475Y-81376632D01*
X90700000Y-81202240D01*
X90816525Y-81376632D01*
X91023368Y-81583475D01*
X91266589Y-81745990D01*
X91536842Y-81857932D01*
X91823740Y-81915000D01*
X92116260Y-81915000D01*
X92403158Y-81857932D01*
X92673411Y-81745990D01*
X92916632Y-81583475D01*
X93123475Y-81376632D01*
X93240000Y-81202240D01*
X93356525Y-81376632D01*
X93563368Y-81583475D01*
X93806589Y-81745990D01*
X94076842Y-81857932D01*
X94363740Y-81915000D01*
X94656260Y-81915000D01*
X94943158Y-81857932D01*
X95213411Y-81745990D01*
X95456632Y-81583475D01*
X95663475Y-81376632D01*
X95785195Y-81194466D01*
X95854822Y-81311355D01*
X96049731Y-81527588D01*
X96283080Y-81701641D01*
X96545901Y-81826825D01*
X96693110Y-81871476D01*
X96923000Y-81750155D01*
X96923000Y-76563750D01*
X97177000Y-76563750D01*
X97177000Y-81750155D01*
X97406890Y-81871476D01*
X97554099Y-81826825D01*
X97816920Y-81701641D01*
X98050269Y-81527588D01*
X98245178Y-81311355D01*
X98314805Y-81194466D01*
X98436525Y-81376632D01*
X98643368Y-81583475D01*
X98886589Y-81745990D01*
X99156842Y-81857932D01*
X99443740Y-81915000D01*
X99736260Y-81915000D01*
X100023158Y-81857932D01*
X100293411Y-81745990D01*
X100536632Y-81583475D01*
X100743475Y-81376632D01*
X100860000Y-81202240D01*
X100976525Y-81376632D01*
X101183368Y-81583475D01*
X101426589Y-81745990D01*
X101696842Y-81857932D01*
X101983740Y-81915000D01*
X102276260Y-81915000D01*
X102563158Y-81857932D01*
X102833411Y-81745990D01*
X103076632Y-81583475D01*
X103283475Y-81376632D01*
X103445990Y-81133411D01*
X103557932Y-80863158D01*
X103581527Y-80744539D01*
X103605812Y-80664482D01*
X103614011Y-80581231D01*
X103615000Y-80576260D01*
X103615000Y-80571192D01*
X103618072Y-80540000D01*
X103618072Y-77973514D01*
X105345000Y-77973514D01*
X105345000Y-78236486D01*
X105396304Y-78494405D01*
X105496939Y-78737359D01*
X105643038Y-78956013D01*
X105828987Y-79141962D01*
X106047641Y-79288061D01*
X106290595Y-79388696D01*
X106548514Y-79440000D01*
X106811486Y-79440000D01*
X107069405Y-79388696D01*
X107312359Y-79288061D01*
X107531013Y-79141962D01*
X107716962Y-78956013D01*
X107863061Y-78737359D01*
X107950000Y-78527470D01*
X108036939Y-78737359D01*
X108183038Y-78956013D01*
X108368987Y-79141962D01*
X108587641Y-79288061D01*
X108830595Y-79388696D01*
X109088514Y-79440000D01*
X109351486Y-79440000D01*
X109609405Y-79388696D01*
X109852359Y-79288061D01*
X110071013Y-79141962D01*
X110256962Y-78956013D01*
X110403061Y-78737359D01*
X110503696Y-78494405D01*
X110555000Y-78236486D01*
X110555000Y-77973514D01*
X110503696Y-77715595D01*
X110403061Y-77472641D01*
X110256962Y-77253987D01*
X110071013Y-77068038D01*
X109852359Y-76921939D01*
X109784943Y-76894014D01*
X117791000Y-76894014D01*
X117791000Y-77156986D01*
X117842304Y-77414905D01*
X117942939Y-77657859D01*
X118089038Y-77876513D01*
X118274987Y-78062462D01*
X118493641Y-78208561D01*
X118736595Y-78309196D01*
X118994514Y-78360500D01*
X119257486Y-78360500D01*
X119515405Y-78309196D01*
X119758359Y-78208561D01*
X119977013Y-78062462D01*
X120162962Y-77876513D01*
X120309061Y-77657859D01*
X120396000Y-77447970D01*
X120482939Y-77657859D01*
X120629038Y-77876513D01*
X120814987Y-78062462D01*
X121033641Y-78208561D01*
X121276595Y-78309196D01*
X121534514Y-78360500D01*
X121797486Y-78360500D01*
X122055405Y-78309196D01*
X122298359Y-78208561D01*
X122517013Y-78062462D01*
X122702962Y-77876513D01*
X122736379Y-77826500D01*
X129956928Y-77826500D01*
X129956928Y-79526500D01*
X129969188Y-79650982D01*
X130005498Y-79770680D01*
X130064463Y-79880994D01*
X130143815Y-79977685D01*
X130240506Y-80057037D01*
X130350820Y-80116002D01*
X130470518Y-80152312D01*
X130595000Y-80164572D01*
X132295000Y-80164572D01*
X132419482Y-80152312D01*
X132539180Y-80116002D01*
X132649494Y-80057037D01*
X132746185Y-79977685D01*
X132825537Y-79880994D01*
X132884502Y-79770680D01*
X132906513Y-79698120D01*
X133038368Y-79829975D01*
X133281589Y-79992490D01*
X133551842Y-80104432D01*
X133838740Y-80161500D01*
X134131260Y-80161500D01*
X134418158Y-80104432D01*
X134688411Y-79992490D01*
X134931632Y-79829975D01*
X135138475Y-79623132D01*
X135255000Y-79448740D01*
X135371525Y-79623132D01*
X135578368Y-79829975D01*
X135821589Y-79992490D01*
X136091842Y-80104432D01*
X136378740Y-80161500D01*
X136671260Y-80161500D01*
X136958158Y-80104432D01*
X137228411Y-79992490D01*
X137471632Y-79829975D01*
X137678475Y-79623132D01*
X137840990Y-79379911D01*
X137952932Y-79109658D01*
X138010000Y-78822760D01*
X138010000Y-78530240D01*
X137952932Y-78243342D01*
X137840990Y-77973089D01*
X137678475Y-77729868D01*
X137471632Y-77523025D01*
X137228411Y-77360510D01*
X136958158Y-77248568D01*
X136671260Y-77191500D01*
X136378740Y-77191500D01*
X136091842Y-77248568D01*
X135821589Y-77360510D01*
X135578368Y-77523025D01*
X135371525Y-77729868D01*
X135255000Y-77904260D01*
X135138475Y-77729868D01*
X134931632Y-77523025D01*
X134688411Y-77360510D01*
X134418158Y-77248568D01*
X134131260Y-77191500D01*
X133838740Y-77191500D01*
X133551842Y-77248568D01*
X133281589Y-77360510D01*
X133038368Y-77523025D01*
X132906513Y-77654880D01*
X132884502Y-77582320D01*
X132825537Y-77472006D01*
X132746185Y-77375315D01*
X132649494Y-77295963D01*
X132539180Y-77236998D01*
X132419482Y-77200688D01*
X132295000Y-77188428D01*
X130595000Y-77188428D01*
X130470518Y-77200688D01*
X130350820Y-77236998D01*
X130240506Y-77295963D01*
X130143815Y-77375315D01*
X130064463Y-77472006D01*
X130005498Y-77582320D01*
X129969188Y-77702018D01*
X129956928Y-77826500D01*
X122736379Y-77826500D01*
X122849061Y-77657859D01*
X122949696Y-77414905D01*
X123001000Y-77156986D01*
X123001000Y-76894014D01*
X122949696Y-76636095D01*
X122849061Y-76393141D01*
X122702962Y-76174487D01*
X122517013Y-75988538D01*
X122298359Y-75842439D01*
X122055405Y-75741804D01*
X121797486Y-75690500D01*
X121534514Y-75690500D01*
X121276595Y-75741804D01*
X121033641Y-75842439D01*
X120814987Y-75988538D01*
X120629038Y-76174487D01*
X120482939Y-76393141D01*
X120396000Y-76603030D01*
X120309061Y-76393141D01*
X120162962Y-76174487D01*
X119977013Y-75988538D01*
X119758359Y-75842439D01*
X119515405Y-75741804D01*
X119257486Y-75690500D01*
X118994514Y-75690500D01*
X118736595Y-75741804D01*
X118493641Y-75842439D01*
X118274987Y-75988538D01*
X118089038Y-76174487D01*
X117942939Y-76393141D01*
X117842304Y-76636095D01*
X117791000Y-76894014D01*
X109784943Y-76894014D01*
X109609405Y-76821304D01*
X109351486Y-76770000D01*
X109088514Y-76770000D01*
X108830595Y-76821304D01*
X108587641Y-76921939D01*
X108368987Y-77068038D01*
X108183038Y-77253987D01*
X108036939Y-77472641D01*
X107950000Y-77682530D01*
X107863061Y-77472641D01*
X107716962Y-77253987D01*
X107531013Y-77068038D01*
X107312359Y-76921939D01*
X107069405Y-76821304D01*
X106811486Y-76770000D01*
X106548514Y-76770000D01*
X106290595Y-76821304D01*
X106047641Y-76921939D01*
X105828987Y-77068038D01*
X105643038Y-77253987D01*
X105496939Y-77472641D01*
X105396304Y-77715595D01*
X105345000Y-77973514D01*
X103618072Y-77973514D01*
X103618072Y-77040000D01*
X103605812Y-76915518D01*
X103569502Y-76795820D01*
X103510537Y-76685506D01*
X103431185Y-76588815D01*
X103334494Y-76509463D01*
X103224180Y-76450498D01*
X103104482Y-76414188D01*
X102980000Y-76401928D01*
X101280000Y-76401928D01*
X101155518Y-76414188D01*
X101035820Y-76450498D01*
X100925506Y-76509463D01*
X100860000Y-76563222D01*
X100794494Y-76509463D01*
X100684180Y-76450498D01*
X100564482Y-76414188D01*
X100440000Y-76401928D01*
X98740000Y-76401928D01*
X98615518Y-76414188D01*
X98495820Y-76450498D01*
X98385506Y-76509463D01*
X98320000Y-76563222D01*
X98254494Y-76509463D01*
X98144180Y-76450498D01*
X98024482Y-76414188D01*
X97900000Y-76401928D01*
X97335750Y-76405000D01*
X97177000Y-76563750D01*
X96923000Y-76563750D01*
X96764250Y-76405000D01*
X96200000Y-76401928D01*
X96075518Y-76414188D01*
X95955820Y-76450498D01*
X95845506Y-76509463D01*
X95780000Y-76563222D01*
X95714494Y-76509463D01*
X95604180Y-76450498D01*
X95484482Y-76414188D01*
X95360000Y-76401928D01*
X93660000Y-76401928D01*
X93535518Y-76414188D01*
X93415820Y-76450498D01*
X93305506Y-76509463D01*
X93240000Y-76563222D01*
X93174494Y-76509463D01*
X93064180Y-76450498D01*
X92944482Y-76414188D01*
X92820000Y-76401928D01*
X91120000Y-76401928D01*
X90995518Y-76414188D01*
X90875820Y-76450498D01*
X90765506Y-76509463D01*
X90700000Y-76563222D01*
X90634494Y-76509463D01*
X90524180Y-76450498D01*
X90404482Y-76414188D01*
X90280000Y-76401928D01*
X88580000Y-76401928D01*
X88455518Y-76414188D01*
X88335820Y-76450498D01*
X88225506Y-76509463D01*
X88160000Y-76563222D01*
X88094494Y-76509463D01*
X87984180Y-76450498D01*
X87864482Y-76414188D01*
X87740000Y-76401928D01*
X86040000Y-76401928D01*
X85915518Y-76414188D01*
X85795820Y-76450498D01*
X85685506Y-76509463D01*
X85620000Y-76563222D01*
X85554494Y-76509463D01*
X85444180Y-76450498D01*
X85324482Y-76414188D01*
X85200000Y-76401928D01*
X84635750Y-76405000D01*
X84477000Y-76563750D01*
X84223000Y-76563750D01*
X84064250Y-76405000D01*
X83500000Y-76401928D01*
X83375518Y-76414188D01*
X83255820Y-76450498D01*
X83145506Y-76509463D01*
X83080000Y-76563222D01*
X83014494Y-76509463D01*
X82904180Y-76450498D01*
X82784482Y-76414188D01*
X82660000Y-76401928D01*
X80960000Y-76401928D01*
X80835518Y-76414188D01*
X80715820Y-76450498D01*
X80605506Y-76509463D01*
X80540000Y-76563222D01*
X80474494Y-76509463D01*
X80364180Y-76450498D01*
X80244482Y-76414188D01*
X80120000Y-76401928D01*
X78420000Y-76401928D01*
X78295518Y-76414188D01*
X78175820Y-76450498D01*
X78065506Y-76509463D01*
X78000000Y-76563222D01*
X77934494Y-76509463D01*
X77824180Y-76450498D01*
X77704482Y-76414188D01*
X77580000Y-76401928D01*
X75880000Y-76401928D01*
X75755518Y-76414188D01*
X75635820Y-76450498D01*
X75525506Y-76509463D01*
X75460000Y-76563222D01*
X75394494Y-76509463D01*
X75284180Y-76450498D01*
X75164482Y-76414188D01*
X75040000Y-76401928D01*
X73340000Y-76401928D01*
X73215518Y-76414188D01*
X73095820Y-76450498D01*
X72985506Y-76509463D01*
X72920000Y-76563222D01*
X72854494Y-76509463D01*
X72744180Y-76450498D01*
X72624482Y-76414188D01*
X72500000Y-76401928D01*
X71935750Y-76405000D01*
X71777000Y-76563750D01*
X71523000Y-76563750D01*
X71364250Y-76405000D01*
X70800000Y-76401928D01*
X70675518Y-76414188D01*
X70555820Y-76450498D01*
X70445506Y-76509463D01*
X70380000Y-76563222D01*
X70314494Y-76509463D01*
X70204180Y-76450498D01*
X70084482Y-76414188D01*
X69960000Y-76401928D01*
X68260000Y-76401928D01*
X68135518Y-76414188D01*
X68015820Y-76450498D01*
X67905506Y-76509463D01*
X67840000Y-76563222D01*
X67774494Y-76509463D01*
X67664180Y-76450498D01*
X67544482Y-76414188D01*
X67420000Y-76401928D01*
X65720000Y-76401928D01*
X65595518Y-76414188D01*
X65475820Y-76450498D01*
X65365506Y-76509463D01*
X65300000Y-76563222D01*
X65234494Y-76509463D01*
X65124180Y-76450498D01*
X65004482Y-76414188D01*
X64880000Y-76401928D01*
X63180000Y-76401928D01*
X63055518Y-76414188D01*
X62935820Y-76450498D01*
X62825506Y-76509463D01*
X62760000Y-76563222D01*
X62694494Y-76509463D01*
X62584180Y-76450498D01*
X62464482Y-76414188D01*
X62340000Y-76401928D01*
X60640000Y-76401928D01*
X60515518Y-76414188D01*
X60395820Y-76450498D01*
X60285506Y-76509463D01*
X60220000Y-76563222D01*
X60154494Y-76509463D01*
X60044180Y-76450498D01*
X59924482Y-76414188D01*
X59800000Y-76401928D01*
X59235750Y-76405000D01*
X59077000Y-76563750D01*
X58823000Y-76563750D01*
X58664250Y-76405000D01*
X58100000Y-76401928D01*
X57975518Y-76414188D01*
X57855820Y-76450498D01*
X57745506Y-76509463D01*
X57680000Y-76563222D01*
X57614494Y-76509463D01*
X57504180Y-76450498D01*
X57384482Y-76414188D01*
X57260000Y-76401928D01*
X55560000Y-76401928D01*
X55435518Y-76414188D01*
X55315820Y-76450498D01*
X55205506Y-76509463D01*
X55140000Y-76563222D01*
X55074494Y-76509463D01*
X54964180Y-76450498D01*
X54844482Y-76414188D01*
X54720000Y-76401928D01*
X53020000Y-76401928D01*
X52895518Y-76414188D01*
X52775820Y-76450498D01*
X52665506Y-76509463D01*
X52568815Y-76588815D01*
X52489463Y-76685506D01*
X52430498Y-76795820D01*
X52394188Y-76915518D01*
X52381928Y-77040000D01*
X50660000Y-77040000D01*
X50660000Y-71573816D01*
X52465000Y-71573816D01*
X52465000Y-71876184D01*
X52523989Y-72172743D01*
X52639701Y-72452095D01*
X52807688Y-72703505D01*
X53021495Y-72917312D01*
X53272905Y-73085299D01*
X53552257Y-73201011D01*
X53848816Y-73260000D01*
X54151184Y-73260000D01*
X54447743Y-73201011D01*
X54727095Y-73085299D01*
X54978505Y-72917312D01*
X55192312Y-72703505D01*
X55360299Y-72452095D01*
X55476011Y-72172743D01*
X55535000Y-71876184D01*
X55535000Y-71573816D01*
X55478266Y-71288589D01*
X55645000Y-71288589D01*
X55645000Y-71561411D01*
X55698225Y-71828989D01*
X55802629Y-72081043D01*
X55954201Y-72307886D01*
X56147114Y-72500799D01*
X56373957Y-72652371D01*
X56626011Y-72756775D01*
X56893589Y-72810000D01*
X57166411Y-72810000D01*
X57433989Y-72756775D01*
X57686043Y-72652371D01*
X57912886Y-72500799D01*
X58105799Y-72307886D01*
X58257371Y-72081043D01*
X58361775Y-71828989D01*
X58415000Y-71561411D01*
X58415000Y-71288589D01*
X58361775Y-71021011D01*
X58257371Y-70768957D01*
X58105799Y-70542114D01*
X57912886Y-70349201D01*
X57686043Y-70197629D01*
X57433989Y-70093225D01*
X57166411Y-70040000D01*
X56893589Y-70040000D01*
X56626011Y-70093225D01*
X56373957Y-70197629D01*
X56147114Y-70349201D01*
X55954201Y-70542114D01*
X55802629Y-70768957D01*
X55698225Y-71021011D01*
X55645000Y-71288589D01*
X55478266Y-71288589D01*
X55476011Y-71277257D01*
X55360299Y-70997905D01*
X55192312Y-70746495D01*
X54978505Y-70532688D01*
X54727095Y-70364701D01*
X54447743Y-70248989D01*
X54151184Y-70190000D01*
X53848816Y-70190000D01*
X53552257Y-70248989D01*
X53272905Y-70364701D01*
X53021495Y-70532688D01*
X52807688Y-70746495D01*
X52639701Y-70997905D01*
X52523989Y-71277257D01*
X52465000Y-71573816D01*
X50660000Y-71573816D01*
X50660000Y-66123816D01*
X52465000Y-66123816D01*
X52465000Y-66426184D01*
X52523989Y-66722743D01*
X52639701Y-67002095D01*
X52807688Y-67253505D01*
X53021495Y-67467312D01*
X53272905Y-67635299D01*
X53552257Y-67751011D01*
X53848816Y-67810000D01*
X54151184Y-67810000D01*
X54447743Y-67751011D01*
X54727095Y-67635299D01*
X54978505Y-67467312D01*
X55192312Y-67253505D01*
X55360299Y-67002095D01*
X55476011Y-66722743D01*
X55532532Y-66438589D01*
X55645000Y-66438589D01*
X55645000Y-66711411D01*
X55698225Y-66978989D01*
X55802629Y-67231043D01*
X55954201Y-67457886D01*
X56147114Y-67650799D01*
X56373957Y-67802371D01*
X56626011Y-67906775D01*
X56893589Y-67960000D01*
X57166411Y-67960000D01*
X57433989Y-67906775D01*
X57686043Y-67802371D01*
X57912886Y-67650799D01*
X58105799Y-67457886D01*
X58257371Y-67231043D01*
X58361775Y-66978989D01*
X58415000Y-66711411D01*
X58415000Y-66438589D01*
X58361775Y-66171011D01*
X58257371Y-65918957D01*
X58105799Y-65692114D01*
X58023685Y-65610000D01*
X100411928Y-65610000D01*
X100411928Y-67310000D01*
X100424188Y-67434482D01*
X100460498Y-67554180D01*
X100519463Y-67664494D01*
X100573222Y-67730000D01*
X100519463Y-67795506D01*
X100460498Y-67905820D01*
X100424188Y-68025518D01*
X100411928Y-68150000D01*
X100411928Y-69850000D01*
X100424188Y-69974482D01*
X100460498Y-70094180D01*
X100519463Y-70204494D01*
X100573222Y-70270000D01*
X100519463Y-70335506D01*
X100460498Y-70445820D01*
X100424188Y-70565518D01*
X100411928Y-70690000D01*
X100411928Y-72390000D01*
X100424188Y-72514482D01*
X100460498Y-72634180D01*
X100519463Y-72744494D01*
X100598815Y-72841185D01*
X100695506Y-72920537D01*
X100805820Y-72979502D01*
X100925518Y-73015812D01*
X101050000Y-73028072D01*
X104550000Y-73028072D01*
X104674482Y-73015812D01*
X104794180Y-72979502D01*
X104904494Y-72920537D01*
X105001185Y-72841185D01*
X105080537Y-72744494D01*
X105139502Y-72634180D01*
X105175812Y-72514482D01*
X105188072Y-72390000D01*
X105188072Y-72116740D01*
X105195000Y-72116740D01*
X105195000Y-72409260D01*
X105252068Y-72696158D01*
X105364010Y-72966411D01*
X105526525Y-73209632D01*
X105733368Y-73416475D01*
X105976589Y-73578990D01*
X106246842Y-73690932D01*
X106533740Y-73748000D01*
X106826260Y-73748000D01*
X107113158Y-73690932D01*
X107383411Y-73578990D01*
X107626632Y-73416475D01*
X107758487Y-73284620D01*
X107780498Y-73357180D01*
X107839463Y-73467494D01*
X107918815Y-73564185D01*
X108015506Y-73643537D01*
X108125820Y-73702502D01*
X108245518Y-73738812D01*
X108370000Y-73751072D01*
X110070000Y-73751072D01*
X110194482Y-73738812D01*
X110314180Y-73702502D01*
X110424494Y-73643537D01*
X110521185Y-73564185D01*
X110600537Y-73467494D01*
X110659502Y-73357180D01*
X110695812Y-73237482D01*
X110708072Y-73113000D01*
X110708072Y-72952500D01*
X123462428Y-72952500D01*
X123462428Y-74202500D01*
X123479972Y-74380632D01*
X123531931Y-74551918D01*
X123616308Y-74709776D01*
X123729861Y-74848139D01*
X123868224Y-74961692D01*
X124026082Y-75046069D01*
X124197368Y-75098028D01*
X124375500Y-75115572D01*
X124732428Y-75115572D01*
X124732428Y-76272500D01*
X124749972Y-76450632D01*
X124801931Y-76621918D01*
X124886308Y-76779776D01*
X124999861Y-76918139D01*
X125138224Y-77031692D01*
X125296082Y-77116069D01*
X125467368Y-77168028D01*
X125645500Y-77185572D01*
X126195500Y-77185572D01*
X126373632Y-77168028D01*
X126544918Y-77116069D01*
X126702776Y-77031692D01*
X126841139Y-76918139D01*
X126954692Y-76779776D01*
X127039069Y-76621918D01*
X127091028Y-76450632D01*
X127108572Y-76272500D01*
X127108572Y-75022500D01*
X127091028Y-74844368D01*
X127063500Y-74753620D01*
X127063500Y-73704500D01*
X127317500Y-73704500D01*
X127317500Y-74953750D01*
X127476250Y-75112500D01*
X127740500Y-75115572D01*
X127864982Y-75103312D01*
X127984680Y-75067002D01*
X128094994Y-75008037D01*
X128191685Y-74928685D01*
X128271037Y-74831994D01*
X128330002Y-74721680D01*
X128366312Y-74601982D01*
X128378572Y-74477500D01*
X128375500Y-73863250D01*
X128216750Y-73704500D01*
X127317500Y-73704500D01*
X127063500Y-73704500D01*
X126164250Y-73704500D01*
X126005500Y-73863250D01*
X126004269Y-74109428D01*
X125838572Y-74109428D01*
X125838572Y-72952500D01*
X125821028Y-72774368D01*
X125791644Y-72677500D01*
X126002428Y-72677500D01*
X126005500Y-73291750D01*
X126164250Y-73450500D01*
X127063500Y-73450500D01*
X127063500Y-72201250D01*
X127317500Y-72201250D01*
X127317500Y-73450500D01*
X128216750Y-73450500D01*
X128222250Y-73445000D01*
X132496928Y-73445000D01*
X132496928Y-75145000D01*
X132509188Y-75269482D01*
X132545498Y-75389180D01*
X132604463Y-75499494D01*
X132683815Y-75596185D01*
X132780506Y-75675537D01*
X132890820Y-75734502D01*
X133010518Y-75770812D01*
X133135000Y-75783072D01*
X134835000Y-75783072D01*
X134959482Y-75770812D01*
X135079180Y-75734502D01*
X135189494Y-75675537D01*
X135286185Y-75596185D01*
X135365537Y-75499494D01*
X135424502Y-75389180D01*
X135446513Y-75316620D01*
X135578368Y-75448475D01*
X135821589Y-75610990D01*
X136091842Y-75722932D01*
X136378740Y-75780000D01*
X136671260Y-75780000D01*
X136958158Y-75722932D01*
X137228411Y-75610990D01*
X137471632Y-75448475D01*
X137678475Y-75241632D01*
X137840990Y-74998411D01*
X137952932Y-74728158D01*
X138010000Y-74441260D01*
X138010000Y-74148740D01*
X137952932Y-73861842D01*
X137840990Y-73591589D01*
X137678475Y-73348368D01*
X137471632Y-73141525D01*
X137228411Y-72979010D01*
X136958158Y-72867068D01*
X136671260Y-72810000D01*
X136378740Y-72810000D01*
X136091842Y-72867068D01*
X135821589Y-72979010D01*
X135578368Y-73141525D01*
X135446513Y-73273380D01*
X135424502Y-73200820D01*
X135365537Y-73090506D01*
X135286185Y-72993815D01*
X135189494Y-72914463D01*
X135079180Y-72855498D01*
X134959482Y-72819188D01*
X134835000Y-72806928D01*
X133135000Y-72806928D01*
X133010518Y-72819188D01*
X132890820Y-72855498D01*
X132780506Y-72914463D01*
X132683815Y-72993815D01*
X132604463Y-73090506D01*
X132545498Y-73200820D01*
X132509188Y-73320518D01*
X132496928Y-73445000D01*
X128222250Y-73445000D01*
X128375500Y-73291750D01*
X128378572Y-72677500D01*
X128366312Y-72553018D01*
X128330002Y-72433320D01*
X128271037Y-72323006D01*
X128191685Y-72226315D01*
X128094994Y-72146963D01*
X127984680Y-72087998D01*
X127864982Y-72051688D01*
X127740500Y-72039428D01*
X127476250Y-72042500D01*
X127317500Y-72201250D01*
X127063500Y-72201250D01*
X126904750Y-72042500D01*
X126640500Y-72039428D01*
X126516018Y-72051688D01*
X126396320Y-72087998D01*
X126286006Y-72146963D01*
X126189315Y-72226315D01*
X126109963Y-72323006D01*
X126050998Y-72433320D01*
X126014688Y-72553018D01*
X126002428Y-72677500D01*
X125791644Y-72677500D01*
X125769069Y-72603082D01*
X125684692Y-72445224D01*
X125571139Y-72306861D01*
X125432776Y-72193308D01*
X125274918Y-72108931D01*
X125103632Y-72056972D01*
X124925500Y-72039428D01*
X124375500Y-72039428D01*
X124197368Y-72056972D01*
X124026082Y-72108931D01*
X123868224Y-72193308D01*
X123729861Y-72306861D01*
X123616308Y-72445224D01*
X123531931Y-72603082D01*
X123479972Y-72774368D01*
X123462428Y-72952500D01*
X110708072Y-72952500D01*
X110708072Y-71413000D01*
X110695812Y-71288518D01*
X110659502Y-71168820D01*
X110600537Y-71058506D01*
X110521185Y-70961815D01*
X110424494Y-70882463D01*
X110314180Y-70823498D01*
X110194482Y-70787188D01*
X110070000Y-70774928D01*
X108370000Y-70774928D01*
X108245518Y-70787188D01*
X108125820Y-70823498D01*
X108015506Y-70882463D01*
X107918815Y-70961815D01*
X107839463Y-71058506D01*
X107780498Y-71168820D01*
X107758487Y-71241380D01*
X107626632Y-71109525D01*
X107383411Y-70947010D01*
X107113158Y-70835068D01*
X106826260Y-70778000D01*
X106533740Y-70778000D01*
X106246842Y-70835068D01*
X105976589Y-70947010D01*
X105733368Y-71109525D01*
X105526525Y-71316368D01*
X105364010Y-71559589D01*
X105252068Y-71829842D01*
X105195000Y-72116740D01*
X105188072Y-72116740D01*
X105188072Y-70690000D01*
X105175812Y-70565518D01*
X105169289Y-70544014D01*
X118172000Y-70544014D01*
X118172000Y-70806986D01*
X118223304Y-71064905D01*
X118323939Y-71307859D01*
X118470038Y-71526513D01*
X118655987Y-71712462D01*
X118874641Y-71858561D01*
X119117595Y-71959196D01*
X119375514Y-72010500D01*
X119638486Y-72010500D01*
X119896405Y-71959196D01*
X120139359Y-71858561D01*
X120358013Y-71712462D01*
X120543962Y-71526513D01*
X120690061Y-71307859D01*
X120777000Y-71097970D01*
X120863939Y-71307859D01*
X121010038Y-71526513D01*
X121195987Y-71712462D01*
X121414641Y-71858561D01*
X121657595Y-71959196D01*
X121915514Y-72010500D01*
X122178486Y-72010500D01*
X122436405Y-71959196D01*
X122679359Y-71858561D01*
X122898013Y-71712462D01*
X123083962Y-71526513D01*
X123230061Y-71307859D01*
X123330696Y-71064905D01*
X123382000Y-70806986D01*
X123382000Y-70544014D01*
X123330696Y-70286095D01*
X123241173Y-70069967D01*
X130635500Y-70069967D01*
X130635500Y-70392033D01*
X130698332Y-70707912D01*
X130821582Y-71005463D01*
X131000513Y-71273252D01*
X131228248Y-71500987D01*
X131496037Y-71679918D01*
X131793588Y-71803168D01*
X132109467Y-71866000D01*
X132431533Y-71866000D01*
X132747412Y-71803168D01*
X133044963Y-71679918D01*
X133312752Y-71500987D01*
X133540487Y-71273252D01*
X133719418Y-71005463D01*
X133842668Y-70707912D01*
X133905500Y-70392033D01*
X133905500Y-70069967D01*
X135135500Y-70069967D01*
X135135500Y-70392033D01*
X135198332Y-70707912D01*
X135321582Y-71005463D01*
X135500513Y-71273252D01*
X135728248Y-71500987D01*
X135996037Y-71679918D01*
X136293588Y-71803168D01*
X136609467Y-71866000D01*
X136931533Y-71866000D01*
X137247412Y-71803168D01*
X137544963Y-71679918D01*
X137812752Y-71500987D01*
X138040487Y-71273252D01*
X138219418Y-71005463D01*
X138342668Y-70707912D01*
X138405500Y-70392033D01*
X138405500Y-70069967D01*
X138342668Y-69754088D01*
X138219418Y-69456537D01*
X138040487Y-69188748D01*
X137812752Y-68961013D01*
X137544963Y-68782082D01*
X137247412Y-68658832D01*
X136931533Y-68596000D01*
X136609467Y-68596000D01*
X136293588Y-68658832D01*
X135996037Y-68782082D01*
X135728248Y-68961013D01*
X135500513Y-69188748D01*
X135321582Y-69456537D01*
X135198332Y-69754088D01*
X135135500Y-70069967D01*
X133905500Y-70069967D01*
X133842668Y-69754088D01*
X133719418Y-69456537D01*
X133540487Y-69188748D01*
X133312752Y-68961013D01*
X133044963Y-68782082D01*
X132747412Y-68658832D01*
X132431533Y-68596000D01*
X132109467Y-68596000D01*
X131793588Y-68658832D01*
X131496037Y-68782082D01*
X131228248Y-68961013D01*
X131000513Y-69188748D01*
X130821582Y-69456537D01*
X130698332Y-69754088D01*
X130635500Y-70069967D01*
X123241173Y-70069967D01*
X123230061Y-70043141D01*
X123083962Y-69824487D01*
X122898013Y-69638538D01*
X122679359Y-69492439D01*
X122436405Y-69391804D01*
X122178486Y-69340500D01*
X121915514Y-69340500D01*
X121657595Y-69391804D01*
X121414641Y-69492439D01*
X121195987Y-69638538D01*
X121010038Y-69824487D01*
X120863939Y-70043141D01*
X120777000Y-70253030D01*
X120690061Y-70043141D01*
X120543962Y-69824487D01*
X120358013Y-69638538D01*
X120139359Y-69492439D01*
X119896405Y-69391804D01*
X119638486Y-69340500D01*
X119375514Y-69340500D01*
X119117595Y-69391804D01*
X118874641Y-69492439D01*
X118655987Y-69638538D01*
X118470038Y-69824487D01*
X118323939Y-70043141D01*
X118223304Y-70286095D01*
X118172000Y-70544014D01*
X105169289Y-70544014D01*
X105139502Y-70445820D01*
X105080537Y-70335506D01*
X105026778Y-70270000D01*
X105080537Y-70204494D01*
X105139502Y-70094180D01*
X105175812Y-69974482D01*
X105188072Y-69850000D01*
X105188072Y-68150000D01*
X105175812Y-68025518D01*
X105139502Y-67905820D01*
X105080537Y-67795506D01*
X105026778Y-67730000D01*
X105080537Y-67664494D01*
X105139502Y-67554180D01*
X105175812Y-67434482D01*
X105188072Y-67310000D01*
X105188072Y-67178514D01*
X106615000Y-67178514D01*
X106615000Y-67441486D01*
X106666304Y-67699405D01*
X106766939Y-67942359D01*
X106913038Y-68161013D01*
X107098987Y-68346962D01*
X107317641Y-68493061D01*
X107560595Y-68593696D01*
X107818514Y-68645000D01*
X108081486Y-68645000D01*
X108339405Y-68593696D01*
X108582359Y-68493061D01*
X108801013Y-68346962D01*
X108986962Y-68161013D01*
X109133061Y-67942359D01*
X109233696Y-67699405D01*
X109285000Y-67441486D01*
X109285000Y-67178514D01*
X109233696Y-66920595D01*
X109133061Y-66677641D01*
X108986962Y-66458987D01*
X108801013Y-66273038D01*
X108582359Y-66126939D01*
X108368556Y-66038379D01*
X108531366Y-65978935D01*
X108632203Y-65925037D01*
X108691664Y-65691269D01*
X107950000Y-64949605D01*
X107208336Y-65691269D01*
X107267797Y-65925037D01*
X107506242Y-66035934D01*
X107525827Y-66040706D01*
X107317641Y-66126939D01*
X107098987Y-66273038D01*
X106913038Y-66458987D01*
X106766939Y-66677641D01*
X106666304Y-66920595D01*
X106615000Y-67178514D01*
X105188072Y-67178514D01*
X105188072Y-65610000D01*
X105175812Y-65485518D01*
X105139502Y-65365820D01*
X105080537Y-65255506D01*
X105001185Y-65158815D01*
X104904494Y-65079463D01*
X104794180Y-65020498D01*
X104674482Y-64984188D01*
X104550000Y-64971928D01*
X101050000Y-64971928D01*
X100925518Y-64984188D01*
X100805820Y-65020498D01*
X100695506Y-65079463D01*
X100598815Y-65158815D01*
X100519463Y-65255506D01*
X100460498Y-65365820D01*
X100424188Y-65485518D01*
X100411928Y-65610000D01*
X58023685Y-65610000D01*
X57912886Y-65499201D01*
X57686043Y-65347629D01*
X57433989Y-65243225D01*
X57166411Y-65190000D01*
X56893589Y-65190000D01*
X56626011Y-65243225D01*
X56373957Y-65347629D01*
X56147114Y-65499201D01*
X55954201Y-65692114D01*
X55802629Y-65918957D01*
X55698225Y-66171011D01*
X55645000Y-66438589D01*
X55532532Y-66438589D01*
X55535000Y-66426184D01*
X55535000Y-66123816D01*
X55476011Y-65827257D01*
X55360299Y-65547905D01*
X55192312Y-65296495D01*
X54978505Y-65082688D01*
X54727095Y-64914701D01*
X54557551Y-64844473D01*
X106610610Y-64844473D01*
X106650875Y-65104344D01*
X106741065Y-65351366D01*
X106794963Y-65452203D01*
X107028731Y-65511664D01*
X107770395Y-64770000D01*
X108129605Y-64770000D01*
X108871269Y-65511664D01*
X109105037Y-65452203D01*
X109215934Y-65213758D01*
X109278183Y-64958260D01*
X109289390Y-64695527D01*
X109249125Y-64435656D01*
X109158935Y-64188634D01*
X109105037Y-64087797D01*
X108871269Y-64028336D01*
X108129605Y-64770000D01*
X107770395Y-64770000D01*
X107028731Y-64028336D01*
X106794963Y-64087797D01*
X106684066Y-64326242D01*
X106621817Y-64581740D01*
X106610610Y-64844473D01*
X54557551Y-64844473D01*
X54447743Y-64798989D01*
X54151184Y-64740000D01*
X53848816Y-64740000D01*
X53552257Y-64798989D01*
X53272905Y-64914701D01*
X53021495Y-65082688D01*
X52807688Y-65296495D01*
X52639701Y-65547905D01*
X52523989Y-65827257D01*
X52465000Y-66123816D01*
X50660000Y-66123816D01*
X50660000Y-63848731D01*
X107208336Y-63848731D01*
X107950000Y-64590395D01*
X108691664Y-63848731D01*
X108632203Y-63614963D01*
X108393758Y-63504066D01*
X108138260Y-63441817D01*
X107875527Y-63430610D01*
X107615656Y-63470875D01*
X107368634Y-63561065D01*
X107267797Y-63614963D01*
X107208336Y-63848731D01*
X50660000Y-63848731D01*
X50660000Y-53779872D01*
X51765000Y-53779872D01*
X51765000Y-54220128D01*
X51850890Y-54651925D01*
X52019369Y-55058669D01*
X52263962Y-55424729D01*
X52575271Y-55736038D01*
X52941331Y-55980631D01*
X53348075Y-56149110D01*
X53396558Y-56158754D01*
X53166589Y-56254010D01*
X52923368Y-56416525D01*
X52716525Y-56623368D01*
X52554010Y-56866589D01*
X52442068Y-57136842D01*
X52418473Y-57255461D01*
X52394188Y-57335518D01*
X52385989Y-57418769D01*
X52385000Y-57423740D01*
X52385000Y-57428808D01*
X52381928Y-57460000D01*
X52381928Y-60960000D01*
X52394188Y-61084482D01*
X52430498Y-61204180D01*
X52489463Y-61314494D01*
X52568815Y-61411185D01*
X52665506Y-61490537D01*
X52775820Y-61549502D01*
X52895518Y-61585812D01*
X53020000Y-61598072D01*
X54720000Y-61598072D01*
X54844482Y-61585812D01*
X54964180Y-61549502D01*
X55074494Y-61490537D01*
X55140000Y-61436778D01*
X55205506Y-61490537D01*
X55315820Y-61549502D01*
X55435518Y-61585812D01*
X55560000Y-61598072D01*
X57260000Y-61598072D01*
X57384482Y-61585812D01*
X57504180Y-61549502D01*
X57614494Y-61490537D01*
X57680000Y-61436778D01*
X57745506Y-61490537D01*
X57855820Y-61549502D01*
X57975518Y-61585812D01*
X58100000Y-61598072D01*
X58664250Y-61595000D01*
X58823000Y-61436250D01*
X58823000Y-56249845D01*
X59077000Y-56249845D01*
X59077000Y-61436250D01*
X59235750Y-61595000D01*
X59800000Y-61598072D01*
X59924482Y-61585812D01*
X60044180Y-61549502D01*
X60154494Y-61490537D01*
X60220000Y-61436778D01*
X60285506Y-61490537D01*
X60395820Y-61549502D01*
X60515518Y-61585812D01*
X60640000Y-61598072D01*
X62340000Y-61598072D01*
X62464482Y-61585812D01*
X62584180Y-61549502D01*
X62694494Y-61490537D01*
X62760000Y-61436778D01*
X62825506Y-61490537D01*
X62935820Y-61549502D01*
X63055518Y-61585812D01*
X63180000Y-61598072D01*
X64880000Y-61598072D01*
X65004482Y-61585812D01*
X65124180Y-61549502D01*
X65234494Y-61490537D01*
X65300000Y-61436778D01*
X65365506Y-61490537D01*
X65475820Y-61549502D01*
X65595518Y-61585812D01*
X65720000Y-61598072D01*
X67420000Y-61598072D01*
X67544482Y-61585812D01*
X67664180Y-61549502D01*
X67774494Y-61490537D01*
X67840000Y-61436778D01*
X67905506Y-61490537D01*
X68015820Y-61549502D01*
X68135518Y-61585812D01*
X68260000Y-61598072D01*
X69960000Y-61598072D01*
X70084482Y-61585812D01*
X70204180Y-61549502D01*
X70314494Y-61490537D01*
X70380000Y-61436778D01*
X70445506Y-61490537D01*
X70555820Y-61549502D01*
X70675518Y-61585812D01*
X70800000Y-61598072D01*
X71364250Y-61595000D01*
X71523000Y-61436250D01*
X71523000Y-56249845D01*
X71777000Y-56249845D01*
X71777000Y-61436250D01*
X71935750Y-61595000D01*
X72500000Y-61598072D01*
X72624482Y-61585812D01*
X72744180Y-61549502D01*
X72854494Y-61490537D01*
X72920000Y-61436778D01*
X72985506Y-61490537D01*
X73095820Y-61549502D01*
X73215518Y-61585812D01*
X73340000Y-61598072D01*
X75040000Y-61598072D01*
X75164482Y-61585812D01*
X75284180Y-61549502D01*
X75394494Y-61490537D01*
X75460000Y-61436778D01*
X75525506Y-61490537D01*
X75635820Y-61549502D01*
X75755518Y-61585812D01*
X75880000Y-61598072D01*
X77580000Y-61598072D01*
X77704482Y-61585812D01*
X77824180Y-61549502D01*
X77934494Y-61490537D01*
X78000000Y-61436778D01*
X78065506Y-61490537D01*
X78175820Y-61549502D01*
X78295518Y-61585812D01*
X78420000Y-61598072D01*
X80120000Y-61598072D01*
X80244482Y-61585812D01*
X80364180Y-61549502D01*
X80474494Y-61490537D01*
X80540000Y-61436778D01*
X80605506Y-61490537D01*
X80715820Y-61549502D01*
X80835518Y-61585812D01*
X80960000Y-61598072D01*
X82660000Y-61598072D01*
X82784482Y-61585812D01*
X82904180Y-61549502D01*
X83014494Y-61490537D01*
X83080000Y-61436778D01*
X83145506Y-61490537D01*
X83255820Y-61549502D01*
X83375518Y-61585812D01*
X83500000Y-61598072D01*
X84064250Y-61595000D01*
X84223000Y-61436250D01*
X84223000Y-56249845D01*
X84477000Y-56249845D01*
X84477000Y-61436250D01*
X84635750Y-61595000D01*
X85200000Y-61598072D01*
X85324482Y-61585812D01*
X85444180Y-61549502D01*
X85554494Y-61490537D01*
X85620000Y-61436778D01*
X85685506Y-61490537D01*
X85795820Y-61549502D01*
X85915518Y-61585812D01*
X86040000Y-61598072D01*
X87740000Y-61598072D01*
X87864482Y-61585812D01*
X87984180Y-61549502D01*
X88094494Y-61490537D01*
X88160000Y-61436778D01*
X88225506Y-61490537D01*
X88335820Y-61549502D01*
X88455518Y-61585812D01*
X88580000Y-61598072D01*
X90280000Y-61598072D01*
X90404482Y-61585812D01*
X90524180Y-61549502D01*
X90634494Y-61490537D01*
X90700000Y-61436778D01*
X90765506Y-61490537D01*
X90875820Y-61549502D01*
X90995518Y-61585812D01*
X91120000Y-61598072D01*
X92820000Y-61598072D01*
X92944482Y-61585812D01*
X93064180Y-61549502D01*
X93174494Y-61490537D01*
X93240000Y-61436778D01*
X93305506Y-61490537D01*
X93415820Y-61549502D01*
X93535518Y-61585812D01*
X93660000Y-61598072D01*
X95360000Y-61598072D01*
X95484482Y-61585812D01*
X95604180Y-61549502D01*
X95714494Y-61490537D01*
X95780000Y-61436778D01*
X95845506Y-61490537D01*
X95955820Y-61549502D01*
X96075518Y-61585812D01*
X96200000Y-61598072D01*
X96764250Y-61595000D01*
X96923000Y-61436250D01*
X96923000Y-56249845D01*
X97177000Y-56249845D01*
X97177000Y-61436250D01*
X97335750Y-61595000D01*
X97900000Y-61598072D01*
X98024482Y-61585812D01*
X98144180Y-61549502D01*
X98254494Y-61490537D01*
X98320000Y-61436778D01*
X98385506Y-61490537D01*
X98495820Y-61549502D01*
X98615518Y-61585812D01*
X98740000Y-61598072D01*
X100440000Y-61598072D01*
X100564482Y-61585812D01*
X100684180Y-61549502D01*
X100794494Y-61490537D01*
X100860000Y-61436778D01*
X100925506Y-61490537D01*
X101035820Y-61549502D01*
X101155518Y-61585812D01*
X101280000Y-61598072D01*
X102980000Y-61598072D01*
X103104482Y-61585812D01*
X103224180Y-61549502D01*
X103334494Y-61490537D01*
X103431185Y-61411185D01*
X103510537Y-61314494D01*
X103569502Y-61204180D01*
X103605812Y-61084482D01*
X103618072Y-60960000D01*
X103618072Y-57815000D01*
X104856928Y-57815000D01*
X104869188Y-57939482D01*
X104905498Y-58059180D01*
X104964463Y-58169494D01*
X105043815Y-58266185D01*
X105140506Y-58345537D01*
X105250820Y-58404502D01*
X105370518Y-58440812D01*
X105495000Y-58453072D01*
X105759250Y-58450000D01*
X105918000Y-58291250D01*
X105918000Y-57042000D01*
X106172000Y-57042000D01*
X106172000Y-58291250D01*
X106330750Y-58450000D01*
X106595000Y-58453072D01*
X106719482Y-58440812D01*
X106839180Y-58404502D01*
X106949494Y-58345537D01*
X107046185Y-58266185D01*
X107125537Y-58169494D01*
X107184502Y-58059180D01*
X107220812Y-57939482D01*
X107233072Y-57815000D01*
X107230000Y-57200750D01*
X107071250Y-57042000D01*
X106172000Y-57042000D01*
X105918000Y-57042000D01*
X105018750Y-57042000D01*
X104860000Y-57200750D01*
X104856928Y-57815000D01*
X103618072Y-57815000D01*
X103618072Y-57460000D01*
X103615000Y-57428808D01*
X103615000Y-57423740D01*
X103614011Y-57418769D01*
X103605812Y-57335518D01*
X103581527Y-57255461D01*
X103557932Y-57136842D01*
X103445990Y-56866589D01*
X103283475Y-56623368D01*
X103076632Y-56416525D01*
X102833411Y-56254010D01*
X102563158Y-56142068D01*
X102276260Y-56085000D01*
X101983740Y-56085000D01*
X101696842Y-56142068D01*
X101426589Y-56254010D01*
X101183368Y-56416525D01*
X100976525Y-56623368D01*
X100860000Y-56797760D01*
X100743475Y-56623368D01*
X100536632Y-56416525D01*
X100293411Y-56254010D01*
X100023158Y-56142068D01*
X99736260Y-56085000D01*
X99443740Y-56085000D01*
X99156842Y-56142068D01*
X98886589Y-56254010D01*
X98643368Y-56416525D01*
X98436525Y-56623368D01*
X98314805Y-56805534D01*
X98245178Y-56688645D01*
X98050269Y-56472412D01*
X97816920Y-56298359D01*
X97554099Y-56173175D01*
X97406890Y-56128524D01*
X97177000Y-56249845D01*
X96923000Y-56249845D01*
X96693110Y-56128524D01*
X96545901Y-56173175D01*
X96283080Y-56298359D01*
X96049731Y-56472412D01*
X95854822Y-56688645D01*
X95785195Y-56805534D01*
X95663475Y-56623368D01*
X95456632Y-56416525D01*
X95213411Y-56254010D01*
X94943158Y-56142068D01*
X94656260Y-56085000D01*
X94363740Y-56085000D01*
X94076842Y-56142068D01*
X93806589Y-56254010D01*
X93563368Y-56416525D01*
X93356525Y-56623368D01*
X93240000Y-56797760D01*
X93123475Y-56623368D01*
X92916632Y-56416525D01*
X92673411Y-56254010D01*
X92403158Y-56142068D01*
X92116260Y-56085000D01*
X91823740Y-56085000D01*
X91536842Y-56142068D01*
X91266589Y-56254010D01*
X91023368Y-56416525D01*
X90816525Y-56623368D01*
X90700000Y-56797760D01*
X90583475Y-56623368D01*
X90376632Y-56416525D01*
X90133411Y-56254010D01*
X89863158Y-56142068D01*
X89576260Y-56085000D01*
X89283740Y-56085000D01*
X88996842Y-56142068D01*
X88726589Y-56254010D01*
X88483368Y-56416525D01*
X88276525Y-56623368D01*
X88160000Y-56797760D01*
X88043475Y-56623368D01*
X87836632Y-56416525D01*
X87593411Y-56254010D01*
X87323158Y-56142068D01*
X87036260Y-56085000D01*
X86743740Y-56085000D01*
X86456842Y-56142068D01*
X86186589Y-56254010D01*
X85943368Y-56416525D01*
X85736525Y-56623368D01*
X85614805Y-56805534D01*
X85545178Y-56688645D01*
X85350269Y-56472412D01*
X85116920Y-56298359D01*
X84854099Y-56173175D01*
X84706890Y-56128524D01*
X84477000Y-56249845D01*
X84223000Y-56249845D01*
X83993110Y-56128524D01*
X83845901Y-56173175D01*
X83583080Y-56298359D01*
X83349731Y-56472412D01*
X83154822Y-56688645D01*
X83085195Y-56805534D01*
X82963475Y-56623368D01*
X82756632Y-56416525D01*
X82513411Y-56254010D01*
X82243158Y-56142068D01*
X81956260Y-56085000D01*
X81663740Y-56085000D01*
X81376842Y-56142068D01*
X81106589Y-56254010D01*
X80863368Y-56416525D01*
X80656525Y-56623368D01*
X80540000Y-56797760D01*
X80423475Y-56623368D01*
X80216632Y-56416525D01*
X79973411Y-56254010D01*
X79703158Y-56142068D01*
X79416260Y-56085000D01*
X79123740Y-56085000D01*
X78836842Y-56142068D01*
X78566589Y-56254010D01*
X78323368Y-56416525D01*
X78116525Y-56623368D01*
X78000000Y-56797760D01*
X77883475Y-56623368D01*
X77676632Y-56416525D01*
X77433411Y-56254010D01*
X77163158Y-56142068D01*
X76876260Y-56085000D01*
X76583740Y-56085000D01*
X76296842Y-56142068D01*
X76026589Y-56254010D01*
X75783368Y-56416525D01*
X75576525Y-56623368D01*
X75460000Y-56797760D01*
X75343475Y-56623368D01*
X75136632Y-56416525D01*
X74893411Y-56254010D01*
X74623158Y-56142068D01*
X74336260Y-56085000D01*
X74043740Y-56085000D01*
X73756842Y-56142068D01*
X73486589Y-56254010D01*
X73243368Y-56416525D01*
X73036525Y-56623368D01*
X72914805Y-56805534D01*
X72845178Y-56688645D01*
X72650269Y-56472412D01*
X72416920Y-56298359D01*
X72154099Y-56173175D01*
X72006890Y-56128524D01*
X71777000Y-56249845D01*
X71523000Y-56249845D01*
X71293110Y-56128524D01*
X71145901Y-56173175D01*
X70883080Y-56298359D01*
X70649731Y-56472412D01*
X70454822Y-56688645D01*
X70385195Y-56805534D01*
X70263475Y-56623368D01*
X70056632Y-56416525D01*
X69813411Y-56254010D01*
X69543158Y-56142068D01*
X69256260Y-56085000D01*
X68963740Y-56085000D01*
X68676842Y-56142068D01*
X68406589Y-56254010D01*
X68163368Y-56416525D01*
X67956525Y-56623368D01*
X67840000Y-56797760D01*
X67723475Y-56623368D01*
X67516632Y-56416525D01*
X67273411Y-56254010D01*
X67003158Y-56142068D01*
X66716260Y-56085000D01*
X66423740Y-56085000D01*
X66136842Y-56142068D01*
X65866589Y-56254010D01*
X65623368Y-56416525D01*
X65416525Y-56623368D01*
X65300000Y-56797760D01*
X65183475Y-56623368D01*
X64976632Y-56416525D01*
X64733411Y-56254010D01*
X64463158Y-56142068D01*
X64176260Y-56085000D01*
X63883740Y-56085000D01*
X63596842Y-56142068D01*
X63326589Y-56254010D01*
X63083368Y-56416525D01*
X62876525Y-56623368D01*
X62760000Y-56797760D01*
X62643475Y-56623368D01*
X62436632Y-56416525D01*
X62193411Y-56254010D01*
X61923158Y-56142068D01*
X61636260Y-56085000D01*
X61343740Y-56085000D01*
X61056842Y-56142068D01*
X60786589Y-56254010D01*
X60543368Y-56416525D01*
X60336525Y-56623368D01*
X60214805Y-56805534D01*
X60145178Y-56688645D01*
X59950269Y-56472412D01*
X59716920Y-56298359D01*
X59454099Y-56173175D01*
X59306890Y-56128524D01*
X59077000Y-56249845D01*
X58823000Y-56249845D01*
X58593110Y-56128524D01*
X58445901Y-56173175D01*
X58183080Y-56298359D01*
X57949731Y-56472412D01*
X57754822Y-56688645D01*
X57685195Y-56805534D01*
X57563475Y-56623368D01*
X57356632Y-56416525D01*
X57113411Y-56254010D01*
X56843158Y-56142068D01*
X56556260Y-56085000D01*
X56263740Y-56085000D01*
X55976842Y-56142068D01*
X55706589Y-56254010D01*
X55463368Y-56416525D01*
X55256525Y-56623368D01*
X55140000Y-56797760D01*
X55023475Y-56623368D01*
X54816632Y-56416525D01*
X54573411Y-56254010D01*
X54427792Y-56193693D01*
X54651925Y-56149110D01*
X54975694Y-56015000D01*
X104856928Y-56015000D01*
X104860000Y-56629250D01*
X105018750Y-56788000D01*
X105918000Y-56788000D01*
X105918000Y-55538750D01*
X105759250Y-55380000D01*
X105495000Y-55376928D01*
X105370518Y-55389188D01*
X105250820Y-55425498D01*
X105140506Y-55484463D01*
X105043815Y-55563815D01*
X104964463Y-55660506D01*
X104905498Y-55770820D01*
X104869188Y-55890518D01*
X104856928Y-56015000D01*
X54975694Y-56015000D01*
X55058669Y-55980631D01*
X55424729Y-55736038D01*
X55736038Y-55424729D01*
X55980631Y-55058669D01*
X56149110Y-54651925D01*
X56235000Y-54220128D01*
X56235000Y-53779872D01*
X56149110Y-53348075D01*
X55980631Y-52941331D01*
X55736038Y-52575271D01*
X55729281Y-52568514D01*
X64705000Y-52568514D01*
X64705000Y-52831486D01*
X64756304Y-53089405D01*
X64856939Y-53332359D01*
X65003038Y-53551013D01*
X65188987Y-53736962D01*
X65407641Y-53883061D01*
X65650595Y-53983696D01*
X65908514Y-54035000D01*
X66171486Y-54035000D01*
X66429405Y-53983696D01*
X66672359Y-53883061D01*
X66891013Y-53736962D01*
X67076962Y-53551013D01*
X67223061Y-53332359D01*
X67310000Y-53122470D01*
X67396939Y-53332359D01*
X67543038Y-53551013D01*
X67728987Y-53736962D01*
X67947641Y-53883061D01*
X68190595Y-53983696D01*
X68448514Y-54035000D01*
X68711486Y-54035000D01*
X68969405Y-53983696D01*
X69212359Y-53883061D01*
X69431013Y-53736962D01*
X69616962Y-53551013D01*
X69763061Y-53332359D01*
X69795880Y-53253126D01*
X69848320Y-53379727D01*
X70005363Y-53614759D01*
X70205241Y-53814637D01*
X70440273Y-53971680D01*
X70701426Y-54079853D01*
X70978665Y-54135000D01*
X71261335Y-54135000D01*
X71538574Y-54079853D01*
X71799727Y-53971680D01*
X72034759Y-53814637D01*
X72156694Y-53692702D01*
X75306903Y-53692702D01*
X75378486Y-53936671D01*
X75633996Y-54057571D01*
X75908184Y-54126300D01*
X76190512Y-54140217D01*
X76470130Y-54098787D01*
X76736292Y-54003603D01*
X76861514Y-53936671D01*
X76933097Y-53692702D01*
X76120000Y-52879605D01*
X75306903Y-53692702D01*
X72156694Y-53692702D01*
X72234637Y-53614759D01*
X72391680Y-53379727D01*
X72499853Y-53118574D01*
X72555000Y-52841335D01*
X72555000Y-52770512D01*
X74679783Y-52770512D01*
X74721213Y-53050130D01*
X74816397Y-53316292D01*
X74883329Y-53441514D01*
X75127298Y-53513097D01*
X75940395Y-52700000D01*
X76299605Y-52700000D01*
X77112702Y-53513097D01*
X77356671Y-53441514D01*
X77477571Y-53186004D01*
X77546300Y-52911816D01*
X77552107Y-52794000D01*
X97875928Y-52794000D01*
X97875928Y-54394000D01*
X97888188Y-54518482D01*
X97924498Y-54638180D01*
X97983463Y-54748494D01*
X98062815Y-54845185D01*
X98159506Y-54924537D01*
X98269820Y-54983502D01*
X98389518Y-55019812D01*
X98514000Y-55032072D01*
X100114000Y-55032072D01*
X100238482Y-55019812D01*
X100358180Y-54983502D01*
X100468494Y-54924537D01*
X100565185Y-54845185D01*
X100644537Y-54748494D01*
X100703502Y-54638180D01*
X100732661Y-54542057D01*
X100899241Y-54708637D01*
X101134273Y-54865680D01*
X101395426Y-54973853D01*
X101672665Y-55029000D01*
X101955335Y-55029000D01*
X102232574Y-54973853D01*
X102493727Y-54865680D01*
X102728759Y-54708637D01*
X102928637Y-54508759D01*
X103085680Y-54273727D01*
X103193853Y-54012574D01*
X103249000Y-53735335D01*
X103249000Y-53452665D01*
X103193853Y-53175426D01*
X103085680Y-52914273D01*
X102928637Y-52679241D01*
X102728759Y-52479363D01*
X102493727Y-52322320D01*
X102363828Y-52268514D01*
X104625000Y-52268514D01*
X104625000Y-52531486D01*
X104676304Y-52789405D01*
X104776939Y-53032359D01*
X104923038Y-53251013D01*
X105108987Y-53436962D01*
X105327641Y-53583061D01*
X105570595Y-53683696D01*
X105828514Y-53735000D01*
X106091486Y-53735000D01*
X106295896Y-53694340D01*
X106280808Y-53712724D01*
X106196431Y-53870582D01*
X106144472Y-54041868D01*
X106126928Y-54220000D01*
X106126928Y-55470000D01*
X106144472Y-55648132D01*
X106172000Y-55738880D01*
X106172000Y-56788000D01*
X107071250Y-56788000D01*
X107230000Y-56629250D01*
X107231231Y-56383072D01*
X107396928Y-56383072D01*
X107396928Y-57540000D01*
X107414472Y-57718132D01*
X107466431Y-57889418D01*
X107550808Y-58047276D01*
X107664361Y-58185639D01*
X107802724Y-58299192D01*
X107960582Y-58383569D01*
X108131868Y-58435528D01*
X108310000Y-58453072D01*
X108860000Y-58453072D01*
X109038132Y-58435528D01*
X109209418Y-58383569D01*
X109367276Y-58299192D01*
X109505639Y-58185639D01*
X109619192Y-58047276D01*
X109703569Y-57889418D01*
X109755528Y-57718132D01*
X109773072Y-57540000D01*
X109773072Y-56495740D01*
X113005500Y-56495740D01*
X113005500Y-56788260D01*
X113062568Y-57075158D01*
X113174510Y-57345411D01*
X113337025Y-57588632D01*
X113543868Y-57795475D01*
X113718260Y-57912000D01*
X113543868Y-58028525D01*
X113337025Y-58235368D01*
X113174510Y-58478589D01*
X113062568Y-58748842D01*
X113005500Y-59035740D01*
X113005500Y-59328260D01*
X113062568Y-59615158D01*
X113174510Y-59885411D01*
X113337025Y-60128632D01*
X113543868Y-60335475D01*
X113718260Y-60452000D01*
X113543868Y-60568525D01*
X113337025Y-60775368D01*
X113174510Y-61018589D01*
X113062568Y-61288842D01*
X113005500Y-61575740D01*
X113005500Y-61868260D01*
X113062568Y-62155158D01*
X113174510Y-62425411D01*
X113337025Y-62668632D01*
X113543868Y-62875475D01*
X113718260Y-62992000D01*
X113543868Y-63108525D01*
X113337025Y-63315368D01*
X113174510Y-63558589D01*
X113062568Y-63828842D01*
X113005500Y-64115740D01*
X113005500Y-64408260D01*
X113062568Y-64695158D01*
X113174510Y-64965411D01*
X113337025Y-65208632D01*
X113543868Y-65415475D01*
X113718260Y-65532000D01*
X113543868Y-65648525D01*
X113337025Y-65855368D01*
X113174510Y-66098589D01*
X113062568Y-66368842D01*
X113005500Y-66655740D01*
X113005500Y-66948260D01*
X113062568Y-67235158D01*
X113174510Y-67505411D01*
X113337025Y-67748632D01*
X113543868Y-67955475D01*
X113787089Y-68117990D01*
X114057342Y-68229932D01*
X114344240Y-68287000D01*
X114636760Y-68287000D01*
X114923658Y-68229932D01*
X115193911Y-68117990D01*
X115437132Y-67955475D01*
X115643975Y-67748632D01*
X115760500Y-67574240D01*
X115877025Y-67748632D01*
X116083868Y-67955475D01*
X116327089Y-68117990D01*
X116597342Y-68229932D01*
X116884240Y-68287000D01*
X117176760Y-68287000D01*
X117463658Y-68229932D01*
X117733911Y-68117990D01*
X117977132Y-67955475D01*
X118183975Y-67748632D01*
X118300500Y-67574240D01*
X118417025Y-67748632D01*
X118623868Y-67955475D01*
X118867089Y-68117990D01*
X119137342Y-68229932D01*
X119424240Y-68287000D01*
X119716760Y-68287000D01*
X120003658Y-68229932D01*
X120273911Y-68117990D01*
X120517132Y-67955475D01*
X120723975Y-67748632D01*
X120840500Y-67574240D01*
X120957025Y-67748632D01*
X121163868Y-67955475D01*
X121407089Y-68117990D01*
X121677342Y-68229932D01*
X121964240Y-68287000D01*
X122256760Y-68287000D01*
X122543658Y-68229932D01*
X122813911Y-68117990D01*
X123057132Y-67955475D01*
X123263975Y-67748632D01*
X123380500Y-67574240D01*
X123497025Y-67748632D01*
X123703868Y-67955475D01*
X123947089Y-68117990D01*
X124217342Y-68229932D01*
X124504240Y-68287000D01*
X124796760Y-68287000D01*
X125083658Y-68229932D01*
X125353911Y-68117990D01*
X125597132Y-67955475D01*
X125803975Y-67748632D01*
X125920500Y-67574240D01*
X126037025Y-67748632D01*
X126243868Y-67955475D01*
X126487089Y-68117990D01*
X126757342Y-68229932D01*
X127044240Y-68287000D01*
X127336760Y-68287000D01*
X127623658Y-68229932D01*
X127893911Y-68117990D01*
X128137132Y-67955475D01*
X128343975Y-67748632D01*
X128506490Y-67505411D01*
X128618432Y-67235158D01*
X128675500Y-66948260D01*
X128675500Y-66655740D01*
X128618432Y-66368842D01*
X128506490Y-66098589D01*
X128343975Y-65855368D01*
X128137132Y-65648525D01*
X127962740Y-65532000D01*
X128137132Y-65415475D01*
X128343975Y-65208632D01*
X128506490Y-64965411D01*
X128618432Y-64695158D01*
X128675500Y-64408260D01*
X128675500Y-64115740D01*
X128618432Y-63828842D01*
X128511203Y-63569967D01*
X130635500Y-63569967D01*
X130635500Y-63892033D01*
X130698332Y-64207912D01*
X130821582Y-64505463D01*
X131000513Y-64773252D01*
X131228248Y-65000987D01*
X131496037Y-65179918D01*
X131793588Y-65303168D01*
X132109467Y-65366000D01*
X132431533Y-65366000D01*
X132747412Y-65303168D01*
X133044963Y-65179918D01*
X133312752Y-65000987D01*
X133540487Y-64773252D01*
X133719418Y-64505463D01*
X133842668Y-64207912D01*
X133905500Y-63892033D01*
X133905500Y-63569967D01*
X135135500Y-63569967D01*
X135135500Y-63892033D01*
X135198332Y-64207912D01*
X135321582Y-64505463D01*
X135500513Y-64773252D01*
X135728248Y-65000987D01*
X135996037Y-65179918D01*
X136293588Y-65303168D01*
X136609467Y-65366000D01*
X136931533Y-65366000D01*
X137247412Y-65303168D01*
X137544963Y-65179918D01*
X137812752Y-65000987D01*
X138040487Y-64773252D01*
X138219418Y-64505463D01*
X138342668Y-64207912D01*
X138405500Y-63892033D01*
X138405500Y-63569967D01*
X138342668Y-63254088D01*
X138219418Y-62956537D01*
X138040487Y-62688748D01*
X137812752Y-62461013D01*
X137544963Y-62282082D01*
X137247412Y-62158832D01*
X136931533Y-62096000D01*
X136609467Y-62096000D01*
X136293588Y-62158832D01*
X135996037Y-62282082D01*
X135728248Y-62461013D01*
X135500513Y-62688748D01*
X135321582Y-62956537D01*
X135198332Y-63254088D01*
X135135500Y-63569967D01*
X133905500Y-63569967D01*
X133842668Y-63254088D01*
X133719418Y-62956537D01*
X133540487Y-62688748D01*
X133312752Y-62461013D01*
X133044963Y-62282082D01*
X132747412Y-62158832D01*
X132431533Y-62096000D01*
X132109467Y-62096000D01*
X131793588Y-62158832D01*
X131496037Y-62282082D01*
X131228248Y-62461013D01*
X131000513Y-62688748D01*
X130821582Y-62956537D01*
X130698332Y-63254088D01*
X130635500Y-63569967D01*
X128511203Y-63569967D01*
X128506490Y-63558589D01*
X128343975Y-63315368D01*
X128137132Y-63108525D01*
X127962740Y-62992000D01*
X128137132Y-62875475D01*
X128343975Y-62668632D01*
X128506490Y-62425411D01*
X128618432Y-62155158D01*
X128675500Y-61868260D01*
X128675500Y-61575740D01*
X128618432Y-61288842D01*
X128506490Y-61018589D01*
X128343975Y-60775368D01*
X128137132Y-60568525D01*
X127962740Y-60452000D01*
X128137132Y-60335475D01*
X128343975Y-60128632D01*
X128506490Y-59885411D01*
X128618432Y-59615158D01*
X128675500Y-59328260D01*
X128675500Y-59035740D01*
X128618432Y-58748842D01*
X128506490Y-58478589D01*
X128343975Y-58235368D01*
X128137132Y-58028525D01*
X127962740Y-57912000D01*
X128137132Y-57795475D01*
X128343975Y-57588632D01*
X128506490Y-57345411D01*
X128618432Y-57075158D01*
X128675500Y-56788260D01*
X128675500Y-56495740D01*
X128618432Y-56208842D01*
X128506490Y-55938589D01*
X128343975Y-55695368D01*
X128137132Y-55488525D01*
X127893911Y-55326010D01*
X127623658Y-55214068D01*
X127336760Y-55157000D01*
X127044240Y-55157000D01*
X126757342Y-55214068D01*
X126487089Y-55326010D01*
X126243868Y-55488525D01*
X126037025Y-55695368D01*
X125920500Y-55869760D01*
X125803975Y-55695368D01*
X125597132Y-55488525D01*
X125353911Y-55326010D01*
X125083658Y-55214068D01*
X124796760Y-55157000D01*
X124504240Y-55157000D01*
X124217342Y-55214068D01*
X123947089Y-55326010D01*
X123703868Y-55488525D01*
X123497025Y-55695368D01*
X123380500Y-55869760D01*
X123263975Y-55695368D01*
X123057132Y-55488525D01*
X122813911Y-55326010D01*
X122543658Y-55214068D01*
X122256760Y-55157000D01*
X121964240Y-55157000D01*
X121677342Y-55214068D01*
X121407089Y-55326010D01*
X121163868Y-55488525D01*
X120957025Y-55695368D01*
X120840500Y-55869760D01*
X120723975Y-55695368D01*
X120517132Y-55488525D01*
X120273911Y-55326010D01*
X120003658Y-55214068D01*
X119716760Y-55157000D01*
X119424240Y-55157000D01*
X119137342Y-55214068D01*
X118867089Y-55326010D01*
X118623868Y-55488525D01*
X118417025Y-55695368D01*
X118300500Y-55869760D01*
X118183975Y-55695368D01*
X117977132Y-55488525D01*
X117733911Y-55326010D01*
X117463658Y-55214068D01*
X117176760Y-55157000D01*
X116884240Y-55157000D01*
X116597342Y-55214068D01*
X116327089Y-55326010D01*
X116083868Y-55488525D01*
X115877025Y-55695368D01*
X115760500Y-55869760D01*
X115643975Y-55695368D01*
X115437132Y-55488525D01*
X115193911Y-55326010D01*
X114923658Y-55214068D01*
X114636760Y-55157000D01*
X114344240Y-55157000D01*
X114057342Y-55214068D01*
X113787089Y-55326010D01*
X113543868Y-55488525D01*
X113337025Y-55695368D01*
X113174510Y-55938589D01*
X113062568Y-56208842D01*
X113005500Y-56495740D01*
X109773072Y-56495740D01*
X109773072Y-56290000D01*
X109755528Y-56111868D01*
X109703569Y-55940582D01*
X109619192Y-55782724D01*
X109505639Y-55644361D01*
X109367276Y-55530808D01*
X109209418Y-55446431D01*
X109038132Y-55394472D01*
X108860000Y-55376928D01*
X108503072Y-55376928D01*
X108503072Y-54220000D01*
X108485528Y-54041868D01*
X108433569Y-53870582D01*
X108360217Y-53733350D01*
X108368514Y-53735000D01*
X108631486Y-53735000D01*
X108889405Y-53683696D01*
X109132359Y-53583061D01*
X109351013Y-53436962D01*
X109536962Y-53251013D01*
X109683061Y-53032359D01*
X109783696Y-52789405D01*
X109829578Y-52558740D01*
X109975000Y-52558740D01*
X109975000Y-52851260D01*
X110032068Y-53138158D01*
X110144010Y-53408411D01*
X110306525Y-53651632D01*
X110513368Y-53858475D01*
X110756589Y-54020990D01*
X111026842Y-54132932D01*
X111313740Y-54190000D01*
X111606260Y-54190000D01*
X111893158Y-54132932D01*
X112163411Y-54020990D01*
X112406632Y-53858475D01*
X112538487Y-53726620D01*
X112560498Y-53799180D01*
X112619463Y-53909494D01*
X112698815Y-54006185D01*
X112795506Y-54085537D01*
X112905820Y-54144502D01*
X113025518Y-54180812D01*
X113150000Y-54193072D01*
X114850000Y-54193072D01*
X114974482Y-54180812D01*
X115094180Y-54144502D01*
X115204494Y-54085537D01*
X115301185Y-54006185D01*
X115380537Y-53909494D01*
X115439502Y-53799180D01*
X115445359Y-53779872D01*
X133765000Y-53779872D01*
X133765000Y-54220128D01*
X133850890Y-54651925D01*
X134019369Y-55058669D01*
X134263962Y-55424729D01*
X134575271Y-55736038D01*
X134941331Y-55980631D01*
X135348075Y-56149110D01*
X135779872Y-56235000D01*
X136220128Y-56235000D01*
X136651925Y-56149110D01*
X137058669Y-55980631D01*
X137424729Y-55736038D01*
X137736038Y-55424729D01*
X137980631Y-55058669D01*
X138149110Y-54651925D01*
X138235000Y-54220128D01*
X138235000Y-53779872D01*
X138149110Y-53348075D01*
X137980631Y-52941331D01*
X137736038Y-52575271D01*
X137424729Y-52263962D01*
X137058669Y-52019369D01*
X136651925Y-51850890D01*
X136220128Y-51765000D01*
X135779872Y-51765000D01*
X135348075Y-51850890D01*
X134941331Y-52019369D01*
X134575271Y-52263962D01*
X134263962Y-52575271D01*
X134019369Y-52941331D01*
X133850890Y-53348075D01*
X133765000Y-53779872D01*
X115445359Y-53779872D01*
X115475812Y-53679482D01*
X115488072Y-53555000D01*
X115488072Y-51855000D01*
X115475812Y-51730518D01*
X115439502Y-51610820D01*
X115380537Y-51500506D01*
X115301185Y-51403815D01*
X115204494Y-51324463D01*
X115094180Y-51265498D01*
X114974482Y-51229188D01*
X114850000Y-51216928D01*
X113150000Y-51216928D01*
X113025518Y-51229188D01*
X112905820Y-51265498D01*
X112795506Y-51324463D01*
X112698815Y-51403815D01*
X112619463Y-51500506D01*
X112560498Y-51610820D01*
X112538487Y-51683380D01*
X112406632Y-51551525D01*
X112163411Y-51389010D01*
X111893158Y-51277068D01*
X111606260Y-51220000D01*
X111313740Y-51220000D01*
X111026842Y-51277068D01*
X110756589Y-51389010D01*
X110513368Y-51551525D01*
X110306525Y-51758368D01*
X110144010Y-52001589D01*
X110032068Y-52271842D01*
X109975000Y-52558740D01*
X109829578Y-52558740D01*
X109835000Y-52531486D01*
X109835000Y-52268514D01*
X109783696Y-52010595D01*
X109683061Y-51767641D01*
X109536962Y-51548987D01*
X109351013Y-51363038D01*
X109132359Y-51216939D01*
X108889405Y-51116304D01*
X108631486Y-51065000D01*
X108368514Y-51065000D01*
X108110595Y-51116304D01*
X107867641Y-51216939D01*
X107648987Y-51363038D01*
X107463038Y-51548987D01*
X107316939Y-51767641D01*
X107230000Y-51977530D01*
X107143061Y-51767641D01*
X106996962Y-51548987D01*
X106811013Y-51363038D01*
X106592359Y-51216939D01*
X106349405Y-51116304D01*
X106091486Y-51065000D01*
X105828514Y-51065000D01*
X105570595Y-51116304D01*
X105327641Y-51216939D01*
X105108987Y-51363038D01*
X104923038Y-51548987D01*
X104776939Y-51767641D01*
X104676304Y-52010595D01*
X104625000Y-52268514D01*
X102363828Y-52268514D01*
X102232574Y-52214147D01*
X101955335Y-52159000D01*
X101672665Y-52159000D01*
X101395426Y-52214147D01*
X101134273Y-52322320D01*
X100899241Y-52479363D01*
X100732661Y-52645943D01*
X100703502Y-52549820D01*
X100644537Y-52439506D01*
X100565185Y-52342815D01*
X100468494Y-52263463D01*
X100358180Y-52204498D01*
X100238482Y-52168188D01*
X100114000Y-52155928D01*
X98514000Y-52155928D01*
X98389518Y-52168188D01*
X98269820Y-52204498D01*
X98159506Y-52263463D01*
X98062815Y-52342815D01*
X97983463Y-52439506D01*
X97924498Y-52549820D01*
X97888188Y-52669518D01*
X97875928Y-52794000D01*
X77552107Y-52794000D01*
X77560217Y-52629488D01*
X77518787Y-52349870D01*
X77423603Y-52083708D01*
X77356671Y-51958486D01*
X77112702Y-51886903D01*
X76299605Y-52700000D01*
X75940395Y-52700000D01*
X75127298Y-51886903D01*
X74883329Y-51958486D01*
X74762429Y-52213996D01*
X74693700Y-52488184D01*
X74679783Y-52770512D01*
X72555000Y-52770512D01*
X72555000Y-52558665D01*
X72499853Y-52281426D01*
X72391680Y-52020273D01*
X72234637Y-51785241D01*
X72156694Y-51707298D01*
X75306903Y-51707298D01*
X76120000Y-52520395D01*
X76933097Y-51707298D01*
X76861514Y-51463329D01*
X76606004Y-51342429D01*
X76331816Y-51273700D01*
X76049488Y-51259783D01*
X75769870Y-51301213D01*
X75503708Y-51396397D01*
X75378486Y-51463329D01*
X75306903Y-51707298D01*
X72156694Y-51707298D01*
X72034759Y-51585363D01*
X71799727Y-51428320D01*
X71538574Y-51320147D01*
X71261335Y-51265000D01*
X70978665Y-51265000D01*
X70701426Y-51320147D01*
X70440273Y-51428320D01*
X70205241Y-51585363D01*
X70005363Y-51785241D01*
X69848320Y-52020273D01*
X69795880Y-52146874D01*
X69763061Y-52067641D01*
X69616962Y-51848987D01*
X69431013Y-51663038D01*
X69212359Y-51516939D01*
X68969405Y-51416304D01*
X68711486Y-51365000D01*
X68448514Y-51365000D01*
X68190595Y-51416304D01*
X67947641Y-51516939D01*
X67728987Y-51663038D01*
X67543038Y-51848987D01*
X67396939Y-52067641D01*
X67310000Y-52277530D01*
X67223061Y-52067641D01*
X67076962Y-51848987D01*
X66891013Y-51663038D01*
X66672359Y-51516939D01*
X66429405Y-51416304D01*
X66171486Y-51365000D01*
X65908514Y-51365000D01*
X65650595Y-51416304D01*
X65407641Y-51516939D01*
X65188987Y-51663038D01*
X65003038Y-51848987D01*
X64856939Y-52067641D01*
X64756304Y-52310595D01*
X64705000Y-52568514D01*
X55729281Y-52568514D01*
X55424729Y-52263962D01*
X55058669Y-52019369D01*
X54651925Y-51850890D01*
X54220128Y-51765000D01*
X53779872Y-51765000D01*
X53348075Y-51850890D01*
X52941331Y-52019369D01*
X52575271Y-52263962D01*
X52263962Y-52575271D01*
X52019369Y-52941331D01*
X51850890Y-53348075D01*
X51765000Y-53779872D01*
X50660000Y-53779872D01*
X50660000Y-50660000D01*
X139340000Y-50660000D01*
X139340001Y-90340000D01*
G37*
X139340001Y-90340000D02*
X50660000Y-90340000D01*
X50660000Y-86779872D01*
X51765000Y-86779872D01*
X51765000Y-87220128D01*
X51850890Y-87651925D01*
X52019369Y-88058669D01*
X52263962Y-88424729D01*
X52575271Y-88736038D01*
X52941331Y-88980631D01*
X53348075Y-89149110D01*
X53779872Y-89235000D01*
X54220128Y-89235000D01*
X54651925Y-89149110D01*
X55058669Y-88980631D01*
X55424729Y-88736038D01*
X55736038Y-88424729D01*
X55980631Y-88058669D01*
X56149110Y-87651925D01*
X56235000Y-87220128D01*
X56235000Y-86779872D01*
X56149110Y-86348075D01*
X55980631Y-85941331D01*
X55752562Y-85600000D01*
X60161928Y-85600000D01*
X60161928Y-88000000D01*
X60174188Y-88124482D01*
X60210498Y-88244180D01*
X60269463Y-88354494D01*
X60348815Y-88451185D01*
X60445506Y-88530537D01*
X60555820Y-88589502D01*
X60675518Y-88625812D01*
X60800000Y-88638072D01*
X63200000Y-88638072D01*
X63324482Y-88625812D01*
X63444180Y-88589502D01*
X63554494Y-88530537D01*
X63651185Y-88451185D01*
X63730537Y-88354494D01*
X63789502Y-88244180D01*
X63825812Y-88124482D01*
X63830391Y-88077980D01*
X64401626Y-88077980D01*
X64521514Y-88362836D01*
X64845210Y-88523699D01*
X65194069Y-88618322D01*
X65554684Y-88643067D01*
X65913198Y-88596985D01*
X66255833Y-88481846D01*
X66478486Y-88362836D01*
X66598374Y-88077980D01*
X65500000Y-86979605D01*
X64401626Y-88077980D01*
X63830391Y-88077980D01*
X63838072Y-88000000D01*
X63838072Y-87593097D01*
X63937164Y-87778486D01*
X64222020Y-87898374D01*
X65320395Y-86800000D01*
X65679605Y-86800000D01*
X66777980Y-87898374D01*
X67062836Y-87778486D01*
X67223699Y-87454790D01*
X67318322Y-87105931D01*
X67343067Y-86745316D01*
X67296985Y-86386802D01*
X67181846Y-86044167D01*
X67062836Y-85821514D01*
X66777980Y-85701626D01*
X65679605Y-86800000D01*
X65320395Y-86800000D01*
X64222020Y-85701626D01*
X63937164Y-85821514D01*
X63838072Y-86020912D01*
X63838072Y-85600000D01*
X63830392Y-85522020D01*
X64401626Y-85522020D01*
X65500000Y-86620395D01*
X66546894Y-85573500D01*
X72540228Y-85573500D01*
X72540228Y-87273500D01*
X72552488Y-87397982D01*
X72588798Y-87517680D01*
X72647763Y-87627994D01*
X72727115Y-87724685D01*
X72823806Y-87804037D01*
X72934120Y-87863002D01*
X73053818Y-87899312D01*
X73178300Y-87911572D01*
X74878300Y-87911572D01*
X75002782Y-87899312D01*
X75122480Y-87863002D01*
X75232794Y-87804037D01*
X75329485Y-87724685D01*
X75408837Y-87627994D01*
X75467802Y-87517680D01*
X75492266Y-87437034D01*
X75568031Y-87521088D01*
X75801380Y-87695141D01*
X76064201Y-87820325D01*
X76211410Y-87864976D01*
X76441300Y-87743655D01*
X76441300Y-86550500D01*
X76695300Y-86550500D01*
X76695300Y-87743655D01*
X76925190Y-87864976D01*
X77072399Y-87820325D01*
X77335220Y-87695141D01*
X77568569Y-87521088D01*
X77763478Y-87304855D01*
X77912457Y-87054752D01*
X78009781Y-86780391D01*
X78009509Y-86779872D01*
X133765000Y-86779872D01*
X133765000Y-87220128D01*
X133850890Y-87651925D01*
X134019369Y-88058669D01*
X134263962Y-88424729D01*
X134575271Y-88736038D01*
X134941331Y-88980631D01*
X135348075Y-89149110D01*
X135779872Y-89235000D01*
X136220128Y-89235000D01*
X136651925Y-89149110D01*
X137058669Y-88980631D01*
X137424729Y-88736038D01*
X137736038Y-88424729D01*
X137980631Y-88058669D01*
X138149110Y-87651925D01*
X138235000Y-87220128D01*
X138235000Y-86779872D01*
X138149110Y-86348075D01*
X137980631Y-85941331D01*
X137736038Y-85575271D01*
X137424729Y-85263962D01*
X137058669Y-85019369D01*
X136651925Y-84850890D01*
X136220128Y-84765000D01*
X135779872Y-84765000D01*
X135348075Y-84850890D01*
X134941331Y-85019369D01*
X134575271Y-85263962D01*
X134263962Y-85575271D01*
X134019369Y-85941331D01*
X133850890Y-86348075D01*
X133765000Y-86779872D01*
X78009509Y-86779872D01*
X77889114Y-86550500D01*
X76695300Y-86550500D01*
X76441300Y-86550500D01*
X76421300Y-86550500D01*
X76421300Y-86296500D01*
X76441300Y-86296500D01*
X76441300Y-85103345D01*
X76695300Y-85103345D01*
X76695300Y-86296500D01*
X77889114Y-86296500D01*
X78009781Y-86066609D01*
X77912457Y-85792248D01*
X77763478Y-85542145D01*
X77568569Y-85325912D01*
X77335220Y-85151859D01*
X77072399Y-85026675D01*
X76925190Y-84982024D01*
X76695300Y-85103345D01*
X76441300Y-85103345D01*
X76211410Y-84982024D01*
X76064201Y-85026675D01*
X75801380Y-85151859D01*
X75568031Y-85325912D01*
X75492266Y-85409966D01*
X75467802Y-85329320D01*
X75408837Y-85219006D01*
X75329485Y-85122315D01*
X75232794Y-85042963D01*
X75122480Y-84983998D01*
X75002782Y-84947688D01*
X74878300Y-84935428D01*
X73178300Y-84935428D01*
X73053818Y-84947688D01*
X72934120Y-84983998D01*
X72823806Y-85042963D01*
X72727115Y-85122315D01*
X72647763Y-85219006D01*
X72588798Y-85329320D01*
X72552488Y-85449018D01*
X72540228Y-85573500D01*
X66546894Y-85573500D01*
X66598374Y-85522020D01*
X66478486Y-85237164D01*
X66154790Y-85076301D01*
X65805931Y-84981678D01*
X65445316Y-84956933D01*
X65086802Y-85003015D01*
X64744167Y-85118154D01*
X64521514Y-85237164D01*
X64401626Y-85522020D01*
X63830392Y-85522020D01*
X63825812Y-85475518D01*
X63789502Y-85355820D01*
X63730537Y-85245506D01*
X63651185Y-85148815D01*
X63554494Y-85069463D01*
X63444180Y-85010498D01*
X63324482Y-84974188D01*
X63200000Y-84961928D01*
X60800000Y-84961928D01*
X60675518Y-84974188D01*
X60555820Y-85010498D01*
X60445506Y-85069463D01*
X60348815Y-85148815D01*
X60269463Y-85245506D01*
X60210498Y-85355820D01*
X60174188Y-85475518D01*
X60161928Y-85600000D01*
X55752562Y-85600000D01*
X55736038Y-85575271D01*
X55424729Y-85263962D01*
X55058669Y-85019369D01*
X54651925Y-84850890D01*
X54220128Y-84765000D01*
X53779872Y-84765000D01*
X53348075Y-84850890D01*
X52941331Y-85019369D01*
X52575271Y-85263962D01*
X52263962Y-85575271D01*
X52019369Y-85941331D01*
X51850890Y-86348075D01*
X51765000Y-86779872D01*
X50660000Y-86779872D01*
X50660000Y-82473900D01*
X116976728Y-82473900D01*
X116976728Y-84073900D01*
X116988988Y-84198382D01*
X117025298Y-84318080D01*
X117084263Y-84428394D01*
X117163615Y-84525085D01*
X117260306Y-84604437D01*
X117370620Y-84663402D01*
X117490318Y-84699712D01*
X117614800Y-84711972D01*
X119214800Y-84711972D01*
X119339282Y-84699712D01*
X119458980Y-84663402D01*
X119569294Y-84604437D01*
X119665985Y-84525085D01*
X119745337Y-84428394D01*
X119804302Y-84318080D01*
X119819917Y-84266602D01*
X120101703Y-84266602D01*
X120173286Y-84510571D01*
X120428796Y-84631471D01*
X120702984Y-84700200D01*
X120985312Y-84714117D01*
X121264930Y-84672687D01*
X121531092Y-84577503D01*
X121656314Y-84510571D01*
X121727897Y-84266602D01*
X120914800Y-83453505D01*
X120101703Y-84266602D01*
X119819917Y-84266602D01*
X119840612Y-84198382D01*
X119852872Y-84073900D01*
X119852872Y-84066685D01*
X119922098Y-84086997D01*
X120735195Y-83273900D01*
X121094405Y-83273900D01*
X121907502Y-84086997D01*
X122151471Y-84015414D01*
X122260482Y-83785029D01*
X124043584Y-83785029D01*
X124076253Y-83892744D01*
X124186508Y-84130092D01*
X124340949Y-84341370D01*
X124533640Y-84518459D01*
X124757177Y-84654553D01*
X125002970Y-84744422D01*
X125209300Y-84621901D01*
X125209300Y-83578700D01*
X124166926Y-83578700D01*
X124043584Y-83785029D01*
X122260482Y-83785029D01*
X122272371Y-83759904D01*
X122341100Y-83485716D01*
X122355017Y-83203388D01*
X122342421Y-83118371D01*
X124043584Y-83118371D01*
X124166926Y-83324700D01*
X125209300Y-83324700D01*
X125209300Y-82281499D01*
X125463300Y-82281499D01*
X125463300Y-83324700D01*
X125483300Y-83324700D01*
X125483300Y-83578700D01*
X125463300Y-83578700D01*
X125463300Y-84621901D01*
X125669630Y-84744422D01*
X125915423Y-84654553D01*
X126138960Y-84518459D01*
X126331651Y-84341370D01*
X126486092Y-84130092D01*
X126596347Y-83892744D01*
X126603806Y-83868150D01*
X126693239Y-84084059D01*
X126839338Y-84302713D01*
X127025287Y-84488662D01*
X127243941Y-84634761D01*
X127486895Y-84735396D01*
X127744814Y-84786700D01*
X128007786Y-84786700D01*
X128265705Y-84735396D01*
X128508659Y-84634761D01*
X128727313Y-84488662D01*
X128913262Y-84302713D01*
X129059361Y-84084059D01*
X129159996Y-83841105D01*
X129211300Y-83583186D01*
X129211300Y-83320214D01*
X129159996Y-83062295D01*
X129059361Y-82819341D01*
X128913262Y-82600687D01*
X128727313Y-82414738D01*
X128508659Y-82268639D01*
X128265705Y-82168004D01*
X128007786Y-82116700D01*
X127744814Y-82116700D01*
X127486895Y-82168004D01*
X127243941Y-82268639D01*
X127025287Y-82414738D01*
X126839338Y-82600687D01*
X126693239Y-82819341D01*
X126603806Y-83035250D01*
X126596347Y-83010656D01*
X126486092Y-82773308D01*
X126331651Y-82562030D01*
X126138960Y-82384941D01*
X125915423Y-82248847D01*
X125669630Y-82158978D01*
X125463300Y-82281499D01*
X125209300Y-82281499D01*
X125002970Y-82158978D01*
X124757177Y-82248847D01*
X124533640Y-82384941D01*
X124340949Y-82562030D01*
X124186508Y-82773308D01*
X124076253Y-83010656D01*
X124043584Y-83118371D01*
X122342421Y-83118371D01*
X122313587Y-82923770D01*
X122218403Y-82657608D01*
X122151471Y-82532386D01*
X121907502Y-82460803D01*
X121094405Y-83273900D01*
X120735195Y-83273900D01*
X119922098Y-82460803D01*
X119852872Y-82481115D01*
X119852872Y-82473900D01*
X119840612Y-82349418D01*
X119819918Y-82281198D01*
X120101703Y-82281198D01*
X120914800Y-83094295D01*
X121727897Y-82281198D01*
X121656314Y-82037229D01*
X121400804Y-81916329D01*
X121126616Y-81847600D01*
X120844288Y-81833683D01*
X120564670Y-81875113D01*
X120298508Y-81970297D01*
X120173286Y-82037229D01*
X120101703Y-82281198D01*
X119819918Y-82281198D01*
X119804302Y-82229720D01*
X119745337Y-82119406D01*
X119665985Y-82022715D01*
X119569294Y-81943363D01*
X119458980Y-81884398D01*
X119339282Y-81848088D01*
X119214800Y-81835828D01*
X117614800Y-81835828D01*
X117490318Y-81848088D01*
X117370620Y-81884398D01*
X117260306Y-81943363D01*
X117163615Y-82022715D01*
X117084263Y-82119406D01*
X117025298Y-82229720D01*
X116988988Y-82349418D01*
X116976728Y-82473900D01*
X50660000Y-82473900D01*
X50660000Y-77040000D01*
X52381928Y-77040000D01*
X52381928Y-80540000D01*
X52385000Y-80571192D01*
X52385000Y-80576260D01*
X52385989Y-80581231D01*
X52394188Y-80664482D01*
X52418473Y-80744539D01*
X52442068Y-80863158D01*
X52554010Y-81133411D01*
X52716525Y-81376632D01*
X52923368Y-81583475D01*
X53166589Y-81745990D01*
X53436842Y-81857932D01*
X53723740Y-81915000D01*
X54016260Y-81915000D01*
X54303158Y-81857932D01*
X54573411Y-81745990D01*
X54816632Y-81583475D01*
X55023475Y-81376632D01*
X55140000Y-81202240D01*
X55256525Y-81376632D01*
X55463368Y-81583475D01*
X55706589Y-81745990D01*
X55976842Y-81857932D01*
X56263740Y-81915000D01*
X56556260Y-81915000D01*
X56843158Y-81857932D01*
X57113411Y-81745990D01*
X57356632Y-81583475D01*
X57563475Y-81376632D01*
X57685195Y-81194466D01*
X57754822Y-81311355D01*
X57949731Y-81527588D01*
X58183080Y-81701641D01*
X58445901Y-81826825D01*
X58593110Y-81871476D01*
X58823000Y-81750155D01*
X58823000Y-76563750D01*
X59077000Y-76563750D01*
X59077000Y-81750155D01*
X59306890Y-81871476D01*
X59454099Y-81826825D01*
X59716920Y-81701641D01*
X59950269Y-81527588D01*
X60145178Y-81311355D01*
X60214805Y-81194466D01*
X60336525Y-81376632D01*
X60543368Y-81583475D01*
X60786589Y-81745990D01*
X61056842Y-81857932D01*
X61343740Y-81915000D01*
X61636260Y-81915000D01*
X61923158Y-81857932D01*
X62193411Y-81745990D01*
X62436632Y-81583475D01*
X62643475Y-81376632D01*
X62760000Y-81202240D01*
X62876525Y-81376632D01*
X63083368Y-81583475D01*
X63326589Y-81745990D01*
X63596842Y-81857932D01*
X63883740Y-81915000D01*
X64176260Y-81915000D01*
X64463158Y-81857932D01*
X64733411Y-81745990D01*
X64976632Y-81583475D01*
X65183475Y-81376632D01*
X65300000Y-81202240D01*
X65416525Y-81376632D01*
X65623368Y-81583475D01*
X65866589Y-81745990D01*
X66136842Y-81857932D01*
X66423740Y-81915000D01*
X66716260Y-81915000D01*
X67003158Y-81857932D01*
X67273411Y-81745990D01*
X67516632Y-81583475D01*
X67723475Y-81376632D01*
X67840000Y-81202240D01*
X67956525Y-81376632D01*
X68163368Y-81583475D01*
X68406589Y-81745990D01*
X68676842Y-81857932D01*
X68963740Y-81915000D01*
X69256260Y-81915000D01*
X69543158Y-81857932D01*
X69813411Y-81745990D01*
X70056632Y-81583475D01*
X70263475Y-81376632D01*
X70385195Y-81194466D01*
X70454822Y-81311355D01*
X70649731Y-81527588D01*
X70883080Y-81701641D01*
X71145901Y-81826825D01*
X71293110Y-81871476D01*
X71523000Y-81750155D01*
X71523000Y-76563750D01*
X71777000Y-76563750D01*
X71777000Y-81750155D01*
X72006890Y-81871476D01*
X72154099Y-81826825D01*
X72416920Y-81701641D01*
X72650269Y-81527588D01*
X72845178Y-81311355D01*
X72914805Y-81194466D01*
X73036525Y-81376632D01*
X73243368Y-81583475D01*
X73486589Y-81745990D01*
X73756842Y-81857932D01*
X74043740Y-81915000D01*
X74336260Y-81915000D01*
X74623158Y-81857932D01*
X74893411Y-81745990D01*
X75136632Y-81583475D01*
X75343475Y-81376632D01*
X75460000Y-81202240D01*
X75576525Y-81376632D01*
X75783368Y-81583475D01*
X76026589Y-81745990D01*
X76296842Y-81857932D01*
X76583740Y-81915000D01*
X76876260Y-81915000D01*
X77163158Y-81857932D01*
X77433411Y-81745990D01*
X77676632Y-81583475D01*
X77883475Y-81376632D01*
X78000000Y-81202240D01*
X78116525Y-81376632D01*
X78323368Y-81583475D01*
X78566589Y-81745990D01*
X78836842Y-81857932D01*
X79123740Y-81915000D01*
X79416260Y-81915000D01*
X79703158Y-81857932D01*
X79973411Y-81745990D01*
X80216632Y-81583475D01*
X80423475Y-81376632D01*
X80540000Y-81202240D01*
X80656525Y-81376632D01*
X80863368Y-81583475D01*
X81106589Y-81745990D01*
X81376842Y-81857932D01*
X81663740Y-81915000D01*
X81956260Y-81915000D01*
X82243158Y-81857932D01*
X82513411Y-81745990D01*
X82756632Y-81583475D01*
X82963475Y-81376632D01*
X83085195Y-81194466D01*
X83154822Y-81311355D01*
X83349731Y-81527588D01*
X83583080Y-81701641D01*
X83845901Y-81826825D01*
X83993110Y-81871476D01*
X84223000Y-81750155D01*
X84223000Y-76563750D01*
X84477000Y-76563750D01*
X84477000Y-81750155D01*
X84706890Y-81871476D01*
X84854099Y-81826825D01*
X85116920Y-81701641D01*
X85350269Y-81527588D01*
X85545178Y-81311355D01*
X85614805Y-81194466D01*
X85736525Y-81376632D01*
X85943368Y-81583475D01*
X86186589Y-81745990D01*
X86456842Y-81857932D01*
X86743740Y-81915000D01*
X87036260Y-81915000D01*
X87323158Y-81857932D01*
X87593411Y-81745990D01*
X87836632Y-81583475D01*
X88043475Y-81376632D01*
X88160000Y-81202240D01*
X88276525Y-81376632D01*
X88483368Y-81583475D01*
X88726589Y-81745990D01*
X88996842Y-81857932D01*
X89283740Y-81915000D01*
X89576260Y-81915000D01*
X89863158Y-81857932D01*
X90133411Y-81745990D01*
X90376632Y-81583475D01*
X90583475Y-81376632D01*
X90700000Y-81202240D01*
X90816525Y-81376632D01*
X91023368Y-81583475D01*
X91266589Y-81745990D01*
X91536842Y-81857932D01*
X91823740Y-81915000D01*
X92116260Y-81915000D01*
X92403158Y-81857932D01*
X92673411Y-81745990D01*
X92916632Y-81583475D01*
X93123475Y-81376632D01*
X93240000Y-81202240D01*
X93356525Y-81376632D01*
X93563368Y-81583475D01*
X93806589Y-81745990D01*
X94076842Y-81857932D01*
X94363740Y-81915000D01*
X94656260Y-81915000D01*
X94943158Y-81857932D01*
X95213411Y-81745990D01*
X95456632Y-81583475D01*
X95663475Y-81376632D01*
X95785195Y-81194466D01*
X95854822Y-81311355D01*
X96049731Y-81527588D01*
X96283080Y-81701641D01*
X96545901Y-81826825D01*
X96693110Y-81871476D01*
X96923000Y-81750155D01*
X96923000Y-76563750D01*
X97177000Y-76563750D01*
X97177000Y-81750155D01*
X97406890Y-81871476D01*
X97554099Y-81826825D01*
X97816920Y-81701641D01*
X98050269Y-81527588D01*
X98245178Y-81311355D01*
X98314805Y-81194466D01*
X98436525Y-81376632D01*
X98643368Y-81583475D01*
X98886589Y-81745990D01*
X99156842Y-81857932D01*
X99443740Y-81915000D01*
X99736260Y-81915000D01*
X100023158Y-81857932D01*
X100293411Y-81745990D01*
X100536632Y-81583475D01*
X100743475Y-81376632D01*
X100860000Y-81202240D01*
X100976525Y-81376632D01*
X101183368Y-81583475D01*
X101426589Y-81745990D01*
X101696842Y-81857932D01*
X101983740Y-81915000D01*
X102276260Y-81915000D01*
X102563158Y-81857932D01*
X102833411Y-81745990D01*
X103076632Y-81583475D01*
X103283475Y-81376632D01*
X103445990Y-81133411D01*
X103557932Y-80863158D01*
X103581527Y-80744539D01*
X103605812Y-80664482D01*
X103614011Y-80581231D01*
X103615000Y-80576260D01*
X103615000Y-80571192D01*
X103618072Y-80540000D01*
X103618072Y-77973514D01*
X105345000Y-77973514D01*
X105345000Y-78236486D01*
X105396304Y-78494405D01*
X105496939Y-78737359D01*
X105643038Y-78956013D01*
X105828987Y-79141962D01*
X106047641Y-79288061D01*
X106290595Y-79388696D01*
X106548514Y-79440000D01*
X106811486Y-79440000D01*
X107069405Y-79388696D01*
X107312359Y-79288061D01*
X107531013Y-79141962D01*
X107716962Y-78956013D01*
X107863061Y-78737359D01*
X107950000Y-78527470D01*
X108036939Y-78737359D01*
X108183038Y-78956013D01*
X108368987Y-79141962D01*
X108587641Y-79288061D01*
X108830595Y-79388696D01*
X109088514Y-79440000D01*
X109351486Y-79440000D01*
X109609405Y-79388696D01*
X109852359Y-79288061D01*
X110071013Y-79141962D01*
X110256962Y-78956013D01*
X110403061Y-78737359D01*
X110503696Y-78494405D01*
X110555000Y-78236486D01*
X110555000Y-77973514D01*
X110503696Y-77715595D01*
X110403061Y-77472641D01*
X110256962Y-77253987D01*
X110071013Y-77068038D01*
X109852359Y-76921939D01*
X109784943Y-76894014D01*
X117791000Y-76894014D01*
X117791000Y-77156986D01*
X117842304Y-77414905D01*
X117942939Y-77657859D01*
X118089038Y-77876513D01*
X118274987Y-78062462D01*
X118493641Y-78208561D01*
X118736595Y-78309196D01*
X118994514Y-78360500D01*
X119257486Y-78360500D01*
X119515405Y-78309196D01*
X119758359Y-78208561D01*
X119977013Y-78062462D01*
X120162962Y-77876513D01*
X120309061Y-77657859D01*
X120396000Y-77447970D01*
X120482939Y-77657859D01*
X120629038Y-77876513D01*
X120814987Y-78062462D01*
X121033641Y-78208561D01*
X121276595Y-78309196D01*
X121534514Y-78360500D01*
X121797486Y-78360500D01*
X122055405Y-78309196D01*
X122298359Y-78208561D01*
X122517013Y-78062462D01*
X122702962Y-77876513D01*
X122736379Y-77826500D01*
X129956928Y-77826500D01*
X129956928Y-79526500D01*
X129969188Y-79650982D01*
X130005498Y-79770680D01*
X130064463Y-79880994D01*
X130143815Y-79977685D01*
X130240506Y-80057037D01*
X130350820Y-80116002D01*
X130470518Y-80152312D01*
X130595000Y-80164572D01*
X132295000Y-80164572D01*
X132419482Y-80152312D01*
X132539180Y-80116002D01*
X132649494Y-80057037D01*
X132746185Y-79977685D01*
X132825537Y-79880994D01*
X132884502Y-79770680D01*
X132906513Y-79698120D01*
X133038368Y-79829975D01*
X133281589Y-79992490D01*
X133551842Y-80104432D01*
X133838740Y-80161500D01*
X134131260Y-80161500D01*
X134418158Y-80104432D01*
X134688411Y-79992490D01*
X134931632Y-79829975D01*
X135138475Y-79623132D01*
X135255000Y-79448740D01*
X135371525Y-79623132D01*
X135578368Y-79829975D01*
X135821589Y-79992490D01*
X136091842Y-80104432D01*
X136378740Y-80161500D01*
X136671260Y-80161500D01*
X136958158Y-80104432D01*
X137228411Y-79992490D01*
X137471632Y-79829975D01*
X137678475Y-79623132D01*
X137840990Y-79379911D01*
X137952932Y-79109658D01*
X138010000Y-78822760D01*
X138010000Y-78530240D01*
X137952932Y-78243342D01*
X137840990Y-77973089D01*
X137678475Y-77729868D01*
X137471632Y-77523025D01*
X137228411Y-77360510D01*
X136958158Y-77248568D01*
X136671260Y-77191500D01*
X136378740Y-77191500D01*
X136091842Y-77248568D01*
X135821589Y-77360510D01*
X135578368Y-77523025D01*
X135371525Y-77729868D01*
X135255000Y-77904260D01*
X135138475Y-77729868D01*
X134931632Y-77523025D01*
X134688411Y-77360510D01*
X134418158Y-77248568D01*
X134131260Y-77191500D01*
X133838740Y-77191500D01*
X133551842Y-77248568D01*
X133281589Y-77360510D01*
X133038368Y-77523025D01*
X132906513Y-77654880D01*
X132884502Y-77582320D01*
X132825537Y-77472006D01*
X132746185Y-77375315D01*
X132649494Y-77295963D01*
X132539180Y-77236998D01*
X132419482Y-77200688D01*
X132295000Y-77188428D01*
X130595000Y-77188428D01*
X130470518Y-77200688D01*
X130350820Y-77236998D01*
X130240506Y-77295963D01*
X130143815Y-77375315D01*
X130064463Y-77472006D01*
X130005498Y-77582320D01*
X129969188Y-77702018D01*
X129956928Y-77826500D01*
X122736379Y-77826500D01*
X122849061Y-77657859D01*
X122949696Y-77414905D01*
X123001000Y-77156986D01*
X123001000Y-76894014D01*
X122949696Y-76636095D01*
X122849061Y-76393141D01*
X122702962Y-76174487D01*
X122517013Y-75988538D01*
X122298359Y-75842439D01*
X122055405Y-75741804D01*
X121797486Y-75690500D01*
X121534514Y-75690500D01*
X121276595Y-75741804D01*
X121033641Y-75842439D01*
X120814987Y-75988538D01*
X120629038Y-76174487D01*
X120482939Y-76393141D01*
X120396000Y-76603030D01*
X120309061Y-76393141D01*
X120162962Y-76174487D01*
X119977013Y-75988538D01*
X119758359Y-75842439D01*
X119515405Y-75741804D01*
X119257486Y-75690500D01*
X118994514Y-75690500D01*
X118736595Y-75741804D01*
X118493641Y-75842439D01*
X118274987Y-75988538D01*
X118089038Y-76174487D01*
X117942939Y-76393141D01*
X117842304Y-76636095D01*
X117791000Y-76894014D01*
X109784943Y-76894014D01*
X109609405Y-76821304D01*
X109351486Y-76770000D01*
X109088514Y-76770000D01*
X108830595Y-76821304D01*
X108587641Y-76921939D01*
X108368987Y-77068038D01*
X108183038Y-77253987D01*
X108036939Y-77472641D01*
X107950000Y-77682530D01*
X107863061Y-77472641D01*
X107716962Y-77253987D01*
X107531013Y-77068038D01*
X107312359Y-76921939D01*
X107069405Y-76821304D01*
X106811486Y-76770000D01*
X106548514Y-76770000D01*
X106290595Y-76821304D01*
X106047641Y-76921939D01*
X105828987Y-77068038D01*
X105643038Y-77253987D01*
X105496939Y-77472641D01*
X105396304Y-77715595D01*
X105345000Y-77973514D01*
X103618072Y-77973514D01*
X103618072Y-77040000D01*
X103605812Y-76915518D01*
X103569502Y-76795820D01*
X103510537Y-76685506D01*
X103431185Y-76588815D01*
X103334494Y-76509463D01*
X103224180Y-76450498D01*
X103104482Y-76414188D01*
X102980000Y-76401928D01*
X101280000Y-76401928D01*
X101155518Y-76414188D01*
X101035820Y-76450498D01*
X100925506Y-76509463D01*
X100860000Y-76563222D01*
X100794494Y-76509463D01*
X100684180Y-76450498D01*
X100564482Y-76414188D01*
X100440000Y-76401928D01*
X98740000Y-76401928D01*
X98615518Y-76414188D01*
X98495820Y-76450498D01*
X98385506Y-76509463D01*
X98320000Y-76563222D01*
X98254494Y-76509463D01*
X98144180Y-76450498D01*
X98024482Y-76414188D01*
X97900000Y-76401928D01*
X97335750Y-76405000D01*
X97177000Y-76563750D01*
X96923000Y-76563750D01*
X96764250Y-76405000D01*
X96200000Y-76401928D01*
X96075518Y-76414188D01*
X95955820Y-76450498D01*
X95845506Y-76509463D01*
X95780000Y-76563222D01*
X95714494Y-76509463D01*
X95604180Y-76450498D01*
X95484482Y-76414188D01*
X95360000Y-76401928D01*
X93660000Y-76401928D01*
X93535518Y-76414188D01*
X93415820Y-76450498D01*
X93305506Y-76509463D01*
X93240000Y-76563222D01*
X93174494Y-76509463D01*
X93064180Y-76450498D01*
X92944482Y-76414188D01*
X92820000Y-76401928D01*
X91120000Y-76401928D01*
X90995518Y-76414188D01*
X90875820Y-76450498D01*
X90765506Y-76509463D01*
X90700000Y-76563222D01*
X90634494Y-76509463D01*
X90524180Y-76450498D01*
X90404482Y-76414188D01*
X90280000Y-76401928D01*
X88580000Y-76401928D01*
X88455518Y-76414188D01*
X88335820Y-76450498D01*
X88225506Y-76509463D01*
X88160000Y-76563222D01*
X88094494Y-76509463D01*
X87984180Y-76450498D01*
X87864482Y-76414188D01*
X87740000Y-76401928D01*
X86040000Y-76401928D01*
X85915518Y-76414188D01*
X85795820Y-76450498D01*
X85685506Y-76509463D01*
X85620000Y-76563222D01*
X85554494Y-76509463D01*
X85444180Y-76450498D01*
X85324482Y-76414188D01*
X85200000Y-76401928D01*
X84635750Y-76405000D01*
X84477000Y-76563750D01*
X84223000Y-76563750D01*
X84064250Y-76405000D01*
X83500000Y-76401928D01*
X83375518Y-76414188D01*
X83255820Y-76450498D01*
X83145506Y-76509463D01*
X83080000Y-76563222D01*
X83014494Y-76509463D01*
X82904180Y-76450498D01*
X82784482Y-76414188D01*
X82660000Y-76401928D01*
X80960000Y-76401928D01*
X80835518Y-76414188D01*
X80715820Y-76450498D01*
X80605506Y-76509463D01*
X80540000Y-76563222D01*
X80474494Y-76509463D01*
X80364180Y-76450498D01*
X80244482Y-76414188D01*
X80120000Y-76401928D01*
X78420000Y-76401928D01*
X78295518Y-76414188D01*
X78175820Y-76450498D01*
X78065506Y-76509463D01*
X78000000Y-76563222D01*
X77934494Y-76509463D01*
X77824180Y-76450498D01*
X77704482Y-76414188D01*
X77580000Y-76401928D01*
X75880000Y-76401928D01*
X75755518Y-76414188D01*
X75635820Y-76450498D01*
X75525506Y-76509463D01*
X75460000Y-76563222D01*
X75394494Y-76509463D01*
X75284180Y-76450498D01*
X75164482Y-76414188D01*
X75040000Y-76401928D01*
X73340000Y-76401928D01*
X73215518Y-76414188D01*
X73095820Y-76450498D01*
X72985506Y-76509463D01*
X72920000Y-76563222D01*
X72854494Y-76509463D01*
X72744180Y-76450498D01*
X72624482Y-76414188D01*
X72500000Y-76401928D01*
X71935750Y-76405000D01*
X71777000Y-76563750D01*
X71523000Y-76563750D01*
X71364250Y-76405000D01*
X70800000Y-76401928D01*
X70675518Y-76414188D01*
X70555820Y-76450498D01*
X70445506Y-76509463D01*
X70380000Y-76563222D01*
X70314494Y-76509463D01*
X70204180Y-76450498D01*
X70084482Y-76414188D01*
X69960000Y-76401928D01*
X68260000Y-76401928D01*
X68135518Y-76414188D01*
X68015820Y-76450498D01*
X67905506Y-76509463D01*
X67840000Y-76563222D01*
X67774494Y-76509463D01*
X67664180Y-76450498D01*
X67544482Y-76414188D01*
X67420000Y-76401928D01*
X65720000Y-76401928D01*
X65595518Y-76414188D01*
X65475820Y-76450498D01*
X65365506Y-76509463D01*
X65300000Y-76563222D01*
X65234494Y-76509463D01*
X65124180Y-76450498D01*
X65004482Y-76414188D01*
X64880000Y-76401928D01*
X63180000Y-76401928D01*
X63055518Y-76414188D01*
X62935820Y-76450498D01*
X62825506Y-76509463D01*
X62760000Y-76563222D01*
X62694494Y-76509463D01*
X62584180Y-76450498D01*
X62464482Y-76414188D01*
X62340000Y-76401928D01*
X60640000Y-76401928D01*
X60515518Y-76414188D01*
X60395820Y-76450498D01*
X60285506Y-76509463D01*
X60220000Y-76563222D01*
X60154494Y-76509463D01*
X60044180Y-76450498D01*
X59924482Y-76414188D01*
X59800000Y-76401928D01*
X59235750Y-76405000D01*
X59077000Y-76563750D01*
X58823000Y-76563750D01*
X58664250Y-76405000D01*
X58100000Y-76401928D01*
X57975518Y-76414188D01*
X57855820Y-76450498D01*
X57745506Y-76509463D01*
X57680000Y-76563222D01*
X57614494Y-76509463D01*
X57504180Y-76450498D01*
X57384482Y-76414188D01*
X57260000Y-76401928D01*
X55560000Y-76401928D01*
X55435518Y-76414188D01*
X55315820Y-76450498D01*
X55205506Y-76509463D01*
X55140000Y-76563222D01*
X55074494Y-76509463D01*
X54964180Y-76450498D01*
X54844482Y-76414188D01*
X54720000Y-76401928D01*
X53020000Y-76401928D01*
X52895518Y-76414188D01*
X52775820Y-76450498D01*
X52665506Y-76509463D01*
X52568815Y-76588815D01*
X52489463Y-76685506D01*
X52430498Y-76795820D01*
X52394188Y-76915518D01*
X52381928Y-77040000D01*
X50660000Y-77040000D01*
X50660000Y-71573816D01*
X52465000Y-71573816D01*
X52465000Y-71876184D01*
X52523989Y-72172743D01*
X52639701Y-72452095D01*
X52807688Y-72703505D01*
X53021495Y-72917312D01*
X53272905Y-73085299D01*
X53552257Y-73201011D01*
X53848816Y-73260000D01*
X54151184Y-73260000D01*
X54447743Y-73201011D01*
X54727095Y-73085299D01*
X54978505Y-72917312D01*
X55192312Y-72703505D01*
X55360299Y-72452095D01*
X55476011Y-72172743D01*
X55535000Y-71876184D01*
X55535000Y-71573816D01*
X55478266Y-71288589D01*
X55645000Y-71288589D01*
X55645000Y-71561411D01*
X55698225Y-71828989D01*
X55802629Y-72081043D01*
X55954201Y-72307886D01*
X56147114Y-72500799D01*
X56373957Y-72652371D01*
X56626011Y-72756775D01*
X56893589Y-72810000D01*
X57166411Y-72810000D01*
X57433989Y-72756775D01*
X57686043Y-72652371D01*
X57912886Y-72500799D01*
X58105799Y-72307886D01*
X58257371Y-72081043D01*
X58361775Y-71828989D01*
X58415000Y-71561411D01*
X58415000Y-71288589D01*
X58361775Y-71021011D01*
X58257371Y-70768957D01*
X58105799Y-70542114D01*
X57912886Y-70349201D01*
X57686043Y-70197629D01*
X57433989Y-70093225D01*
X57166411Y-70040000D01*
X56893589Y-70040000D01*
X56626011Y-70093225D01*
X56373957Y-70197629D01*
X56147114Y-70349201D01*
X55954201Y-70542114D01*
X55802629Y-70768957D01*
X55698225Y-71021011D01*
X55645000Y-71288589D01*
X55478266Y-71288589D01*
X55476011Y-71277257D01*
X55360299Y-70997905D01*
X55192312Y-70746495D01*
X54978505Y-70532688D01*
X54727095Y-70364701D01*
X54447743Y-70248989D01*
X54151184Y-70190000D01*
X53848816Y-70190000D01*
X53552257Y-70248989D01*
X53272905Y-70364701D01*
X53021495Y-70532688D01*
X52807688Y-70746495D01*
X52639701Y-70997905D01*
X52523989Y-71277257D01*
X52465000Y-71573816D01*
X50660000Y-71573816D01*
X50660000Y-66123816D01*
X52465000Y-66123816D01*
X52465000Y-66426184D01*
X52523989Y-66722743D01*
X52639701Y-67002095D01*
X52807688Y-67253505D01*
X53021495Y-67467312D01*
X53272905Y-67635299D01*
X53552257Y-67751011D01*
X53848816Y-67810000D01*
X54151184Y-67810000D01*
X54447743Y-67751011D01*
X54727095Y-67635299D01*
X54978505Y-67467312D01*
X55192312Y-67253505D01*
X55360299Y-67002095D01*
X55476011Y-66722743D01*
X55532532Y-66438589D01*
X55645000Y-66438589D01*
X55645000Y-66711411D01*
X55698225Y-66978989D01*
X55802629Y-67231043D01*
X55954201Y-67457886D01*
X56147114Y-67650799D01*
X56373957Y-67802371D01*
X56626011Y-67906775D01*
X56893589Y-67960000D01*
X57166411Y-67960000D01*
X57433989Y-67906775D01*
X57686043Y-67802371D01*
X57912886Y-67650799D01*
X58105799Y-67457886D01*
X58257371Y-67231043D01*
X58361775Y-66978989D01*
X58415000Y-66711411D01*
X58415000Y-66438589D01*
X58361775Y-66171011D01*
X58257371Y-65918957D01*
X58105799Y-65692114D01*
X58023685Y-65610000D01*
X100411928Y-65610000D01*
X100411928Y-67310000D01*
X100424188Y-67434482D01*
X100460498Y-67554180D01*
X100519463Y-67664494D01*
X100573222Y-67730000D01*
X100519463Y-67795506D01*
X100460498Y-67905820D01*
X100424188Y-68025518D01*
X100411928Y-68150000D01*
X100411928Y-69850000D01*
X100424188Y-69974482D01*
X100460498Y-70094180D01*
X100519463Y-70204494D01*
X100573222Y-70270000D01*
X100519463Y-70335506D01*
X100460498Y-70445820D01*
X100424188Y-70565518D01*
X100411928Y-70690000D01*
X100411928Y-72390000D01*
X100424188Y-72514482D01*
X100460498Y-72634180D01*
X100519463Y-72744494D01*
X100598815Y-72841185D01*
X100695506Y-72920537D01*
X100805820Y-72979502D01*
X100925518Y-73015812D01*
X101050000Y-73028072D01*
X104550000Y-73028072D01*
X104674482Y-73015812D01*
X104794180Y-72979502D01*
X104904494Y-72920537D01*
X105001185Y-72841185D01*
X105080537Y-72744494D01*
X105139502Y-72634180D01*
X105175812Y-72514482D01*
X105188072Y-72390000D01*
X105188072Y-72116740D01*
X105195000Y-72116740D01*
X105195000Y-72409260D01*
X105252068Y-72696158D01*
X105364010Y-72966411D01*
X105526525Y-73209632D01*
X105733368Y-73416475D01*
X105976589Y-73578990D01*
X106246842Y-73690932D01*
X106533740Y-73748000D01*
X106826260Y-73748000D01*
X107113158Y-73690932D01*
X107383411Y-73578990D01*
X107626632Y-73416475D01*
X107758487Y-73284620D01*
X107780498Y-73357180D01*
X107839463Y-73467494D01*
X107918815Y-73564185D01*
X108015506Y-73643537D01*
X108125820Y-73702502D01*
X108245518Y-73738812D01*
X108370000Y-73751072D01*
X110070000Y-73751072D01*
X110194482Y-73738812D01*
X110314180Y-73702502D01*
X110424494Y-73643537D01*
X110521185Y-73564185D01*
X110600537Y-73467494D01*
X110659502Y-73357180D01*
X110695812Y-73237482D01*
X110708072Y-73113000D01*
X110708072Y-72952500D01*
X123462428Y-72952500D01*
X123462428Y-74202500D01*
X123479972Y-74380632D01*
X123531931Y-74551918D01*
X123616308Y-74709776D01*
X123729861Y-74848139D01*
X123868224Y-74961692D01*
X124026082Y-75046069D01*
X124197368Y-75098028D01*
X124375500Y-75115572D01*
X124732428Y-75115572D01*
X124732428Y-76272500D01*
X124749972Y-76450632D01*
X124801931Y-76621918D01*
X124886308Y-76779776D01*
X124999861Y-76918139D01*
X125138224Y-77031692D01*
X125296082Y-77116069D01*
X125467368Y-77168028D01*
X125645500Y-77185572D01*
X126195500Y-77185572D01*
X126373632Y-77168028D01*
X126544918Y-77116069D01*
X126702776Y-77031692D01*
X126841139Y-76918139D01*
X126954692Y-76779776D01*
X127039069Y-76621918D01*
X127091028Y-76450632D01*
X127108572Y-76272500D01*
X127108572Y-75022500D01*
X127091028Y-74844368D01*
X127063500Y-74753620D01*
X127063500Y-73704500D01*
X127317500Y-73704500D01*
X127317500Y-74953750D01*
X127476250Y-75112500D01*
X127740500Y-75115572D01*
X127864982Y-75103312D01*
X127984680Y-75067002D01*
X128094994Y-75008037D01*
X128191685Y-74928685D01*
X128271037Y-74831994D01*
X128330002Y-74721680D01*
X128366312Y-74601982D01*
X128378572Y-74477500D01*
X128375500Y-73863250D01*
X128216750Y-73704500D01*
X127317500Y-73704500D01*
X127063500Y-73704500D01*
X126164250Y-73704500D01*
X126005500Y-73863250D01*
X126004269Y-74109428D01*
X125838572Y-74109428D01*
X125838572Y-72952500D01*
X125821028Y-72774368D01*
X125791644Y-72677500D01*
X126002428Y-72677500D01*
X126005500Y-73291750D01*
X126164250Y-73450500D01*
X127063500Y-73450500D01*
X127063500Y-72201250D01*
X127317500Y-72201250D01*
X127317500Y-73450500D01*
X128216750Y-73450500D01*
X128222250Y-73445000D01*
X132496928Y-73445000D01*
X132496928Y-75145000D01*
X132509188Y-75269482D01*
X132545498Y-75389180D01*
X132604463Y-75499494D01*
X132683815Y-75596185D01*
X132780506Y-75675537D01*
X132890820Y-75734502D01*
X133010518Y-75770812D01*
X133135000Y-75783072D01*
X134835000Y-75783072D01*
X134959482Y-75770812D01*
X135079180Y-75734502D01*
X135189494Y-75675537D01*
X135286185Y-75596185D01*
X135365537Y-75499494D01*
X135424502Y-75389180D01*
X135446513Y-75316620D01*
X135578368Y-75448475D01*
X135821589Y-75610990D01*
X136091842Y-75722932D01*
X136378740Y-75780000D01*
X136671260Y-75780000D01*
X136958158Y-75722932D01*
X137228411Y-75610990D01*
X137471632Y-75448475D01*
X137678475Y-75241632D01*
X137840990Y-74998411D01*
X137952932Y-74728158D01*
X138010000Y-74441260D01*
X138010000Y-74148740D01*
X137952932Y-73861842D01*
X137840990Y-73591589D01*
X137678475Y-73348368D01*
X137471632Y-73141525D01*
X137228411Y-72979010D01*
X136958158Y-72867068D01*
X136671260Y-72810000D01*
X136378740Y-72810000D01*
X136091842Y-72867068D01*
X135821589Y-72979010D01*
X135578368Y-73141525D01*
X135446513Y-73273380D01*
X135424502Y-73200820D01*
X135365537Y-73090506D01*
X135286185Y-72993815D01*
X135189494Y-72914463D01*
X135079180Y-72855498D01*
X134959482Y-72819188D01*
X134835000Y-72806928D01*
X133135000Y-72806928D01*
X133010518Y-72819188D01*
X132890820Y-72855498D01*
X132780506Y-72914463D01*
X132683815Y-72993815D01*
X132604463Y-73090506D01*
X132545498Y-73200820D01*
X132509188Y-73320518D01*
X132496928Y-73445000D01*
X128222250Y-73445000D01*
X128375500Y-73291750D01*
X128378572Y-72677500D01*
X128366312Y-72553018D01*
X128330002Y-72433320D01*
X128271037Y-72323006D01*
X128191685Y-72226315D01*
X128094994Y-72146963D01*
X127984680Y-72087998D01*
X127864982Y-72051688D01*
X127740500Y-72039428D01*
X127476250Y-72042500D01*
X127317500Y-72201250D01*
X127063500Y-72201250D01*
X126904750Y-72042500D01*
X126640500Y-72039428D01*
X126516018Y-72051688D01*
X126396320Y-72087998D01*
X126286006Y-72146963D01*
X126189315Y-72226315D01*
X126109963Y-72323006D01*
X126050998Y-72433320D01*
X126014688Y-72553018D01*
X126002428Y-72677500D01*
X125791644Y-72677500D01*
X125769069Y-72603082D01*
X125684692Y-72445224D01*
X125571139Y-72306861D01*
X125432776Y-72193308D01*
X125274918Y-72108931D01*
X125103632Y-72056972D01*
X124925500Y-72039428D01*
X124375500Y-72039428D01*
X124197368Y-72056972D01*
X124026082Y-72108931D01*
X123868224Y-72193308D01*
X123729861Y-72306861D01*
X123616308Y-72445224D01*
X123531931Y-72603082D01*
X123479972Y-72774368D01*
X123462428Y-72952500D01*
X110708072Y-72952500D01*
X110708072Y-71413000D01*
X110695812Y-71288518D01*
X110659502Y-71168820D01*
X110600537Y-71058506D01*
X110521185Y-70961815D01*
X110424494Y-70882463D01*
X110314180Y-70823498D01*
X110194482Y-70787188D01*
X110070000Y-70774928D01*
X108370000Y-70774928D01*
X108245518Y-70787188D01*
X108125820Y-70823498D01*
X108015506Y-70882463D01*
X107918815Y-70961815D01*
X107839463Y-71058506D01*
X107780498Y-71168820D01*
X107758487Y-71241380D01*
X107626632Y-71109525D01*
X107383411Y-70947010D01*
X107113158Y-70835068D01*
X106826260Y-70778000D01*
X106533740Y-70778000D01*
X106246842Y-70835068D01*
X105976589Y-70947010D01*
X105733368Y-71109525D01*
X105526525Y-71316368D01*
X105364010Y-71559589D01*
X105252068Y-71829842D01*
X105195000Y-72116740D01*
X105188072Y-72116740D01*
X105188072Y-70690000D01*
X105175812Y-70565518D01*
X105169289Y-70544014D01*
X118172000Y-70544014D01*
X118172000Y-70806986D01*
X118223304Y-71064905D01*
X118323939Y-71307859D01*
X118470038Y-71526513D01*
X118655987Y-71712462D01*
X118874641Y-71858561D01*
X119117595Y-71959196D01*
X119375514Y-72010500D01*
X119638486Y-72010500D01*
X119896405Y-71959196D01*
X120139359Y-71858561D01*
X120358013Y-71712462D01*
X120543962Y-71526513D01*
X120690061Y-71307859D01*
X120777000Y-71097970D01*
X120863939Y-71307859D01*
X121010038Y-71526513D01*
X121195987Y-71712462D01*
X121414641Y-71858561D01*
X121657595Y-71959196D01*
X121915514Y-72010500D01*
X122178486Y-72010500D01*
X122436405Y-71959196D01*
X122679359Y-71858561D01*
X122898013Y-71712462D01*
X123083962Y-71526513D01*
X123230061Y-71307859D01*
X123330696Y-71064905D01*
X123382000Y-70806986D01*
X123382000Y-70544014D01*
X123330696Y-70286095D01*
X123241173Y-70069967D01*
X130635500Y-70069967D01*
X130635500Y-70392033D01*
X130698332Y-70707912D01*
X130821582Y-71005463D01*
X131000513Y-71273252D01*
X131228248Y-71500987D01*
X131496037Y-71679918D01*
X131793588Y-71803168D01*
X132109467Y-71866000D01*
X132431533Y-71866000D01*
X132747412Y-71803168D01*
X133044963Y-71679918D01*
X133312752Y-71500987D01*
X133540487Y-71273252D01*
X133719418Y-71005463D01*
X133842668Y-70707912D01*
X133905500Y-70392033D01*
X133905500Y-70069967D01*
X135135500Y-70069967D01*
X135135500Y-70392033D01*
X135198332Y-70707912D01*
X135321582Y-71005463D01*
X135500513Y-71273252D01*
X135728248Y-71500987D01*
X135996037Y-71679918D01*
X136293588Y-71803168D01*
X136609467Y-71866000D01*
X136931533Y-71866000D01*
X137247412Y-71803168D01*
X137544963Y-71679918D01*
X137812752Y-71500987D01*
X138040487Y-71273252D01*
X138219418Y-71005463D01*
X138342668Y-70707912D01*
X138405500Y-70392033D01*
X138405500Y-70069967D01*
X138342668Y-69754088D01*
X138219418Y-69456537D01*
X138040487Y-69188748D01*
X137812752Y-68961013D01*
X137544963Y-68782082D01*
X137247412Y-68658832D01*
X136931533Y-68596000D01*
X136609467Y-68596000D01*
X136293588Y-68658832D01*
X135996037Y-68782082D01*
X135728248Y-68961013D01*
X135500513Y-69188748D01*
X135321582Y-69456537D01*
X135198332Y-69754088D01*
X135135500Y-70069967D01*
X133905500Y-70069967D01*
X133842668Y-69754088D01*
X133719418Y-69456537D01*
X133540487Y-69188748D01*
X133312752Y-68961013D01*
X133044963Y-68782082D01*
X132747412Y-68658832D01*
X132431533Y-68596000D01*
X132109467Y-68596000D01*
X131793588Y-68658832D01*
X131496037Y-68782082D01*
X131228248Y-68961013D01*
X131000513Y-69188748D01*
X130821582Y-69456537D01*
X130698332Y-69754088D01*
X130635500Y-70069967D01*
X123241173Y-70069967D01*
X123230061Y-70043141D01*
X123083962Y-69824487D01*
X122898013Y-69638538D01*
X122679359Y-69492439D01*
X122436405Y-69391804D01*
X122178486Y-69340500D01*
X121915514Y-69340500D01*
X121657595Y-69391804D01*
X121414641Y-69492439D01*
X121195987Y-69638538D01*
X121010038Y-69824487D01*
X120863939Y-70043141D01*
X120777000Y-70253030D01*
X120690061Y-70043141D01*
X120543962Y-69824487D01*
X120358013Y-69638538D01*
X120139359Y-69492439D01*
X119896405Y-69391804D01*
X119638486Y-69340500D01*
X119375514Y-69340500D01*
X119117595Y-69391804D01*
X118874641Y-69492439D01*
X118655987Y-69638538D01*
X118470038Y-69824487D01*
X118323939Y-70043141D01*
X118223304Y-70286095D01*
X118172000Y-70544014D01*
X105169289Y-70544014D01*
X105139502Y-70445820D01*
X105080537Y-70335506D01*
X105026778Y-70270000D01*
X105080537Y-70204494D01*
X105139502Y-70094180D01*
X105175812Y-69974482D01*
X105188072Y-69850000D01*
X105188072Y-68150000D01*
X105175812Y-68025518D01*
X105139502Y-67905820D01*
X105080537Y-67795506D01*
X105026778Y-67730000D01*
X105080537Y-67664494D01*
X105139502Y-67554180D01*
X105175812Y-67434482D01*
X105188072Y-67310000D01*
X105188072Y-67178514D01*
X106615000Y-67178514D01*
X106615000Y-67441486D01*
X106666304Y-67699405D01*
X106766939Y-67942359D01*
X106913038Y-68161013D01*
X107098987Y-68346962D01*
X107317641Y-68493061D01*
X107560595Y-68593696D01*
X107818514Y-68645000D01*
X108081486Y-68645000D01*
X108339405Y-68593696D01*
X108582359Y-68493061D01*
X108801013Y-68346962D01*
X108986962Y-68161013D01*
X109133061Y-67942359D01*
X109233696Y-67699405D01*
X109285000Y-67441486D01*
X109285000Y-67178514D01*
X109233696Y-66920595D01*
X109133061Y-66677641D01*
X108986962Y-66458987D01*
X108801013Y-66273038D01*
X108582359Y-66126939D01*
X108368556Y-66038379D01*
X108531366Y-65978935D01*
X108632203Y-65925037D01*
X108691664Y-65691269D01*
X107950000Y-64949605D01*
X107208336Y-65691269D01*
X107267797Y-65925037D01*
X107506242Y-66035934D01*
X107525827Y-66040706D01*
X107317641Y-66126939D01*
X107098987Y-66273038D01*
X106913038Y-66458987D01*
X106766939Y-66677641D01*
X106666304Y-66920595D01*
X106615000Y-67178514D01*
X105188072Y-67178514D01*
X105188072Y-65610000D01*
X105175812Y-65485518D01*
X105139502Y-65365820D01*
X105080537Y-65255506D01*
X105001185Y-65158815D01*
X104904494Y-65079463D01*
X104794180Y-65020498D01*
X104674482Y-64984188D01*
X104550000Y-64971928D01*
X101050000Y-64971928D01*
X100925518Y-64984188D01*
X100805820Y-65020498D01*
X100695506Y-65079463D01*
X100598815Y-65158815D01*
X100519463Y-65255506D01*
X100460498Y-65365820D01*
X100424188Y-65485518D01*
X100411928Y-65610000D01*
X58023685Y-65610000D01*
X57912886Y-65499201D01*
X57686043Y-65347629D01*
X57433989Y-65243225D01*
X57166411Y-65190000D01*
X56893589Y-65190000D01*
X56626011Y-65243225D01*
X56373957Y-65347629D01*
X56147114Y-65499201D01*
X55954201Y-65692114D01*
X55802629Y-65918957D01*
X55698225Y-66171011D01*
X55645000Y-66438589D01*
X55532532Y-66438589D01*
X55535000Y-66426184D01*
X55535000Y-66123816D01*
X55476011Y-65827257D01*
X55360299Y-65547905D01*
X55192312Y-65296495D01*
X54978505Y-65082688D01*
X54727095Y-64914701D01*
X54557551Y-64844473D01*
X106610610Y-64844473D01*
X106650875Y-65104344D01*
X106741065Y-65351366D01*
X106794963Y-65452203D01*
X107028731Y-65511664D01*
X107770395Y-64770000D01*
X108129605Y-64770000D01*
X108871269Y-65511664D01*
X109105037Y-65452203D01*
X109215934Y-65213758D01*
X109278183Y-64958260D01*
X109289390Y-64695527D01*
X109249125Y-64435656D01*
X109158935Y-64188634D01*
X109105037Y-64087797D01*
X108871269Y-64028336D01*
X108129605Y-64770000D01*
X107770395Y-64770000D01*
X107028731Y-64028336D01*
X106794963Y-64087797D01*
X106684066Y-64326242D01*
X106621817Y-64581740D01*
X106610610Y-64844473D01*
X54557551Y-64844473D01*
X54447743Y-64798989D01*
X54151184Y-64740000D01*
X53848816Y-64740000D01*
X53552257Y-64798989D01*
X53272905Y-64914701D01*
X53021495Y-65082688D01*
X52807688Y-65296495D01*
X52639701Y-65547905D01*
X52523989Y-65827257D01*
X52465000Y-66123816D01*
X50660000Y-66123816D01*
X50660000Y-63848731D01*
X107208336Y-63848731D01*
X107950000Y-64590395D01*
X108691664Y-63848731D01*
X108632203Y-63614963D01*
X108393758Y-63504066D01*
X108138260Y-63441817D01*
X107875527Y-63430610D01*
X107615656Y-63470875D01*
X107368634Y-63561065D01*
X107267797Y-63614963D01*
X107208336Y-63848731D01*
X50660000Y-63848731D01*
X50660000Y-53779872D01*
X51765000Y-53779872D01*
X51765000Y-54220128D01*
X51850890Y-54651925D01*
X52019369Y-55058669D01*
X52263962Y-55424729D01*
X52575271Y-55736038D01*
X52941331Y-55980631D01*
X53348075Y-56149110D01*
X53396558Y-56158754D01*
X53166589Y-56254010D01*
X52923368Y-56416525D01*
X52716525Y-56623368D01*
X52554010Y-56866589D01*
X52442068Y-57136842D01*
X52418473Y-57255461D01*
X52394188Y-57335518D01*
X52385989Y-57418769D01*
X52385000Y-57423740D01*
X52385000Y-57428808D01*
X52381928Y-57460000D01*
X52381928Y-60960000D01*
X52394188Y-61084482D01*
X52430498Y-61204180D01*
X52489463Y-61314494D01*
X52568815Y-61411185D01*
X52665506Y-61490537D01*
X52775820Y-61549502D01*
X52895518Y-61585812D01*
X53020000Y-61598072D01*
X54720000Y-61598072D01*
X54844482Y-61585812D01*
X54964180Y-61549502D01*
X55074494Y-61490537D01*
X55140000Y-61436778D01*
X55205506Y-61490537D01*
X55315820Y-61549502D01*
X55435518Y-61585812D01*
X55560000Y-61598072D01*
X57260000Y-61598072D01*
X57384482Y-61585812D01*
X57504180Y-61549502D01*
X57614494Y-61490537D01*
X57680000Y-61436778D01*
X57745506Y-61490537D01*
X57855820Y-61549502D01*
X57975518Y-61585812D01*
X58100000Y-61598072D01*
X58664250Y-61595000D01*
X58823000Y-61436250D01*
X58823000Y-56249845D01*
X59077000Y-56249845D01*
X59077000Y-61436250D01*
X59235750Y-61595000D01*
X59800000Y-61598072D01*
X59924482Y-61585812D01*
X60044180Y-61549502D01*
X60154494Y-61490537D01*
X60220000Y-61436778D01*
X60285506Y-61490537D01*
X60395820Y-61549502D01*
X60515518Y-61585812D01*
X60640000Y-61598072D01*
X62340000Y-61598072D01*
X62464482Y-61585812D01*
X62584180Y-61549502D01*
X62694494Y-61490537D01*
X62760000Y-61436778D01*
X62825506Y-61490537D01*
X62935820Y-61549502D01*
X63055518Y-61585812D01*
X63180000Y-61598072D01*
X64880000Y-61598072D01*
X65004482Y-61585812D01*
X65124180Y-61549502D01*
X65234494Y-61490537D01*
X65300000Y-61436778D01*
X65365506Y-61490537D01*
X65475820Y-61549502D01*
X65595518Y-61585812D01*
X65720000Y-61598072D01*
X67420000Y-61598072D01*
X67544482Y-61585812D01*
X67664180Y-61549502D01*
X67774494Y-61490537D01*
X67840000Y-61436778D01*
X67905506Y-61490537D01*
X68015820Y-61549502D01*
X68135518Y-61585812D01*
X68260000Y-61598072D01*
X69960000Y-61598072D01*
X70084482Y-61585812D01*
X70204180Y-61549502D01*
X70314494Y-61490537D01*
X70380000Y-61436778D01*
X70445506Y-61490537D01*
X70555820Y-61549502D01*
X70675518Y-61585812D01*
X70800000Y-61598072D01*
X71364250Y-61595000D01*
X71523000Y-61436250D01*
X71523000Y-56249845D01*
X71777000Y-56249845D01*
X71777000Y-61436250D01*
X71935750Y-61595000D01*
X72500000Y-61598072D01*
X72624482Y-61585812D01*
X72744180Y-61549502D01*
X72854494Y-61490537D01*
X72920000Y-61436778D01*
X72985506Y-61490537D01*
X73095820Y-61549502D01*
X73215518Y-61585812D01*
X73340000Y-61598072D01*
X75040000Y-61598072D01*
X75164482Y-61585812D01*
X75284180Y-61549502D01*
X75394494Y-61490537D01*
X75460000Y-61436778D01*
X75525506Y-61490537D01*
X75635820Y-61549502D01*
X75755518Y-61585812D01*
X75880000Y-61598072D01*
X77580000Y-61598072D01*
X77704482Y-61585812D01*
X77824180Y-61549502D01*
X77934494Y-61490537D01*
X78000000Y-61436778D01*
X78065506Y-61490537D01*
X78175820Y-61549502D01*
X78295518Y-61585812D01*
X78420000Y-61598072D01*
X80120000Y-61598072D01*
X80244482Y-61585812D01*
X80364180Y-61549502D01*
X80474494Y-61490537D01*
X80540000Y-61436778D01*
X80605506Y-61490537D01*
X80715820Y-61549502D01*
X80835518Y-61585812D01*
X80960000Y-61598072D01*
X82660000Y-61598072D01*
X82784482Y-61585812D01*
X82904180Y-61549502D01*
X83014494Y-61490537D01*
X83080000Y-61436778D01*
X83145506Y-61490537D01*
X83255820Y-61549502D01*
X83375518Y-61585812D01*
X83500000Y-61598072D01*
X84064250Y-61595000D01*
X84223000Y-61436250D01*
X84223000Y-56249845D01*
X84477000Y-56249845D01*
X84477000Y-61436250D01*
X84635750Y-61595000D01*
X85200000Y-61598072D01*
X85324482Y-61585812D01*
X85444180Y-61549502D01*
X85554494Y-61490537D01*
X85620000Y-61436778D01*
X85685506Y-61490537D01*
X85795820Y-61549502D01*
X85915518Y-61585812D01*
X86040000Y-61598072D01*
X87740000Y-61598072D01*
X87864482Y-61585812D01*
X87984180Y-61549502D01*
X88094494Y-61490537D01*
X88160000Y-61436778D01*
X88225506Y-61490537D01*
X88335820Y-61549502D01*
X88455518Y-61585812D01*
X88580000Y-61598072D01*
X90280000Y-61598072D01*
X90404482Y-61585812D01*
X90524180Y-61549502D01*
X90634494Y-61490537D01*
X90700000Y-61436778D01*
X90765506Y-61490537D01*
X90875820Y-61549502D01*
X90995518Y-61585812D01*
X91120000Y-61598072D01*
X92820000Y-61598072D01*
X92944482Y-61585812D01*
X93064180Y-61549502D01*
X93174494Y-61490537D01*
X93240000Y-61436778D01*
X93305506Y-61490537D01*
X93415820Y-61549502D01*
X93535518Y-61585812D01*
X93660000Y-61598072D01*
X95360000Y-61598072D01*
X95484482Y-61585812D01*
X95604180Y-61549502D01*
X95714494Y-61490537D01*
X95780000Y-61436778D01*
X95845506Y-61490537D01*
X95955820Y-61549502D01*
X96075518Y-61585812D01*
X96200000Y-61598072D01*
X96764250Y-61595000D01*
X96923000Y-61436250D01*
X96923000Y-56249845D01*
X97177000Y-56249845D01*
X97177000Y-61436250D01*
X97335750Y-61595000D01*
X97900000Y-61598072D01*
X98024482Y-61585812D01*
X98144180Y-61549502D01*
X98254494Y-61490537D01*
X98320000Y-61436778D01*
X98385506Y-61490537D01*
X98495820Y-61549502D01*
X98615518Y-61585812D01*
X98740000Y-61598072D01*
X100440000Y-61598072D01*
X100564482Y-61585812D01*
X100684180Y-61549502D01*
X100794494Y-61490537D01*
X100860000Y-61436778D01*
X100925506Y-61490537D01*
X101035820Y-61549502D01*
X101155518Y-61585812D01*
X101280000Y-61598072D01*
X102980000Y-61598072D01*
X103104482Y-61585812D01*
X103224180Y-61549502D01*
X103334494Y-61490537D01*
X103431185Y-61411185D01*
X103510537Y-61314494D01*
X103569502Y-61204180D01*
X103605812Y-61084482D01*
X103618072Y-60960000D01*
X103618072Y-57815000D01*
X104856928Y-57815000D01*
X104869188Y-57939482D01*
X104905498Y-58059180D01*
X104964463Y-58169494D01*
X105043815Y-58266185D01*
X105140506Y-58345537D01*
X105250820Y-58404502D01*
X105370518Y-58440812D01*
X105495000Y-58453072D01*
X105759250Y-58450000D01*
X105918000Y-58291250D01*
X105918000Y-57042000D01*
X106172000Y-57042000D01*
X106172000Y-58291250D01*
X106330750Y-58450000D01*
X106595000Y-58453072D01*
X106719482Y-58440812D01*
X106839180Y-58404502D01*
X106949494Y-58345537D01*
X107046185Y-58266185D01*
X107125537Y-58169494D01*
X107184502Y-58059180D01*
X107220812Y-57939482D01*
X107233072Y-57815000D01*
X107230000Y-57200750D01*
X107071250Y-57042000D01*
X106172000Y-57042000D01*
X105918000Y-57042000D01*
X105018750Y-57042000D01*
X104860000Y-57200750D01*
X104856928Y-57815000D01*
X103618072Y-57815000D01*
X103618072Y-57460000D01*
X103615000Y-57428808D01*
X103615000Y-57423740D01*
X103614011Y-57418769D01*
X103605812Y-57335518D01*
X103581527Y-57255461D01*
X103557932Y-57136842D01*
X103445990Y-56866589D01*
X103283475Y-56623368D01*
X103076632Y-56416525D01*
X102833411Y-56254010D01*
X102563158Y-56142068D01*
X102276260Y-56085000D01*
X101983740Y-56085000D01*
X101696842Y-56142068D01*
X101426589Y-56254010D01*
X101183368Y-56416525D01*
X100976525Y-56623368D01*
X100860000Y-56797760D01*
X100743475Y-56623368D01*
X100536632Y-56416525D01*
X100293411Y-56254010D01*
X100023158Y-56142068D01*
X99736260Y-56085000D01*
X99443740Y-56085000D01*
X99156842Y-56142068D01*
X98886589Y-56254010D01*
X98643368Y-56416525D01*
X98436525Y-56623368D01*
X98314805Y-56805534D01*
X98245178Y-56688645D01*
X98050269Y-56472412D01*
X97816920Y-56298359D01*
X97554099Y-56173175D01*
X97406890Y-56128524D01*
X97177000Y-56249845D01*
X96923000Y-56249845D01*
X96693110Y-56128524D01*
X96545901Y-56173175D01*
X96283080Y-56298359D01*
X96049731Y-56472412D01*
X95854822Y-56688645D01*
X95785195Y-56805534D01*
X95663475Y-56623368D01*
X95456632Y-56416525D01*
X95213411Y-56254010D01*
X94943158Y-56142068D01*
X94656260Y-56085000D01*
X94363740Y-56085000D01*
X94076842Y-56142068D01*
X93806589Y-56254010D01*
X93563368Y-56416525D01*
X93356525Y-56623368D01*
X93240000Y-56797760D01*
X93123475Y-56623368D01*
X92916632Y-56416525D01*
X92673411Y-56254010D01*
X92403158Y-56142068D01*
X92116260Y-56085000D01*
X91823740Y-56085000D01*
X91536842Y-56142068D01*
X91266589Y-56254010D01*
X91023368Y-56416525D01*
X90816525Y-56623368D01*
X90700000Y-56797760D01*
X90583475Y-56623368D01*
X90376632Y-56416525D01*
X90133411Y-56254010D01*
X89863158Y-56142068D01*
X89576260Y-56085000D01*
X89283740Y-56085000D01*
X88996842Y-56142068D01*
X88726589Y-56254010D01*
X88483368Y-56416525D01*
X88276525Y-56623368D01*
X88160000Y-56797760D01*
X88043475Y-56623368D01*
X87836632Y-56416525D01*
X87593411Y-56254010D01*
X87323158Y-56142068D01*
X87036260Y-56085000D01*
X86743740Y-56085000D01*
X86456842Y-56142068D01*
X86186589Y-56254010D01*
X85943368Y-56416525D01*
X85736525Y-56623368D01*
X85614805Y-56805534D01*
X85545178Y-56688645D01*
X85350269Y-56472412D01*
X85116920Y-56298359D01*
X84854099Y-56173175D01*
X84706890Y-56128524D01*
X84477000Y-56249845D01*
X84223000Y-56249845D01*
X83993110Y-56128524D01*
X83845901Y-56173175D01*
X83583080Y-56298359D01*
X83349731Y-56472412D01*
X83154822Y-56688645D01*
X83085195Y-56805534D01*
X82963475Y-56623368D01*
X82756632Y-56416525D01*
X82513411Y-56254010D01*
X82243158Y-56142068D01*
X81956260Y-56085000D01*
X81663740Y-56085000D01*
X81376842Y-56142068D01*
X81106589Y-56254010D01*
X80863368Y-56416525D01*
X80656525Y-56623368D01*
X80540000Y-56797760D01*
X80423475Y-56623368D01*
X80216632Y-56416525D01*
X79973411Y-56254010D01*
X79703158Y-56142068D01*
X79416260Y-56085000D01*
X79123740Y-56085000D01*
X78836842Y-56142068D01*
X78566589Y-56254010D01*
X78323368Y-56416525D01*
X78116525Y-56623368D01*
X78000000Y-56797760D01*
X77883475Y-56623368D01*
X77676632Y-56416525D01*
X77433411Y-56254010D01*
X77163158Y-56142068D01*
X76876260Y-56085000D01*
X76583740Y-56085000D01*
X76296842Y-56142068D01*
X76026589Y-56254010D01*
X75783368Y-56416525D01*
X75576525Y-56623368D01*
X75460000Y-56797760D01*
X75343475Y-56623368D01*
X75136632Y-56416525D01*
X74893411Y-56254010D01*
X74623158Y-56142068D01*
X74336260Y-56085000D01*
X74043740Y-56085000D01*
X73756842Y-56142068D01*
X73486589Y-56254010D01*
X73243368Y-56416525D01*
X73036525Y-56623368D01*
X72914805Y-56805534D01*
X72845178Y-56688645D01*
X72650269Y-56472412D01*
X72416920Y-56298359D01*
X72154099Y-56173175D01*
X72006890Y-56128524D01*
X71777000Y-56249845D01*
X71523000Y-56249845D01*
X71293110Y-56128524D01*
X71145901Y-56173175D01*
X70883080Y-56298359D01*
X70649731Y-56472412D01*
X70454822Y-56688645D01*
X70385195Y-56805534D01*
X70263475Y-56623368D01*
X70056632Y-56416525D01*
X69813411Y-56254010D01*
X69543158Y-56142068D01*
X69256260Y-56085000D01*
X68963740Y-56085000D01*
X68676842Y-56142068D01*
X68406589Y-56254010D01*
X68163368Y-56416525D01*
X67956525Y-56623368D01*
X67840000Y-56797760D01*
X67723475Y-56623368D01*
X67516632Y-56416525D01*
X67273411Y-56254010D01*
X67003158Y-56142068D01*
X66716260Y-56085000D01*
X66423740Y-56085000D01*
X66136842Y-56142068D01*
X65866589Y-56254010D01*
X65623368Y-56416525D01*
X65416525Y-56623368D01*
X65300000Y-56797760D01*
X65183475Y-56623368D01*
X64976632Y-56416525D01*
X64733411Y-56254010D01*
X64463158Y-56142068D01*
X64176260Y-56085000D01*
X63883740Y-56085000D01*
X63596842Y-56142068D01*
X63326589Y-56254010D01*
X63083368Y-56416525D01*
X62876525Y-56623368D01*
X62760000Y-56797760D01*
X62643475Y-56623368D01*
X62436632Y-56416525D01*
X62193411Y-56254010D01*
X61923158Y-56142068D01*
X61636260Y-56085000D01*
X61343740Y-56085000D01*
X61056842Y-56142068D01*
X60786589Y-56254010D01*
X60543368Y-56416525D01*
X60336525Y-56623368D01*
X60214805Y-56805534D01*
X60145178Y-56688645D01*
X59950269Y-56472412D01*
X59716920Y-56298359D01*
X59454099Y-56173175D01*
X59306890Y-56128524D01*
X59077000Y-56249845D01*
X58823000Y-56249845D01*
X58593110Y-56128524D01*
X58445901Y-56173175D01*
X58183080Y-56298359D01*
X57949731Y-56472412D01*
X57754822Y-56688645D01*
X57685195Y-56805534D01*
X57563475Y-56623368D01*
X57356632Y-56416525D01*
X57113411Y-56254010D01*
X56843158Y-56142068D01*
X56556260Y-56085000D01*
X56263740Y-56085000D01*
X55976842Y-56142068D01*
X55706589Y-56254010D01*
X55463368Y-56416525D01*
X55256525Y-56623368D01*
X55140000Y-56797760D01*
X55023475Y-56623368D01*
X54816632Y-56416525D01*
X54573411Y-56254010D01*
X54427792Y-56193693D01*
X54651925Y-56149110D01*
X54975694Y-56015000D01*
X104856928Y-56015000D01*
X104860000Y-56629250D01*
X105018750Y-56788000D01*
X105918000Y-56788000D01*
X105918000Y-55538750D01*
X105759250Y-55380000D01*
X105495000Y-55376928D01*
X105370518Y-55389188D01*
X105250820Y-55425498D01*
X105140506Y-55484463D01*
X105043815Y-55563815D01*
X104964463Y-55660506D01*
X104905498Y-55770820D01*
X104869188Y-55890518D01*
X104856928Y-56015000D01*
X54975694Y-56015000D01*
X55058669Y-55980631D01*
X55424729Y-55736038D01*
X55736038Y-55424729D01*
X55980631Y-55058669D01*
X56149110Y-54651925D01*
X56235000Y-54220128D01*
X56235000Y-53779872D01*
X56149110Y-53348075D01*
X55980631Y-52941331D01*
X55736038Y-52575271D01*
X55729281Y-52568514D01*
X64705000Y-52568514D01*
X64705000Y-52831486D01*
X64756304Y-53089405D01*
X64856939Y-53332359D01*
X65003038Y-53551013D01*
X65188987Y-53736962D01*
X65407641Y-53883061D01*
X65650595Y-53983696D01*
X65908514Y-54035000D01*
X66171486Y-54035000D01*
X66429405Y-53983696D01*
X66672359Y-53883061D01*
X66891013Y-53736962D01*
X67076962Y-53551013D01*
X67223061Y-53332359D01*
X67310000Y-53122470D01*
X67396939Y-53332359D01*
X67543038Y-53551013D01*
X67728987Y-53736962D01*
X67947641Y-53883061D01*
X68190595Y-53983696D01*
X68448514Y-54035000D01*
X68711486Y-54035000D01*
X68969405Y-53983696D01*
X69212359Y-53883061D01*
X69431013Y-53736962D01*
X69616962Y-53551013D01*
X69763061Y-53332359D01*
X69795880Y-53253126D01*
X69848320Y-53379727D01*
X70005363Y-53614759D01*
X70205241Y-53814637D01*
X70440273Y-53971680D01*
X70701426Y-54079853D01*
X70978665Y-54135000D01*
X71261335Y-54135000D01*
X71538574Y-54079853D01*
X71799727Y-53971680D01*
X72034759Y-53814637D01*
X72156694Y-53692702D01*
X75306903Y-53692702D01*
X75378486Y-53936671D01*
X75633996Y-54057571D01*
X75908184Y-54126300D01*
X76190512Y-54140217D01*
X76470130Y-54098787D01*
X76736292Y-54003603D01*
X76861514Y-53936671D01*
X76933097Y-53692702D01*
X76120000Y-52879605D01*
X75306903Y-53692702D01*
X72156694Y-53692702D01*
X72234637Y-53614759D01*
X72391680Y-53379727D01*
X72499853Y-53118574D01*
X72555000Y-52841335D01*
X72555000Y-52770512D01*
X74679783Y-52770512D01*
X74721213Y-53050130D01*
X74816397Y-53316292D01*
X74883329Y-53441514D01*
X75127298Y-53513097D01*
X75940395Y-52700000D01*
X76299605Y-52700000D01*
X77112702Y-53513097D01*
X77356671Y-53441514D01*
X77477571Y-53186004D01*
X77546300Y-52911816D01*
X77552107Y-52794000D01*
X97875928Y-52794000D01*
X97875928Y-54394000D01*
X97888188Y-54518482D01*
X97924498Y-54638180D01*
X97983463Y-54748494D01*
X98062815Y-54845185D01*
X98159506Y-54924537D01*
X98269820Y-54983502D01*
X98389518Y-55019812D01*
X98514000Y-55032072D01*
X100114000Y-55032072D01*
X100238482Y-55019812D01*
X100358180Y-54983502D01*
X100468494Y-54924537D01*
X100565185Y-54845185D01*
X100644537Y-54748494D01*
X100703502Y-54638180D01*
X100732661Y-54542057D01*
X100899241Y-54708637D01*
X101134273Y-54865680D01*
X101395426Y-54973853D01*
X101672665Y-55029000D01*
X101955335Y-55029000D01*
X102232574Y-54973853D01*
X102493727Y-54865680D01*
X102728759Y-54708637D01*
X102928637Y-54508759D01*
X103085680Y-54273727D01*
X103193853Y-54012574D01*
X103249000Y-53735335D01*
X103249000Y-53452665D01*
X103193853Y-53175426D01*
X103085680Y-52914273D01*
X102928637Y-52679241D01*
X102728759Y-52479363D01*
X102493727Y-52322320D01*
X102363828Y-52268514D01*
X104625000Y-52268514D01*
X104625000Y-52531486D01*
X104676304Y-52789405D01*
X104776939Y-53032359D01*
X104923038Y-53251013D01*
X105108987Y-53436962D01*
X105327641Y-53583061D01*
X105570595Y-53683696D01*
X105828514Y-53735000D01*
X106091486Y-53735000D01*
X106295896Y-53694340D01*
X106280808Y-53712724D01*
X106196431Y-53870582D01*
X106144472Y-54041868D01*
X106126928Y-54220000D01*
X106126928Y-55470000D01*
X106144472Y-55648132D01*
X106172000Y-55738880D01*
X106172000Y-56788000D01*
X107071250Y-56788000D01*
X107230000Y-56629250D01*
X107231231Y-56383072D01*
X107396928Y-56383072D01*
X107396928Y-57540000D01*
X107414472Y-57718132D01*
X107466431Y-57889418D01*
X107550808Y-58047276D01*
X107664361Y-58185639D01*
X107802724Y-58299192D01*
X107960582Y-58383569D01*
X108131868Y-58435528D01*
X108310000Y-58453072D01*
X108860000Y-58453072D01*
X109038132Y-58435528D01*
X109209418Y-58383569D01*
X109367276Y-58299192D01*
X109505639Y-58185639D01*
X109619192Y-58047276D01*
X109703569Y-57889418D01*
X109755528Y-57718132D01*
X109773072Y-57540000D01*
X109773072Y-56495740D01*
X113005500Y-56495740D01*
X113005500Y-56788260D01*
X113062568Y-57075158D01*
X113174510Y-57345411D01*
X113337025Y-57588632D01*
X113543868Y-57795475D01*
X113718260Y-57912000D01*
X113543868Y-58028525D01*
X113337025Y-58235368D01*
X113174510Y-58478589D01*
X113062568Y-58748842D01*
X113005500Y-59035740D01*
X113005500Y-59328260D01*
X113062568Y-59615158D01*
X113174510Y-59885411D01*
X113337025Y-60128632D01*
X113543868Y-60335475D01*
X113718260Y-60452000D01*
X113543868Y-60568525D01*
X113337025Y-60775368D01*
X113174510Y-61018589D01*
X113062568Y-61288842D01*
X113005500Y-61575740D01*
X113005500Y-61868260D01*
X113062568Y-62155158D01*
X113174510Y-62425411D01*
X113337025Y-62668632D01*
X113543868Y-62875475D01*
X113718260Y-62992000D01*
X113543868Y-63108525D01*
X113337025Y-63315368D01*
X113174510Y-63558589D01*
X113062568Y-63828842D01*
X113005500Y-64115740D01*
X113005500Y-64408260D01*
X113062568Y-64695158D01*
X113174510Y-64965411D01*
X113337025Y-65208632D01*
X113543868Y-65415475D01*
X113718260Y-65532000D01*
X113543868Y-65648525D01*
X113337025Y-65855368D01*
X113174510Y-66098589D01*
X113062568Y-66368842D01*
X113005500Y-66655740D01*
X113005500Y-66948260D01*
X113062568Y-67235158D01*
X113174510Y-67505411D01*
X113337025Y-67748632D01*
X113543868Y-67955475D01*
X113787089Y-68117990D01*
X114057342Y-68229932D01*
X114344240Y-68287000D01*
X114636760Y-68287000D01*
X114923658Y-68229932D01*
X115193911Y-68117990D01*
X115437132Y-67955475D01*
X115643975Y-67748632D01*
X115760500Y-67574240D01*
X115877025Y-67748632D01*
X116083868Y-67955475D01*
X116327089Y-68117990D01*
X116597342Y-68229932D01*
X116884240Y-68287000D01*
X117176760Y-68287000D01*
X117463658Y-68229932D01*
X117733911Y-68117990D01*
X117977132Y-67955475D01*
X118183975Y-67748632D01*
X118300500Y-67574240D01*
X118417025Y-67748632D01*
X118623868Y-67955475D01*
X118867089Y-68117990D01*
X119137342Y-68229932D01*
X119424240Y-68287000D01*
X119716760Y-68287000D01*
X120003658Y-68229932D01*
X120273911Y-68117990D01*
X120517132Y-67955475D01*
X120723975Y-67748632D01*
X120840500Y-67574240D01*
X120957025Y-67748632D01*
X121163868Y-67955475D01*
X121407089Y-68117990D01*
X121677342Y-68229932D01*
X121964240Y-68287000D01*
X122256760Y-68287000D01*
X122543658Y-68229932D01*
X122813911Y-68117990D01*
X123057132Y-67955475D01*
X123263975Y-67748632D01*
X123380500Y-67574240D01*
X123497025Y-67748632D01*
X123703868Y-67955475D01*
X123947089Y-68117990D01*
X124217342Y-68229932D01*
X124504240Y-68287000D01*
X124796760Y-68287000D01*
X125083658Y-68229932D01*
X125353911Y-68117990D01*
X125597132Y-67955475D01*
X125803975Y-67748632D01*
X125920500Y-67574240D01*
X126037025Y-67748632D01*
X126243868Y-67955475D01*
X126487089Y-68117990D01*
X126757342Y-68229932D01*
X127044240Y-68287000D01*
X127336760Y-68287000D01*
X127623658Y-68229932D01*
X127893911Y-68117990D01*
X128137132Y-67955475D01*
X128343975Y-67748632D01*
X128506490Y-67505411D01*
X128618432Y-67235158D01*
X128675500Y-66948260D01*
X128675500Y-66655740D01*
X128618432Y-66368842D01*
X128506490Y-66098589D01*
X128343975Y-65855368D01*
X128137132Y-65648525D01*
X127962740Y-65532000D01*
X128137132Y-65415475D01*
X128343975Y-65208632D01*
X128506490Y-64965411D01*
X128618432Y-64695158D01*
X128675500Y-64408260D01*
X128675500Y-64115740D01*
X128618432Y-63828842D01*
X128511203Y-63569967D01*
X130635500Y-63569967D01*
X130635500Y-63892033D01*
X130698332Y-64207912D01*
X130821582Y-64505463D01*
X131000513Y-64773252D01*
X131228248Y-65000987D01*
X131496037Y-65179918D01*
X131793588Y-65303168D01*
X132109467Y-65366000D01*
X132431533Y-65366000D01*
X132747412Y-65303168D01*
X133044963Y-65179918D01*
X133312752Y-65000987D01*
X133540487Y-64773252D01*
X133719418Y-64505463D01*
X133842668Y-64207912D01*
X133905500Y-63892033D01*
X133905500Y-63569967D01*
X135135500Y-63569967D01*
X135135500Y-63892033D01*
X135198332Y-64207912D01*
X135321582Y-64505463D01*
X135500513Y-64773252D01*
X135728248Y-65000987D01*
X135996037Y-65179918D01*
X136293588Y-65303168D01*
X136609467Y-65366000D01*
X136931533Y-65366000D01*
X137247412Y-65303168D01*
X137544963Y-65179918D01*
X137812752Y-65000987D01*
X138040487Y-64773252D01*
X138219418Y-64505463D01*
X138342668Y-64207912D01*
X138405500Y-63892033D01*
X138405500Y-63569967D01*
X138342668Y-63254088D01*
X138219418Y-62956537D01*
X138040487Y-62688748D01*
X137812752Y-62461013D01*
X137544963Y-62282082D01*
X137247412Y-62158832D01*
X136931533Y-62096000D01*
X136609467Y-62096000D01*
X136293588Y-62158832D01*
X135996037Y-62282082D01*
X135728248Y-62461013D01*
X135500513Y-62688748D01*
X135321582Y-62956537D01*
X135198332Y-63254088D01*
X135135500Y-63569967D01*
X133905500Y-63569967D01*
X133842668Y-63254088D01*
X133719418Y-62956537D01*
X133540487Y-62688748D01*
X133312752Y-62461013D01*
X133044963Y-62282082D01*
X132747412Y-62158832D01*
X132431533Y-62096000D01*
X132109467Y-62096000D01*
X131793588Y-62158832D01*
X131496037Y-62282082D01*
X131228248Y-62461013D01*
X131000513Y-62688748D01*
X130821582Y-62956537D01*
X130698332Y-63254088D01*
X130635500Y-63569967D01*
X128511203Y-63569967D01*
X128506490Y-63558589D01*
X128343975Y-63315368D01*
X128137132Y-63108525D01*
X127962740Y-62992000D01*
X128137132Y-62875475D01*
X128343975Y-62668632D01*
X128506490Y-62425411D01*
X128618432Y-62155158D01*
X128675500Y-61868260D01*
X128675500Y-61575740D01*
X128618432Y-61288842D01*
X128506490Y-61018589D01*
X128343975Y-60775368D01*
X128137132Y-60568525D01*
X127962740Y-60452000D01*
X128137132Y-60335475D01*
X128343975Y-60128632D01*
X128506490Y-59885411D01*
X128618432Y-59615158D01*
X128675500Y-59328260D01*
X128675500Y-59035740D01*
X128618432Y-58748842D01*
X128506490Y-58478589D01*
X128343975Y-58235368D01*
X128137132Y-58028525D01*
X127962740Y-57912000D01*
X128137132Y-57795475D01*
X128343975Y-57588632D01*
X128506490Y-57345411D01*
X128618432Y-57075158D01*
X128675500Y-56788260D01*
X128675500Y-56495740D01*
X128618432Y-56208842D01*
X128506490Y-55938589D01*
X128343975Y-55695368D01*
X128137132Y-55488525D01*
X127893911Y-55326010D01*
X127623658Y-55214068D01*
X127336760Y-55157000D01*
X127044240Y-55157000D01*
X126757342Y-55214068D01*
X126487089Y-55326010D01*
X126243868Y-55488525D01*
X126037025Y-55695368D01*
X125920500Y-55869760D01*
X125803975Y-55695368D01*
X125597132Y-55488525D01*
X125353911Y-55326010D01*
X125083658Y-55214068D01*
X124796760Y-55157000D01*
X124504240Y-55157000D01*
X124217342Y-55214068D01*
X123947089Y-55326010D01*
X123703868Y-55488525D01*
X123497025Y-55695368D01*
X123380500Y-55869760D01*
X123263975Y-55695368D01*
X123057132Y-55488525D01*
X122813911Y-55326010D01*
X122543658Y-55214068D01*
X122256760Y-55157000D01*
X121964240Y-55157000D01*
X121677342Y-55214068D01*
X121407089Y-55326010D01*
X121163868Y-55488525D01*
X120957025Y-55695368D01*
X120840500Y-55869760D01*
X120723975Y-55695368D01*
X120517132Y-55488525D01*
X120273911Y-55326010D01*
X120003658Y-55214068D01*
X119716760Y-55157000D01*
X119424240Y-55157000D01*
X119137342Y-55214068D01*
X118867089Y-55326010D01*
X118623868Y-55488525D01*
X118417025Y-55695368D01*
X118300500Y-55869760D01*
X118183975Y-55695368D01*
X117977132Y-55488525D01*
X117733911Y-55326010D01*
X117463658Y-55214068D01*
X117176760Y-55157000D01*
X116884240Y-55157000D01*
X116597342Y-55214068D01*
X116327089Y-55326010D01*
X116083868Y-55488525D01*
X115877025Y-55695368D01*
X115760500Y-55869760D01*
X115643975Y-55695368D01*
X115437132Y-55488525D01*
X115193911Y-55326010D01*
X114923658Y-55214068D01*
X114636760Y-55157000D01*
X114344240Y-55157000D01*
X114057342Y-55214068D01*
X113787089Y-55326010D01*
X113543868Y-55488525D01*
X113337025Y-55695368D01*
X113174510Y-55938589D01*
X113062568Y-56208842D01*
X113005500Y-56495740D01*
X109773072Y-56495740D01*
X109773072Y-56290000D01*
X109755528Y-56111868D01*
X109703569Y-55940582D01*
X109619192Y-55782724D01*
X109505639Y-55644361D01*
X109367276Y-55530808D01*
X109209418Y-55446431D01*
X109038132Y-55394472D01*
X108860000Y-55376928D01*
X108503072Y-55376928D01*
X108503072Y-54220000D01*
X108485528Y-54041868D01*
X108433569Y-53870582D01*
X108360217Y-53733350D01*
X108368514Y-53735000D01*
X108631486Y-53735000D01*
X108889405Y-53683696D01*
X109132359Y-53583061D01*
X109351013Y-53436962D01*
X109536962Y-53251013D01*
X109683061Y-53032359D01*
X109783696Y-52789405D01*
X109829578Y-52558740D01*
X109975000Y-52558740D01*
X109975000Y-52851260D01*
X110032068Y-53138158D01*
X110144010Y-53408411D01*
X110306525Y-53651632D01*
X110513368Y-53858475D01*
X110756589Y-54020990D01*
X111026842Y-54132932D01*
X111313740Y-54190000D01*
X111606260Y-54190000D01*
X111893158Y-54132932D01*
X112163411Y-54020990D01*
X112406632Y-53858475D01*
X112538487Y-53726620D01*
X112560498Y-53799180D01*
X112619463Y-53909494D01*
X112698815Y-54006185D01*
X112795506Y-54085537D01*
X112905820Y-54144502D01*
X113025518Y-54180812D01*
X113150000Y-54193072D01*
X114850000Y-54193072D01*
X114974482Y-54180812D01*
X115094180Y-54144502D01*
X115204494Y-54085537D01*
X115301185Y-54006185D01*
X115380537Y-53909494D01*
X115439502Y-53799180D01*
X115445359Y-53779872D01*
X133765000Y-53779872D01*
X133765000Y-54220128D01*
X133850890Y-54651925D01*
X134019369Y-55058669D01*
X134263962Y-55424729D01*
X134575271Y-55736038D01*
X134941331Y-55980631D01*
X135348075Y-56149110D01*
X135779872Y-56235000D01*
X136220128Y-56235000D01*
X136651925Y-56149110D01*
X137058669Y-55980631D01*
X137424729Y-55736038D01*
X137736038Y-55424729D01*
X137980631Y-55058669D01*
X138149110Y-54651925D01*
X138235000Y-54220128D01*
X138235000Y-53779872D01*
X138149110Y-53348075D01*
X137980631Y-52941331D01*
X137736038Y-52575271D01*
X137424729Y-52263962D01*
X137058669Y-52019369D01*
X136651925Y-51850890D01*
X136220128Y-51765000D01*
X135779872Y-51765000D01*
X135348075Y-51850890D01*
X134941331Y-52019369D01*
X134575271Y-52263962D01*
X134263962Y-52575271D01*
X134019369Y-52941331D01*
X133850890Y-53348075D01*
X133765000Y-53779872D01*
X115445359Y-53779872D01*
X115475812Y-53679482D01*
X115488072Y-53555000D01*
X115488072Y-51855000D01*
X115475812Y-51730518D01*
X115439502Y-51610820D01*
X115380537Y-51500506D01*
X115301185Y-51403815D01*
X115204494Y-51324463D01*
X115094180Y-51265498D01*
X114974482Y-51229188D01*
X114850000Y-51216928D01*
X113150000Y-51216928D01*
X113025518Y-51229188D01*
X112905820Y-51265498D01*
X112795506Y-51324463D01*
X112698815Y-51403815D01*
X112619463Y-51500506D01*
X112560498Y-51610820D01*
X112538487Y-51683380D01*
X112406632Y-51551525D01*
X112163411Y-51389010D01*
X111893158Y-51277068D01*
X111606260Y-51220000D01*
X111313740Y-51220000D01*
X111026842Y-51277068D01*
X110756589Y-51389010D01*
X110513368Y-51551525D01*
X110306525Y-51758368D01*
X110144010Y-52001589D01*
X110032068Y-52271842D01*
X109975000Y-52558740D01*
X109829578Y-52558740D01*
X109835000Y-52531486D01*
X109835000Y-52268514D01*
X109783696Y-52010595D01*
X109683061Y-51767641D01*
X109536962Y-51548987D01*
X109351013Y-51363038D01*
X109132359Y-51216939D01*
X108889405Y-51116304D01*
X108631486Y-51065000D01*
X108368514Y-51065000D01*
X108110595Y-51116304D01*
X107867641Y-51216939D01*
X107648987Y-51363038D01*
X107463038Y-51548987D01*
X107316939Y-51767641D01*
X107230000Y-51977530D01*
X107143061Y-51767641D01*
X106996962Y-51548987D01*
X106811013Y-51363038D01*
X106592359Y-51216939D01*
X106349405Y-51116304D01*
X106091486Y-51065000D01*
X105828514Y-51065000D01*
X105570595Y-51116304D01*
X105327641Y-51216939D01*
X105108987Y-51363038D01*
X104923038Y-51548987D01*
X104776939Y-51767641D01*
X104676304Y-52010595D01*
X104625000Y-52268514D01*
X102363828Y-52268514D01*
X102232574Y-52214147D01*
X101955335Y-52159000D01*
X101672665Y-52159000D01*
X101395426Y-52214147D01*
X101134273Y-52322320D01*
X100899241Y-52479363D01*
X100732661Y-52645943D01*
X100703502Y-52549820D01*
X100644537Y-52439506D01*
X100565185Y-52342815D01*
X100468494Y-52263463D01*
X100358180Y-52204498D01*
X100238482Y-52168188D01*
X100114000Y-52155928D01*
X98514000Y-52155928D01*
X98389518Y-52168188D01*
X98269820Y-52204498D01*
X98159506Y-52263463D01*
X98062815Y-52342815D01*
X97983463Y-52439506D01*
X97924498Y-52549820D01*
X97888188Y-52669518D01*
X97875928Y-52794000D01*
X77552107Y-52794000D01*
X77560217Y-52629488D01*
X77518787Y-52349870D01*
X77423603Y-52083708D01*
X77356671Y-51958486D01*
X77112702Y-51886903D01*
X76299605Y-52700000D01*
X75940395Y-52700000D01*
X75127298Y-51886903D01*
X74883329Y-51958486D01*
X74762429Y-52213996D01*
X74693700Y-52488184D01*
X74679783Y-52770512D01*
X72555000Y-52770512D01*
X72555000Y-52558665D01*
X72499853Y-52281426D01*
X72391680Y-52020273D01*
X72234637Y-51785241D01*
X72156694Y-51707298D01*
X75306903Y-51707298D01*
X76120000Y-52520395D01*
X76933097Y-51707298D01*
X76861514Y-51463329D01*
X76606004Y-51342429D01*
X76331816Y-51273700D01*
X76049488Y-51259783D01*
X75769870Y-51301213D01*
X75503708Y-51396397D01*
X75378486Y-51463329D01*
X75306903Y-51707298D01*
X72156694Y-51707298D01*
X72034759Y-51585363D01*
X71799727Y-51428320D01*
X71538574Y-51320147D01*
X71261335Y-51265000D01*
X70978665Y-51265000D01*
X70701426Y-51320147D01*
X70440273Y-51428320D01*
X70205241Y-51585363D01*
X70005363Y-51785241D01*
X69848320Y-52020273D01*
X69795880Y-52146874D01*
X69763061Y-52067641D01*
X69616962Y-51848987D01*
X69431013Y-51663038D01*
X69212359Y-51516939D01*
X68969405Y-51416304D01*
X68711486Y-51365000D01*
X68448514Y-51365000D01*
X68190595Y-51416304D01*
X67947641Y-51516939D01*
X67728987Y-51663038D01*
X67543038Y-51848987D01*
X67396939Y-52067641D01*
X67310000Y-52277530D01*
X67223061Y-52067641D01*
X67076962Y-51848987D01*
X66891013Y-51663038D01*
X66672359Y-51516939D01*
X66429405Y-51416304D01*
X66171486Y-51365000D01*
X65908514Y-51365000D01*
X65650595Y-51416304D01*
X65407641Y-51516939D01*
X65188987Y-51663038D01*
X65003038Y-51848987D01*
X64856939Y-52067641D01*
X64756304Y-52310595D01*
X64705000Y-52568514D01*
X55729281Y-52568514D01*
X55424729Y-52263962D01*
X55058669Y-52019369D01*
X54651925Y-51850890D01*
X54220128Y-51765000D01*
X53779872Y-51765000D01*
X53348075Y-51850890D01*
X52941331Y-52019369D01*
X52575271Y-52263962D01*
X52263962Y-52575271D01*
X52019369Y-52941331D01*
X51850890Y-53348075D01*
X51765000Y-53779872D01*
X50660000Y-53779872D01*
X50660000Y-50660000D01*
X139340000Y-50660000D01*
X139340001Y-90340000D01*
M02*
