G04 #@! TF.GenerationSoftware,KiCad,Pcbnew,5.1.5+dfsg1-2build2*
G04 #@! TF.CreationDate,2021-11-10T16:06:01-05:00*
G04 #@! TF.ProjectId,SINSONTE_MODEL_B,53494e53-4f4e-4544-955f-4d4f44454c5f,rev?*
G04 #@! TF.SameCoordinates,Original*
G04 #@! TF.FileFunction,Soldermask,Bot*
G04 #@! TF.FilePolarity,Negative*
%FSLAX46Y46*%
G04 Gerber Fmt 4.6, Leading zero omitted, Abs format (unit mm)*
G04 Created by KiCad (PCBNEW 5.1.5+dfsg1-2build2) date 2021-11-10 16:06:01*
%MOMM*%
%LPD*%
G04 APERTURE LIST*
%ADD10C,0.100000*%
G04 APERTURE END LIST*
D10*
G36*
X136375256Y-85391298D02*
G01*
X136481579Y-85412447D01*
X136782042Y-85536903D01*
X137052451Y-85717585D01*
X137282415Y-85947549D01*
X137463097Y-86217958D01*
X137587553Y-86518421D01*
X137651000Y-86837391D01*
X137651000Y-87162609D01*
X137587553Y-87481579D01*
X137463097Y-87782042D01*
X137282415Y-88052451D01*
X137052451Y-88282415D01*
X136782042Y-88463097D01*
X136481579Y-88587553D01*
X136375256Y-88608702D01*
X136162611Y-88651000D01*
X135837389Y-88651000D01*
X135624744Y-88608702D01*
X135518421Y-88587553D01*
X135217958Y-88463097D01*
X134947549Y-88282415D01*
X134717585Y-88052451D01*
X134536903Y-87782042D01*
X134412447Y-87481579D01*
X134349000Y-87162609D01*
X134349000Y-86837391D01*
X134412447Y-86518421D01*
X134536903Y-86217958D01*
X134717585Y-85947549D01*
X134947549Y-85717585D01*
X135217958Y-85536903D01*
X135518421Y-85412447D01*
X135624744Y-85391298D01*
X135837389Y-85349000D01*
X136162611Y-85349000D01*
X136375256Y-85391298D01*
G37*
G36*
X54375256Y-85391298D02*
G01*
X54481579Y-85412447D01*
X54782042Y-85536903D01*
X55052451Y-85717585D01*
X55282415Y-85947549D01*
X55463097Y-86217958D01*
X55587553Y-86518421D01*
X55651000Y-86837391D01*
X55651000Y-87162609D01*
X55587553Y-87481579D01*
X55463097Y-87782042D01*
X55282415Y-88052451D01*
X55052451Y-88282415D01*
X54782042Y-88463097D01*
X54481579Y-88587553D01*
X54375256Y-88608702D01*
X54162611Y-88651000D01*
X53837389Y-88651000D01*
X53624744Y-88608702D01*
X53518421Y-88587553D01*
X53217958Y-88463097D01*
X52947549Y-88282415D01*
X52717585Y-88052451D01*
X52536903Y-87782042D01*
X52412447Y-87481579D01*
X52349000Y-87162609D01*
X52349000Y-86837391D01*
X52412447Y-86518421D01*
X52536903Y-86217958D01*
X52717585Y-85947549D01*
X52947549Y-85717585D01*
X53217958Y-85536903D01*
X53518421Y-85412447D01*
X53624744Y-85391298D01*
X53837389Y-85349000D01*
X54162611Y-85349000D01*
X54375256Y-85391298D01*
G37*
G36*
X63251000Y-88051000D02*
G01*
X60749000Y-88051000D01*
X60749000Y-85549000D01*
X63251000Y-85549000D01*
X63251000Y-88051000D01*
G37*
G36*
X65864903Y-85597075D02*
G01*
X66092571Y-85691378D01*
X66297466Y-85828285D01*
X66471715Y-86002534D01*
X66608622Y-86207429D01*
X66702925Y-86435097D01*
X66751000Y-86676787D01*
X66751000Y-86923213D01*
X66702925Y-87164903D01*
X66608622Y-87392571D01*
X66471715Y-87597466D01*
X66297466Y-87771715D01*
X66092571Y-87908622D01*
X66092570Y-87908623D01*
X66092569Y-87908623D01*
X65864903Y-88002925D01*
X65623214Y-88051000D01*
X65376786Y-88051000D01*
X65135097Y-88002925D01*
X64907431Y-87908623D01*
X64907430Y-87908623D01*
X64907429Y-87908622D01*
X64702534Y-87771715D01*
X64528285Y-87597466D01*
X64391378Y-87392571D01*
X64297075Y-87164903D01*
X64249000Y-86923213D01*
X64249000Y-86676787D01*
X64297075Y-86435097D01*
X64391378Y-86207429D01*
X64528285Y-86002534D01*
X64702534Y-85828285D01*
X64907429Y-85691378D01*
X65135097Y-85597075D01*
X65376786Y-85549000D01*
X65623214Y-85549000D01*
X65864903Y-85597075D01*
G37*
G36*
X74929300Y-87324500D02*
G01*
X73127300Y-87324500D01*
X73127300Y-85522500D01*
X74929300Y-85522500D01*
X74929300Y-87324500D01*
G37*
G36*
X76681812Y-85527427D02*
G01*
X76831112Y-85557124D01*
X76995084Y-85625044D01*
X77142654Y-85723647D01*
X77268153Y-85849146D01*
X77366756Y-85996716D01*
X77434676Y-86160688D01*
X77469300Y-86334759D01*
X77469300Y-86512241D01*
X77434676Y-86686312D01*
X77366756Y-86850284D01*
X77268153Y-86997854D01*
X77142654Y-87123353D01*
X76995084Y-87221956D01*
X76831112Y-87289876D01*
X76681812Y-87319573D01*
X76657042Y-87324500D01*
X76479558Y-87324500D01*
X76454788Y-87319573D01*
X76305488Y-87289876D01*
X76141516Y-87221956D01*
X75993946Y-87123353D01*
X75868447Y-86997854D01*
X75769844Y-86850284D01*
X75701924Y-86686312D01*
X75667300Y-86512241D01*
X75667300Y-86334759D01*
X75701924Y-86160688D01*
X75769844Y-85996716D01*
X75868447Y-85849146D01*
X75993946Y-85723647D01*
X76141516Y-85625044D01*
X76305488Y-85557124D01*
X76454788Y-85527427D01*
X76479558Y-85522500D01*
X76657042Y-85522500D01*
X76681812Y-85527427D01*
G37*
G36*
X128095359Y-82729560D02*
G01*
X128232032Y-82786172D01*
X128355035Y-82868360D01*
X128459640Y-82972965D01*
X128541828Y-83095968D01*
X128541829Y-83095970D01*
X128598440Y-83232641D01*
X128623319Y-83357716D01*
X128627300Y-83377733D01*
X128627300Y-83525667D01*
X128598440Y-83670759D01*
X128541828Y-83807432D01*
X128459640Y-83930435D01*
X128355035Y-84035040D01*
X128232032Y-84117228D01*
X128232031Y-84117229D01*
X128232030Y-84117229D01*
X128095359Y-84173840D01*
X127950268Y-84202700D01*
X127802332Y-84202700D01*
X127657241Y-84173840D01*
X127520570Y-84117229D01*
X127520569Y-84117229D01*
X127520568Y-84117228D01*
X127397565Y-84035040D01*
X127292960Y-83930435D01*
X127210772Y-83807432D01*
X127154160Y-83670759D01*
X127125300Y-83525667D01*
X127125300Y-83377733D01*
X127129282Y-83357716D01*
X127154160Y-83232641D01*
X127210771Y-83095970D01*
X127210772Y-83095968D01*
X127292960Y-82972965D01*
X127397565Y-82868360D01*
X127520568Y-82786172D01*
X127657241Y-82729560D01*
X127802332Y-82700700D01*
X127950268Y-82700700D01*
X128095359Y-82729560D01*
G37*
G36*
X125555359Y-82729560D02*
G01*
X125692032Y-82786172D01*
X125815035Y-82868360D01*
X125919640Y-82972965D01*
X126001828Y-83095968D01*
X126001829Y-83095970D01*
X126058440Y-83232641D01*
X126083319Y-83357716D01*
X126087300Y-83377733D01*
X126087300Y-83525667D01*
X126058440Y-83670759D01*
X126001828Y-83807432D01*
X125919640Y-83930435D01*
X125815035Y-84035040D01*
X125692032Y-84117228D01*
X125692031Y-84117229D01*
X125692030Y-84117229D01*
X125555359Y-84173840D01*
X125410268Y-84202700D01*
X125262332Y-84202700D01*
X125117241Y-84173840D01*
X124980570Y-84117229D01*
X124980569Y-84117229D01*
X124980568Y-84117228D01*
X124857565Y-84035040D01*
X124752960Y-83930435D01*
X124670772Y-83807432D01*
X124614160Y-83670759D01*
X124585300Y-83525667D01*
X124585300Y-83377733D01*
X124589282Y-83357716D01*
X124614160Y-83232641D01*
X124670771Y-83095970D01*
X124670772Y-83095968D01*
X124752960Y-82972965D01*
X124857565Y-82868360D01*
X124980568Y-82786172D01*
X125117241Y-82729560D01*
X125262332Y-82700700D01*
X125410268Y-82700700D01*
X125555359Y-82729560D01*
G37*
G36*
X119265800Y-84124900D02*
G01*
X117563800Y-84124900D01*
X117563800Y-82422900D01*
X119265800Y-82422900D01*
X119265800Y-84124900D01*
G37*
G36*
X121163028Y-82455603D02*
G01*
X121317900Y-82519753D01*
X121457281Y-82612885D01*
X121575815Y-82731419D01*
X121668947Y-82870800D01*
X121733097Y-83025672D01*
X121765800Y-83190084D01*
X121765800Y-83357716D01*
X121733097Y-83522128D01*
X121668947Y-83677000D01*
X121575815Y-83816381D01*
X121457281Y-83934915D01*
X121317900Y-84028047D01*
X121163028Y-84092197D01*
X120998616Y-84124900D01*
X120830984Y-84124900D01*
X120666572Y-84092197D01*
X120511700Y-84028047D01*
X120372319Y-83934915D01*
X120253785Y-83816381D01*
X120160653Y-83677000D01*
X120096503Y-83522128D01*
X120063800Y-83357716D01*
X120063800Y-83190084D01*
X120096503Y-83025672D01*
X120160653Y-82870800D01*
X120253785Y-82731419D01*
X120372319Y-82612885D01*
X120511700Y-82519753D01*
X120666572Y-82455603D01*
X120830984Y-82422900D01*
X120998616Y-82422900D01*
X121163028Y-82455603D01*
G37*
G36*
X79383512Y-79533927D02*
G01*
X79532812Y-79563624D01*
X79696784Y-79631544D01*
X79844354Y-79730147D01*
X79969853Y-79855646D01*
X80068456Y-80003216D01*
X80136376Y-80167188D01*
X80171000Y-80341259D01*
X80171000Y-80518741D01*
X80136376Y-80692812D01*
X80068456Y-80856784D01*
X79969853Y-81004354D01*
X79844354Y-81129853D01*
X79696784Y-81228456D01*
X79532812Y-81296376D01*
X79383512Y-81326073D01*
X79358742Y-81331000D01*
X79181258Y-81331000D01*
X79156488Y-81326073D01*
X79007188Y-81296376D01*
X78843216Y-81228456D01*
X78695646Y-81129853D01*
X78570147Y-81004354D01*
X78471544Y-80856784D01*
X78403624Y-80692812D01*
X78369000Y-80518741D01*
X78369000Y-80341259D01*
X78403624Y-80167188D01*
X78471544Y-80003216D01*
X78570147Y-79855646D01*
X78695646Y-79730147D01*
X78843216Y-79631544D01*
X79007188Y-79563624D01*
X79156488Y-79533927D01*
X79181258Y-79529000D01*
X79358742Y-79529000D01*
X79383512Y-79533927D01*
G37*
G36*
X71763512Y-79533927D02*
G01*
X71912812Y-79563624D01*
X72076784Y-79631544D01*
X72224354Y-79730147D01*
X72349853Y-79855646D01*
X72448456Y-80003216D01*
X72516376Y-80167188D01*
X72551000Y-80341259D01*
X72551000Y-80518741D01*
X72516376Y-80692812D01*
X72448456Y-80856784D01*
X72349853Y-81004354D01*
X72224354Y-81129853D01*
X72076784Y-81228456D01*
X71912812Y-81296376D01*
X71763512Y-81326073D01*
X71738742Y-81331000D01*
X71561258Y-81331000D01*
X71536488Y-81326073D01*
X71387188Y-81296376D01*
X71223216Y-81228456D01*
X71075646Y-81129853D01*
X70950147Y-81004354D01*
X70851544Y-80856784D01*
X70783624Y-80692812D01*
X70749000Y-80518741D01*
X70749000Y-80341259D01*
X70783624Y-80167188D01*
X70851544Y-80003216D01*
X70950147Y-79855646D01*
X71075646Y-79730147D01*
X71223216Y-79631544D01*
X71387188Y-79563624D01*
X71536488Y-79533927D01*
X71561258Y-79529000D01*
X71738742Y-79529000D01*
X71763512Y-79533927D01*
G37*
G36*
X76843512Y-79533927D02*
G01*
X76992812Y-79563624D01*
X77156784Y-79631544D01*
X77304354Y-79730147D01*
X77429853Y-79855646D01*
X77528456Y-80003216D01*
X77596376Y-80167188D01*
X77631000Y-80341259D01*
X77631000Y-80518741D01*
X77596376Y-80692812D01*
X77528456Y-80856784D01*
X77429853Y-81004354D01*
X77304354Y-81129853D01*
X77156784Y-81228456D01*
X76992812Y-81296376D01*
X76843512Y-81326073D01*
X76818742Y-81331000D01*
X76641258Y-81331000D01*
X76616488Y-81326073D01*
X76467188Y-81296376D01*
X76303216Y-81228456D01*
X76155646Y-81129853D01*
X76030147Y-81004354D01*
X75931544Y-80856784D01*
X75863624Y-80692812D01*
X75829000Y-80518741D01*
X75829000Y-80341259D01*
X75863624Y-80167188D01*
X75931544Y-80003216D01*
X76030147Y-79855646D01*
X76155646Y-79730147D01*
X76303216Y-79631544D01*
X76467188Y-79563624D01*
X76616488Y-79533927D01*
X76641258Y-79529000D01*
X76818742Y-79529000D01*
X76843512Y-79533927D01*
G37*
G36*
X74303512Y-79533927D02*
G01*
X74452812Y-79563624D01*
X74616784Y-79631544D01*
X74764354Y-79730147D01*
X74889853Y-79855646D01*
X74988456Y-80003216D01*
X75056376Y-80167188D01*
X75091000Y-80341259D01*
X75091000Y-80518741D01*
X75056376Y-80692812D01*
X74988456Y-80856784D01*
X74889853Y-81004354D01*
X74764354Y-81129853D01*
X74616784Y-81228456D01*
X74452812Y-81296376D01*
X74303512Y-81326073D01*
X74278742Y-81331000D01*
X74101258Y-81331000D01*
X74076488Y-81326073D01*
X73927188Y-81296376D01*
X73763216Y-81228456D01*
X73615646Y-81129853D01*
X73490147Y-81004354D01*
X73391544Y-80856784D01*
X73323624Y-80692812D01*
X73289000Y-80518741D01*
X73289000Y-80341259D01*
X73323624Y-80167188D01*
X73391544Y-80003216D01*
X73490147Y-79855646D01*
X73615646Y-79730147D01*
X73763216Y-79631544D01*
X73927188Y-79563624D01*
X74076488Y-79533927D01*
X74101258Y-79529000D01*
X74278742Y-79529000D01*
X74303512Y-79533927D01*
G37*
G36*
X69223512Y-79533927D02*
G01*
X69372812Y-79563624D01*
X69536784Y-79631544D01*
X69684354Y-79730147D01*
X69809853Y-79855646D01*
X69908456Y-80003216D01*
X69976376Y-80167188D01*
X70011000Y-80341259D01*
X70011000Y-80518741D01*
X69976376Y-80692812D01*
X69908456Y-80856784D01*
X69809853Y-81004354D01*
X69684354Y-81129853D01*
X69536784Y-81228456D01*
X69372812Y-81296376D01*
X69223512Y-81326073D01*
X69198742Y-81331000D01*
X69021258Y-81331000D01*
X68996488Y-81326073D01*
X68847188Y-81296376D01*
X68683216Y-81228456D01*
X68535646Y-81129853D01*
X68410147Y-81004354D01*
X68311544Y-80856784D01*
X68243624Y-80692812D01*
X68209000Y-80518741D01*
X68209000Y-80341259D01*
X68243624Y-80167188D01*
X68311544Y-80003216D01*
X68410147Y-79855646D01*
X68535646Y-79730147D01*
X68683216Y-79631544D01*
X68847188Y-79563624D01*
X68996488Y-79533927D01*
X69021258Y-79529000D01*
X69198742Y-79529000D01*
X69223512Y-79533927D01*
G37*
G36*
X66683512Y-79533927D02*
G01*
X66832812Y-79563624D01*
X66996784Y-79631544D01*
X67144354Y-79730147D01*
X67269853Y-79855646D01*
X67368456Y-80003216D01*
X67436376Y-80167188D01*
X67471000Y-80341259D01*
X67471000Y-80518741D01*
X67436376Y-80692812D01*
X67368456Y-80856784D01*
X67269853Y-81004354D01*
X67144354Y-81129853D01*
X66996784Y-81228456D01*
X66832812Y-81296376D01*
X66683512Y-81326073D01*
X66658742Y-81331000D01*
X66481258Y-81331000D01*
X66456488Y-81326073D01*
X66307188Y-81296376D01*
X66143216Y-81228456D01*
X65995646Y-81129853D01*
X65870147Y-81004354D01*
X65771544Y-80856784D01*
X65703624Y-80692812D01*
X65669000Y-80518741D01*
X65669000Y-80341259D01*
X65703624Y-80167188D01*
X65771544Y-80003216D01*
X65870147Y-79855646D01*
X65995646Y-79730147D01*
X66143216Y-79631544D01*
X66307188Y-79563624D01*
X66456488Y-79533927D01*
X66481258Y-79529000D01*
X66658742Y-79529000D01*
X66683512Y-79533927D01*
G37*
G36*
X64143512Y-79533927D02*
G01*
X64292812Y-79563624D01*
X64456784Y-79631544D01*
X64604354Y-79730147D01*
X64729853Y-79855646D01*
X64828456Y-80003216D01*
X64896376Y-80167188D01*
X64931000Y-80341259D01*
X64931000Y-80518741D01*
X64896376Y-80692812D01*
X64828456Y-80856784D01*
X64729853Y-81004354D01*
X64604354Y-81129853D01*
X64456784Y-81228456D01*
X64292812Y-81296376D01*
X64143512Y-81326073D01*
X64118742Y-81331000D01*
X63941258Y-81331000D01*
X63916488Y-81326073D01*
X63767188Y-81296376D01*
X63603216Y-81228456D01*
X63455646Y-81129853D01*
X63330147Y-81004354D01*
X63231544Y-80856784D01*
X63163624Y-80692812D01*
X63129000Y-80518741D01*
X63129000Y-80341259D01*
X63163624Y-80167188D01*
X63231544Y-80003216D01*
X63330147Y-79855646D01*
X63455646Y-79730147D01*
X63603216Y-79631544D01*
X63767188Y-79563624D01*
X63916488Y-79533927D01*
X63941258Y-79529000D01*
X64118742Y-79529000D01*
X64143512Y-79533927D01*
G37*
G36*
X61603512Y-79533927D02*
G01*
X61752812Y-79563624D01*
X61916784Y-79631544D01*
X62064354Y-79730147D01*
X62189853Y-79855646D01*
X62288456Y-80003216D01*
X62356376Y-80167188D01*
X62391000Y-80341259D01*
X62391000Y-80518741D01*
X62356376Y-80692812D01*
X62288456Y-80856784D01*
X62189853Y-81004354D01*
X62064354Y-81129853D01*
X61916784Y-81228456D01*
X61752812Y-81296376D01*
X61603512Y-81326073D01*
X61578742Y-81331000D01*
X61401258Y-81331000D01*
X61376488Y-81326073D01*
X61227188Y-81296376D01*
X61063216Y-81228456D01*
X60915646Y-81129853D01*
X60790147Y-81004354D01*
X60691544Y-80856784D01*
X60623624Y-80692812D01*
X60589000Y-80518741D01*
X60589000Y-80341259D01*
X60623624Y-80167188D01*
X60691544Y-80003216D01*
X60790147Y-79855646D01*
X60915646Y-79730147D01*
X61063216Y-79631544D01*
X61227188Y-79563624D01*
X61376488Y-79533927D01*
X61401258Y-79529000D01*
X61578742Y-79529000D01*
X61603512Y-79533927D01*
G37*
G36*
X59063512Y-79533927D02*
G01*
X59212812Y-79563624D01*
X59376784Y-79631544D01*
X59524354Y-79730147D01*
X59649853Y-79855646D01*
X59748456Y-80003216D01*
X59816376Y-80167188D01*
X59851000Y-80341259D01*
X59851000Y-80518741D01*
X59816376Y-80692812D01*
X59748456Y-80856784D01*
X59649853Y-81004354D01*
X59524354Y-81129853D01*
X59376784Y-81228456D01*
X59212812Y-81296376D01*
X59063512Y-81326073D01*
X59038742Y-81331000D01*
X58861258Y-81331000D01*
X58836488Y-81326073D01*
X58687188Y-81296376D01*
X58523216Y-81228456D01*
X58375646Y-81129853D01*
X58250147Y-81004354D01*
X58151544Y-80856784D01*
X58083624Y-80692812D01*
X58049000Y-80518741D01*
X58049000Y-80341259D01*
X58083624Y-80167188D01*
X58151544Y-80003216D01*
X58250147Y-79855646D01*
X58375646Y-79730147D01*
X58523216Y-79631544D01*
X58687188Y-79563624D01*
X58836488Y-79533927D01*
X58861258Y-79529000D01*
X59038742Y-79529000D01*
X59063512Y-79533927D01*
G37*
G36*
X56523512Y-79533927D02*
G01*
X56672812Y-79563624D01*
X56836784Y-79631544D01*
X56984354Y-79730147D01*
X57109853Y-79855646D01*
X57208456Y-80003216D01*
X57276376Y-80167188D01*
X57311000Y-80341259D01*
X57311000Y-80518741D01*
X57276376Y-80692812D01*
X57208456Y-80856784D01*
X57109853Y-81004354D01*
X56984354Y-81129853D01*
X56836784Y-81228456D01*
X56672812Y-81296376D01*
X56523512Y-81326073D01*
X56498742Y-81331000D01*
X56321258Y-81331000D01*
X56296488Y-81326073D01*
X56147188Y-81296376D01*
X55983216Y-81228456D01*
X55835646Y-81129853D01*
X55710147Y-81004354D01*
X55611544Y-80856784D01*
X55543624Y-80692812D01*
X55509000Y-80518741D01*
X55509000Y-80341259D01*
X55543624Y-80167188D01*
X55611544Y-80003216D01*
X55710147Y-79855646D01*
X55835646Y-79730147D01*
X55983216Y-79631544D01*
X56147188Y-79563624D01*
X56296488Y-79533927D01*
X56321258Y-79529000D01*
X56498742Y-79529000D01*
X56523512Y-79533927D01*
G37*
G36*
X84463512Y-79533927D02*
G01*
X84612812Y-79563624D01*
X84776784Y-79631544D01*
X84924354Y-79730147D01*
X85049853Y-79855646D01*
X85148456Y-80003216D01*
X85216376Y-80167188D01*
X85251000Y-80341259D01*
X85251000Y-80518741D01*
X85216376Y-80692812D01*
X85148456Y-80856784D01*
X85049853Y-81004354D01*
X84924354Y-81129853D01*
X84776784Y-81228456D01*
X84612812Y-81296376D01*
X84463512Y-81326073D01*
X84438742Y-81331000D01*
X84261258Y-81331000D01*
X84236488Y-81326073D01*
X84087188Y-81296376D01*
X83923216Y-81228456D01*
X83775646Y-81129853D01*
X83650147Y-81004354D01*
X83551544Y-80856784D01*
X83483624Y-80692812D01*
X83449000Y-80518741D01*
X83449000Y-80341259D01*
X83483624Y-80167188D01*
X83551544Y-80003216D01*
X83650147Y-79855646D01*
X83775646Y-79730147D01*
X83923216Y-79631544D01*
X84087188Y-79563624D01*
X84236488Y-79533927D01*
X84261258Y-79529000D01*
X84438742Y-79529000D01*
X84463512Y-79533927D01*
G37*
G36*
X87003512Y-79533927D02*
G01*
X87152812Y-79563624D01*
X87316784Y-79631544D01*
X87464354Y-79730147D01*
X87589853Y-79855646D01*
X87688456Y-80003216D01*
X87756376Y-80167188D01*
X87791000Y-80341259D01*
X87791000Y-80518741D01*
X87756376Y-80692812D01*
X87688456Y-80856784D01*
X87589853Y-81004354D01*
X87464354Y-81129853D01*
X87316784Y-81228456D01*
X87152812Y-81296376D01*
X87003512Y-81326073D01*
X86978742Y-81331000D01*
X86801258Y-81331000D01*
X86776488Y-81326073D01*
X86627188Y-81296376D01*
X86463216Y-81228456D01*
X86315646Y-81129853D01*
X86190147Y-81004354D01*
X86091544Y-80856784D01*
X86023624Y-80692812D01*
X85989000Y-80518741D01*
X85989000Y-80341259D01*
X86023624Y-80167188D01*
X86091544Y-80003216D01*
X86190147Y-79855646D01*
X86315646Y-79730147D01*
X86463216Y-79631544D01*
X86627188Y-79563624D01*
X86776488Y-79533927D01*
X86801258Y-79529000D01*
X86978742Y-79529000D01*
X87003512Y-79533927D01*
G37*
G36*
X81923512Y-79533927D02*
G01*
X82072812Y-79563624D01*
X82236784Y-79631544D01*
X82384354Y-79730147D01*
X82509853Y-79855646D01*
X82608456Y-80003216D01*
X82676376Y-80167188D01*
X82711000Y-80341259D01*
X82711000Y-80518741D01*
X82676376Y-80692812D01*
X82608456Y-80856784D01*
X82509853Y-81004354D01*
X82384354Y-81129853D01*
X82236784Y-81228456D01*
X82072812Y-81296376D01*
X81923512Y-81326073D01*
X81898742Y-81331000D01*
X81721258Y-81331000D01*
X81696488Y-81326073D01*
X81547188Y-81296376D01*
X81383216Y-81228456D01*
X81235646Y-81129853D01*
X81110147Y-81004354D01*
X81011544Y-80856784D01*
X80943624Y-80692812D01*
X80909000Y-80518741D01*
X80909000Y-80341259D01*
X80943624Y-80167188D01*
X81011544Y-80003216D01*
X81110147Y-79855646D01*
X81235646Y-79730147D01*
X81383216Y-79631544D01*
X81547188Y-79563624D01*
X81696488Y-79533927D01*
X81721258Y-79529000D01*
X81898742Y-79529000D01*
X81923512Y-79533927D01*
G37*
G36*
X89543512Y-79533927D02*
G01*
X89692812Y-79563624D01*
X89856784Y-79631544D01*
X90004354Y-79730147D01*
X90129853Y-79855646D01*
X90228456Y-80003216D01*
X90296376Y-80167188D01*
X90331000Y-80341259D01*
X90331000Y-80518741D01*
X90296376Y-80692812D01*
X90228456Y-80856784D01*
X90129853Y-81004354D01*
X90004354Y-81129853D01*
X89856784Y-81228456D01*
X89692812Y-81296376D01*
X89543512Y-81326073D01*
X89518742Y-81331000D01*
X89341258Y-81331000D01*
X89316488Y-81326073D01*
X89167188Y-81296376D01*
X89003216Y-81228456D01*
X88855646Y-81129853D01*
X88730147Y-81004354D01*
X88631544Y-80856784D01*
X88563624Y-80692812D01*
X88529000Y-80518741D01*
X88529000Y-80341259D01*
X88563624Y-80167188D01*
X88631544Y-80003216D01*
X88730147Y-79855646D01*
X88855646Y-79730147D01*
X89003216Y-79631544D01*
X89167188Y-79563624D01*
X89316488Y-79533927D01*
X89341258Y-79529000D01*
X89518742Y-79529000D01*
X89543512Y-79533927D01*
G37*
G36*
X92083512Y-79533927D02*
G01*
X92232812Y-79563624D01*
X92396784Y-79631544D01*
X92544354Y-79730147D01*
X92669853Y-79855646D01*
X92768456Y-80003216D01*
X92836376Y-80167188D01*
X92871000Y-80341259D01*
X92871000Y-80518741D01*
X92836376Y-80692812D01*
X92768456Y-80856784D01*
X92669853Y-81004354D01*
X92544354Y-81129853D01*
X92396784Y-81228456D01*
X92232812Y-81296376D01*
X92083512Y-81326073D01*
X92058742Y-81331000D01*
X91881258Y-81331000D01*
X91856488Y-81326073D01*
X91707188Y-81296376D01*
X91543216Y-81228456D01*
X91395646Y-81129853D01*
X91270147Y-81004354D01*
X91171544Y-80856784D01*
X91103624Y-80692812D01*
X91069000Y-80518741D01*
X91069000Y-80341259D01*
X91103624Y-80167188D01*
X91171544Y-80003216D01*
X91270147Y-79855646D01*
X91395646Y-79730147D01*
X91543216Y-79631544D01*
X91707188Y-79563624D01*
X91856488Y-79533927D01*
X91881258Y-79529000D01*
X92058742Y-79529000D01*
X92083512Y-79533927D01*
G37*
G36*
X94623512Y-79533927D02*
G01*
X94772812Y-79563624D01*
X94936784Y-79631544D01*
X95084354Y-79730147D01*
X95209853Y-79855646D01*
X95308456Y-80003216D01*
X95376376Y-80167188D01*
X95411000Y-80341259D01*
X95411000Y-80518741D01*
X95376376Y-80692812D01*
X95308456Y-80856784D01*
X95209853Y-81004354D01*
X95084354Y-81129853D01*
X94936784Y-81228456D01*
X94772812Y-81296376D01*
X94623512Y-81326073D01*
X94598742Y-81331000D01*
X94421258Y-81331000D01*
X94396488Y-81326073D01*
X94247188Y-81296376D01*
X94083216Y-81228456D01*
X93935646Y-81129853D01*
X93810147Y-81004354D01*
X93711544Y-80856784D01*
X93643624Y-80692812D01*
X93609000Y-80518741D01*
X93609000Y-80341259D01*
X93643624Y-80167188D01*
X93711544Y-80003216D01*
X93810147Y-79855646D01*
X93935646Y-79730147D01*
X94083216Y-79631544D01*
X94247188Y-79563624D01*
X94396488Y-79533927D01*
X94421258Y-79529000D01*
X94598742Y-79529000D01*
X94623512Y-79533927D01*
G37*
G36*
X97163512Y-79533927D02*
G01*
X97312812Y-79563624D01*
X97476784Y-79631544D01*
X97624354Y-79730147D01*
X97749853Y-79855646D01*
X97848456Y-80003216D01*
X97916376Y-80167188D01*
X97951000Y-80341259D01*
X97951000Y-80518741D01*
X97916376Y-80692812D01*
X97848456Y-80856784D01*
X97749853Y-81004354D01*
X97624354Y-81129853D01*
X97476784Y-81228456D01*
X97312812Y-81296376D01*
X97163512Y-81326073D01*
X97138742Y-81331000D01*
X96961258Y-81331000D01*
X96936488Y-81326073D01*
X96787188Y-81296376D01*
X96623216Y-81228456D01*
X96475646Y-81129853D01*
X96350147Y-81004354D01*
X96251544Y-80856784D01*
X96183624Y-80692812D01*
X96149000Y-80518741D01*
X96149000Y-80341259D01*
X96183624Y-80167188D01*
X96251544Y-80003216D01*
X96350147Y-79855646D01*
X96475646Y-79730147D01*
X96623216Y-79631544D01*
X96787188Y-79563624D01*
X96936488Y-79533927D01*
X96961258Y-79529000D01*
X97138742Y-79529000D01*
X97163512Y-79533927D01*
G37*
G36*
X102243512Y-79533927D02*
G01*
X102392812Y-79563624D01*
X102556784Y-79631544D01*
X102704354Y-79730147D01*
X102829853Y-79855646D01*
X102928456Y-80003216D01*
X102996376Y-80167188D01*
X103031000Y-80341259D01*
X103031000Y-80518741D01*
X102996376Y-80692812D01*
X102928456Y-80856784D01*
X102829853Y-81004354D01*
X102704354Y-81129853D01*
X102556784Y-81228456D01*
X102392812Y-81296376D01*
X102243512Y-81326073D01*
X102218742Y-81331000D01*
X102041258Y-81331000D01*
X102016488Y-81326073D01*
X101867188Y-81296376D01*
X101703216Y-81228456D01*
X101555646Y-81129853D01*
X101430147Y-81004354D01*
X101331544Y-80856784D01*
X101263624Y-80692812D01*
X101229000Y-80518741D01*
X101229000Y-80341259D01*
X101263624Y-80167188D01*
X101331544Y-80003216D01*
X101430147Y-79855646D01*
X101555646Y-79730147D01*
X101703216Y-79631544D01*
X101867188Y-79563624D01*
X102016488Y-79533927D01*
X102041258Y-79529000D01*
X102218742Y-79529000D01*
X102243512Y-79533927D01*
G37*
G36*
X99703512Y-79533927D02*
G01*
X99852812Y-79563624D01*
X100016784Y-79631544D01*
X100164354Y-79730147D01*
X100289853Y-79855646D01*
X100388456Y-80003216D01*
X100456376Y-80167188D01*
X100491000Y-80341259D01*
X100491000Y-80518741D01*
X100456376Y-80692812D01*
X100388456Y-80856784D01*
X100289853Y-81004354D01*
X100164354Y-81129853D01*
X100016784Y-81228456D01*
X99852812Y-81296376D01*
X99703512Y-81326073D01*
X99678742Y-81331000D01*
X99501258Y-81331000D01*
X99476488Y-81326073D01*
X99327188Y-81296376D01*
X99163216Y-81228456D01*
X99015646Y-81129853D01*
X98890147Y-81004354D01*
X98791544Y-80856784D01*
X98723624Y-80692812D01*
X98689000Y-80518741D01*
X98689000Y-80341259D01*
X98723624Y-80167188D01*
X98791544Y-80003216D01*
X98890147Y-79855646D01*
X99015646Y-79730147D01*
X99163216Y-79631544D01*
X99327188Y-79563624D01*
X99476488Y-79533927D01*
X99501258Y-79529000D01*
X99678742Y-79529000D01*
X99703512Y-79533927D01*
G37*
G36*
X53983512Y-79533927D02*
G01*
X54132812Y-79563624D01*
X54296784Y-79631544D01*
X54444354Y-79730147D01*
X54569853Y-79855646D01*
X54668456Y-80003216D01*
X54736376Y-80167188D01*
X54771000Y-80341259D01*
X54771000Y-80518741D01*
X54736376Y-80692812D01*
X54668456Y-80856784D01*
X54569853Y-81004354D01*
X54444354Y-81129853D01*
X54296784Y-81228456D01*
X54132812Y-81296376D01*
X53983512Y-81326073D01*
X53958742Y-81331000D01*
X53781258Y-81331000D01*
X53756488Y-81326073D01*
X53607188Y-81296376D01*
X53443216Y-81228456D01*
X53295646Y-81129853D01*
X53170147Y-81004354D01*
X53071544Y-80856784D01*
X53003624Y-80692812D01*
X52969000Y-80518741D01*
X52969000Y-80341259D01*
X53003624Y-80167188D01*
X53071544Y-80003216D01*
X53170147Y-79855646D01*
X53295646Y-79730147D01*
X53443216Y-79631544D01*
X53607188Y-79563624D01*
X53756488Y-79533927D01*
X53781258Y-79529000D01*
X53958742Y-79529000D01*
X53983512Y-79533927D01*
G37*
G36*
X136638512Y-77780427D02*
G01*
X136787812Y-77810124D01*
X136951784Y-77878044D01*
X137099354Y-77976647D01*
X137224853Y-78102146D01*
X137323456Y-78249716D01*
X137391376Y-78413688D01*
X137421073Y-78562988D01*
X137426000Y-78587758D01*
X137426000Y-78765242D01*
X137424948Y-78770529D01*
X137391376Y-78939312D01*
X137323456Y-79103284D01*
X137224853Y-79250854D01*
X137099354Y-79376353D01*
X136951784Y-79474956D01*
X136787812Y-79542876D01*
X136638512Y-79572573D01*
X136613742Y-79577500D01*
X136436258Y-79577500D01*
X136411488Y-79572573D01*
X136262188Y-79542876D01*
X136098216Y-79474956D01*
X135950646Y-79376353D01*
X135825147Y-79250854D01*
X135726544Y-79103284D01*
X135658624Y-78939312D01*
X135625052Y-78770529D01*
X135624000Y-78765242D01*
X135624000Y-78587758D01*
X135628927Y-78562988D01*
X135658624Y-78413688D01*
X135726544Y-78249716D01*
X135825147Y-78102146D01*
X135950646Y-77976647D01*
X136098216Y-77878044D01*
X136262188Y-77810124D01*
X136411488Y-77780427D01*
X136436258Y-77775500D01*
X136613742Y-77775500D01*
X136638512Y-77780427D01*
G37*
G36*
X134098512Y-77780427D02*
G01*
X134247812Y-77810124D01*
X134411784Y-77878044D01*
X134559354Y-77976647D01*
X134684853Y-78102146D01*
X134783456Y-78249716D01*
X134851376Y-78413688D01*
X134881073Y-78562988D01*
X134886000Y-78587758D01*
X134886000Y-78765242D01*
X134884948Y-78770529D01*
X134851376Y-78939312D01*
X134783456Y-79103284D01*
X134684853Y-79250854D01*
X134559354Y-79376353D01*
X134411784Y-79474956D01*
X134247812Y-79542876D01*
X134098512Y-79572573D01*
X134073742Y-79577500D01*
X133896258Y-79577500D01*
X133871488Y-79572573D01*
X133722188Y-79542876D01*
X133558216Y-79474956D01*
X133410646Y-79376353D01*
X133285147Y-79250854D01*
X133186544Y-79103284D01*
X133118624Y-78939312D01*
X133085052Y-78770529D01*
X133084000Y-78765242D01*
X133084000Y-78587758D01*
X133088927Y-78562988D01*
X133118624Y-78413688D01*
X133186544Y-78249716D01*
X133285147Y-78102146D01*
X133410646Y-77976647D01*
X133558216Y-77878044D01*
X133722188Y-77810124D01*
X133871488Y-77780427D01*
X133896258Y-77775500D01*
X134073742Y-77775500D01*
X134098512Y-77780427D01*
G37*
G36*
X132346000Y-79577500D02*
G01*
X130544000Y-79577500D01*
X130544000Y-77775500D01*
X132346000Y-77775500D01*
X132346000Y-79577500D01*
G37*
G36*
X109430864Y-77381230D02*
G01*
X109439059Y-77382860D01*
X109575732Y-77439472D01*
X109698735Y-77521660D01*
X109803340Y-77626265D01*
X109803957Y-77627189D01*
X109885529Y-77749270D01*
X109942140Y-77885941D01*
X109971000Y-78031032D01*
X109971000Y-78178968D01*
X109956927Y-78249718D01*
X109942140Y-78324059D01*
X109885528Y-78460732D01*
X109803340Y-78583735D01*
X109698735Y-78688340D01*
X109575732Y-78770528D01*
X109575731Y-78770529D01*
X109575730Y-78770529D01*
X109439059Y-78827140D01*
X109293968Y-78856000D01*
X109146032Y-78856000D01*
X109000941Y-78827140D01*
X108864270Y-78770529D01*
X108864269Y-78770529D01*
X108864268Y-78770528D01*
X108741265Y-78688340D01*
X108636660Y-78583735D01*
X108554472Y-78460732D01*
X108497860Y-78324059D01*
X108483073Y-78249718D01*
X108469000Y-78178968D01*
X108469000Y-78031032D01*
X108497860Y-77885941D01*
X108554471Y-77749270D01*
X108636043Y-77627189D01*
X108636660Y-77626265D01*
X108741265Y-77521660D01*
X108864268Y-77439472D01*
X109000941Y-77382860D01*
X109009136Y-77381230D01*
X109146032Y-77354000D01*
X109293968Y-77354000D01*
X109430864Y-77381230D01*
G37*
G36*
X106890864Y-77381230D02*
G01*
X106899059Y-77382860D01*
X107035732Y-77439472D01*
X107158735Y-77521660D01*
X107263340Y-77626265D01*
X107263957Y-77627189D01*
X107345529Y-77749270D01*
X107402140Y-77885941D01*
X107431000Y-78031032D01*
X107431000Y-78178968D01*
X107416927Y-78249718D01*
X107402140Y-78324059D01*
X107345528Y-78460732D01*
X107263340Y-78583735D01*
X107158735Y-78688340D01*
X107035732Y-78770528D01*
X107035731Y-78770529D01*
X107035730Y-78770529D01*
X106899059Y-78827140D01*
X106753968Y-78856000D01*
X106606032Y-78856000D01*
X106460941Y-78827140D01*
X106324270Y-78770529D01*
X106324269Y-78770529D01*
X106324268Y-78770528D01*
X106201265Y-78688340D01*
X106096660Y-78583735D01*
X106014472Y-78460732D01*
X105957860Y-78324059D01*
X105943073Y-78249718D01*
X105929000Y-78178968D01*
X105929000Y-78031032D01*
X105957860Y-77885941D01*
X106014471Y-77749270D01*
X106096043Y-77627189D01*
X106096660Y-77626265D01*
X106201265Y-77521660D01*
X106324268Y-77439472D01*
X106460941Y-77382860D01*
X106469136Y-77381230D01*
X106606032Y-77354000D01*
X106753968Y-77354000D01*
X106890864Y-77381230D01*
G37*
G36*
X87003512Y-76993927D02*
G01*
X87152812Y-77023624D01*
X87316784Y-77091544D01*
X87464354Y-77190147D01*
X87589853Y-77315646D01*
X87688456Y-77463216D01*
X87756376Y-77627188D01*
X87791000Y-77801259D01*
X87791000Y-77978741D01*
X87756376Y-78152812D01*
X87688456Y-78316784D01*
X87589853Y-78464354D01*
X87464354Y-78589853D01*
X87316784Y-78688456D01*
X87152812Y-78756376D01*
X87003512Y-78786073D01*
X86978742Y-78791000D01*
X86801258Y-78791000D01*
X86776488Y-78786073D01*
X86627188Y-78756376D01*
X86463216Y-78688456D01*
X86315646Y-78589853D01*
X86190147Y-78464354D01*
X86091544Y-78316784D01*
X86023624Y-78152812D01*
X85989000Y-77978741D01*
X85989000Y-77801259D01*
X86023624Y-77627188D01*
X86091544Y-77463216D01*
X86190147Y-77315646D01*
X86315646Y-77190147D01*
X86463216Y-77091544D01*
X86627188Y-77023624D01*
X86776488Y-76993927D01*
X86801258Y-76989000D01*
X86978742Y-76989000D01*
X87003512Y-76993927D01*
G37*
G36*
X81923512Y-76993927D02*
G01*
X82072812Y-77023624D01*
X82236784Y-77091544D01*
X82384354Y-77190147D01*
X82509853Y-77315646D01*
X82608456Y-77463216D01*
X82676376Y-77627188D01*
X82711000Y-77801259D01*
X82711000Y-77978741D01*
X82676376Y-78152812D01*
X82608456Y-78316784D01*
X82509853Y-78464354D01*
X82384354Y-78589853D01*
X82236784Y-78688456D01*
X82072812Y-78756376D01*
X81923512Y-78786073D01*
X81898742Y-78791000D01*
X81721258Y-78791000D01*
X81696488Y-78786073D01*
X81547188Y-78756376D01*
X81383216Y-78688456D01*
X81235646Y-78589853D01*
X81110147Y-78464354D01*
X81011544Y-78316784D01*
X80943624Y-78152812D01*
X80909000Y-77978741D01*
X80909000Y-77801259D01*
X80943624Y-77627188D01*
X81011544Y-77463216D01*
X81110147Y-77315646D01*
X81235646Y-77190147D01*
X81383216Y-77091544D01*
X81547188Y-77023624D01*
X81696488Y-76993927D01*
X81721258Y-76989000D01*
X81898742Y-76989000D01*
X81923512Y-76993927D01*
G37*
G36*
X79383512Y-76993927D02*
G01*
X79532812Y-77023624D01*
X79696784Y-77091544D01*
X79844354Y-77190147D01*
X79969853Y-77315646D01*
X80068456Y-77463216D01*
X80136376Y-77627188D01*
X80171000Y-77801259D01*
X80171000Y-77978741D01*
X80136376Y-78152812D01*
X80068456Y-78316784D01*
X79969853Y-78464354D01*
X79844354Y-78589853D01*
X79696784Y-78688456D01*
X79532812Y-78756376D01*
X79383512Y-78786073D01*
X79358742Y-78791000D01*
X79181258Y-78791000D01*
X79156488Y-78786073D01*
X79007188Y-78756376D01*
X78843216Y-78688456D01*
X78695646Y-78589853D01*
X78570147Y-78464354D01*
X78471544Y-78316784D01*
X78403624Y-78152812D01*
X78369000Y-77978741D01*
X78369000Y-77801259D01*
X78403624Y-77627188D01*
X78471544Y-77463216D01*
X78570147Y-77315646D01*
X78695646Y-77190147D01*
X78843216Y-77091544D01*
X79007188Y-77023624D01*
X79156488Y-76993927D01*
X79181258Y-76989000D01*
X79358742Y-76989000D01*
X79383512Y-76993927D01*
G37*
G36*
X74303512Y-76993927D02*
G01*
X74452812Y-77023624D01*
X74616784Y-77091544D01*
X74764354Y-77190147D01*
X74889853Y-77315646D01*
X74988456Y-77463216D01*
X75056376Y-77627188D01*
X75091000Y-77801259D01*
X75091000Y-77978741D01*
X75056376Y-78152812D01*
X74988456Y-78316784D01*
X74889853Y-78464354D01*
X74764354Y-78589853D01*
X74616784Y-78688456D01*
X74452812Y-78756376D01*
X74303512Y-78786073D01*
X74278742Y-78791000D01*
X74101258Y-78791000D01*
X74076488Y-78786073D01*
X73927188Y-78756376D01*
X73763216Y-78688456D01*
X73615646Y-78589853D01*
X73490147Y-78464354D01*
X73391544Y-78316784D01*
X73323624Y-78152812D01*
X73289000Y-77978741D01*
X73289000Y-77801259D01*
X73323624Y-77627188D01*
X73391544Y-77463216D01*
X73490147Y-77315646D01*
X73615646Y-77190147D01*
X73763216Y-77091544D01*
X73927188Y-77023624D01*
X74076488Y-76993927D01*
X74101258Y-76989000D01*
X74278742Y-76989000D01*
X74303512Y-76993927D01*
G37*
G36*
X72551000Y-78791000D02*
G01*
X70749000Y-78791000D01*
X70749000Y-76989000D01*
X72551000Y-76989000D01*
X72551000Y-78791000D01*
G37*
G36*
X69223512Y-76993927D02*
G01*
X69372812Y-77023624D01*
X69536784Y-77091544D01*
X69684354Y-77190147D01*
X69809853Y-77315646D01*
X69908456Y-77463216D01*
X69976376Y-77627188D01*
X70011000Y-77801259D01*
X70011000Y-77978741D01*
X69976376Y-78152812D01*
X69908456Y-78316784D01*
X69809853Y-78464354D01*
X69684354Y-78589853D01*
X69536784Y-78688456D01*
X69372812Y-78756376D01*
X69223512Y-78786073D01*
X69198742Y-78791000D01*
X69021258Y-78791000D01*
X68996488Y-78786073D01*
X68847188Y-78756376D01*
X68683216Y-78688456D01*
X68535646Y-78589853D01*
X68410147Y-78464354D01*
X68311544Y-78316784D01*
X68243624Y-78152812D01*
X68209000Y-77978741D01*
X68209000Y-77801259D01*
X68243624Y-77627188D01*
X68311544Y-77463216D01*
X68410147Y-77315646D01*
X68535646Y-77190147D01*
X68683216Y-77091544D01*
X68847188Y-77023624D01*
X68996488Y-76993927D01*
X69021258Y-76989000D01*
X69198742Y-76989000D01*
X69223512Y-76993927D01*
G37*
G36*
X66683512Y-76993927D02*
G01*
X66832812Y-77023624D01*
X66996784Y-77091544D01*
X67144354Y-77190147D01*
X67269853Y-77315646D01*
X67368456Y-77463216D01*
X67436376Y-77627188D01*
X67471000Y-77801259D01*
X67471000Y-77978741D01*
X67436376Y-78152812D01*
X67368456Y-78316784D01*
X67269853Y-78464354D01*
X67144354Y-78589853D01*
X66996784Y-78688456D01*
X66832812Y-78756376D01*
X66683512Y-78786073D01*
X66658742Y-78791000D01*
X66481258Y-78791000D01*
X66456488Y-78786073D01*
X66307188Y-78756376D01*
X66143216Y-78688456D01*
X65995646Y-78589853D01*
X65870147Y-78464354D01*
X65771544Y-78316784D01*
X65703624Y-78152812D01*
X65669000Y-77978741D01*
X65669000Y-77801259D01*
X65703624Y-77627188D01*
X65771544Y-77463216D01*
X65870147Y-77315646D01*
X65995646Y-77190147D01*
X66143216Y-77091544D01*
X66307188Y-77023624D01*
X66456488Y-76993927D01*
X66481258Y-76989000D01*
X66658742Y-76989000D01*
X66683512Y-76993927D01*
G37*
G36*
X76843512Y-76993927D02*
G01*
X76992812Y-77023624D01*
X77156784Y-77091544D01*
X77304354Y-77190147D01*
X77429853Y-77315646D01*
X77528456Y-77463216D01*
X77596376Y-77627188D01*
X77631000Y-77801259D01*
X77631000Y-77978741D01*
X77596376Y-78152812D01*
X77528456Y-78316784D01*
X77429853Y-78464354D01*
X77304354Y-78589853D01*
X77156784Y-78688456D01*
X76992812Y-78756376D01*
X76843512Y-78786073D01*
X76818742Y-78791000D01*
X76641258Y-78791000D01*
X76616488Y-78786073D01*
X76467188Y-78756376D01*
X76303216Y-78688456D01*
X76155646Y-78589853D01*
X76030147Y-78464354D01*
X75931544Y-78316784D01*
X75863624Y-78152812D01*
X75829000Y-77978741D01*
X75829000Y-77801259D01*
X75863624Y-77627188D01*
X75931544Y-77463216D01*
X76030147Y-77315646D01*
X76155646Y-77190147D01*
X76303216Y-77091544D01*
X76467188Y-77023624D01*
X76616488Y-76993927D01*
X76641258Y-76989000D01*
X76818742Y-76989000D01*
X76843512Y-76993927D01*
G37*
G36*
X64143512Y-76993927D02*
G01*
X64292812Y-77023624D01*
X64456784Y-77091544D01*
X64604354Y-77190147D01*
X64729853Y-77315646D01*
X64828456Y-77463216D01*
X64896376Y-77627188D01*
X64931000Y-77801259D01*
X64931000Y-77978741D01*
X64896376Y-78152812D01*
X64828456Y-78316784D01*
X64729853Y-78464354D01*
X64604354Y-78589853D01*
X64456784Y-78688456D01*
X64292812Y-78756376D01*
X64143512Y-78786073D01*
X64118742Y-78791000D01*
X63941258Y-78791000D01*
X63916488Y-78786073D01*
X63767188Y-78756376D01*
X63603216Y-78688456D01*
X63455646Y-78589853D01*
X63330147Y-78464354D01*
X63231544Y-78316784D01*
X63163624Y-78152812D01*
X63129000Y-77978741D01*
X63129000Y-77801259D01*
X63163624Y-77627188D01*
X63231544Y-77463216D01*
X63330147Y-77315646D01*
X63455646Y-77190147D01*
X63603216Y-77091544D01*
X63767188Y-77023624D01*
X63916488Y-76993927D01*
X63941258Y-76989000D01*
X64118742Y-76989000D01*
X64143512Y-76993927D01*
G37*
G36*
X61603512Y-76993927D02*
G01*
X61752812Y-77023624D01*
X61916784Y-77091544D01*
X62064354Y-77190147D01*
X62189853Y-77315646D01*
X62288456Y-77463216D01*
X62356376Y-77627188D01*
X62391000Y-77801259D01*
X62391000Y-77978741D01*
X62356376Y-78152812D01*
X62288456Y-78316784D01*
X62189853Y-78464354D01*
X62064354Y-78589853D01*
X61916784Y-78688456D01*
X61752812Y-78756376D01*
X61603512Y-78786073D01*
X61578742Y-78791000D01*
X61401258Y-78791000D01*
X61376488Y-78786073D01*
X61227188Y-78756376D01*
X61063216Y-78688456D01*
X60915646Y-78589853D01*
X60790147Y-78464354D01*
X60691544Y-78316784D01*
X60623624Y-78152812D01*
X60589000Y-77978741D01*
X60589000Y-77801259D01*
X60623624Y-77627188D01*
X60691544Y-77463216D01*
X60790147Y-77315646D01*
X60915646Y-77190147D01*
X61063216Y-77091544D01*
X61227188Y-77023624D01*
X61376488Y-76993927D01*
X61401258Y-76989000D01*
X61578742Y-76989000D01*
X61603512Y-76993927D01*
G37*
G36*
X56523512Y-76993927D02*
G01*
X56672812Y-77023624D01*
X56836784Y-77091544D01*
X56984354Y-77190147D01*
X57109853Y-77315646D01*
X57208456Y-77463216D01*
X57276376Y-77627188D01*
X57311000Y-77801259D01*
X57311000Y-77978741D01*
X57276376Y-78152812D01*
X57208456Y-78316784D01*
X57109853Y-78464354D01*
X56984354Y-78589853D01*
X56836784Y-78688456D01*
X56672812Y-78756376D01*
X56523512Y-78786073D01*
X56498742Y-78791000D01*
X56321258Y-78791000D01*
X56296488Y-78786073D01*
X56147188Y-78756376D01*
X55983216Y-78688456D01*
X55835646Y-78589853D01*
X55710147Y-78464354D01*
X55611544Y-78316784D01*
X55543624Y-78152812D01*
X55509000Y-77978741D01*
X55509000Y-77801259D01*
X55543624Y-77627188D01*
X55611544Y-77463216D01*
X55710147Y-77315646D01*
X55835646Y-77190147D01*
X55983216Y-77091544D01*
X56147188Y-77023624D01*
X56296488Y-76993927D01*
X56321258Y-76989000D01*
X56498742Y-76989000D01*
X56523512Y-76993927D01*
G37*
G36*
X59851000Y-78791000D02*
G01*
X58049000Y-78791000D01*
X58049000Y-76989000D01*
X59851000Y-76989000D01*
X59851000Y-78791000D01*
G37*
G36*
X89543512Y-76993927D02*
G01*
X89692812Y-77023624D01*
X89856784Y-77091544D01*
X90004354Y-77190147D01*
X90129853Y-77315646D01*
X90228456Y-77463216D01*
X90296376Y-77627188D01*
X90331000Y-77801259D01*
X90331000Y-77978741D01*
X90296376Y-78152812D01*
X90228456Y-78316784D01*
X90129853Y-78464354D01*
X90004354Y-78589853D01*
X89856784Y-78688456D01*
X89692812Y-78756376D01*
X89543512Y-78786073D01*
X89518742Y-78791000D01*
X89341258Y-78791000D01*
X89316488Y-78786073D01*
X89167188Y-78756376D01*
X89003216Y-78688456D01*
X88855646Y-78589853D01*
X88730147Y-78464354D01*
X88631544Y-78316784D01*
X88563624Y-78152812D01*
X88529000Y-77978741D01*
X88529000Y-77801259D01*
X88563624Y-77627188D01*
X88631544Y-77463216D01*
X88730147Y-77315646D01*
X88855646Y-77190147D01*
X89003216Y-77091544D01*
X89167188Y-77023624D01*
X89316488Y-76993927D01*
X89341258Y-76989000D01*
X89518742Y-76989000D01*
X89543512Y-76993927D01*
G37*
G36*
X102243512Y-76993927D02*
G01*
X102392812Y-77023624D01*
X102556784Y-77091544D01*
X102704354Y-77190147D01*
X102829853Y-77315646D01*
X102928456Y-77463216D01*
X102996376Y-77627188D01*
X103031000Y-77801259D01*
X103031000Y-77978741D01*
X102996376Y-78152812D01*
X102928456Y-78316784D01*
X102829853Y-78464354D01*
X102704354Y-78589853D01*
X102556784Y-78688456D01*
X102392812Y-78756376D01*
X102243512Y-78786073D01*
X102218742Y-78791000D01*
X102041258Y-78791000D01*
X102016488Y-78786073D01*
X101867188Y-78756376D01*
X101703216Y-78688456D01*
X101555646Y-78589853D01*
X101430147Y-78464354D01*
X101331544Y-78316784D01*
X101263624Y-78152812D01*
X101229000Y-77978741D01*
X101229000Y-77801259D01*
X101263624Y-77627188D01*
X101331544Y-77463216D01*
X101430147Y-77315646D01*
X101555646Y-77190147D01*
X101703216Y-77091544D01*
X101867188Y-77023624D01*
X102016488Y-76993927D01*
X102041258Y-76989000D01*
X102218742Y-76989000D01*
X102243512Y-76993927D01*
G37*
G36*
X99703512Y-76993927D02*
G01*
X99852812Y-77023624D01*
X100016784Y-77091544D01*
X100164354Y-77190147D01*
X100289853Y-77315646D01*
X100388456Y-77463216D01*
X100456376Y-77627188D01*
X100491000Y-77801259D01*
X100491000Y-77978741D01*
X100456376Y-78152812D01*
X100388456Y-78316784D01*
X100289853Y-78464354D01*
X100164354Y-78589853D01*
X100016784Y-78688456D01*
X99852812Y-78756376D01*
X99703512Y-78786073D01*
X99678742Y-78791000D01*
X99501258Y-78791000D01*
X99476488Y-78786073D01*
X99327188Y-78756376D01*
X99163216Y-78688456D01*
X99015646Y-78589853D01*
X98890147Y-78464354D01*
X98791544Y-78316784D01*
X98723624Y-78152812D01*
X98689000Y-77978741D01*
X98689000Y-77801259D01*
X98723624Y-77627188D01*
X98791544Y-77463216D01*
X98890147Y-77315646D01*
X99015646Y-77190147D01*
X99163216Y-77091544D01*
X99327188Y-77023624D01*
X99476488Y-76993927D01*
X99501258Y-76989000D01*
X99678742Y-76989000D01*
X99703512Y-76993927D01*
G37*
G36*
X97951000Y-78791000D02*
G01*
X96149000Y-78791000D01*
X96149000Y-76989000D01*
X97951000Y-76989000D01*
X97951000Y-78791000D01*
G37*
G36*
X94623512Y-76993927D02*
G01*
X94772812Y-77023624D01*
X94936784Y-77091544D01*
X95084354Y-77190147D01*
X95209853Y-77315646D01*
X95308456Y-77463216D01*
X95376376Y-77627188D01*
X95411000Y-77801259D01*
X95411000Y-77978741D01*
X95376376Y-78152812D01*
X95308456Y-78316784D01*
X95209853Y-78464354D01*
X95084354Y-78589853D01*
X94936784Y-78688456D01*
X94772812Y-78756376D01*
X94623512Y-78786073D01*
X94598742Y-78791000D01*
X94421258Y-78791000D01*
X94396488Y-78786073D01*
X94247188Y-78756376D01*
X94083216Y-78688456D01*
X93935646Y-78589853D01*
X93810147Y-78464354D01*
X93711544Y-78316784D01*
X93643624Y-78152812D01*
X93609000Y-77978741D01*
X93609000Y-77801259D01*
X93643624Y-77627188D01*
X93711544Y-77463216D01*
X93810147Y-77315646D01*
X93935646Y-77190147D01*
X94083216Y-77091544D01*
X94247188Y-77023624D01*
X94396488Y-76993927D01*
X94421258Y-76989000D01*
X94598742Y-76989000D01*
X94623512Y-76993927D01*
G37*
G36*
X92083512Y-76993927D02*
G01*
X92232812Y-77023624D01*
X92396784Y-77091544D01*
X92544354Y-77190147D01*
X92669853Y-77315646D01*
X92768456Y-77463216D01*
X92836376Y-77627188D01*
X92871000Y-77801259D01*
X92871000Y-77978741D01*
X92836376Y-78152812D01*
X92768456Y-78316784D01*
X92669853Y-78464354D01*
X92544354Y-78589853D01*
X92396784Y-78688456D01*
X92232812Y-78756376D01*
X92083512Y-78786073D01*
X92058742Y-78791000D01*
X91881258Y-78791000D01*
X91856488Y-78786073D01*
X91707188Y-78756376D01*
X91543216Y-78688456D01*
X91395646Y-78589853D01*
X91270147Y-78464354D01*
X91171544Y-78316784D01*
X91103624Y-78152812D01*
X91069000Y-77978741D01*
X91069000Y-77801259D01*
X91103624Y-77627188D01*
X91171544Y-77463216D01*
X91270147Y-77315646D01*
X91395646Y-77190147D01*
X91543216Y-77091544D01*
X91707188Y-77023624D01*
X91856488Y-76993927D01*
X91881258Y-76989000D01*
X92058742Y-76989000D01*
X92083512Y-76993927D01*
G37*
G36*
X85251000Y-78791000D02*
G01*
X83449000Y-78791000D01*
X83449000Y-76989000D01*
X85251000Y-76989000D01*
X85251000Y-78791000D01*
G37*
G36*
X53983512Y-76993927D02*
G01*
X54132812Y-77023624D01*
X54296784Y-77091544D01*
X54444354Y-77190147D01*
X54569853Y-77315646D01*
X54668456Y-77463216D01*
X54736376Y-77627188D01*
X54771000Y-77801259D01*
X54771000Y-77978741D01*
X54736376Y-78152812D01*
X54668456Y-78316784D01*
X54569853Y-78464354D01*
X54444354Y-78589853D01*
X54296784Y-78688456D01*
X54132812Y-78756376D01*
X53983512Y-78786073D01*
X53958742Y-78791000D01*
X53781258Y-78791000D01*
X53756488Y-78786073D01*
X53607188Y-78756376D01*
X53443216Y-78688456D01*
X53295646Y-78589853D01*
X53170147Y-78464354D01*
X53071544Y-78316784D01*
X53003624Y-78152812D01*
X52969000Y-77978741D01*
X52969000Y-77801259D01*
X53003624Y-77627188D01*
X53071544Y-77463216D01*
X53170147Y-77315646D01*
X53295646Y-77190147D01*
X53443216Y-77091544D01*
X53607188Y-77023624D01*
X53756488Y-76993927D01*
X53781258Y-76989000D01*
X53958742Y-76989000D01*
X53983512Y-76993927D01*
G37*
G36*
X119345059Y-76303360D02*
G01*
X119468184Y-76354360D01*
X119481732Y-76359972D01*
X119604735Y-76442160D01*
X119709340Y-76546765D01*
X119791528Y-76669768D01*
X119848140Y-76806441D01*
X119877000Y-76951533D01*
X119877000Y-77099467D01*
X119848140Y-77244559D01*
X119791528Y-77381232D01*
X119709340Y-77504235D01*
X119604735Y-77608840D01*
X119481732Y-77691028D01*
X119481731Y-77691029D01*
X119481730Y-77691029D01*
X119345059Y-77747640D01*
X119199968Y-77776500D01*
X119052032Y-77776500D01*
X118906941Y-77747640D01*
X118770270Y-77691029D01*
X118770269Y-77691029D01*
X118770268Y-77691028D01*
X118647265Y-77608840D01*
X118542660Y-77504235D01*
X118460472Y-77381232D01*
X118403860Y-77244559D01*
X118375000Y-77099467D01*
X118375000Y-76951533D01*
X118403860Y-76806441D01*
X118460472Y-76669768D01*
X118542660Y-76546765D01*
X118647265Y-76442160D01*
X118770268Y-76359972D01*
X118783817Y-76354360D01*
X118906941Y-76303360D01*
X119052032Y-76274500D01*
X119199968Y-76274500D01*
X119345059Y-76303360D01*
G37*
G36*
X121885059Y-76303360D02*
G01*
X122008184Y-76354360D01*
X122021732Y-76359972D01*
X122144735Y-76442160D01*
X122249340Y-76546765D01*
X122331528Y-76669768D01*
X122388140Y-76806441D01*
X122417000Y-76951533D01*
X122417000Y-77099467D01*
X122388140Y-77244559D01*
X122331528Y-77381232D01*
X122249340Y-77504235D01*
X122144735Y-77608840D01*
X122021732Y-77691028D01*
X122021731Y-77691029D01*
X122021730Y-77691029D01*
X121885059Y-77747640D01*
X121739968Y-77776500D01*
X121592032Y-77776500D01*
X121446941Y-77747640D01*
X121310270Y-77691029D01*
X121310269Y-77691029D01*
X121310268Y-77691028D01*
X121187265Y-77608840D01*
X121082660Y-77504235D01*
X121000472Y-77381232D01*
X120943860Y-77244559D01*
X120915000Y-77099467D01*
X120915000Y-76951533D01*
X120943860Y-76806441D01*
X121000472Y-76669768D01*
X121082660Y-76546765D01*
X121187265Y-76442160D01*
X121310268Y-76359972D01*
X121323817Y-76354360D01*
X121446941Y-76303360D01*
X121592032Y-76274500D01*
X121739968Y-76274500D01*
X121885059Y-76303360D01*
G37*
G36*
X126329815Y-74701666D02*
G01*
X126374347Y-74715175D01*
X126405577Y-74731868D01*
X126420180Y-74737917D01*
X126431244Y-74750124D01*
X126451364Y-74766636D01*
X126480885Y-74802608D01*
X126502826Y-74843657D01*
X126516334Y-74888185D01*
X126521500Y-74940640D01*
X126521500Y-76354360D01*
X126516334Y-76406815D01*
X126502826Y-76451343D01*
X126480885Y-76492392D01*
X126451364Y-76528364D01*
X126415392Y-76557885D01*
X126374343Y-76579826D01*
X126329815Y-76593334D01*
X126277360Y-76598500D01*
X125563640Y-76598500D01*
X125511185Y-76593334D01*
X125466657Y-76579826D01*
X125425608Y-76557885D01*
X125389636Y-76528364D01*
X125360115Y-76492392D01*
X125338174Y-76451343D01*
X125324666Y-76406815D01*
X125319500Y-76354360D01*
X125319500Y-74940640D01*
X125324666Y-74888185D01*
X125338174Y-74843657D01*
X125360115Y-74802608D01*
X125389636Y-74766636D01*
X125425608Y-74737115D01*
X125466657Y-74715174D01*
X125511185Y-74701666D01*
X125563640Y-74696500D01*
X126277360Y-74696500D01*
X126329815Y-74701666D01*
G37*
G36*
X134886000Y-75196000D02*
G01*
X133084000Y-75196000D01*
X133084000Y-73394000D01*
X134886000Y-73394000D01*
X134886000Y-75196000D01*
G37*
G36*
X136638512Y-73398927D02*
G01*
X136787812Y-73428624D01*
X136951784Y-73496544D01*
X137099354Y-73595147D01*
X137224853Y-73720646D01*
X137323456Y-73868216D01*
X137391376Y-74032188D01*
X137426000Y-74206259D01*
X137426000Y-74383741D01*
X137391376Y-74557812D01*
X137323456Y-74721784D01*
X137224853Y-74869354D01*
X137099354Y-74994853D01*
X136951784Y-75093456D01*
X136787812Y-75161376D01*
X136638512Y-75191073D01*
X136613742Y-75196000D01*
X136436258Y-75196000D01*
X136411488Y-75191073D01*
X136262188Y-75161376D01*
X136098216Y-75093456D01*
X135950646Y-74994853D01*
X135825147Y-74869354D01*
X135726544Y-74721784D01*
X135658624Y-74557812D01*
X135624000Y-74383741D01*
X135624000Y-74206259D01*
X135658624Y-74032188D01*
X135726544Y-73868216D01*
X135825147Y-73720646D01*
X135950646Y-73595147D01*
X136098216Y-73496544D01*
X136262188Y-73428624D01*
X136411488Y-73398927D01*
X136436258Y-73394000D01*
X136613742Y-73394000D01*
X136638512Y-73398927D01*
G37*
G36*
X127791500Y-74528500D02*
G01*
X126589500Y-74528500D01*
X126589500Y-72626500D01*
X127791500Y-72626500D01*
X127791500Y-74528500D01*
G37*
G36*
X125059815Y-72631666D02*
G01*
X125104343Y-72645174D01*
X125145392Y-72667115D01*
X125181364Y-72696636D01*
X125210885Y-72732608D01*
X125232826Y-72773657D01*
X125246334Y-72818185D01*
X125251500Y-72870640D01*
X125251500Y-74284360D01*
X125246334Y-74336815D01*
X125232826Y-74381343D01*
X125210885Y-74422392D01*
X125181364Y-74458364D01*
X125145392Y-74487885D01*
X125104343Y-74509826D01*
X125059815Y-74523334D01*
X125007360Y-74528500D01*
X124293640Y-74528500D01*
X124241185Y-74523334D01*
X124196657Y-74509826D01*
X124155608Y-74487885D01*
X124119636Y-74458364D01*
X124090115Y-74422392D01*
X124068174Y-74381343D01*
X124054666Y-74336815D01*
X124049500Y-74284360D01*
X124049500Y-72870640D01*
X124054666Y-72818185D01*
X124068174Y-72773657D01*
X124090115Y-72732608D01*
X124119636Y-72696636D01*
X124155608Y-72667115D01*
X124196657Y-72645174D01*
X124241185Y-72631666D01*
X124293640Y-72626500D01*
X125007360Y-72626500D01*
X125059815Y-72631666D01*
G37*
G36*
X106793512Y-71366927D02*
G01*
X106942812Y-71396624D01*
X107106784Y-71464544D01*
X107254354Y-71563147D01*
X107379853Y-71688646D01*
X107478456Y-71836216D01*
X107546376Y-72000188D01*
X107581000Y-72174259D01*
X107581000Y-72351741D01*
X107546376Y-72525812D01*
X107478456Y-72689784D01*
X107379853Y-72837354D01*
X107254354Y-72962853D01*
X107106784Y-73061456D01*
X106942812Y-73129376D01*
X106793512Y-73159073D01*
X106768742Y-73164000D01*
X106591258Y-73164000D01*
X106566488Y-73159073D01*
X106417188Y-73129376D01*
X106253216Y-73061456D01*
X106105646Y-72962853D01*
X105980147Y-72837354D01*
X105881544Y-72689784D01*
X105813624Y-72525812D01*
X105779000Y-72351741D01*
X105779000Y-72174259D01*
X105813624Y-72000188D01*
X105881544Y-71836216D01*
X105980147Y-71688646D01*
X106105646Y-71563147D01*
X106253216Y-71464544D01*
X106417188Y-71396624D01*
X106566488Y-71366927D01*
X106591258Y-71362000D01*
X106768742Y-71362000D01*
X106793512Y-71366927D01*
G37*
G36*
X110121000Y-73164000D02*
G01*
X108319000Y-73164000D01*
X108319000Y-71362000D01*
X110121000Y-71362000D01*
X110121000Y-73164000D01*
G37*
G36*
X54277395Y-70810546D02*
G01*
X54450466Y-70882234D01*
X54478511Y-70900973D01*
X54606227Y-70986310D01*
X54738690Y-71118773D01*
X54791081Y-71197182D01*
X54842766Y-71274534D01*
X54914454Y-71447605D01*
X54951000Y-71631333D01*
X54951000Y-71818667D01*
X54914454Y-72002395D01*
X54842766Y-72175466D01*
X54842765Y-72175467D01*
X54738690Y-72331227D01*
X54606227Y-72463690D01*
X54527818Y-72516081D01*
X54450466Y-72567766D01*
X54277395Y-72639454D01*
X54093667Y-72676000D01*
X53906333Y-72676000D01*
X53722605Y-72639454D01*
X53549534Y-72567766D01*
X53472182Y-72516081D01*
X53393773Y-72463690D01*
X53261310Y-72331227D01*
X53157235Y-72175467D01*
X53157234Y-72175466D01*
X53085546Y-72002395D01*
X53049000Y-71818667D01*
X53049000Y-71631333D01*
X53085546Y-71447605D01*
X53157234Y-71274534D01*
X53208919Y-71197182D01*
X53261310Y-71118773D01*
X53393773Y-70986310D01*
X53521489Y-70900973D01*
X53549534Y-70882234D01*
X53722605Y-70810546D01*
X53906333Y-70774000D01*
X54093667Y-70774000D01*
X54277395Y-70810546D01*
G37*
G36*
X102013512Y-70643927D02*
G01*
X102162812Y-70673624D01*
X102326784Y-70741544D01*
X102474354Y-70840147D01*
X102599853Y-70965646D01*
X102698456Y-71113216D01*
X102766376Y-71277188D01*
X102790133Y-71396625D01*
X102801000Y-71451258D01*
X102801000Y-71628742D01*
X102800484Y-71631335D01*
X102766376Y-71802812D01*
X102698456Y-71966784D01*
X102599853Y-72114354D01*
X102474354Y-72239853D01*
X102326784Y-72338456D01*
X102162812Y-72406376D01*
X102013512Y-72436073D01*
X101988742Y-72441000D01*
X101811258Y-72441000D01*
X101786488Y-72436073D01*
X101637188Y-72406376D01*
X101473216Y-72338456D01*
X101325646Y-72239853D01*
X101200147Y-72114354D01*
X101101544Y-71966784D01*
X101033624Y-71802812D01*
X100999516Y-71631335D01*
X100999000Y-71628742D01*
X100999000Y-71451258D01*
X101009867Y-71396625D01*
X101033624Y-71277188D01*
X101101544Y-71113216D01*
X101200147Y-70965646D01*
X101325646Y-70840147D01*
X101473216Y-70741544D01*
X101637188Y-70673624D01*
X101786488Y-70643927D01*
X101811258Y-70639000D01*
X101988742Y-70639000D01*
X102013512Y-70643927D01*
G37*
G36*
X57263642Y-70654781D02*
G01*
X57409414Y-70715162D01*
X57409416Y-70715163D01*
X57540608Y-70802822D01*
X57652178Y-70914392D01*
X57730246Y-71031230D01*
X57739838Y-71045586D01*
X57800219Y-71191358D01*
X57831000Y-71346107D01*
X57831000Y-71503893D01*
X57800219Y-71658642D01*
X57739838Y-71804414D01*
X57739837Y-71804416D01*
X57652178Y-71935608D01*
X57540608Y-72047178D01*
X57409416Y-72134837D01*
X57409415Y-72134838D01*
X57409414Y-72134838D01*
X57263642Y-72195219D01*
X57108893Y-72226000D01*
X56951107Y-72226000D01*
X56796358Y-72195219D01*
X56650586Y-72134838D01*
X56650585Y-72134838D01*
X56650584Y-72134837D01*
X56519392Y-72047178D01*
X56407822Y-71935608D01*
X56320163Y-71804416D01*
X56320162Y-71804414D01*
X56259781Y-71658642D01*
X56229000Y-71503893D01*
X56229000Y-71346107D01*
X56259781Y-71191358D01*
X56320162Y-71045586D01*
X56329754Y-71031230D01*
X56407822Y-70914392D01*
X56519392Y-70802822D01*
X56650584Y-70715163D01*
X56650586Y-70715162D01*
X56796358Y-70654781D01*
X56951107Y-70624000D01*
X57108893Y-70624000D01*
X57263642Y-70654781D01*
G37*
G36*
X119684779Y-69945149D02*
G01*
X119726059Y-69953360D01*
X119862732Y-70009972D01*
X119985735Y-70092160D01*
X120090340Y-70196765D01*
X120165410Y-70309115D01*
X120172529Y-70319770D01*
X120217049Y-70427250D01*
X120229140Y-70456441D01*
X120258000Y-70601533D01*
X120258000Y-70749467D01*
X120229140Y-70894559D01*
X120172528Y-71031232D01*
X120090340Y-71154235D01*
X119985735Y-71258840D01*
X119862732Y-71341028D01*
X119862731Y-71341029D01*
X119862730Y-71341029D01*
X119726059Y-71397640D01*
X119580968Y-71426500D01*
X119433032Y-71426500D01*
X119287941Y-71397640D01*
X119151270Y-71341029D01*
X119151269Y-71341029D01*
X119151268Y-71341028D01*
X119028265Y-71258840D01*
X118923660Y-71154235D01*
X118841472Y-71031232D01*
X118784860Y-70894559D01*
X118756000Y-70749467D01*
X118756000Y-70601533D01*
X118784860Y-70456441D01*
X118796951Y-70427250D01*
X118841471Y-70319770D01*
X118848590Y-70309115D01*
X118923660Y-70196765D01*
X119028265Y-70092160D01*
X119151268Y-70009972D01*
X119287941Y-69953360D01*
X119329221Y-69945149D01*
X119433032Y-69924500D01*
X119580968Y-69924500D01*
X119684779Y-69945149D01*
G37*
G36*
X122224779Y-69945149D02*
G01*
X122266059Y-69953360D01*
X122402732Y-70009972D01*
X122525735Y-70092160D01*
X122630340Y-70196765D01*
X122705410Y-70309115D01*
X122712529Y-70319770D01*
X122757049Y-70427250D01*
X122769140Y-70456441D01*
X122798000Y-70601533D01*
X122798000Y-70749467D01*
X122769140Y-70894559D01*
X122712528Y-71031232D01*
X122630340Y-71154235D01*
X122525735Y-71258840D01*
X122402732Y-71341028D01*
X122402731Y-71341029D01*
X122402730Y-71341029D01*
X122266059Y-71397640D01*
X122120968Y-71426500D01*
X121973032Y-71426500D01*
X121827941Y-71397640D01*
X121691270Y-71341029D01*
X121691269Y-71341029D01*
X121691268Y-71341028D01*
X121568265Y-71258840D01*
X121463660Y-71154235D01*
X121381472Y-71031232D01*
X121324860Y-70894559D01*
X121296000Y-70749467D01*
X121296000Y-70601533D01*
X121324860Y-70456441D01*
X121336951Y-70427250D01*
X121381471Y-70319770D01*
X121388590Y-70309115D01*
X121463660Y-70196765D01*
X121568265Y-70092160D01*
X121691268Y-70009972D01*
X121827941Y-69953360D01*
X121869221Y-69945149D01*
X121973032Y-69924500D01*
X122120968Y-69924500D01*
X122224779Y-69945149D01*
G37*
G36*
X132577064Y-69220389D02*
G01*
X132768333Y-69299615D01*
X132768335Y-69299616D01*
X132822997Y-69336140D01*
X132940473Y-69414635D01*
X133086865Y-69561027D01*
X133201885Y-69733167D01*
X133281111Y-69924436D01*
X133321500Y-70127484D01*
X133321500Y-70334516D01*
X133281111Y-70537564D01*
X133207547Y-70715163D01*
X133201884Y-70728835D01*
X133086865Y-70900973D01*
X132940473Y-71047365D01*
X132768335Y-71162384D01*
X132768334Y-71162385D01*
X132768333Y-71162385D01*
X132577064Y-71241611D01*
X132374016Y-71282000D01*
X132166984Y-71282000D01*
X131963936Y-71241611D01*
X131772667Y-71162385D01*
X131772666Y-71162385D01*
X131772665Y-71162384D01*
X131600527Y-71047365D01*
X131454135Y-70900973D01*
X131339116Y-70728835D01*
X131333453Y-70715163D01*
X131259889Y-70537564D01*
X131219500Y-70334516D01*
X131219500Y-70127484D01*
X131259889Y-69924436D01*
X131339115Y-69733167D01*
X131454135Y-69561027D01*
X131600527Y-69414635D01*
X131718003Y-69336140D01*
X131772665Y-69299616D01*
X131772667Y-69299615D01*
X131963936Y-69220389D01*
X132166984Y-69180000D01*
X132374016Y-69180000D01*
X132577064Y-69220389D01*
G37*
G36*
X137077064Y-69220389D02*
G01*
X137268333Y-69299615D01*
X137268335Y-69299616D01*
X137322997Y-69336140D01*
X137440473Y-69414635D01*
X137586865Y-69561027D01*
X137701885Y-69733167D01*
X137781111Y-69924436D01*
X137821500Y-70127484D01*
X137821500Y-70334516D01*
X137781111Y-70537564D01*
X137707547Y-70715163D01*
X137701884Y-70728835D01*
X137586865Y-70900973D01*
X137440473Y-71047365D01*
X137268335Y-71162384D01*
X137268334Y-71162385D01*
X137268333Y-71162385D01*
X137077064Y-71241611D01*
X136874016Y-71282000D01*
X136666984Y-71282000D01*
X136463936Y-71241611D01*
X136272667Y-71162385D01*
X136272666Y-71162385D01*
X136272665Y-71162384D01*
X136100527Y-71047365D01*
X135954135Y-70900973D01*
X135839116Y-70728835D01*
X135833453Y-70715163D01*
X135759889Y-70537564D01*
X135719500Y-70334516D01*
X135719500Y-70127484D01*
X135759889Y-69924436D01*
X135839115Y-69733167D01*
X135954135Y-69561027D01*
X136100527Y-69414635D01*
X136218003Y-69336140D01*
X136272665Y-69299616D01*
X136272667Y-69299615D01*
X136463936Y-69220389D01*
X136666984Y-69180000D01*
X136874016Y-69180000D01*
X137077064Y-69220389D01*
G37*
G36*
X85352199Y-66729954D02*
G01*
X85364450Y-66730556D01*
X85382869Y-66730556D01*
X85405149Y-66732750D01*
X85489233Y-66749476D01*
X85510660Y-66755976D01*
X85589858Y-66788780D01*
X85595303Y-66791691D01*
X85595309Y-66791693D01*
X85604169Y-66796429D01*
X85604173Y-66796432D01*
X85609614Y-66799340D01*
X85680899Y-66846971D01*
X85698204Y-66861172D01*
X85758828Y-66921796D01*
X85773029Y-66939101D01*
X85820660Y-67010386D01*
X85823568Y-67015827D01*
X85823571Y-67015831D01*
X85828307Y-67024691D01*
X85828309Y-67024697D01*
X85831220Y-67030142D01*
X85864024Y-67109340D01*
X85870524Y-67130767D01*
X85887250Y-67214851D01*
X85889444Y-67237131D01*
X85889444Y-67255550D01*
X85890046Y-67267801D01*
X85891852Y-67286139D01*
X85891852Y-67823860D01*
X85890263Y-67839999D01*
X85885855Y-67854528D01*
X85880394Y-67867711D01*
X85875612Y-67891745D01*
X85875611Y-67916249D01*
X85880391Y-67940282D01*
X85889768Y-67962921D01*
X85891000Y-67964765D01*
X85891000Y-69196050D01*
X85884525Y-69208164D01*
X85877412Y-69231613D01*
X85875010Y-69255999D01*
X85877412Y-69280385D01*
X85884525Y-69303834D01*
X85886848Y-69308746D01*
X85890263Y-69320001D01*
X85891852Y-69336140D01*
X85891852Y-69873862D01*
X85890046Y-69892199D01*
X85889444Y-69904450D01*
X85889444Y-69922869D01*
X85887250Y-69945149D01*
X85870524Y-70029233D01*
X85864024Y-70050660D01*
X85831220Y-70129858D01*
X85828309Y-70135303D01*
X85828307Y-70135309D01*
X85823571Y-70144169D01*
X85823568Y-70144173D01*
X85820660Y-70149614D01*
X85773029Y-70220899D01*
X85758828Y-70238204D01*
X85698204Y-70298828D01*
X85680899Y-70313029D01*
X85609614Y-70360660D01*
X85604173Y-70363568D01*
X85604169Y-70363571D01*
X85595309Y-70368307D01*
X85595303Y-70368309D01*
X85589858Y-70371220D01*
X85510660Y-70404024D01*
X85489233Y-70410524D01*
X85405149Y-70427250D01*
X85382869Y-70429444D01*
X85364450Y-70429444D01*
X85352199Y-70430046D01*
X85333862Y-70431852D01*
X84846138Y-70431852D01*
X84827801Y-70430046D01*
X84815550Y-70429444D01*
X84797131Y-70429444D01*
X84774851Y-70427250D01*
X84690767Y-70410524D01*
X84669340Y-70404024D01*
X84590142Y-70371220D01*
X84584697Y-70368309D01*
X84584691Y-70368307D01*
X84575831Y-70363571D01*
X84575827Y-70363568D01*
X84570386Y-70360660D01*
X84499101Y-70313029D01*
X84481796Y-70298828D01*
X84421172Y-70238204D01*
X84406971Y-70220899D01*
X84359340Y-70149614D01*
X84356432Y-70144173D01*
X84356429Y-70144169D01*
X84351693Y-70135309D01*
X84351691Y-70135303D01*
X84348780Y-70129858D01*
X84315976Y-70050660D01*
X84309476Y-70029233D01*
X84292750Y-69945149D01*
X84290556Y-69922869D01*
X84290556Y-69904450D01*
X84289954Y-69892199D01*
X84288148Y-69873862D01*
X84288148Y-69336140D01*
X84289737Y-69320001D01*
X84294145Y-69305472D01*
X84299606Y-69292289D01*
X84304388Y-69268255D01*
X84304389Y-69243751D01*
X84299609Y-69219718D01*
X84290232Y-69197079D01*
X84289000Y-69195235D01*
X84289000Y-67963950D01*
X84295475Y-67951836D01*
X84302588Y-67928387D01*
X84304990Y-67904001D01*
X84302588Y-67879615D01*
X84295475Y-67856166D01*
X84293152Y-67851254D01*
X84289737Y-67839999D01*
X84288148Y-67823860D01*
X84288148Y-67286139D01*
X84289954Y-67267801D01*
X84290556Y-67255550D01*
X84290556Y-67237131D01*
X84292750Y-67214851D01*
X84309476Y-67130767D01*
X84315976Y-67109340D01*
X84348780Y-67030142D01*
X84351691Y-67024697D01*
X84351693Y-67024691D01*
X84356429Y-67015831D01*
X84356432Y-67015827D01*
X84359340Y-67010386D01*
X84406971Y-66939101D01*
X84421172Y-66921796D01*
X84481796Y-66861172D01*
X84499101Y-66846971D01*
X84570386Y-66799340D01*
X84575827Y-66796432D01*
X84575831Y-66796429D01*
X84584691Y-66791693D01*
X84584697Y-66791691D01*
X84590142Y-66788780D01*
X84669340Y-66755976D01*
X84690767Y-66749476D01*
X84774851Y-66732750D01*
X84797131Y-66730556D01*
X84815550Y-66730556D01*
X84827801Y-66729954D01*
X84846139Y-66728148D01*
X85333861Y-66728148D01*
X85352199Y-66729954D01*
G37*
G36*
X102801000Y-69901000D02*
G01*
X100999000Y-69901000D01*
X100999000Y-68099000D01*
X102801000Y-68099000D01*
X102801000Y-69901000D01*
G37*
G36*
X108169059Y-66587860D02*
G01*
X108305732Y-66644472D01*
X108428735Y-66726660D01*
X108533340Y-66831265D01*
X108615528Y-66954268D01*
X108615529Y-66954270D01*
X108672140Y-67090941D01*
X108701000Y-67236032D01*
X108701000Y-67383968D01*
X108672140Y-67529059D01*
X108615528Y-67665732D01*
X108533340Y-67788735D01*
X108428735Y-67893340D01*
X108305732Y-67975528D01*
X108305731Y-67975529D01*
X108305730Y-67975529D01*
X108169059Y-68032140D01*
X108023968Y-68061000D01*
X107876032Y-68061000D01*
X107730941Y-68032140D01*
X107594270Y-67975529D01*
X107594269Y-67975529D01*
X107594268Y-67975528D01*
X107471265Y-67893340D01*
X107366660Y-67788735D01*
X107284472Y-67665732D01*
X107227860Y-67529059D01*
X107199000Y-67383968D01*
X107199000Y-67236032D01*
X107227860Y-67090941D01*
X107284471Y-66954270D01*
X107284472Y-66954268D01*
X107366660Y-66831265D01*
X107471265Y-66726660D01*
X107594268Y-66644472D01*
X107730941Y-66587860D01*
X107876032Y-66559000D01*
X108023968Y-66559000D01*
X108169059Y-66587860D01*
G37*
G36*
X127304012Y-65905927D02*
G01*
X127453312Y-65935624D01*
X127617284Y-66003544D01*
X127764854Y-66102147D01*
X127890353Y-66227646D01*
X127988956Y-66375216D01*
X128056876Y-66539188D01*
X128091500Y-66713259D01*
X128091500Y-66890741D01*
X128056876Y-67064812D01*
X127988956Y-67228784D01*
X127890353Y-67376354D01*
X127764854Y-67501853D01*
X127617284Y-67600456D01*
X127453312Y-67668376D01*
X127304012Y-67698073D01*
X127279242Y-67703000D01*
X127101758Y-67703000D01*
X127076988Y-67698073D01*
X126927688Y-67668376D01*
X126763716Y-67600456D01*
X126616146Y-67501853D01*
X126490647Y-67376354D01*
X126392044Y-67228784D01*
X126324124Y-67064812D01*
X126289500Y-66890741D01*
X126289500Y-66713259D01*
X126324124Y-66539188D01*
X126392044Y-66375216D01*
X126490647Y-66227646D01*
X126616146Y-66102147D01*
X126763716Y-66003544D01*
X126927688Y-65935624D01*
X127076988Y-65905927D01*
X127101758Y-65901000D01*
X127279242Y-65901000D01*
X127304012Y-65905927D01*
G37*
G36*
X124764012Y-65905927D02*
G01*
X124913312Y-65935624D01*
X125077284Y-66003544D01*
X125224854Y-66102147D01*
X125350353Y-66227646D01*
X125448956Y-66375216D01*
X125516876Y-66539188D01*
X125551500Y-66713259D01*
X125551500Y-66890741D01*
X125516876Y-67064812D01*
X125448956Y-67228784D01*
X125350353Y-67376354D01*
X125224854Y-67501853D01*
X125077284Y-67600456D01*
X124913312Y-67668376D01*
X124764012Y-67698073D01*
X124739242Y-67703000D01*
X124561758Y-67703000D01*
X124536988Y-67698073D01*
X124387688Y-67668376D01*
X124223716Y-67600456D01*
X124076146Y-67501853D01*
X123950647Y-67376354D01*
X123852044Y-67228784D01*
X123784124Y-67064812D01*
X123749500Y-66890741D01*
X123749500Y-66713259D01*
X123784124Y-66539188D01*
X123852044Y-66375216D01*
X123950647Y-66227646D01*
X124076146Y-66102147D01*
X124223716Y-66003544D01*
X124387688Y-65935624D01*
X124536988Y-65905927D01*
X124561758Y-65901000D01*
X124739242Y-65901000D01*
X124764012Y-65905927D01*
G37*
G36*
X122224012Y-65905927D02*
G01*
X122373312Y-65935624D01*
X122537284Y-66003544D01*
X122684854Y-66102147D01*
X122810353Y-66227646D01*
X122908956Y-66375216D01*
X122976876Y-66539188D01*
X123011500Y-66713259D01*
X123011500Y-66890741D01*
X122976876Y-67064812D01*
X122908956Y-67228784D01*
X122810353Y-67376354D01*
X122684854Y-67501853D01*
X122537284Y-67600456D01*
X122373312Y-67668376D01*
X122224012Y-67698073D01*
X122199242Y-67703000D01*
X122021758Y-67703000D01*
X121996988Y-67698073D01*
X121847688Y-67668376D01*
X121683716Y-67600456D01*
X121536146Y-67501853D01*
X121410647Y-67376354D01*
X121312044Y-67228784D01*
X121244124Y-67064812D01*
X121209500Y-66890741D01*
X121209500Y-66713259D01*
X121244124Y-66539188D01*
X121312044Y-66375216D01*
X121410647Y-66227646D01*
X121536146Y-66102147D01*
X121683716Y-66003544D01*
X121847688Y-65935624D01*
X121996988Y-65905927D01*
X122021758Y-65901000D01*
X122199242Y-65901000D01*
X122224012Y-65905927D01*
G37*
G36*
X119684012Y-65905927D02*
G01*
X119833312Y-65935624D01*
X119997284Y-66003544D01*
X120144854Y-66102147D01*
X120270353Y-66227646D01*
X120368956Y-66375216D01*
X120436876Y-66539188D01*
X120471500Y-66713259D01*
X120471500Y-66890741D01*
X120436876Y-67064812D01*
X120368956Y-67228784D01*
X120270353Y-67376354D01*
X120144854Y-67501853D01*
X119997284Y-67600456D01*
X119833312Y-67668376D01*
X119684012Y-67698073D01*
X119659242Y-67703000D01*
X119481758Y-67703000D01*
X119456988Y-67698073D01*
X119307688Y-67668376D01*
X119143716Y-67600456D01*
X118996146Y-67501853D01*
X118870647Y-67376354D01*
X118772044Y-67228784D01*
X118704124Y-67064812D01*
X118669500Y-66890741D01*
X118669500Y-66713259D01*
X118704124Y-66539188D01*
X118772044Y-66375216D01*
X118870647Y-66227646D01*
X118996146Y-66102147D01*
X119143716Y-66003544D01*
X119307688Y-65935624D01*
X119456988Y-65905927D01*
X119481758Y-65901000D01*
X119659242Y-65901000D01*
X119684012Y-65905927D01*
G37*
G36*
X117144012Y-65905927D02*
G01*
X117293312Y-65935624D01*
X117457284Y-66003544D01*
X117604854Y-66102147D01*
X117730353Y-66227646D01*
X117828956Y-66375216D01*
X117896876Y-66539188D01*
X117931500Y-66713259D01*
X117931500Y-66890741D01*
X117896876Y-67064812D01*
X117828956Y-67228784D01*
X117730353Y-67376354D01*
X117604854Y-67501853D01*
X117457284Y-67600456D01*
X117293312Y-67668376D01*
X117144012Y-67698073D01*
X117119242Y-67703000D01*
X116941758Y-67703000D01*
X116916988Y-67698073D01*
X116767688Y-67668376D01*
X116603716Y-67600456D01*
X116456146Y-67501853D01*
X116330647Y-67376354D01*
X116232044Y-67228784D01*
X116164124Y-67064812D01*
X116129500Y-66890741D01*
X116129500Y-66713259D01*
X116164124Y-66539188D01*
X116232044Y-66375216D01*
X116330647Y-66227646D01*
X116456146Y-66102147D01*
X116603716Y-66003544D01*
X116767688Y-65935624D01*
X116916988Y-65905927D01*
X116941758Y-65901000D01*
X117119242Y-65901000D01*
X117144012Y-65905927D01*
G37*
G36*
X114604012Y-65905927D02*
G01*
X114753312Y-65935624D01*
X114917284Y-66003544D01*
X115064854Y-66102147D01*
X115190353Y-66227646D01*
X115288956Y-66375216D01*
X115356876Y-66539188D01*
X115391500Y-66713259D01*
X115391500Y-66890741D01*
X115356876Y-67064812D01*
X115288956Y-67228784D01*
X115190353Y-67376354D01*
X115064854Y-67501853D01*
X114917284Y-67600456D01*
X114753312Y-67668376D01*
X114604012Y-67698073D01*
X114579242Y-67703000D01*
X114401758Y-67703000D01*
X114376988Y-67698073D01*
X114227688Y-67668376D01*
X114063716Y-67600456D01*
X113916146Y-67501853D01*
X113790647Y-67376354D01*
X113692044Y-67228784D01*
X113624124Y-67064812D01*
X113589500Y-66890741D01*
X113589500Y-66713259D01*
X113624124Y-66539188D01*
X113692044Y-66375216D01*
X113790647Y-66227646D01*
X113916146Y-66102147D01*
X114063716Y-66003544D01*
X114227688Y-65935624D01*
X114376988Y-65905927D01*
X114401758Y-65901000D01*
X114579242Y-65901000D01*
X114604012Y-65905927D01*
G37*
G36*
X57263642Y-65804781D02*
G01*
X57409414Y-65865162D01*
X57409416Y-65865163D01*
X57540608Y-65952822D01*
X57652178Y-66064392D01*
X57730316Y-66181335D01*
X57739838Y-66195586D01*
X57800219Y-66341358D01*
X57831000Y-66496107D01*
X57831000Y-66653893D01*
X57800219Y-66808642D01*
X57739838Y-66954414D01*
X57739837Y-66954416D01*
X57652178Y-67085608D01*
X57540608Y-67197178D01*
X57409416Y-67284837D01*
X57409415Y-67284838D01*
X57409414Y-67284838D01*
X57263642Y-67345219D01*
X57108893Y-67376000D01*
X56951107Y-67376000D01*
X56796358Y-67345219D01*
X56650586Y-67284838D01*
X56650585Y-67284838D01*
X56650584Y-67284837D01*
X56519392Y-67197178D01*
X56407822Y-67085608D01*
X56320163Y-66954416D01*
X56320162Y-66954414D01*
X56259781Y-66808642D01*
X56229000Y-66653893D01*
X56229000Y-66496107D01*
X56259781Y-66341358D01*
X56320162Y-66195586D01*
X56329684Y-66181335D01*
X56407822Y-66064392D01*
X56519392Y-65952822D01*
X56650584Y-65865163D01*
X56650586Y-65865162D01*
X56796358Y-65804781D01*
X56951107Y-65774000D01*
X57108893Y-65774000D01*
X57263642Y-65804781D01*
G37*
G36*
X102013512Y-65563927D02*
G01*
X102162812Y-65593624D01*
X102326784Y-65661544D01*
X102474354Y-65760147D01*
X102599853Y-65885646D01*
X102698456Y-66033216D01*
X102766376Y-66197188D01*
X102795052Y-66341357D01*
X102801000Y-66371258D01*
X102801000Y-66548742D01*
X102796073Y-66573512D01*
X102766376Y-66722812D01*
X102698456Y-66886784D01*
X102599853Y-67034354D01*
X102474354Y-67159853D01*
X102326784Y-67258456D01*
X102162812Y-67326376D01*
X102013512Y-67356073D01*
X101988742Y-67361000D01*
X101811258Y-67361000D01*
X101786488Y-67356073D01*
X101637188Y-67326376D01*
X101473216Y-67258456D01*
X101325646Y-67159853D01*
X101200147Y-67034354D01*
X101101544Y-66886784D01*
X101033624Y-66722812D01*
X101003927Y-66573512D01*
X100999000Y-66548742D01*
X100999000Y-66371258D01*
X101004948Y-66341357D01*
X101033624Y-66197188D01*
X101101544Y-66033216D01*
X101200147Y-65885646D01*
X101325646Y-65760147D01*
X101473216Y-65661544D01*
X101637188Y-65593624D01*
X101786488Y-65563927D01*
X101811258Y-65559000D01*
X101988742Y-65559000D01*
X102013512Y-65563927D01*
G37*
G36*
X54277395Y-65360546D02*
G01*
X54450466Y-65432234D01*
X54455397Y-65435529D01*
X54606227Y-65536310D01*
X54738690Y-65668773D01*
X54738691Y-65668775D01*
X54842766Y-65824534D01*
X54914454Y-65997605D01*
X54951000Y-66181333D01*
X54951000Y-66368667D01*
X54914454Y-66552395D01*
X54842766Y-66725466D01*
X54823577Y-66754184D01*
X54738690Y-66881227D01*
X54606227Y-67013690D01*
X54575302Y-67034353D01*
X54450466Y-67117766D01*
X54277395Y-67189454D01*
X54093667Y-67226000D01*
X53906333Y-67226000D01*
X53722605Y-67189454D01*
X53549534Y-67117766D01*
X53424698Y-67034353D01*
X53393773Y-67013690D01*
X53261310Y-66881227D01*
X53176423Y-66754184D01*
X53157234Y-66725466D01*
X53085546Y-66552395D01*
X53049000Y-66368667D01*
X53049000Y-66181333D01*
X53085546Y-65997605D01*
X53157234Y-65824534D01*
X53261309Y-65668775D01*
X53261310Y-65668773D01*
X53393773Y-65536310D01*
X53544603Y-65435529D01*
X53549534Y-65432234D01*
X53722605Y-65360546D01*
X53906333Y-65324000D01*
X54093667Y-65324000D01*
X54277395Y-65360546D01*
G37*
G36*
X108169059Y-64047860D02*
G01*
X108305732Y-64104472D01*
X108428735Y-64186660D01*
X108533340Y-64291265D01*
X108615528Y-64414268D01*
X108615529Y-64414270D01*
X108672140Y-64550941D01*
X108701000Y-64696032D01*
X108701000Y-64843968D01*
X108672140Y-64989059D01*
X108615528Y-65125732D01*
X108533340Y-65248735D01*
X108428735Y-65353340D01*
X108305732Y-65435528D01*
X108305731Y-65435529D01*
X108305730Y-65435529D01*
X108169059Y-65492140D01*
X108023968Y-65521000D01*
X107876032Y-65521000D01*
X107730941Y-65492140D01*
X107594270Y-65435529D01*
X107594269Y-65435529D01*
X107594268Y-65435528D01*
X107471265Y-65353340D01*
X107366660Y-65248735D01*
X107284472Y-65125732D01*
X107227860Y-64989059D01*
X107199000Y-64843968D01*
X107199000Y-64696032D01*
X107227860Y-64550941D01*
X107284471Y-64414270D01*
X107284472Y-64414268D01*
X107366660Y-64291265D01*
X107471265Y-64186660D01*
X107594268Y-64104472D01*
X107730941Y-64047860D01*
X107876032Y-64019000D01*
X108023968Y-64019000D01*
X108169059Y-64047860D01*
G37*
G36*
X114604012Y-63365927D02*
G01*
X114753312Y-63395624D01*
X114917284Y-63463544D01*
X115064854Y-63562147D01*
X115190353Y-63687646D01*
X115288956Y-63835216D01*
X115356876Y-63999188D01*
X115391500Y-64173259D01*
X115391500Y-64350741D01*
X115356876Y-64524812D01*
X115288956Y-64688784D01*
X115190353Y-64836354D01*
X115064854Y-64961853D01*
X114917284Y-65060456D01*
X114753312Y-65128376D01*
X114604012Y-65158073D01*
X114579242Y-65163000D01*
X114401758Y-65163000D01*
X114376988Y-65158073D01*
X114227688Y-65128376D01*
X114063716Y-65060456D01*
X113916146Y-64961853D01*
X113790647Y-64836354D01*
X113692044Y-64688784D01*
X113624124Y-64524812D01*
X113589500Y-64350741D01*
X113589500Y-64173259D01*
X113624124Y-63999188D01*
X113692044Y-63835216D01*
X113790647Y-63687646D01*
X113916146Y-63562147D01*
X114063716Y-63463544D01*
X114227688Y-63395624D01*
X114376988Y-63365927D01*
X114401758Y-63361000D01*
X114579242Y-63361000D01*
X114604012Y-63365927D01*
G37*
G36*
X119684012Y-63365927D02*
G01*
X119833312Y-63395624D01*
X119997284Y-63463544D01*
X120144854Y-63562147D01*
X120270353Y-63687646D01*
X120368956Y-63835216D01*
X120436876Y-63999188D01*
X120471500Y-64173259D01*
X120471500Y-64350741D01*
X120436876Y-64524812D01*
X120368956Y-64688784D01*
X120270353Y-64836354D01*
X120144854Y-64961853D01*
X119997284Y-65060456D01*
X119833312Y-65128376D01*
X119684012Y-65158073D01*
X119659242Y-65163000D01*
X119481758Y-65163000D01*
X119456988Y-65158073D01*
X119307688Y-65128376D01*
X119143716Y-65060456D01*
X118996146Y-64961853D01*
X118870647Y-64836354D01*
X118772044Y-64688784D01*
X118704124Y-64524812D01*
X118669500Y-64350741D01*
X118669500Y-64173259D01*
X118704124Y-63999188D01*
X118772044Y-63835216D01*
X118870647Y-63687646D01*
X118996146Y-63562147D01*
X119143716Y-63463544D01*
X119307688Y-63395624D01*
X119456988Y-63365927D01*
X119481758Y-63361000D01*
X119659242Y-63361000D01*
X119684012Y-63365927D01*
G37*
G36*
X122224012Y-63365927D02*
G01*
X122373312Y-63395624D01*
X122537284Y-63463544D01*
X122684854Y-63562147D01*
X122810353Y-63687646D01*
X122908956Y-63835216D01*
X122976876Y-63999188D01*
X123011500Y-64173259D01*
X123011500Y-64350741D01*
X122976876Y-64524812D01*
X122908956Y-64688784D01*
X122810353Y-64836354D01*
X122684854Y-64961853D01*
X122537284Y-65060456D01*
X122373312Y-65128376D01*
X122224012Y-65158073D01*
X122199242Y-65163000D01*
X122021758Y-65163000D01*
X121996988Y-65158073D01*
X121847688Y-65128376D01*
X121683716Y-65060456D01*
X121536146Y-64961853D01*
X121410647Y-64836354D01*
X121312044Y-64688784D01*
X121244124Y-64524812D01*
X121209500Y-64350741D01*
X121209500Y-64173259D01*
X121244124Y-63999188D01*
X121312044Y-63835216D01*
X121410647Y-63687646D01*
X121536146Y-63562147D01*
X121683716Y-63463544D01*
X121847688Y-63395624D01*
X121996988Y-63365927D01*
X122021758Y-63361000D01*
X122199242Y-63361000D01*
X122224012Y-63365927D01*
G37*
G36*
X117144012Y-63365927D02*
G01*
X117293312Y-63395624D01*
X117457284Y-63463544D01*
X117604854Y-63562147D01*
X117730353Y-63687646D01*
X117828956Y-63835216D01*
X117896876Y-63999188D01*
X117931500Y-64173259D01*
X117931500Y-64350741D01*
X117896876Y-64524812D01*
X117828956Y-64688784D01*
X117730353Y-64836354D01*
X117604854Y-64961853D01*
X117457284Y-65060456D01*
X117293312Y-65128376D01*
X117144012Y-65158073D01*
X117119242Y-65163000D01*
X116941758Y-65163000D01*
X116916988Y-65158073D01*
X116767688Y-65128376D01*
X116603716Y-65060456D01*
X116456146Y-64961853D01*
X116330647Y-64836354D01*
X116232044Y-64688784D01*
X116164124Y-64524812D01*
X116129500Y-64350741D01*
X116129500Y-64173259D01*
X116164124Y-63999188D01*
X116232044Y-63835216D01*
X116330647Y-63687646D01*
X116456146Y-63562147D01*
X116603716Y-63463544D01*
X116767688Y-63395624D01*
X116916988Y-63365927D01*
X116941758Y-63361000D01*
X117119242Y-63361000D01*
X117144012Y-63365927D01*
G37*
G36*
X124764012Y-63365927D02*
G01*
X124913312Y-63395624D01*
X125077284Y-63463544D01*
X125224854Y-63562147D01*
X125350353Y-63687646D01*
X125448956Y-63835216D01*
X125516876Y-63999188D01*
X125551500Y-64173259D01*
X125551500Y-64350741D01*
X125516876Y-64524812D01*
X125448956Y-64688784D01*
X125350353Y-64836354D01*
X125224854Y-64961853D01*
X125077284Y-65060456D01*
X124913312Y-65128376D01*
X124764012Y-65158073D01*
X124739242Y-65163000D01*
X124561758Y-65163000D01*
X124536988Y-65158073D01*
X124387688Y-65128376D01*
X124223716Y-65060456D01*
X124076146Y-64961853D01*
X123950647Y-64836354D01*
X123852044Y-64688784D01*
X123784124Y-64524812D01*
X123749500Y-64350741D01*
X123749500Y-64173259D01*
X123784124Y-63999188D01*
X123852044Y-63835216D01*
X123950647Y-63687646D01*
X124076146Y-63562147D01*
X124223716Y-63463544D01*
X124387688Y-63395624D01*
X124536988Y-63365927D01*
X124561758Y-63361000D01*
X124739242Y-63361000D01*
X124764012Y-63365927D01*
G37*
G36*
X127304012Y-63365927D02*
G01*
X127453312Y-63395624D01*
X127617284Y-63463544D01*
X127764854Y-63562147D01*
X127890353Y-63687646D01*
X127988956Y-63835216D01*
X128056876Y-63999188D01*
X128091500Y-64173259D01*
X128091500Y-64350741D01*
X128056876Y-64524812D01*
X127988956Y-64688784D01*
X127890353Y-64836354D01*
X127764854Y-64961853D01*
X127617284Y-65060456D01*
X127453312Y-65128376D01*
X127304012Y-65158073D01*
X127279242Y-65163000D01*
X127101758Y-65163000D01*
X127076988Y-65158073D01*
X126927688Y-65128376D01*
X126763716Y-65060456D01*
X126616146Y-64961853D01*
X126490647Y-64836354D01*
X126392044Y-64688784D01*
X126324124Y-64524812D01*
X126289500Y-64350741D01*
X126289500Y-64173259D01*
X126324124Y-63999188D01*
X126392044Y-63835216D01*
X126490647Y-63687646D01*
X126616146Y-63562147D01*
X126763716Y-63463544D01*
X126927688Y-63395624D01*
X127076988Y-63365927D01*
X127101758Y-63361000D01*
X127279242Y-63361000D01*
X127304012Y-63365927D01*
G37*
G36*
X132577064Y-62720389D02*
G01*
X132768333Y-62799615D01*
X132768335Y-62799616D01*
X132940473Y-62914635D01*
X133086865Y-63061027D01*
X133201885Y-63233167D01*
X133281111Y-63424436D01*
X133321500Y-63627484D01*
X133321500Y-63834516D01*
X133281111Y-64037564D01*
X133201885Y-64228833D01*
X133201884Y-64228835D01*
X133086865Y-64400973D01*
X132940473Y-64547365D01*
X132768335Y-64662384D01*
X132768334Y-64662385D01*
X132768333Y-64662385D01*
X132577064Y-64741611D01*
X132374016Y-64782000D01*
X132166984Y-64782000D01*
X131963936Y-64741611D01*
X131772667Y-64662385D01*
X131772666Y-64662385D01*
X131772665Y-64662384D01*
X131600527Y-64547365D01*
X131454135Y-64400973D01*
X131339116Y-64228835D01*
X131339115Y-64228833D01*
X131259889Y-64037564D01*
X131219500Y-63834516D01*
X131219500Y-63627484D01*
X131259889Y-63424436D01*
X131339115Y-63233167D01*
X131454135Y-63061027D01*
X131600527Y-62914635D01*
X131772665Y-62799616D01*
X131772667Y-62799615D01*
X131963936Y-62720389D01*
X132166984Y-62680000D01*
X132374016Y-62680000D01*
X132577064Y-62720389D01*
G37*
G36*
X137077064Y-62720389D02*
G01*
X137268333Y-62799615D01*
X137268335Y-62799616D01*
X137440473Y-62914635D01*
X137586865Y-63061027D01*
X137701885Y-63233167D01*
X137781111Y-63424436D01*
X137821500Y-63627484D01*
X137821500Y-63834516D01*
X137781111Y-64037564D01*
X137701885Y-64228833D01*
X137701884Y-64228835D01*
X137586865Y-64400973D01*
X137440473Y-64547365D01*
X137268335Y-64662384D01*
X137268334Y-64662385D01*
X137268333Y-64662385D01*
X137077064Y-64741611D01*
X136874016Y-64782000D01*
X136666984Y-64782000D01*
X136463936Y-64741611D01*
X136272667Y-64662385D01*
X136272666Y-64662385D01*
X136272665Y-64662384D01*
X136100527Y-64547365D01*
X135954135Y-64400973D01*
X135839116Y-64228835D01*
X135839115Y-64228833D01*
X135759889Y-64037564D01*
X135719500Y-63834516D01*
X135719500Y-63627484D01*
X135759889Y-63424436D01*
X135839115Y-63233167D01*
X135954135Y-63061027D01*
X136100527Y-62914635D01*
X136272665Y-62799616D01*
X136272667Y-62799615D01*
X136463936Y-62720389D01*
X136666984Y-62680000D01*
X136874016Y-62680000D01*
X137077064Y-62720389D01*
G37*
G36*
X127304012Y-60825927D02*
G01*
X127453312Y-60855624D01*
X127617284Y-60923544D01*
X127764854Y-61022147D01*
X127890353Y-61147646D01*
X127988956Y-61295216D01*
X128056876Y-61459188D01*
X128091500Y-61633259D01*
X128091500Y-61810741D01*
X128056876Y-61984812D01*
X127988956Y-62148784D01*
X127890353Y-62296354D01*
X127764854Y-62421853D01*
X127617284Y-62520456D01*
X127453312Y-62588376D01*
X127304012Y-62618073D01*
X127279242Y-62623000D01*
X127101758Y-62623000D01*
X127076988Y-62618073D01*
X126927688Y-62588376D01*
X126763716Y-62520456D01*
X126616146Y-62421853D01*
X126490647Y-62296354D01*
X126392044Y-62148784D01*
X126324124Y-61984812D01*
X126289500Y-61810741D01*
X126289500Y-61633259D01*
X126324124Y-61459188D01*
X126392044Y-61295216D01*
X126490647Y-61147646D01*
X126616146Y-61022147D01*
X126763716Y-60923544D01*
X126927688Y-60855624D01*
X127076988Y-60825927D01*
X127101758Y-60821000D01*
X127279242Y-60821000D01*
X127304012Y-60825927D01*
G37*
G36*
X119684012Y-60825927D02*
G01*
X119833312Y-60855624D01*
X119997284Y-60923544D01*
X120144854Y-61022147D01*
X120270353Y-61147646D01*
X120368956Y-61295216D01*
X120436876Y-61459188D01*
X120471500Y-61633259D01*
X120471500Y-61810741D01*
X120436876Y-61984812D01*
X120368956Y-62148784D01*
X120270353Y-62296354D01*
X120144854Y-62421853D01*
X119997284Y-62520456D01*
X119833312Y-62588376D01*
X119684012Y-62618073D01*
X119659242Y-62623000D01*
X119481758Y-62623000D01*
X119456988Y-62618073D01*
X119307688Y-62588376D01*
X119143716Y-62520456D01*
X118996146Y-62421853D01*
X118870647Y-62296354D01*
X118772044Y-62148784D01*
X118704124Y-61984812D01*
X118669500Y-61810741D01*
X118669500Y-61633259D01*
X118704124Y-61459188D01*
X118772044Y-61295216D01*
X118870647Y-61147646D01*
X118996146Y-61022147D01*
X119143716Y-60923544D01*
X119307688Y-60855624D01*
X119456988Y-60825927D01*
X119481758Y-60821000D01*
X119659242Y-60821000D01*
X119684012Y-60825927D01*
G37*
G36*
X117144012Y-60825927D02*
G01*
X117293312Y-60855624D01*
X117457284Y-60923544D01*
X117604854Y-61022147D01*
X117730353Y-61147646D01*
X117828956Y-61295216D01*
X117896876Y-61459188D01*
X117931500Y-61633259D01*
X117931500Y-61810741D01*
X117896876Y-61984812D01*
X117828956Y-62148784D01*
X117730353Y-62296354D01*
X117604854Y-62421853D01*
X117457284Y-62520456D01*
X117293312Y-62588376D01*
X117144012Y-62618073D01*
X117119242Y-62623000D01*
X116941758Y-62623000D01*
X116916988Y-62618073D01*
X116767688Y-62588376D01*
X116603716Y-62520456D01*
X116456146Y-62421853D01*
X116330647Y-62296354D01*
X116232044Y-62148784D01*
X116164124Y-61984812D01*
X116129500Y-61810741D01*
X116129500Y-61633259D01*
X116164124Y-61459188D01*
X116232044Y-61295216D01*
X116330647Y-61147646D01*
X116456146Y-61022147D01*
X116603716Y-60923544D01*
X116767688Y-60855624D01*
X116916988Y-60825927D01*
X116941758Y-60821000D01*
X117119242Y-60821000D01*
X117144012Y-60825927D01*
G37*
G36*
X122224012Y-60825927D02*
G01*
X122373312Y-60855624D01*
X122537284Y-60923544D01*
X122684854Y-61022147D01*
X122810353Y-61147646D01*
X122908956Y-61295216D01*
X122976876Y-61459188D01*
X123011500Y-61633259D01*
X123011500Y-61810741D01*
X122976876Y-61984812D01*
X122908956Y-62148784D01*
X122810353Y-62296354D01*
X122684854Y-62421853D01*
X122537284Y-62520456D01*
X122373312Y-62588376D01*
X122224012Y-62618073D01*
X122199242Y-62623000D01*
X122021758Y-62623000D01*
X121996988Y-62618073D01*
X121847688Y-62588376D01*
X121683716Y-62520456D01*
X121536146Y-62421853D01*
X121410647Y-62296354D01*
X121312044Y-62148784D01*
X121244124Y-61984812D01*
X121209500Y-61810741D01*
X121209500Y-61633259D01*
X121244124Y-61459188D01*
X121312044Y-61295216D01*
X121410647Y-61147646D01*
X121536146Y-61022147D01*
X121683716Y-60923544D01*
X121847688Y-60855624D01*
X121996988Y-60825927D01*
X122021758Y-60821000D01*
X122199242Y-60821000D01*
X122224012Y-60825927D01*
G37*
G36*
X114604012Y-60825927D02*
G01*
X114753312Y-60855624D01*
X114917284Y-60923544D01*
X115064854Y-61022147D01*
X115190353Y-61147646D01*
X115288956Y-61295216D01*
X115356876Y-61459188D01*
X115391500Y-61633259D01*
X115391500Y-61810741D01*
X115356876Y-61984812D01*
X115288956Y-62148784D01*
X115190353Y-62296354D01*
X115064854Y-62421853D01*
X114917284Y-62520456D01*
X114753312Y-62588376D01*
X114604012Y-62618073D01*
X114579242Y-62623000D01*
X114401758Y-62623000D01*
X114376988Y-62618073D01*
X114227688Y-62588376D01*
X114063716Y-62520456D01*
X113916146Y-62421853D01*
X113790647Y-62296354D01*
X113692044Y-62148784D01*
X113624124Y-61984812D01*
X113589500Y-61810741D01*
X113589500Y-61633259D01*
X113624124Y-61459188D01*
X113692044Y-61295216D01*
X113790647Y-61147646D01*
X113916146Y-61022147D01*
X114063716Y-60923544D01*
X114227688Y-60855624D01*
X114376988Y-60825927D01*
X114401758Y-60821000D01*
X114579242Y-60821000D01*
X114604012Y-60825927D01*
G37*
G36*
X124764012Y-60825927D02*
G01*
X124913312Y-60855624D01*
X125077284Y-60923544D01*
X125224854Y-61022147D01*
X125350353Y-61147646D01*
X125448956Y-61295216D01*
X125516876Y-61459188D01*
X125551500Y-61633259D01*
X125551500Y-61810741D01*
X125516876Y-61984812D01*
X125448956Y-62148784D01*
X125350353Y-62296354D01*
X125224854Y-62421853D01*
X125077284Y-62520456D01*
X124913312Y-62588376D01*
X124764012Y-62618073D01*
X124739242Y-62623000D01*
X124561758Y-62623000D01*
X124536988Y-62618073D01*
X124387688Y-62588376D01*
X124223716Y-62520456D01*
X124076146Y-62421853D01*
X123950647Y-62296354D01*
X123852044Y-62148784D01*
X123784124Y-61984812D01*
X123749500Y-61810741D01*
X123749500Y-61633259D01*
X123784124Y-61459188D01*
X123852044Y-61295216D01*
X123950647Y-61147646D01*
X124076146Y-61022147D01*
X124223716Y-60923544D01*
X124387688Y-60855624D01*
X124536988Y-60825927D01*
X124561758Y-60821000D01*
X124739242Y-60821000D01*
X124764012Y-60825927D01*
G37*
G36*
X76843512Y-59213927D02*
G01*
X76992812Y-59243624D01*
X77156784Y-59311544D01*
X77304354Y-59410147D01*
X77429853Y-59535646D01*
X77528456Y-59683216D01*
X77596376Y-59847188D01*
X77631000Y-60021259D01*
X77631000Y-60198741D01*
X77596376Y-60372812D01*
X77528456Y-60536784D01*
X77429853Y-60684354D01*
X77304354Y-60809853D01*
X77156784Y-60908456D01*
X76992812Y-60976376D01*
X76843512Y-61006073D01*
X76818742Y-61011000D01*
X76641258Y-61011000D01*
X76616488Y-61006073D01*
X76467188Y-60976376D01*
X76303216Y-60908456D01*
X76155646Y-60809853D01*
X76030147Y-60684354D01*
X75931544Y-60536784D01*
X75863624Y-60372812D01*
X75829000Y-60198741D01*
X75829000Y-60021259D01*
X75863624Y-59847188D01*
X75931544Y-59683216D01*
X76030147Y-59535646D01*
X76155646Y-59410147D01*
X76303216Y-59311544D01*
X76467188Y-59243624D01*
X76616488Y-59213927D01*
X76641258Y-59209000D01*
X76818742Y-59209000D01*
X76843512Y-59213927D01*
G37*
G36*
X53983512Y-59213927D02*
G01*
X54132812Y-59243624D01*
X54296784Y-59311544D01*
X54444354Y-59410147D01*
X54569853Y-59535646D01*
X54668456Y-59683216D01*
X54736376Y-59847188D01*
X54771000Y-60021259D01*
X54771000Y-60198741D01*
X54736376Y-60372812D01*
X54668456Y-60536784D01*
X54569853Y-60684354D01*
X54444354Y-60809853D01*
X54296784Y-60908456D01*
X54132812Y-60976376D01*
X53983512Y-61006073D01*
X53958742Y-61011000D01*
X53781258Y-61011000D01*
X53756488Y-61006073D01*
X53607188Y-60976376D01*
X53443216Y-60908456D01*
X53295646Y-60809853D01*
X53170147Y-60684354D01*
X53071544Y-60536784D01*
X53003624Y-60372812D01*
X52969000Y-60198741D01*
X52969000Y-60021259D01*
X53003624Y-59847188D01*
X53071544Y-59683216D01*
X53170147Y-59535646D01*
X53295646Y-59410147D01*
X53443216Y-59311544D01*
X53607188Y-59243624D01*
X53756488Y-59213927D01*
X53781258Y-59209000D01*
X53958742Y-59209000D01*
X53983512Y-59213927D01*
G37*
G36*
X56523512Y-59213927D02*
G01*
X56672812Y-59243624D01*
X56836784Y-59311544D01*
X56984354Y-59410147D01*
X57109853Y-59535646D01*
X57208456Y-59683216D01*
X57276376Y-59847188D01*
X57311000Y-60021259D01*
X57311000Y-60198741D01*
X57276376Y-60372812D01*
X57208456Y-60536784D01*
X57109853Y-60684354D01*
X56984354Y-60809853D01*
X56836784Y-60908456D01*
X56672812Y-60976376D01*
X56523512Y-61006073D01*
X56498742Y-61011000D01*
X56321258Y-61011000D01*
X56296488Y-61006073D01*
X56147188Y-60976376D01*
X55983216Y-60908456D01*
X55835646Y-60809853D01*
X55710147Y-60684354D01*
X55611544Y-60536784D01*
X55543624Y-60372812D01*
X55509000Y-60198741D01*
X55509000Y-60021259D01*
X55543624Y-59847188D01*
X55611544Y-59683216D01*
X55710147Y-59535646D01*
X55835646Y-59410147D01*
X55983216Y-59311544D01*
X56147188Y-59243624D01*
X56296488Y-59213927D01*
X56321258Y-59209000D01*
X56498742Y-59209000D01*
X56523512Y-59213927D01*
G37*
G36*
X59851000Y-61011000D02*
G01*
X58049000Y-61011000D01*
X58049000Y-59209000D01*
X59851000Y-59209000D01*
X59851000Y-61011000D01*
G37*
G36*
X61603512Y-59213927D02*
G01*
X61752812Y-59243624D01*
X61916784Y-59311544D01*
X62064354Y-59410147D01*
X62189853Y-59535646D01*
X62288456Y-59683216D01*
X62356376Y-59847188D01*
X62391000Y-60021259D01*
X62391000Y-60198741D01*
X62356376Y-60372812D01*
X62288456Y-60536784D01*
X62189853Y-60684354D01*
X62064354Y-60809853D01*
X61916784Y-60908456D01*
X61752812Y-60976376D01*
X61603512Y-61006073D01*
X61578742Y-61011000D01*
X61401258Y-61011000D01*
X61376488Y-61006073D01*
X61227188Y-60976376D01*
X61063216Y-60908456D01*
X60915646Y-60809853D01*
X60790147Y-60684354D01*
X60691544Y-60536784D01*
X60623624Y-60372812D01*
X60589000Y-60198741D01*
X60589000Y-60021259D01*
X60623624Y-59847188D01*
X60691544Y-59683216D01*
X60790147Y-59535646D01*
X60915646Y-59410147D01*
X61063216Y-59311544D01*
X61227188Y-59243624D01*
X61376488Y-59213927D01*
X61401258Y-59209000D01*
X61578742Y-59209000D01*
X61603512Y-59213927D01*
G37*
G36*
X64143512Y-59213927D02*
G01*
X64292812Y-59243624D01*
X64456784Y-59311544D01*
X64604354Y-59410147D01*
X64729853Y-59535646D01*
X64828456Y-59683216D01*
X64896376Y-59847188D01*
X64931000Y-60021259D01*
X64931000Y-60198741D01*
X64896376Y-60372812D01*
X64828456Y-60536784D01*
X64729853Y-60684354D01*
X64604354Y-60809853D01*
X64456784Y-60908456D01*
X64292812Y-60976376D01*
X64143512Y-61006073D01*
X64118742Y-61011000D01*
X63941258Y-61011000D01*
X63916488Y-61006073D01*
X63767188Y-60976376D01*
X63603216Y-60908456D01*
X63455646Y-60809853D01*
X63330147Y-60684354D01*
X63231544Y-60536784D01*
X63163624Y-60372812D01*
X63129000Y-60198741D01*
X63129000Y-60021259D01*
X63163624Y-59847188D01*
X63231544Y-59683216D01*
X63330147Y-59535646D01*
X63455646Y-59410147D01*
X63603216Y-59311544D01*
X63767188Y-59243624D01*
X63916488Y-59213927D01*
X63941258Y-59209000D01*
X64118742Y-59209000D01*
X64143512Y-59213927D01*
G37*
G36*
X66683512Y-59213927D02*
G01*
X66832812Y-59243624D01*
X66996784Y-59311544D01*
X67144354Y-59410147D01*
X67269853Y-59535646D01*
X67368456Y-59683216D01*
X67436376Y-59847188D01*
X67471000Y-60021259D01*
X67471000Y-60198741D01*
X67436376Y-60372812D01*
X67368456Y-60536784D01*
X67269853Y-60684354D01*
X67144354Y-60809853D01*
X66996784Y-60908456D01*
X66832812Y-60976376D01*
X66683512Y-61006073D01*
X66658742Y-61011000D01*
X66481258Y-61011000D01*
X66456488Y-61006073D01*
X66307188Y-60976376D01*
X66143216Y-60908456D01*
X65995646Y-60809853D01*
X65870147Y-60684354D01*
X65771544Y-60536784D01*
X65703624Y-60372812D01*
X65669000Y-60198741D01*
X65669000Y-60021259D01*
X65703624Y-59847188D01*
X65771544Y-59683216D01*
X65870147Y-59535646D01*
X65995646Y-59410147D01*
X66143216Y-59311544D01*
X66307188Y-59243624D01*
X66456488Y-59213927D01*
X66481258Y-59209000D01*
X66658742Y-59209000D01*
X66683512Y-59213927D01*
G37*
G36*
X69223512Y-59213927D02*
G01*
X69372812Y-59243624D01*
X69536784Y-59311544D01*
X69684354Y-59410147D01*
X69809853Y-59535646D01*
X69908456Y-59683216D01*
X69976376Y-59847188D01*
X70011000Y-60021259D01*
X70011000Y-60198741D01*
X69976376Y-60372812D01*
X69908456Y-60536784D01*
X69809853Y-60684354D01*
X69684354Y-60809853D01*
X69536784Y-60908456D01*
X69372812Y-60976376D01*
X69223512Y-61006073D01*
X69198742Y-61011000D01*
X69021258Y-61011000D01*
X68996488Y-61006073D01*
X68847188Y-60976376D01*
X68683216Y-60908456D01*
X68535646Y-60809853D01*
X68410147Y-60684354D01*
X68311544Y-60536784D01*
X68243624Y-60372812D01*
X68209000Y-60198741D01*
X68209000Y-60021259D01*
X68243624Y-59847188D01*
X68311544Y-59683216D01*
X68410147Y-59535646D01*
X68535646Y-59410147D01*
X68683216Y-59311544D01*
X68847188Y-59243624D01*
X68996488Y-59213927D01*
X69021258Y-59209000D01*
X69198742Y-59209000D01*
X69223512Y-59213927D01*
G37*
G36*
X72551000Y-61011000D02*
G01*
X70749000Y-61011000D01*
X70749000Y-59209000D01*
X72551000Y-59209000D01*
X72551000Y-61011000D01*
G37*
G36*
X74303512Y-59213927D02*
G01*
X74452812Y-59243624D01*
X74616784Y-59311544D01*
X74764354Y-59410147D01*
X74889853Y-59535646D01*
X74988456Y-59683216D01*
X75056376Y-59847188D01*
X75091000Y-60021259D01*
X75091000Y-60198741D01*
X75056376Y-60372812D01*
X74988456Y-60536784D01*
X74889853Y-60684354D01*
X74764354Y-60809853D01*
X74616784Y-60908456D01*
X74452812Y-60976376D01*
X74303512Y-61006073D01*
X74278742Y-61011000D01*
X74101258Y-61011000D01*
X74076488Y-61006073D01*
X73927188Y-60976376D01*
X73763216Y-60908456D01*
X73615646Y-60809853D01*
X73490147Y-60684354D01*
X73391544Y-60536784D01*
X73323624Y-60372812D01*
X73289000Y-60198741D01*
X73289000Y-60021259D01*
X73323624Y-59847188D01*
X73391544Y-59683216D01*
X73490147Y-59535646D01*
X73615646Y-59410147D01*
X73763216Y-59311544D01*
X73927188Y-59243624D01*
X74076488Y-59213927D01*
X74101258Y-59209000D01*
X74278742Y-59209000D01*
X74303512Y-59213927D01*
G37*
G36*
X79383512Y-59213927D02*
G01*
X79532812Y-59243624D01*
X79696784Y-59311544D01*
X79844354Y-59410147D01*
X79969853Y-59535646D01*
X80068456Y-59683216D01*
X80136376Y-59847188D01*
X80171000Y-60021259D01*
X80171000Y-60198741D01*
X80136376Y-60372812D01*
X80068456Y-60536784D01*
X79969853Y-60684354D01*
X79844354Y-60809853D01*
X79696784Y-60908456D01*
X79532812Y-60976376D01*
X79383512Y-61006073D01*
X79358742Y-61011000D01*
X79181258Y-61011000D01*
X79156488Y-61006073D01*
X79007188Y-60976376D01*
X78843216Y-60908456D01*
X78695646Y-60809853D01*
X78570147Y-60684354D01*
X78471544Y-60536784D01*
X78403624Y-60372812D01*
X78369000Y-60198741D01*
X78369000Y-60021259D01*
X78403624Y-59847188D01*
X78471544Y-59683216D01*
X78570147Y-59535646D01*
X78695646Y-59410147D01*
X78843216Y-59311544D01*
X79007188Y-59243624D01*
X79156488Y-59213927D01*
X79181258Y-59209000D01*
X79358742Y-59209000D01*
X79383512Y-59213927D01*
G37*
G36*
X99703512Y-59213927D02*
G01*
X99852812Y-59243624D01*
X100016784Y-59311544D01*
X100164354Y-59410147D01*
X100289853Y-59535646D01*
X100388456Y-59683216D01*
X100456376Y-59847188D01*
X100491000Y-60021259D01*
X100491000Y-60198741D01*
X100456376Y-60372812D01*
X100388456Y-60536784D01*
X100289853Y-60684354D01*
X100164354Y-60809853D01*
X100016784Y-60908456D01*
X99852812Y-60976376D01*
X99703512Y-61006073D01*
X99678742Y-61011000D01*
X99501258Y-61011000D01*
X99476488Y-61006073D01*
X99327188Y-60976376D01*
X99163216Y-60908456D01*
X99015646Y-60809853D01*
X98890147Y-60684354D01*
X98791544Y-60536784D01*
X98723624Y-60372812D01*
X98689000Y-60198741D01*
X98689000Y-60021259D01*
X98723624Y-59847188D01*
X98791544Y-59683216D01*
X98890147Y-59535646D01*
X99015646Y-59410147D01*
X99163216Y-59311544D01*
X99327188Y-59243624D01*
X99476488Y-59213927D01*
X99501258Y-59209000D01*
X99678742Y-59209000D01*
X99703512Y-59213927D01*
G37*
G36*
X97951000Y-61011000D02*
G01*
X96149000Y-61011000D01*
X96149000Y-59209000D01*
X97951000Y-59209000D01*
X97951000Y-61011000D01*
G37*
G36*
X94623512Y-59213927D02*
G01*
X94772812Y-59243624D01*
X94936784Y-59311544D01*
X95084354Y-59410147D01*
X95209853Y-59535646D01*
X95308456Y-59683216D01*
X95376376Y-59847188D01*
X95411000Y-60021259D01*
X95411000Y-60198741D01*
X95376376Y-60372812D01*
X95308456Y-60536784D01*
X95209853Y-60684354D01*
X95084354Y-60809853D01*
X94936784Y-60908456D01*
X94772812Y-60976376D01*
X94623512Y-61006073D01*
X94598742Y-61011000D01*
X94421258Y-61011000D01*
X94396488Y-61006073D01*
X94247188Y-60976376D01*
X94083216Y-60908456D01*
X93935646Y-60809853D01*
X93810147Y-60684354D01*
X93711544Y-60536784D01*
X93643624Y-60372812D01*
X93609000Y-60198741D01*
X93609000Y-60021259D01*
X93643624Y-59847188D01*
X93711544Y-59683216D01*
X93810147Y-59535646D01*
X93935646Y-59410147D01*
X94083216Y-59311544D01*
X94247188Y-59243624D01*
X94396488Y-59213927D01*
X94421258Y-59209000D01*
X94598742Y-59209000D01*
X94623512Y-59213927D01*
G37*
G36*
X92083512Y-59213927D02*
G01*
X92232812Y-59243624D01*
X92396784Y-59311544D01*
X92544354Y-59410147D01*
X92669853Y-59535646D01*
X92768456Y-59683216D01*
X92836376Y-59847188D01*
X92871000Y-60021259D01*
X92871000Y-60198741D01*
X92836376Y-60372812D01*
X92768456Y-60536784D01*
X92669853Y-60684354D01*
X92544354Y-60809853D01*
X92396784Y-60908456D01*
X92232812Y-60976376D01*
X92083512Y-61006073D01*
X92058742Y-61011000D01*
X91881258Y-61011000D01*
X91856488Y-61006073D01*
X91707188Y-60976376D01*
X91543216Y-60908456D01*
X91395646Y-60809853D01*
X91270147Y-60684354D01*
X91171544Y-60536784D01*
X91103624Y-60372812D01*
X91069000Y-60198741D01*
X91069000Y-60021259D01*
X91103624Y-59847188D01*
X91171544Y-59683216D01*
X91270147Y-59535646D01*
X91395646Y-59410147D01*
X91543216Y-59311544D01*
X91707188Y-59243624D01*
X91856488Y-59213927D01*
X91881258Y-59209000D01*
X92058742Y-59209000D01*
X92083512Y-59213927D01*
G37*
G36*
X89543512Y-59213927D02*
G01*
X89692812Y-59243624D01*
X89856784Y-59311544D01*
X90004354Y-59410147D01*
X90129853Y-59535646D01*
X90228456Y-59683216D01*
X90296376Y-59847188D01*
X90331000Y-60021259D01*
X90331000Y-60198741D01*
X90296376Y-60372812D01*
X90228456Y-60536784D01*
X90129853Y-60684354D01*
X90004354Y-60809853D01*
X89856784Y-60908456D01*
X89692812Y-60976376D01*
X89543512Y-61006073D01*
X89518742Y-61011000D01*
X89341258Y-61011000D01*
X89316488Y-61006073D01*
X89167188Y-60976376D01*
X89003216Y-60908456D01*
X88855646Y-60809853D01*
X88730147Y-60684354D01*
X88631544Y-60536784D01*
X88563624Y-60372812D01*
X88529000Y-60198741D01*
X88529000Y-60021259D01*
X88563624Y-59847188D01*
X88631544Y-59683216D01*
X88730147Y-59535646D01*
X88855646Y-59410147D01*
X89003216Y-59311544D01*
X89167188Y-59243624D01*
X89316488Y-59213927D01*
X89341258Y-59209000D01*
X89518742Y-59209000D01*
X89543512Y-59213927D01*
G37*
G36*
X87003512Y-59213927D02*
G01*
X87152812Y-59243624D01*
X87316784Y-59311544D01*
X87464354Y-59410147D01*
X87589853Y-59535646D01*
X87688456Y-59683216D01*
X87756376Y-59847188D01*
X87791000Y-60021259D01*
X87791000Y-60198741D01*
X87756376Y-60372812D01*
X87688456Y-60536784D01*
X87589853Y-60684354D01*
X87464354Y-60809853D01*
X87316784Y-60908456D01*
X87152812Y-60976376D01*
X87003512Y-61006073D01*
X86978742Y-61011000D01*
X86801258Y-61011000D01*
X86776488Y-61006073D01*
X86627188Y-60976376D01*
X86463216Y-60908456D01*
X86315646Y-60809853D01*
X86190147Y-60684354D01*
X86091544Y-60536784D01*
X86023624Y-60372812D01*
X85989000Y-60198741D01*
X85989000Y-60021259D01*
X86023624Y-59847188D01*
X86091544Y-59683216D01*
X86190147Y-59535646D01*
X86315646Y-59410147D01*
X86463216Y-59311544D01*
X86627188Y-59243624D01*
X86776488Y-59213927D01*
X86801258Y-59209000D01*
X86978742Y-59209000D01*
X87003512Y-59213927D01*
G37*
G36*
X85251000Y-61011000D02*
G01*
X83449000Y-61011000D01*
X83449000Y-59209000D01*
X85251000Y-59209000D01*
X85251000Y-61011000D01*
G37*
G36*
X102243512Y-59213927D02*
G01*
X102392812Y-59243624D01*
X102556784Y-59311544D01*
X102704354Y-59410147D01*
X102829853Y-59535646D01*
X102928456Y-59683216D01*
X102996376Y-59847188D01*
X103031000Y-60021259D01*
X103031000Y-60198741D01*
X102996376Y-60372812D01*
X102928456Y-60536784D01*
X102829853Y-60684354D01*
X102704354Y-60809853D01*
X102556784Y-60908456D01*
X102392812Y-60976376D01*
X102243512Y-61006073D01*
X102218742Y-61011000D01*
X102041258Y-61011000D01*
X102016488Y-61006073D01*
X101867188Y-60976376D01*
X101703216Y-60908456D01*
X101555646Y-60809853D01*
X101430147Y-60684354D01*
X101331544Y-60536784D01*
X101263624Y-60372812D01*
X101229000Y-60198741D01*
X101229000Y-60021259D01*
X101263624Y-59847188D01*
X101331544Y-59683216D01*
X101430147Y-59535646D01*
X101555646Y-59410147D01*
X101703216Y-59311544D01*
X101867188Y-59243624D01*
X102016488Y-59213927D01*
X102041258Y-59209000D01*
X102218742Y-59209000D01*
X102243512Y-59213927D01*
G37*
G36*
X81923512Y-59213927D02*
G01*
X82072812Y-59243624D01*
X82236784Y-59311544D01*
X82384354Y-59410147D01*
X82509853Y-59535646D01*
X82608456Y-59683216D01*
X82676376Y-59847188D01*
X82711000Y-60021259D01*
X82711000Y-60198741D01*
X82676376Y-60372812D01*
X82608456Y-60536784D01*
X82509853Y-60684354D01*
X82384354Y-60809853D01*
X82236784Y-60908456D01*
X82072812Y-60976376D01*
X81923512Y-61006073D01*
X81898742Y-61011000D01*
X81721258Y-61011000D01*
X81696488Y-61006073D01*
X81547188Y-60976376D01*
X81383216Y-60908456D01*
X81235646Y-60809853D01*
X81110147Y-60684354D01*
X81011544Y-60536784D01*
X80943624Y-60372812D01*
X80909000Y-60198741D01*
X80909000Y-60021259D01*
X80943624Y-59847188D01*
X81011544Y-59683216D01*
X81110147Y-59535646D01*
X81235646Y-59410147D01*
X81383216Y-59311544D01*
X81547188Y-59243624D01*
X81696488Y-59213927D01*
X81721258Y-59209000D01*
X81898742Y-59209000D01*
X81923512Y-59213927D01*
G37*
G36*
X127304012Y-58285927D02*
G01*
X127453312Y-58315624D01*
X127617284Y-58383544D01*
X127764854Y-58482147D01*
X127890353Y-58607646D01*
X127988956Y-58755216D01*
X128056876Y-58919188D01*
X128091500Y-59093259D01*
X128091500Y-59270741D01*
X128056876Y-59444812D01*
X127988956Y-59608784D01*
X127890353Y-59756354D01*
X127764854Y-59881853D01*
X127617284Y-59980456D01*
X127453312Y-60048376D01*
X127304012Y-60078073D01*
X127279242Y-60083000D01*
X127101758Y-60083000D01*
X127076988Y-60078073D01*
X126927688Y-60048376D01*
X126763716Y-59980456D01*
X126616146Y-59881853D01*
X126490647Y-59756354D01*
X126392044Y-59608784D01*
X126324124Y-59444812D01*
X126289500Y-59270741D01*
X126289500Y-59093259D01*
X126324124Y-58919188D01*
X126392044Y-58755216D01*
X126490647Y-58607646D01*
X126616146Y-58482147D01*
X126763716Y-58383544D01*
X126927688Y-58315624D01*
X127076988Y-58285927D01*
X127101758Y-58281000D01*
X127279242Y-58281000D01*
X127304012Y-58285927D01*
G37*
G36*
X119684012Y-58285927D02*
G01*
X119833312Y-58315624D01*
X119997284Y-58383544D01*
X120144854Y-58482147D01*
X120270353Y-58607646D01*
X120368956Y-58755216D01*
X120436876Y-58919188D01*
X120471500Y-59093259D01*
X120471500Y-59270741D01*
X120436876Y-59444812D01*
X120368956Y-59608784D01*
X120270353Y-59756354D01*
X120144854Y-59881853D01*
X119997284Y-59980456D01*
X119833312Y-60048376D01*
X119684012Y-60078073D01*
X119659242Y-60083000D01*
X119481758Y-60083000D01*
X119456988Y-60078073D01*
X119307688Y-60048376D01*
X119143716Y-59980456D01*
X118996146Y-59881853D01*
X118870647Y-59756354D01*
X118772044Y-59608784D01*
X118704124Y-59444812D01*
X118669500Y-59270741D01*
X118669500Y-59093259D01*
X118704124Y-58919188D01*
X118772044Y-58755216D01*
X118870647Y-58607646D01*
X118996146Y-58482147D01*
X119143716Y-58383544D01*
X119307688Y-58315624D01*
X119456988Y-58285927D01*
X119481758Y-58281000D01*
X119659242Y-58281000D01*
X119684012Y-58285927D01*
G37*
G36*
X124764012Y-58285927D02*
G01*
X124913312Y-58315624D01*
X125077284Y-58383544D01*
X125224854Y-58482147D01*
X125350353Y-58607646D01*
X125448956Y-58755216D01*
X125516876Y-58919188D01*
X125551500Y-59093259D01*
X125551500Y-59270741D01*
X125516876Y-59444812D01*
X125448956Y-59608784D01*
X125350353Y-59756354D01*
X125224854Y-59881853D01*
X125077284Y-59980456D01*
X124913312Y-60048376D01*
X124764012Y-60078073D01*
X124739242Y-60083000D01*
X124561758Y-60083000D01*
X124536988Y-60078073D01*
X124387688Y-60048376D01*
X124223716Y-59980456D01*
X124076146Y-59881853D01*
X123950647Y-59756354D01*
X123852044Y-59608784D01*
X123784124Y-59444812D01*
X123749500Y-59270741D01*
X123749500Y-59093259D01*
X123784124Y-58919188D01*
X123852044Y-58755216D01*
X123950647Y-58607646D01*
X124076146Y-58482147D01*
X124223716Y-58383544D01*
X124387688Y-58315624D01*
X124536988Y-58285927D01*
X124561758Y-58281000D01*
X124739242Y-58281000D01*
X124764012Y-58285927D01*
G37*
G36*
X117144012Y-58285927D02*
G01*
X117293312Y-58315624D01*
X117457284Y-58383544D01*
X117604854Y-58482147D01*
X117730353Y-58607646D01*
X117828956Y-58755216D01*
X117896876Y-58919188D01*
X117931500Y-59093259D01*
X117931500Y-59270741D01*
X117896876Y-59444812D01*
X117828956Y-59608784D01*
X117730353Y-59756354D01*
X117604854Y-59881853D01*
X117457284Y-59980456D01*
X117293312Y-60048376D01*
X117144012Y-60078073D01*
X117119242Y-60083000D01*
X116941758Y-60083000D01*
X116916988Y-60078073D01*
X116767688Y-60048376D01*
X116603716Y-59980456D01*
X116456146Y-59881853D01*
X116330647Y-59756354D01*
X116232044Y-59608784D01*
X116164124Y-59444812D01*
X116129500Y-59270741D01*
X116129500Y-59093259D01*
X116164124Y-58919188D01*
X116232044Y-58755216D01*
X116330647Y-58607646D01*
X116456146Y-58482147D01*
X116603716Y-58383544D01*
X116767688Y-58315624D01*
X116916988Y-58285927D01*
X116941758Y-58281000D01*
X117119242Y-58281000D01*
X117144012Y-58285927D01*
G37*
G36*
X114604012Y-58285927D02*
G01*
X114753312Y-58315624D01*
X114917284Y-58383544D01*
X115064854Y-58482147D01*
X115190353Y-58607646D01*
X115288956Y-58755216D01*
X115356876Y-58919188D01*
X115391500Y-59093259D01*
X115391500Y-59270741D01*
X115356876Y-59444812D01*
X115288956Y-59608784D01*
X115190353Y-59756354D01*
X115064854Y-59881853D01*
X114917284Y-59980456D01*
X114753312Y-60048376D01*
X114604012Y-60078073D01*
X114579242Y-60083000D01*
X114401758Y-60083000D01*
X114376988Y-60078073D01*
X114227688Y-60048376D01*
X114063716Y-59980456D01*
X113916146Y-59881853D01*
X113790647Y-59756354D01*
X113692044Y-59608784D01*
X113624124Y-59444812D01*
X113589500Y-59270741D01*
X113589500Y-59093259D01*
X113624124Y-58919188D01*
X113692044Y-58755216D01*
X113790647Y-58607646D01*
X113916146Y-58482147D01*
X114063716Y-58383544D01*
X114227688Y-58315624D01*
X114376988Y-58285927D01*
X114401758Y-58281000D01*
X114579242Y-58281000D01*
X114604012Y-58285927D01*
G37*
G36*
X122224012Y-58285927D02*
G01*
X122373312Y-58315624D01*
X122537284Y-58383544D01*
X122684854Y-58482147D01*
X122810353Y-58607646D01*
X122908956Y-58755216D01*
X122976876Y-58919188D01*
X123011500Y-59093259D01*
X123011500Y-59270741D01*
X122976876Y-59444812D01*
X122908956Y-59608784D01*
X122810353Y-59756354D01*
X122684854Y-59881853D01*
X122537284Y-59980456D01*
X122373312Y-60048376D01*
X122224012Y-60078073D01*
X122199242Y-60083000D01*
X122021758Y-60083000D01*
X121996988Y-60078073D01*
X121847688Y-60048376D01*
X121683716Y-59980456D01*
X121536146Y-59881853D01*
X121410647Y-59756354D01*
X121312044Y-59608784D01*
X121244124Y-59444812D01*
X121209500Y-59270741D01*
X121209500Y-59093259D01*
X121244124Y-58919188D01*
X121312044Y-58755216D01*
X121410647Y-58607646D01*
X121536146Y-58482147D01*
X121683716Y-58383544D01*
X121847688Y-58315624D01*
X121996988Y-58285927D01*
X122021758Y-58281000D01*
X122199242Y-58281000D01*
X122224012Y-58285927D01*
G37*
G36*
X59063512Y-56673927D02*
G01*
X59212812Y-56703624D01*
X59376784Y-56771544D01*
X59524354Y-56870147D01*
X59649853Y-56995646D01*
X59748456Y-57143216D01*
X59816376Y-57307188D01*
X59851000Y-57481259D01*
X59851000Y-57658741D01*
X59816376Y-57832812D01*
X59748456Y-57996784D01*
X59649853Y-58144354D01*
X59524354Y-58269853D01*
X59376784Y-58368456D01*
X59212812Y-58436376D01*
X59063512Y-58466073D01*
X59038742Y-58471000D01*
X58861258Y-58471000D01*
X58836488Y-58466073D01*
X58687188Y-58436376D01*
X58523216Y-58368456D01*
X58375646Y-58269853D01*
X58250147Y-58144354D01*
X58151544Y-57996784D01*
X58083624Y-57832812D01*
X58049000Y-57658741D01*
X58049000Y-57481259D01*
X58083624Y-57307188D01*
X58151544Y-57143216D01*
X58250147Y-56995646D01*
X58375646Y-56870147D01*
X58523216Y-56771544D01*
X58687188Y-56703624D01*
X58836488Y-56673927D01*
X58861258Y-56669000D01*
X59038742Y-56669000D01*
X59063512Y-56673927D01*
G37*
G36*
X61603512Y-56673927D02*
G01*
X61752812Y-56703624D01*
X61916784Y-56771544D01*
X62064354Y-56870147D01*
X62189853Y-56995646D01*
X62288456Y-57143216D01*
X62356376Y-57307188D01*
X62391000Y-57481259D01*
X62391000Y-57658741D01*
X62356376Y-57832812D01*
X62288456Y-57996784D01*
X62189853Y-58144354D01*
X62064354Y-58269853D01*
X61916784Y-58368456D01*
X61752812Y-58436376D01*
X61603512Y-58466073D01*
X61578742Y-58471000D01*
X61401258Y-58471000D01*
X61376488Y-58466073D01*
X61227188Y-58436376D01*
X61063216Y-58368456D01*
X60915646Y-58269853D01*
X60790147Y-58144354D01*
X60691544Y-57996784D01*
X60623624Y-57832812D01*
X60589000Y-57658741D01*
X60589000Y-57481259D01*
X60623624Y-57307188D01*
X60691544Y-57143216D01*
X60790147Y-56995646D01*
X60915646Y-56870147D01*
X61063216Y-56771544D01*
X61227188Y-56703624D01*
X61376488Y-56673927D01*
X61401258Y-56669000D01*
X61578742Y-56669000D01*
X61603512Y-56673927D01*
G37*
G36*
X102243512Y-56673927D02*
G01*
X102392812Y-56703624D01*
X102556784Y-56771544D01*
X102704354Y-56870147D01*
X102829853Y-56995646D01*
X102928456Y-57143216D01*
X102996376Y-57307188D01*
X103031000Y-57481259D01*
X103031000Y-57658741D01*
X102996376Y-57832812D01*
X102928456Y-57996784D01*
X102829853Y-58144354D01*
X102704354Y-58269853D01*
X102556784Y-58368456D01*
X102392812Y-58436376D01*
X102243512Y-58466073D01*
X102218742Y-58471000D01*
X102041258Y-58471000D01*
X102016488Y-58466073D01*
X101867188Y-58436376D01*
X101703216Y-58368456D01*
X101555646Y-58269853D01*
X101430147Y-58144354D01*
X101331544Y-57996784D01*
X101263624Y-57832812D01*
X101229000Y-57658741D01*
X101229000Y-57481259D01*
X101263624Y-57307188D01*
X101331544Y-57143216D01*
X101430147Y-56995646D01*
X101555646Y-56870147D01*
X101703216Y-56771544D01*
X101867188Y-56703624D01*
X102016488Y-56673927D01*
X102041258Y-56669000D01*
X102218742Y-56669000D01*
X102243512Y-56673927D01*
G37*
G36*
X99703512Y-56673927D02*
G01*
X99852812Y-56703624D01*
X100016784Y-56771544D01*
X100164354Y-56870147D01*
X100289853Y-56995646D01*
X100388456Y-57143216D01*
X100456376Y-57307188D01*
X100491000Y-57481259D01*
X100491000Y-57658741D01*
X100456376Y-57832812D01*
X100388456Y-57996784D01*
X100289853Y-58144354D01*
X100164354Y-58269853D01*
X100016784Y-58368456D01*
X99852812Y-58436376D01*
X99703512Y-58466073D01*
X99678742Y-58471000D01*
X99501258Y-58471000D01*
X99476488Y-58466073D01*
X99327188Y-58436376D01*
X99163216Y-58368456D01*
X99015646Y-58269853D01*
X98890147Y-58144354D01*
X98791544Y-57996784D01*
X98723624Y-57832812D01*
X98689000Y-57658741D01*
X98689000Y-57481259D01*
X98723624Y-57307188D01*
X98791544Y-57143216D01*
X98890147Y-56995646D01*
X99015646Y-56870147D01*
X99163216Y-56771544D01*
X99327188Y-56703624D01*
X99476488Y-56673927D01*
X99501258Y-56669000D01*
X99678742Y-56669000D01*
X99703512Y-56673927D01*
G37*
G36*
X97163512Y-56673927D02*
G01*
X97312812Y-56703624D01*
X97476784Y-56771544D01*
X97624354Y-56870147D01*
X97749853Y-56995646D01*
X97848456Y-57143216D01*
X97916376Y-57307188D01*
X97951000Y-57481259D01*
X97951000Y-57658741D01*
X97916376Y-57832812D01*
X97848456Y-57996784D01*
X97749853Y-58144354D01*
X97624354Y-58269853D01*
X97476784Y-58368456D01*
X97312812Y-58436376D01*
X97163512Y-58466073D01*
X97138742Y-58471000D01*
X96961258Y-58471000D01*
X96936488Y-58466073D01*
X96787188Y-58436376D01*
X96623216Y-58368456D01*
X96475646Y-58269853D01*
X96350147Y-58144354D01*
X96251544Y-57996784D01*
X96183624Y-57832812D01*
X96149000Y-57658741D01*
X96149000Y-57481259D01*
X96183624Y-57307188D01*
X96251544Y-57143216D01*
X96350147Y-56995646D01*
X96475646Y-56870147D01*
X96623216Y-56771544D01*
X96787188Y-56703624D01*
X96936488Y-56673927D01*
X96961258Y-56669000D01*
X97138742Y-56669000D01*
X97163512Y-56673927D01*
G37*
G36*
X94623512Y-56673927D02*
G01*
X94772812Y-56703624D01*
X94936784Y-56771544D01*
X95084354Y-56870147D01*
X95209853Y-56995646D01*
X95308456Y-57143216D01*
X95376376Y-57307188D01*
X95411000Y-57481259D01*
X95411000Y-57658741D01*
X95376376Y-57832812D01*
X95308456Y-57996784D01*
X95209853Y-58144354D01*
X95084354Y-58269853D01*
X94936784Y-58368456D01*
X94772812Y-58436376D01*
X94623512Y-58466073D01*
X94598742Y-58471000D01*
X94421258Y-58471000D01*
X94396488Y-58466073D01*
X94247188Y-58436376D01*
X94083216Y-58368456D01*
X93935646Y-58269853D01*
X93810147Y-58144354D01*
X93711544Y-57996784D01*
X93643624Y-57832812D01*
X93609000Y-57658741D01*
X93609000Y-57481259D01*
X93643624Y-57307188D01*
X93711544Y-57143216D01*
X93810147Y-56995646D01*
X93935646Y-56870147D01*
X94083216Y-56771544D01*
X94247188Y-56703624D01*
X94396488Y-56673927D01*
X94421258Y-56669000D01*
X94598742Y-56669000D01*
X94623512Y-56673927D01*
G37*
G36*
X92083512Y-56673927D02*
G01*
X92232812Y-56703624D01*
X92396784Y-56771544D01*
X92544354Y-56870147D01*
X92669853Y-56995646D01*
X92768456Y-57143216D01*
X92836376Y-57307188D01*
X92871000Y-57481259D01*
X92871000Y-57658741D01*
X92836376Y-57832812D01*
X92768456Y-57996784D01*
X92669853Y-58144354D01*
X92544354Y-58269853D01*
X92396784Y-58368456D01*
X92232812Y-58436376D01*
X92083512Y-58466073D01*
X92058742Y-58471000D01*
X91881258Y-58471000D01*
X91856488Y-58466073D01*
X91707188Y-58436376D01*
X91543216Y-58368456D01*
X91395646Y-58269853D01*
X91270147Y-58144354D01*
X91171544Y-57996784D01*
X91103624Y-57832812D01*
X91069000Y-57658741D01*
X91069000Y-57481259D01*
X91103624Y-57307188D01*
X91171544Y-57143216D01*
X91270147Y-56995646D01*
X91395646Y-56870147D01*
X91543216Y-56771544D01*
X91707188Y-56703624D01*
X91856488Y-56673927D01*
X91881258Y-56669000D01*
X92058742Y-56669000D01*
X92083512Y-56673927D01*
G37*
G36*
X89543512Y-56673927D02*
G01*
X89692812Y-56703624D01*
X89856784Y-56771544D01*
X90004354Y-56870147D01*
X90129853Y-56995646D01*
X90228456Y-57143216D01*
X90296376Y-57307188D01*
X90331000Y-57481259D01*
X90331000Y-57658741D01*
X90296376Y-57832812D01*
X90228456Y-57996784D01*
X90129853Y-58144354D01*
X90004354Y-58269853D01*
X89856784Y-58368456D01*
X89692812Y-58436376D01*
X89543512Y-58466073D01*
X89518742Y-58471000D01*
X89341258Y-58471000D01*
X89316488Y-58466073D01*
X89167188Y-58436376D01*
X89003216Y-58368456D01*
X88855646Y-58269853D01*
X88730147Y-58144354D01*
X88631544Y-57996784D01*
X88563624Y-57832812D01*
X88529000Y-57658741D01*
X88529000Y-57481259D01*
X88563624Y-57307188D01*
X88631544Y-57143216D01*
X88730147Y-56995646D01*
X88855646Y-56870147D01*
X89003216Y-56771544D01*
X89167188Y-56703624D01*
X89316488Y-56673927D01*
X89341258Y-56669000D01*
X89518742Y-56669000D01*
X89543512Y-56673927D01*
G37*
G36*
X84463512Y-56673927D02*
G01*
X84612812Y-56703624D01*
X84776784Y-56771544D01*
X84924354Y-56870147D01*
X85049853Y-56995646D01*
X85148456Y-57143216D01*
X85216376Y-57307188D01*
X85251000Y-57481259D01*
X85251000Y-57658741D01*
X85216376Y-57832812D01*
X85148456Y-57996784D01*
X85049853Y-58144354D01*
X84924354Y-58269853D01*
X84776784Y-58368456D01*
X84612812Y-58436376D01*
X84463512Y-58466073D01*
X84438742Y-58471000D01*
X84261258Y-58471000D01*
X84236488Y-58466073D01*
X84087188Y-58436376D01*
X83923216Y-58368456D01*
X83775646Y-58269853D01*
X83650147Y-58144354D01*
X83551544Y-57996784D01*
X83483624Y-57832812D01*
X83449000Y-57658741D01*
X83449000Y-57481259D01*
X83483624Y-57307188D01*
X83551544Y-57143216D01*
X83650147Y-56995646D01*
X83775646Y-56870147D01*
X83923216Y-56771544D01*
X84087188Y-56703624D01*
X84236488Y-56673927D01*
X84261258Y-56669000D01*
X84438742Y-56669000D01*
X84463512Y-56673927D01*
G37*
G36*
X81923512Y-56673927D02*
G01*
X82072812Y-56703624D01*
X82236784Y-56771544D01*
X82384354Y-56870147D01*
X82509853Y-56995646D01*
X82608456Y-57143216D01*
X82676376Y-57307188D01*
X82711000Y-57481259D01*
X82711000Y-57658741D01*
X82676376Y-57832812D01*
X82608456Y-57996784D01*
X82509853Y-58144354D01*
X82384354Y-58269853D01*
X82236784Y-58368456D01*
X82072812Y-58436376D01*
X81923512Y-58466073D01*
X81898742Y-58471000D01*
X81721258Y-58471000D01*
X81696488Y-58466073D01*
X81547188Y-58436376D01*
X81383216Y-58368456D01*
X81235646Y-58269853D01*
X81110147Y-58144354D01*
X81011544Y-57996784D01*
X80943624Y-57832812D01*
X80909000Y-57658741D01*
X80909000Y-57481259D01*
X80943624Y-57307188D01*
X81011544Y-57143216D01*
X81110147Y-56995646D01*
X81235646Y-56870147D01*
X81383216Y-56771544D01*
X81547188Y-56703624D01*
X81696488Y-56673927D01*
X81721258Y-56669000D01*
X81898742Y-56669000D01*
X81923512Y-56673927D01*
G37*
G36*
X56523512Y-56673927D02*
G01*
X56672812Y-56703624D01*
X56836784Y-56771544D01*
X56984354Y-56870147D01*
X57109853Y-56995646D01*
X57208456Y-57143216D01*
X57276376Y-57307188D01*
X57311000Y-57481259D01*
X57311000Y-57658741D01*
X57276376Y-57832812D01*
X57208456Y-57996784D01*
X57109853Y-58144354D01*
X56984354Y-58269853D01*
X56836784Y-58368456D01*
X56672812Y-58436376D01*
X56523512Y-58466073D01*
X56498742Y-58471000D01*
X56321258Y-58471000D01*
X56296488Y-58466073D01*
X56147188Y-58436376D01*
X55983216Y-58368456D01*
X55835646Y-58269853D01*
X55710147Y-58144354D01*
X55611544Y-57996784D01*
X55543624Y-57832812D01*
X55509000Y-57658741D01*
X55509000Y-57481259D01*
X55543624Y-57307188D01*
X55611544Y-57143216D01*
X55710147Y-56995646D01*
X55835646Y-56870147D01*
X55983216Y-56771544D01*
X56147188Y-56703624D01*
X56296488Y-56673927D01*
X56321258Y-56669000D01*
X56498742Y-56669000D01*
X56523512Y-56673927D01*
G37*
G36*
X87003512Y-56673927D02*
G01*
X87152812Y-56703624D01*
X87316784Y-56771544D01*
X87464354Y-56870147D01*
X87589853Y-56995646D01*
X87688456Y-57143216D01*
X87756376Y-57307188D01*
X87791000Y-57481259D01*
X87791000Y-57658741D01*
X87756376Y-57832812D01*
X87688456Y-57996784D01*
X87589853Y-58144354D01*
X87464354Y-58269853D01*
X87316784Y-58368456D01*
X87152812Y-58436376D01*
X87003512Y-58466073D01*
X86978742Y-58471000D01*
X86801258Y-58471000D01*
X86776488Y-58466073D01*
X86627188Y-58436376D01*
X86463216Y-58368456D01*
X86315646Y-58269853D01*
X86190147Y-58144354D01*
X86091544Y-57996784D01*
X86023624Y-57832812D01*
X85989000Y-57658741D01*
X85989000Y-57481259D01*
X86023624Y-57307188D01*
X86091544Y-57143216D01*
X86190147Y-56995646D01*
X86315646Y-56870147D01*
X86463216Y-56771544D01*
X86627188Y-56703624D01*
X86776488Y-56673927D01*
X86801258Y-56669000D01*
X86978742Y-56669000D01*
X87003512Y-56673927D01*
G37*
G36*
X53983512Y-56673927D02*
G01*
X54132812Y-56703624D01*
X54296784Y-56771544D01*
X54444354Y-56870147D01*
X54569853Y-56995646D01*
X54668456Y-57143216D01*
X54736376Y-57307188D01*
X54771000Y-57481259D01*
X54771000Y-57658741D01*
X54736376Y-57832812D01*
X54668456Y-57996784D01*
X54569853Y-58144354D01*
X54444354Y-58269853D01*
X54296784Y-58368456D01*
X54132812Y-58436376D01*
X53983512Y-58466073D01*
X53958742Y-58471000D01*
X53781258Y-58471000D01*
X53756488Y-58466073D01*
X53607188Y-58436376D01*
X53443216Y-58368456D01*
X53295646Y-58269853D01*
X53170147Y-58144354D01*
X53071544Y-57996784D01*
X53003624Y-57832812D01*
X52969000Y-57658741D01*
X52969000Y-57481259D01*
X53003624Y-57307188D01*
X53071544Y-57143216D01*
X53170147Y-56995646D01*
X53295646Y-56870147D01*
X53443216Y-56771544D01*
X53607188Y-56703624D01*
X53756488Y-56673927D01*
X53781258Y-56669000D01*
X53958742Y-56669000D01*
X53983512Y-56673927D01*
G37*
G36*
X64143512Y-56673927D02*
G01*
X64292812Y-56703624D01*
X64456784Y-56771544D01*
X64604354Y-56870147D01*
X64729853Y-56995646D01*
X64828456Y-57143216D01*
X64896376Y-57307188D01*
X64931000Y-57481259D01*
X64931000Y-57658741D01*
X64896376Y-57832812D01*
X64828456Y-57996784D01*
X64729853Y-58144354D01*
X64604354Y-58269853D01*
X64456784Y-58368456D01*
X64292812Y-58436376D01*
X64143512Y-58466073D01*
X64118742Y-58471000D01*
X63941258Y-58471000D01*
X63916488Y-58466073D01*
X63767188Y-58436376D01*
X63603216Y-58368456D01*
X63455646Y-58269853D01*
X63330147Y-58144354D01*
X63231544Y-57996784D01*
X63163624Y-57832812D01*
X63129000Y-57658741D01*
X63129000Y-57481259D01*
X63163624Y-57307188D01*
X63231544Y-57143216D01*
X63330147Y-56995646D01*
X63455646Y-56870147D01*
X63603216Y-56771544D01*
X63767188Y-56703624D01*
X63916488Y-56673927D01*
X63941258Y-56669000D01*
X64118742Y-56669000D01*
X64143512Y-56673927D01*
G37*
G36*
X66683512Y-56673927D02*
G01*
X66832812Y-56703624D01*
X66996784Y-56771544D01*
X67144354Y-56870147D01*
X67269853Y-56995646D01*
X67368456Y-57143216D01*
X67436376Y-57307188D01*
X67471000Y-57481259D01*
X67471000Y-57658741D01*
X67436376Y-57832812D01*
X67368456Y-57996784D01*
X67269853Y-58144354D01*
X67144354Y-58269853D01*
X66996784Y-58368456D01*
X66832812Y-58436376D01*
X66683512Y-58466073D01*
X66658742Y-58471000D01*
X66481258Y-58471000D01*
X66456488Y-58466073D01*
X66307188Y-58436376D01*
X66143216Y-58368456D01*
X65995646Y-58269853D01*
X65870147Y-58144354D01*
X65771544Y-57996784D01*
X65703624Y-57832812D01*
X65669000Y-57658741D01*
X65669000Y-57481259D01*
X65703624Y-57307188D01*
X65771544Y-57143216D01*
X65870147Y-56995646D01*
X65995646Y-56870147D01*
X66143216Y-56771544D01*
X66307188Y-56703624D01*
X66456488Y-56673927D01*
X66481258Y-56669000D01*
X66658742Y-56669000D01*
X66683512Y-56673927D01*
G37*
G36*
X69223512Y-56673927D02*
G01*
X69372812Y-56703624D01*
X69536784Y-56771544D01*
X69684354Y-56870147D01*
X69809853Y-56995646D01*
X69908456Y-57143216D01*
X69976376Y-57307188D01*
X70011000Y-57481259D01*
X70011000Y-57658741D01*
X69976376Y-57832812D01*
X69908456Y-57996784D01*
X69809853Y-58144354D01*
X69684354Y-58269853D01*
X69536784Y-58368456D01*
X69372812Y-58436376D01*
X69223512Y-58466073D01*
X69198742Y-58471000D01*
X69021258Y-58471000D01*
X68996488Y-58466073D01*
X68847188Y-58436376D01*
X68683216Y-58368456D01*
X68535646Y-58269853D01*
X68410147Y-58144354D01*
X68311544Y-57996784D01*
X68243624Y-57832812D01*
X68209000Y-57658741D01*
X68209000Y-57481259D01*
X68243624Y-57307188D01*
X68311544Y-57143216D01*
X68410147Y-56995646D01*
X68535646Y-56870147D01*
X68683216Y-56771544D01*
X68847188Y-56703624D01*
X68996488Y-56673927D01*
X69021258Y-56669000D01*
X69198742Y-56669000D01*
X69223512Y-56673927D01*
G37*
G36*
X71763512Y-56673927D02*
G01*
X71912812Y-56703624D01*
X72076784Y-56771544D01*
X72224354Y-56870147D01*
X72349853Y-56995646D01*
X72448456Y-57143216D01*
X72516376Y-57307188D01*
X72551000Y-57481259D01*
X72551000Y-57658741D01*
X72516376Y-57832812D01*
X72448456Y-57996784D01*
X72349853Y-58144354D01*
X72224354Y-58269853D01*
X72076784Y-58368456D01*
X71912812Y-58436376D01*
X71763512Y-58466073D01*
X71738742Y-58471000D01*
X71561258Y-58471000D01*
X71536488Y-58466073D01*
X71387188Y-58436376D01*
X71223216Y-58368456D01*
X71075646Y-58269853D01*
X70950147Y-58144354D01*
X70851544Y-57996784D01*
X70783624Y-57832812D01*
X70749000Y-57658741D01*
X70749000Y-57481259D01*
X70783624Y-57307188D01*
X70851544Y-57143216D01*
X70950147Y-56995646D01*
X71075646Y-56870147D01*
X71223216Y-56771544D01*
X71387188Y-56703624D01*
X71536488Y-56673927D01*
X71561258Y-56669000D01*
X71738742Y-56669000D01*
X71763512Y-56673927D01*
G37*
G36*
X74303512Y-56673927D02*
G01*
X74452812Y-56703624D01*
X74616784Y-56771544D01*
X74764354Y-56870147D01*
X74889853Y-56995646D01*
X74988456Y-57143216D01*
X75056376Y-57307188D01*
X75091000Y-57481259D01*
X75091000Y-57658741D01*
X75056376Y-57832812D01*
X74988456Y-57996784D01*
X74889853Y-58144354D01*
X74764354Y-58269853D01*
X74616784Y-58368456D01*
X74452812Y-58436376D01*
X74303512Y-58466073D01*
X74278742Y-58471000D01*
X74101258Y-58471000D01*
X74076488Y-58466073D01*
X73927188Y-58436376D01*
X73763216Y-58368456D01*
X73615646Y-58269853D01*
X73490147Y-58144354D01*
X73391544Y-57996784D01*
X73323624Y-57832812D01*
X73289000Y-57658741D01*
X73289000Y-57481259D01*
X73323624Y-57307188D01*
X73391544Y-57143216D01*
X73490147Y-56995646D01*
X73615646Y-56870147D01*
X73763216Y-56771544D01*
X73927188Y-56703624D01*
X74076488Y-56673927D01*
X74101258Y-56669000D01*
X74278742Y-56669000D01*
X74303512Y-56673927D01*
G37*
G36*
X76843512Y-56673927D02*
G01*
X76992812Y-56703624D01*
X77156784Y-56771544D01*
X77304354Y-56870147D01*
X77429853Y-56995646D01*
X77528456Y-57143216D01*
X77596376Y-57307188D01*
X77631000Y-57481259D01*
X77631000Y-57658741D01*
X77596376Y-57832812D01*
X77528456Y-57996784D01*
X77429853Y-58144354D01*
X77304354Y-58269853D01*
X77156784Y-58368456D01*
X76992812Y-58436376D01*
X76843512Y-58466073D01*
X76818742Y-58471000D01*
X76641258Y-58471000D01*
X76616488Y-58466073D01*
X76467188Y-58436376D01*
X76303216Y-58368456D01*
X76155646Y-58269853D01*
X76030147Y-58144354D01*
X75931544Y-57996784D01*
X75863624Y-57832812D01*
X75829000Y-57658741D01*
X75829000Y-57481259D01*
X75863624Y-57307188D01*
X75931544Y-57143216D01*
X76030147Y-56995646D01*
X76155646Y-56870147D01*
X76303216Y-56771544D01*
X76467188Y-56703624D01*
X76616488Y-56673927D01*
X76641258Y-56669000D01*
X76818742Y-56669000D01*
X76843512Y-56673927D01*
G37*
G36*
X79383512Y-56673927D02*
G01*
X79532812Y-56703624D01*
X79696784Y-56771544D01*
X79844354Y-56870147D01*
X79969853Y-56995646D01*
X80068456Y-57143216D01*
X80136376Y-57307188D01*
X80171000Y-57481259D01*
X80171000Y-57658741D01*
X80136376Y-57832812D01*
X80068456Y-57996784D01*
X79969853Y-58144354D01*
X79844354Y-58269853D01*
X79696784Y-58368456D01*
X79532812Y-58436376D01*
X79383512Y-58466073D01*
X79358742Y-58471000D01*
X79181258Y-58471000D01*
X79156488Y-58466073D01*
X79007188Y-58436376D01*
X78843216Y-58368456D01*
X78695646Y-58269853D01*
X78570147Y-58144354D01*
X78471544Y-57996784D01*
X78403624Y-57832812D01*
X78369000Y-57658741D01*
X78369000Y-57481259D01*
X78403624Y-57307188D01*
X78471544Y-57143216D01*
X78570147Y-56995646D01*
X78695646Y-56870147D01*
X78843216Y-56771544D01*
X79007188Y-56703624D01*
X79156488Y-56673927D01*
X79181258Y-56669000D01*
X79358742Y-56669000D01*
X79383512Y-56673927D01*
G37*
G36*
X106646000Y-57866000D02*
G01*
X105444000Y-57866000D01*
X105444000Y-55964000D01*
X106646000Y-55964000D01*
X106646000Y-57866000D01*
G37*
G36*
X108994315Y-55969166D02*
G01*
X109038843Y-55982674D01*
X109079892Y-56004615D01*
X109115864Y-56034136D01*
X109145385Y-56070108D01*
X109167326Y-56111157D01*
X109180834Y-56155685D01*
X109186000Y-56208140D01*
X109186000Y-57621860D01*
X109180834Y-57674315D01*
X109167326Y-57718843D01*
X109145385Y-57759892D01*
X109115864Y-57795864D01*
X109079892Y-57825385D01*
X109038843Y-57847326D01*
X108994315Y-57860834D01*
X108941860Y-57866000D01*
X108228140Y-57866000D01*
X108175685Y-57860834D01*
X108131157Y-57847326D01*
X108090108Y-57825385D01*
X108054136Y-57795864D01*
X108024615Y-57759892D01*
X108002674Y-57718843D01*
X107989166Y-57674315D01*
X107984000Y-57621860D01*
X107984000Y-56208140D01*
X107989166Y-56155685D01*
X108002674Y-56111157D01*
X108024615Y-56070108D01*
X108054136Y-56034136D01*
X108090108Y-56004615D01*
X108131157Y-55982674D01*
X108175685Y-55969166D01*
X108228140Y-55964000D01*
X108941860Y-55964000D01*
X108994315Y-55969166D01*
G37*
G36*
X117141146Y-55745357D02*
G01*
X117293312Y-55775624D01*
X117457284Y-55843544D01*
X117604854Y-55942147D01*
X117730353Y-56067646D01*
X117828956Y-56215216D01*
X117896876Y-56379188D01*
X117931500Y-56553259D01*
X117931500Y-56730741D01*
X117896876Y-56904812D01*
X117828956Y-57068784D01*
X117730353Y-57216354D01*
X117604854Y-57341853D01*
X117457284Y-57440456D01*
X117293312Y-57508376D01*
X117144012Y-57538073D01*
X117119242Y-57543000D01*
X116941758Y-57543000D01*
X116916988Y-57538073D01*
X116767688Y-57508376D01*
X116603716Y-57440456D01*
X116456146Y-57341853D01*
X116330647Y-57216354D01*
X116232044Y-57068784D01*
X116164124Y-56904812D01*
X116129500Y-56730741D01*
X116129500Y-56553259D01*
X116164124Y-56379188D01*
X116232044Y-56215216D01*
X116330647Y-56067646D01*
X116456146Y-55942147D01*
X116603716Y-55843544D01*
X116767688Y-55775624D01*
X116919854Y-55745357D01*
X116941758Y-55741000D01*
X117119242Y-55741000D01*
X117141146Y-55745357D01*
G37*
G36*
X119681146Y-55745357D02*
G01*
X119833312Y-55775624D01*
X119997284Y-55843544D01*
X120144854Y-55942147D01*
X120270353Y-56067646D01*
X120368956Y-56215216D01*
X120436876Y-56379188D01*
X120471500Y-56553259D01*
X120471500Y-56730741D01*
X120436876Y-56904812D01*
X120368956Y-57068784D01*
X120270353Y-57216354D01*
X120144854Y-57341853D01*
X119997284Y-57440456D01*
X119833312Y-57508376D01*
X119684012Y-57538073D01*
X119659242Y-57543000D01*
X119481758Y-57543000D01*
X119456988Y-57538073D01*
X119307688Y-57508376D01*
X119143716Y-57440456D01*
X118996146Y-57341853D01*
X118870647Y-57216354D01*
X118772044Y-57068784D01*
X118704124Y-56904812D01*
X118669500Y-56730741D01*
X118669500Y-56553259D01*
X118704124Y-56379188D01*
X118772044Y-56215216D01*
X118870647Y-56067646D01*
X118996146Y-55942147D01*
X119143716Y-55843544D01*
X119307688Y-55775624D01*
X119459854Y-55745357D01*
X119481758Y-55741000D01*
X119659242Y-55741000D01*
X119681146Y-55745357D01*
G37*
G36*
X122221146Y-55745357D02*
G01*
X122373312Y-55775624D01*
X122537284Y-55843544D01*
X122684854Y-55942147D01*
X122810353Y-56067646D01*
X122908956Y-56215216D01*
X122976876Y-56379188D01*
X123011500Y-56553259D01*
X123011500Y-56730741D01*
X122976876Y-56904812D01*
X122908956Y-57068784D01*
X122810353Y-57216354D01*
X122684854Y-57341853D01*
X122537284Y-57440456D01*
X122373312Y-57508376D01*
X122224012Y-57538073D01*
X122199242Y-57543000D01*
X122021758Y-57543000D01*
X121996988Y-57538073D01*
X121847688Y-57508376D01*
X121683716Y-57440456D01*
X121536146Y-57341853D01*
X121410647Y-57216354D01*
X121312044Y-57068784D01*
X121244124Y-56904812D01*
X121209500Y-56730741D01*
X121209500Y-56553259D01*
X121244124Y-56379188D01*
X121312044Y-56215216D01*
X121410647Y-56067646D01*
X121536146Y-55942147D01*
X121683716Y-55843544D01*
X121847688Y-55775624D01*
X121999854Y-55745357D01*
X122021758Y-55741000D01*
X122199242Y-55741000D01*
X122221146Y-55745357D01*
G37*
G36*
X124761146Y-55745357D02*
G01*
X124913312Y-55775624D01*
X125077284Y-55843544D01*
X125224854Y-55942147D01*
X125350353Y-56067646D01*
X125448956Y-56215216D01*
X125516876Y-56379188D01*
X125551500Y-56553259D01*
X125551500Y-56730741D01*
X125516876Y-56904812D01*
X125448956Y-57068784D01*
X125350353Y-57216354D01*
X125224854Y-57341853D01*
X125077284Y-57440456D01*
X124913312Y-57508376D01*
X124764012Y-57538073D01*
X124739242Y-57543000D01*
X124561758Y-57543000D01*
X124536988Y-57538073D01*
X124387688Y-57508376D01*
X124223716Y-57440456D01*
X124076146Y-57341853D01*
X123950647Y-57216354D01*
X123852044Y-57068784D01*
X123784124Y-56904812D01*
X123749500Y-56730741D01*
X123749500Y-56553259D01*
X123784124Y-56379188D01*
X123852044Y-56215216D01*
X123950647Y-56067646D01*
X124076146Y-55942147D01*
X124223716Y-55843544D01*
X124387688Y-55775624D01*
X124539854Y-55745357D01*
X124561758Y-55741000D01*
X124739242Y-55741000D01*
X124761146Y-55745357D01*
G37*
G36*
X127301146Y-55745357D02*
G01*
X127453312Y-55775624D01*
X127617284Y-55843544D01*
X127764854Y-55942147D01*
X127890353Y-56067646D01*
X127988956Y-56215216D01*
X128056876Y-56379188D01*
X128091500Y-56553259D01*
X128091500Y-56730741D01*
X128056876Y-56904812D01*
X127988956Y-57068784D01*
X127890353Y-57216354D01*
X127764854Y-57341853D01*
X127617284Y-57440456D01*
X127453312Y-57508376D01*
X127304012Y-57538073D01*
X127279242Y-57543000D01*
X127101758Y-57543000D01*
X127076988Y-57538073D01*
X126927688Y-57508376D01*
X126763716Y-57440456D01*
X126616146Y-57341853D01*
X126490647Y-57216354D01*
X126392044Y-57068784D01*
X126324124Y-56904812D01*
X126289500Y-56730741D01*
X126289500Y-56553259D01*
X126324124Y-56379188D01*
X126392044Y-56215216D01*
X126490647Y-56067646D01*
X126616146Y-55942147D01*
X126763716Y-55843544D01*
X126927688Y-55775624D01*
X127079854Y-55745357D01*
X127101758Y-55741000D01*
X127279242Y-55741000D01*
X127301146Y-55745357D01*
G37*
G36*
X114601146Y-55745357D02*
G01*
X114753312Y-55775624D01*
X114917284Y-55843544D01*
X115064854Y-55942147D01*
X115190353Y-56067646D01*
X115288956Y-56215216D01*
X115356876Y-56379188D01*
X115391500Y-56553259D01*
X115391500Y-56730741D01*
X115356876Y-56904812D01*
X115288956Y-57068784D01*
X115190353Y-57216354D01*
X115064854Y-57341853D01*
X114917284Y-57440456D01*
X114753312Y-57508376D01*
X114604012Y-57538073D01*
X114579242Y-57543000D01*
X114401758Y-57543000D01*
X114376988Y-57538073D01*
X114227688Y-57508376D01*
X114063716Y-57440456D01*
X113916146Y-57341853D01*
X113790647Y-57216354D01*
X113692044Y-57068784D01*
X113624124Y-56904812D01*
X113589500Y-56730741D01*
X113589500Y-56553259D01*
X113624124Y-56379188D01*
X113692044Y-56215216D01*
X113790647Y-56067646D01*
X113916146Y-55942147D01*
X114063716Y-55843544D01*
X114227688Y-55775624D01*
X114379854Y-55745357D01*
X114401758Y-55741000D01*
X114579242Y-55741000D01*
X114601146Y-55745357D01*
G37*
G36*
X107724315Y-53899166D02*
G01*
X107768843Y-53912674D01*
X107809892Y-53934615D01*
X107845864Y-53964136D01*
X107875385Y-54000108D01*
X107897326Y-54041157D01*
X107910834Y-54085685D01*
X107916000Y-54138140D01*
X107916000Y-55551860D01*
X107910834Y-55604315D01*
X107897326Y-55648843D01*
X107875385Y-55689892D01*
X107845864Y-55725864D01*
X107809892Y-55755385D01*
X107768843Y-55777326D01*
X107724315Y-55790834D01*
X107671860Y-55796000D01*
X106958140Y-55796000D01*
X106905685Y-55790834D01*
X106861153Y-55777325D01*
X106829923Y-55760632D01*
X106815320Y-55754583D01*
X106804256Y-55742376D01*
X106784136Y-55725864D01*
X106754615Y-55689892D01*
X106732674Y-55648843D01*
X106719166Y-55604315D01*
X106714000Y-55551860D01*
X106714000Y-54138140D01*
X106719166Y-54085685D01*
X106732674Y-54041157D01*
X106754615Y-54000108D01*
X106784136Y-53964136D01*
X106820108Y-53934615D01*
X106861157Y-53912674D01*
X106905685Y-53899166D01*
X106958140Y-53894000D01*
X107671860Y-53894000D01*
X107724315Y-53899166D01*
G37*
G36*
X136375256Y-52391298D02*
G01*
X136481579Y-52412447D01*
X136782042Y-52536903D01*
X137052451Y-52717585D01*
X137282415Y-52947549D01*
X137463097Y-53217958D01*
X137587553Y-53518421D01*
X137608702Y-53624744D01*
X137651000Y-53837389D01*
X137651000Y-54162611D01*
X137614094Y-54348147D01*
X137587553Y-54481579D01*
X137463097Y-54782042D01*
X137282415Y-55052451D01*
X137052451Y-55282415D01*
X136782042Y-55463097D01*
X136481579Y-55587553D01*
X136375256Y-55608702D01*
X136162611Y-55651000D01*
X135837389Y-55651000D01*
X135624744Y-55608702D01*
X135518421Y-55587553D01*
X135217958Y-55463097D01*
X134947549Y-55282415D01*
X134717585Y-55052451D01*
X134536903Y-54782042D01*
X134412447Y-54481579D01*
X134385906Y-54348147D01*
X134349000Y-54162611D01*
X134349000Y-53837389D01*
X134391298Y-53624744D01*
X134412447Y-53518421D01*
X134536903Y-53217958D01*
X134717585Y-52947549D01*
X134947549Y-52717585D01*
X135217958Y-52536903D01*
X135518421Y-52412447D01*
X135624744Y-52391298D01*
X135837389Y-52349000D01*
X136162611Y-52349000D01*
X136375256Y-52391298D01*
G37*
G36*
X54375256Y-52391298D02*
G01*
X54481579Y-52412447D01*
X54782042Y-52536903D01*
X55052451Y-52717585D01*
X55282415Y-52947549D01*
X55463097Y-53217958D01*
X55587553Y-53518421D01*
X55608702Y-53624744D01*
X55651000Y-53837389D01*
X55651000Y-54162611D01*
X55614094Y-54348147D01*
X55587553Y-54481579D01*
X55463097Y-54782042D01*
X55282415Y-55052451D01*
X55052451Y-55282415D01*
X54782042Y-55463097D01*
X54481579Y-55587553D01*
X54375256Y-55608702D01*
X54162611Y-55651000D01*
X53837389Y-55651000D01*
X53624744Y-55608702D01*
X53518421Y-55587553D01*
X53217958Y-55463097D01*
X52947549Y-55282415D01*
X52717585Y-55052451D01*
X52536903Y-54782042D01*
X52412447Y-54481579D01*
X52385906Y-54348147D01*
X52349000Y-54162611D01*
X52349000Y-53837389D01*
X52391298Y-53624744D01*
X52412447Y-53518421D01*
X52536903Y-53217958D01*
X52717585Y-52947549D01*
X52947549Y-52717585D01*
X53217958Y-52536903D01*
X53518421Y-52412447D01*
X53624744Y-52391298D01*
X53837389Y-52349000D01*
X54162611Y-52349000D01*
X54375256Y-52391298D01*
G37*
G36*
X102062228Y-52775703D02*
G01*
X102217100Y-52839853D01*
X102356481Y-52932985D01*
X102475015Y-53051519D01*
X102568147Y-53190900D01*
X102632297Y-53345772D01*
X102665000Y-53510184D01*
X102665000Y-53677816D01*
X102632297Y-53842228D01*
X102568147Y-53997100D01*
X102475015Y-54136481D01*
X102356481Y-54255015D01*
X102217100Y-54348147D01*
X102062228Y-54412297D01*
X101897816Y-54445000D01*
X101730184Y-54445000D01*
X101565772Y-54412297D01*
X101410900Y-54348147D01*
X101271519Y-54255015D01*
X101152985Y-54136481D01*
X101059853Y-53997100D01*
X100995703Y-53842228D01*
X100963000Y-53677816D01*
X100963000Y-53510184D01*
X100995703Y-53345772D01*
X101059853Y-53190900D01*
X101152985Y-53051519D01*
X101271519Y-52932985D01*
X101410900Y-52839853D01*
X101565772Y-52775703D01*
X101730184Y-52743000D01*
X101897816Y-52743000D01*
X102062228Y-52775703D01*
G37*
G36*
X100165000Y-54445000D02*
G01*
X98463000Y-54445000D01*
X98463000Y-52743000D01*
X100165000Y-52743000D01*
X100165000Y-54445000D01*
G37*
G36*
X114901000Y-53606000D02*
G01*
X113099000Y-53606000D01*
X113099000Y-51804000D01*
X114901000Y-51804000D01*
X114901000Y-53606000D01*
G37*
G36*
X111573512Y-51808927D02*
G01*
X111722812Y-51838624D01*
X111886784Y-51906544D01*
X112034354Y-52005147D01*
X112159853Y-52130646D01*
X112258456Y-52278216D01*
X112326376Y-52442188D01*
X112361000Y-52616259D01*
X112361000Y-52793741D01*
X112326376Y-52967812D01*
X112258456Y-53131784D01*
X112159853Y-53279354D01*
X112034354Y-53404853D01*
X111886784Y-53503456D01*
X111722812Y-53571376D01*
X111573512Y-53601073D01*
X111548742Y-53606000D01*
X111371258Y-53606000D01*
X111346488Y-53601073D01*
X111197188Y-53571376D01*
X111033216Y-53503456D01*
X110885646Y-53404853D01*
X110760147Y-53279354D01*
X110661544Y-53131784D01*
X110593624Y-52967812D01*
X110559000Y-52793741D01*
X110559000Y-52616259D01*
X110593624Y-52442188D01*
X110661544Y-52278216D01*
X110760147Y-52130646D01*
X110885646Y-52005147D01*
X111033216Y-51906544D01*
X111197188Y-51838624D01*
X111346488Y-51808927D01*
X111371258Y-51804000D01*
X111548742Y-51804000D01*
X111573512Y-51808927D01*
G37*
G36*
X76368228Y-51881703D02*
G01*
X76523100Y-51945853D01*
X76662481Y-52038985D01*
X76781015Y-52157519D01*
X76874147Y-52296900D01*
X76938297Y-52451772D01*
X76971000Y-52616184D01*
X76971000Y-52783816D01*
X76938297Y-52948228D01*
X76874147Y-53103100D01*
X76781015Y-53242481D01*
X76662481Y-53361015D01*
X76523100Y-53454147D01*
X76368228Y-53518297D01*
X76203816Y-53551000D01*
X76036184Y-53551000D01*
X75871772Y-53518297D01*
X75716900Y-53454147D01*
X75577519Y-53361015D01*
X75458985Y-53242481D01*
X75365853Y-53103100D01*
X75301703Y-52948228D01*
X75269000Y-52783816D01*
X75269000Y-52616184D01*
X75301703Y-52451772D01*
X75365853Y-52296900D01*
X75458985Y-52157519D01*
X75577519Y-52038985D01*
X75716900Y-51945853D01*
X75871772Y-51881703D01*
X76036184Y-51849000D01*
X76203816Y-51849000D01*
X76368228Y-51881703D01*
G37*
G36*
X71368228Y-51881703D02*
G01*
X71523100Y-51945853D01*
X71662481Y-52038985D01*
X71781015Y-52157519D01*
X71874147Y-52296900D01*
X71938297Y-52451772D01*
X71971000Y-52616184D01*
X71971000Y-52783816D01*
X71938297Y-52948228D01*
X71874147Y-53103100D01*
X71781015Y-53242481D01*
X71662481Y-53361015D01*
X71523100Y-53454147D01*
X71368228Y-53518297D01*
X71203816Y-53551000D01*
X71036184Y-53551000D01*
X70871772Y-53518297D01*
X70716900Y-53454147D01*
X70577519Y-53361015D01*
X70458985Y-53242481D01*
X70365853Y-53103100D01*
X70301703Y-52948228D01*
X70269000Y-52783816D01*
X70269000Y-52616184D01*
X70301703Y-52451772D01*
X70365853Y-52296900D01*
X70458985Y-52157519D01*
X70577519Y-52038985D01*
X70716900Y-51945853D01*
X70871772Y-51881703D01*
X71036184Y-51849000D01*
X71203816Y-51849000D01*
X71368228Y-51881703D01*
G37*
G36*
X68799059Y-51977860D02*
G01*
X68864936Y-52005147D01*
X68935732Y-52034472D01*
X69058735Y-52116660D01*
X69163340Y-52221265D01*
X69245528Y-52344268D01*
X69245529Y-52344270D01*
X69302140Y-52480941D01*
X69331000Y-52626032D01*
X69331000Y-52773968D01*
X69302140Y-52919059D01*
X69275514Y-52983341D01*
X69245528Y-53055732D01*
X69163340Y-53178735D01*
X69058735Y-53283340D01*
X68935732Y-53365528D01*
X68935731Y-53365529D01*
X68935730Y-53365529D01*
X68799059Y-53422140D01*
X68653968Y-53451000D01*
X68506032Y-53451000D01*
X68360941Y-53422140D01*
X68224270Y-53365529D01*
X68224269Y-53365529D01*
X68224268Y-53365528D01*
X68101265Y-53283340D01*
X67996660Y-53178735D01*
X67914472Y-53055732D01*
X67884487Y-52983341D01*
X67857860Y-52919059D01*
X67829000Y-52773968D01*
X67829000Y-52626032D01*
X67857860Y-52480941D01*
X67914471Y-52344270D01*
X67914472Y-52344268D01*
X67996660Y-52221265D01*
X68101265Y-52116660D01*
X68224268Y-52034472D01*
X68295065Y-52005147D01*
X68360941Y-51977860D01*
X68506032Y-51949000D01*
X68653968Y-51949000D01*
X68799059Y-51977860D01*
G37*
G36*
X66259059Y-51977860D02*
G01*
X66324936Y-52005147D01*
X66395732Y-52034472D01*
X66518735Y-52116660D01*
X66623340Y-52221265D01*
X66705528Y-52344268D01*
X66705529Y-52344270D01*
X66762140Y-52480941D01*
X66791000Y-52626032D01*
X66791000Y-52773968D01*
X66762140Y-52919059D01*
X66735514Y-52983341D01*
X66705528Y-53055732D01*
X66623340Y-53178735D01*
X66518735Y-53283340D01*
X66395732Y-53365528D01*
X66395731Y-53365529D01*
X66395730Y-53365529D01*
X66259059Y-53422140D01*
X66113968Y-53451000D01*
X65966032Y-53451000D01*
X65820941Y-53422140D01*
X65684270Y-53365529D01*
X65684269Y-53365529D01*
X65684268Y-53365528D01*
X65561265Y-53283340D01*
X65456660Y-53178735D01*
X65374472Y-53055732D01*
X65344487Y-52983341D01*
X65317860Y-52919059D01*
X65289000Y-52773968D01*
X65289000Y-52626032D01*
X65317860Y-52480941D01*
X65374471Y-52344270D01*
X65374472Y-52344268D01*
X65456660Y-52221265D01*
X65561265Y-52116660D01*
X65684268Y-52034472D01*
X65755065Y-52005147D01*
X65820941Y-51977860D01*
X65966032Y-51949000D01*
X66113968Y-51949000D01*
X66259059Y-51977860D01*
G37*
G36*
X108719059Y-51677860D02*
G01*
X108855732Y-51734472D01*
X108978735Y-51816660D01*
X109083340Y-51921265D01*
X109161998Y-52038985D01*
X109165529Y-52044270D01*
X109222140Y-52180941D01*
X109251000Y-52326032D01*
X109251000Y-52473968D01*
X109222140Y-52619059D01*
X109181330Y-52717584D01*
X109165528Y-52755732D01*
X109083340Y-52878735D01*
X108978735Y-52983340D01*
X108855732Y-53065528D01*
X108855731Y-53065529D01*
X108855730Y-53065529D01*
X108719059Y-53122140D01*
X108573968Y-53151000D01*
X108426032Y-53151000D01*
X108280941Y-53122140D01*
X108144270Y-53065529D01*
X108144269Y-53065529D01*
X108144268Y-53065528D01*
X108021265Y-52983340D01*
X107916660Y-52878735D01*
X107834472Y-52755732D01*
X107818671Y-52717584D01*
X107777860Y-52619059D01*
X107749000Y-52473968D01*
X107749000Y-52326032D01*
X107777860Y-52180941D01*
X107834471Y-52044270D01*
X107838002Y-52038985D01*
X107916660Y-51921265D01*
X108021265Y-51816660D01*
X108144268Y-51734472D01*
X108280941Y-51677860D01*
X108426032Y-51649000D01*
X108573968Y-51649000D01*
X108719059Y-51677860D01*
G37*
G36*
X106179059Y-51677860D02*
G01*
X106315732Y-51734472D01*
X106438735Y-51816660D01*
X106543340Y-51921265D01*
X106621998Y-52038985D01*
X106625529Y-52044270D01*
X106682140Y-52180941D01*
X106711000Y-52326032D01*
X106711000Y-52473968D01*
X106682140Y-52619059D01*
X106641330Y-52717584D01*
X106625528Y-52755732D01*
X106543340Y-52878735D01*
X106438735Y-52983340D01*
X106315732Y-53065528D01*
X106315731Y-53065529D01*
X106315730Y-53065529D01*
X106179059Y-53122140D01*
X106033968Y-53151000D01*
X105886032Y-53151000D01*
X105740941Y-53122140D01*
X105604270Y-53065529D01*
X105604269Y-53065529D01*
X105604268Y-53065528D01*
X105481265Y-52983340D01*
X105376660Y-52878735D01*
X105294472Y-52755732D01*
X105278671Y-52717584D01*
X105237860Y-52619059D01*
X105209000Y-52473968D01*
X105209000Y-52326032D01*
X105237860Y-52180941D01*
X105294471Y-52044270D01*
X105298002Y-52038985D01*
X105376660Y-51921265D01*
X105481265Y-51816660D01*
X105604268Y-51734472D01*
X105740941Y-51677860D01*
X105886032Y-51649000D01*
X106033968Y-51649000D01*
X106179059Y-51677860D01*
G37*
M02*
